<svg id="Layer_1" data-name="Layer 1" xmlns="http://www.w3.org/2000/svg" viewBox="0 0 21 21"><defs><style>.cls-1{fill:none;stroke:#161616;}</style></defs><title>dislike</title><path class="cls-1" d="M14,12.14h2.45a1.56,1.56,0,0,0,.67-.15,1.58,1.58,0,0,0,.54-.42A1.56,1.56,0,0,0,18,11a1.78,1.78,0,0,0,0-.69h0L16.91,4.45a1.64,1.64,0,0,0-.54-.93,1.6,1.6,0,0,0-1-.36H9.26a1.57,1.57,0,0,0-1.12.46,1.62,1.62,0,0,0-.46,1.12v6.59a4.73,4.73,0,0,1,3,2.19,5.19,5.19,0,0,1,.58,2.55,2.48,2.48,0,0,0,.08.84.36.36,0,0,0,.11.16.52.52,0,0,0,.27.06,1.65,1.65,0,0,0,.73-.19,1.55,1.55,0,0,0,.56-.52h0a4.66,4.66,0,0,0,.43-3.65l-.15-.62ZM3.86,11.8a1.17,1.17,0,0,0,.83.34,1.15,1.15,0,0,0,.82-.34A1.17,1.17,0,0,0,5.85,11V4.32A1.16,1.16,0,0,0,4.69,3.16a1.17,1.17,0,0,0-.83.34,1.19,1.19,0,0,0-.34.82V11A1.22,1.22,0,0,0,3.86,11.8Z"/></svg>