<svg id="Layer_1" data-name="Layer 1" xmlns="http://www.w3.org/2000/svg" viewBox="0 0 8.47 10.75"><defs><style>.cls-1{fill:none;stroke:#231f20;stroke-miterlimit:10;stroke-width:0.25px;}</style></defs><title>dislike</title><path class="cls-1" d="M5.14,9.7a1.78,1.78,0,0,0,.29-.79,9,9,0,0,0,0-1.45H7.13a.59.59,0,0,0,.54-.64,1.94,1.94,0,0,0-.08-.42c0-.19-.12-.43-.2-.68-.15-.5-.33-1.07-.45-1.5a1.35,1.35,0,0,0-.19-.42.43.43,0,0,0-.36-.2H3.46a.6.6,0,0,0-.55.64V6.82a.76.76,0,0,0,.28.63c.16.12.34.2.48.29A1.83,1.83,0,0,1,4.2,9c0,.26,0,.5.06.68a1.74,1.74,0,0,0,0,.22.22.22,0,0,0,.05.08.09.09,0,0,0,.08,0A.83.83,0,0,0,5.14,9.7Zm-3-2h0a.26.26,0,0,0,.26-.26v-4h0a.27.27,0,0,0-.26-.27H1.06a.27.27,0,0,0-.27.27v4h0a.27.27,0,0,0,.27.26Z"/></svg>