<svg id="Layer_1" data-name="Layer 1" xmlns="http://www.w3.org/2000/svg" viewBox="0 0 8.47 10.75"><defs><style>.cls-1{fill:none;stroke:#231f20;stroke-miterlimit:10;stroke-width:0.25px;}</style></defs><title>dislike</title><path class="cls-1" d="M4.44.79a.12.12,0,0,0-.08,0,.35.35,0,0,0-.05.08,1.89,1.89,0,0,0,0,.23c0,.18,0,.42-.06.67a1.79,1.79,0,0,1-.53,1.28c-.14.1-.32.17-.48.3A.76.76,0,0,0,2.91,4V6.59a.61.61,0,0,0,.55.65H6.39A.43.43,0,0,0,6.75,7a1.46,1.46,0,0,0,.19-.42c.12-.43.3-1,.45-1.51.08-.25.15-.48.2-.67A1.94,1.94,0,0,0,7.67,4a.6.6,0,0,0-.54-.65H5.45a8.9,8.9,0,0,0,0-1.44,1.78,1.78,0,0,0-.29-.79A.84.84,0,0,0,4.44.79ZM1.06,3.18a.26.26,0,0,0-.27.26h0v4a.26.26,0,0,0,.27.26H2.12a.26.26,0,0,0,.26-.26h0v-4a.26.26,0,0,0-.26-.26H1.06Z"/></svg>