<svg id="Layer_1" data-name="Layer 1" xmlns="http://www.w3.org/2000/svg" viewBox="0 0 21 21"><defs><style>.cls-1{fill:none;stroke:#161616;}</style></defs><title>like</title><path class="cls-1" d="M14.42,8.15h2.45a1.56,1.56,0,0,1,.67.15,1.65,1.65,0,0,1,.54.41,1.62,1.62,0,0,1,.34,1.3h0l-1.06,5.82a1.64,1.64,0,0,1-.54.93,1.57,1.57,0,0,1-1,.37H9.71a1.59,1.59,0,0,1-1.58-1.58V9a4.76,4.76,0,0,0,3-2.2,5.23,5.23,0,0,0,.57-2.55,2.47,2.47,0,0,1,.09-.84.27.27,0,0,1,.11-.15.41.41,0,0,1,.27-.06,1.58,1.58,0,0,1,1.29.7h0a4.57,4.57,0,0,1,.43,3.65l-.15.62ZM4.31,8.49A1.17,1.17,0,0,1,6,8.49a1.19,1.19,0,0,1,.34.82V16a1.16,1.16,0,0,1-1.17,1.17,1.21,1.21,0,0,1-.82-.34A1.17,1.17,0,0,1,4,16V9.31A1.15,1.15,0,0,1,4.31,8.49Z"/></svg>