<svg id="Layer_1" data-name="Layer 1" xmlns="http://www.w3.org/2000/svg" viewBox="0 0 23.51 23.51"><defs><style>.cls-1{fill:#161616;}</style></defs><title>like-fill</title><path class="cls-1" d="M5.51,9.77a2.21,2.21,0,0,1,.65,1.57v8.83A2.22,2.22,0,0,1,4,22.38a2.19,2.19,0,0,1-1.56-.65,2.21,2.21,0,0,1-.65-1.56V11.34a2.25,2.25,0,0,1,.65-1.57,2.22,2.22,0,0,1,3.12,0ZM22.2,11.18a2.75,2.75,0,0,1,0,1.21l-1.41,7.72a2.74,2.74,0,0,1-2.71,2.27H10a2.76,2.76,0,0,1-1.95-.81,2.8,2.8,0,0,1-.81-1.95V10.8a.55.55,0,0,1,.12-.35.52.52,0,0,1,.3-.2c4-1.12,4.37-4,4.37-5.68,0-.87,0-2.07,1.29-2.07A2.8,2.8,0,0,1,15.6,3.73a6.78,6.78,0,0,1,.68,5.4h3.25a2.77,2.77,0,0,1,1.17.26,2.76,2.76,0,0,1,1.5,1.79Z"/></svg>