<?xml version="1.0" encoding="utf-8"?>
<!-- Generator: Adobe Illustrator 23.0.5, SVG Export Plug-In . SVG Version: 6.00 Build 0)  -->
<svg version="1.1" id="Layer_1" xmlns="http://www.w3.org/2000/svg" xmlns:xlink="http://www.w3.org/1999/xlink" x="0px" y="0px"
	 viewBox="0 0 18 17" style="enable-background:new 0 0 18 17;" xml:space="preserve">
<style type="text/css">
	.st0{fill:none;}
	.st1{fill:#92929D;}
</style>
<rect x="0.9" y="0.1" class="st0" width="16.8" height="16.8"/>
<g>
	<path class="st1" d="M10.5,8.5c-0.3,0-0.6-0.1-0.9-0.1C8.8,8.3,8,8.3,7.1,8.2C6.1,8.1,5.2,8,4.2,7.9c-0.5,0-1-0.1-1.5-0.1
		c-0.1,0-0.1-0.1-0.1-0.2C2.4,6.5,2.1,5.4,1.8,4.4C1.7,3.7,1.5,2.9,1.3,2.2c-0.1-0.6,0-1.1,0.5-1.5c0.5-0.4,1-0.4,1.5-0.1
		c1.9,1,3.8,1.9,5.7,2.9c2.5,1.2,5,2.5,7.5,3.7c0.4,0.2,0.7,0.5,0.8,0.9c0.2,0.7-0.1,1.3-0.7,1.6c-1.3,0.7-2.6,1.3-4,2
		c-3.1,1.6-6.2,3.1-9.3,4.7c-0.9,0.4-1.9,0-2.1-0.9c0-0.2,0-0.4,0-0.6c0.5-1.8,0.9-3.6,1.4-5.5c0-0.1,0.1-0.2,0.2-0.2
		C4.4,9.1,5.9,9,7.4,8.8C8.4,8.7,9.5,8.7,10.5,8.5C10.5,8.6,10.5,8.5,10.5,8.5C10.5,8.5,10.5,8.5,10.5,8.5z"/>
</g>
</svg>
