<svg id="Layer_1" data-name="Layer 1" xmlns="http://www.w3.org/2000/svg" viewBox="0 0 216 69"><defs><style>.cls-1{fill:#fff;stroke:#ddd;stroke-miterlimit:10;}.cls-2{fill:#0291f7;}.cls-3{fill:#fefefe;}</style></defs><title>app-store-button</title><rect class="cls-1" x="1.78548" y="1.69706" width="211.817" height="65.50518" rx="4.4437"/><path d="M81.60938,26.7666V12.31836h1.53271V26.7666Zm.94482,0V25.33887h4.24219a5.93642,5.93642,0,0,0,3.00293-.7461,5.32562,5.32562,0,0,0,2.03711-2.05761,6.0662,6.0662,0,0,0,.73486-3.01368,6.00676,6.00676,0,0,0-.73486-3.00293,5.35373,5.35373,0,0,0-2.03711-2.04785,5.94592,5.94592,0,0,0-3.00293-.74511h-4.2002V12.31836h4.24219a7.72577,7.72577,0,0,1,2.9082.53613,7.03458,7.03458,0,0,1,2.33106,1.51172,6.85577,6.85577,0,0,1,1.54345,2.28906,7.82539,7.82539,0,0,1,0,5.74317,6.91347,6.91347,0,0,1-1.53271,2.2998,7.08553,7.08553,0,0,1-2.3208,1.52246,7.54215,7.54215,0,0,1-2.88721.5459Z"/><path d="M101.24414,26.97656a4.97791,4.97791,0,0,1-2.59326-.69336A5.139,5.139,0,0,1,96.12012,21.79a4.97928,4.97928,0,0,1,.68261-2.583,5.10293,5.10293,0,0,1,1.84815-1.83789,5.035,5.035,0,0,1,2.59326-.68262,5.08831,5.08831,0,0,1,2.604.67188,5.06014,5.06014,0,0,1,2.52,4.43164,5.11387,5.11387,0,0,1-.68261,2.63476,5.191,5.191,0,0,1-1.83741,1.8584A4.96282,4.96282,0,0,1,101.24414,26.97656Zm0-1.42773a3.55048,3.55048,0,0,0,1.8584-.4834,3.475,3.475,0,0,0,1.28125-1.34375,3.94891,3.94891,0,0,0,.47266-1.93164,3.77528,3.77528,0,0,0-.47266-1.90137,3.68612,3.68612,0,0,0-4.98731-1.3125,3.44166,3.44166,0,0,0-1.28125,1.3125A3.84158,3.84158,0,0,0,97.65332,21.79a4.00453,4.00453,0,0,0,.46191,1.94238,3.396,3.396,0,0,0,1.28125,1.333A3.565,3.565,0,0,0,101.24414,25.54883Z"/><path d="M111.11426,26.7666,107.313,16.89648h1.5332l3.00244,8.19043-.5459.02051,2.98243-8.21094h.86035l2.98242,8.21094-.5459-.02051,2.98145-8.19043h1.55468L118.2959,26.7666h-.86133l-3.04492-8.085h.62988l-3.02344,8.085Z"/><path d="M124.0293,26.7666V16.89648H125.499V26.7666Zm7.18164,0V20.9707a2.94232,2.94232,0,0,0-.7666-2.11035,2.662,2.662,0,0,0-2.02637-.80859,2.95427,2.95427,0,0,0-1.51172.37793A2.7833,2.7833,0,0,0,125.877,19.459a2.91232,2.91232,0,0,0-.37793,1.49024l-.67187-.37793a3.83311,3.83311,0,0,1,.52441-1.99512,3.78647,3.78647,0,0,1,1.418-1.38574,4.09025,4.09025,0,0,1,2.04688-.50391,3.757,3.757,0,0,1,2.0166.5459,3.8136,3.8136,0,0,1,1.375,1.46973,4.21579,4.21579,0,0,1,.49414,2.0166V26.7666Z"/><path d="M135.45313,26.7666V11.89844h1.46972V26.7666Z"/><path d="M144.377,26.97656a4.97493,4.97493,0,0,1-2.59277-.69336A5.13812,5.13812,0,0,1,139.25293,21.79a4.97919,4.97919,0,0,1,.68262-2.583,5.108,5.108,0,0,1,1.84863-1.83789,5.032,5.032,0,0,1,2.59277-.68262,5.09017,5.09017,0,0,1,2.6045.67188A5.06111,5.06111,0,0,1,149.501,21.79a5.11388,5.11388,0,0,1-.68262,2.63476,5.19358,5.19358,0,0,1-1.83691,1.8584A4.96462,4.96462,0,0,1,144.377,26.97656Zm0-1.42773a3.55048,3.55048,0,0,0,1.8584-.4834,3.47154,3.47154,0,0,0,1.28125-1.34375,3.94356,3.94356,0,0,0,.47266-1.93164,3.77027,3.77027,0,0,0-.47266-1.90137,3.68611,3.68611,0,0,0-4.9873-1.3125,3.445,3.445,0,0,0-1.28125,1.3125,3.84672,3.84672,0,0,0-.46192,1.90137,4.00991,4.00991,0,0,0,.46192,1.94238,3.39919,3.39919,0,0,0,1.28125,1.333A3.56621,3.56621,0,0,0,144.377,25.54883Z"/><path d="M156.11621,26.97656a4.7236,4.7236,0,0,1-2.52051-.68261,4.90966,4.90966,0,0,1-1.75293-1.83692,5.27393,5.27393,0,0,1-.64062-2.60449,5.376,5.376,0,0,1,.64062-2.63574,4.88962,4.88962,0,0,1,1.75293-1.84766,4.685,4.685,0,0,1,2.499-.68262,4.42842,4.42842,0,0,1,2.02636.45118,3.82839,3.82839,0,0,1,1.44922,1.26074,4.10147,4.10147,0,0,1,.68262,1.8789v3.08692a4.17672,4.17672,0,0,1-.68262,1.89062,3.78725,3.78725,0,0,1-1.44922,1.27051A4.37821,4.37821,0,0,1,156.11621,26.97656Zm.23047-1.40722a3.1745,3.1745,0,0,0,2.46777-1.02832,3.87454,3.87454,0,0,0,.93457-2.709,4.29141,4.29141,0,0,0-.43066-1.96387,3.22519,3.22519,0,0,0-1.19727-1.32324,3.35554,3.35554,0,0,0-1.79492-.47265,3.54816,3.54816,0,0,0-1.8584.48339,3.51053,3.51053,0,0,0-1.28125,1.333,3.93062,3.93062,0,0,0-.47265,1.94336,3.86727,3.86727,0,0,0,.47265,1.93164,3.50238,3.50238,0,0,0,1.292,1.32324A3.60255,3.60255,0,0,0,156.34668,25.56934ZM159.665,26.7666V24.12012l.29394-2.43555-.29394-2.373v-2.415h1.46973V26.7666Z"/><path d="M168.31738,26.97656a4.58969,4.58969,0,0,1-2.457-.67187,4.85808,4.85808,0,0,1-1.73242-1.83789,5.69824,5.69824,0,0,1,0-5.25,4.94339,4.94339,0,0,1,1.73242-1.84766,4.78947,4.78947,0,0,1,4.47266-.24121,4.06308,4.06308,0,0,1,1.50195,1.249,3.736,3.736,0,0,1,.70313,1.90039v3.08692a3.97778,3.97778,0,0,1-.70313,1.87988,4.0716,4.0716,0,0,1-1.48047,1.27051A4.41464,4.41464,0,0,1,168.31738,26.97656Zm.252-1.40722a3.40169,3.40169,0,0,0,1.80566-.47266,3.27567,3.27567,0,0,0,1.21777-1.32227,4.14942,4.14942,0,0,0,.44141-1.94238,4.06428,4.06428,0,0,0-.45117-1.95312,3.45267,3.45267,0,0,0-1.22852-1.32325,3.35,3.35,0,0,0-1.80664-.48339,3.45234,3.45234,0,0,0-1.82617.48339,3.3774,3.3774,0,0,0-1.25,1.333,4.40887,4.40887,0,0,0,0,3.88574,3.27508,3.27508,0,0,0,1.25977,1.32227A3.56972,3.56972,0,0,0,168.56934,25.56934Zm4.85058,1.19726H171.9502V24.12012l.29394-2.43555-.29394-2.373V11.89844h1.46972Z"/><path d="M82.51221,40.35352a1.65437,1.65437,0,0,1-1.24951-.51465,1.84052,1.84052,0,0,1,0-2.50879,1.67452,1.67452,0,0,1,1.24951-.50391,1.64186,1.64186,0,0,1,1.23925.50391,1.8706,1.8706,0,0,1,0,2.50879A1.62242,1.62242,0,0,1,82.51221,40.35352ZM80.895,51.9668V41.76074H84.1084V51.9668Z"/><path d="M93.74658,52.21875a8.01006,8.01006,0,0,1-3.09717-.58789,7.7565,7.7565,0,0,1-2.48877-1.6377,7.42885,7.42885,0,0,1-1.65918-2.44726,8.04339,8.04339,0,0,1,0-6.03711,7.45663,7.45663,0,0,1,4.106-4.043,8.54375,8.54375,0,0,1,6.17383,0,7.61861,7.61861,0,0,1,2.478,1.61719,7.40573,7.40573,0,0,1,1.64843,2.43652,8.0708,8.0708,0,0,1,0,6.04785,7.46166,7.46166,0,0,1-1.63818,2.43555,7.60555,7.60555,0,0,1-2.46728,1.62793A7.90129,7.90129,0,0,1,93.74658,52.21875Zm-.042-3.00293a4.48973,4.48973,0,0,0,2.3208-.58789,3.99089,3.99089,0,0,0,1.54346-1.64844,5.27342,5.27342,0,0,0,.5459-2.44629,5.44553,5.44553,0,0,0-.31495-1.90136,4.25656,4.25656,0,0,0-.90332-1.46973A3.92619,3.92619,0,0,0,95.5,40.21777a4.75142,4.75142,0,0,0-1.79541-.32617,4.5396,4.5396,0,0,0-2.32031.57813,3.94918,3.94918,0,0,0-1.54346,1.61621,5.19066,5.19066,0,0,0-.5459,2.44726,5.51978,5.51978,0,0,0,.31494,1.91016,4.30242,4.30242,0,0,0,.89258,1.48047,3.88911,3.88911,0,0,0,1.39649.956A4.71848,4.71848,0,0,0,93.70459,49.21582Z"/><path d="M107.71191,52.19824a7.52829,7.52829,0,0,1-3.13916-.59863A7.31829,7.31829,0,0,1,102.168,49.7832l2.14209-2.12109a5.3935,5.3935,0,0,0,1.58545,1.27051,4.34628,4.34628,0,0,0,2.02637.45117,2.96117,2.96117,0,0,0,1.62744-.37793,1.18839,1.18839,0,0,0,.57763-1.04981,1.33524,1.33524,0,0,0-.37793-.9873,3.25285,3.25285,0,0,0-.99756-.65137q-.61962-.27246-1.36474-.52441-.7456-.252-1.48047-.57813a6.151,6.151,0,0,1-1.35449-.81836,3.691,3.691,0,0,1-.99756-1.23925,4.18555,4.18555,0,0,1,2.1206-5.7334,6.70754,6.70754,0,0,1,2.709-.51367,7.23222,7.23222,0,0,1,2.8457.54589,5.83761,5.83761,0,0,1,2.13086,1.49122l-2.1416,2.12011a4.99528,4.99528,0,0,0-1.354-1.02832,3.45649,3.45649,0,0,0-1.54395-.33593,2.493,2.493,0,0,0-1.36475.32519,1.04681,1.04681,0,0,0-.5039.93457,1.17891,1.17891,0,0,0,.37793.91309,3.29583,3.29583,0,0,0,.99756.59863q.61888.252,1.36474.50391a15.59352,15.59352,0,0,1,1.48047.58789,6.06976,6.06976,0,0,1,1.35449.85058,3.80666,3.80666,0,0,1,.99707,1.30274,4.46658,4.46658,0,0,1,.37793,1.94238,4.02461,4.02461,0,0,1-1.51171,3.32812A6.52229,6.52229,0,0,1,107.71191,52.19824Z"/><path d="M123.46191,52.17676a4.61763,4.61763,0,0,1-2.50976-.69336,4.931,4.931,0,0,1-1.74317-1.88965,6.13717,6.13717,0,0,1,0-5.46,4.931,4.931,0,0,1,1.74317-1.88965,4.61763,4.61763,0,0,1,2.50976-.69336,4.2274,4.2274,0,0,1,1.8584.39942,3.60925,3.60925,0,0,1,1.35449,1.10253,2.9756,2.9756,0,0,1,.5879,1.60645v4.40918a3.02592,3.02592,0,0,1-.57715,1.60742,3.51272,3.51272,0,0,1-1.3545,1.10156A4.29622,4.29622,0,0,1,123.46191,52.17676Zm.65039-2.89844a2.14975,2.14975,0,0,0,1.65918-.68164,2.45456,2.45456,0,0,0,.62989-1.73242,2.69224,2.69224,0,0,0-.28321-1.26074,2.089,2.089,0,0,0-.79785-.85059,2.46958,2.46958,0,0,0-2.373,0,2.22852,2.22852,0,0,0-.81934.85059,2.75391,2.75391,0,0,0-.00977,2.499,2.198,2.198,0,0,0,.81836.86133A2.2407,2.2407,0,0,0,124.1123,49.27832Zm2.16309,2.68848v-2.751l.4834-2.47754-.4834-2.47851v-2.499h3.15039V51.9668Z"/><path d="M131.69336,56.27148V41.76074h3.21289v2.625l-.52539,2.47852.4834,2.47754v6.92968Zm5.87988-4.09472a4.42858,4.42858,0,0,1-1.88965-.39942,3.73223,3.73223,0,0,1-1.40722-1.10156,3.02179,3.02179,0,0,1-.62989-1.60742V44.76367a3.19045,3.19045,0,0,1,.62989-1.63769,3.79428,3.79428,0,0,1,1.40722-1.15528,4.24644,4.24644,0,0,1,1.88965-.41992,4.80017,4.80017,0,0,1,2.57227.69336,4.888,4.888,0,0,1,1.76465,1.88965,6.13717,6.13717,0,0,1,0,5.46,4.88807,4.88807,0,0,1-1.76465,1.88965A4.80017,4.80017,0,0,1,137.57324,52.17676Zm-.58789-2.89844a2.26441,2.26441,0,0,0,1.207-.31445,2.22287,2.22287,0,0,0,.8086-.86133,2.56366,2.56366,0,0,0,.29394-1.23828,2.61539,2.61539,0,0,0-.29394-1.26074,2.154,2.154,0,0,0-.8086-.85059,2.46768,2.46768,0,0,0-2.37207,0,2.14728,2.14728,0,0,0-.80859.85059,2.84965,2.84965,0,0,0-.01074,2.499,2.12071,2.12071,0,0,0,.80859.86133A2.23823,2.23823,0,0,0,136.98535,49.27832Z"/><path d="M144.1875,56.27148V41.76074h3.21387v2.625l-.52539,2.47852.4834,2.47754v6.92968Zm5.88086-4.09472a4.433,4.433,0,0,1-1.89063-.39942,3.73223,3.73223,0,0,1-1.40722-1.10156,3.0217,3.0217,0,0,1-.62988-1.60742V44.76367a3.19035,3.19035,0,0,1,.62988-1.63769,3.79428,3.79428,0,0,1,1.40722-1.15528,4.25062,4.25062,0,0,1,1.89063-.41992,4.80017,4.80017,0,0,1,2.57227.69336,4.87834,4.87834,0,0,1,1.76367,1.88965,6.13717,6.13717,0,0,1,0,5.46,4.87841,4.87841,0,0,1-1.76367,1.88965A4.80017,4.80017,0,0,1,150.06836,52.17676Zm-.58887-2.89844a2.26793,2.26793,0,0,0,1.208-.31445,2.23,2.23,0,0,0,.80859-.86133,2.57466,2.57466,0,0,0,.29395-1.23828,2.62647,2.62647,0,0,0-.29395-1.26074,2.1608,2.1608,0,0,0-.80859-.85059,2.46959,2.46959,0,0,0-2.37305,0,2.1608,2.1608,0,0,0-.80859.85059,2.61539,2.61539,0,0,0-.294,1.26074,2.65038,2.65038,0,0,0,.28321,1.23828,2.13379,2.13379,0,0,0,.80859.86133A2.2407,2.2407,0,0,0,149.47949,49.27832Z"/><path class="cls-2" d="M57.32322,23.14582V48.68949A7.82216,7.82216,0,0,1,55.47029,53.094a8.3855,8.3855,0,0,1-4.11507,2.67982,12.51149,12.51149,0,0,1-1.49861.225H24.39154a7.26049,7.26049,0,0,1-2.55837-.66907,8.28544,8.28544,0,0,1-4.50168-5.17337,6.63559,6.63559,0,0,1-.28487-2.04994q-.00611-12.07907-.00472-24.15813a7.96035,7.96035,0,0,1,3.94235-7.06486,7.33313,7.33313,0,0,1,4.05331-1.16785c8.11817.00841,16.23657-.0307,24.35443.02071a7.82358,7.82358,0,0,1,7.227,4.7026A6.79276,6.79276,0,0,1,57.32322,23.14582Z"/><path class="cls-3" d="M40.68876,42.558c-5.01749,0-9.96638.00651-14.91522-.005a1.95911,1.95911,0,0,1-.00985-3.91821c1.178-.01959,2.35673-.01529,3.5348.00215a.50466.50466,0,0,0,.51347-.30372q2.475-4.31654,4.971-8.621a.44378.44378,0,0,0,.00727-.5242c-.45513-.76241-.92283-1.52053-1.32175-2.31253a1.94483,1.94483,0,0,1,1.75269-2.85786,1.87356,1.87356,0,0,1,1.54527.79408c.14649.1991.26941.41554.41684.64555.20384-.15546.26884-.40367.41047-.59437a1.8958,1.8958,0,0,1,1.874-.8267A1.87091,1.87091,0,0,1,41.07523,25.404a2.10409,2.10409,0,0,1-.28052,1.76081q-1.85963,3.20142-3.70678,6.41005-1.43931,2.49168-2.87652,4.98277c.08124.12621.1964.06811.28817.06846,1.2176.00468,2.43522.00316,3.65283.00307.1407,0,.26624-.01693.361.14989C39.22133,40.025,39.94171,41.26393,40.68876,42.558Z"/><path class="cls-3" d="M40.37879,31.01848c1.40056,2.4262,2.77353,4.78521,4.1205,7.159a.781.781,0,0,0,.81837.46322c1.05949-.034,2.12081-.0154,3.18137-.01042a1.96824,1.96824,0,1,1,.00005,3.9282c-.46571.0033-.93147.00053-1.45407.00053.43847.76207.85791,1.46593,1.25265,2.18338a1.96124,1.96124,0,1,1-3.40454,1.94234c-.71284-1.202-1.40433-2.41666-2.10323-3.6269q-2.24358-3.885-4.4907-7.768a.567.567,0,0,1-.0101-.6685C38.98992,33.44429,39.66618,32.25265,40.37879,31.01848Z"/><path class="cls-3" d="M30.9998,44.13092c-.59437.97485-1.05341,1.94651-1.67761,2.81554a1.91332,1.91332,0,0,1-2.58566.49815,1.98615,1.98615,0,0,1-.73509-2.50955,1.126,1.126,0,0,1,1.27226-.82569C28.48634,44.18728,29.7076,44.13092,30.9998,44.13092Z"/></svg>