<?xml version="1.0" encoding="utf-8"?>
<!-- Generator: Adobe Illustrator 18.1.1, SVG Export Plug-In . SVG Version: 6.00 Build 0)  -->
<svg version="1.1" id="Layer_1" xmlns="http://www.w3.org/2000/svg" xmlns:xlink="http://www.w3.org/1999/xlink" x="0px" y="0px"
	 viewBox="0 0 100 100" enable-background="new 0 0 100 100" xml:space="preserve">
<path fill="#E11F26" d="M81.7,9.9v18.2l-21.3-4.7c-0.9-0.2-1.7-0.1-2.5,0.2l-2.4-4.8c-1.6-3.2-5.5-4.6-8.8-3.1L19.3,28.1V9.9
	c0-1.2,1-2.2,2.2-2.2h58C80.7,7.6,81.7,8.6,81.7,9.9z M54.9,27.6l-3.5-6.9c-0.5-1.1-1.8-1.5-2.9-1L3.4,40.2
	c-1.1,0.5-1.6,1.8-1.1,2.9l8.1,19.4V45.6c0-3.7,3-6.7,6.7-6.7h36.4L54.9,27.6z M97.2,36.1l-37.7-8.4L58,38.9h26c3.7,0,6.7,3,6.7,6.7
	v17.8L98.8,39C99.2,37.7,98.5,36.4,97.2,36.1z M84,43.3H17.1c-1.2,0-2.2,1-2.2,2.2v44.6c0,1.2,1,2.2,2.2,2.2H84c1.2,0,2.2-1,2.2-2.2
	V45.6C86.2,44.3,85.2,43.3,84,43.3z M34.9,60c-4.3,0-7.8,3.5-7.8,7.8c0,4.3,3.5,7.8,7.8,7.8c3.1,0,5.8-1.8,7.1-4.5h-7.1v-6.7h14.5
	v3.3c0,8-6.5,14.5-14.5,14.5c-8,0-14.5-6.5-14.5-14.5s6.5-14.5,14.5-14.5c2.8,0,5.5,0.8,7.7,2.2l-3.6,5.7C37.9,60.5,36.4,60,34.9,60
	z M55,60h20.1v-6.7H55V60z M79.5,71.2H55v-6.7h24.5V71.2z M55,82.4h20.1v-6.7H55V82.4z"/>
</svg>
