<?xml version="1.0" encoding="utf-8"?>
<!-- Generator: Adobe Illustrator 18.1.1, SVG Export Plug-In . SVG Version: 6.00 Build 0)  -->
<svg version="1.1" id="Layer_1" xmlns="http://www.w3.org/2000/svg" xmlns:xlink="http://www.w3.org/1999/xlink" x="0px" y="0px"
	 viewBox="-31 33 36 36" enable-background="new -31 33 36 36" xml:space="preserve">
<circle fill="none" stroke="#DAE1EA" stroke-width="0.6678" cx="-13" cy="51.1" r="17"/>
<path fill="#E21B22" d="M-6.6,42.7v3.7l-4.4-1c-0.2,0-0.4,0-0.5,0l-0.5-1c-0.3-0.7-1.1-0.9-1.8-0.6l-5.6,2.6v-3.7
	c0-0.3,0.2-0.5,0.5-0.5H-7C-6.8,42.3-6.6,42.5-6.6,42.7z M-12.1,46.4l-0.7-1.4c-0.1-0.2-0.4-0.3-0.6-0.2l-9.3,4.2
	c-0.2,0.1-0.3,0.4-0.2,0.6l1.7,4v-3.5c0-0.8,0.6-1.4,1.4-1.4h7.5L-12.1,46.4z M-3.4,48.1l-7.8-1.7l-0.3,2.3h5.3
	c0.8,0,1.4,0.6,1.4,1.4v3.7l1.7-5C-3,48.5-3.1,48.2-3.4,48.1z M-6.1,49.6h-13.7c-0.3,0-0.5,0.2-0.5,0.5v9.2c0,0.3,0.2,0.5,0.5,0.5
	h13.7c0.3,0,0.5-0.2,0.5-0.5v-9.2C-5.7,49.8-5.9,49.6-6.1,49.6z M-16.2,53.1c-0.9,0-1.6,0.7-1.6,1.6c0,0.9,0.7,1.6,1.6,1.6
	c0.6,0,1.2-0.4,1.4-0.9h-1.4V54h3v0.7c0,1.6-1.3,3-3,3c-1.6,0-3-1.3-3-3c0-1.6,1.3-3,3-3c0.6,0,1.1,0.2,1.6,0.5l-0.7,1.2
	C-15.6,53.2-15.9,53.1-16.2,53.1z M-12.1,53.1H-8v-1.4h-4.1V53.1z M-7,55.4h-5V54h5V55.4z M-12.1,57.6H-8v-1.4h-4.1V57.6z"/>
</svg>
