<svg width="36" height="36" viewBox="0 0 36 36" fill="none" xmlns="http://www.w3.org/2000/svg">
<circle cx="17.9792" cy="18.0971" r="17.0301" stroke="#DAE1EA" stroke-width="0.667846"/>
<path d="M26.0189 14.796C25.981 13.9442 25.8421 13.3586 25.6431 12.8512C25.4379 12.3125 25.1221 11.8303 24.7084 11.4294C24.3042 11.0223 23.8147 10.7059 23.2779 10.5055C22.7633 10.3082 22.1759 10.1705 21.317 10.1329C20.4517 10.0922 20.177 10.0828 17.9823 10.0828C15.7877 10.0828 15.513 10.0922 14.6509 10.1297C13.792 10.1673 13.2015 10.3052 12.69 10.5024C12.1467 10.7059 11.6605 11.0191 11.2563 11.4294C10.8458 11.8303 10.5269 12.3157 10.3247 12.8481C10.1258 13.3586 9.98688 13.9411 9.94901 14.7929C9.90794 15.651 9.89844 15.9235 9.89844 18.1C9.89844 20.2766 9.90794 20.549 9.9458 21.404C9.98367 22.2558 10.1227 22.8415 10.3217 23.3489C10.5269 23.8875 10.8458 24.3698 11.2563 24.7707C11.6605 25.1778 12.15 25.4941 12.6868 25.6945C13.2015 25.8918 13.7888 26.0296 14.6478 26.0671C15.5098 26.1048 15.7846 26.1141 17.9792 26.1141C20.1739 26.1141 20.4486 26.1048 21.3107 26.0671C22.1696 26.0296 22.7601 25.8918 23.2716 25.6945C24.3579 25.278 25.2168 24.4262 25.6368 23.3489C25.8357 22.8384 25.9747 22.2558 26.0126 21.404C26.0504 20.549 26.0599 20.2766 26.0599 18.1C26.0599 15.9235 26.0567 15.651 26.0189 14.796ZM24.5632 21.3414C24.5284 22.1243 24.3958 22.5471 24.2853 22.829C24.0137 23.5274 23.4548 24.0817 22.7506 24.351C22.4664 24.4607 22.037 24.5922 21.2506 24.6265C20.398 24.6642 20.1423 24.6735 17.9855 24.6735C15.8288 24.6735 15.5698 24.6642 14.7203 24.6265C13.9309 24.5922 13.5046 24.4607 13.2204 24.351C12.87 24.2226 12.551 24.019 12.2921 23.7528C12.0236 23.4929 11.8184 23.1797 11.6889 22.8322C11.5783 22.5503 11.4457 22.1243 11.4111 21.3446C11.3731 20.499 11.3637 20.2453 11.3637 18.1063C11.3637 15.9673 11.3731 15.7105 11.4111 14.8681C11.4457 14.0852 11.5783 13.6624 11.6889 13.3805C11.8184 13.0328 12.0236 12.7166 12.2953 12.4597C12.5573 12.1935 12.873 11.9899 13.2236 11.8616C13.5078 11.752 13.9373 11.6205 14.7235 11.586C15.5761 11.5484 15.832 11.539 17.9886 11.539C20.1486 11.539 20.4043 11.5484 21.2538 11.586C22.0433 11.6205 22.4696 11.752 22.7538 11.8616C23.1042 11.9899 23.4232 12.1935 23.6821 12.4597C23.9505 12.7197 24.1558 13.0328 24.2853 13.3805C24.3958 13.6624 24.5284 14.0882 24.5632 14.8681C24.6011 15.7137 24.6106 15.9673 24.6106 18.1063C24.6106 20.2453 24.6011 20.4958 24.5632 21.3414Z" fill="#E21B22"/>
<path d="M17.9825 13.9817C15.6901 13.9817 13.8301 15.8262 13.8301 18.0999C13.8301 20.3736 15.6901 22.2182 17.9825 22.2182C20.2751 22.2182 22.135 20.3736 22.135 18.0999C22.135 15.8262 20.2751 13.9817 17.9825 13.9817ZM17.9825 20.7713C16.4953 20.7713 15.2889 19.575 15.2889 18.0999C15.2889 16.6248 16.4953 15.4285 17.9825 15.4285C19.4699 15.4285 20.6762 16.6248 20.6762 18.0999C20.6762 19.575 19.4699 20.7713 17.9825 20.7713V20.7713Z" fill="#E21B22"/>
<path d="M23.269 13.8191C23.269 14.35 22.835 14.7805 22.2995 14.7805C21.7641 14.7805 21.3301 14.35 21.3301 13.8191C21.3301 13.288 21.7641 12.8577 22.2995 12.8577C22.835 12.8577 23.269 13.288 23.269 13.8191V13.8191Z" fill="#E21B22"/>
</svg>
