<svg width="36" height="36" viewBox="0 0 36 36" fill="none" xmlns="http://www.w3.org/2000/svg">
<circle cx="18.0925" cy="18.0971" r="17.0301" stroke="#DAE1EA" stroke-width="0.667846"/>
<path d="M11.1995 24.7757H13.1162C13.3806 24.7757 13.5949 24.5631 13.5949 24.3009V15.992C13.5949 15.7298 13.3806 15.5172 13.1162 15.5172H11.1995C10.935 15.5172 10.7207 15.7298 10.7207 15.992V24.3009C10.7207 24.5631 10.935 24.7757 11.1995 24.7757Z" fill="#E21B22"/>
<path d="M11.1995 14.0564H13.1162C13.3806 14.0564 13.5949 13.8438 13.5949 13.5815V11.8935C13.5949 11.6313 13.3806 11.4187 13.1162 11.4187H11.1995C10.935 11.4187 10.7207 11.6313 10.7207 11.8935V13.5815C10.7207 13.8438 10.935 14.0564 11.1995 14.0564Z" fill="#E21B22"/>
<path d="M24.7428 16.4809C24.4735 16.1293 24.0763 15.8401 23.5512 15.6135C23.0261 15.387 22.4464 15.2737 21.8122 15.2737C20.5248 15.2737 19.4339 15.761 18.5396 16.7357C18.3616 16.9297 18.2322 16.8873 18.2322 16.625V15.992C18.2322 15.7297 18.0179 15.5172 17.7534 15.5172H16.0413C15.7768 15.5172 15.5625 15.7297 15.5625 15.992V24.3008C15.5625 24.5631 15.7768 24.7757 16.0413 24.7757H17.958C18.2224 24.7757 18.4367 24.5631 18.4367 24.3008V21.4112C18.4367 20.2074 18.51 19.3823 18.6566 18.936C18.8032 18.4896 19.0743 18.1312 19.4698 17.8607C19.8654 17.5902 20.312 17.4548 20.8098 17.4548C21.1985 17.4548 21.531 17.5495 21.8072 17.739C22.0834 17.9284 22.2829 18.1937 22.4056 18.5353C22.5284 18.8768 22.5898 19.6292 22.5898 20.7925V24.3008C22.5898 24.5631 22.8041 24.7757 23.0685 24.7757H24.9852C25.2497 24.7757 25.464 24.5631 25.464 24.3008V19.5954C25.464 18.7636 25.4111 18.1244 25.3055 17.6781C25.1999 17.2318 25.0123 16.8327 24.7428 16.4809Z" fill="#E21B22"/>
</svg>
