<?xml version="1.0" encoding="utf-8"?>
<!-- Generator: Adobe Illustrator 23.0.5, SVG Export Plug-In . SVG Version: 6.00 Build 0)  -->
<svg version="1.1" id="Layer_1" xmlns="http://www.w3.org/2000/svg" xmlns:xlink="http://www.w3.org/1999/xlink" x="0px" y="0px"
	 viewBox="0 0 216 69" style="enable-background:new 0 0 216 69;" xml:space="preserve">
<style type="text/css">
	.st0{fill:#FFFFFF;stroke:#DDDDDD;stroke-miterlimit:10;}
	.st1{enable-background:new    ;}
	.st2{fill:#F53448;}
	.st3{fill:#00EF76;}
	.st4{fill:#FECD00;}
	.st5{fill:#00E0FE;}
</style>
<title>playstore-button</title>
<path class="st0" d="M6.5,1.7h202.9c2.5,0,4.4,2,4.4,4.4v56.6c0,2.5-2,4.4-4.4,4.4H6.5c-2.5,0-4.4-2-4.4-4.4V6.1
	C2.1,3.7,4.1,1.7,6.5,1.7z"/>
<g class="st1">
	<path d="M67,26.8V12.3h1.5v14.4H67z M68,26.8v-1.4h4.2c1.1,0,2.1-0.2,3-0.7c0.9-0.5,1.5-1.2,2-2.1c0.5-0.9,0.7-1.9,0.7-3
		s-0.2-2.1-0.7-3c-0.5-0.9-1.2-1.6-2-2c-0.9-0.5-1.9-0.7-3-0.7H68v-1.4h4.2c1,0,2,0.2,2.9,0.5c0.9,0.4,1.7,0.9,2.3,1.5
		s1.2,1.4,1.5,2.3s0.5,1.8,0.5,2.9c0,1-0.2,2-0.5,2.9s-0.9,1.6-1.5,2.3c-0.7,0.7-1.4,1.2-2.3,1.5s-1.9,0.5-2.9,0.5H68z"/>
	<path d="M86.7,27c-1,0-1.8-0.2-2.6-0.7c-0.8-0.5-1.4-1.1-1.8-1.9c-0.5-0.8-0.7-1.7-0.7-2.6c0-1,0.2-1.8,0.7-2.6
		c0.5-0.8,1.1-1.4,1.8-1.8c0.8-0.5,1.6-0.7,2.6-0.7c1,0,1.8,0.2,2.6,0.7c0.8,0.4,1.4,1.1,1.8,1.8c0.5,0.8,0.7,1.6,0.7,2.6
		c0,1-0.2,1.9-0.7,2.6c-0.5,0.8-1.1,1.4-1.8,1.9S87.6,27,86.7,27z M86.7,25.5c0.7,0,1.3-0.2,1.9-0.5c0.5-0.3,1-0.8,1.3-1.3
		s0.5-1.2,0.5-1.9c0-0.7-0.2-1.3-0.5-1.9c-0.3-0.6-0.7-1-1.3-1.3c-0.5-0.3-1.2-0.5-1.9-0.5c-0.7,0-1.3,0.2-1.8,0.5
		c-0.5,0.3-1,0.8-1.3,1.3c-0.3,0.6-0.5,1.2-0.5,1.9c0,0.7,0.2,1.4,0.5,1.9c0.3,0.6,0.7,1,1.3,1.3C85.4,25.4,86,25.5,86.7,25.5z"/>
	<path d="M96.5,26.8l-3.8-9.9h1.5l3,8.2l-0.5,0l3-8.2h0.9l3,8.2l-0.5,0l3-8.2h1.6l-3.8,9.9h-0.9l-3-8.1h0.6l-3,8.1H96.5z"/>
	<path d="M109.5,26.8v-9.9h1.5v9.9H109.5z M116.6,26.8V21c0-0.9-0.3-1.6-0.8-2.1c-0.5-0.5-1.2-0.8-2-0.8c-0.6,0-1.1,0.1-1.5,0.4
		s-0.8,0.6-1,1c-0.3,0.4-0.4,0.9-0.4,1.5l-0.7-0.4c0-0.7,0.2-1.4,0.5-2c0.3-0.6,0.8-1,1.4-1.4s1.3-0.5,2-0.5c0.8,0,1.4,0.2,2,0.5
		c0.6,0.4,1,0.9,1.4,1.5c0.3,0.6,0.5,1.3,0.5,2v6H116.6z"/>
	<path d="M120.9,26.8V11.9h1.5v14.9H120.9z"/>
	<path d="M129.8,27c-1,0-1.8-0.2-2.6-0.7s-1.4-1.1-1.8-1.9c-0.5-0.8-0.7-1.7-0.7-2.6c0-1,0.2-1.8,0.7-2.6c0.5-0.8,1.1-1.4,1.8-1.8
		s1.6-0.7,2.6-0.7c1,0,1.8,0.2,2.6,0.7c0.8,0.4,1.4,1.1,1.8,1.8c0.5,0.8,0.7,1.6,0.7,2.6c0,1-0.2,1.9-0.7,2.6
		c-0.5,0.8-1.1,1.4-1.8,1.9C131.6,26.7,130.8,27,129.8,27z M129.8,25.5c0.7,0,1.3-0.2,1.9-0.5c0.5-0.3,1-0.8,1.3-1.3
		c0.3-0.6,0.5-1.2,0.5-1.9c0-0.7-0.2-1.3-0.5-1.9c-0.3-0.6-0.7-1-1.3-1.3c-0.5-0.3-1.2-0.5-1.9-0.5c-0.7,0-1.3,0.2-1.8,0.5
		c-0.5,0.3-1,0.8-1.3,1.3c-0.3,0.6-0.5,1.2-0.5,1.9c0,0.7,0.2,1.4,0.5,1.9c0.3,0.6,0.7,1,1.3,1.3C128.5,25.4,129.1,25.5,129.8,25.5z
		"/>
	<path d="M141.6,27c-0.9,0-1.8-0.2-2.5-0.7s-1.3-1.1-1.8-1.8c-0.4-0.8-0.6-1.6-0.6-2.6c0-1,0.2-1.9,0.6-2.6c0.4-0.8,1-1.4,1.8-1.8
		s1.6-0.7,2.5-0.7c0.8,0,1.4,0.2,2,0.5c0.6,0.3,1.1,0.7,1.4,1.3s0.6,1.2,0.7,1.9v3.1c-0.1,0.7-0.3,1.3-0.7,1.9s-0.9,1-1.4,1.3
		S142.3,27,141.6,27z M141.8,25.6c1,0,1.8-0.3,2.5-1c0.6-0.7,0.9-1.6,0.9-2.7c0-0.7-0.1-1.4-0.4-2s-0.7-1-1.2-1.3
		c-0.5-0.3-1.1-0.5-1.8-0.5c-0.7,0-1.3,0.2-1.9,0.5s-1,0.8-1.3,1.3c-0.3,0.6-0.5,1.2-0.5,1.9c0,0.7,0.2,1.4,0.5,1.9
		c0.3,0.6,0.7,1,1.3,1.3C140.5,25.4,141.1,25.6,141.8,25.6z M145.1,26.8v-2.6l0.3-2.4l-0.3-2.4v-2.4h1.5v9.9H145.1z"/>
	<path d="M153.8,27c-0.9,0-1.7-0.2-2.5-0.7c-0.7-0.4-1.3-1.1-1.7-1.8c-0.4-0.8-0.6-1.6-0.6-2.6c0-1,0.2-1.9,0.6-2.6
		c0.4-0.8,1-1.4,1.7-1.8c0.7-0.5,1.5-0.7,2.5-0.7c0.7,0,1.4,0.1,2,0.4c0.6,0.3,1.1,0.7,1.5,1.2c0.4,0.5,0.6,1.2,0.7,1.9v3.1
		c-0.1,0.7-0.3,1.3-0.7,1.9c-0.4,0.5-0.9,1-1.5,1.3C155.2,26.8,154.5,27,153.8,27z M154,25.6c0.7,0,1.3-0.2,1.8-0.5
		c0.5-0.3,0.9-0.8,1.2-1.3c0.3-0.6,0.4-1.2,0.4-1.9c0-0.7-0.2-1.4-0.5-2c-0.3-0.6-0.7-1-1.2-1.3c-0.5-0.3-1.1-0.5-1.8-0.5
		s-1.3,0.2-1.8,0.5s-0.9,0.8-1.2,1.3c-0.3,0.6-0.5,1.2-0.5,1.9c0,0.7,0.2,1.4,0.5,1.9c0.3,0.6,0.7,1,1.3,1.3
		C152.7,25.4,153.3,25.6,154,25.6z M158.9,26.8h-1.5v-2.6l0.3-2.4l-0.3-2.4v-7.4h1.5V26.8z"/>
</g>
<g class="st1">
	<path d="M65.5,52l5.9-14.8h3L80.2,52h-3.5l-4.5-12.3h1.2L68.9,52H65.5z M68.8,49.3v-2.7h8.1v2.7H68.8z"/>
	<path d="M81.6,52V41.8h3.2V52H81.6z M88.4,52v-5.8c0-0.5-0.2-1-0.5-1.3c-0.3-0.3-0.7-0.5-1.2-0.5c-0.4,0-0.7,0.1-0.9,0.2
		c-0.3,0.1-0.5,0.4-0.6,0.6c-0.2,0.3-0.2,0.6-0.2,0.9l-1.2-0.6c0-0.8,0.2-1.5,0.5-2.1s0.8-1.1,1.5-1.4s1.3-0.5,2.1-0.5
		c0.8,0,1.4,0.2,2,0.5c0.6,0.4,1,0.8,1.4,1.4s0.5,1.2,0.5,1.9V52H88.4z"/>
	<path d="M98,52.2c-1,0-1.8-0.2-2.6-0.7c-0.7-0.5-1.3-1.1-1.8-1.9c-0.4-0.8-0.6-1.7-0.6-2.7c0-1,0.2-1.9,0.6-2.7
		c0.4-0.8,1-1.4,1.8-1.9c0.7-0.5,1.6-0.7,2.6-0.7c0.7,0,1.3,0.1,1.9,0.4c0.6,0.3,1,0.6,1.4,1.1c0.4,0.5,0.6,1,0.6,1.6V49
		c0,0.6-0.2,1.1-0.6,1.6s-0.8,0.9-1.4,1.2C99.3,52,98.7,52.2,98,52.2z M98.6,49.3c0.5,0,0.9-0.1,1.2-0.3s0.6-0.5,0.8-0.8
		c0.2-0.4,0.3-0.8,0.3-1.3c0-0.5-0.1-0.9-0.3-1.3c-0.2-0.4-0.5-0.6-0.8-0.9c-0.3-0.2-0.7-0.3-1.2-0.3s-0.8,0.1-1.2,0.3
		c-0.3,0.2-0.6,0.5-0.8,0.9c-0.2,0.4-0.3,0.8-0.3,1.2c0,0.5,0.1,0.9,0.3,1.2c0.2,0.4,0.5,0.7,0.8,0.9C97.7,49.2,98.1,49.3,98.6,49.3
		z M103.9,52h-3.1v-2.8l0.5-2.5l-0.5-2.5v-7.5h3.2V52z"/>
	<path d="M106.1,52V41.8h3.2V52H106.1z M109.4,46.4l-1.3-1c0.3-1.2,0.7-2.1,1.3-2.8s1.5-1,2.6-1c0.5,0,0.9,0.1,1.3,0.2
		c0.4,0.1,0.7,0.4,1,0.7l-1.9,2.4c-0.1-0.2-0.3-0.3-0.5-0.4s-0.4-0.1-0.7-0.1c-0.5,0-1,0.2-1.3,0.5
		C109.5,45.2,109.4,45.7,109.4,46.4z"/>
	<path d="M119.7,52.2c-1,0-2-0.2-2.8-0.7c-0.8-0.5-1.5-1.1-2-1.9c-0.5-0.8-0.7-1.7-0.7-2.7s0.2-1.9,0.7-2.7c0.5-0.8,1.2-1.4,2-1.9
		c0.8-0.5,1.8-0.7,2.9-0.7c1.1,0,2,0.2,2.9,0.7c0.8,0.5,1.5,1.1,2,1.9c0.5,0.8,0.7,1.7,0.7,2.7s-0.2,1.9-0.7,2.7
		c-0.5,0.8-1.2,1.5-2,1.9C121.7,52,120.8,52.2,119.7,52.2z M119.7,49.3c0.5,0,0.9-0.1,1.2-0.3s0.6-0.5,0.8-0.9
		c0.2-0.4,0.3-0.8,0.3-1.3s-0.1-0.9-0.3-1.3s-0.5-0.6-0.8-0.8c-0.3-0.2-0.7-0.3-1.2-0.3c-0.4,0-0.8,0.1-1.2,0.3s-0.6,0.5-0.8,0.8
		c-0.2,0.4-0.3,0.8-0.3,1.3c0,0.5,0.1,0.9,0.3,1.2c0.2,0.4,0.5,0.7,0.8,0.9S119.3,49.3,119.7,49.3z"/>
	<path d="M128.5,40.4c-0.5,0-0.9-0.2-1.3-0.5s-0.5-0.8-0.5-1.3c0-0.5,0.2-0.9,0.5-1.3s0.7-0.5,1.3-0.5s0.9,0.2,1.2,0.5
		c0.3,0.3,0.5,0.8,0.5,1.3c0,0.5-0.2,0.9-0.5,1.3C129.4,40.2,129,40.4,128.5,40.4z M126.9,52V41.8h3.2V52H126.9z"/>
	<path d="M136.7,52.2c-1,0-1.8-0.2-2.6-0.7c-0.7-0.5-1.3-1.1-1.8-1.9c-0.4-0.8-0.6-1.7-0.6-2.7c0-1,0.2-1.9,0.6-2.7
		c0.4-0.8,1-1.4,1.8-1.9c0.7-0.5,1.6-0.7,2.6-0.7c0.7,0,1.3,0.1,1.9,0.4c0.6,0.3,1,0.6,1.4,1.1s0.6,1,0.6,1.6V49
		c0,0.6-0.2,1.1-0.6,1.6s-0.8,0.9-1.4,1.2C138.1,52,137.4,52.2,136.7,52.2z M137.3,49.3c0.5,0,0.9-0.1,1.2-0.3s0.6-0.5,0.8-0.8
		c0.2-0.4,0.3-0.8,0.3-1.3c0-0.5-0.1-0.9-0.3-1.3c-0.2-0.4-0.5-0.6-0.8-0.9c-0.3-0.2-0.7-0.3-1.2-0.3s-0.8,0.1-1.2,0.3
		c-0.3,0.2-0.6,0.5-0.8,0.9c-0.2,0.4-0.3,0.8-0.3,1.2c0,0.5,0.1,0.9,0.3,1.2s0.5,0.7,0.8,0.9C136.5,49.2,136.9,49.3,137.3,49.3z
		 M142.6,52h-3.2v-2.8l0.5-2.5l-0.5-2.5v-7.5h3.2V52z"/>
	<path d="M153.1,52.2c-0.9,0-1.8-0.2-2.5-0.7c-0.7-0.5-1.3-1.1-1.7-1.9c-0.4-0.8-0.6-1.7-0.6-2.7c0-1,0.2-1.9,0.6-2.7
		c0.4-0.8,1-1.4,1.7-1.9c0.7-0.5,1.6-0.7,2.5-0.7c0.7,0,1.3,0.1,1.9,0.4c0.6,0.3,1,0.6,1.4,1.1c0.3,0.5,0.5,1,0.6,1.6v4.4
		c0,0.6-0.2,1.1-0.6,1.6c-0.3,0.5-0.8,0.8-1.4,1.1C154.5,52,153.8,52.2,153.1,52.2z M153.8,49.3c0.7,0,1.2-0.2,1.7-0.7
		s0.6-1,0.6-1.7c0-0.5-0.1-0.9-0.3-1.3c-0.2-0.4-0.5-0.6-0.8-0.8c-0.3-0.2-0.7-0.3-1.2-0.3c-0.4,0-0.8,0.1-1.2,0.3
		c-0.3,0.2-0.6,0.5-0.8,0.8c-0.2,0.4-0.3,0.8-0.3,1.3c0,0.5,0.1,0.9,0.3,1.2s0.5,0.7,0.8,0.9C153,49.2,153.4,49.3,153.8,49.3z
		 M156,52v-2.8l0.5-2.5l-0.5-2.5v-2.5h3.2V52H156z"/>
	<path d="M161.4,56.3V41.8h3.2v2.6l-0.5,2.5l0.5,2.5v6.9H161.4z M167.3,52.2c-0.7,0-1.3-0.1-1.9-0.4c-0.6-0.3-1-0.6-1.4-1.1
		s-0.6-1-0.6-1.6v-4.3c0.1-0.6,0.3-1.1,0.6-1.6s0.8-0.9,1.4-1.2c0.6-0.3,1.2-0.4,1.9-0.4c1,0,1.8,0.2,2.6,0.7
		c0.7,0.5,1.3,1.1,1.8,1.9c0.4,0.8,0.6,1.7,0.6,2.7c0,1-0.2,1.9-0.6,2.7c-0.4,0.8-1,1.4-1.8,1.9C169.1,51.9,168.2,52.2,167.3,52.2z
		 M166.7,49.3c0.5,0,0.9-0.1,1.2-0.3c0.3-0.2,0.6-0.5,0.8-0.9c0.2-0.4,0.3-0.8,0.3-1.2c0-0.5-0.1-0.9-0.3-1.3
		c-0.2-0.4-0.5-0.6-0.8-0.8c-0.3-0.2-0.7-0.3-1.2-0.3c-0.4,0-0.8,0.1-1.2,0.3c-0.3,0.2-0.6,0.5-0.8,0.8c-0.2,0.4-0.3,0.8-0.3,1.3
		c0,0.5,0.1,0.9,0.3,1.2c0.2,0.4,0.5,0.7,0.8,0.9C165.8,49.2,166.2,49.3,166.7,49.3z"/>
	<path d="M173.9,56.3V41.8h3.2v2.6l-0.5,2.5l0.5,2.5v6.9H173.9z M179.7,52.2c-0.7,0-1.3-0.1-1.9-0.4c-0.6-0.3-1-0.6-1.4-1.1
		s-0.6-1-0.6-1.6v-4.3c0.1-0.6,0.3-1.1,0.6-1.6s0.8-0.9,1.4-1.2c0.6-0.3,1.2-0.4,1.9-0.4c1,0,1.8,0.2,2.6,0.7
		c0.7,0.5,1.3,1.1,1.8,1.9c0.4,0.8,0.6,1.7,0.6,2.7c0,1-0.2,1.9-0.6,2.7c-0.4,0.8-1,1.4-1.8,1.9C181.6,51.9,180.7,52.2,179.7,52.2z
		 M179.2,49.3c0.5,0,0.9-0.1,1.2-0.3c0.3-0.2,0.6-0.5,0.8-0.9c0.2-0.4,0.3-0.8,0.3-1.2c0-0.5-0.1-0.9-0.3-1.3
		c-0.2-0.4-0.5-0.6-0.8-0.8c-0.3-0.2-0.7-0.3-1.2-0.3c-0.4,0-0.8,0.1-1.2,0.3c-0.3,0.2-0.6,0.5-0.8,0.8c-0.2,0.4-0.3,0.8-0.3,1.3
		c0,0.5,0.1,0.9,0.3,1.2c0.2,0.4,0.5,0.7,0.8,0.9C178.3,49.2,178.7,49.3,179.2,49.3z"/>
</g>
<path class="st2" d="M42.4,39.8c-0.2,0.2-0.4,0.3-0.7,0.4c-5.3,3.1-10.6,6.1-15.9,9.2c-1,0.7-2.4,0.7-3.4-0.2c0,0-0.1-0.1-0.1-0.1
	c0.1-0.2,0.3-0.3,0.4-0.5c0.4-0.4,0.8-0.8,1.2-1.2c0.6-0.6,1.1-1.1,1.7-1.7c0.5-0.5,1-1,1.5-1.5c0.6-0.5,1.1-1.1,1.7-1.7
	c0.1-0.1,0.2-0.2,0.3-0.3c0.5-0.5,1-1,1.5-1.5c0.6-0.6,1.2-1.1,1.7-1.8c0.1-0.1,0.2-0.2,0.3-0.2c0.6-0.5,1.1-1,1.6-1.6
	c0.5-0.5,1-1,1.5-1.5c0.5-0.4,0.8-0.9,1.3-1.3c0,0,0.1,0,0.1,0c0.1,0,0.2,0.1,0.2,0.2c1.6,1.6,3.2,3.2,4.9,4.9
	C42.3,39.6,42.5,39.7,42.4,39.8z"/>
<path class="st3" d="M37.1,34.5L37.1,34.5L37.1,34.5c-0.2,0-0.3-0.1-0.4-0.2c-3.8-4-7.8-7.8-11.7-11.8c-0.8-0.8-1.6-1.6-2.4-2.4
	c-0.1-0.1-0.2-0.2-0.2-0.3c0.9-0.9,2.2-1.1,3.3-0.4c2.6,1.5,5.2,3.1,7.8,4.6c2.9,1.7,5.7,3.3,8.6,5c0.1,0.1,0.3,0.2,0.4,0.3
	c0,0.2-0.1,0.3-0.2,0.4c-1.6,1.6-3.2,3.2-4.8,4.8C37.3,34.3,37.2,34.4,37.1,34.5z"/>
<path class="st4" d="M37.1,34.5c1.1-1.1,2.2-2.2,3.2-3.3c0.7-0.7,1.4-1.4,2.1-2.1c1.8,1,3.6,2,5.4,3.1c1.2,0.8,1.6,2.4,0.8,3.7
	c-0.2,0.3-0.5,0.6-0.8,0.8c-1.8,1.2-3.6,2.2-5.5,3.2c-1.7-1.7-3.4-3.4-5-5C37.3,34.7,37.2,34.6,37.1,34.5z"/>
<path class="st5" d="M35.1,32.6c-2.7-2.7-5.3-5.4-8-8c-1-1-2.1-2.1-3.1-3.1c-0.5-0.6-1.1-1.1-1.6-1.7c-0.4,0.4-0.7,0.9-0.8,1.4l0,0
	v0c-0.1,0.1-0.1,0.2-0.1,0.3c0,1,0,2.1,0,3.1c0,1.1,0,2.2,0,3.3c0,1.3,0,2.6,0,3.9v3c0,1.3,0,2.6,0,3.9c0,1.1,0,2.2,0,3.3v3.3
	c0,0.8,0,1.5,0,2.3c0,0.7,0.3,1.3,0.8,1.7c0.5-0.5,1.1-1.1,1.6-1.6v0h0c0.6-0.5,1.1-1.1,1.7-1.7v0l0,0c0.5-0.5,1-1,1.5-1.5v0l0,0
	c0.7-0.6,1.3-1.3,2-2c0.5-0.5,1.1-1,1.5-1.5v0v0c0.7-0.6,1.3-1.3,2-2c0.6-0.5,1.1-1,1.6-1.6v0v0c0.5-0.5,1-1,1.5-1.5
	c0.5-0.4,0.9-0.8,1.3-1.3C36.4,33.8,35.8,33.2,35.1,32.6z"/>
</svg>
