<svg width="35" height="36" viewBox="0 0 35 36" fill="none" xmlns="http://www.w3.org/2000/svg">
<circle cx="17.4499" cy="18.0971" r="17.0301" stroke="#DAE1EA" stroke-width="0.667846"/>
<path d="M24.8577 13.5093C24.3068 13.7507 23.7197 13.9106 23.1077 13.9883C23.7373 13.6129 24.2179 13.0229 24.4438 12.3118C23.8568 12.6614 23.2086 12.9082 22.5179 13.046C21.9605 12.4533 21.166 12.0862 20.2994 12.0862C18.6179 12.0862 17.2642 13.4492 17.2642 15.1202C17.2642 15.3606 17.2846 15.5918 17.3346 15.8118C14.8096 15.6889 12.5754 14.4803 11.0744 12.6392C10.8124 13.0932 10.6587 13.6129 10.6587 14.1723C10.6587 15.2228 11.2004 16.154 12.0078 16.6931C11.5198 16.6838 11.0411 16.5424 10.6356 16.3195C10.6356 16.3287 10.6356 16.3408 10.6356 16.3528C10.6356 17.8268 11.6883 19.0511 13.0689 19.3331C12.8217 19.4006 12.5522 19.433 12.2726 19.433C12.0781 19.433 11.8818 19.4219 11.6976 19.3812C12.0911 20.5824 13.2078 21.4655 14.5355 21.4942C13.5022 22.3014 12.1902 22.7878 10.7698 22.7878C10.5207 22.7878 10.2819 22.7768 10.043 22.7462C11.3883 23.6127 12.9828 24.1074 14.7022 24.1074C20.291 24.1074 23.3466 19.4839 23.3466 15.4762C23.3466 15.3421 23.3419 15.2126 23.3355 15.0841C23.9382 14.6569 24.4447 14.1233 24.8577 13.5093Z" fill="#E21B22"/>
</svg>
