<svg width="36" height="36" viewBox="0 0 36 36" fill="none" xmlns="http://www.w3.org/2000/svg">
<circle cx="17.7859" cy="18.0971" r="17.0301" stroke="#DAE1EA" stroke-width="0.667846"/>
<path fill-rule="evenodd" clip-rule="evenodd" d="M16.0178 20.3136L16.0172 15.5114L20.6407 17.9208L16.0178 20.3136ZM26.1696 14.6793C26.1696 14.6793 26.0022 13.5016 25.4894 12.983C24.8386 12.302 24.1092 12.2988 23.7749 12.2592C21.3803 12.0862 17.7883 12.0862 17.7883 12.0862H17.7809C17.7809 12.0862 14.1889 12.0862 11.7943 12.2592C11.4595 12.2988 10.7306 12.302 10.0793 12.983C9.56648 13.5016 9.39964 14.6793 9.39964 14.6793C9.39964 14.6793 9.22852 16.0626 9.22852 17.4454V18.7423C9.22852 20.1256 9.39964 21.5084 9.39964 21.5084C9.39964 21.5084 9.56648 22.6861 10.0793 23.2048C10.7306 23.8858 11.5857 23.8644 11.9665 23.9354C13.3354 24.0668 17.7846 24.1074 17.7846 24.1074C17.7846 24.1074 21.3803 24.1021 23.7749 23.929C24.1092 23.889 24.8386 23.8858 25.4894 23.2048C26.0022 22.6861 26.1696 21.5084 26.1696 21.5084C26.1696 21.5084 26.3407 20.1256 26.3407 18.7423V17.4454C26.3407 16.0626 26.1696 14.6793 26.1696 14.6793Z" fill="#CE1312"/>
</svg>
