<svg id="Layer_1" data-name="Layer 1" xmlns="http://www.w3.org/2000/svg" viewBox="0 0 16.00002 19.99998"><defs><style>.cls-1{fill:#e21b22;}</style></defs><title>Bookstore-f</title><path class="cls-1" d="M14.2539.60962h-10a4.01176,4.01176,0,0,0-4,4v12a4.01176,4.01176,0,0,0,4,4h10a2.00588,2.00588,0,0,0,2-2v-16A2.00588,2.00588,0,0,0,14.2539.60962Zm-8,4h4a.94477.94477,0,0,1,1,1,.94477.94477,0,0,1-1,1h-4a.94477.94477,0,0,1-1-1A.94477.94477,0,0,1,6.25388,4.60962Zm8,14h-10a2,2,0,1,1,0-4h10Z" transform="translate(-0.25388 -0.60962)"/></svg>