<svg width="22" height="25" viewBox="0 0 22 25" fill="none" xmlns="http://www.w3.org/2000/svg">
<path d="M20.3291 19.4348C20.5369 19.4348 20.7361 19.3522 20.883 19.2053C21.0299 19.0584 21.1125 18.8592 21.1125 18.6514V3.7681C21.1536 2.9825 20.8827 2.21246 20.3588 1.62562C19.8349 1.03878 19.1004 0.682651 18.3152 0.634766L3.54228 0.634766C2.75721 0.682849 2.0229 1.03906 1.49916 1.62588C0.975423 2.2127 0.704655 2.98263 0.745784 3.7681V21.0014C0.746613 21.8322 1.077 22.6287 1.66443 23.2161C2.25187 23.8036 3.04836 24.1339 3.87912 24.1348H20.3291C20.5369 24.1348 20.7361 24.0522 20.883 23.9053C21.0299 23.7584 21.1125 23.5592 21.1125 23.3514C21.1125 23.1437 21.0299 22.9444 20.883 22.7975C20.7361 22.6506 20.5369 22.5681 20.3291 22.5681H19.5458V19.4348H20.3291ZM17.9791 22.5681H3.87912C3.46361 22.5681 3.06512 22.403 2.77132 22.1092C2.47751 21.8154 2.31245 21.4169 2.31245 21.0014C2.31245 20.5859 2.47751 20.1874 2.77132 19.8936C3.06512 19.5998 3.46361 19.4348 3.87912 19.4348H17.9791V22.5681Z" fill="#858585"/>
</svg>
