<svg width="22" height="21" viewBox="0 0 22 21" fill="none" xmlns="http://www.w3.org/2000/svg">
<path d="M0.158203 6.63867V19.4294C0.158203 20.2784 0.849023 20.9692 1.69805 20.9692H20.3845C21.2414 20.9692 21.9375 20.2731 21.9375 19.4162V6.63867H0.158203ZM6.24902 17.6074H4.19238V16.5527H6.24902V17.6074ZM6.24902 14.127H4.19238V13.0723H6.24902V14.127ZM6.32812 10.6201H4.27148V9.56543H6.32812V10.6201ZM11.9971 17.6074H9.9668V16.5527H11.9971V17.6074ZM11.9971 14.127H9.9668V13.0723H11.9971V14.127ZM12.0762 10.6201H10.0459V9.56543H12.0762V10.6201ZM17.7715 14.127H15.7148V13.0723H17.7715V14.127ZM17.8506 10.6201H15.7939V9.56543H17.8506V10.6201ZM21.9375 3.26103V5.58398H0.158203V3.24785C0.158203 2.40674 0.84375 1.72119 1.68486 1.72119H4.42969V0.152344H6.53906V1.72119H15.5039V0.178711H17.6133V1.72119H20.3977C21.2467 1.72119 21.9375 2.41201 21.9375 3.26103Z" fill="#E21B22"/>
</svg>
