<svg id="Layer_1" data-name="Layer 1" xmlns="http://www.w3.org/2000/svg" viewBox="0 0 22 22"><defs><style>.cls-1{fill:#e21b22;}</style></defs><title>Home-f</title><path class="cls-1" d="M.91907,9.38928a4.39911,4.39911,0,0,1,1.67321-3.4528L8.641,1.16116a4.39915,4.39915,0,0,1,5.45178,0l6.0487,4.77532a4.3991,4.3991,0,0,1,1.6732,3.4528V16.6055a4.399,4.399,0,0,1-4.399,4.3991H15.766a1.0998,1.0998,0,0,1-1.0998-1.0998V16.6055a2.19944,2.19944,0,0,0-2.1995-2.1995H10.2672a2.19951,2.19951,0,0,0-2.19962,2.1995v3.2993a1.09979,1.09979,0,0,1-1.09977,1.0998H5.31815A4.39906,4.39906,0,0,1,.91907,16.6055Z"/></svg>