<svg width="20" height="21" viewBox="0 0 20 21" fill="none" xmlns="http://www.w3.org/2000/svg">
<path d="M6.66915 19.3227C6.6772 19.3201 6.68263 19.3125 6.68263 19.3041V16.2605C6.68263 15.48 7.32002 14.8472 8.10629 14.8472H10.9805C11.358 14.8472 11.7202 14.9961 11.9871 15.2612C12.2541 15.5262 12.4041 15.8857 12.4041 16.2605V19.3183C12.4017 19.6428 12.5299 19.9548 12.7602 20.1851C12.9905 20.4154 13.3039 20.5449 13.6308 20.5449H15.5917C16.5075 20.5473 17.3866 20.1878 18.035 19.5457C18.6834 18.9037 19.0479 18.0319 19.0479 17.1227V8.41178C19.0479 7.67738 18.7199 6.98076 18.1525 6.50959L11.4819 1.22079C10.3215 0.293484 8.65896 0.323424 7.53324 1.2919L1.01486 6.50959C0.420592 6.96687 0.0654039 7.66556 0.0478516 8.41178V17.1139C0.0478516 19.0088 1.59523 20.5449 3.50402 20.5449H5.42014C6.09432 20.5449 6.64311 20.0087 6.65558 19.3413C6.65574 19.3329 6.66115 19.3254 6.66915 19.3227Z" fill="#858585"/>
</svg>
