<svg width="23" height="19" viewBox="0 0 23 19" fill="none" xmlns="http://www.w3.org/2000/svg">
<rect x="0.694336" y="0.933594" width="21.7079" height="18" rx="3" fill="#858585"/>
<path d="M8.4834 6.07617V14.0762H7.03418V6.07617H8.4834ZM10.0527 14.0762V6.07617H13.0527C13.6673 6.07617 14.1829 6.18294 14.5996 6.39648C15.0189 6.61003 15.3353 6.9095 15.5488 7.29492C15.765 7.67773 15.873 8.12435 15.873 8.63477C15.873 9.14779 15.7637 9.5931 15.5449 9.9707C15.3288 10.3457 15.0098 10.6361 14.5879 10.8418C14.166 11.0449 13.6478 11.1465 13.0332 11.1465H10.8965V9.94336H12.8379C13.1973 9.94336 13.4915 9.89388 13.7207 9.79492C13.9499 9.69336 14.1191 9.54622 14.2285 9.35352C14.3405 9.1582 14.3965 8.91862 14.3965 8.63477C14.3965 8.35091 14.3405 8.10872 14.2285 7.9082C14.1165 7.70508 13.946 7.55143 13.7168 7.44727C13.4876 7.34049 13.1921 7.28711 12.8301 7.28711H11.502V14.0762H10.0527ZM14.1855 10.4512L16.166 14.0762H14.5488L12.6035 10.4512H14.1855Z" fill="white"/>
</svg>
