<svg id="Layer_1" data-name="Layer 1" xmlns="http://www.w3.org/2000/svg" viewBox="0 0 21 21"><defs><style>.cls-1{fill:#e21b22;}.cls-2{fill:#fff;}</style></defs><title>IR-Prime-g</title><path class="cls-1" d="M14.8541.61475c3.5963.19439,5.3998,1.56593,5.3998,6.64173V13.9306c0,4.4494-1.08,6.6741-6.4798,6.6741H7.29441c-5.39979,0-6.47974-2.2247-6.47974-6.6741V7.25648c0-5.0758,1.80352-6.43654,5.39978-6.64173Z"/><path class="cls-2" d="M6.39427,8.30486q0-.207.009-.306a.81306.81306,0,0,1,.09-.243q.126-.243.702-.243.63,0,.747.333a1.78985,1.78985,0,0,1,.045.468v5.004a1.95492,1.95492,0,0,1-.018.315.64026.64026,0,0,1-.081.234q-.126.243-.702.243-.63,0-.738-.342a1.41526,1.41526,0,0,1-.054-.459Zm7.81053,4.689a1.42775,1.42775,0,0,1,.135.468q0,.342-.558.576a1.242,1.242,0,0,1-.468.126.49373.49373,0,0,1-.288-.081.73154.73154,0,0,1-.162-.18q-.09-.171-.702-1.629l-.279.018h-1.134v1.017a2.05989,2.05989,0,0,1-.018.315.64026.64026,0,0,1-.081.234q-.126.243-.702.243-.63,0-.738-.333a1.50478,1.50478,0,0,1-.054-.468v-4.995q0-.207.009-.306a.81306.81306,0,0,1,.09-.243q.126-.243.702-.243h1.944a2.49568,2.49568,0,0,1,1.539.576,2.11186,2.11186,0,0,1,.594.756,2.37869,2.37869,0,0,1,.234,1.062,2.23563,2.23563,0,0,1-.675,1.674Q13.7908,12.0579,14.2048,12.9939Zm-3.456-2.295h1.152a.8618.8618,0,0,0,.522-.198.80648.80648,0,0,0,0-1.188.86029.86029,0,0,0-.54-.207h-1.134Z"/></svg>