<svg width="25" height="20" viewBox="0 0 25 20" fill="none" xmlns="http://www.w3.org/2000/svg">
<path d="M23.5679 0.189453H4.36785C4.24055 0.189453 4.11846 0.240025 4.02844 0.330042C3.93842 0.420059 3.88785 0.542149 3.88785 0.669453V16.5095C3.88785 16.6368 3.83728 16.7588 3.74726 16.8489C3.65725 16.9389 3.53516 16.9895 3.40785 16.9895C3.28055 16.9895 3.15846 16.9389 3.06844 16.8489C2.97842 16.7588 2.92785 16.6368 2.92785 16.5095V4.02945H0.527852C0.400548 4.02945 0.278458 4.08002 0.18844 4.17004C0.0984229 4.26006 0.0478516 4.38215 0.0478516 4.50945L0.0478516 16.9031C0.0538623 17.5035 0.272067 18.0824 0.663858 18.5375C1.05565 18.9925 1.59577 19.2943 2.18865 19.3895C2.252 19.4024 2.3173 19.4024 2.38065 19.3895H21.6479C22.2844 19.3895 22.8948 19.1366 23.3449 18.6865C23.795 18.2364 24.0479 17.626 24.0479 16.9895V0.669453C24.0479 0.542149 23.9973 0.420059 23.9073 0.330042C23.8172 0.240025 23.6952 0.189453 23.5679 0.189453ZM13.4879 5.94945H19.2479V6.90945H13.4879V5.94945ZM11.5679 14.1095C11.5679 14.2368 11.5173 14.3588 11.4273 14.4489C11.3372 14.5389 11.2152 14.5895 11.0879 14.5895H8.20785C8.08055 14.5895 7.95846 14.5389 7.86844 14.4489C7.77842 14.3588 7.72785 14.2368 7.72785 14.1095V11.2295C7.72785 11.1021 7.77842 10.9801 7.86844 10.89C7.95846 10.8 8.08055 10.7495 8.20785 10.7495H11.0879C11.2152 10.7495 11.3372 10.8 11.4273 10.89C11.5173 10.9801 11.5679 11.1021 11.5679 11.2295V14.1095ZM11.5679 7.38945C11.5679 7.51676 11.5173 7.63885 11.4273 7.72887C11.3372 7.81888 11.2152 7.86945 11.0879 7.86945H8.20785C8.08055 7.86945 7.95846 7.81888 7.86844 7.72887C7.77842 7.63885 7.72785 7.51676 7.72785 7.38945V4.50945C7.72785 4.38215 7.77842 4.26006 7.86844 4.17004C7.95846 4.08002 8.08055 4.02945 8.20785 4.02945H11.0879C11.2152 4.02945 11.3372 4.08002 11.4273 4.17004C11.5173 4.26006 11.5679 4.38215 11.5679 4.50945V7.38945ZM19.2479 13.6295H13.4879V12.6695H19.2479V13.6295ZM20.2079 11.7095H13.4879V10.7495H20.2079V11.7095ZM20.2079 4.98945H13.4879V4.02945H20.2079V4.98945Z" fill="#E21B22"/>
</svg>
