<svg id="Layer_1" data-name="Layer 1" xmlns="http://www.w3.org/2000/svg" viewBox="0 0 20.92775 20.85934"><defs><style>.cls-1{fill:#e21b22;}</style></defs><title>Date-and-time</title><path class="cls-1" d="M7.3125,2.94824a1.11092,1.11092,0,0,0-.56641.52246c-.083.166-.09277.29785-.09277,1.34766v1.167l-.81543.02442a3.22709,3.22709,0,0,0-1.19141.15136,3.12417,3.12417,0,0,0-1.25488.77149,2.96286,2.96286,0,0,0-.77148,1.24023,3.25864,3.25864,0,0,0-.15625,1.20606l-.02442.82029H23.3672l-.0293-.82029A3.0484,3.0484,0,0,0,22.9863,7.709a3.09863,3.09863,0,0,0-1.8066-1.543,3.25882,3.25882,0,0,0-1.2061-.15625l-.8203-.02442v-1.167c0-1.05957-.0097-1.18164-.0928-1.35254a1.07356,1.07356,0,0,0-1.8359-.11231l-.1465.21485-.0146,1.21582L17.0488,6h-8.291L8.74316,4.78418,8.72852,3.56836,8.582,3.35351A1.14025,1.14025,0,0,0,7.3125,2.94824Z" transform="translate(-2.43945 -2.88866)"/><path class="cls-1" d="M2.46387,16.7266l.01465,4.4824.13183.3711a3.212,3.212,0,0,0,2.168,2.0801c.27344.083.66406.0878,8.125.0878s7.8516-.0048,8.1299-.0878a3.26822,3.26822,0,0,0,2.2022-2.1827c.0878-.2539.0927-.5468.1074-4.7509l.0146-4.4776H2.44922Z" transform="translate(-2.43945 -2.88866)"/></svg>