<svg width="30" height="30" viewBox="0 0 30 30" fill="none" xmlns="http://www.w3.org/2000/svg">
<path d="M8.32877 3.22831C8.06008 3.33467 7.81937 3.55298 7.67943 3.82727C7.58427 4.0176 7.57307 4.16874 7.57307 5.37226V6.71013L6.63824 6.73812C5.81537 6.76051 5.64184 6.7829 5.27238 6.91165C4.69022 7.11317 4.24799 7.38186 3.83375 7.7961C3.39713 8.23273 3.15083 8.63017 2.94931 9.21794C2.81496 9.61538 2.79257 9.77212 2.77018 10.6006L2.74219 11.541H14.7382H26.7343L26.7007 10.6006C26.6727 9.57619 26.6167 9.3131 26.2976 8.68615C25.8666 7.84088 25.1557 7.23632 24.2265 6.91725C23.829 6.7829 23.6723 6.76051 22.8438 6.73812L21.9034 6.71013V5.37226C21.9034 4.15754 21.8922 4.0176 21.797 3.82168C21.3772 2.9988 20.2353 2.93163 19.6923 3.69293L19.5243 3.93923L19.5075 5.33308L19.4907 6.72692H14.7382H9.98572L9.96892 5.33308L9.95213 3.93923L9.7842 3.69293C9.46512 3.2451 8.82698 3.04358 8.32877 3.22831Z" fill="#E21B22"/>
<path d="M2.7707 19.0246L2.78749 24.1634L2.93863 24.5888C3.36406 25.7867 4.20933 26.5984 5.42405 26.9735C5.73752 27.0686 6.18535 27.0742 14.7388 27.0742C23.2922 27.0742 23.74 27.0686 24.0591 26.9735C25.285 26.5984 26.1638 25.7308 26.5837 24.4713C26.6844 24.1802 26.69 23.8443 26.7068 19.0246L26.7236 13.8914H14.7388H2.75391L2.7707 19.0246Z" fill="#E21B22"/>
</svg>
