<svg width="17" height="24" viewBox="0 0 17 24" fill="none" xmlns="http://www.w3.org/2000/svg">
<path d="M7.71699 0.733724C3.88776 1.26756 1.02354 4.3525 0.802819 8.18686C0.751489 9.08 0.946543 9.92695 1.50091 11.2256C2.31192 13.1145 3.43605 15.0908 6.33107 19.7259C7.16775 21.0656 8.05063 22.4926 8.28675 22.8981C8.52287 23.2984 8.72819 23.627 8.74359 23.627C8.75899 23.627 8.89758 23.4114 9.05157 23.1547C9.39548 22.5542 10.1603 21.3222 11.6283 19.0072C13.6559 15.7991 14.7235 13.9666 15.5243 12.3087C16.4585 10.3684 16.7408 9.36232 16.6844 8.22792C16.4893 4.58348 13.9228 1.59607 10.3451 0.831252C9.77532 0.713192 8.28162 0.656729 7.71699 0.733724ZM9.66753 4.94793C10.2784 5.11218 10.7147 5.36883 11.2074 5.86674C11.9158 6.57509 12.2494 7.36044 12.2494 8.33058C12.2494 9.28532 11.9158 10.0861 11.2331 10.7739C10.5145 11.4976 9.73426 11.8313 8.74359 11.8313C7.76832 11.8313 6.9727 11.4976 6.27461 10.7996C5.57652 10.1015 5.24801 9.31099 5.24287 8.33058C5.24287 7.35531 5.57652 6.56482 6.27461 5.8616C7.20369 4.93766 8.39968 4.61428 9.66753 4.94793Z" fill="#E21B22"/>
</svg>
