<svg id="Layer_1" data-name="Layer 1" xmlns="http://www.w3.org/2000/svg" viewBox="0 0 14.5593 20.99998"><defs><style>.cls-1{fill:#e21b22;}</style></defs><title>location</title><path class="cls-1" d="M11.6563,2.85653A7.29229,7.29229,0,0,0,5.32364,9.68278,5.93292,5.93292,0,0,0,5.963,12.4659a59.78976,59.78976,0,0,0,4.42389,7.7853c.7663,1.2271,1.5749,2.534,1.7912,2.9054a7.447,7.447,0,0,0,.4184.6676,3.41819,3.41819,0,0,0,.2821-.4325c.315-.55,1.0155-1.6784,2.36-3.7986a62.93334,62.93334,0,0,0,3.5683-6.1352,7.37941,7.37941,0,0,0,1.0625-3.73751,7.28469,7.28469,0,0,0-5.8061-6.77454A10.87689,10.87689,0,0,0,11.6563,2.85653Zm1.7864,3.85975a2.886,2.886,0,0,1,1.4104.84153,3.15,3.15,0,0,1,.0235,4.49439,3.17309,3.17309,0,0,1-4.5414.0235,3.04985,3.04985,0,0,1-.945-2.26128,3.04717,3.04717,0,0,1,.945-2.26132A3.11774,3.11774,0,0,1,13.4427,6.71628Z" transform="translate(-5.31641 -2.82422)"/></svg>