<svg width="22" height="25" viewBox="0 0 22 25" fill="none" xmlns="http://www.w3.org/2000/svg">
<path d="M20.6468 19.9598C20.8589 19.9598 21.0624 19.8755 21.2124 19.7255C21.3625 19.5754 21.4468 19.3719 21.4468 19.1598V3.95977C21.4888 3.15745 21.2121 2.37103 20.6771 1.7717C20.142 1.17237 19.3919 0.808669 18.59 0.759766L3.50275 0.759766C2.70097 0.808872 1.95103 1.17266 1.41615 1.77197C0.881275 2.37127 0.604746 3.15758 0.64675 3.95977V21.5598C0.647597 22.4082 0.985011 23.2216 1.58494 23.8216C2.18488 24.4215 2.99832 24.7589 3.84675 24.7598H20.6468C20.8589 24.7598 21.0624 24.6755 21.2124 24.5255C21.3625 24.3754 21.4468 24.1719 21.4468 23.9598C21.4468 23.7476 21.3625 23.5441 21.2124 23.3941C21.0624 23.2441 20.8589 23.1598 20.6468 23.1598H19.8468V19.9598H20.6468ZM18.2468 23.1598H3.84675C3.4224 23.1598 3.01544 22.9912 2.71538 22.6911C2.41532 22.3911 2.24675 21.9841 2.24675 21.5598C2.24675 21.1354 2.41532 20.7285 2.71538 20.4284C3.01544 20.1283 3.4224 19.9598 3.84675 19.9598H18.2468V23.1598Z" fill="#E21B22"/>
</svg>
