<svg width="22" height="22" viewBox="0 0 22 22" fill="none" xmlns="http://www.w3.org/2000/svg">
<path d="M0.158203 7.46289V20.2536C0.158203 21.1026 0.849023 21.7935 1.69805 21.7935H20.3845C21.2414 21.7935 21.9375 21.0974 21.9375 20.2404V7.46289H0.158203ZM6.24902 18.4316H4.19238V17.377H6.24902V18.4316ZM6.24902 14.9512H4.19238V13.8965H6.24902V14.9512ZM6.32812 11.4443H4.27148V10.3896H6.32812V11.4443ZM11.9971 18.4316H9.9668V17.377H11.9971V18.4316ZM11.9971 14.9512H9.9668V13.8965H11.9971V14.9512ZM12.0762 11.4443H10.0459V10.3896H12.0762V11.4443ZM17.7715 14.9512H15.7148V13.8965H17.7715V14.9512ZM17.8506 11.4443H15.7939V10.3896H17.8506V11.4443ZM21.9375 4.08525V6.4082H0.158203V4.07207C0.158203 3.23096 0.84375 2.54541 1.68486 2.54541H4.42969V0.976562H6.53906V2.54541H15.5039V1.00293H17.6133V2.54541H20.3977C21.2467 2.54541 21.9375 3.23623 21.9375 4.08525Z" fill="#858585"/>
</svg>
