<svg width="20" height="21" viewBox="0 0 20 21" fill="none" xmlns="http://www.w3.org/2000/svg">
<path d="M7.18263 19.4433V16.3855C7.18263 15.605 7.82002 14.9722 8.60629 14.9722H11.4805C11.858 14.9722 12.2202 15.1211 12.4871 15.3862C12.7541 15.6512 12.9041 16.0107 12.9041 16.3855V19.4433C12.9017 19.7678 13.0299 20.0798 13.2602 20.3101C13.4905 20.5404 13.8039 20.6699 14.1308 20.6699H16.0917C17.0075 20.6723 17.8866 20.3128 18.535 19.6707C19.1834 19.0287 19.5479 18.1569 19.5479 17.2477V8.53678C19.5479 7.80238 19.2199 7.10576 18.6525 6.63459L11.9819 1.34579C10.8215 0.418484 9.15896 0.448424 8.03324 1.4169L1.51486 6.63459C0.920592 7.09187 0.565404 7.79056 0.547852 8.53678V17.2389C0.547852 19.1338 2.09523 20.6699 4.00402 20.6699H5.92014C6.59908 20.6699 7.15085 20.1261 7.15577 19.4522L7.18263 19.4433Z" fill="#E21B22"/>
</svg>
