<svg width="23" height="19" viewBox="0 0 23 19" fill="none" xmlns="http://www.w3.org/2000/svg">
<rect x="0.693848" y="0.0585938" width="21.7079" height="18" rx="3" fill="#E21B22"/>
<path d="M8.48291 5.20117V13.2012H7.03369V5.20117H8.48291ZM10.0522 13.2012V5.20117H13.0522C13.6668 5.20117 14.1825 5.30794 14.5991 5.52148C15.0184 5.73503 15.3348 6.0345 15.5483 6.41992C15.7645 6.80273 15.8726 7.24935 15.8726 7.75977C15.8726 8.27279 15.7632 8.7181 15.5444 9.0957C15.3283 9.4707 15.0093 9.76107 14.5874 9.9668C14.1655 10.1699 13.6473 10.2715 13.0327 10.2715H10.896V9.06836H12.8374C13.1968 9.06836 13.491 9.01888 13.7202 8.91992C13.9494 8.81836 14.1187 8.67122 14.228 8.47852C14.34 8.2832 14.396 8.04362 14.396 7.75977C14.396 7.47591 14.34 7.23372 14.228 7.0332C14.116 6.83008 13.9455 6.67643 13.7163 6.57227C13.4871 6.46549 13.1916 6.41211 12.8296 6.41211H11.5015V13.2012H10.0522ZM14.1851 9.57617L16.1655 13.2012H14.5483L12.603 9.57617H14.1851Z" fill="white"/>
</svg>
