<svg width="25" height="20" viewBox="0 0 25 20" fill="none" xmlns="http://www.w3.org/2000/svg">
<path d="M24.0679 0.0644531H4.86785C4.74055 0.0644531 4.61846 0.115025 4.52844 0.205042C4.43842 0.295059 4.38785 0.417149 4.38785 0.544453V16.3845C4.38785 16.5118 4.33728 16.6338 4.24726 16.7239C4.15725 16.8139 4.03516 16.8645 3.90785 16.8645C3.78055 16.8645 3.65846 16.8139 3.56844 16.7239C3.47842 16.6338 3.42785 16.5118 3.42785 16.3845V3.90445H1.02785C0.900548 3.90445 0.778458 3.95502 0.68844 4.04504C0.598423 4.13506 0.547852 4.25715 0.547852 4.38445L0.547852 16.7781C0.553862 17.3785 0.772067 17.9574 1.16386 18.4125C1.55565 18.8675 2.09577 19.1693 2.68865 19.2645C2.752 19.2774 2.8173 19.2774 2.88065 19.2645H22.1479C22.7844 19.2645 23.3948 19.0116 23.8449 18.5615C24.295 18.1114 24.5479 17.501 24.5479 16.8645V0.544453C24.5479 0.417149 24.4973 0.295059 24.4073 0.205042C24.3172 0.115025 24.1952 0.0644531 24.0679 0.0644531ZM13.9879 5.82445H19.7479V6.78445H13.9879V5.82445ZM12.0679 13.9845C12.0679 14.1118 12.0173 14.2338 11.9273 14.3239C11.8372 14.4139 11.7152 14.4645 11.5879 14.4645H8.70785C8.58055 14.4645 8.45846 14.4139 8.36844 14.3239C8.27842 14.2338 8.22785 14.1118 8.22785 13.9845V11.1045C8.22785 10.9771 8.27842 10.8551 8.36844 10.765C8.45846 10.675 8.58055 10.6245 8.70785 10.6245H11.5879C11.7152 10.6245 11.8372 10.675 11.9273 10.765C12.0173 10.8551 12.0679 10.9771 12.0679 11.1045V13.9845ZM12.0679 7.26445C12.0679 7.39176 12.0173 7.51385 11.9273 7.60387C11.8372 7.69388 11.7152 7.74445 11.5879 7.74445H8.70785C8.58055 7.74445 8.45846 7.69388 8.36844 7.60387C8.27842 7.51385 8.22785 7.39176 8.22785 7.26445V4.38445C8.22785 4.25715 8.27842 4.13506 8.36844 4.04504C8.45846 3.95502 8.58055 3.90445 8.70785 3.90445H11.5879C11.7152 3.90445 11.8372 3.95502 11.9273 4.04504C12.0173 4.13506 12.0679 4.25715 12.0679 4.38445V7.26445ZM19.7479 13.5045H13.9879V12.5445H19.7479V13.5045ZM20.7079 11.5845H13.9879V10.6245H20.7079V11.5845ZM20.7079 4.86445H13.9879V3.90445H20.7079V4.86445Z" fill="#858585"/>
</svg>
