<svg id="Layer_1" data-name="Layer 1" xmlns="http://www.w3.org/2000/svg" viewBox="0 0 19.49999 16.49996"><defs><style>.cls-1{fill:#808d9e;}.cls-2,.cls-3{fill:none;stroke:#808d9e;stroke-linecap:round;stroke-width:1.5px;}.cls-2{stroke-linejoin:round;}</style></defs><title>Hide</title><path class="cls-1" d="M20.7994,12.012l.6581-.3599Zm0,1.5689.658.3599ZM3.20058,12.0118l.658.3599Zm0,1.569-.658.3599h0Zm16.323-4.47535a.75.75,0,1,0-1.0472,1.074ZM9.68628,17.756a.75.75,0,1,0-.37256,1.453ZM14.604,7.13753l-.1941.72444ZM7.07264,17.5053l-.3689.653.801-1.266Zm-3.214-5.1336A9.26884,9.26884,0,0,1,12,7.54639v-1.5A10.76879,10.76879,0,0,0,2.54256,11.652Zm16.2828.8494A9.26886,9.26886,0,0,1,12,18.0464v1.5a10.76878,10.76878,0,0,0,9.4574-5.6056Zm0-.8493a.88454.88454,0,0,1,0,.8493l1.316.7197a2.38451,2.38451,0,0,0,.0001-2.2887ZM2.54256,11.652a2.38443,2.38443,0,0,0,0,2.2887l1.31606-.7198a.88434.88434,0,0,1,0-.8492ZM18.4764,10.1794a9.2888,9.2888,0,0,1,1.665,2.1924l1.3161-.7197a10.78961,10.78961,0,0,0-1.9339-2.54665ZM12,18.0464a9.30575,9.30575,0,0,1-2.31372-.2904l-.37256,1.453A10.8032,10.8032,0,0,0,12,19.5464Zm0-10.5a9.29867,9.29867,0,0,1,2.4099.31558l.3882-1.44889A10.799,10.799,0,0,0,12,6.04639ZM5.93,15.7868A9.29655,9.29655,0,0,1,3.8586,13.2209l-1.31606.7198a10.79652,10.79652,0,0,0,2.40562,2.9801Zm1.51159,1.0655A9.296,9.296,0,0,1,5.93,15.7868l-.98179,1.134a10.79467,10.79467,0,0,0,1.75558,1.2375ZM5.007,16.9668l1.63359,1.1515.86421-1.226L5.87116,15.7408ZM14.4099,7.862a9.217,9.217,0,0,1,2.0372.8166l.7197-1.316a10.7146,10.7146,0,0,0-2.3687-.94945Z" transform="translate(-2.25 -4.51074)"/><path class="cls-2" d="M19.4648,5.26074l-15,15" transform="translate(-2.25 -4.51074)"/><path class="cls-3" d="M9,12.7964a3,3,0,0,1,3-3" transform="translate(-2.25 -4.51074)"/></svg>