<svg id="Layer_1" data-name="Layer 1" xmlns="http://www.w3.org/2000/svg" viewBox="0 0 21.14587 25.97922"><defs><style>.cls-1{fill:#e21b22;}</style></defs><title>otp</title><path class="cls-1" d="M21.7506,11.1771H7.25065A3.3254,3.3254,0,0,0,3.92773,14.5v9.6667a3.32522,3.32522,0,0,0,3.32292,3.3229H21.7506a3.32528,3.32528,0,0,0,3.323-3.3229V14.5a3.32545,3.32545,0,0,0-3.323-3.3229Zm-8.5259,9.2244a.9063.9063,0,1,1-1.2809,1.2809l-1.0681-1.067-1.06822,1.067a.90627.90627,0,1,1-1.28083-1.2809l1.067-1.0681-1.067-1.0682a.90624.90624,0,1,1,1.28083-1.2808l1.06822,1.0669,1.0681-1.0669a.90626.90626,0,1,1,1.2809,1.2808l-1.067,1.0682Zm7.25,0a.9063.9063,0,1,1-1.2809,1.2809l-1.0681-1.067-1.0682,1.067a.90629.90629,0,1,1-1.2809-1.2809l1.067-1.0681-1.067-1.0682a.90626.90626,0,1,1,1.2809-1.2808l1.0682,1.0669,1.0681-1.0669a.90626.90626,0,1,1,1.2809,1.2808l-1.067,1.0682Z" transform="translate(-3.92773 -1.51038)"/><path class="cls-1" d="M19.3327,12.9895H9.666a.90618.90618,0,0,1-.90625-.9062V7.25a5.73957,5.73957,0,0,1,11.47913,0V12.0833a.90613.90613,0,0,1-.9062.9062ZM10.5723,11.177h7.8541V7.25a3.92705,3.92705,0,1,0-7.8541,0Z" transform="translate(-3.92773 -1.51038)"/></svg>