<svg width="460" height="294" viewBox="0 0 460 294" fill="none" xmlns="http://www.w3.org/2000/svg">
<path d="M45.395 198.482C49.2122 196.691 53.5029 196.17 57.6381 196.995C59.8592 197.362 62.1747 198.026 63.6862 199.695C65.1975 201.363 65.4839 204.299 63.7486 205.732C62.6291 206.49 61.2802 206.832 59.9351 206.7C56.6987 206.662 53.1077 206.092 50.522 208.04C49.0469 209.151 48.065 210.998 46.3011 211.544C45.4185 211.748 44.4933 211.66 43.6656 211.291C42.8379 210.923 42.1526 210.295 41.7135 209.503C40.8729 207.881 40.6871 205.998 41.1946 204.244C41.4037 203.025 41.8916 201.871 42.6202 200.871C43.3488 199.872 44.2984 199.054 45.395 198.482Z" fill="#EBEBEB"/>
<path d="M36.865 182.013C39.1422 185.265 43.5679 184.188 45.62 182.203C47.672 180.218 48.5394 177.341 49.3288 174.597C51.1327 168.329 52.9514 161.752 51.6102 155.368C51.287 153.433 50.4373 151.625 49.1543 150.141C48.5043 149.41 47.6735 148.862 46.7453 148.553C45.817 148.244 44.8239 148.185 43.8654 148.381C41.634 148.97 40.247 151.156 39.2447 153.235C36.2918 159.374 34.7444 166.094 34.7151 172.906C34.7041 176.074 35.0776 179.397 36.865 182.013Z" fill="#EBEBEB"/>
<path d="M30.6118 186.68C33.0843 183.746 33.5534 179.466 32.4533 175.79C31.2044 172.138 28.9726 168.9 26.0033 166.434C22.6326 163.433 18.7094 161.118 14.4532 159.619C12.8056 158.953 11.0336 158.652 9.25877 158.736C8.37232 158.788 7.51184 159.055 6.75212 159.515C5.99241 159.974 5.35646 160.612 4.89957 161.374C3.68407 163.692 4.84947 166.504 6.10997 168.798C8.33195 172.842 10.8685 176.704 13.6962 180.35C15.97 183.282 18.5746 186.174 22.04 187.498C25.5054 188.823 29.1051 188.667 30.942 186.264" fill="#EBEBEB"/>
<path d="M36.7096 231.074C36.8301 230.59 36.8992 230.095 36.9156 229.596C37.0203 228.52 37.1518 227.17 37.3082 225.563C37.5091 223.577 37.8119 221.602 38.2155 219.647C38.7445 217.266 39.4635 214.931 40.3656 212.665C41.2499 210.402 42.4503 208.275 43.931 206.348C45.1365 204.779 46.6762 203.499 48.4384 202.6C49.6333 202.008 50.9145 201.609 52.2344 201.418C52.731 201.399 53.2242 201.328 53.7058 201.205C53.209 201.144 52.7069 201.136 52.2084 201.182C50.8381 201.286 49.4975 201.635 48.2502 202.212C46.3947 203.088 44.7673 204.382 43.4955 205.992C41.9513 207.946 40.7058 210.117 39.7998 212.437C38.8838 214.736 38.1695 217.11 37.665 219.533C37.2823 221.512 37.0196 223.513 36.8785 225.524C36.7504 227.236 36.7019 228.623 36.6786 229.582C36.6352 230.079 36.6456 230.579 36.7096 231.074Z" fill="#E0E0E0"/>
<path d="M36.9877 227.97C37.0278 227.744 37.0411 227.514 37.0274 227.284C37.026 226.769 37.0243 226.12 37.0222 225.323C37.0174 223.622 37.0184 221.159 37.1095 218.118C37.26 212.036 37.7837 205.49 38.7952 196.262C39.753 187.584 41.0387 177.486 42.3953 170.92C42.6862 169.427 42.9793 168.083 43.2551 166.906C43.5181 165.727 43.7427 164.71 43.9594 163.887C44.1457 163.113 44.2972 162.482 44.4177 161.981C44.4841 161.761 44.5244 161.534 44.5376 161.305C44.433 161.509 44.353 161.725 44.2994 161.948C44.1498 162.441 43.9615 163.063 43.7301 163.827C43.4775 164.642 43.2187 165.652 42.9233 166.826C42.6154 167.998 42.2922 169.339 41.9735 170.83C40.293 178.595 39.0296 186.445 38.1887 194.345C37.1752 203.592 36.7187 212.013 36.6783 218.11C36.6421 221.159 36.7069 223.627 36.7848 225.329C36.8335 226.126 36.8731 226.774 36.9045 227.289C36.9052 227.519 36.9331 227.747 36.9877 227.97Z" fill="#E0E0E0"/>
<path d="M37.0304 211.729C37.0795 211.047 37.0747 210.362 37.0161 209.681C36.9407 208.364 36.7598 206.462 36.3889 204.131C35.9403 201.404 35.3377 198.704 34.584 196.045C33.7031 192.774 32.5727 189.576 31.2027 186.478C28.857 180.765 25.4924 175.526 21.2731 171.016C20.541 170.244 19.7608 169.519 18.9372 168.845C18.5787 168.542 18.262 168.24 17.9393 168C17.6149 167.777 17.3128 167.568 17.0331 167.375C16.488 166.963 15.9114 166.594 15.3086 166.271C17.2952 167.834 19.183 169.518 20.9612 171.314C25.0412 175.861 28.3154 181.071 30.6429 186.72C31.9857 189.801 33.1217 192.968 34.0433 196.2C34.8167 198.834 35.4577 201.506 35.9639 204.205C36.3868 206.512 36.6318 208.396 36.7794 209.7C36.8106 210.382 36.8945 211.06 37.0304 211.729Z" fill="#E0E0E0"/>
<path d="M21.332 240.377L22.96 262.671H51.601L53.228 240.377H21.332Z" fill="#E0E0E0"/>
<path d="M56.6458 231.59H18.5664V240.377H56.6458V231.59Z" fill="#E0E0E0"/>
<path d="M18.5664 261.818V264.254H20.3554H56.0164V261.818H18.5664Z" fill="#EBEBEB"/>
<path d="M22.1095 268.541L20.3555 264.254H54.6525L52.6065 268.541H22.1095Z" fill="#E0E0E0"/>
<path d="M52.6964 247.663C52.6612 247.737 52.6163 247.806 52.5629 247.868C52.4492 248.019 52.3084 248.205 52.135 248.436C51.7282 248.956 51.1694 249.671 50.4665 250.571L50.3924 250.666L50.3205 250.566C49.2718 249.116 47.8708 247.178 46.2214 244.897H46.4572C45.238 246.624 43.8798 248.547 42.4216 250.611L42.2951 250.791L42.1536 250.622C40.6642 248.85 39.0467 246.926 37.3674 244.928L37.6433 244.924L37.38 245.255C35.8956 247.116 34.459 248.917 33.1003 250.62L32.9576 250.799L32.826 250.613C31.3731 248.557 30.0156 246.636 28.7883 244.9L29.0231 244.911C27.0333 247.178 25.3458 249.101 24.0505 250.576L23.9622 250.677L23.8948 250.564C23.2393 249.463 22.7167 248.585 22.3379 247.948C22.175 247.664 22.0434 247.435 21.9384 247.252C21.8875 247.174 21.8465 247.091 21.8164 247.003C21.881 247.07 21.937 247.144 21.9832 247.224C22.0993 247.4 22.2451 247.621 22.4252 247.894C22.8229 248.519 23.3716 249.381 24.0597 250.462L23.9041 250.45C25.1785 248.956 26.8391 247.01 28.797 244.715L28.9204 244.571L29.032 244.726C30.2703 246.455 31.6399 248.367 33.1058 250.414L32.8316 250.406C34.187 248.7 35.6202 246.897 37.1011 245.033C37.1912 244.92 37.2813 244.806 37.3645 244.702L37.5005 244.531L37.6405 244.699C39.3152 246.701 40.9281 248.629 42.4133 250.404L42.1454 250.415C43.6181 248.361 44.9898 246.447 46.2213 244.729L46.3408 244.563L46.4573 244.729C48.0718 247.035 49.4432 248.994 50.4698 250.46L50.3241 250.456C51.0553 249.579 51.6366 248.882 52.0597 248.375C52.2481 248.157 52.4011 247.98 52.5245 247.837C52.6316 247.717 52.69 247.658 52.6964 247.663Z" fill="#F5F5F5"/>
<path d="M53.6259 240.231C53.6259 240.329 46.4494 240.409 37.5989 240.409C28.7452 240.409 21.5703 240.329 21.5703 240.231C21.5703 240.132 28.7452 240.053 37.5989 240.053C46.4494 240.053 53.6259 240.133 53.6259 240.231Z" fill="#F5F5F5"/>
<path d="M55.0727 264.495C55.0727 264.593 47.2733 264.673 37.6543 264.673C28.0321 264.673 20.2344 264.593 20.2344 264.495C20.2344 264.396 28.0321 264.316 37.6543 264.316C47.2733 264.316 55.0727 264.396 55.0727 264.495Z" fill="#F5F5F5"/>
<path d="M428.612 268.542C428.612 268.685 332.656 268.802 214.316 268.802C95.9352 268.802 0 268.685 0 268.542C0 268.398 95.9352 268.281 214.316 268.281C332.656 268.281 428.612 268.398 428.612 268.542Z" fill="#263238"/>
<path d="M147.685 63.5527C145.979 64.2124 144.503 65.3565 143.438 66.8441C142.374 68.3318 141.767 70.0982 141.693 71.9261C141.625 74.2391 141.731 76.9588 139.9 78.3746C138.179 79.7057 135.661 79.1086 133.621 79.8643C131.025 80.8258 129.738 83.7373 129.167 86.4461C128.596 89.1549 128.419 92.0583 126.906 94.3767C125.446 96.6149 122.979 97.9387 120.753 99.4185C118.528 100.898 116.311 102.861 115.9 105.502C115.31 109.286 118.64 113.144 117.273 116.722C116.394 119.025 113.916 120.205 112.052 121.818C110.84 122.866 109.852 124.148 109.146 125.586C108.44 127.024 108.031 128.59 107.944 130.19C107.856 131.79 108.092 133.391 108.636 134.898C109.181 136.405 110.024 137.786 111.114 138.96C111.947 139.941 113.001 140.711 114.189 141.206C115.377 141.7 116.666 141.906 117.949 141.806C120.422 141.456 122.392 139.643 124.258 137.983C131.085 131.909 138.705 126.789 146.909 122.763C149.038 121.719 151.353 120.612 152.453 118.511C152.947 117.418 153.254 116.25 153.361 115.056C155.657 99.3087 157.954 83.5616 160.25 67.8143" fill="#263238"/>
<path d="M171.063 48.5831C170.133 45.1142 172.166 41.3453 175.17 39.3776C178.174 37.4099 181.926 36.9438 185.516 37.0465C189.208 37.1522 193.309 38.0674 195.342 41.1514C196.619 43.0887 196.838 45.552 197.976 47.5745C201.181 53.2731 210.102 53.3803 213.586 58.9125C216.899 64.1714 213.514 71.0631 214.305 77.2278C214.835 81.3605 217.229 84.9709 219.097 88.6954C220.965 92.4199 222.347 96.8374 220.763 100.691C219.068 104.814 214.28 107.481 213.805 111.914C213.215 117.41 219.722 122.433 217.724 127.587C216.243 131.408 210.692 132.853 210.093 136.907C209.773 139.076 211.062 141.115 211.646 143.228C213.126 148.59 209.659 154.475 204.682 156.961C199.706 159.446 193.696 159.045 188.435 157.239C184.224 155.793 180.347 153.515 177.034 150.541C173.721 147.567 171.04 143.958 169.15 139.927C167.26 135.896 166.199 131.526 166.031 127.077C165.864 122.628 166.592 118.191 168.173 114.029" fill="#263238"/>
<path d="M114.785 101.998C114.605 101.688 114.333 101.441 114.006 101.293C113.608 101.127 113.168 101.092 112.749 101.195C112.467 101.253 112.205 101.383 111.989 101.573C111.773 101.764 111.61 102.007 111.517 102.279C111.41 102.624 111.383 102.989 111.44 103.346C111.496 103.703 111.634 104.042 111.843 104.337C112.094 104.684 112.429 104.963 112.816 105.148C113.203 105.333 113.63 105.417 114.059 105.395C114.556 105.381 115.045 105.268 115.498 105.063C115.952 104.858 116.36 104.566 116.699 104.202C117.468 103.368 118.018 102.356 118.299 101.258C118.999 98.9471 118.798 96.2589 119.054 93.3858C119.175 91.8805 119.576 90.4109 120.235 89.0521C120.596 88.3366 121.078 87.6885 121.659 87.1361C122.274 86.5803 122.993 86.1531 123.776 85.8799C125.38 85.4372 127.025 85.1559 128.685 85.0404C130.356 84.9784 131.935 84.255 133.073 83.0293C134.138 81.7187 134.23 79.8654 134.099 78.1084C133.857 76.2791 133.737 74.4359 133.738 72.5907C133.889 70.7083 134.523 68.8967 135.579 67.3316C136.585 65.7781 138.067 64.5922 139.803 63.9513C141.503 63.5065 143.278 63.4236 145.012 63.7079C146.651 63.8293 148.386 63.8955 149.6 62.9374C150.85 62.0127 151.149 60.3763 151.236 58.9032C151.232 57.4107 151.379 55.9217 151.676 54.459C152.376 51.8255 153.955 49.5104 156.151 47.8974C157.959 46.5756 160.13 45.8421 162.369 45.7965C164.045 45.7555 165.71 46.0746 167.253 46.7323C168.227 47.1354 169.134 47.6847 169.942 48.3612C170.227 48.5907 170.492 48.8444 170.733 49.1194C170.714 49.1398 170.444 48.875 169.877 48.4434C169.053 47.8108 168.143 47.2979 167.175 46.9197C165.652 46.3089 164.018 46.0254 162.378 46.0875C160.207 46.1611 158.111 46.896 156.37 48.1938C154.264 49.7714 152.756 52.018 152.094 54.5652C151.815 56.0037 151.68 57.4667 151.693 58.9321C151.665 59.7259 151.533 60.5128 151.301 61.2726C151.051 62.0817 150.56 62.7951 149.893 63.3174C149.202 63.8349 148.378 64.1456 147.517 64.2132C146.672 64.2882 145.821 64.2851 144.976 64.2039C143.309 63.9319 141.604 64.0101 139.969 64.4336C138.34 65.0415 136.95 66.1599 136.008 67.622C135.004 69.1133 134.401 70.8382 134.258 72.6304C134.26 74.4504 134.379 76.2683 134.616 78.0728C134.696 78.9873 134.672 79.908 134.545 80.8171C134.412 81.7383 134.043 82.6095 133.473 83.3454C132.898 84.0587 132.144 84.6063 131.288 84.932C130.47 85.2342 129.618 85.4361 128.751 85.5333C127.124 85.6411 125.511 85.9087 123.936 86.3322C123.213 86.5809 122.547 86.9716 121.977 87.4816C121.433 87.9949 120.981 88.5974 120.641 89.2632C120.001 90.5692 119.609 91.9823 119.483 93.4312C119.211 96.2407 119.397 98.9753 118.652 101.363C118.344 102.514 117.753 103.57 116.934 104.435C116.562 104.824 116.116 105.135 115.623 105.349C115.129 105.564 114.598 105.679 114.06 105.686C113.587 105.703 113.118 105.601 112.694 105.389C112.271 105.178 111.907 104.863 111.636 104.475C111.413 104.147 111.269 103.772 111.215 103.379C111.161 102.986 111.2 102.586 111.327 102.21C111.436 101.911 111.622 101.646 111.866 101.441C112.109 101.237 112.402 101.1 112.716 101.044C113.165 100.947 113.634 101.001 114.05 101.197C114.224 101.269 114.38 101.378 114.507 101.516C114.634 101.655 114.729 101.819 114.785 101.998Z" fill="#263238"/>
<path d="M224.059 114.391C224.11 114.469 224.151 114.554 224.18 114.644C224.283 114.903 224.33 115.18 224.32 115.458C224.279 115.996 224.105 116.516 223.814 116.97C223.523 117.425 223.124 117.8 222.653 118.063C221.984 118.491 221.181 118.657 220.397 118.528C219.476 118.333 218.653 117.822 218.07 117.083C217.396 116.249 216.974 115.239 216.856 114.173C216.749 112.981 216.946 111.782 217.429 110.686C218.367 108.348 220.317 106.385 222.129 104.203C223.082 103.093 223.85 101.837 224.405 100.483C224.957 99.0387 225.221 97.5002 225.182 95.9543C225.144 94.3296 224.78 92.7291 224.112 91.2477C223.391 89.7121 222.361 88.341 221.088 87.2193C219.818 86.0279 218.394 84.9327 217.119 83.5986C215.739 82.2745 214.845 80.5243 214.582 78.6301C214.5 76.7525 214.79 74.8773 215.434 73.1119C216.016 71.4393 216.413 69.7079 216.617 67.9488C216.819 66.3003 216.688 64.628 216.232 63.031C215.776 61.434 215.004 59.9447 213.962 58.6515C213.006 57.4908 211.783 56.5791 210.398 55.9946C209.012 55.41 207.506 55.17 206.007 55.2951C204.594 55.4163 203.172 55.2404 201.831 54.7788C200.62 54.2077 199.665 53.2058 199.153 51.9685C198.113 49.6703 198.152 47.3794 197.7 45.5216C197.525 44.6495 197.22 43.8084 196.796 43.0263C196.432 42.3783 195.924 41.8216 195.313 41.398C194.483 40.7712 193.438 40.4979 192.407 40.6376C192.055 40.7209 191.714 40.8447 191.391 41.0067C191.678 40.769 192.02 40.6068 192.385 40.5348C192.913 40.4406 193.455 40.4536 193.977 40.5731C194.5 40.6927 194.993 40.9162 195.428 41.2305C196.076 41.6594 196.618 42.2313 197.011 42.9023C197.462 43.6997 197.79 44.5608 197.984 45.4563C198.467 47.349 198.465 49.6271 199.486 51.8121C199.969 52.959 200.862 53.8851 201.99 54.4099C203.282 54.8367 204.648 54.9911 206.002 54.8633C207.567 54.7278 209.141 54.9731 210.591 55.5781C212.04 56.1832 213.321 57.1301 214.325 58.3379C215.416 59.6773 216.226 61.2224 216.707 62.8812C217.188 64.54 217.33 66.2787 217.126 67.9937C216.922 69.7879 216.521 71.5541 215.93 73.2607C215.309 74.961 215.026 76.7667 215.1 78.5756C215.351 80.3561 216.195 82 217.495 83.2424C218.728 84.5368 220.147 85.6337 221.437 86.8474C222.756 88.017 223.821 89.4448 224.565 91.0424C225.256 92.5861 225.629 94.2531 225.662 95.944C225.696 97.5519 225.414 99.1508 224.831 100.65C224.253 102.044 223.453 103.336 222.464 104.477C220.608 106.677 218.692 108.584 217.769 110.828C217.299 111.864 217.098 113.002 217.185 114.137C217.285 115.144 217.671 116.103 218.296 116.9C218.829 117.598 219.59 118.088 220.446 118.285C221.172 118.415 221.92 118.273 222.549 117.888C223.003 117.647 223.391 117.3 223.681 116.876C223.971 116.452 224.155 115.964 224.215 115.454C224.22 115.093 224.167 114.734 224.059 114.391Z" fill="#263238"/>
<path d="M146.202 64.7715C144.305 65.2945 143.275 67.4499 143.274 69.4177C143.445 71.3795 143.875 73.3099 144.554 75.1582C145.073 77.0566 145.325 79.1853 144.379 80.9108C142.482 84.3709 137.151 84.1905 134.584 87.1872C131.318 90.9992 134.365 97.2923 132.007 101.723C129.858 105.761 123.845 107.026 122.655 111.443C121.897 114.256 123.488 117.313 122.698 120.117C121.802 123.296 118.277 124.91 116.417 127.639C115.549 129.064 115.044 130.679 114.944 132.344C114.844 134.01 115.154 135.674 115.846 137.192C117.085 139.889 118.952 142.252 121.29 144.08C121.575 144.318 121.864 144.551 122.156 144.778L156.592 136.766L163.504 73.0571L146.202 64.7715Z" fill="#263238"/>
<path d="M165.09 52.9737C163.84 52.8423 162.586 53.1846 161.576 53.9331C160.566 54.6816 159.874 55.7817 159.636 57.016L148.278 123.912C146.713 131.764 157.205 138.628 165.625 140.239C174.13 141.867 175.297 137.776 177.008 130.353C179.866 117.952 180.858 113.279 180.848 113.351C180.848 113.351 191.924 113.856 197.117 100.372C199.699 93.6663 201.778 82.2115 203.176 72.7841C204.434 64.2985 201.077 52.8421 192.546 51.9453L165.09 52.9737Z" fill="#B78876"/>
<path d="M198.157 81.1533C198.062 81.6208 197.788 82.0328 197.394 82.3013C196.999 82.5699 196.516 82.6739 196.046 82.5911C195.814 82.5606 195.591 82.4841 195.389 82.366C195.188 82.248 195.012 82.0908 194.872 81.9038C194.732 81.7167 194.631 81.5035 194.575 81.2768C194.519 81.0501 194.508 80.8144 194.545 80.5837C194.64 80.1163 194.913 79.7045 195.307 79.4357C195.701 79.1669 196.184 79.0625 196.654 79.1445C196.886 79.1749 197.109 79.2514 197.311 79.3695C197.513 79.4876 197.689 79.6449 197.829 79.8321C197.969 80.0193 198.07 80.2326 198.126 80.4595C198.183 80.6864 198.193 80.9223 198.157 81.1533Z" fill="#263238"/>
<path d="M199.443 79.3509C199.171 79.5369 198.029 78.2441 196.102 77.8384C194.183 77.4055 192.558 78.095 192.399 77.8146C192.319 77.6883 192.635 77.3152 193.346 76.9982C194.302 76.5982 195.359 76.504 196.371 76.7286C197.374 76.9386 198.284 77.4623 198.969 78.2239C199.464 78.8047 199.575 79.2696 199.443 79.3509Z" fill="#263238"/>
<path d="M178.969 77.0165C178.874 77.4841 178.6 77.896 178.206 78.1646C177.812 78.4332 177.328 78.5372 176.858 78.4543C176.626 78.4239 176.403 78.3474 176.202 78.2293C176 78.1113 175.824 77.9541 175.684 77.7671C175.545 77.58 175.444 77.3668 175.387 77.1401C175.331 76.9134 175.321 76.6778 175.357 76.447C175.452 75.9796 175.726 75.5677 176.12 75.2989C176.514 75.0301 176.997 74.9257 177.467 75.0078C177.699 75.0383 177.922 75.1148 178.124 75.2329C178.325 75.351 178.501 75.5082 178.641 75.6954C178.781 75.8826 178.883 76.096 178.939 76.3229C178.995 76.5497 179.005 76.7856 178.969 77.0165Z" fill="#263238"/>
<path d="M180.436 75.0425C180.163 75.2284 179.02 73.9355 177.094 73.5301C175.175 73.0971 173.55 73.7866 173.391 73.5062C173.311 73.3798 173.624 73.0064 174.338 72.6901C175.294 72.2897 176.351 72.1954 177.364 72.4199C178.366 72.6303 179.276 73.154 179.961 73.9153C180.455 74.4958 180.566 74.961 180.436 75.0425Z" fill="#263238"/>
<path d="M184.379 90.275C185.462 90.1736 186.553 90.2081 187.628 90.3777C188.13 90.4317 188.617 90.4333 188.771 90.1156C188.921 89.6164 188.915 89.0833 188.754 88.5875C188.545 87.2987 188.327 85.947 188.098 84.5322C187.216 78.7691 186.688 74.0725 186.921 74.0392C187.153 74.0056 188.058 78.6498 188.94 84.4128C189.145 85.8314 189.342 87.1864 189.53 88.4776C189.712 89.137 189.657 89.8398 189.373 90.4624C189.265 90.6206 189.122 90.7521 188.955 90.8468C188.788 90.9415 188.602 90.997 188.411 91.009C188.123 91.0248 187.834 91.004 187.551 90.9469C186.469 90.8583 185.403 90.6325 184.379 90.275Z" fill="#263238"/>
<path d="M180.847 113.352C174.254 112.05 168.151 108.944 163.219 104.379C163.219 104.379 165.833 115.235 180.08 116.909L180.847 113.352Z" fill="#AA6550"/>
<path d="M182.573 94.7436C182.305 94.2041 181.904 93.7418 181.408 93.4002C180.912 93.0586 180.337 92.849 179.737 92.7911C179.304 92.7386 178.865 92.7742 178.445 92.8957C178.026 93.0172 177.636 93.2221 177.298 93.4981C176.972 93.764 176.736 94.1237 176.621 94.5285C176.506 94.9333 176.518 95.3636 176.656 95.7612C176.892 96.1731 177.245 96.5052 177.671 96.7149C178.096 96.9247 178.575 97.0025 179.045 96.9384C180.023 96.8103 180.967 96.4894 181.82 95.9941C182.07 95.8865 182.298 95.7331 182.492 95.5418C182.585 95.4506 182.649 95.3336 182.676 95.2059C182.703 95.0781 182.691 94.9453 182.642 94.8243" fill="#AA6550"/>
<path d="M178.427 90.3972C178.745 90.446 178.303 92.5374 179.776 94.4031C181.244 96.2728 183.523 96.5132 183.477 96.8092C183.478 96.9465 182.894 97.1094 181.948 96.9343C180.72 96.6903 179.617 96.0209 178.833 95.044C178.082 94.1052 177.724 92.9111 177.837 91.7139C177.943 90.823 178.287 90.3547 178.427 90.3972Z" fill="#263238"/>
<path d="M182.02 71.3125C181.719 71.7955 179.848 71.1371 177.531 70.9275C175.217 70.6714 173.254 70.9444 173.054 70.4107C172.968 70.1573 173.391 69.7326 174.236 69.3827C175.352 68.9709 176.547 68.8187 177.731 68.9377C178.914 69.0568 180.055 69.4438 181.067 70.0695C181.825 70.5806 182.155 71.0813 182.02 71.3125Z" fill="#263238"/>
<path d="M199.925 75.8778C199.493 76.2429 198.263 75.506 196.672 75.1443C195.093 74.7269 193.662 74.8098 193.449 74.2859C193.36 74.0345 193.666 73.6419 194.345 73.3536C195.244 73.0265 196.22 72.9737 197.149 73.2021C198.078 73.4305 198.918 73.9296 199.563 74.6363C200.031 75.2063 200.12 75.6962 199.925 75.8778Z" fill="#263238"/>
<path d="M175.226 50.4102C173.88 48.9509 172.235 47.798 170.405 47.0295C168.574 46.2609 166.599 45.8948 164.615 45.9558C160.662 46.2224 156.855 48.9108 155.912 52.6749C155.299 55.1218 155.799 57.9713 154.226 59.9573C152.729 61.8476 149.979 62.1557 147.83 63.2961C146.168 64.2169 144.862 65.6669 144.12 67.4155C143.377 69.1641 143.241 71.1108 143.732 72.9459C144.652 76.0707 147.414 78.8107 147.001 82.0257C146.613 85.0506 143.57 87.0176 142.331 89.8067C140.964 92.8838 142.029 96.6012 144.124 99.2896C146.219 101.978 149.195 103.851 152.106 105.668C154.378 107.085 156.821 108.553 159.502 108.525C161.085 108.446 162.608 107.899 163.881 106.955C165.153 106.011 166.117 104.711 166.651 103.219C167.132 101.721 167.284 100.138 167.096 98.576C166.908 97.0144 166.385 95.512 165.562 94.1717C164.195 91.8122 162.044 89.5936 162.175 86.896C162.379 82.6949 167.931 80.4033 168.517 76.2401C168.819 74.093 167.706 72.0217 166.84 70.0165C165.973 68.0113 165.362 65.5908 166.552 63.7709C168.098 61.4055 171.633 61.464 174.088 60.0137C175.104 59.4007 175.931 58.5175 176.474 57.4625C177.018 56.4075 177.258 55.2222 177.167 54.0388C177.033 52.8487 176.579 51.7174 175.851 50.7659C175.124 49.8143 174.152 49.0783 173.039 48.6365" fill="#263238"/>
<path d="M174.402 46.941C174.094 48.3416 174.099 49.7928 174.416 51.1914C174.732 52.59 175.353 53.9016 176.234 55.0331C177.115 56.1645 178.235 57.088 179.513 57.7379C180.791 58.3878 182.197 58.7481 183.63 58.7933C185.846 58.8631 188.414 58.2895 190.014 59.8229C191.697 61.4355 191.146 64.3777 192.545 66.2423C194.544 68.9073 198.886 67.7474 201.809 69.3466C204.066 70.5814 205.075 73.2105 206.259 75.4945C207.442 77.7785 209.444 80.1391 212.009 79.9433C212.407 77.7542 212.552 75.5266 212.439 73.3045C212.318 71.0642 211.427 68.9346 209.917 67.2759C208.977 66.5024 208.077 65.6817 207.22 64.8171C205.567 62.7701 205.71 59.858 204.96 57.3359C204.461 55.7096 203.581 54.2258 202.393 53.0076C201.205 51.7895 199.744 50.8721 198.131 50.3315C195.447 49.4593 192.442 49.673 189.912 48.4219C188.042 47.4971 186.592 45.8411 184.671 45.0285C180.929 43.446 176.699 45.4637 173.27 47.6415" fill="#263238"/>
<path d="M123.352 127.46C122.98 127.395 122.619 127.279 122.279 127.114C121.292 126.645 120.443 125.929 119.813 125.036C118.785 123.623 118.308 121.883 118.474 120.144C118.726 117.843 119.807 115.712 121.516 114.151C122.445 113.276 123.558 112.56 124.619 111.725C125.765 110.946 126.639 109.828 127.117 108.528C127.524 107.165 127.211 105.649 127.118 104.072C127.022 102.414 127.373 100.76 128.133 99.2835C128.922 97.7294 130.095 96.4024 131.541 95.4283C133.053 94.4094 134.828 93.8499 136.651 93.8176C138.471 93.7228 140.308 93.913 142.11 93.6719C143.006 93.5703 143.871 93.2816 144.649 92.8243C145.417 92.3394 146.04 91.6574 146.455 90.8495C147.179 89.133 147.702 87.3378 148.01 85.5003C148.218 84.5789 148.54 83.687 148.969 82.8453C149.408 82.0021 150.04 81.2742 150.813 80.7206C152.368 79.8013 154.091 79.2057 155.882 78.9697C157.529 78.7377 159.108 78.1565 160.513 77.2651C161.152 76.8189 161.661 76.2104 161.987 75.5021C162.288 74.8026 162.419 74.0418 162.37 73.2819C162.205 71.7903 161.844 70.3271 161.295 68.9305C160.786 67.571 160.557 66.1224 160.623 64.6722C160.684 63.9736 160.901 63.2976 161.258 62.6941C161.616 62.124 162.106 61.648 162.686 61.3059C163.768 60.7518 164.947 60.4119 166.159 60.3049C167.207 60.1931 168.248 60.0171 169.276 59.7779C170.901 59.3323 172.337 58.3671 173.363 57.0294C174.022 56.1909 174.508 55.2301 174.794 54.2027C174.98 53.4948 175.003 53.1058 175.034 53.1094C175.03 53.4864 174.984 53.8617 174.895 54.2282C174.565 55.6011 173.879 56.8628 172.906 57.8863C171.933 58.9098 170.708 59.659 169.353 60.0585C168.317 60.3155 167.267 60.5072 166.207 60.6326C165.044 60.7473 163.913 61.0828 162.876 61.6212C162.34 61.9467 161.89 62.3981 161.568 62.9362C161.245 63.4744 161.058 64.0832 161.023 64.7098C160.974 66.1032 161.206 67.4922 161.705 68.7943C162.277 70.2258 162.654 71.7275 162.827 73.2593C162.884 74.0919 162.743 74.9262 162.416 75.6938C162.06 76.4786 161.501 77.1545 160.797 77.652C159.34 78.5917 157.698 79.2072 155.982 79.4569C154.261 79.6862 152.604 80.2577 151.107 81.1378C149.719 82.2631 148.795 83.8613 148.513 85.6259C148.198 87.5062 147.661 89.3425 146.913 91.0962C146.456 91.9839 145.769 92.7329 144.924 93.2656C144.084 93.7613 143.15 94.0746 142.181 94.1851C140.289 94.4331 138.448 94.2354 136.676 94.3272C134.982 94.3741 133.332 94.8802 131.902 95.7915C130.473 96.7028 129.318 97.9851 128.56 99.5015C127.832 100.902 127.491 102.472 127.575 104.048C127.651 105.575 127.982 107.149 127.531 108.651C127.021 110.033 126.089 111.219 124.867 112.041C123.777 112.884 122.67 113.585 121.767 114.42C120.104 115.912 119.038 117.954 118.763 120.171C118.582 121.848 119.014 123.535 119.978 124.919C120.576 125.802 121.382 126.523 122.325 127.02C122.978 127.348 123.362 127.43 123.352 127.46Z" fill="#455A64"/>
<path d="M206.28 148.65C206.591 148.35 206.883 148.031 207.155 147.696C207.871 146.682 208.27 145.48 208.303 144.239C208.372 142.277 207.915 140.332 206.977 138.607C205.994 136.537 204.415 134.394 203.374 131.632C202.3 128.574 202.29 125.242 203.347 122.178C203.92 120.473 204.815 118.895 205.984 117.53C207.189 116.129 208.668 114.951 209.83 113.467C210.962 112.018 211.823 110.07 211.254 108.206C210.688 106.341 208.996 105.035 207.509 103.581C206.712 102.849 206.034 101.999 205.498 101.059C204.983 100.078 204.671 99.0026 204.581 97.8979C204.447 95.666 204.82 93.4326 205.672 91.3654C206.481 89.2697 207.551 87.3502 208.441 85.397C209.381 83.5193 209.986 81.4919 210.229 79.4061C210.367 77.4336 210.05 75.4559 209.302 73.6252C208.555 71.7946 207.398 70.1598 205.92 68.8468C204.429 67.7346 202.862 66.7293 201.229 65.8382C200.443 65.3414 199.77 64.6834 199.256 63.9076C198.812 63.1275 198.526 62.2675 198.415 61.3767C198.314 60.5682 198.053 59.7879 197.646 59.0817C197.219 58.4307 196.633 57.8997 195.942 57.5395C194.586 56.8926 193.15 56.4255 191.673 56.1498C190.303 55.8765 188.975 55.4232 187.723 54.8016C186.62 54.2171 185.608 53.4742 184.719 52.5965C183.286 51.2038 182.179 49.5112 181.476 47.6402C181.03 46.4651 180.77 45.2277 180.704 43.9725C180.681 43.5369 180.69 43.1003 180.73 42.666C180.749 44.3423 181.066 46.002 181.666 47.5674C182.388 49.3912 183.499 51.0357 184.921 52.3869C185.798 53.2333 186.794 53.9477 187.876 54.5076C189.108 55.104 190.413 55.5357 191.757 55.7914C193.272 56.0622 194.745 56.5318 196.137 57.188C196.889 57.5764 197.53 58.1508 197.998 58.8565C198.438 59.6049 198.724 60.4337 198.839 61.2942C198.945 62.1309 199.215 62.9385 199.633 63.6708C200.118 64.391 200.749 65.0004 201.486 65.459C203.14 66.3519 204.727 67.3633 206.235 68.4852C207.776 69.8444 208.984 71.5401 209.765 73.4411C210.546 75.3421 210.879 77.3973 210.738 79.4476C210.494 81.5934 209.876 83.68 208.912 85.6127C208.014 87.5864 206.947 89.5068 206.159 91.5507C205.336 93.5437 204.973 95.6968 205.097 97.8495C205.18 98.886 205.47 99.8952 205.952 100.817C206.462 101.711 207.108 102.52 207.866 103.217C208.604 103.941 209.389 104.625 210.096 105.396C210.838 106.149 211.398 107.062 211.731 108.066C212.018 109.077 211.988 110.152 211.645 111.146C211.322 112.095 210.836 112.98 210.208 113.762C208.99 115.303 207.503 116.474 206.33 117.83C205.193 119.147 204.319 120.671 203.755 122.318C202.713 125.29 202.701 128.527 203.721 131.508C204.711 134.209 206.266 136.373 207.24 138.48C208.175 140.255 208.613 142.25 208.506 144.253C208.45 145.524 208.008 146.747 207.238 147.76C206.972 148.109 206.648 148.41 206.28 148.65Z" fill="#455A64"/>
<path d="M195.025 136.764C200.667 142.684 203.759 150.584 203.634 158.762C203.376 172.444 205.582 197.259 205.582 197.259L243.433 220.393L232.754 236.753L191.049 218.256L182.305 200.347L195.025 136.764Z" fill="#E8505B"/>
<path d="M206.592 230.507C206.592 230.507 208.004 227.795 204.037 225.73L197.605 225.715L185.05 204.051L195.066 136.765L177.944 123.758L140.05 120.387L126.809 188.49L143.735 219.434L177.306 233.236L206.592 230.507Z" fill="#E8505B"/>
<path d="M146.738 120.887L147.49 114.469C147.524 114.178 147.621 113.898 147.773 113.647C147.925 113.397 148.129 113.182 148.372 113.018C148.615 112.854 148.89 112.744 149.179 112.696C149.468 112.648 149.764 112.662 150.047 112.739C159.431 120.092 169.098 123.824 179.286 120.886C179.952 121.071 180.519 121.509 180.868 122.105C181.217 122.702 181.319 123.411 181.154 124.082L177.191 140.168L166.822 143.272L153.131 140.592L146.738 128.772V120.887Z" fill="#E8505B"/>
<path d="M179.554 125.318C179.178 125.609 178.771 125.856 178.34 126.055C177.191 126.653 175.991 127.147 174.755 127.532C170.648 128.841 166.267 129.031 162.063 128.082C157.858 127.134 153.983 125.081 150.836 122.136C149.885 121.258 149.014 120.296 148.233 119.264C147.929 118.899 147.667 118.5 147.453 118.076C148.591 119.406 149.802 120.67 151.083 121.863C154.236 124.679 158.054 126.644 162.177 127.574C166.301 128.505 170.593 128.369 174.649 127.179C176.318 126.652 177.955 126.03 179.554 125.318Z" fill="#263238"/>
<g opacity="0.2">
<path d="M148.567 119.33C148.32 119.947 148.233 120.617 148.315 121.276C148.397 121.936 148.644 122.564 149.034 123.102C149.826 124.168 150.798 125.088 151.907 125.819C155.58 128.551 159.398 131.27 163.801 132.523C168.203 133.776 173.363 133.308 176.739 130.216C177.716 129.321 178.477 127.646 177.462 126.794C176.699 126.156 175.558 126.547 174.629 126.902C170.098 128.636 165.116 128.798 160.482 127.364C155.848 125.93 151.829 122.982 149.069 118.992" fill="black"/>
</g>
<path d="M143.334 192.177L205.253 225.372L182.917 238.873L140.324 226.378C117.733 220.401 111.564 211.015 111.787 201.331C111.868 197.803 111.455 163.374 112.975 146.491C115.046 123.486 140.049 120.387 140.049 120.387L139.612 140.056L139.894 164.071L140.742 186.108C143.002 184.978 143.567 189.216 143.567 189.216L143.334 192.177Z" fill="#E8505B"/>
<path d="M140.325 188.735C140.181 188.736 139.988 180.406 139.894 170.13C139.8 159.852 139.841 151.521 139.985 151.52C140.128 151.518 140.321 159.847 140.415 170.126C140.509 180.401 140.468 188.733 140.325 188.735Z" fill="#263238"/>
<path d="M143.117 193.31C143.046 193.269 143.24 192.898 143.335 192.266C143.482 191.455 143.333 190.618 142.918 189.906C142.502 189.194 141.846 188.654 141.068 188.382C140.471 188.155 140.052 188.142 140.051 188.06C140.043 188 140.478 187.874 141.174 188.03C141.63 188.135 142.06 188.332 142.438 188.61C142.815 188.887 143.131 189.239 143.367 189.644C143.604 190.048 143.754 190.496 143.811 190.961C143.867 191.426 143.828 191.898 143.695 192.347C143.488 193.029 143.165 193.346 143.117 193.31Z" fill="#263238"/>
<path d="M143.116 193.311C143.132 193.312 143.143 193.35 143.227 193.404C143.343 193.488 143.464 193.565 143.588 193.637C143.914 193.833 144.404 194.108 145.04 194.455C146.313 195.148 148.171 196.126 150.473 197.321C155.147 199.717 161.497 202.972 168.514 206.569C175.538 210.16 181.894 213.409 186.571 215.8C188.827 216.972 190.674 217.933 192.025 218.634C192.623 218.956 193.11 219.219 193.496 219.427C193.674 219.51 193.841 219.613 193.994 219.735C193.805 219.685 193.622 219.614 193.449 219.521C193.051 219.336 192.55 219.102 191.934 218.816C190.565 218.15 188.692 217.24 186.406 216.129C181.749 213.837 175.335 210.632 168.278 207.033C161.223 203.435 154.864 200.122 150.3 197.646C145.741 195.182 142.957 193.509 143.116 193.311Z" fill="#263238"/>
<path d="M183.64 204.729C182.654 204.585 181.683 204.349 180.741 204.026C178.972 203.52 176.543 202.767 173.886 201.862C171.227 200.955 168.844 200.068 167.134 199.388C166.191 199.068 165.279 198.662 164.41 198.174C165.383 198.383 166.337 198.673 167.261 199.042C169.155 199.691 171.481 200.487 174.054 201.369C176.628 202.242 178.956 203.032 180.852 203.675C181.809 203.948 182.741 204.3 183.64 204.729Z" fill="#263238"/>
<path d="M168.367 179.207C168.309 179.466 168.207 179.714 168.065 179.939C167.742 180.583 167.359 181.196 166.922 181.77C166.283 182.631 165.558 183.425 164.759 184.14C162.79 185.9 160.439 187.178 157.891 187.872C156.857 188.154 155.796 188.331 154.725 188.399C154.007 188.453 153.284 188.441 152.568 188.362C152.302 188.359 152.038 188.31 151.789 188.217C151.796 188.12 152.915 188.228 154.693 188.032C155.731 187.914 156.757 187.706 157.76 187.411C160.219 186.685 162.496 185.447 164.443 183.779C165.236 183.098 165.968 182.35 166.632 181.543C167.763 180.158 168.282 179.16 168.367 179.207Z" fill="#263238"/>
<path d="M140.066 145.858C139.985 145.865 139.856 144.465 139.528 142.228C139.153 139.318 138.37 136.476 137.202 133.784C136.004 131.111 134.138 128.793 131.783 127.052C130.769 126.385 129.705 125.797 128.602 125.293C128.934 125.321 129.259 125.402 129.565 125.534C130.42 125.838 131.235 126.246 131.991 126.748C134.48 128.45 136.447 130.811 137.675 133.565C138.871 136.3 139.62 139.209 139.893 142.181C140.014 143.314 140.07 144.232 140.091 144.868C140.129 145.198 140.121 145.531 140.066 145.858Z" fill="#263238"/>
<path d="M206.123 197.166C205.573 197.559 205.047 197.984 204.547 198.439C203.407 199.608 202.415 200.913 201.594 202.324C200.739 203.716 200.068 205.212 199.598 206.776C199.25 207.978 199.246 208.763 199.156 208.764C199.013 208.076 199.042 207.363 199.24 206.689C199.617 205.051 200.261 203.486 201.147 202.058C201.986 200.602 203.05 199.289 204.3 198.166C204.788 197.651 205.426 197.301 206.123 197.166Z" fill="#263238"/>
<g opacity="0.2">
<path d="M196.896 221.506C198.953 217.556 198.446 212.764 197.286 208.464C196.126 204.164 194.36 199.977 194.026 195.535C193.737 191.686 194.541 187.849 195.314 184.068C196.087 180.286 196.836 176.43 196.438 172.591C196.039 168.752 194.318 164.866 191.092 162.748C192.513 165.883 193.524 169.188 194.1 172.582C194.665 176.013 193.884 179.53 191.92 182.399C190.857 183.8 189.41 184.947 188.718 186.564C187.798 188.716 187.936 191.151 187.253 193.309C186.504 195.677 185.139 203.615 185.139 203.615C185.05 204.05 187.49 208.542 189.906 211.746C192.321 214.951 195.243 217.831 196.993 221.442" fill="black"/>
</g>
<path d="M197.049 221.24C196.952 221.151 196.867 221.051 196.795 220.941C196.615 220.701 196.391 220.401 196.115 220.031C195.502 219.181 194.659 218.012 193.606 216.551C191.446 213.497 188.429 209.232 184.858 204.184L184.801 204.103L184.821 204.003C185.792 199.231 186.896 193.801 188.065 188.058C188.19 187.449 188.314 186.843 188.434 186.257L188.45 186.182L188.504 186.127C192.117 182.509 194.167 177.618 194.215 172.505C194.084 168.58 192.694 164.801 190.251 161.727L190.214 161.683L190.211 161.631C190.05 159.081 189.922 157.042 189.83 155.582C189.798 154.918 189.772 154.386 189.752 153.974C189.733 153.789 189.734 153.603 189.755 153.418C189.803 153.598 189.832 153.782 189.841 153.967C189.883 154.378 189.937 154.907 190.005 155.569C190.132 157.027 190.311 159.061 190.534 161.607L190.494 161.511C193.049 164.615 194.518 168.469 194.676 172.486C194.732 174.974 194.26 177.446 193.291 179.738C192.273 182.256 190.773 184.55 188.874 186.492L188.944 186.362C188.824 186.948 188.7 187.553 188.575 188.162C187.388 193.901 186.266 199.328 185.28 204.097L185.242 203.916C188.75 209.009 191.713 213.311 193.835 216.391C194.843 217.883 195.65 219.078 196.236 219.946C196.489 220.333 196.693 220.647 196.857 220.898C196.935 221.003 197 221.118 197.049 221.24Z" fill="#263238"/>
<g opacity="0.2">
<path d="M152.096 188.563C151.478 188.081 150.512 188.837 150.552 189.619C150.62 190.006 150.779 190.371 151.016 190.684C151.253 190.997 151.561 191.249 151.914 191.42C153.807 192.475 155.983 192.908 158.135 192.659C160.823 192.518 163.385 191.47 165.403 189.688C166.394 188.788 167.139 187.65 167.568 186.382C167.997 185.115 168.097 183.758 167.857 182.441C167.825 182.227 167.735 182.026 167.597 181.859C167.094 181.337 166.254 181.916 165.756 182.444C162.282 186.092 157.543 188.274 152.512 188.541" fill="black"/>
</g>
<g opacity="0.2">
<path d="M140.023 188.126C138.859 187.642 137.569 187.549 136.348 187.861C135.126 188.173 134.04 188.874 133.251 189.858C132.973 190.147 132.786 190.512 132.713 190.907C132.641 191.301 132.686 191.709 132.843 192.078C133.043 192.343 133.318 192.542 133.633 192.648C133.947 192.754 134.287 192.763 134.606 192.673C135.242 192.48 135.829 192.153 136.327 191.713C137.476 190.828 138.599 189.91 139.696 188.959C139.862 188.838 139.995 188.675 140.081 188.488C140.121 188.393 140.124 188.287 140.091 188.189C140.057 188.092 139.989 188.011 139.9 187.96" fill="black"/>
</g>
<path d="M134.788 193.352C134.728 193.337 134.776 192.843 135.083 192.109C135.503 191.156 136.127 190.306 136.911 189.621C137.695 188.935 138.619 188.43 139.62 188.141C140.389 187.934 140.884 187.953 140.891 188.014C139.548 188.409 138.307 189.091 137.253 190.013C136.2 190.934 135.358 192.074 134.788 193.352Z" fill="#263238"/>
<path d="M116.374 159.262C116.207 156.288 116.214 153.306 116.395 150.333C116.402 147.354 116.583 144.378 116.937 141.42C117.103 144.394 117.096 147.376 116.915 150.349C116.908 153.328 116.727 156.304 116.374 159.262Z" fill="#FAFAFA"/>
<path d="M120.822 173.21C120.678 173.21 120.555 168.418 120.547 162.507C120.539 156.595 120.649 151.803 120.793 151.803C120.937 151.803 121.06 156.594 121.068 162.506C121.076 168.417 120.966 173.21 120.822 173.21Z" fill="#FAFAFA"/>
<path d="M128.82 137.852C128.936 138.657 128.966 139.473 128.908 140.286C128.896 141.785 128.844 143.853 128.754 146.135C128.664 148.419 128.554 150.485 128.448 151.98C128.442 152.794 128.348 153.605 128.168 154.399C128.051 153.596 128.021 152.782 128.08 151.972C128.092 150.473 128.144 148.402 128.234 146.115C128.324 143.829 128.434 141.76 128.54 140.265C128.546 139.453 128.64 138.643 128.82 137.852Z" fill="#FAFAFA"/>
<path d="M134.668 166.562C134.325 161.973 134.33 157.365 134.682 152.777C135.024 157.366 135.019 161.974 134.668 166.562Z" fill="#FAFAFA"/>
<path d="M128.107 182.294C127.977 177.959 128.195 173.621 128.758 169.32C128.888 173.655 128.67 177.994 128.107 182.294Z" fill="#FAFAFA"/>
<path d="M114.715 195.426C114.294 191.169 114.22 186.884 114.494 182.615C114.914 186.872 114.988 191.157 114.715 195.426Z" fill="#FAFAFA"/>
<path d="M120.786 196.401C120.604 193.311 120.771 190.211 121.283 187.158C121.465 190.248 121.298 193.349 120.786 196.401Z" fill="#FAFAFA"/>
<path d="M152.895 203.708C150.793 202.966 148.781 201.992 146.895 200.803C144.924 199.763 143.075 198.505 141.383 197.054C141.467 196.93 143.981 198.522 147.156 200.352C150.326 202.189 152.96 203.573 152.895 203.708Z" fill="#FAFAFA"/>
<path d="M173.331 214.405C172.609 214.214 171.916 213.928 171.27 213.553C168.059 211.949 165.051 209.969 162.307 207.654C161.708 207.209 161.171 206.686 160.711 206.098C160.813 205.98 163.415 208.151 166.9 210.435C170.375 212.733 173.399 214.264 173.331 214.405Z" fill="#FAFAFA"/>
<path d="M174.618 220.269C172.92 219.764 171.276 219.093 169.709 218.267C168.069 217.598 166.498 216.769 165.02 215.793C166.717 216.299 168.362 216.969 169.929 217.795C171.569 218.465 173.139 219.294 174.618 220.269Z" fill="#FAFAFA"/>
<path d="M188.448 225.055C188.363 225.182 186.079 223.746 183.115 222.259C180.156 220.76 177.645 219.777 177.696 219.633C181.612 220.688 185.271 222.533 188.448 225.055Z" fill="#FAFAFA"/>
<path d="M185.01 231.919C183.76 231.357 182.557 230.698 181.411 229.947C180.179 229.347 178.997 228.65 177.875 227.863C180.525 228.669 182.962 230.055 185.01 231.919Z" fill="#FAFAFA"/>
<path d="M136.786 190.566C136.33 187.833 136.22 185.055 136.458 182.295C136.914 185.027 137.024 187.806 136.786 190.566Z" fill="#FAFAFA"/>
<path d="M167.278 163.163C166.442 159.377 165.948 155.524 165.801 151.65C166.636 155.436 167.131 159.289 167.278 163.163Z" fill="#FAFAFA"/>
<path d="M170.626 180.186C170.22 176.144 170.161 172.075 170.449 168.023C170.855 172.065 170.914 176.134 170.626 180.186Z" fill="#FAFAFA"/>
<path d="M150.495 182.616C149.466 178.925 149.19 175.064 149.683 171.264C149.835 171.271 149.809 173.818 150.037 176.944C150.256 180.069 150.644 182.587 150.495 182.616Z" fill="#FAFAFA"/>
<path d="M157.382 199.331C156.388 195.852 156.08 192.213 156.476 188.617C156.626 188.62 156.673 191.025 156.927 193.974C157.172 196.923 157.53 199.302 157.382 199.331Z" fill="#FAFAFA"/>
<path d="M160.358 175.319C160.011 171.435 160.011 167.527 160.358 163.643C160.705 167.527 160.705 171.435 160.358 175.319Z" fill="#FAFAFA"/>
<path d="M152.088 155.209C152.436 158.118 152.436 161.058 152.088 163.966C151.741 161.058 151.741 158.118 152.088 155.209Z" fill="#FAFAFA"/>
<path d="M160.545 140.451C160.946 143.027 161 145.645 160.707 148.235C160.306 145.66 160.252 143.042 160.545 140.451Z" fill="#FAFAFA"/>
<path d="M176.051 156.672C175.618 153.94 175.356 151.184 175.268 148.42C175.007 145.667 174.919 142.899 175.004 140.135C175.438 142.866 175.699 145.623 175.788 148.387C176.048 151.14 176.136 153.907 176.051 156.672Z" fill="#FAFAFA"/>
<path d="M181.117 185.861C180.857 182.787 180.77 179.701 180.857 176.617C180.77 173.533 180.857 170.447 181.117 167.373C181.377 170.447 181.464 173.533 181.377 176.617C181.464 179.701 181.377 182.787 181.117 185.861Z" fill="#FAFAFA"/>
<path d="M172.034 200.781C171.687 196.463 171.687 192.124 172.034 187.807C172.381 192.124 172.381 196.463 172.034 200.781Z" fill="#FAFAFA"/>
<path d="M180.307 209.537C179.96 207.879 179.96 206.168 180.307 204.51C180.654 206.168 180.654 207.879 180.307 209.537Z" fill="#FAFAFA"/>
<path d="M185.819 148.236C186.166 152.175 186.166 156.136 185.819 160.075C185.472 156.136 185.472 152.175 185.819 148.236Z" fill="#FAFAFA"/>
<path d="M180.144 127.641C180.404 130.254 180.491 132.881 180.405 135.506C180.491 138.13 180.404 140.758 180.144 143.371C179.884 140.758 179.797 138.13 179.884 135.506C179.797 132.881 179.884 130.254 180.144 127.641Z" fill="#FAFAFA"/>
<path d="M169.44 129.748C169.787 133.307 169.787 136.892 169.44 140.451C169.093 136.892 169.093 133.307 169.44 129.748Z" fill="#FAFAFA"/>
<path d="M193.997 154.193C193.29 149.882 193.213 145.493 193.767 141.16C193.916 141.168 193.863 144.084 193.93 147.676C193.99 151.267 194.145 154.179 193.997 154.193Z" fill="#FAFAFA"/>
<path d="M198.694 165.135C198.347 160.732 198.347 156.309 198.694 151.906C199.041 156.309 199.041 160.732 198.694 165.135Z" fill="#FAFAFA"/>
<path d="M201.589 184.357C201.241 179.816 201.241 175.256 201.589 170.715C201.936 175.256 201.936 179.816 201.589 184.357Z" fill="#FAFAFA"/>
<path d="M194.971 194.898C194.624 190.082 194.624 185.246 194.971 180.43C195.318 185.246 195.318 190.082 194.971 194.898Z" fill="#FAFAFA"/>
<path d="M189.803 207.094C189.456 202.002 189.456 196.891 189.803 191.799C190.151 196.891 190.151 202.002 189.803 207.094Z" fill="#FAFAFA"/>
<path d="M201.175 200.687C200.827 197.734 200.827 194.751 201.175 191.799C201.522 194.751 201.522 197.734 201.175 200.687Z" fill="#FAFAFA"/>
<path d="M212.281 222.313C209.68 221.507 207.133 220.536 204.656 219.406C202.111 218.436 199.631 217.305 197.23 216.02C199.832 216.825 202.379 217.796 204.856 218.926C207.401 219.896 209.881 221.027 212.281 222.313Z" fill="#FAFAFA"/>
<path d="M225.541 218.319C222.772 217.608 220.049 216.73 217.386 215.688C214.666 214.81 212.001 213.768 209.406 212.566C212.175 213.278 214.899 214.157 217.561 215.198C220.282 216.076 222.947 217.119 225.541 218.319Z" fill="#FAFAFA"/>
<path d="M216.212 209.463C214.32 208.789 212.49 207.953 210.742 206.964C208.915 206.129 207.164 205.138 205.508 204.002C207.4 204.676 209.23 205.512 210.979 206.501C212.805 207.336 214.556 208.327 216.212 209.463Z" fill="#FAFAFA"/>
<path d="M128.168 127.576C128.271 127.694 126.686 129.136 125.115 131.231C123.53 133.317 122.579 135.236 122.438 135.17C123.495 132.096 125.502 129.436 128.168 127.576Z" fill="#FAFAFA"/>
<path d="M141.855 131.374C141.079 129.351 140.635 127.217 140.539 125.053C141.315 127.075 141.759 129.21 141.855 131.374Z" fill="#FAFAFA"/>
<path d="M199.097 234.691L265.244 202.562C268.565 200.949 272.239 200.197 275.927 200.375C279.615 200.554 283.198 201.658 286.348 203.585C289.064 205.246 291.387 207.477 293.157 210.123C294.927 212.769 296.102 215.768 296.601 218.912C297.099 222.056 296.91 225.271 296.046 228.335C295.182 231.399 293.664 234.239 291.596 236.66L262.939 270.198L189.767 280.317L182.918 238.873L191.05 226.279L199.097 234.691Z" fill="#263238"/>
<path d="M239.052 248.41C238.812 248.667 238.54 248.891 238.243 249.078C237.703 249.48 236.908 250.043 235.915 250.723C233.93 252.083 231.142 253.897 227.997 255.793C224.849 257.689 221.942 259.305 219.811 260.425C218.746 260.985 217.877 261.424 217.269 261.713C216.965 261.889 216.64 262.025 216.301 262.117C216.565 261.886 216.859 261.69 217.173 261.535C217.854 261.138 218.674 260.661 219.634 260.102C221.715 258.902 224.587 257.238 227.728 255.347C230.866 253.455 233.679 251.695 235.713 250.415C236.655 249.828 237.461 249.326 238.13 248.91C238.415 248.704 238.725 248.536 239.052 248.41Z" fill="#455A64"/>
<path d="M99.3469 250.877C99.3469 250.877 105.915 219.153 109.293 214.274C112.671 209.395 119.802 198.469 128.81 197.343C137.818 196.217 156.233 207.023 159.587 211.272C168.069 222.016 221.577 278.668 220.922 277.922L203.676 289.819L185.453 284.044L133.15 284.047C133.15 284.047 96.9228 277.922 99.3469 250.877Z" fill="#263238"/>
<path d="M185.451 284.044C185.184 284.052 184.916 284.037 184.651 283.999C183.887 283.932 183.128 283.812 182.38 283.639C179.64 282.966 176.973 282.024 174.419 280.826C166.014 276.846 158.105 271.896 150.853 266.076C143.411 260.521 136.367 254.451 129.773 247.911C127.78 245.918 125.95 243.768 124.3 241.483C123.849 240.864 123.439 240.215 123.076 239.54C122.931 239.315 122.807 239.078 122.703 238.832C122.876 239.037 123.031 239.255 123.167 239.487C123.566 240.135 123.999 240.762 124.465 241.365C126.169 243.591 128.031 245.692 130.036 247.653C136.69 254.099 143.749 260.115 151.169 265.663C158.398 271.455 166.247 276.428 174.572 280.491C177.096 281.71 179.725 282.698 182.427 283.442C183.164 283.634 183.911 283.785 184.664 283.895C184.93 283.922 185.193 283.972 185.451 284.044Z" fill="#455A64"/>
<path d="M162.014 276.963C161.801 277.121 161.575 277.259 161.337 277.377C160.839 277.652 160.174 278.018 159.344 278.476C158.476 278.951 157.343 279.386 156.063 279.965C155.425 280.266 154.696 280.462 153.948 280.738C153.19 280.981 152.41 281.315 151.545 281.509C147.551 282.651 143.424 283.266 139.27 283.336C134.179 283.444 129.101 282.788 124.205 281.39C119.306 279.984 114.67 277.784 110.481 274.879C109.545 274.171 108.597 273.537 107.741 272.816C106.919 272.11 106.155 271.338 105.459 270.506C104.22 269.014 103.141 267.397 102.239 265.68C100.902 263.212 99.9846 260.539 99.5264 257.769C99.4013 257.019 99.3339 256.26 99.3248 255.499C99.3086 255.234 99.3159 254.969 99.3465 254.705C99.4079 254.703 99.3751 255.802 99.7263 257.735C100.256 260.459 101.214 263.082 102.564 265.506C103.474 267.186 104.555 268.767 105.788 270.226C106.476 271.033 107.228 271.782 108.037 272.466C108.876 273.163 109.828 273.791 110.754 274.485C114.913 277.335 119.504 279.498 124.35 280.89C129.197 282.273 134.221 282.936 139.261 282.856C143.378 282.808 147.473 282.236 151.446 281.154C152.308 280.973 153.085 280.653 153.843 280.424C154.589 280.162 155.318 279.98 155.956 279.694C157.239 279.144 158.377 278.739 159.255 278.294C160.103 277.873 160.78 277.537 161.287 277.285C161.519 277.157 161.762 277.049 162.014 276.963Z" fill="#455A64"/>
<path d="M219.38 276.06C219.275 276.158 206.292 262.488 190.385 245.53C174.472 228.566 161.661 214.74 161.766 214.641C161.871 214.543 174.852 228.21 190.764 245.174C206.671 262.131 219.485 275.961 219.38 276.06Z" fill="#455A64"/>
<path d="M165.393 275.818C165.393 275.818 153.567 280.632 154.801 286.146C156.036 291.66 162.137 294.213 168.303 293.627C174.47 293.041 185.82 287.954 185.82 287.954L191.667 284.858C191.667 284.858 184.56 284.747 180.973 283.463C176.817 281.974 165.393 275.818 165.393 275.818Z" fill="#E8505B"/>
<path d="M180.02 285.482L221.976 292.081L310.631 283.249L262.029 269.928L180.044 281.714C179.591 281.779 179.176 282.006 178.876 282.352C178.575 282.699 178.41 283.142 178.41 283.6C178.41 284.054 178.572 284.493 178.867 284.838C179.162 285.183 179.571 285.412 180.02 285.482Z" fill="#455A64"/>
<path d="M233.276 225.298L223.112 285.361C222.978 286.15 223.029 286.959 223.259 287.725C223.489 288.492 223.893 289.195 224.439 289.78C224.985 290.364 225.659 290.815 226.408 291.097C227.157 291.379 227.961 291.485 228.757 291.405L310.629 283.249C311.753 283.137 312.81 282.662 313.64 281.896C314.47 281.131 315.029 280.115 315.231 279.004L326.304 218.203C326.449 217.407 326.407 216.588 326.18 215.811C325.953 215.035 325.548 214.322 324.997 213.729C324.446 213.136 323.764 212.68 323.006 212.397C322.248 212.114 321.435 212.012 320.63 212.098L237.85 220.994C236.723 221.115 235.666 221.601 234.84 222.378C234.015 223.155 233.466 224.18 233.276 225.298Z" fill="#455A64"/>
<path d="M178.41 283.599C178.484 283.593 178.559 283.596 178.632 283.61L179.279 283.689C179.884 283.773 180.714 283.889 181.77 284.037C183.976 284.366 187.114 284.835 191.015 285.417C198.906 286.638 209.871 288.336 222.348 290.267L222.055 290.478C222.571 287.344 223.108 284.084 223.656 280.753C226.124 265.977 228.358 252.605 229.983 242.879C230.812 238.067 231.486 234.159 231.959 231.412C232.199 230.09 232.387 229.048 232.523 228.298C232.588 227.968 232.64 227.702 232.682 227.491C232.649 227.479 232.622 227.455 232.606 227.424C232.589 227.392 232.585 227.356 232.594 227.322C232.603 227.288 232.624 227.259 232.654 227.24C232.683 227.22 232.719 227.213 232.754 227.219C232.788 227.224 232.82 227.243 232.842 227.27C232.863 227.298 232.874 227.333 232.872 227.368C232.87 227.403 232.854 227.436 232.829 227.46C232.803 227.485 232.77 227.499 232.735 227.5C232.706 227.713 232.671 227.981 232.626 228.315C232.514 229.069 232.358 230.116 232.159 231.445C231.725 234.198 231.107 238.115 230.346 242.939C228.76 252.671 226.579 266.053 224.17 280.838C223.619 284.168 223.079 287.428 222.561 290.561L222.519 290.813L222.268 290.773C209.802 288.772 198.847 287.013 190.963 285.748C187.072 285.102 183.942 284.582 181.741 284.216C180.692 284.032 179.866 283.887 179.264 283.781C179.006 283.731 178.796 283.69 178.625 283.657C178.551 283.648 178.479 283.628 178.41 283.599Z" fill="#263238"/>
<path d="M284.441 251.315C284.441 254.575 282.086 257.218 279.18 257.218C276.274 257.218 273.918 254.575 273.918 251.315C273.918 248.055 276.274 245.412 279.18 245.412C282.086 245.412 284.441 248.055 284.441 251.315Z" fill="#FAFAFA"/>
<path d="M161.076 87.7598C163.191 90.8894 165.331 94.0702 166.514 97.6569C167.698 101.244 167.821 105.353 165.985 108.653C164.456 111.399 161.639 113.543 161.167 116.651C160.364 121.938 166.715 125.854 167.168 131.183C167.426 134.219 165.691 137.064 163.724 139.392C161.757 141.72 159.452 143.846 158.171 146.612C156.891 149.378 156.965 153.096 159.331 155.017C156.409 154.2 153.386 157.295 150.506 156.339C148.055 155.526 147.408 152.423 147.162 149.852C146.562 150.619 146.151 151.515 145.961 152.47C145.771 153.425 145.807 154.41 146.068 155.348C143.887 153.043 142.476 150.118 142.028 146.977C141.581 143.835 142.119 140.632 143.57 137.81C145.317 134.572 148.347 131.7 148.301 128.021C148.25 123.993 144.506 120.977 143.449 117.091C142.724 114.429 143.324 111.595 144.128 108.956C144.931 106.317 145.945 103.691 146.056 100.935C146.166 98.1787 145.917 97.0737 143.55 95.6584" fill="#263238"/>
<path d="M153.724 154.443C153.649 154.443 153.575 154.431 153.504 154.408C153.288 154.367 153.078 154.299 152.879 154.207C152.098 153.86 151.438 153.289 150.983 152.566C150.249 151.427 149.883 150.09 149.935 148.735C150.074 146.953 150.707 145.244 151.763 143.8C152.838 142.154 154.329 140.603 155.718 138.816C157.07 137.043 158.435 134.88 158.429 132.355C158.446 129.827 157.064 127.406 155.518 125.129C153.969 122.849 152.15 120.411 151.607 117.371C151.334 115.865 151.556 114.311 152.24 112.942C152.935 111.671 153.815 110.509 154.851 109.496C155.827 108.548 156.737 107.534 157.576 106.461C158.367 105.454 158.904 104.271 159.139 103.012C159.304 101.814 159.029 100.597 158.364 99.5869C157.709 98.6188 156.985 97.6997 156.196 96.8368C154.744 95.2236 153.802 93.2174 153.487 91.0701C153.227 89.3039 153.427 87.5007 154.067 85.8342C154.55 84.586 155.265 83.44 156.172 82.456C156.742 81.837 157.387 81.2923 158.093 80.8348C158.275 80.7146 158.463 80.6045 158.657 80.5052C158.72 80.4644 158.789 80.4336 158.861 80.4141C157.929 81.0335 157.077 81.7648 156.323 82.5914C155.463 83.5762 154.791 84.71 154.339 85.9367C153.748 87.5608 153.58 89.3087 153.851 91.0158C154.179 93.0859 155.109 95.0135 156.526 96.5581C157.337 97.4314 158.082 98.3637 158.754 99.3472C159.482 100.447 159.788 101.773 159.614 103.08C159.374 104.419 158.813 105.68 157.978 106.754C157.131 107.847 156.21 108.881 155.221 109.848C154.223 110.826 153.375 111.946 152.704 113.172C152.069 114.444 151.865 115.888 152.121 117.286C152.63 120.156 154.382 122.548 155.942 124.844C156.734 125.983 157.427 127.186 158.015 128.442C158.587 129.669 158.892 131.003 158.909 132.357C158.889 133.647 158.576 134.916 157.993 136.068C157.458 137.138 156.81 138.149 156.059 139.081C154.629 140.886 153.141 142.404 152.068 144.005C151.031 145.387 150.393 147.027 150.225 148.746C150.154 150.048 150.477 151.341 151.153 152.456C151.575 153.164 152.189 153.738 152.923 154.112C153.427 154.369 153.735 154.406 153.724 154.443Z" fill="#455A64"/>
<path d="M223.886 245.709C220.999 243.114 224.242 240.089 219.023 235.161C215.126 231.482 207.736 225.172 193.426 220.395L184.465 236.405L200.064 241.441L199.913 251.618C199.906 252.115 199.998 252.609 200.185 253.069C200.371 253.53 200.648 253.949 200.999 254.301C201.35 254.653 201.768 254.931 202.229 255.119C202.689 255.307 203.182 255.401 203.679 255.395L211.779 255.298C211.779 255.298 209.416 265.288 209.807 265.901C210.022 266.237 210.326 266.507 210.686 266.68C211.045 266.852 211.446 266.921 211.843 266.879C212.239 266.836 212.616 266.683 212.931 266.438C213.246 266.193 213.485 265.864 213.624 265.49C213.942 264.143 220.608 248.002 220.608 248.002C220.608 248.002 224.962 251.762 225.58 249.612C225.58 249.612 226.773 248.303 223.886 245.709Z" fill="#B78876"/>
<path d="M202.1 255.64C202.066 255.582 202.478 255.337 203.013 254.809C203.704 254.118 204.23 253.279 204.551 252.356C204.872 251.433 204.981 250.45 204.869 249.479C204.78 249.076 204.714 248.669 204.669 248.26C204.926 248.603 205.089 249.008 205.142 249.434C205.339 250.453 205.263 251.505 204.922 252.485C204.581 253.465 203.986 254.338 203.2 255.014C202.894 255.315 202.514 255.531 202.1 255.64Z" fill="#AA6550"/>
<path d="M207.305 255.305C208.04 254.384 208.571 253.318 208.865 252.177C209.158 251.036 209.206 249.846 209.006 248.686C209.208 248.986 209.328 249.334 209.356 249.695C209.499 250.553 209.461 251.432 209.245 252.275C209.028 253.118 208.638 253.906 208.098 254.589C207.677 255.104 207.335 255.339 207.305 255.305Z" fill="#AA6550"/>
<path d="M213.582 249.445C213.629 249.439 213.732 249.769 213.744 250.323C213.746 251.049 213.6 251.767 213.316 252.435C213.031 253.103 212.614 253.705 212.089 254.207C211.681 254.582 211.372 254.736 211.344 254.698C212.719 253.288 213.518 251.414 213.582 249.445Z" fill="#AA6550"/>
<path d="M425.913 202.672C426.812 199.555 428.738 196.542 431.717 195.258C434.815 193.923 438.404 194.683 441.575 195.835C444.747 196.987 447.861 198.529 451.228 198.737C454.596 198.945 458.397 197.348 459.405 194.128C460.353 191.101 458.528 187.873 456.243 185.673C453.829 183.35 450.87 181.672 447.637 180.794C444.405 179.916 441.003 179.865 437.746 180.647C434.489 181.429 431.481 183.018 428.999 185.268C426.518 187.519 424.643 190.357 423.547 193.523" fill="#E8505B"/>
<g opacity="0.5">
<path d="M425.913 202.672C426.812 199.555 428.738 196.542 431.717 195.258C434.815 193.923 438.404 194.683 441.575 195.835C444.747 196.987 447.861 198.529 451.228 198.737C454.596 198.945 458.397 197.348 459.405 194.128C460.353 191.101 458.528 187.873 456.243 185.673C453.829 183.35 450.87 181.672 447.637 180.794C444.405 179.916 441.003 179.865 437.746 180.647C434.489 181.429 431.481 183.018 428.999 185.268C426.518 187.519 424.643 190.357 423.547 193.523" fill="black"/>
</g>
<path d="M399.232 216.201C394.291 211.507 394.538 203.337 397.002 196.983C399.467 190.629 404.846 185.751 410.854 182.535C416.72 179.455 423.207 177.743 429.829 177.529C436.451 177.314 443.035 178.602 449.088 181.296C446.124 181.424 443.237 182.276 440.679 183.778C438.121 185.28 435.971 187.386 434.415 189.912C431.708 194.409 431.106 199.866 428.869 204.615C426.347 209.969 421.87 214.154 416.357 216.309C410.845 218.464 404.716 218.425 399.232 216.201Z" fill="#E8505B"/>
<path d="M396.855 188.001C391.385 181.544 390.656 171.178 391.462 162.754C392.268 154.33 394.22 145.852 392.892 137.494C392.104 132.543 390.183 127.815 389.534 122.844C388.885 117.872 389.805 112.25 393.657 109.042C398.085 105.353 405.057 106.223 409.662 109.686C414.268 113.149 416.936 118.59 418.886 124.012C423.171 135.925 424.744 149.135 421.224 161.296C417.704 173.457 409.446 184.33 397.33 188.001" fill="#E8505B"/>
<path d="M394.23 240.981C394.203 240.734 394.196 240.485 394.21 240.237C394.216 239.749 394.21 239.029 394.25 238.103C394.32 236.251 394.499 233.572 394.913 230.282C395.4 226.429 396.102 222.606 397.015 218.83C398.15 214.195 399.908 209.734 402.241 205.571C404.583 201.413 407.454 197.575 410.781 194.154C413.49 191.359 416.492 188.863 419.734 186.709C421.101 185.764 422.422 185.047 423.56 184.382C424.727 183.77 425.745 183.267 426.579 182.864C427.404 182.517 428.06 182.242 428.548 182.037C428.772 181.931 429.006 181.845 429.245 181.777C429.034 181.909 428.813 182.024 428.583 182.121C428.106 182.344 427.463 182.645 426.655 183.023C425.835 183.449 424.833 183.973 423.683 184.603C422.563 185.286 421.26 186.018 419.913 186.975C412.787 191.84 406.876 198.278 402.636 205.792C397.607 214.59 396.229 223.841 395.23 230.325C394.776 233.599 394.55 236.267 394.426 238.112C394.374 239.004 394.332 239.713 394.301 240.239C394.297 240.488 394.274 240.736 394.23 240.981Z" fill="#263238"/>
<path d="M347.049 162.529C336.928 168.637 336.959 174.195 338.65 179.441C340.34 184.687 346.552 188.331 351.701 186.367C354.612 185.257 356.721 182.726 358.522 180.184C360.323 177.641 362.016 174.92 364.54 173.094C367.064 171.267 370.723 170.569 373.259 172.379" fill="#E8505B"/>
<g opacity="0.5">
<path d="M347.049 162.529C336.928 168.637 336.959 174.195 338.65 179.441C340.34 184.687 346.552 188.331 351.701 186.367C354.612 185.257 356.721 182.726 358.522 180.184C360.323 177.641 362.016 174.92 364.54 173.094C367.064 171.267 370.723 170.569 373.259 172.379" fill="black"/>
</g>
<path d="M339.473 169.224C342.119 165.568 348.656 164.509 352.785 166.333C356.913 168.158 359.937 171.777 362.644 175.388C365.35 179 367.985 182.815 371.734 185.327C375.483 187.84 380.72 188.751 384.457 186.219C385.648 185.331 386.646 184.209 387.389 182.922C388.132 181.636 388.605 180.211 388.779 178.735C389.109 175.782 388.907 172.793 388.184 169.91C387.292 165.666 385.833 161.233 382.437 158.536C378.651 155.53 373.398 155.388 368.567 155.546C363.023 155.728 357.397 156.143 352.194 158.065C346.991 159.987 341.681 164.136 339.473 169.224Z" fill="#E8505B"/>
<path d="M385.819 232.876C385.8 232.804 385.791 232.729 385.792 232.654L385.757 232.001C385.736 231.391 385.707 230.551 385.67 229.489C385.606 227.27 385.516 224.123 385.405 220.251C385.282 216.351 385.123 211.708 384.842 206.559C384.553 201.412 384.172 195.751 383.391 189.86C383.06 186.992 382.499 184.156 381.714 181.378C380.909 178.815 379.87 176.331 378.612 173.957C377.485 171.802 376.176 169.747 374.699 167.815C373.402 166.14 371.973 164.572 370.427 163.124C368.168 161.041 365.615 159.301 362.851 157.96C362.357 157.734 361.926 157.511 361.538 157.354C361.157 157.206 360.828 157.078 360.55 156.97C360.304 156.871 360.105 156.79 359.944 156.725C359.873 156.702 359.805 156.669 359.742 156.627C359.816 156.635 359.889 156.653 359.959 156.681L360.581 156.884C360.864 156.981 361.199 157.096 361.589 157.229C361.984 157.374 362.422 157.585 362.926 157.8C365.743 159.091 368.345 160.807 370.642 162.887C372.218 164.333 373.674 165.904 374.996 167.585C376.5 169.525 377.833 171.592 378.981 173.762C380.262 176.154 381.319 178.659 382.137 181.246C382.936 184.046 383.505 186.906 383.839 189.799C384.623 195.713 384.992 201.383 385.259 206.537C385.517 211.693 385.643 216.34 385.725 220.242C385.804 224.145 385.835 227.303 385.846 229.486C385.847 230.549 385.848 231.389 385.849 231.999C385.844 232.264 385.841 232.479 385.838 232.653C385.842 232.728 385.835 232.803 385.819 232.876Z" fill="#263238"/>
<path d="M389.46 237.447C388.979 236.029 388.608 234.576 388.351 233.101C387.65 229.07 387.494 224.963 387.887 220.89C388.507 214.859 389.801 208.917 391.744 203.174C393.821 196.662 396.641 189.699 399.05 182.214C400.238 178.579 401.208 174.876 401.956 171.125C402.625 167.627 403.104 164.095 403.392 160.544C403.852 154.524 403.959 148.483 403.714 142.45C403.539 137.296 403.265 133.128 403.094 130.248C403.011 128.83 402.945 127.717 402.899 126.93C402.882 126.57 402.869 126.285 402.858 126.067C402.849 125.969 402.849 125.87 402.86 125.771C402.885 125.867 402.9 125.965 402.904 126.063C402.926 126.281 402.954 126.565 402.99 126.924C403.056 127.709 403.15 128.82 403.27 130.236C403.495 133.113 403.818 137.278 404.034 142.438C404.326 148.484 404.25 154.542 403.807 160.578C403.53 164.145 403.058 167.695 402.391 171.21C401.646 174.979 400.674 178.7 399.481 182.352C397.064 189.861 394.234 196.816 392.141 203.302C390.188 209.013 388.869 214.921 388.206 220.919C387.787 224.967 387.894 229.051 388.525 233.071C388.773 234.488 389.001 235.585 389.201 236.317C389.286 236.667 389.353 236.944 389.405 237.157C389.433 237.251 389.451 237.349 389.46 237.447Z" fill="#263238"/>
<path d="M414.552 242.021H367.03L365.945 232.875H414.552V242.021Z" fill="#455A64"/>
<path d="M372.129 240.98L378.071 268.42H403.893L409.452 240.98H372.129Z" fill="#455A64"/>
<path d="M414.551 242.022C414.551 242.147 404.103 242.219 391.217 242.183C378.328 242.147 367.882 242.016 367.883 241.891C367.883 241.766 378.329 241.694 391.219 241.73C404.104 241.766 414.551 241.897 414.551 242.022Z" fill="#455A64"/>
<path d="M406.396 255.565C405.105 254.596 403.7 253.79 402.211 253.166C400.588 252.528 398.865 252.182 397.122 252.144C394.984 252.15 392.865 252.539 390.865 253.292C388.699 254.025 386.676 254.877 384.706 255.347C382.956 255.725 381.152 255.779 379.383 255.507C378.191 255.336 377.035 254.97 375.962 254.424C375.675 254.27 375.399 254.094 375.137 253.9C374.959 253.765 374.87 253.689 374.88 253.676C374.905 253.64 375.285 253.912 376.04 254.266C377.118 254.739 378.26 255.05 379.428 255.19C381.158 255.41 382.913 255.326 384.613 254.94C386.515 254.465 388.538 253.603 390.72 252.863C392.77 252.093 394.943 251.708 397.133 251.727C398.921 251.785 400.684 252.172 402.332 252.869C403.44 253.331 404.482 253.939 405.429 254.676C405.688 254.873 405.934 255.086 406.167 255.313C406.328 255.467 406.406 255.553 406.396 255.565Z" fill="#263238"/>
<path d="M406.036 257.397C404.79 256.459 403.441 255.665 402.017 255.031C400.457 254.393 398.793 254.05 397.109 254.019C395.043 254.026 392.995 254.394 391.057 255.108C388.963 255.808 386.999 256.62 385.122 257.125C383.462 257.605 381.732 257.799 380.007 257.699C378.84 257.629 377.699 257.324 376.654 256.802C376.374 256.654 376.107 256.485 375.855 256.296C375.682 256.166 375.597 256.092 375.606 256.079C375.632 256.042 375.999 256.307 376.73 256.643C377.774 257.09 378.892 257.339 380.027 257.38C381.713 257.431 383.396 257.21 385.01 256.723C386.847 256.206 388.797 255.387 390.914 254.679C392.901 253.948 395.003 253.583 397.119 253.602C398.851 253.653 400.556 254.038 402.141 254.736C403.204 255.202 404.202 255.805 405.108 256.531C405.356 256.724 405.592 256.932 405.816 257.152C405.971 257.302 406.046 257.386 406.036 257.397Z" fill="white"/>
<path d="M406.868 253.747C405.533 252.746 404.092 251.897 402.57 251.215C400.915 250.502 399.151 250.078 397.354 249.961C395.148 249.914 392.954 250.301 390.897 251.098C388.814 251.915 386.684 252.61 384.521 253.181C382.702 253.496 380.843 253.5 379.024 253.19C377.797 252.997 376.607 252.62 375.493 252.073C375.194 251.917 374.907 251.739 374.636 251.54C374.451 251.403 374.359 251.325 374.368 251.312C374.393 251.275 374.786 251.556 375.569 251.914C376.689 252.389 377.867 252.712 379.073 252.874C380.856 253.131 382.669 253.097 384.441 252.771C386.579 252.18 388.686 251.478 390.752 250.67C392.863 249.853 395.117 249.47 397.379 249.544C400.467 249.794 403.417 250.936 405.869 252.83C406.135 253.035 406.389 253.254 406.63 253.488C406.796 253.647 406.878 253.736 406.868 253.747Z" fill="white"/>
<path d="M414.972 242.06C414.972 242.185 404.282 242.287 391.099 242.287C377.91 242.287 367.223 242.185 367.223 242.06C367.223 241.935 377.91 241.834 391.099 241.834C404.282 241.834 414.972 241.935 414.972 242.06Z" fill="#263238"/>
</svg>
