<?xml version="1.0" encoding="utf-8"?>
<!-- Generator: Adobe Illustrator 23.0.5, SVG Export Plug-In . SVG Version: 6.00 Build 0)  -->
<svg version="1.1" id="Layer_1" xmlns="http://www.w3.org/2000/svg" xmlns:xlink="http://www.w3.org/1999/xlink" x="0px" y="0px"
	 viewBox="0 0 30 30" style="enable-background:new 0 0 30 30;" xml:space="preserve">
<path d="M22,11.9H7.5c-0.9,0-1.7,0.4-2.3,1c-0.6,0.6-1,1.5-1,2.3v9.7c0,0.9,0.4,1.7,1,2.3c0.6,0.6,1.5,1,2.3,1H22
	c0.9,0,1.7-0.4,2.3-1c0.6-0.6,1-1.5,1-2.3v-9.7c0-0.9-0.4-1.7-1-2.3C23.7,12.3,22.9,11.9,22,11.9z M13.5,21.2
	c0.1,0.1,0.2,0.2,0.2,0.3c0,0.1,0.1,0.2,0.1,0.4c0,0.1,0,0.2-0.1,0.4c0,0.1-0.1,0.2-0.2,0.3c-0.1,0.1-0.2,0.2-0.3,0.2
	c-0.1,0-0.2,0.1-0.4,0.1c-0.1,0-0.2,0-0.4-0.1c-0.1,0-0.2-0.1-0.3-0.2l-1.1-1.1L10,22.4c-0.1,0.1-0.2,0.2-0.3,0.2
	c-0.1,0-0.2,0.1-0.4,0.1c-0.1,0-0.2,0-0.4-0.1c-0.1,0-0.2-0.1-0.3-0.2c-0.1-0.1-0.2-0.2-0.2-0.3c0-0.1-0.1-0.2-0.1-0.4
	c0-0.1,0-0.2,0.1-0.4c0-0.1,0.1-0.2,0.2-0.3l1.1-1.1L8.8,19c-0.1-0.1-0.2-0.2-0.2-0.3c0-0.1-0.1-0.2-0.1-0.4c0-0.1,0-0.2,0.1-0.4
	c0-0.1,0.1-0.2,0.2-0.3c0.1-0.1,0.2-0.2,0.3-0.2c0.1,0,0.2-0.1,0.4-0.1c0.1,0,0.2,0,0.4,0.1c0.1,0,0.2,0.1,0.3,0.2l1.1,1.1l1.1-1.1
	c0.1-0.1,0.2-0.2,0.3-0.2c0.1,0,0.2-0.1,0.4-0.1c0.1,0,0.2,0,0.4,0.1c0.1,0,0.2,0.1,0.3,0.2c0.1,0.1,0.2,0.2,0.2,0.3
	c0,0.1,0.1,0.2,0.1,0.4c0,0.1,0,0.2-0.1,0.4c0,0.1-0.1,0.2-0.2,0.3l-1.1,1.1L13.5,21.2z M20.7,21.2c0.1,0.1,0.2,0.2,0.2,0.3
	c0,0.1,0.1,0.2,0.1,0.4c0,0.1,0,0.2-0.1,0.4c0,0.1-0.1,0.2-0.2,0.3c-0.1,0.1-0.2,0.2-0.3,0.2c-0.1,0-0.2,0.1-0.4,0.1
	c-0.1,0-0.2,0-0.4-0.1c-0.1,0-0.2-0.1-0.3-0.2l-1.1-1.1l-1.1,1.1c-0.1,0.1-0.2,0.2-0.3,0.2c-0.1,0-0.2,0.1-0.4,0.1
	c-0.1,0-0.2,0-0.4-0.1c-0.1,0-0.2-0.1-0.3-0.2c-0.1-0.1-0.2-0.2-0.2-0.3c0-0.1-0.1-0.2-0.1-0.4c0-0.1,0-0.2,0.1-0.4
	c0-0.1,0.1-0.2,0.2-0.3l1.1-1.1L16,19c-0.1-0.1-0.2-0.2-0.2-0.3c0-0.1-0.1-0.2-0.1-0.4c0-0.1,0-0.2,0.1-0.4c0-0.1,0.1-0.2,0.2-0.3
	c0.1-0.1,0.2-0.2,0.3-0.2c0.1,0,0.2-0.1,0.4-0.1c0.1,0,0.2,0,0.4,0.1c0.1,0,0.2,0.1,0.3,0.2l1.1,1.1l1.1-1.1
	c0.1-0.1,0.2-0.2,0.3-0.2c0.1,0,0.2-0.1,0.4-0.1c0.1,0,0.2,0,0.4,0.1c0.1,0,0.2,0.1,0.3,0.2c0.1,0.1,0.2,0.2,0.2,0.3
	c0,0.1,0.1,0.2,0.1,0.4c0,0.1,0,0.2-0.1,0.4c0,0.1-0.1,0.2-0.2,0.3l-1.1,1.1L20.7,21.2z"/>
<path d="M19.6,13.7H9.9c-0.2,0-0.5-0.1-0.6-0.3C9.1,13.3,9,13.1,9,12.8V8c0-1.5,0.6-3,1.7-4.1c1.1-1.1,2.5-1.7,4.1-1.7
	c1.5,0,3,0.6,4.1,1.7C19.9,5,20.5,6.5,20.5,8v4.8c0,0.2-0.1,0.5-0.3,0.6C20,13.6,19.8,13.7,19.6,13.7z M10.8,11.9h7.9V8
	c0-1-0.4-2-1.2-2.8s-1.7-1.2-2.8-1.2c-1,0-2,0.4-2.8,1.2C11.2,6,10.8,7,10.8,8V11.9z"/>
</svg>
