<?xml version="1.0" encoding="utf-8"?>
<!-- Generator: Adobe Illustrator 23.0.5, SVG Export Plug-In . SVG Version: 6.00 Build 0)  -->
<svg version="1.1" id="Layer_1" xmlns="http://www.w3.org/2000/svg" xmlns:xlink="http://www.w3.org/1999/xlink" x="0px" y="0px"
	 viewBox="0 0 31 31" style="enable-background:new 0 0 31 31;" xml:space="preserve">
<style type="text/css">
	.st0{clip-path:url(#SVGID_2_);}
	.st1{fill:#F2F2F2;}
	.st2{fill:#F14336;}
	.st3{fill:#D32E2A;}
</style>
<g>
	<defs>
		<rect id="SVGID_1_" x="0.5" y="1" width="30" height="30"/>
	</defs>
	<clipPath id="SVGID_2_">
		<use xlink:href="#SVGID_1_"  style="overflow:visible;"/>
	</clipPath>
	<g class="st0">
		<path class="st1" d="M28.9,8.2L27,27.4H4L2.5,8.6l13,7.3L28.9,8.2z"/>
		<path class="st1" d="M28.3,4.6l-12.8,12L2.7,4.6h12.8H28.3z"/>
		<path class="st2" d="M4,10.1v17.3H1.9c-0.8,0-1.4-0.6-1.4-1.4V7.6l2.3,0.1L4,10.1z"/>
		<path class="st3" d="M30.5,7.6V26c0,0.8-0.6,1.4-1.4,1.4H27V10.1l1.2-2.7L30.5,7.6z"/>
		<path class="st2" d="M30.5,6v1.6L27,10.1l-11.5,8.4L4,10.1L0.5,7.6V6c0-0.8,0.6-1.4,1.4-1.4h0.8l12.8,9.3l12.8-9.3h0.8
			C29.9,4.6,30.5,5.2,30.5,6z"/>
		<path class="st3" d="M4,10.1L0.5,9.6v-2L4,10.1z"/>
	</g>
</g>
</svg>
