<?xml version="1.0" encoding="utf-8"?>
<!-- Generator: Adobe Illustrator 23.0.5, SVG Export Plug-In . SVG Version: 6.00 Build 0)  -->
<svg version="1.1" id="Layer_1" xmlns="http://www.w3.org/2000/svg" xmlns:xlink="http://www.w3.org/1999/xlink" x="0px" y="0px"
	 viewBox="0 0 18 23" style="enable-background:new 0 0 18 23;" xml:space="preserve">
<style type="text/css">
	.st0{fill:none;stroke:#808D9E;stroke-width:1.5;stroke-linecap:round;stroke-linejoin:round;}
</style>
<path class="st0" d="M17,6.3v10c0,4-1,5-5,5H6c-4,0-5-1-5-5v-10c0-4,1-5,5-5h6C16,1.3,17,2.3,17,6.3z"/>
<path class="st0" d="M11,4.8H7"/>
<path class="st0" d="M9,18.4c0.9,0,1.6-0.7,1.6-1.5c0-0.9-0.7-1.6-1.6-1.6c-0.9,0-1.6,0.7-1.6,1.6C7.5,17.7,8.1,18.4,9,18.4z"/>
</svg>
