<?xml version="1.0" encoding="utf-8"?>
<!-- Generator: Adobe Illustrator 23.0.5, SVG Export Plug-In . SVG Version: 6.00 Build 0)  -->
<svg version="1.1" id="Layer_1" xmlns="http://www.w3.org/2000/svg" xmlns:xlink="http://www.w3.org/1999/xlink" x="0px" y="0px"
	 viewBox="0 0 25 26" style="enable-background:new 0 0 25 26;" xml:space="preserve">
<style type="text/css">
	.st0{fill-rule:evenodd;clip-rule:evenodd;fill:#808D9E;}
</style>
<path class="st0" d="M12.5,3.3c-2.6,0-4.7,2.1-4.7,4.7c0,2.6,2.1,4.7,4.7,4.7c2.6,0,4.7-2.1,4.7-4.7C17.2,5.4,15.1,3.3,12.5,3.3z
	 M9.4,7.9c0-1.7,1.4-3.1,3.1-3.1c1.7,0,3.1,1.4,3.1,3.1c0,1.7-1.4,3.1-3.1,3.1C10.8,11.1,9.4,9.7,9.4,7.9z M12.5,13.4
	c-3.6,0-5.8,1.1-7.1,2.7c-1.3,1.6-1.6,3.5-1.6,4.8c0,1.6,1.4,2.6,2.8,2.6h11.7c1.4,0,2.8-1,2.8-2.6c0-1.3-0.3-3.2-1.6-4.8
	C18.3,14.5,16.1,13.4,12.5,13.4z M5.4,21c0-1.2,0.2-2.7,1.2-3.8C7.5,16,9.2,15,12.5,15c3.3,0,5,1,5.9,2.1c1,1.2,1.2,2.7,1.2,3.8
	c0,0.6-0.5,1.1-1.2,1.1H6.6C5.9,22,5.4,21.5,5.4,21z"/>
</svg>
