<svg width="328" height="228" viewBox="0 0 328 228" fill="none" xmlns="http://www.w3.org/2000/svg">
<path fill-rule="evenodd" clip-rule="evenodd" d="M60.3394 35.6543C60.3394 33.847 61.8044 32.3818 63.6118 32.3818H95.518C97.3252 32.3818 98.7904 33.847 98.7904 35.6543V223.819C98.7904 225.626 97.3252 227.092 95.518 227.092H63.6118C61.8044 227.092 60.3394 225.626 60.3394 223.819V35.6543ZM63.6118 34.0181C62.7081 34.0181 61.9755 34.7507 61.9755 35.6543V223.819C61.9755 224.722 62.7081 225.455 63.6118 225.455H95.518C96.4215 225.455 97.1541 224.722 97.1541 223.819V35.6543C97.1541 34.7507 96.4215 34.0181 95.518 34.0181H63.6118Z" fill="#F1F1F1"/>
<path d="M232.96 35.6545C232.96 34.299 234.058 33.2002 235.414 33.2002H281.228C282.584 33.2002 283.682 34.299 283.682 35.6545V93.7118C283.682 95.0679 282.584 96.1661 281.228 96.1661H235.414C234.058 96.1661 232.96 95.0679 232.96 93.7118V35.6545Z" fill="#F1F1F1"/>
<path d="M240.827 43.5251C240.827 42.1696 241.926 41.0708 243.281 41.0708H273.355C274.71 41.0708 275.809 42.1696 275.809 43.5251V85.841C275.809 87.196 274.71 88.2953 273.355 88.2953H243.281C241.926 88.2953 240.827 87.196 240.827 85.841V43.5251Z" fill="white"/>
<path d="M269.277 60.3105L256.573 71.0736V88.295H273.358C274.713 88.295 275.812 87.1969 275.812 85.8407V65.3334L269.277 60.3105Z" fill="#F1F1F1"/>
<path d="M253.581 59.4355L240.827 70.536V85.8408C240.827 87.1958 241.926 88.2951 243.281 88.2951H273.355C274.71 88.2951 275.809 87.1958 275.809 85.8408V78.3048L253.581 59.4355Z" fill="#F1F1F1"/>
<path d="M265.317 53.752C265.317 55.9255 263.554 57.6876 261.381 57.6876C259.207 57.6876 257.445 55.9255 257.445 53.752C257.445 51.5785 259.207 49.8164 261.381 49.8164C263.554 49.8164 265.317 51.5785 265.317 53.752Z" fill="#F1F1F1"/>
<path fill-rule="evenodd" clip-rule="evenodd" d="M68.8779 144.098C85.8262 174.87 91.7101 210.217 92.6539 225.914L94.2871 225.816C93.3337 209.958 87.4103 174.354 70.3111 143.309L68.8779 144.098Z" fill="#F15846"/>
<path d="M68.0534 133.417C70.5177 137.919 70.438 141.693 69.846 144.08C60.1339 138.23 60.4635 130.879 61.3321 126.586C63.446 127.45 65.5276 128.803 68.0534 133.417Z" fill="#F15846"/>
<path d="M66.7464 154.116C69.9712 155.352 71.7597 156.618 75.6007 156.034C69.0891 147.576 61.6921 146.539 58.7793 146.931C59.2567 148.88 60.8837 151.873 66.7464 154.116Z" fill="#F15846"/>
<path d="M75.162 154.964C77.9515 153.567 82.7577 147.805 79.6675 135.933C77.3181 137.309 73.1279 143.044 75.162 154.964Z" fill="#F15846"/>
<path d="M81.6611 171.319C78.5987 172.987 70.3675 174.133 61.9409 165.366C64.4997 164.031 72.0261 163.353 81.6611 171.319Z" fill="#F15846"/>
<path d="M81.2251 170.25C85.1039 168.855 92.1785 162.332 89.4473 147.393C86.0247 150.842 79.5888 160.241 81.2251 170.25Z" fill="#F15846"/>
<path d="M86.0251 186.914C83.212 189.506 74.5265 191.389 62.2891 178.188C66.7735 177.569 77.799 178.449 86.0251 186.914Z" fill="#F15846"/>
<path d="M90.5691 206.471C87.0867 208.6 77.438 210.287 66.7021 200.006C70.9173 198.026 81.5921 196.546 90.5691 206.471Z" fill="#F15846"/>
<path fill-rule="evenodd" clip-rule="evenodd" d="M46.5601 167.82C66.5041 185.415 82.2462 209.636 91.4093 226.662L92.8501 225.887C83.6427 208.778 67.7916 184.369 47.6425 166.594L46.5601 167.82Z" fill="#F15846"/>
<path d="M41.3148 156.392C45.6379 159.389 47.2161 165.031 47.4648 167.478C34.2629 165.775 29.6987 156.683 29.0669 152.349C31.3483 152.448 36.9917 153.396 41.3148 156.392Z" fill="#F15846"/>
<path d="M44.1468 180.267C51.5088 181.007 55.7276 178.254 56.9168 176.786C42.9434 171.57 34.2311 172.969 31.6216 174.321C32.7291 175.995 36.7848 179.527 44.1468 180.267Z" fill="#F15846"/>
<path d="M56.1453 175.928C58.299 173.67 60.8769 166.623 53.9592 156.491C52.2128 158.581 50.2052 165.394 56.1453 175.928Z" fill="#F15846"/>
<path d="M67.7844 189.127C65.4655 191.732 58.1046 195.59 47.2124 190.183C49.1701 188.063 56.0254 184.882 67.7844 189.127Z" fill="#F15846"/>
<path d="M67.011 188.267C70.1909 185.645 74.6468 177.116 67.0315 163.977C64.9747 168.378 62.0909 179.399 67.011 188.267Z" fill="#F15846"/>
<path d="M77.1599 202.333C75.3871 205.722 67.8475 210.427 51.8711 202.133C55.8834 200.037 66.5583 197.143 77.1599 202.333Z" fill="#F15846"/>
<path d="M77.0661 201.7C79.6581 199.486 83.9185 192.281 80.2246 181.161C77.9806 183.539 74.2074 190.976 77.0661 201.7Z" fill="#F15846"/>
<path d="M88.0381 219.206C85.4792 222.385 76.9671 227.232 63.3901 221.18C66.6889 217.892 76.2369 212.895 88.0381 219.206Z" fill="#F15846"/>
<path d="M86.5171 12.7479C86.5171 6.42235 91.645 1.29443 97.9706 1.29443H196.962C203.287 1.29443 208.415 6.42235 208.415 12.7479V214.821C208.415 221.145 203.287 226.274 196.962 226.274H97.9706C91.645 226.274 86.5171 221.145 86.5171 214.821V12.7479Z" fill="#F1F1F1"/>
<path fill-rule="evenodd" clip-rule="evenodd" d="M85.6978 12.7477C85.6978 5.97023 91.192 0.476074 97.9694 0.476074H196.96C203.738 0.476074 209.232 5.97023 209.232 12.7477V214.82C209.232 221.598 203.738 227.092 196.96 227.092H97.9694C91.192 227.092 85.6978 221.598 85.6978 214.82V12.7477ZM97.9694 2.11235C92.0956 2.11235 87.334 6.87391 87.334 12.7477V214.82C87.334 220.694 92.0956 225.455 97.9694 225.455H196.96C202.834 225.455 207.596 220.694 207.596 214.82V12.7477C207.596 6.87391 202.834 2.11235 196.96 2.11235H97.9694Z" fill="#3E3D3D"/>
<path d="M90.6094 13.5658C90.6094 9.0475 94.2721 5.38477 98.7904 5.38477H196.145C200.664 5.38477 204.326 9.0475 204.326 13.5658V208.275C204.326 212.794 200.664 216.456 196.145 216.456H98.7904C94.2721 216.456 90.6094 212.794 90.6094 208.275V13.5658Z" fill="white"/>
<path d="M123.331 5.38477H174.054L172.507 9.75147C171.697 12.0377 169.535 13.5658 167.109 13.5658H130.277C127.851 13.5658 125.689 12.0377 124.879 9.75147L123.331 5.38477Z" fill="#F1F1F1"/>
<path fill-rule="evenodd" clip-rule="evenodd" d="M133.574 64.2452C136.346 59.1995 141.712 55.7798 147.876 55.7798C154.039 55.7798 159.404 59.1995 162.177 64.2452C162.168 64.255 162.16 64.2659 162.151 64.2757C158.7 68.2907 153.584 70.8332 147.876 70.8332C142.152 70.8332 137.025 68.2777 133.574 64.2452Z" fill="#F1F1F1"/>
<path d="M155.159 45.6439C155.159 47.3811 154.496 48.9696 153.402 50.1918C152.065 51.6807 150.085 52.6244 147.876 52.6244C143.853 52.6244 140.591 49.4985 140.591 45.6439C140.591 41.7888 143.853 38.6636 147.876 38.6636C151.899 38.6636 155.159 41.7888 155.159 45.6439Z" fill="#F1F1F1"/>
<path fill-rule="evenodd" clip-rule="evenodd" d="M147.877 34.0181C137.937 34.0181 129.879 42.0763 129.879 52.0167C129.879 61.9569 137.937 70.0153 147.877 70.0153C153.338 70.0153 158.23 67.5838 161.532 63.7429C164.24 60.5921 165.876 56.4965 165.876 52.0167C165.876 42.0763 157.817 34.0181 147.877 34.0181ZM128.243 52.0167C128.243 41.1726 137.032 32.3818 147.877 32.3818C158.721 32.3818 167.512 41.1726 167.512 52.0167C167.512 56.9024 165.725 61.3735 162.773 64.8085C159.173 68.9966 153.835 71.6511 147.877 71.6511C137.032 71.6511 128.243 62.8603 128.243 52.0167Z" fill="#F1F1F1"/>
<path fill-rule="evenodd" clip-rule="evenodd" d="M187.964 92.1042H107.79V90.4673H187.964V92.1042Z" fill="#F1F1F1"/>
<path fill-rule="evenodd" clip-rule="evenodd" d="M187.964 191.095H107.79V189.459H187.964V191.095Z" fill="#F1F1F1"/>
<path fill-rule="evenodd" clip-rule="evenodd" d="M162.603 202.548H107.79V200.912H162.603V202.548Z" fill="#F1F1F1"/>
<path fill-rule="evenodd" clip-rule="evenodd" d="M129.059 101.103H106.97V97.8301H129.059V101.103Z" fill="#F15846"/>
<path fill-rule="evenodd" clip-rule="evenodd" d="M129.059 133.827H106.97V130.555H129.059V133.827Z" fill="#F15846"/>
<path d="M106.153 109.284C106.153 107.928 107.252 106.83 108.608 106.83H187.964C189.319 106.83 190.419 107.928 190.419 109.284V118.283C190.419 119.639 189.319 120.737 187.964 120.737H108.608C107.252 120.737 106.153 119.639 106.153 118.283V109.284Z" fill="#F1F1F1"/>
<path d="M106.153 141.191C106.153 139.836 107.252 138.737 108.608 138.737H187.964C189.319 138.737 190.419 139.836 190.419 141.191V150.19C190.419 151.546 189.319 152.644 187.964 152.644H108.608C107.252 152.644 106.153 151.546 106.153 150.19V141.191Z" fill="#F1F1F1"/>
<path d="M126.606 167.371C126.606 166.015 127.704 164.917 129.06 164.917H167.511C168.867 164.917 169.965 166.015 169.965 167.371V176.37C169.965 177.725 168.867 178.824 167.511 178.824H129.06C127.704 178.824 126.606 177.725 126.606 176.37V167.371Z" fill="#F15846"/>
<path d="M209.258 112.175C208.93 116.102 211.576 119.538 212.94 120.766H222.756L242.799 109.311C243.754 109.311 246.4 108.576 249.345 105.631C252.29 102.685 250.571 96.7678 249.345 94.1775C251.117 91.45 253.19 84.6868 247.3 79.4506C241.409 74.2144 235.3 77.2694 232.982 79.4506C232.028 78.36 229.055 76.4238 224.802 77.4055C220.547 78.3872 219.211 82.4501 219.075 84.3592C217.711 82.4501 213.675 80.1058 208.44 85.9961C203.204 91.8864 206.258 98.2676 208.44 100.722C203.858 105.303 207.076 110.266 209.258 112.175Z" fill="#3E3D3D"/>
<path d="M212.939 120.357L210.077 133.856C209.394 136.718 207.949 142.855 207.622 144.49C207.213 146.537 215.393 146.945 217.848 146.537C220.302 146.127 233.801 144.9 234.62 144.49C235.274 144.164 235.71 138.082 235.846 135.082L233.801 126.084C241.982 121.829 242.937 110.403 242.392 105.222C236.174 103.586 236.529 97.9947 237.483 95.4044C236.255 95.2683 233.229 95.0768 230.938 95.4044C228.074 95.8136 228.483 97.4495 225.62 98.6772C222.756 99.9038 221.939 95.8136 221.53 96.6321C221.12 97.4495 219.075 113.403 217.848 112.175C216.866 111.194 216.621 107.131 216.621 105.222C215.393 103.722 212.612 101.622 211.303 105.222C209.994 108.821 212.394 112.721 213.757 114.22L212.939 120.357Z" fill="#EFCB96"/>
<path fill-rule="evenodd" clip-rule="evenodd" d="M208.031 128.129C208.304 132.083 211.794 139.991 223.575 139.991C235.356 139.991 238.301 132.083 238.301 128.129C247.573 126.629 269.39 129.928 282.478 155.126C292.407 174.237 296.531 187.497 297.883 194.691C298.386 195.806 298.718 196.809 298.841 197.668C300.069 206.258 293.523 216.893 284.934 215.257C282.164 214.729 278.948 210.11 275.835 203.926L274.298 204.212L275.934 225.893H180.624C178.954 216.877 177.538 205.245 177.199 193.169C167.126 155.126 182.294 129.766 208.031 128.129Z" fill="#E21B22"/>
<path d="M248.528 144.9L250.165 163.717H253.846L267.755 142.036L266.527 141.219L248.528 144.9Z" fill="#F1F1F1"/>
<path d="M250.163 146.127L251.798 167.807H262.843L269.388 157.171L267.752 142.036L250.163 146.127Z" fill="#F1F1F1"/>
<path d="M243.618 176.398L237.482 180.897L244.845 191.123C244.845 190.714 245.663 189.16 248.935 186.215C253.026 182.533 253.026 185.396 260.798 177.624C268.57 169.852 263.661 160.444 260.798 162.08C258.508 163.389 252.208 163.308 250.162 163.717L249.754 157.581L248.935 157.99C244.681 161.263 243.618 171.625 243.618 176.398Z" fill="#EFCB96"/>
<path d="M266.934 172.306L267.751 173.534L270.615 172.715L273.478 171.08C273.206 170.397 276.178 169.934 275.523 168.625C274.706 166.988 276.751 161.261 276.342 157.58C275.932 153.898 271.024 151.036 268.57 151.444C266.115 151.853 265.706 154.717 264.07 162.08C262.761 167.97 265.434 171.352 266.934 172.306Z" fill="#EFCB96"/>
<path fill-rule="evenodd" clip-rule="evenodd" d="M203.614 180.246C201.304 175.554 199.346 170.048 198.247 166.408L199.814 165.934C200.896 169.52 202.824 174.936 205.082 179.524C206.213 181.819 207.41 183.875 208.607 185.386C209.837 186.938 210.932 187.74 211.819 187.858C212.864 187.997 214.518 187.733 216.616 187.124C218.679 186.524 221.062 185.622 223.51 184.582C228.403 182.503 233.49 179.898 236.677 178.136L237.34 177.769L247.481 193.2L247.134 193.661C243.146 198.956 236.26 206.566 228.536 212.206C220.868 217.804 212.098 221.66 204.478 218.889C197.117 216.213 190.878 211.21 186.08 206.081C181.281 200.951 177.881 195.65 176.209 192.307L177.673 191.575C179.274 194.777 182.583 199.948 187.275 204.964C191.967 209.979 197.999 214.793 205.037 217.351C211.815 219.817 219.953 216.447 227.57 210.884C234.912 205.524 241.514 198.312 245.48 193.134L236.804 179.933C233.566 181.696 228.779 184.121 224.149 186.088C221.671 187.141 219.222 188.07 217.072 188.695C214.955 189.311 213.013 189.667 211.604 189.48C210.036 189.271 208.592 188.001 207.325 186.402C206.025 184.761 204.768 182.589 203.614 180.246Z" fill="#3E3D3D"/>
<path fill-rule="evenodd" clip-rule="evenodd" d="M276.012 165.893L276.927 166.825C280.486 170.453 285.886 176.325 290.523 182.157C292.841 185.073 294.98 187.992 296.605 190.626C298.213 193.232 299.379 195.654 299.65 197.553L298.031 197.784C297.811 196.245 296.806 194.071 295.212 191.485C293.635 188.928 291.54 186.065 289.242 183.175C284.993 177.831 280.09 172.445 276.584 168.818C275.447 170.8 273.422 172.208 271.375 173.179C269.351 174.138 267.19 174.724 265.538 175.018C267.891 182.67 271.963 194.246 276.258 202.942L274.791 203.667C270.265 194.506 266.011 182.248 263.697 174.589L263.417 173.66L264.379 173.541C265.945 173.345 268.415 172.771 270.674 171.7C272.958 170.619 274.864 169.108 275.572 167.124L276.012 165.893Z" fill="#3E3D3D"/>
<path d="M115.153 114.193C115.153 115.097 114.42 115.829 113.517 115.829C112.612 115.829 111.88 115.097 111.88 114.193C111.88 113.29 112.612 112.558 113.517 112.558C114.42 112.558 115.153 113.29 115.153 114.193Z" fill="white"/>
<path d="M124.151 114.193C124.151 115.097 123.419 115.829 122.515 115.829C121.612 115.829 120.879 115.097 120.879 114.193C120.879 113.29 121.612 112.558 122.515 112.558C123.419 112.558 124.151 113.29 124.151 114.193Z" fill="white"/>
<path d="M133.147 114.193C133.147 115.097 132.414 115.829 131.511 115.829C130.607 115.829 129.875 115.097 129.875 114.193C129.875 113.29 130.607 112.558 131.511 112.558C132.414 112.558 133.147 113.29 133.147 114.193Z" fill="white"/>
<path d="M142.15 114.193C142.15 115.097 141.417 115.829 140.513 115.829C139.609 115.829 138.877 115.097 138.877 114.193C138.877 113.29 139.609 112.558 140.513 112.558C141.417 112.558 142.15 113.29 142.15 114.193Z" fill="white"/>
<path d="M151.149 114.193C151.149 115.097 150.416 115.829 149.512 115.829C148.609 115.829 147.876 115.097 147.876 114.193C147.876 113.29 148.609 112.558 149.512 112.558C150.416 112.558 151.149 113.29 151.149 114.193Z" fill="white"/>
<path d="M160.147 114.193C160.147 115.097 159.414 115.829 158.511 115.829C157.606 115.829 156.874 115.097 156.874 114.193C156.874 113.29 157.606 112.558 158.511 112.558C159.414 112.558 160.147 113.29 160.147 114.193Z" fill="white"/>
<path d="M169.148 114.193C169.148 115.097 168.415 115.829 167.512 115.829C166.608 115.829 165.876 115.097 165.876 114.193C165.876 113.29 166.608 112.558 167.512 112.558C168.415 112.558 169.148 113.29 169.148 114.193Z" fill="white"/>
<path d="M115.153 146.099C115.153 147.003 114.42 147.735 113.517 147.735C112.612 147.735 111.88 147.003 111.88 146.099C111.88 145.196 112.612 144.463 113.517 144.463C114.42 144.463 115.153 145.196 115.153 146.099Z" fill="white"/>
<path d="M124.151 146.099C124.151 147.003 123.419 147.735 122.515 147.735C121.612 147.735 120.879 147.003 120.879 146.099C120.879 145.196 121.612 144.463 122.515 144.463C123.419 144.463 124.151 145.196 124.151 146.099Z" fill="white"/>
<path d="M133.147 146.099C133.147 147.003 132.414 147.735 131.511 147.735C130.607 147.735 129.875 147.003 129.875 146.099C129.875 145.196 130.607 144.463 131.511 144.463C132.414 144.463 133.147 145.196 133.147 146.099Z" fill="white"/>
<path d="M142.15 146.099C142.15 147.003 141.417 147.735 140.513 147.735C139.609 147.735 138.877 147.003 138.877 146.099C138.877 145.196 139.609 144.463 140.513 144.463C141.417 144.463 142.15 145.196 142.15 146.099Z" fill="white"/>
<path d="M151.149 146.099C151.149 147.003 150.416 147.735 149.512 147.735C148.609 147.735 147.876 147.003 147.876 146.099C147.876 145.196 148.609 144.463 149.512 144.463C150.416 144.463 151.149 145.196 151.149 146.099Z" fill="white"/>
<path d="M160.147 146.099C160.147 147.003 159.414 147.735 158.511 147.735C157.606 147.735 156.874 147.003 156.874 146.099C156.874 145.196 157.606 144.463 158.511 144.463C159.414 144.463 160.147 145.196 160.147 146.099Z" fill="white"/>
<path d="M169.148 146.099C169.148 147.003 168.415 147.735 167.512 147.735C166.608 147.735 165.876 147.003 165.876 146.099C165.876 145.196 166.608 144.463 167.512 144.463C168.415 144.463 169.148 145.196 169.148 146.099Z" fill="white"/>
<path fill-rule="evenodd" clip-rule="evenodd" d="M195.327 19.2929H186.327V17.6567H195.327V19.2929ZM195.327 24.2015H186.327V22.5653H195.327V24.2015ZM195.327 29.1102H186.327V27.474H195.327V29.1102Z" fill="#3E3D3D"/>
<path fill-rule="evenodd" clip-rule="evenodd" d="M103.937 17.896L105.094 19.0529L100.764 23.3831L105.094 27.7132L103.937 28.8703L98.4502 23.3831L103.937 17.896Z" fill="#3E3D3D"/>
<path d="M136.639 82.8854C136.639 82.6394 136.551 82.4479 136.376 82.3108C136.203 82.1725 135.898 82.031 135.46 81.8841C135.022 81.7372 134.665 81.5946 134.386 81.4574C133.482 81.0134 133.03 80.4028 133.03 79.6257C133.03 79.2393 133.141 78.8987 133.365 78.6048C133.592 78.3077 133.912 78.078 134.324 77.9148C134.737 77.7482 135.199 77.6655 135.714 77.6655C136.216 77.6655 136.665 77.7548 137.061 77.9344C137.461 78.1128 137.771 78.3686 137.991 78.7006C138.212 79.0304 138.322 79.4069 138.322 79.8325H136.645C136.645 79.5473 136.556 79.3275 136.38 79.1708C136.208 79.014 135.973 78.9357 135.676 78.9357C135.375 78.9357 135.137 79.0032 134.962 79.137C134.789 79.2676 134.703 79.4363 134.703 79.6399C134.703 79.8194 134.799 79.9827 134.99 80.1296C135.182 80.2733 135.519 80.4235 136.001 80.5802C136.485 80.7337 136.881 80.8991 137.191 81.0787C137.945 81.513 138.322 82.1127 138.322 82.8756C138.322 83.4862 138.092 83.9662 137.632 84.3145C137.171 84.6627 136.54 84.8369 135.738 84.8369C135.172 84.8369 134.659 84.7357 134.199 84.5343C133.742 84.3297 133.397 84.0522 133.164 83.7006C132.934 83.3458 132.819 82.9387 132.819 82.4784H134.506C134.506 82.8517 134.602 83.1281 134.793 83.3077C134.989 83.4829 135.304 83.5711 135.738 83.5711C136.017 83.5711 136.235 83.5123 136.395 83.3937C136.557 83.2718 136.639 83.1031 136.639 82.8854Z" fill="#3E3D3D"/>
<path d="M140.814 84.7418H139.195V79.5546H140.814V84.7418ZM139.099 78.217C139.099 77.9873 139.182 77.799 139.348 77.6521C139.514 77.5052 139.729 77.4312 139.995 77.4312C140.26 77.4312 140.476 77.5052 140.642 77.6521C140.808 77.799 140.892 77.9873 140.892 78.217C140.892 78.4477 140.808 78.636 140.642 78.7829C140.476 78.9299 140.26 79.0039 139.995 79.0039C139.729 79.0039 139.514 78.9299 139.348 78.7829C139.182 78.636 139.099 78.4477 139.099 78.217Z" fill="#3E3D3D"/>
<path d="M141.625 82.1093C141.625 81.5847 141.711 81.1211 141.883 80.7184C142.056 80.3157 142.304 80.0066 142.626 79.7889C142.95 79.5679 143.325 79.458 143.753 79.458C144.293 79.458 144.715 79.6398 145.019 80.0044L145.076 79.5538H146.542V84.544C146.542 85.0011 146.436 85.3973 146.221 85.7325C146.011 86.0721 145.704 86.3301 145.302 86.5096C144.899 86.6914 144.432 86.7828 143.902 86.7828C143.521 86.7828 143.152 86.711 142.794 86.5673C142.439 86.4237 142.168 86.2365 141.98 86.0057L142.656 85.0567C142.956 85.4115 143.352 85.5889 143.844 85.5889C144.56 85.5889 144.917 85.2221 144.917 84.4863V84.3231C144.608 84.6659 144.216 84.8368 143.743 84.8368C143.111 84.8368 142.599 84.5952 142.209 84.113C141.82 83.6265 141.625 82.9778 141.625 82.167V82.1093ZM143.245 82.2094C143.245 82.635 143.325 82.9713 143.485 83.2206C143.644 83.4676 143.868 83.5906 144.155 83.5906C144.504 83.5906 144.758 83.4731 144.917 83.2401V81.059C144.762 80.8228 144.51 80.7042 144.165 80.7042C143.878 80.7042 143.653 80.8337 143.489 81.0928C143.326 81.3485 143.245 81.7208 143.245 82.2094Z" fill="#3E3D3D"/>
<path d="M148.943 79.5538L148.995 80.1633C149.353 79.6931 149.847 79.458 150.476 79.458C151.017 79.458 151.42 79.6191 151.684 79.9423C151.953 80.2645 152.093 80.751 152.102 81.3997V84.741H150.482V81.4672C150.482 81.2049 150.428 81.0133 150.323 80.8914C150.218 80.7662 150.026 80.7042 149.748 80.7042C149.431 80.7042 149.196 80.8294 149.044 81.0786V84.741H147.428V79.5538H148.943Z" fill="#3E3D3D"/>
<path d="M157.153 84.7418H155.533V79.5546H157.153V84.7418ZM155.438 78.217C155.438 77.9873 155.52 77.799 155.687 77.6521C155.852 77.5052 156.068 77.4312 156.333 77.4312C156.599 77.4312 156.814 77.5052 156.981 77.6521C157.146 77.799 157.23 77.9873 157.23 78.217C157.23 78.4477 157.146 78.636 156.981 78.7829C156.814 78.9299 156.599 79.0039 156.333 79.0039C156.068 79.0039 155.852 78.9299 155.687 78.7829C155.52 78.636 155.438 78.4477 155.438 78.217Z" fill="#3E3D3D"/>
<path d="M159.635 79.5538L159.687 80.1633C160.045 79.6931 160.539 79.458 161.168 79.458C161.708 79.458 162.111 79.6191 162.376 79.9423C162.645 80.2645 162.783 80.751 162.793 81.3997V84.741H161.173V81.4672C161.173 81.2049 161.12 81.0133 161.015 80.8914C160.909 80.7662 160.718 80.7042 160.44 80.7042C160.123 80.7042 159.888 80.8294 159.735 81.0786V84.741H158.12V79.5538H159.635Z" fill="#3E3D3D"/>
<path fill-rule="evenodd" clip-rule="evenodd" d="M45.4734 56.4774C45.4734 49.8862 49.9943 45.3786 54.6128 45.3786C59.1443 45.3786 63.5819 49.7175 63.7474 56.1074H70.2001C70.0277 47.0254 63.5314 38.9272 54.6128 38.9272C45.5732 38.9272 39.022 47.2466 39.022 56.4774C39.022 56.7038 39.0301 65.5284 39.0572 65.9855C39.1875 68.1775 39.7015 70.1954 40.97 71.754C42.3081 73.3974 44.0844 74.0483 45.6944 74.2823C47.2072 74.5021 48.8476 74.3922 50.2411 74.2834C50.4836 74.2638 50.7232 74.2442 50.9604 74.2246H50.9607C52.1989 74.1245 53.3767 74.0287 54.6128 74.0287C55.4452 74.0287 56.2513 74.0722 57.0671 74.131V62.568H45.4844C45.4831 62.1033 45.4819 61.6178 45.4808 61.1313C45.4759 58.886 45.4734 56.6418 45.4734 56.4774Z" fill="#3E3D3D"/>
<path d="M35.7939 62.8869C35.7939 61.5308 36.8928 60.4326 38.2482 60.4326H70.9725C72.328 60.4326 73.4269 61.5308 73.4269 62.8869V88.0841C73.4269 89.4402 72.328 90.5384 70.9725 90.5384H38.2482C36.8928 90.5384 35.7939 89.4402 35.7939 88.0841V62.8869Z" fill="#E21B22"/>
<path fill-rule="evenodd" clip-rule="evenodd" d="M57.2869 76.8294C58.591 75.9631 59.4505 74.4807 59.4505 72.797C59.4505 70.125 57.2843 67.958 54.612 67.958C51.9398 67.958 49.7734 70.125 49.7734 72.797C49.7734 74.4807 50.633 75.9631 51.9371 76.8294C51.9284 76.9176 51.924 77.0068 51.924 77.0972V80.3231C51.924 81.8077 53.1274 83.0114 54.6121 83.0114C56.0966 83.0114 57.3 81.8077 57.3 80.3231V77.0972C57.3 77.0068 57.2956 76.9176 57.2869 76.8294Z" fill="#3E3D3D"/>
<path fill-rule="evenodd" clip-rule="evenodd" d="M0.616699 226.274C0.616699 225.822 0.982979 225.456 1.43481 225.456H326.632C327.084 225.456 327.451 225.822 327.451 226.274C327.451 226.726 327.084 227.092 326.632 227.092H1.43481C0.982979 227.092 0.616699 226.726 0.616699 226.274Z" fill="#3E3D3D"/>
</svg>
