<svg width="401" height="262" viewBox="0 0 401 262" fill="none" xmlns="http://www.w3.org/2000/svg">
<path fill-rule="evenodd" clip-rule="evenodd" d="M168.656 38.8883C168.656 36.6742 170.451 34.8794 172.664 34.8794H298.946C301.159 34.8794 302.955 36.6742 302.955 38.8882V257.375C302.955 259.588 301.159 261.383 298.946 261.383H172.664C170.451 261.383 168.656 259.588 168.656 257.375V38.8883ZM172.664 36.8838C171.558 36.8838 170.66 37.7813 170.66 38.8883V257.375C170.66 258.481 171.558 259.379 172.664 259.379H298.946C300.052 259.379 300.95 258.481 300.95 257.375V38.8882C300.95 37.7813 300.052 36.8838 298.946 36.8838H172.664Z" fill="#F1F1F1"/>
<path fill-rule="evenodd" clip-rule="evenodd" d="M258.856 222.296H210.749V252.299C207.779 253.775 205.737 256.839 205.737 260.382H210.749H258.856H264.869C264.869 256.454 262.359 253.112 258.856 251.875V222.296Z" fill="#3E3D3D"/>
<path fill-rule="evenodd" clip-rule="evenodd" d="M209.746 221.293H259.858V251.193C263.397 252.739 265.871 256.269 265.871 260.381V261.383H204.735V260.381C204.735 256.669 206.753 253.431 209.746 251.7V221.293ZM211.75 223.299V252.92L211.194 253.196C208.837 254.368 207.141 256.663 206.802 259.379H263.805C263.425 256.331 261.334 253.813 258.522 252.819L257.853 252.583V223.299H211.75Z" fill="#3E3D3D"/>
<path fill-rule="evenodd" clip-rule="evenodd" d="M347.052 194.233V217.285C347.052 220.607 344.36 223.299 341.038 223.299H129.568C126.247 223.299 123.555 220.607 123.555 217.285V194.233H347.052Z" fill="white"/>
<path fill-rule="evenodd" clip-rule="evenodd" d="M122.553 193.232H348.055V217.285C348.055 221.16 344.913 224.3 341.039 224.3H129.568C125.694 224.3 122.553 221.16 122.553 217.285V193.232ZM124.557 195.236V217.285C124.557 220.052 126.801 222.296 129.568 222.296H341.039C343.807 222.296 346.049 220.052 346.049 217.285V195.236H124.557Z" fill="#3E3D3D"/>
<path fill-rule="evenodd" clip-rule="evenodd" d="M129.568 54.9243C126.247 54.9243 123.555 57.6163 123.555 60.9376V194.234H347.052V60.9376C347.052 57.6163 344.36 54.9243 341.038 54.9243H129.568Z" fill="#F1F1F1"/>
<path fill-rule="evenodd" clip-rule="evenodd" d="M129.568 55.9267C126.801 55.9267 124.557 58.1694 124.557 60.9374V193.232H346.05V60.9374C346.05 58.1694 343.806 55.9267 341.039 55.9267H129.568ZM122.553 60.9374C122.553 57.0627 125.694 53.9214 129.568 53.9214H341.039C344.913 53.9214 348.054 57.0627 348.054 60.9374V195.236H122.553V60.9374Z" fill="#3E3D3D"/>
<path d="M132.575 67.9535C132.575 66.2921 133.921 64.9468 135.581 64.9468H336.028C337.688 64.9468 339.035 66.2921 339.035 67.9535V184.212C339.035 185.872 337.688 187.219 336.028 187.219H135.581C133.921 187.219 132.575 185.872 132.575 184.212V67.9535Z" fill="white"/>
<path fill-rule="evenodd" clip-rule="evenodd" d="M226.5 97.0165C228.38 93.5965 232.017 91.2778 236.196 91.2778C240.375 91.2778 244.012 93.5965 245.891 97.0165C245.885 97.0245 245.879 97.0312 245.873 97.0378C243.533 99.7592 240.067 101.483 236.196 101.483C232.315 101.483 228.84 99.7512 226.5 97.0165Z" fill="#F1F1F1"/>
<path d="M241.134 84.4072C241.134 85.5845 240.686 86.6618 239.943 87.4898C239.036 88.4992 237.695 89.1392 236.196 89.1392C233.468 89.1392 231.258 87.0205 231.258 84.4072C231.258 81.7925 233.468 79.6738 236.196 79.6738C238.923 79.6738 241.134 81.7925 241.134 84.4072Z" fill="#F1F1F1"/>
<path fill-rule="evenodd" clip-rule="evenodd" d="M236.197 76.9731C229.705 76.9731 224.442 82.2358 224.442 88.7264C224.442 95.2184 229.705 100.481 236.197 100.481C239.762 100.481 242.957 98.8944 245.114 96.3851C246.884 94.3278 247.95 91.6531 247.95 88.7264C247.95 82.2358 242.689 76.9731 236.197 76.9731ZM222.438 88.7264C222.438 81.1278 228.598 74.9678 236.197 74.9678C243.796 74.9678 249.956 81.1278 249.956 88.7264C249.956 92.1504 248.704 95.2838 246.634 97.6918C244.113 100.625 240.372 102.486 236.197 102.486C228.598 102.486 222.438 96.3264 222.438 88.7264Z" fill="#F1F1F1"/>
<path fill-rule="evenodd" clip-rule="evenodd" d="M263.033 116.312H208.913V114.308H263.033V116.312Z" fill="#F1F1F1"/>
<path fill-rule="evenodd" clip-rule="evenodd" d="M222.944 123.328H208.913V119.319H222.944V123.328Z" fill="#F15846"/>
<path fill-rule="evenodd" clip-rule="evenodd" d="M249.001 109.297H222.943V105.288H249.001V109.297Z" fill="#F15846"/>
<path fill-rule="evenodd" clip-rule="evenodd" d="M222.944 145.377H208.913V141.368H222.944V145.377Z" fill="#F15846"/>
<path d="M207.911 129.342C207.911 127.682 209.258 126.335 210.918 126.335H262.031C263.692 126.335 265.038 127.682 265.038 129.342V132.348C265.038 134.008 263.692 135.355 262.031 135.355H210.918C209.258 135.355 207.911 134.008 207.911 132.348V129.342Z" fill="#F1F1F1"/>
<path d="M207.911 150.388C207.911 148.728 209.258 147.381 210.918 147.381H262.031C263.692 147.381 265.038 148.728 265.038 150.388V154.397C265.038 156.057 263.692 157.404 262.031 157.404H210.918C209.258 157.404 207.911 156.057 207.911 154.397V150.388Z" fill="#F1F1F1"/>
<path d="M221.941 168.428C221.941 166.768 223.288 165.421 224.948 165.421H248C249.66 165.421 251.007 166.768 251.007 168.428V171.435C251.007 173.096 249.66 174.441 248 174.441H224.948C223.288 174.441 221.941 173.096 221.941 171.435V168.428Z" fill="#F15846"/>
<path d="M214.012 130.879C214.012 131.491 213.514 131.988 212.902 131.988C212.289 131.988 211.793 131.491 211.793 130.879C211.793 130.266 212.289 129.77 212.902 129.77C213.514 129.77 214.012 130.266 214.012 130.879Z" fill="#F15846"/>
<path d="M220.113 130.879C220.113 131.491 219.617 131.988 219.004 131.988C218.392 131.988 217.895 131.491 217.895 130.879C217.895 130.266 218.392 129.77 219.004 129.77C219.617 129.77 220.113 130.266 220.113 130.879Z" fill="#F15846"/>
<path d="M226.214 130.879C226.214 131.491 225.718 131.988 225.104 131.988C224.492 131.988 223.995 131.491 223.995 130.879C223.995 130.266 224.492 129.77 225.104 129.77C225.718 129.77 226.214 130.266 226.214 130.879Z" fill="#F15846"/>
<path d="M232.313 130.879C232.313 131.491 231.816 131.988 231.204 131.988C230.592 131.988 230.095 131.491 230.095 130.879C230.095 130.266 230.592 129.77 231.204 129.77C231.816 129.77 232.313 130.266 232.313 130.879Z" fill="#F15846"/>
<path d="M238.414 130.879C238.414 131.491 237.918 131.988 237.305 131.988C236.693 131.988 236.195 131.491 236.195 130.879C236.195 130.266 236.693 129.77 237.305 129.77C237.918 129.77 238.414 130.266 238.414 130.879Z" fill="#F15846"/>
<path d="M244.517 130.879C244.517 131.491 244.021 131.988 243.407 131.988C242.795 131.988 242.298 131.491 242.298 130.879C242.298 130.266 242.795 129.77 243.407 129.77C244.021 129.77 244.517 130.266 244.517 130.879Z" fill="#F15846"/>
<path d="M250.615 130.879C250.615 131.491 250.118 131.988 249.506 131.988C248.892 131.988 248.396 131.491 248.396 130.879C248.396 130.266 248.892 129.77 249.506 129.77C250.118 129.77 250.615 130.266 250.615 130.879Z" fill="#F15846"/>
<path d="M214.012 152.51C214.012 153.123 213.514 153.619 212.902 153.619C212.289 153.619 211.793 153.123 211.793 152.51C211.793 151.898 212.289 151.4 212.902 151.4C213.514 151.4 214.012 151.898 214.012 152.51Z" fill="#F15846"/>
<path d="M220.113 152.51C220.113 153.123 219.617 153.619 219.004 153.619C218.392 153.619 217.895 153.123 217.895 152.51C217.895 151.898 218.392 151.4 219.004 151.4C219.617 151.4 220.113 151.898 220.113 152.51Z" fill="#F15846"/>
<path d="M226.214 152.51C226.214 153.123 225.718 153.619 225.104 153.619C224.492 153.619 223.995 153.123 223.995 152.51C223.995 151.898 224.492 151.4 225.104 151.4C225.718 151.4 226.214 151.898 226.214 152.51Z" fill="#F15846"/>
<path d="M232.313 152.51C232.313 153.123 231.816 153.619 231.204 153.619C230.592 153.619 230.095 153.123 230.095 152.51C230.095 151.898 230.592 151.4 231.204 151.4C231.816 151.4 232.313 151.898 232.313 152.51Z" fill="#F15846"/>
<path d="M238.414 152.51C238.414 153.123 237.918 153.619 237.305 153.619C236.693 153.619 236.195 153.123 236.195 152.51C236.195 151.898 236.693 151.4 237.305 151.4C237.918 151.4 238.414 151.898 238.414 152.51Z" fill="#F15846"/>
<path d="M244.517 152.51C244.517 153.123 244.021 153.619 243.407 153.619C242.795 153.619 242.298 153.123 242.298 152.51C242.298 151.898 242.795 151.4 243.407 151.4C244.021 151.4 244.517 151.898 244.517 152.51Z" fill="#F15846"/>
<path d="M250.615 152.51C250.615 153.123 250.118 153.619 249.506 153.619C248.892 153.619 248.396 153.123 248.396 152.51C248.396 151.898 248.892 151.4 249.506 151.4C250.118 151.4 250.615 151.898 250.615 152.51Z" fill="#F15846"/>
<path d="M95.8247 77.9764C91.8158 81.183 85.8025 82.987 83.2969 83.4884C83.631 87.6644 84.9005 95.715 87.3058 94.5124C89.7111 93.3097 96.6599 90.3364 99.8337 89.0004C100.168 83.9897 99.8337 74.7684 95.8247 77.9764Z" fill="#EFCB96"/>
<path d="M98.8311 66.9499C94.0203 70.1579 96.8266 84.3219 98.8311 91.0046L104.343 97.5192L125.891 108.543L138.92 91.0046C140.924 81.4832 141.727 61.2379 128.898 56.4272C116.07 51.6165 108.853 59.4339 106.849 63.9432C106.181 63.6099 103.642 63.7432 98.8311 66.9499Z" fill="#3E3D3D"/>
<path d="M108.853 111.049L107.851 125.08L120.88 134.1C126.058 132.096 136.115 127.485 134.912 125.08C133.709 122.676 132.74 114.724 132.406 111.049C135.613 107.843 136.415 100.693 136.415 97.5187C141.927 91.0054 137.919 84.9907 136.415 85.4921C135.212 85.8934 134.243 90.6707 133.909 93.0094C133.575 89.0001 132.506 80.4814 130.902 78.4761C129.299 76.4721 127.896 79.9801 127.395 81.9841C126.893 81.1494 125.49 79.0774 123.887 77.4747C121.882 75.4694 111.86 75.9707 107.851 79.4787C104.644 82.2854 103.842 90.6707 103.842 94.5121L102.339 86.9961C101.671 85.8267 100.034 84.6907 98.8311 89.5014C97.6284 94.3121 100.668 96.8507 102.339 97.5187C102.74 103.132 106.849 108.877 108.853 111.049Z" fill="#EFCB96"/>
<path d="M75.2794 162.664C79.2883 189.523 77.952 235.492 76.2816 260.882H168.486L174 246.35H186.526C188.13 237.53 188.03 214.612 188.03 199.246C186.026 174.19 183.02 142.619 172.496 132.596C164.978 125.438 145.937 122.742 135.914 121.071C134.244 123.911 128.899 129.59 120.881 129.59C112.863 129.59 107.852 123.911 106.348 121.071C105.513 121.406 102.139 122.174 95.324 122.575C86.805 123.075 72.7738 121.071 68.7649 120.068C63.879 118.847 54.7337 117.062 57.7403 115.058C60.1458 113.454 79.1213 101.695 88.3084 96.0149L84.2994 81.4829C73.2749 84.4896 48.6201 91.6056 38.1969 96.0149C25.1679 101.528 24.6667 110.548 25.669 117.062C26.6713 123.576 49.2214 144.623 57.7403 149.635C64.5556 153.643 72.2727 159.991 75.2794 162.664Z" fill="#E21B22"/>
<path d="M172.164 251.36C170.124 254.421 167.217 257.219 165.464 258.709C164.982 259.12 164.781 259.78 164.981 260.38H169.658L170.661 259.379L170.41 260.38H183.888C184.734 255.352 185.313 248.639 185.694 246.349L173.668 245.848L172.164 251.36Z" fill="#EFCB96"/>
<path fill-rule="evenodd" clip-rule="evenodd" d="M160.599 179.623C160.197 175.763 159.811 172.045 159.471 168.265L161.468 168.085C161.805 171.845 162.191 175.551 162.592 179.403C164.191 194.777 166.032 212.489 166.069 245.347H186.527V247.352H164.065V246.349C164.065 212.959 162.213 195.144 160.599 179.623Z" fill="#3E3D3D"/>
<path d="M316.984 73.9671C316.984 71.1991 319.228 68.9551 321.995 68.9551H371.104C373.872 68.9551 376.115 71.1991 376.115 73.9671V123.076C376.115 125.843 373.872 128.087 371.104 128.087H321.995C319.228 128.087 316.984 125.843 316.984 123.076V73.9671Z" fill="#F1F1F1"/>
<path d="M91.2432 27.7688C89.7316 28.3476 87.997 27.5987 87.6282 26.0225C87.3922 25.0141 87.2825 24.1055 87.299 23.2965C87.3298 21.7985 87.8245 19.9819 88.7829 17.8465C89.7512 15.6887 90.3172 14.2021 90.4812 13.3869C90.7368 12.1415 90.6416 10.9364 90.1956 9.77133C89.605 8.22907 88.7806 7.1996 87.7224 6.68293C86.6737 6.14386 85.4308 6.14933 83.9936 6.6996C82.6202 7.22533 81.6644 8.05226 81.1258 9.18013C81.0221 9.39693 80.9386 9.61853 80.8753 9.84506C80.4146 11.4935 79.8188 13.3772 78.2202 13.9892C76.6093 14.6059 74.735 13.7856 74.579 12.0677C74.4197 10.314 74.7368 8.664 75.5301 7.11787C76.7833 4.7004 78.9669 2.8956 82.0809 1.70347C85.2906 0.47467 88.1101 0.354668 90.5393 1.34347C92.9845 2.32627 94.7818 4.31893 95.9313 7.32146C96.9553 9.996 96.7498 13.094 95.315 16.6156L93.5089 20.7216C93.1708 21.6695 93.0776 22.742 93.2292 23.9392C93.4306 25.5296 92.7404 27.1956 91.2432 27.7688ZM91.0293 36.6268C90.6586 35.6587 90.6557 34.7663 91.0205 33.9493C91.3789 33.1161 92.061 32.5069 93.0672 32.1217C94.0892 31.7304 95.0149 31.7335 95.8445 32.1308C96.6677 32.5116 97.2584 33.1697 97.6164 34.1049C97.9618 35.0073 97.9634 35.8721 97.6209 36.6993C97.2785 37.5265 96.5802 38.1419 95.5264 38.5453C94.4724 38.9488 93.5418 38.9571 92.7345 38.57C91.9432 38.1769 91.3748 37.5292 91.0293 36.6268Z" fill="#E21B22"/>
<path d="M75.001 42.4882C74.1006 43.3574 72.6397 43.3495 71.9004 42.3396C71.4272 41.6935 71.0741 41.0802 70.841 40.4996C70.4096 39.4244 70.2117 37.9822 70.2474 36.1727C70.2833 34.3443 70.2362 33.1154 70.1061 32.4856C69.911 31.5222 69.4785 30.6934 68.8086 29.9995C67.9217 29.0808 67.0236 28.5979 66.1141 28.5506C65.2049 28.4843 64.3221 28.8644 63.4661 29.6908C62.648 30.4806 62.2181 31.3583 62.1764 32.3238C62.1681 32.5094 62.1758 32.6923 62.1993 32.8727C62.3704 34.1851 62.5165 35.7058 61.5644 36.625C60.6048 37.5514 59.0229 37.535 58.392 36.3598C57.7478 35.1602 57.4741 33.8903 57.5706 32.55C57.7308 30.4506 58.7382 28.5055 60.593 26.7148C62.5049 24.8691 64.4748 23.9304 66.5025 23.8988C68.5397 23.858 70.4217 24.7319 72.1484 26.5204C73.6862 28.1135 74.4777 30.38 74.5226 33.32L74.4802 36.788C74.5265 37.5648 74.7848 38.3562 75.255 39.1622C75.8798 40.2328 75.8929 41.6271 75.001 42.4882ZM77.5297 48.8558C76.973 48.2784 76.7008 47.6451 76.713 46.9531C76.7158 46.2518 77.0169 45.6118 77.6162 45.0331C78.2249 44.4451 78.8846 44.1678 79.595 44.1998C80.2961 44.2211 80.9156 44.5104 81.4533 45.0678C81.9722 45.6051 82.235 46.2198 82.2418 46.9118C82.2485 47.6038 81.9378 48.2531 81.3101 48.8598C80.6824 49.4651 80.0226 49.7531 79.3312 49.7224C78.649 49.6824 78.0486 49.3931 77.5297 48.8558Z" fill="#E21B22"/>
<path d="M114.369 25.5873C113.146 25.3254 112.337 24.1089 112.762 22.9317C113.034 22.1785 113.346 21.5431 113.697 21.0258C114.349 20.0677 115.435 19.0983 116.956 18.1181C118.493 17.1271 119.487 16.4021 119.936 15.9426C120.627 15.243 121.073 14.4215 121.275 13.4783C121.542 12.2297 121.442 11.2149 120.973 10.4339C120.521 9.64245 119.713 9.12232 118.549 8.87325C117.437 8.63539 116.469 8.76859 115.644 9.27285C115.486 9.36965 115.338 9.47806 115.202 9.59833C114.209 10.4729 113.028 11.4429 111.734 11.1659C110.43 10.8869 109.561 9.56512 110.183 8.38578C110.819 7.18165 111.72 6.24565 112.886 5.57765C114.717 4.53859 116.894 4.28885 119.415 4.82832C122.013 5.38445 123.892 6.49485 125.05 8.15965C126.221 9.82725 126.546 11.8765 126.026 14.3074C125.563 16.4727 124.124 18.3946 121.71 20.0729L118.808 21.9735C118.19 22.4455 117.677 23.1015 117.271 23.9415C116.731 25.0575 115.582 25.8466 114.369 25.5873ZM110.498 31.2395C110.666 30.4558 111.04 29.8759 111.62 29.5001C112.204 29.1109 112.903 29.0035 113.718 29.1778C114.545 29.3549 115.144 29.747 115.514 30.3541C115.887 30.9479 115.993 31.6235 115.831 32.3807C115.675 33.1113 115.311 33.6726 114.74 34.0645C114.17 34.4563 113.458 34.561 112.605 34.3785C111.751 34.1958 111.145 33.809 110.784 33.2179C110.437 32.6295 110.342 31.9701 110.498 31.2395Z" fill="#E21B22"/>
<path fill-rule="evenodd" clip-rule="evenodd" d="M347.053 84.7253C343.654 84.7253 340.329 88.0426 340.329 92.892C340.329 93.012 340.33 94.6626 340.334 96.3146C340.334 96.672 340.335 97.0307 340.337 97.372H353.773C353.775 95.256 353.777 92.9973 353.777 92.892C353.777 88.0426 350.45 84.7253 347.053 84.7253ZM358.135 102.091C357.911 102.843 357.575 103.532 357.089 104.131C356.105 105.34 354.798 105.819 353.614 105.991C352.501 106.152 351.294 106.071 350.269 105.991C350.09 105.977 349.914 105.963 349.739 105.948C348.829 105.875 347.962 105.804 347.053 105.804C346.143 105.804 345.277 105.875 344.365 105.948C344.19 105.963 344.014 105.977 343.837 105.991C342.811 106.071 341.603 106.152 340.491 105.991C339.306 105.819 337.999 105.34 337.015 104.131C336.082 102.984 335.703 101.499 335.609 99.8853C335.589 99.5493 335.582 93.0586 335.582 92.892C335.582 86.1 340.402 79.98 347.053 79.98C353.703 79.98 358.522 86.1 358.522 92.892C358.522 93.016 358.521 96.0306 358.517 98.364C358.515 99.5266 358.513 100.531 358.51 100.919C358.51 100.921 358.51 100.927 358.51 100.932C358.51 100.984 358.509 101.129 358.503 101.223C358.502 101.233 358.498 101.307 358.485 101.4C358.474 101.461 358.433 101.657 358.395 101.789C358.361 101.868 358.27 101.975 358.135 102.091Z" fill="#3E3D3D"/>
<path d="M333.208 98.8084C333.208 97.1471 334.555 95.8018 336.215 95.8018H357.888C359.549 95.8018 360.895 97.1471 360.895 98.8084V114.944C360.895 116.604 359.549 117.951 357.888 117.951H336.215C334.555 117.951 333.208 116.604 333.208 114.944V98.8084Z" fill="#E21B22"/>
<path fill-rule="evenodd" clip-rule="evenodd" d="M349.02 107.864C349.979 107.227 350.611 106.136 350.611 104.897C350.611 102.932 349.018 101.337 347.052 101.337C345.086 101.337 343.492 102.932 343.492 104.897C343.492 106.136 344.124 107.227 345.084 107.864C345.078 107.928 345.075 107.995 345.075 108.06V110.433C345.075 111.525 345.96 112.411 347.052 112.411C348.144 112.411 349.03 111.525 349.03 110.433V108.06C349.03 107.995 349.026 107.928 349.02 107.864Z" fill="#3E3D3D"/>
<path d="M356.129 168.065C357.075 178.951 351.395 187.984 348.438 191.139C328.559 175.047 336.211 156.431 342.522 149.133C346.663 150.908 355.182 157.18 356.129 168.065Z" fill="#F1F1F1"/>
<path d="M364.412 205.337C359.207 209.597 350.016 209.873 346.072 209.478C352.226 190.073 367.568 187.194 374.471 188.18C373.287 192.124 369.619 201.077 364.412 205.337Z" fill="#F1F1F1"/>
<path d="M339.564 193.506C344.771 199.186 346.072 205.339 346.072 207.704C327.614 209.598 322.999 197.056 322.999 190.548C326.351 189.167 334.358 187.827 339.564 193.506Z" fill="#F1F1F1"/>
<path fill-rule="evenodd" clip-rule="evenodd" d="M347.612 168.519C349.028 176.011 350.875 185.776 348.236 198.443C346.732 205.663 346.488 216.567 347.067 221.188L345.078 221.436C344.472 216.592 344.726 205.467 346.274 198.035C348.827 185.779 347.056 176.392 345.644 168.907C345.447 167.859 345.256 166.848 345.084 165.872L347.059 165.527C347.227 166.482 347.415 167.478 347.612 168.519Z" fill="white"/>
<path d="M322.999 220.72H367.963L361.455 258.583H330.099L322.999 220.72Z" fill="#F1F1F1"/>
<path fill-rule="evenodd" clip-rule="evenodd" d="M0.280273 260.382C0.280273 259.828 0.728987 259.379 1.2825 259.379H399.669C400.222 259.379 400.67 259.828 400.67 260.382C400.67 260.935 400.222 261.383 399.669 261.383H1.2825C0.728987 261.383 0.280273 260.935 0.280273 260.382Z" fill="#3E3D3D"/>
</svg>
