<svg width="18" height="20" viewBox="0 0 18 20" fill="none" xmlns="http://www.w3.org/2000/svg">
<g clip-path="url(#clip0_1176_1203)">
<path d="M13.1172 7.18994H5.11719C2.90805 7.18994 1.11719 8.9808 1.11719 11.1899V15.1899C1.11719 17.3991 2.90805 19.1899 5.11719 19.1899H13.1172C15.3263 19.1899 17.1172 17.3991 17.1172 15.1899V11.1899C17.1172 8.9808 15.3263 7.18994 13.1172 7.18994Z" stroke="#808D9E" stroke-width="1.5"/>
<path d="M9.11719 14.1899V12.1899" stroke="#808D9E" stroke-width="1.5" stroke-linecap="round" stroke-linejoin="round"/>
<path d="M11.7839 3.33223C12.0207 3.67211 12.4881 3.75569 12.828 3.51893C13.1679 3.28216 13.2515 2.8147 13.0147 2.47483L11.7839 3.33223ZM5.39538 2.23856C5.13801 2.56312 5.19247 3.03486 5.51702 3.29223C5.84158 3.54959 6.31332 3.49513 6.57069 3.17058L5.39538 2.23856ZM5.86719 7.18994V5.18994H4.36719V7.18994H5.86719ZM5.86719 5.18994C5.86719 3.39502 7.32226 1.93994 9.11719 1.93994V0.439942C6.49384 0.439942 4.36719 2.56659 4.36719 5.18994H5.86719ZM13.0147 2.47483C12.4482 1.66164 11.6416 1.046 10.7077 0.714151L10.2054 2.12756C10.8444 2.35462 11.3963 2.77584 11.7839 3.33223L13.0147 2.47483ZM10.7077 0.714151C9.77388 0.382298 8.75963 0.350847 7.80702 0.624204L8.22076 2.06602C8.87254 1.87898 9.5665 1.9005 10.2054 2.12756L10.7077 0.714151ZM7.80702 0.624204C6.85441 0.897562 6.01116 1.46204 5.39538 2.23856L6.57069 3.17058C6.99201 2.63927 7.56897 2.25305 8.22076 2.06602L7.80702 0.624204Z" fill="#808D9E"/>
</g>
<defs>
<clipPath id="clip0_1176_1203">
<rect width="18" height="20" fill="white"/>
</clipPath>
</defs>
</svg>
