<svg id="Layer_1" data-name="Layer 1" xmlns="http://www.w3.org/2000/svg" viewBox="0 0 647 568"><defs><style>.cls-1{fill:#e9eaec;}.cls-2{fill:#d2d8df;}.cls-3{fill:#ebecef;}.cls-3,.cls-4{fill-rule:evenodd;}.cls-4{fill:#d1d9e0;}.cls-5{fill:#f1f2f7;}.cls-6{fill:#d8dbea;}.cls-7{fill:#e21b22;}.cls-8{fill:#fff;}</style></defs><title>no-articles-found</title><path class="cls-1" d="M586.696,316.884q.07655-3.147.076-6.314h-2.459q0,3.1365-.076,6.255Zm-1.829,25.105q.76053-6.2205,1.22-12.53l-2.453-.179q-.45447,6.249-1.20794,12.411Zm-4.276,24.807q1.368-6.12149,2.443-12.351l-2.423-.418q-1.06356,6.168-2.421,12.232Zm-6.702,24.266q1.968-5.961,3.651-12.05l-2.371-.655q-1.665,6.02853-3.616,11.934Zm-9.066,23.486q2.54845-5.742,4.823-11.631l-2.295-.886q-2.25,5.83049-4.777,11.519Zm-11.337,22.478q3.10345-5.46749,5.945-11.099l-2.196-1.108q-2.8125,5.577-5.888,10.993Zm-13.488,21.257q3.627-5.1405,7.005-10.463l-2.077-1.318q-3.34508,5.271-6.938,10.363Zm-15.502,19.836q4.113-4.764,7.994-9.729l-1.938-1.514q-3.843,4.91552-7.917,9.635Zm-17.361,18.23q4.56-4.34249,8.903-8.904l-1.781-1.696q-4.30052,4.51653-8.818,8.818ZM488.08,512.8q4.96353-3.879,9.728-7.993l-1.607-1.862q-4.719,4.074-9.636,7.917Zm-20.57,14.513q5.3205-3.37647,10.462-7.005l-1.418-2.009q-5.091,3.591-10.362,6.937Zm-21.894,12.428q5.631-2.83952,11.1-5.945l-1.214-2.139q-5.41653,3.075-10.993,5.888Zm-23.009,10.215q5.886-2.27252,11.631-4.823l-.998-2.248q-5.688,2.52447-11.519,4.777Zm-23.906,7.894q6.087-1.68147,12.051-3.651l-.771-2.336q-5.90547,1.95006-11.934,3.616Zm-24.566,5.495q6.228-1.07391,12.351-2.444l-.537-2.401q-6.063,1.356-12.232,2.421Zm-24.987,3.053q6.309-.46051,12.53-1.221l-.298-2.441q-6.16048.75294-12.41,1.209Zm-18.888.685q3.165,0,6.314-.077l-.06-2.459q-3.117.07653-6.254.076Zm-6.314-.077q3.147.07655,6.314.077v-2.46q-3.1365,0-6.255-.076Zm-25.105-1.829q6.22051.76053,12.531,1.221l.178-2.454q-6.249-.45447-12.411-1.20795Zm-24.807-4.276q6.12149,1.36955,12.351,2.444l.418-2.42395q-6.168-1.06356-12.232-2.421Zm-24.266-6.702q5.96248,1.968,12.05,3.651l.655-2.371q-6.02847-1.665-11.934-3.616Zm-23.486-9.066q5.74348,2.54845,11.631,4.823l.886-2.294q-5.8305-2.25147-11.519-4.777Zm-22.478-11.337q5.46751,3.105,11.1,5.945l1.107-2.19605q-5.57549-2.8125-10.992-5.888Zm-21.256-13.488q5.139,3.627,10.463,7.005l1.317-2.077q-5.2695-3.3435-10.362-6.93805Zm-19.836-15.501q4.764,4.11149,9.728,7.993l1.515-1.938q-4.91552-3.843-9.635-7.917Zm-18.23-17.362q4.34252,4.56,8.903,8.903l1.697-1.781q-4.5165-4.30047-8.819-8.818ZM128.031,468.39q3.879,4.9635,7.993,9.728l1.862-1.607q-4.074-4.719-7.917-9.636Zm-14.513-20.57q3.3765,5.32048,7.005,10.462l2.01-1.417q-3.5925-5.091-6.938-10.363ZM101.09,425.927q2.8395,5.62948,5.945,11.099l2.139-1.214q-3.075-5.415-5.888-10.993Zm-10.2146-23.01q2.27235,5.886,4.8233,11.631l2.2481-.998q-2.525-5.688-4.7767-11.519Zm-7.8936-23.905q1.681,6.087,3.651,12.05l2.3356-.771q-1.9497-5.90549-3.6158-11.934Zm-5.4945-24.567q1.0734,6.228,2.4438,12.351l2.4003-.537q-1.35585-6.063-2.4202-12.232Zm-3.0529-24.987q.45915,6.309,1.2202,12.531l2.4414-.298q-.7524-6.162-1.2084-12.411Zm-.6849-18.888q0,3.16648.0763,6.314l2.4589-.059q-.07545-3.11852-.0755-6.255Zm.0763-6.314q-.07605,3.1485-.0763,6.314h2.4597q0-3.13652.0754-6.254Zm1.8288-25.104q-.75975,6.2205-1.2201,12.53l2.4531.178q.4548-6.24747,1.2085-12.41Zm4.2765-24.808q-1.36905,6.123-2.4437,12.352l2.4238.417q1.0632-6.168,2.4203-12.232Zm6.7018-24.266q-1.96875,5.96248-3.6511,12.051l2.3709.654q1.6647-6.027,3.6157-11.933Zm9.0657-23.486q-2.5494,5.74351-4.8233,11.631l2.2946.886q2.2506-5.829,4.7767-11.519Zm11.3364-22.478q-3.1035,5.4675-5.945,11.1l2.196,1.107q2.8125-5.5755,5.888-10.992Zm13.488-21.256q-3.627,5.139-7.005,10.463l2.077,1.317q3.345-5.2695,6.938-10.362Zm15.501-19.836q-4.113,4.764-7.993,9.728l1.938,1.515q3.84152-4.91548,7.917-9.636Zm17.361-18.23q-4.5585,4.3425-8.903,8.903l1.781,1.696q4.302-4.51651,8.819-8.818ZM172.44,108.34q-4.9635,3.879-9.728,7.993l1.607,1.862q4.719-4.074,9.636-7.917Zm20.57-14.5129q-5.32048,3.3768-10.462,7.0049l1.418,2.01q5.091-3.5925,10.362-6.9382Zm21.893-12.4286q-5.62951,2.8398-11.099,5.9452l1.214,2.1389q5.415-3.07425,10.993-5.888Zm23.01-10.2147q-5.88747,2.2725-11.631,4.8233l.998,2.248q5.688-2.5248,11.519-4.7767ZM261.818,63.29q-6.087,1.68105-12.05,3.6511l.771,2.3356q5.904-1.9497,11.934-3.6159Zm24.567-5.4946q-6.228,1.0734-12.351,2.4438l.537,2.4004q6.063-1.356,12.232-2.4203Zm24.986-3.053q-6.30751.4593-12.53,1.2202l.298,2.4415q6.162-.75255,12.411-1.2086Zm18.889-.6849q-3.16653,0-6.314.0762l.059,2.4589q3.11852-.0753,6.255-.0754Zm6.314.0762q-3.1485-.0759-6.314-.0762v2.4597q3.1365,0,6.254.0754Zm25.104,1.829q-6.2205-.75975-12.53-1.2202l-.178,2.4531q6.24752.4548,12.41,1.2085Zm24.808,4.2766q-6.123-1.3692-12.352-2.4439l-.417,2.4239q6.168,1.063,12.232,2.4202Zm24.266,6.7019q-5.9625-1.9689-12.051-3.6512l-.654,2.3708q6.027,1.66485,11.933,3.6159Zm23.486,9.0661q-5.74351-2.54955-11.631-4.8233l-.886,2.2945q5.83049,2.2506,11.519,4.7769Zm22.478,11.3365q-5.46749-3.1041-11.1-5.9452l-1.107,2.1961q5.57551,2.8125,10.992,5.8881Zm21.256,13.4882q-5.139-3.6267-10.462-7.0048l-1.318,2.0767q5.2695,3.34455,10.362,6.9381Zm19.836,15.501q-4.764-4.113-9.728-7.993l-1.515,1.938q4.91552,3.843,9.636,7.917Zm18.23,17.362q-4.34251-4.56-8.903-8.903l-1.696,1.781q4.515,4.3005,8.818,8.818Zm16.451,19.055q-3.87753-4.96352-7.993-9.728l-1.861,1.607q4.07245,4.7175,7.916,9.636Zm14.514,20.57q-3.378-5.32053-7.005-10.463l-2.01,1.418q3.59253,5.091,6.938,10.363Zm12.428,21.893q-2.83952-5.62948-5.945-11.099l-2.139,1.214q3.07353,5.415,5.888,10.993Zm10.215,23.01q-2.27253-5.88751-4.824-11.631l-2.248.998q2.526,5.688,4.777,11.519Zm7.894,23.905q-1.68146-6.087-3.652-12.05l-2.335.771q1.95007,5.904,3.616,11.934Zm5.494,24.567q-1.07254-6.228-2.444-12.351l-2.4.537q1.356,6.063,2.42,12.232Zm3.053,24.987q-.459-6.309-1.22-12.531l-2.442.298q.753,6.162,1.209,12.411Zm.685,18.888q0-3.1665-.076-6.314l-2.459.059q.075,3.11851.076,6.255Z"/><path class="cls-1" d="M520.963,316.826q.10053-3.1155.1-6.256h-2.459q0,3.10047-.1,6.177Zm-2.421,24.838q1.005-6.1305,1.616-12.386l-2.448-.238q-.6015,6.17248-1.595,12.226Zm-5.648,24.312q1.803-5.95051,3.224-12.06l-2.396-.557q-1.39947,6.02847-3.182,11.904Zm-8.797,23.362q2.574-5.6715,4.784-11.536l-2.302-.867q-2.1795,5.78548-4.722,11.387Zm-11.785,22.003q3.29847-5.292,6.254-10.81l-2.168-1.161q-2.916,5.44349-6.173,10.67Zm-14.554,20.276q3.96-4.821,7.607-9.9l-1.998-1.434q-3.597,5.0115-7.51,9.773Zm-17.067,18.215q4.557-4.27052,8.83-8.829l-1.795-1.682q-4.215,4.4985-8.716,8.716Zm-19.285,15.845q5.076-3.645,9.9-7.608l-1.561-1.901q-4.75951,3.91048-9.773,7.511ZM420.22,478.878q5.5155-2.955,10.809-6.254l-1.301-2.088q-5.223,3.255-10.669,6.173Zm-22.73,10.314q5.8635-2.208,11.537-4.784l-1.017-2.24q-5.598,2.541-11.387,4.722Zm-23.885,7.237q6.10647-1.419,12.06-3.224l-.713-2.354q-5.874,1.78047-11.904,3.182Zm-24.638,4.04q6.25347-.609,12.385-1.616l-.397-2.427q-6.051.99153-12.226,1.595Zm-18.708.905q3.13948,0,6.256-.1l-.079-2.458q-3.07648.099-6.177.099Zm-6.256-.1q3.1155.10051,6.256.1v-2.459q-3.10052,0-6.177-.099Zm-24.837-2.42q6.129,1.00352,12.385,1.615l.239-2.448q-6.174-.6015-12.226-1.595Zm-24.312-5.648q5.95052,1.803,12.06,3.223l.556-2.395q-6.02852-1.401-11.903-3.182Zm-23.362-8.798q5.67148,2.574,11.536,4.784l.867-2.301q-5.787-2.1795-11.387-4.722Zm-22.003-11.784q5.292,3.297,10.809,6.254l1.162-2.168q-5.445-2.916-10.67-6.173Zm-20.276-14.555q4.81949,3.96148,9.9,7.608l1.434-1.998q-5.01151-3.597-9.773-7.51Zm-18.215-17.066q4.2705,4.557,8.83,8.829l1.681-1.795q-4.49851-4.215-8.716-8.716Zm-15.844-19.286q3.64347,5.07747,7.607,9.901l1.901-1.562q-3.91052-4.7595-7.51-9.773Zm-13.201-21.186q2.955,5.5155,6.254,10.81l2.087-1.301q-3.25351-5.223-6.172-10.67Zm-10.314-22.73q2.208,5.8635,4.784,11.537l2.24-1.016q-2.541-5.5995-4.722-11.387Zm-7.236-23.885q1.41752,6.10652,3.223,12.06l2.354-.713q-1.779-5.874-3.182-11.904Zm-4.04-24.638q.609,6.25345,1.615,12.386l2.428-.398q-.99152-6.051-1.595-12.226Zm-.905-18.708q0,3.141.1,6.256l2.458-.079q-.099-3.0765-.099-6.177Zm.1-6.256q-.1005,3.117-.1,6.256h2.459q0-3.10053.099-6.176Zm2.42-24.837q-1.00349,6.129-1.615,12.386l2.448.238q.60151-6.174,1.595-12.226Zm5.648-24.312q-1.803,5.9505-3.223,12.06l2.395.556q1.401-6.027,3.182-11.903Zm8.797-23.362q-2.574,5.67152-4.784,11.536l2.302.867q2.17952-5.78549,4.722-11.387ZM168.207,209.8q-3.297,5.292-6.254,10.809l2.169,1.162q2.916-5.445,6.173-10.67Zm14.555-20.277q-3.96148,4.821-7.608,9.901l1.998,1.434q3.597-5.0115,7.51-9.773Zm17.066-18.214q-4.557,4.269-8.83,8.829l1.795,1.682q4.215-4.49851,8.716-8.717Zm19.285-15.845q-5.07751,3.64352-9.9,7.608l1.561,1.9q4.75952-3.91048,9.773-7.51Zm21.185-13.201q-5.514,2.95348-10.809,6.254l1.301,2.087q5.223-3.255,10.67-6.173Zm22.73-10.314q-5.862,2.20648-11.536,4.784l1.016,2.239q5.598-2.53949,11.387-4.722Zm23.886-7.237q-6.108,1.4175-12.06,3.223l.713,2.354q5.8725-1.779,11.903-3.182Zm24.637-4.04q-6.2535.609-12.385,1.615l.398,2.428q6.04947-.9915,12.226-1.595Zm18.708-.906q-3.13951,0-6.256.101l.08,2.458q3.075-.099,6.176-.099Zm6.256.101q-3.11553-.1005-6.256-.101v2.46q3.10048,0,6.177.099Zm24.838,2.421q-6.13052-1.005-12.386-1.616l-.238,2.448q6.174.6015,12.226,1.595Zm24.312,5.648q-5.95052-1.803-12.06-3.224l-.557,2.396q6.02848,1.3995,11.904,3.182Zm23.362,8.797q-5.67152-2.574-11.537-4.784l-.866,2.302q5.7855,2.178,11.387,4.722Zm22.002,11.784q-5.29047-3.297-10.809-6.254l-1.161,2.169q5.4435,2.916,10.67,6.173Zm20.277,14.555q-4.821-3.96-9.9-7.608l-1.434,1.998q5.01152,3.59847,9.773,7.511Zm18.215,17.067q-4.27049-4.5585-8.83-8.83l-1.681,1.795q4.49849,4.215,8.716,8.716Zm15.845,19.285q-3.645-5.0775-7.608-9.9l-1.901,1.561q3.9105,4.75948,7.51,9.773Zm13.2,21.186q-2.95355-5.5155-6.254-10.81l-2.087,1.301q3.255,5.223,6.173,10.67Zm10.315,22.729q-2.208-5.862-4.784-11.536l-2.24,1.016q2.541,5.5995,4.722,11.387Zm7.237,23.886q-1.419-6.10653-3.224-12.06l-2.354.713q1.78047,5.874,3.182,11.904Zm4.04,24.638q-.609-6.25351-1.616-12.386l-2.427.398q.99151,6.051,1.595,12.226Zm.905,18.707q0-3.13953-.1-6.255l-2.459.079q.099,3.0765.1,6.176Z"/><path class="cls-2" d="M26.7892,343.712l-4.7396-.145-.0753,2.458,4.7396.145Zm-4.7396-.145a1.22958,1.22958,0,0,0-.0753,2.458Zm4.6643,2.603a1.22958,1.22958,0,0,0,.0753-2.458Z"/><path class="cls-2" d="M22.5126,335.056l-3.3992,3.175,1.679,1.797,3.3992-3.175Zm-3.3992,3.175a1.22967,1.22967,0,1,0,1.679,1.797Zm5.0782-1.378a1.22967,1.22967,0,1,0-1.679-1.797Z"/><path class="cls-2" d="M13.2629,331.831l-.0713,4.634,2.4593.038.0713-4.634Zm-.0713,4.634a1.23093,1.23093,0,0,0,1.6832,1.165,1.24688,1.24688,0,0,0,.4034-.261,1.23191,1.23191,0,0,0,.3727-.866Zm2.5306-4.596a1.23092,1.23092,0,0,0-1.6832-1.164,1.247,1.247,0,0,0-.4033.261,1.23155,1.23155,0,0,0-.3728.865Z"/><path class="cls-2" d="M4.48134,335.891l3.30079,3.38,1.75956-1.719-3.3008-3.38Zm3.30079,3.38a1.23219,1.23219,0,0,0,.866.372,1.231,1.231,0,0,0,1.14711-.746,1.22956,1.22956,0,0,0-.25354-1.345Zm-1.54124-5.099a1.23208,1.23208,0,0,0-.866-.372,1.21431,1.21431,0,0,0-.47262.087,1.22988,1.22988,0,0,0-.42095,2.004Z"/><path class="cls-2" d="M1.27126,344.866l4.73721.145.07531-2.458-4.73721-.145Zm4.73721.145A1.2293,1.2293,0,0,0,6.942,342.94a1.21928,1.21928,0,0,0-.39063-.279,1.23707,1.23707,0,0,0-.46754-.108Zm-4.6619-2.603a1.22958,1.22958,0,1,0-.07531,2.458Z"/><path class="cls-2" d="M5.545,353.523l3.40164-3.175L7.26828,348.55l-3.40164,3.175Zm3.40164-3.175a1.24365,1.24365,0,0,0,.2818-.39,1.22941,1.22941,0,0,0-1.96016-1.408Zm-5.08,1.377a1.22968,1.22968,0,0,0-.31574,1.332,1.23047,1.23047,0,0,0,1.9941.466Z"/><path class="cls-2" d="M14.7984,356.748l.0713-4.634-2.4594-.038-.0713,4.634Zm.0713-4.634a1.22985,1.22985,0,0,0-2.4594-.038ZM12.339,356.71a1.22985,1.22985,0,1,0,2.4594.038Z"/><path class="cls-2" d="M23.5788,352.687l-3.3008-3.379-1.7596,1.718,3.3008,3.38Zm-3.3008-3.379a1.2278,1.2278,0,0,0-.866-.373,1.22947,1.22947,0,0,0-.8936,2.091Zm1.5412,5.098a1.23,1.23,0,0,0,1.7596-1.719Z"/><path class="cls-2" d="M643.954,278.041l-2.083,2.255,1.807,1.669,2.083-2.255Zm-2.083,2.255a1.23053,1.23053,0,0,0,.069,1.738,1.2148,1.2148,0,0,0,.409.251,1.23647,1.23647,0,0,0,.474.074,1.22877,1.22877,0,0,0,.855-.394Zm3.89-.586a1.23,1.23,0,1,0-1.807-1.669Z"/><path class="cls-2" d="M634.245,281.739l1.572,1.449,1.667-1.808-1.572-1.449Zm1.572,1.449a1.2296,1.2296,0,0,0,1.667-1.808Zm.095-3.257a1.21019,1.21019,0,0,0-.41-.25,1.22944,1.22944,0,0,0-1.257,2.058Z"/><path class="cls-2" d="M634.396,291.667l2.084-2.256-1.807-1.669L632.59,289.998Zm2.084-2.256a1.22841,1.22841,0,0,0,.219-1.354,1.20915,1.20915,0,0,0-.283-.39,1.2284,1.2284,0,0,0-1.74305.075Zm-3.88995.587a1.22954,1.22954,0,0,0,1.806,1.669Z"/><path class="cls-2" d="M644.104,287.968l-1.569-1.448-1.66894,1.807,1.56994,1.449Zm-1.569-1.448a1.2299,1.2299,0,0,0-1.66894,1.807Zm-.099,3.256a1.22485,1.22485,0,0,0,.884.329,1.22941,1.22941,0,0,0,1.069-1.748,1.25713,1.25713,0,0,0-.285-.389Z"/><path class="cls-2" d="M454.081,12.5606l-5.04-.1352-.066,2.4587,5.04.1353Zm-5.04-.1352a1.22921,1.22921,0,0,0-1.262,1.1963,1.234,1.234,0,0,0,.336.879,1.24743,1.24743,0,0,0,.392.2772,1.23328,1.23328,0,0,0,.468.1062Zm4.974,2.594a1.23079,1.23079,0,0,0,1.161-.727,1.22493,1.22493,0,0,0,.025-.9434,1.23017,1.23017,0,0,0-.65-.6836,1.23569,1.23569,0,0,0-.47-.1048Z"/><path class="cls-2" d="M439.78,1.60088l-.077,4.30678,2.46.04353.076-4.30677Zm-.077,4.30678a1.23372,1.23372,0,0,0,.343.8799,1.23082,1.23082,0,0,0,2.117-.83637Zm2.536-4.26324a1.2297,1.2297,0,0,0-2.459-.04354Z"/><path class="cls-2" d="M426.952,13.8074l5.04.1328.065-2.4587-5.04-.1329Zm5.04.1328a1.23146,1.23146,0,0,0,1.161-.7274,1.226,1.226,0,0,0,.025-.9438,1.23082,1.23082,0,0,0-1.121-.7875Zm-4.975-2.5916a1.22983,1.22983,0,0,0-.065,2.4588Z"/><path class="cls-2" d="M441.254,24.767l.077-4.3068-2.46-.0436-.076,4.3068Zm.077-4.3068a1.23019,1.23019,0,0,0-2.46-.0436Zm-2.536,4.2632a1.23933,1.23933,0,0,0,.084.4742,1.206,1.206,0,0,0,.259.4058,1.22932,1.22932,0,0,0,2.116-.8364Z"/><path class="cls-3" d="M80.8431,478.803a21.88039,21.88039,0,0,0-11.7299,12.728c-.3468-5.868-4.0731-13.245-8.1733-14.307a22.42046,22.42046,0,0,0,11.8627-13.747C72.5419,469.218,77.7538,477.553,80.8431,478.803Z"/><path class="cls-3" d="M165.755,36.8584a16.396,16.396,0,0,0-9.838,8.4636c.248-4.4003-1.889-10.2173-4.851-11.3634a16.81944,16.81944,0,0,0,10.026-9.2137C160.401,29,163.561,35.6606,165.755,36.8584Z"/><path class="cls-4" d="M536.418,68.8114a6.756,6.756,0,1,1,2.599-.4576A6.76205,6.76205,0,0,1,536.418,68.8114Z"/><path class="cls-3" d="M536.437,511.916a5.8828,5.8828,0,1,1,2.262-.399A5.883,5.883,0,0,1,536.437,511.916Z"/><path class="cls-2" d="M50.0966,154.96a2.41584,2.41584,0,0,1-2.4673,2.364l-.0541,2.459a4.87536,4.87536,0,0,0,4.9805-4.769Zm-2.3639-2.464a2.41706,2.41706,0,0,1,2.3639,2.464l2.4591.054a4.87611,4.87611,0,0,0-4.7689-4.977Zm-2.4648,2.36a2.41247,2.41247,0,0,1,2.4648-2.36l.0541-2.459a4.87272,4.87272,0,0,0-4.978,4.767Zm2.3614,2.468a2.41363,2.41363,0,0,1-2.3614-2.468l-2.4591-.052a4.87174,4.87174,0,0,0,4.7664,4.979Z"/><path class="cls-5" d="M399.734,250.37V409.477a10.34677,10.34677,0,0,1-10.345,10.345H267.383a10.34677,10.34677,0,0,1-10.345-10.345V229.501a10.347,10.347,0,0,1,10.345-10.346H368.519l8.205,20.602Z"/><path class="cls-6" d="M399.734,250.37H368.519V219.155C372.967,223.603,395.289,245.925,399.734,250.37Zm-75.808,35.674H274.874a4.459,4.459,0,0,1,0-8.918h49.053a4.459,4.459,0,1,1-.001,8.918Zm0,22.296H274.874a4.459,4.459,0,0,1,0-8.918h49.053a4.459,4.459,0,1,1-.001,8.918Zm57.971,22.297H274.874a4.4595,4.4595,0,0,1,0-8.919H381.897a4.4595,4.4595,0,0,1,0,8.919Zm0,22.296H364.059a4.459,4.459,0,0,1,0-8.918h17.838a4.459,4.459,0,0,1,0,8.918Zm-35.674,0H274.874a4.459,4.459,0,0,1,0-8.918h71.349a4.459,4.459,0,1,1,0,8.918Zm35.674,22.296H315.008a4.459,4.459,0,0,1,0-8.918h66.889a4.459,4.459,0,0,1,0,8.918Zm-84.726,0H274.874a4.459,4.459,0,0,1,0-8.918h22.297a4.459,4.459,0,1,1,0,8.918Zm84.726,22.297H274.874a4.45951,4.45951,0,0,1,0-8.919H381.897a4.45951,4.45951,0,0,1,0,8.919Z"/><rect class="cls-6" x="270.41501" y="254.414" width="115.517" height="58.23709" rx="3"/><path class="cls-7" d="M264.851,247.125a33.692,33.692,0,1,0-33.691-33.692A33.69145,33.69145,0,0,0,264.851,247.125Z"/><path class="cls-8" d="M277.133,192.555a5.43959,5.43959,0,0,0-7.564,2.173l-12.255,23.468a4.08366,4.08366,0,0,0,7.027,4.135l14.565-22.109a5.47578,5.47578,0,0,0-1.773-7.667Z"/><path class="cls-8" d="M252.545,234.311a3.90414,3.90414,0,1,0-1.137-1.013A3.90468,3.90468,0,0,0,252.545,234.311Z"/></svg>