<svg id="Layer_1" data-name="Layer 1" xmlns="http://www.w3.org/2000/svg" viewBox="0 0 647 568"><defs><style>.cls-1{fill:#e9eaec;}.cls-2{fill:#d2d8df;}.cls-3{fill:#ebecef;}.cls-3,.cls-4{fill-rule:evenodd;}.cls-4{fill:#d1d9e0;}.cls-5{fill:#f1f2f7;}.cls-6{fill:#d8dbea;}.cls-7{fill:#ecf2ff;}.cls-8{fill:#e21b22;}.cls-9{fill:#fff;}</style></defs><title>no-comment-found</title><path class="cls-1" d="M586.724,316.884q.07653-3.147.076-6.314h-2.46q0,3.1365-.075,6.255Zm-1.829,25.105q.759-6.2205,1.22-12.53l-2.453-.179q-.45447,6.249-1.209,12.411Zm-4.277,24.807q1.36955-6.12149,2.444-12.351l-2.424-.418q-1.062,6.168-2.42,12.232Zm-6.702,24.266q1.96947-5.961,3.652-12.05l-2.371-.655q-1.66506,6.02853-3.616,11.934Zm-9.066,23.486q2.55-5.742,4.824-11.631l-2.295-.886q-2.25,5.83049-4.777,11.519Zm-11.336,22.478q3.10354-5.46749,5.945-11.099l-2.196-1.108q-2.8125,5.577-5.888,10.993Zm-13.488,21.257q3.62549-5.1405,7.004-10.463l-2.07605-1.318q-3.345,5.271-6.938,10.363Zm-15.502,19.836q4.113-4.764,7.993-9.729l-1.938-1.514q-3.84145,4.91552-7.917,9.635Zm-17.361,18.23q4.55852-4.34249,8.903-8.904l-1.781-1.696q-4.30046,4.51653-8.818,8.818ZM488.108,512.8q4.962-3.879,9.728-7.993l-1.607-1.862q-4.719,4.074-9.636,7.917Zm-20.571,14.513q5.322-3.37647,10.463-7.005l-1.418-2.009q-5.091,3.591-10.362,6.937Zm-21.893,12.428q5.631-2.83952,11.1-5.945l-1.215-2.139q-5.415,3.075-10.992,5.888Zm-23.009,10.215q5.886-2.27252,11.631-4.823l-.998-2.248q-5.688,2.52447-11.519,4.777Zm-23.906,7.894q6.087-1.68147,12.051-3.651l-.772-2.336q-5.904,1.95006-11.933,3.616Zm-24.567,5.495q6.228-1.07391,12.352-2.444l-.537-2.401q-6.063,1.356-12.232,2.421Zm-24.986,3.053q6.309-.46051,12.53-1.221l-.298-2.441q-6.1605.75294-12.411,1.209Zm-18.888.685q3.165,0,6.314-.077l-.06-2.459q-3.11847.07653-6.254.076Zm-6.314-.077q3.147.07655,6.314.077v-2.46q-3.1365,0-6.255-.076Zm-25.105-1.829q6.2205.76053,12.53,1.221l.179-2.454q-6.249-.45447-12.411-1.20795Zm-24.807-4.276q6.1215,1.36955,12.351,2.444l.418-2.42395q-6.168-1.06356-12.232-2.421Zm-24.266-6.702q5.96248,1.968,12.05,3.651l.655-2.371q-6.02853-1.665-11.934-3.616Zm-23.486-9.066q5.74352,2.54845,11.631,4.823l.886-2.294q-5.8305-2.25147-11.519-4.777Zm-22.478-11.337q5.46752,3.105,11.099,5.945l1.108-2.19605q-5.57548-2.8125-10.993-5.888Zm-21.256-13.488q5.139,3.627,10.462,7.005l1.318-2.077q-5.2695-3.3435-10.362-6.93805ZM162.74,504.807q4.764,4.11149,9.728,7.993l1.515-1.938q-4.91551-3.843-9.636-7.917Zm-18.23-17.362q4.34252,4.56,8.903,8.903l1.696-1.781q-4.515-4.30047-8.818-8.818ZM128.059,468.39q3.879,4.9635,7.993,9.728l1.862-1.607q-4.074-4.719-7.917-9.636Zm-14.513-20.57q3.3765,5.32048,7.005,10.462l2.009-1.417q-3.591-5.091-6.937-10.363Zm-12.428-21.893q2.8395,5.62948,5.945,11.099l2.139-1.214q-3.075-5.415-5.888-10.993Zm-10.2148-23.01q2.27235,5.886,4.8233,11.631l2.2481-.998q-2.5248-5.688-4.7767-11.519Zm-7.8936-23.905q1.681,6.087,3.6511,12.05l2.3355-.771q-1.94955-5.90549-3.6157-11.934Zm-5.4945-24.567q1.0734,6.228,2.4438,12.351l2.4003-.537q-1.35585-6.063-2.4202-12.232Zm-3.0528-24.987q.45915,6.309,1.2201,12.531l2.4415-.298q-.75255-6.162-1.2085-12.411Zm-.685-18.888q0,3.16648.0763,6.314l2.4589-.059q-.0753-3.11852-.0755-6.255Zm.0763-6.314q-.07605,3.1485-.0763,6.314H76.237q0-3.13652.0754-6.254Zm1.8288-25.104q-.75975,6.2205-1.2201,12.53l2.4531.178q.4548-6.24747,1.2085-12.41Zm4.2766-24.808q-1.3692,6.123-2.4438,12.352l2.4238.417q1.0632-6.168,2.4203-12.232Zm6.7017-24.266q-1.96875,5.96248-3.651,12.051l2.3708.654q1.66485-6.027,3.6158-11.933Zm9.0658-23.486q-2.5494,5.74351-4.8233,11.631l2.2945.886q2.2506-5.829,4.7768-11.519Zm11.3365-22.478q-3.105,5.4675-5.945,11.1l2.196,1.107q2.8125-5.5755,5.888-10.992Zm13.488-21.256q-3.627,5.139-7.005,10.463l2.077,1.317q3.3435-5.2695,6.937-10.362Zm15.501-19.836q-4.113,4.764-7.993,9.728l1.938,1.515q3.84151-4.91548,7.917-9.636Zm17.361-18.23q-4.5585,4.3425-8.903,8.903l1.781,1.696q4.3005-4.51651,8.818-8.818Zm19.055-16.452q-4.9635,3.879-9.728,7.993l1.607,1.862q4.719-4.074,9.636-7.917Zm20.57-14.5129q-5.32048,3.3768-10.463,7.0049l1.418,2.01q5.091-3.5925,10.363-6.9382Zm21.893-12.4286q-5.62952,2.8398-11.099,5.9452l1.214,2.1389q5.415-3.07425,10.993-5.888Zm23.01-10.2147q-5.88747,2.2725-11.631,4.8233l.998,2.248q5.688-2.5248,11.519-4.7767ZM261.846,63.29q-6.087,1.68105-12.05,3.6511l.771,2.3356q5.904-1.9497,11.934-3.6159Zm24.567-5.4946q-6.228,1.0734-12.351,2.4438l.537,2.4004q6.06152-1.356,12.232-2.4203Zm24.986-3.053q-6.30749.4593-12.53,1.2202l.298,2.4415q6.1605-.75255,12.411-1.2086Zm18.889-.6849q-3.16648,0-6.315.0762l.06,2.4589q3.11852-.0753,6.255-.0754Zm6.314.0762q-3.1485-.0759-6.314-.0762v2.4597q3.135,0,6.254.0754Zm25.104,1.829q-6.2205-.75975-12.53-1.2202l-.179,2.4531q6.249.4548,12.411,1.2085Zm24.807,4.2766q-6.12148-1.3692-12.351-2.4439l-.417,2.4239q6.168,1.063,12.232,2.4202Zm24.266,6.7019q-5.961-1.9689-12.05-3.6512l-.654,2.3708q6.027,1.66485,11.933,3.6159Zm23.486,9.0661q-5.742-2.54955-11.63-4.8233l-.886,2.2945q5.829,2.2506,11.518,4.7769Zm22.479,11.3365q-5.469-3.1041-11.1-5.9452l-1.107,2.1961q5.57552,2.8125,10.992,5.8881ZM478,100.832q-5.139-3.6267-10.463-7.0048l-1.317,2.0767q5.2695,3.34455,10.362,6.9381Zm19.836,15.501q-4.764-4.113-9.728-7.993l-1.515,1.938q4.91552,3.843,9.636,7.917Zm18.23,17.362q-4.34244-4.56-8.903-8.903l-1.697,1.781q4.51648,4.3005,8.819,8.818ZM532.517,152.75q-3.879-4.96352-7.993-9.728l-1.862,1.607q4.074,4.7175,7.917,9.636Zm14.513,20.57q-3.37656-5.32053-7.004-10.463l-2.01,1.418q3.591,5.091,6.938,10.363ZM559.459,195.213q-2.8395-5.62948-5.945-11.099l-2.139,1.214q3.07351,5.415,5.888,10.993Zm10.215,23.01q-2.27251-5.88751-4.824-11.631l-2.248.998q2.52447,5.688,4.777,11.519Zm7.893,23.905q-1.68-6.087-3.651-12.05l-2.335.771q1.94851,5.904,3.615,11.934Zm5.495,24.567q-1.074-6.228-2.444-12.351l-2.4.537q1.356,6.063,2.42,12.232Zm3.053,24.987q-.459-6.309-1.22-12.531l-2.442.298q.753,6.162,1.209,12.411Zm.685,18.888q0-3.1665-.076-6.314l-2.459.059q.075,3.11851.075,6.255Z"/><path class="cls-1" d="M520.991,316.826q.099-3.1155.1-6.256h-2.459q0,3.10047-.1,6.177Zm-2.421,24.838q1.005-6.1305,1.616-12.386l-2.448-.238q-.6015,6.17248-1.595,12.226Zm-5.648,24.312q1.803-5.95051,3.224-12.06l-2.396-.557q-1.401,6.02847-3.182,11.904Zm-8.797,23.362q2.574-5.6715,4.784-11.536l-2.302-.867q-2.1795,5.78548-4.722,11.387ZM492.34,411.341q3.297-5.292,6.254-10.81l-2.168-1.161q-2.916,5.44349-6.173,10.67Zm-14.555,20.276q3.96148-4.821,7.608-9.9l-1.998-1.434q-3.597,5.0115-7.51,9.773Zm-17.066,18.215q4.557-4.27052,8.829-8.829l-1.794-1.682q-4.215,4.4985-8.717,8.716Zm-19.285,15.845q5.076-3.645,9.9-7.608l-1.562-1.901q-4.758,3.91048-9.773,7.511Zm-21.186,13.201q5.5155-2.955,10.809-6.254l-1.301-2.088q-5.223,3.255-10.669,6.173Zm-22.73,10.314q5.862-2.208,11.537-4.784l-1.017-2.24q-5.598,2.541-11.387,4.722Zm-23.885,7.237q6.10652-1.419,12.06-3.224l-.714-2.354q-5.8725,1.78047-11.903,3.182Zm-24.638,4.04q6.2535-.609,12.385-1.616l-.398-2.427q-6.04947.99153-12.226,1.595Zm-18.708.905q3.13952,0,6.256-.1l-.079-2.458q-3.0765.099-6.177.099Zm-6.256-.1q3.11549.10051,6.256.1v-2.459q-3.10048,0-6.177-.099Zm-24.837-2.42q6.129,1.00352,12.385,1.615l.238-2.448q-6.17248-.6015-12.225-1.595Zm-24.313-5.648q5.95047,1.803,12.06,3.223l.557-2.395q-6.02849-1.401-11.903-3.182Zm-23.362-8.798q5.673,2.574,11.537,4.784l.867-2.301q-5.787-2.1795-11.387-4.722Zm-22.002-11.784q5.292,3.297,10.809,6.254l1.161-2.168q-5.4435-2.916-10.669-6.173ZM209.24,458.069q4.821,3.96148,9.901,7.608l1.434-1.998q-5.01151-3.597-9.773-7.51Zm-18.214-17.066q4.2705,4.557,8.829,8.829l1.682-1.795q-4.49851-4.215-8.716-8.716Zm-15.844-19.286q3.64347,5.07747,7.607,9.901l1.901-1.562q-3.91052-4.7595-7.51-9.773Zm-13.201-21.186q2.9535,5.5155,6.254,10.81l2.087-1.301q-3.255-5.223-6.173-10.67Zm-10.314-22.73q2.208,5.8635,4.784,11.537l2.24-1.016q-2.541-5.5995-4.722-11.387Zm-7.237-23.885q1.419,6.10652,3.224,12.06l2.354-.713q-1.779-5.874-3.182-11.904Zm-4.039-24.638q.609,6.25345,1.615,12.386l2.427-.398q-.9915-6.051-1.594-12.226Zm-.906-18.708q0,3.141.101,6.256l2.458-.079q-.099-3.0765-.099-6.177Zm.101-6.256q-.1005,3.117-.101,6.256h2.46q0-3.10053.099-6.176Zm2.42-24.837q-1.005,6.129-1.615,12.386l2.448.238q.6-6.174,1.594-12.226Zm5.648-24.312q-1.803,5.9505-3.224,12.06l2.396.556q1.401-6.027,3.182-11.903Zm8.797-23.362q-2.574,5.67152-4.784,11.536l2.302.867q2.178-5.78549,4.722-11.387ZM168.235,209.8q-3.297,5.292-6.254,10.809l2.169,1.162q2.91451-5.445,6.172-10.67Zm14.554-20.277q-3.96,4.821-7.607,9.901l1.998,1.434q3.597-5.0115,7.51-9.773Zm17.066-18.214q-4.55551,4.269-8.829,8.829l1.795,1.682q4.215-4.49851,8.716-8.717Zm19.286-15.845q-5.07752,3.64352-9.9,7.608l1.561,1.9q4.75951-3.91048,9.773-7.51Zm21.185-13.201q-5.514,2.95348-10.809,6.254l1.301,2.087q5.223-3.255,10.67-6.173Zm22.73-10.314q-5.862,2.20648-11.536,4.784l1.016,2.239q5.598-2.53949,11.387-4.722Zm23.886-7.237q-6.108,1.4175-12.06,3.223l.713,2.354q5.87252-1.779,11.903-3.182Zm24.637-4.04q-6.25351.609-12.385,1.615l.398,2.428q6.04948-.9915,12.226-1.595Zm18.708-.906q-3.13948,0-6.256.101l.079,2.458q3.07653-.099,6.177-.099Zm6.256.101q-3.1155-.1005-6.256-.101v2.46q3.10051,0,6.177.099Zm24.838,2.421q-6.1305-1.005-12.386-1.616l-.238,2.448q6.17253.6015,12.226,1.595Zm24.312,5.648q-5.95047-1.803-12.06-3.224l-.557,2.396q6.02852,1.3995,11.904,3.182Zm23.362,8.797q-5.6715-2.574-11.537-4.784l-.867,2.302q5.787,2.178,11.387,4.722Zm22.002,11.784q-5.29052-3.297-10.809-6.254l-1.161,2.169q5.44348,2.916,10.669,6.173Zm20.277,14.555q-4.821-3.96-9.9-7.608L440,157.462q5.0115,3.59847,9.773,7.511Zm18.215,17.067q-4.27051-4.5585-8.83-8.83l-1.681,1.795q4.4985,4.215,8.716,8.716Zm15.844,19.285q-3.64353-5.0775-7.608-9.9l-1.9,1.561q3.91048,4.75948,7.51,9.773Zm13.201,21.186q-2.95349-5.5155-6.254-10.81l-2.087,1.301q3.255,5.223,6.173,10.67Zm10.315,22.729q-2.208-5.862-4.784-11.536l-2.24,1.016q2.541,5.5995,4.722,11.387Zm7.237,23.886q-1.419-6.10653-3.224-12.06l-2.354.713q1.779,5.874,3.182,11.904Zm4.04,24.638q-.60891-6.25351-1.616-12.386l-2.427.398q.99152,6.051,1.594,12.226Zm.905,18.707q0-3.13953-.101-6.255l-2.458.079q.09906,3.0765.1,6.176Z"/><path class="cls-2" d="M26.8171,343.712l-4.7397-.145-.0753,2.458,4.7397.145Zm-4.7397-.145a1.22958,1.22958,0,0,0-.0753,2.458Zm4.6644,2.603a1.22958,1.22958,0,0,0,.0753-2.458Z"/><path class="cls-2" d="M22.5404,335.056l-3.3992,3.175,1.679,1.797,3.3992-3.175Zm-3.3992,3.175a1.22967,1.22967,0,1,0,1.679,1.797Zm5.0782-1.378a1.23018,1.23018,0,0,0,.3147-1.332,1.22656,1.22656,0,0,0-.6435-.689,1.22247,1.22247,0,0,0-.4681-.109,1.22306,1.22306,0,0,0-.8821.333Z"/><path class="cls-2" d="M13.2907,331.831l-.0713,4.634,2.4593.038.0714-4.634Zm-.0713,4.634a1.231,1.231,0,0,0,1.6833,1.165,1.24645,1.24645,0,0,0,.4033-.261,1.23191,1.23191,0,0,0,.3727-.866Zm2.5307-4.596a1.23092,1.23092,0,0,0-1.6832-1.164,1.24738,1.24738,0,0,0-.4034.261,1.23266,1.23266,0,0,0-.3728.865Z"/><path class="cls-2" d="M4.50917,335.891l3.3008,3.38,1.75955-1.719-3.30079-3.38Zm3.3008,3.38a1.23219,1.23219,0,0,0,.866.372,1.231,1.231,0,0,0,1.14711-.746,1.22956,1.22956,0,0,0-.25354-1.345Zm-1.54124-5.099a1.23208,1.23208,0,0,0-.866-.372,1.21423,1.21423,0,0,0-.47261.087,1.22988,1.22988,0,0,0-.421,2.004Z"/><path class="cls-2" d="M1.29909,344.866l4.73721.145.07531-2.458-4.7372-.145Zm4.73721.145a1.22931,1.22931,0,0,0,.93349-2.071,1.21943,1.21943,0,0,0-.39064-.279,1.23707,1.23707,0,0,0-.46754-.108Zm-4.66189-2.603a1.22958,1.22958,0,1,0-.07532,2.458Z"/><path class="cls-2" d="M5.57283,353.523l3.40164-3.175L7.29611,348.55l-3.40164,3.175Zm3.40164-3.175a1.24365,1.24365,0,0,0,.2818-.39,1.22941,1.22941,0,0,0-1.96016-1.408Zm-5.08,1.377a1.22968,1.22968,0,0,0-.31574,1.332,1.23047,1.23047,0,0,0,1.9941.466Z"/><path class="cls-2" d="M14.8262,356.748l.0713-4.634-2.4593-.038-.0714,4.634Zm.0713-4.634a1.2298,1.2298,0,1,0-2.4593-.038Zm-2.5307,4.596a1.22985,1.22985,0,1,0,2.4594.038Z"/><path class="cls-2" d="M23.6066,352.687l-3.3008-3.379-1.7596,1.718,3.3008,3.38Zm-3.3008-3.379a1.22732,1.22732,0,0,0-.866-.373,1.22947,1.22947,0,0,0-.8936,2.091Zm1.5412,5.098a1.23,1.23,0,0,0,1.7596-1.719Z"/><path class="cls-2" d="M643.982,278.041l-2.083,2.255,1.806,1.669,2.084-2.255Zm-2.083,2.255a1.2276,1.2276,0,0,0-.326.883,1.22429,1.22429,0,0,0,.395.855,1.21427,1.21427,0,0,0,.409.251,1.2307,1.2307,0,0,0,.474.074,1.229,1.229,0,0,0,.854-.394Zm3.89-.586a1.23193,1.23193,0,0,0,.22-1.354,1.22908,1.22908,0,0,0-1.639-.601,1.23015,1.23015,0,0,0-.388.286Z"/><path class="cls-2" d="M634.273,281.739l1.571,1.449,1.668-1.808-1.572-1.449Zm1.571,1.449a1.23,1.23,0,1,0,1.668-1.808Zm.096-3.257a1.21072,1.21072,0,0,0-.41-.25,1.22914,1.22914,0,0,0-1.257,2.058Z"/><path class="cls-2" d="M634.424,291.667l2.084-2.256-1.807-1.669-2.084,2.256Zm2.084-2.256a1.22841,1.22841,0,0,0,.219-1.354,1.22937,1.22937,0,0,0-1.17-.715,1.24323,1.24323,0,0,0-.468.114,1.23028,1.23028,0,0,0-.388.286Zm-3.891.587a1.22992,1.22992,0,0,0,1.807,1.669Z"/><path class="cls-2" d="M644.132,287.968l-1.569-1.448-1.669,1.807,1.569,1.449Zm-1.569-1.448a1.22993,1.22993,0,0,0-1.669,1.807Zm-.1,3.256a1.2292,1.2292,0,0,0,.885.329,1.2337,1.2337,0,0,0,.858-.395,1.22868,1.22868,0,0,0,.211-1.353,1.25806,1.25806,0,0,0-.285-.389Z"/><path class="cls-2" d="M454.109,12.5606l-5.04-.1352-.066,2.4587,5.04.1353Zm-5.04-.1352a1.22909,1.22909,0,0,0-1.262,1.1963,1.22758,1.22758,0,0,0,.728,1.1562,1.229,1.229,0,0,0,.468.1062Zm4.974,2.594a1.23091,1.23091,0,0,0,1.161-.727,1.225,1.225,0,0,0,.025-.9434,1.231,1.231,0,0,0-1.12-.7884Z"/><path class="cls-2" d="M439.808,1.60088l-.077,4.30678,2.459.04353.077-4.30677Zm-.077,4.30678a1.23955,1.23955,0,0,0,.084.47412,1.20542,1.20542,0,0,0,.259.40578,1.22931,1.22931,0,0,0,2.116-.83637Zm2.536-4.26324a1.22969,1.22969,0,0,0-2.459-.04354Z"/><path class="cls-2" d="M426.98,13.8074l5.04.1328.064-2.4587-5.039-.1329Zm5.04.1328a1.23131,1.23131,0,0,0,1.161-.7274,1.226,1.226,0,0,0,.025-.9438,1.2307,1.2307,0,0,0-1.122-.7875Zm-4.975-2.5916a1.22983,1.22983,0,0,0-.065,2.4588Z"/><path class="cls-2" d="M441.282,24.767l.076-4.3068-2.459-.0436-.076,4.3068Zm.076-4.3068a1.2297,1.2297,0,0,0-2.459-.0436Zm-2.535,4.2632a1.23827,1.23827,0,0,0,.083.4742,1.22984,1.22984,0,0,0,2.376-.4306Z"/><path class="cls-3" d="M80.8709,478.803a21.87982,21.87982,0,0,0-11.7298,12.728c-.3469-5.868-4.0732-13.245-8.1733-14.307a22.42127,22.42127,0,0,0,11.8627-13.747C72.5697,469.218,77.7817,477.553,80.8709,478.803Z"/><path class="cls-3" d="M165.783,36.8584a16.396,16.396,0,0,0-9.838,8.4636c.248-4.4003-1.889-10.2173-4.851-11.3634a16.81944,16.81944,0,0,0,10.026-9.2137C160.428,29,163.589,35.6606,165.783,36.8584Z"/><path class="cls-4" d="M536.446,68.8114a6.75635,6.75635,0,1,1,2.599-.4576A6.75931,6.75931,0,0,1,536.446,68.8114Z"/><path class="cls-3" d="M536.464,511.916a5.8829,5.8829,0,1,1,2.263-.399A5.88224,5.88224,0,0,1,536.464,511.916Z"/><path class="cls-2" d="M50.1245,154.96a2.416,2.416,0,0,1-2.4673,2.364l-.0541,2.459a4.87506,4.87506,0,0,0,4.9804-4.769Zm-2.364-2.464a2.41723,2.41723,0,0,1,2.364,2.464l2.459.054a4.87611,4.87611,0,0,0-4.7689-4.977Zm-2.4648,2.36a2.41247,2.41247,0,0,1,2.4648-2.36l.0541-2.459a4.87272,4.87272,0,0,0-4.978,4.767Zm2.3615,2.468a2.41393,2.41393,0,0,1-2.3615-2.468l-2.4591-.052a4.87174,4.87174,0,0,0,4.7665,4.979Z"/><path class="cls-5" d="M252.095,353.856a8.32243,8.32243,0,0,1-5.141-7.7v-100a24.99887,24.99887,0,0,1,25-25h83.333a24.99884,24.99884,0,0,1,25,25v57.275a24.99884,24.99884,0,0,1-25,25H284.77l-23.591,23.617a8.335,8.335,0,0,1-9.084,1.808Z"/><path class="cls-6" d="M405.287,387.823a8.33731,8.33731,0,0,1-5.892-2.442l-19.783-19.783H321.954a25.02445,25.02445,0,0,1-25-25V296.156a25.02445,25.02445,0,0,1,25-25H388.62a25.0245,25.0245,0,0,1,25,25v83.333a8.33242,8.33242,0,0,1-8.333,8.334Z"/><path class="cls-7" d="M388.228,338.334a4.18265,4.18265,0,0,1-1.958,3.349,8.27652,8.27652,0,0,1-4.728,1.388H328.058a8.27663,8.27663,0,0,1-4.728-1.388,3.844,3.844,0,0,1,0-6.699,8.28351,8.28351,0,0,1,4.728-1.387h53.484a8.2834,8.2834,0,0,1,4.728,1.387A4.18566,4.18566,0,0,1,388.228,338.334Z"/><path class="cls-6" d="M344.882,298.076a4.18008,4.18008,0,0,1-1.958,3.349,8.27792,8.27792,0,0,1-4.727,1.387H284.712a8.28024,8.28024,0,0,1-4.727-1.387,3.844,3.844,0,0,1,0-6.699,8.28024,8.28024,0,0,1,4.727-1.387h53.485a8.27792,8.27792,0,0,1,4.727,1.387A4.18033,4.18033,0,0,1,344.882,298.076Z"/><path class="cls-7" d="M388.228,319.387a4.18261,4.18261,0,0,1-1.958,3.349,8.28338,8.28338,0,0,1-4.728,1.387H328.058a8.28349,8.28349,0,0,1-4.728-1.387,3.844,3.844,0,0,1,0-6.699,8.28349,8.28349,0,0,1,4.728-1.387h53.484a8.28338,8.28338,0,0,1,4.728,1.387A4.18291,4.18291,0,0,1,388.228,319.387Z"/><path class="cls-6" d="M344.882,279.128a4.18175,4.18175,0,0,1-1.958,3.35,8.27791,8.27791,0,0,1-4.727,1.387H284.712a8.28022,8.28022,0,0,1-4.727-1.387,3.844,3.844,0,0,1,0-6.699,8.27337,8.27337,0,0,1,4.727-1.388h53.485a8.27106,8.27106,0,0,1,4.727,1.388A4.18012,4.18012,0,0,1,344.882,279.128Z"/><path class="cls-7" d="M388.228,300.439a4.1857,4.1857,0,0,1-1.958,3.35,8.28337,8.28337,0,0,1-4.728,1.387H328.058a8.28348,8.28348,0,0,1-4.728-1.387,3.844,3.844,0,0,1,0-6.699,8.27641,8.27641,0,0,1,4.728-1.388h53.484a8.27629,8.27629,0,0,1,4.728,1.388A4.18265,4.18265,0,0,1,388.228,300.439Z"/><path class="cls-6" d="M344.882,260.181a4.18008,4.18008,0,0,1-1.958,3.349,8.27083,8.27083,0,0,1-4.727,1.388H284.712a8.27315,8.27315,0,0,1-4.727-1.388,3.844,3.844,0,0,1,0-6.699,8.28022,8.28022,0,0,1,4.727-1.387h53.485a8.27791,8.27791,0,0,1,4.727,1.387A4.18179,4.18179,0,0,1,344.882,260.181Z"/><path class="cls-8" d="M395.845,264.918a33.692,33.692,0,1,0-33.692-33.692A33.6919,33.6919,0,0,0,395.845,264.918Z"/><path class="cls-9" d="M408.126,210.348a5.439,5.439,0,0,0-7.564,2.172l-12.255,23.469a4.08374,4.08374,0,0,0,7.027,4.135l14.565-22.11a5.47322,5.47322,0,0,0-1.773-7.666Z"/><path class="cls-9" d="M383.538,252.103a3.89679,3.89679,0,1,0-1.137-1.012A3.89739,3.89739,0,0,0,383.538,252.103Z"/></svg>