<svg id="Layer_1" data-name="Layer 1" xmlns="http://www.w3.org/2000/svg" xmlns:xlink="http://www.w3.org/1999/xlink" viewBox="0 0 647 568"><defs><style>.cls-1{fill:none;}.cls-2{fill:#e9eaec;}.cls-3{fill:#d2d8df;}.cls-4{fill:#ebecef;}.cls-4,.cls-5{fill-rule:evenodd;}.cls-5{fill:#d1d9e0;}.cls-6{clip-path:url(#clip-path);}.cls-7{fill:#f1f2f7;}.cls-8{fill:#d8dbea;}.cls-9{fill:#cfd2e3;}.cls-10{fill:#e21b22;}.cls-11{fill:#fff;}</style><clipPath id="clip-path"><rect class="cls-1" x="225.125" y="201.703" width="189.853" height="189.853"/></clipPath></defs><title>no-event-found</title><path class="cls-2" d="M586.71,316.884q.07646-3.147.076-6.314h-2.459q0,3.1365-.07605,6.255Zm-1.829,25.105q.75906-6.2205,1.22-12.53l-2.453-.179q-.45456,6.249-1.208,12.411Zm-4.277,24.807q1.36954-6.12149,2.444-12.351l-2.42395-.418q-1.062,6.168-2.42,12.232Zm-6.701,24.266q1.968-5.961,3.651-12.05l-2.371-.655q-1.665,6.02853-3.616,11.934Zm-9.067,23.486q2.55-5.742,4.824-11.631l-2.295-.886q-2.25,5.83049-4.777,11.519ZM553.5,437.026q3.10346-5.46749,5.945-11.099l-2.196-1.108q-2.8125,5.577-5.888,10.993Zm-13.488,21.257q3.627-5.1405,7.005-10.463l-2.077-1.318q-3.345,5.271-6.938,10.363ZM524.51,478.119q4.113-4.764,7.993-9.729l-1.938-1.514q-3.84146,4.91552-7.916,9.635Zm-17.361,18.23q4.56-4.34249,8.903-8.904l-1.781-1.696q-4.30051,4.51653-8.818,8.818ZM488.094,512.8q4.96355-3.879,9.728-7.993l-1.607-1.862q-4.719,4.074-9.636,7.917Zm-20.571,14.513q5.322-3.37647,10.463-7.005l-1.418-2.009q-5.091,3.591-10.362,6.937ZM445.63,539.741q5.631-2.83952,11.1-5.945l-1.215-2.139q-5.415,3.075-10.992,5.888Zm-23.009,10.215q5.886-2.27252,11.631-4.823l-.998-2.248q-5.688,2.52447-11.519,4.777Zm-23.906,7.894q6.087-1.68147,12.051-3.651l-.772-2.336q-5.904,1.95006-11.933,3.616Zm-24.567,5.495q6.228-1.07391,12.352-2.444l-.537-2.401q-6.063,1.356-12.232,2.421Zm-24.986,3.053q6.309-.46051,12.53-1.221l-.298-2.441q-6.16053.75294-12.411,1.209Zm-18.888.685q3.165,0,6.314-.077l-.06-2.459q-3.11852.07653-6.254.076Zm-6.314-.077q3.147.07655,6.314.077v-2.46q-3.13647,0-6.255-.076Zm-25.105-1.829q6.2205.76053,12.53,1.221l.179-2.454q-6.249-.45447-12.411-1.20795Zm-24.807-4.276q6.1215,1.36955,12.351,2.444l.418-2.42395q-6.168-1.06356-12.232-2.421Zm-24.266-6.702q5.9625,1.968,12.05,3.651l.655-2.371q-6.02852-1.665-11.934-3.616Zm-23.486-9.066q5.74348,2.54845,11.631,4.823l.886-2.294q-5.83051-2.25147-11.519-4.777Zm-22.478-11.337q5.46751,3.105,11.099,5.945l1.108-2.19605q-5.57549-2.8125-10.993-5.888Zm-21.256-13.488q5.139,3.627,10.462,7.005l1.318-2.077q-5.26952-3.3435-10.362-6.93805Zm-19.836-15.501q4.764,4.11149,9.728,7.993l1.515-1.938q-4.91548-3.843-9.636-7.917Zm-18.23-17.362q4.34251,4.56,8.903,8.903l1.696-1.781q-4.515-4.30047-8.818-8.818ZM128.045,468.39q3.879,4.9635,7.993,9.728l1.862-1.607q-4.074-4.719-7.917-9.636Zm-14.513-20.57q3.3765,5.32048,7.005,10.462l2.01-1.417q-3.5925-5.091-6.938-10.363Zm-12.428-21.893q2.8395,5.62948,5.945,11.099l2.139-1.214q-3.075-5.415-5.888-10.993Zm-10.2147-23.01q2.27235,5.886,4.8233,11.631l2.2481-.998q-2.525-5.688-4.7767-11.519Zm-7.8936-23.905q1.681,6.087,3.6511,12.05l2.3355-.771q-1.94955-5.90549-3.6157-11.934Zm-5.4945-24.567q1.0734,6.228,2.4438,12.351l2.4003-.537q-1.35585-6.063-2.4202-12.232Zm-3.0528-24.987q.459,6.309,1.2201,12.531l2.4415-.298q-.75255-6.162-1.2085-12.411Zm-.685-18.888q0,3.16648.0763,6.314l2.4589-.059q-.07545-3.11852-.0755-6.255Zm.0763-6.314q-.076,3.1485-.0763,6.314h2.4597q0-3.13652.0754-6.254Zm1.8288-25.104q-.75975,6.2205-1.2201,12.53l2.4531.178q.4548-6.24747,1.2085-12.41Zm4.2765-24.808q-1.369,6.123-2.4437,12.352l2.4238.417q1.0632-6.168,2.4203-12.232Zm6.7018-24.266q-1.96875,5.96248-3.6511,12.051l2.3709.654q1.66485-6.027,3.6157-11.933Zm9.0658-23.486q-2.54955,5.74351-4.8233,11.631l2.2945.886q2.2506-5.829,4.7767-11.519Zm11.3364-22.478q-3.1035,5.4675-5.945,11.1l2.196,1.107q2.8125-5.5755,5.888-10.992Zm13.488-21.256q-3.627,5.139-7.005,10.463l2.077,1.317q3.3435-5.2695,6.937-10.362Zm15.501-19.836q-4.113,4.764-7.993,9.728l1.938,1.515q3.84151-4.91548,7.917-9.636Zm17.361-18.23q-4.5585,4.3425-8.903,8.903l1.781,1.696q4.30051-4.51651,8.818-8.818Zm19.055-16.452q-4.96348,3.879-9.728,7.993l1.607,1.862q4.719-4.074,9.636-7.917Zm20.57-14.5129q-5.32048,3.3768-10.462,7.0049l1.418,2.01q5.0895-3.5925,10.362-6.9382Zm21.893-12.4286q-5.62952,2.8398-11.099,5.9452l1.214,2.1389q5.415-3.07425,10.993-5.888Zm23.01-10.2147q-5.8875,2.2725-11.631,4.8233l.998,2.248q5.688-2.5248,11.519-4.7767ZM261.832,63.29q-6.087,1.68105-12.05,3.6511l.771,2.3356q5.904-1.9497,11.934-3.6159Zm24.567-5.4946q-6.228,1.0734-12.351,2.4438l.537,2.4004q6.06153-1.356,12.232-2.4203Zm24.986-3.053q-6.30753.4593-12.53,1.2202l.298,2.4415q6.162-.75255,12.411-1.2086Zm18.889-.6849q-3.1665,0-6.314.0762l.059,2.4589q3.11847-.0753,6.255-.0754Zm6.314.0762q-3.1485-.0759-6.314-.0762v2.4597q3.135,0,6.254.0754Zm25.104,1.829q-6.22047-.75975-12.53-1.2202l-.179,2.4531q6.249.4548,12.411,1.2085ZM386.5,60.2393q-6.123-1.3692-12.352-2.4439l-.417,2.4239q6.168,1.063,12.232,2.4202Zm24.266,6.7019q-5.9625-1.9689-12.051-3.6512l-.654,2.3708q6.027,1.66485,11.933,3.6159Zm23.486,9.0661q-5.74351-2.54955-11.631-4.8233l-.886,2.2945q5.829,2.2506,11.519,4.7769ZM456.73,87.3438q-5.46753-3.1041-11.1-5.9452l-1.107,2.1961q5.57547,2.8125,10.992,5.8881Zm21.256,13.4882q-5.139-3.6267-10.463-7.0048l-1.317,2.0767q5.2695,3.34455,10.362,6.9381Zm19.836,15.501q-4.764-4.113-9.728-7.993l-1.515,1.938q4.91547,3.843,9.636,7.917Zm18.23,17.362q-4.34253-4.56-8.903-8.903l-1.696,1.781q4.515,4.3005,8.818,8.818Zm16.451,19.055q-3.87744-4.96352-7.993-9.728l-1.861,1.607q4.07253,4.7175,7.916,9.636Zm14.513,20.57q-3.37647-5.32053-7.004-10.463l-2.01,1.418q3.59244,5.091,6.938,10.363Zm12.429,21.893q-2.83952-5.62948-5.945-11.099l-2.139,1.214q3.07343,5.415,5.888,10.993Zm10.215,23.01q-2.27242-5.88751-4.824-11.631l-2.248.998q2.52594,5.688,4.777,11.519Zm7.893,23.905q-1.68-6.087-3.651-12.05l-2.335.771q1.95,5.904,3.616,11.934Zm5.495,24.567q-1.074-6.228-2.444-12.351l-2.4.537q1.356,6.063,2.42,12.232Zm3.053,24.987q-.459-6.309-1.22-12.531l-2.442.298q.75293,6.162,1.209,12.411Zm.685,18.888q0-3.1665-.076-6.314l-2.459.059q.07507,3.11851.07605,6.255Z"/><path class="cls-2" d="M520.977,316.826q.10053-3.1155.1-6.256H518.618q0,3.10047-.1,6.177Zm-2.421,24.838q1.005-6.1305,1.616-12.386l-2.448-.238q-.6015,6.17248-1.595,12.226Zm-5.648,24.312q1.803-5.95051,3.224-12.06l-2.396-.557q-1.401,6.02847-3.182,11.904Zm-8.797,23.362q2.574-5.6715,4.784-11.536l-2.302-.867q-2.17947,5.78548-4.722,11.387Zm-11.785,22.003q3.2985-5.292,6.254-10.81l-2.168-1.161q-2.916,5.44349-6.173,10.67Zm-14.555,20.276q3.96148-4.821,7.608-9.9l-1.998-1.434q-3.597,5.0115-7.51,9.773Zm-17.066,18.215q4.557-4.27052,8.83-8.829l-1.795-1.682q-4.215,4.4985-8.717,8.716ZM441.42,465.677q5.076-3.645,9.9-7.608l-1.561-1.901q-4.7595,3.91048-9.774,7.511Zm-21.186,13.201q5.5155-2.955,10.809-6.254l-1.301-2.088q-5.223,3.255-10.669,6.173Zm-22.73,10.314q5.862-2.208,11.537-4.784l-1.017-2.24q-5.598,2.541-11.387,4.722Zm-23.885,7.237q6.10652-1.419,12.06-3.224l-.713-2.354q-5.874,1.78047-11.904,3.182Zm-24.638,4.04q6.2535-.609,12.385-1.616l-.398-2.427q-6.04949.99153-12.225,1.595Zm-18.708.905q3.13948,0,6.256-.1l-.079-2.458q-3.07653.099-6.177.099Zm-6.256-.1q3.11549.10051,6.256.1v-2.459q-3.10053,0-6.177-.099Zm-24.837-2.42q6.129,1.00352,12.385,1.615l.239-2.448q-6.174-.6015-12.226-1.595Zm-24.313-5.648q5.95051,1.803,12.061,3.223l.556-2.395q-6.02852-1.401-11.903-3.182Zm-23.362-8.798q5.673,2.574,11.537,4.784l.867-2.301q-5.787-2.1795-11.387-4.722Zm-22.002-11.784q5.292,3.297,10.809,6.254l1.161-2.168q-5.44353-2.916-10.669-6.173Zm-20.277-14.555q4.821,3.96148,9.901,7.608l1.434-1.998q-5.0115-3.597-9.773-7.51Zm-18.214-17.066q4.2705,4.557,8.829,8.829l1.682-1.795q-4.49848-4.215-8.716-8.716Zm-15.844-19.286q3.6435,5.07747,7.607,9.901l1.901-1.562q-3.91049-4.7595-7.51-9.773Zm-13.201-21.186q2.955,5.5155,6.254,10.81l2.087-1.301q-3.25348-5.223-6.173-10.67Zm-10.314-22.73q2.208,5.8635,4.784,11.537l2.24-1.016q-2.541-5.5995-4.722-11.387Zm-7.237-23.885q1.419,6.10652,3.224,12.06l2.354-.713q-1.779-5.874-3.182-11.904Zm-4.039-24.638q.609,6.25345,1.615,12.386l2.428-.398q-.9915-6.051-1.595-12.226Zm-.906-18.708q0,3.141.101,6.256l2.458-.079q-.099-3.0765-.099-6.177Zm.101-6.256q-.10052,3.117-.101,6.256h2.46q0-3.10053.099-6.176Zm2.42-24.837q-1.0035,6.129-1.615,12.386l2.448.238q.6-6.174,1.595-12.226Zm5.648-24.312q-1.803,5.9505-3.224,12.06l2.396.556q1.401-6.027,3.182-11.903Zm8.797-23.362q-2.574,5.67152-4.784,11.536l2.302.867q2.1795-5.78549,4.722-11.387ZM168.221,209.8q-3.297,5.292-6.254,10.809l2.169,1.162q2.91449-5.445,6.173-10.67Zm14.555-20.277q-3.96152,4.821-7.608,9.901l1.998,1.434q3.597-5.0115,7.51-9.773Zm17.066-18.214q-4.557,4.269-8.83,8.829l1.795,1.682q4.215-4.49851,8.716-8.717Zm19.285-15.845q-5.0775,3.64352-9.9,7.608l1.561,1.9q4.75951-3.91048,9.773-7.51Zm21.185-13.201q-5.514,2.95348-10.809,6.254l1.301,2.087q5.223-3.255,10.67-6.173Zm22.73-10.314q-5.862,2.20648-11.536,4.784l1.016,2.239q5.598-2.53949,11.387-4.722Zm23.886-7.237q-6.108,1.4175-12.06,3.223l.713,2.354q5.87251-1.779,11.903-3.182Zm24.637-4.04q-6.2535.609-12.385,1.615l.398,2.428q6.04949-.9915,12.226-1.595Zm18.708-.906q-3.13953,0-6.256.101l.08,2.458q3.075-.099,6.176-.099Zm6.256.101q-3.11549-.1005-6.256-.101v2.46q3.10048,0,6.177.099Zm24.838,2.421q-6.1305-1.005-12.386-1.616l-.238,2.448q6.174.6015,12.226,1.595Zm24.312,5.648q-5.95047-1.803-12.06-3.224l-.557,2.396q6.02847,1.3995,11.904,3.182Zm23.362,8.797q-5.67147-2.574-11.537-4.784l-.866,2.302q5.7855,2.178,11.387,4.722Zm22.002,11.784q-5.29052-3.297-10.809-6.254l-1.161,2.169q5.4435,2.916,10.67,6.173Zm20.277,14.555q-4.821-3.96-9.9-7.608l-1.434,1.998q5.01151,3.59847,9.773,7.511Zm18.215,17.067q-4.27051-4.5585-8.83-8.83l-1.681,1.795q4.49853,4.215,8.716,8.716Zm15.844,19.285q-3.64348-5.0775-7.607-9.9l-1.901,1.561q3.9105,4.75948,7.51,9.773ZM498.58,220.61q-2.9535-5.5155-6.254-10.81l-2.087,1.301q3.255,5.223,6.173,10.67Zm10.315,22.729q-2.208-5.862-4.784-11.536l-2.24,1.016q2.541,5.5995,4.722,11.387Zm7.237,23.886q-1.41908-6.10653-3.224-12.06l-2.354.713q1.779,5.874,3.182,11.904Zm4.04,24.638q-.609-6.25351-1.616-12.386l-2.427.398q.99143,6.051,1.595,12.226Zm.905,18.707q0-3.13953-.1-6.255l-2.459.079q.099,3.0765.1,6.176Z"/><path class="cls-3" d="M26.8032,343.712l-4.7397-.145-.0753,2.458,4.7397.145Zm-4.7397-.145a1.22958,1.22958,0,0,0-.0753,2.458Zm4.6644,2.603a1.22958,1.22958,0,0,0,.0753-2.458Z"/><path class="cls-3" d="M22.5265,335.056l-3.3992,3.175,1.679,1.797,3.3992-3.175Zm-3.3992,3.175a1.22967,1.22967,0,1,0,1.679,1.797Zm5.0782-1.378a1.23018,1.23018,0,0,0,.3147-1.332,1.2263,1.2263,0,0,0-.6436-.689,1.22155,1.22155,0,0,0-.468-.109,1.22306,1.22306,0,0,0-.8821.333Z"/><path class="cls-3" d="M13.2768,331.831l-.0713,4.634,2.4593.038.0713-4.634Zm-.0713,4.634a1.231,1.231,0,0,0,1.6833,1.165,1.24752,1.24752,0,0,0,.4033-.261,1.23191,1.23191,0,0,0,.3727-.866Zm2.5306-4.596a1.23091,1.23091,0,0,0-1.6832-1.164,1.247,1.247,0,0,0-.4033.261,1.23266,1.23266,0,0,0-.3728.865Z"/><path class="cls-3" d="M4.49526,335.891l3.30079,3.38,1.75956-1.719-3.3008-3.38Zm3.30079,3.38a1.23219,1.23219,0,0,0,.866.372,1.231,1.231,0,0,0,1.14711-.746,1.22959,1.22959,0,0,0-.25353-1.345Zm-1.54124-5.099a1.23208,1.23208,0,0,0-.866-.372,1.21424,1.21424,0,0,0-.47262.087,1.22988,1.22988,0,0,0-.421,2.004Z"/><path class="cls-3" d="M1.28518,344.866l4.7372.145.07532-2.458-4.73721-.145Zm4.7372.145a1.2293,1.2293,0,0,0,.93349-2.071,1.2195,1.2195,0,0,0-.39063-.279,1.23716,1.23716,0,0,0-.46754-.108Zm-4.66189-2.603a1.22958,1.22958,0,1,0-.07531,2.458Z"/><path class="cls-3" d="M5.55892,353.523l3.40163-3.175L7.28219,348.55l-3.40164,3.175Zm3.40163-3.175a1.24349,1.24349,0,0,0,.2818-.39,1.22941,1.22941,0,0,0-1.96016-1.408Zm-5.08,1.377a1.2297,1.2297,0,0,0-.31573,1.332,1.23047,1.23047,0,0,0,1.9941.466Z"/><path class="cls-3" d="M14.8123,356.748l.0713-4.634-2.4593-.038-.0714,4.634Zm.0713-4.634a1.2298,1.2298,0,1,0-2.4593-.038Zm-2.5307,4.596a1.22985,1.22985,0,1,0,2.4594.038Z"/><path class="cls-3" d="M23.5927,352.687l-3.3008-3.379-1.7596,1.718,3.3008,3.38Zm-3.3008-3.379a1.2278,1.2278,0,0,0-.866-.373,1.22947,1.22947,0,0,0-.8936,2.091Zm1.5412,5.098a1.23,1.23,0,0,0,1.7596-1.719Z"/><path class="cls-3" d="M643.968,278.041l-2.083,2.255,1.807,1.669,2.083-2.255Zm-2.083,2.255a1.22055,1.22055,0,0,0-.325.883,1.22889,1.22889,0,0,0,.394.855,1.221,1.221,0,0,0,.883.325,1.22875,1.22875,0,0,0,.855-.394Zm3.89-.586a1.23143,1.23143,0,0,0,.331-.886,1.22719,1.22719,0,0,0-.394-.858,1.2292,1.2292,0,0,0-1.744.075Z"/><path class="cls-3" d="M634.259,281.739l1.57105,1.449,1.667-1.808-1.571-1.449Zm1.57105,1.449a1.2296,1.2296,0,1,0,1.667-1.808Zm.096-3.257a1.21044,1.21044,0,0,0-.41-.25,1.22914,1.22914,0,0,0-1.257,2.058Z"/><path class="cls-3" d="M634.411,291.667l2.083-2.256-1.807-1.669-2.083,2.256Zm2.083-2.256a1.22693,1.22693,0,0,0,.331-.885,1.22613,1.22613,0,0,0-.806-1.11,1.22391,1.22391,0,0,0-.476-.074,1.24268,1.24268,0,0,0-.468.114,1.22961,1.22961,0,0,0-.388.286Zm-3.89.587a1.22992,1.22992,0,0,0,1.807,1.669Z"/><path class="cls-3" d="M644.118,287.968l-1.57-1.448-1.668,1.807,1.569,1.449Zm-1.57-1.448a1.21444,1.21444,0,0,0-.409-.251,1.22982,1.22982,0,0,0-1.259,2.058Zm-.099,3.256a1.25122,1.25122,0,0,0,.41.253,1.23724,1.23724,0,0,0,.475.076,1.22242,1.22242,0,0,0,.468-.112,1.23349,1.23349,0,0,0,.64-.693,1.24512,1.24512,0,0,0,.075-.476,1.21614,1.21614,0,0,0-.115-.467,1.23886,1.23886,0,0,0-.284-.389Z"/><path class="cls-3" d="M454.095,12.5606l-5.04-.1352-.066,2.4587,5.04.1353Zm-5.04-.1352a1.22892,1.22892,0,0,0-1.156.7284,1.22758,1.22758,0,0,0,.23,1.3469,1.23126,1.23126,0,0,0,.86.3834Zm4.974,2.594a1.22985,1.22985,0,1,0,.066-2.4588Z"/><path class="cls-3" d="M439.793,1.60088l-.076,4.30678,2.459.04353.077-4.30677Zm-.076,4.30678a1.22061,1.22061,0,0,0,.084.47412,1.20588,1.20588,0,0,0,.259.40578,1.22931,1.22931,0,0,0,2.116-.83637Zm2.536-4.26324a1.23019,1.23019,0,0,0-2.46-.04354Z"/><path class="cls-3" d="M426.966,13.8074l5.04.1328.065-2.4587-5.04-.1329Zm5.04.1328a1.2298,1.2298,0,1,0,.065-2.4587Zm-4.975-2.5916a1.22983,1.22983,0,0,0-.065,2.4588Z"/><path class="cls-3" d="M441.268,24.767l.076-4.3068-2.459-.0436-.076,4.3068Zm.076-4.3068a1.22968,1.22968,0,0,0-2.459-.0436Zm-2.535,4.2632a1.22943,1.22943,0,0,0,1.208,1.2578,1.2294,1.2294,0,0,0,1.251-1.2142Z"/><path class="cls-4" d="M80.857,478.803a21.88039,21.88039,0,0,0-11.7299,12.728c-.3468-5.868-4.0731-13.245-8.1732-14.307a22.42071,22.42071,0,0,0,11.8626-13.747C72.5558,469.218,77.7677,477.553,80.857,478.803Z"/><path class="cls-4" d="M165.769,36.8584a16.3961,16.3961,0,0,0-9.838,8.4636c.248-4.4003-1.889-10.2173-4.851-11.3634a16.81939,16.81939,0,0,0,10.026-9.2137C160.415,29,163.575,35.6606,165.769,36.8584Z"/><path class="cls-5" d="M536.432,68.8114a6.756,6.756,0,1,1,2.599-.4576A6.75951,6.75951,0,0,1,536.432,68.8114Z"/><path class="cls-4" d="M536.451,511.916a5.88276,5.88276,0,1,1,2.262-.399A5.88534,5.88534,0,0,1,536.451,511.916Z"/><path class="cls-3" d="M50.1105,154.96a2.41583,2.41583,0,0,1-2.4672,2.364l-.0541,2.459a4.87506,4.87506,0,0,0,4.9804-4.769Zm-2.3639-2.464a2.41706,2.41706,0,0,1,2.3639,2.464l2.4591.054a4.87611,4.87611,0,0,0-4.7689-4.977Zm-2.4648,2.36a2.41247,2.41247,0,0,1,2.4648-2.36l.0541-2.459a4.87272,4.87272,0,0,0-4.978,4.767Zm2.3615,2.468a2.41362,2.41362,0,0,1-2.3615-2.468l-2.4591-.052a4.87174,4.87174,0,0,0,4.7665,4.979Z"/><g class="cls-6"><path class="cls-7" d="M403.731,385.257V266.595H236.372V385.257a6.298,6.298,0,0,0,6.299,6.298H397.432A6.29793,6.29793,0,0,0,403.731,385.257Z"/><path class="cls-8" d="M403.731,266.595H236.372v-36.67a5.67976,5.67976,0,0,1,5.68-5.679H398.051a5.67976,5.67976,0,0,1,5.68,5.679Z"/><path class="cls-9" d="M268.572,215.313h12.981v25.412H268.572Zm89.977,0h12.982v25.412H358.549Z"/><path class="cls-8" d="M312.232,292.613h14.397v12.981H312.232Zm-35.991,0h14.397v12.981H276.241Zm71.982,0h14.396v12.981H348.223Zm-71.982,30.592h14.397v12.982H276.241Zm71.982,0h14.396v12.982H348.223Z"/><path class="cls-8" d="M319.323,338.244a8.548,8.548,0,1,0-8.548-8.548A8.5479,8.5479,0,0,0,319.323,338.244Z"/><path class="cls-8" d="M312.232,352.898h14.397v12.981H312.232Zm-35.991,0h14.397v12.981H276.241Z"/><path class="cls-8" d="M355.314,367.936a8.5475,8.5475,0,1,0-8.547-8.548A8.5479,8.5479,0,0,0,355.314,367.936Z"/></g><path class="cls-10" d="M400.91,320.36a2.99986,2.99986,0,0,1,5.196,0l39.655,68.684a3.00043,3.00043,0,0,1-2.599,4.5H363.853a3.00033,3.00033,0,0,1-2.598-4.5Z"/><path class="cls-11" d="M404.438,338.181a5.43973,5.43973,0,0,0-5.44,5.687l1.233,26.447a4.08359,4.08359,0,0,0,8.153.033l1.446-26.437a5.475,5.475,0,0,0-5.392-5.73Z"/><path class="cls-11" d="M404.227,386.638a3.89277,3.89277,0,1,0-1.493-.302A3.90135,3.90135,0,0,0,404.227,386.638Z"/></svg>