<svg id="Layer_1" data-name="Layer 1" xmlns="http://www.w3.org/2000/svg" xmlns:xlink="http://www.w3.org/1999/xlink" viewBox="0 0 646.01418 566.68665"><defs><style>.cls-1{fill:none;}.cls-2{fill:#e9eaec;}.cls-3{clip-path:url(#clip-path);}.cls-4{fill:#d8dbea;}.cls-10,.cls-4,.cls-5,.cls-6,.cls-7,.cls-9{fill-rule:evenodd;}.cls-5{fill:#ebeef2;}.cls-6{fill:#cfd2e3;}.cls-7{fill:#f1f2f7;}.cls-8{fill:#d2d8df;}.cls-9{fill:#ebecef;}.cls-10{fill:#d1d9e0;}.cls-11{fill:#e21b22;}.cls-12{fill:#fff;}</style><clipPath id="clip-path" transform="translate(-0.07764 -0.83838)"><rect class="cls-1" x="224.666" y="199.457" width="208.593" height="208.593"/></clipPath></defs><title>no-newsletter-found1</title><path class="cls-2" d="M586.695,317.327q.075-3.1485.076-6.314h-2.46q0,3.135-.07495,6.254Zm-1.829,25.104q.759-6.2205,1.22-12.53l-2.453-.179q-.456,6.249-1.209,12.411Zm-4.277,24.808q1.36953-6.123,2.444-12.352l-2.424-.417q-1.06349,6.168-2.42,12.232Zm-6.702,24.266q1.96948-5.9625,3.651-12.051l-2.371-.654q-1.66352,6.027-3.615,11.933Zm-9.066,23.486q2.55-5.74352,4.823-11.631l-2.294-.886q-2.25147,5.83049-4.777,11.519Zm-11.336,22.478q3.10355-5.46747,5.945-11.1l-2.196-1.107q-2.8125,5.57551-5.888,10.992Zm-13.489,21.256q3.627-5.139,7.005-10.462l-2.077-1.318q-3.3435,5.2695-6.937,10.362Zm-15.501,19.836q4.113-4.764,7.993-9.728l-1.938-1.515q-3.84147,4.91552-7.917,9.636Zm-17.361,18.23q4.5585-4.34249,8.903-8.903l-1.781-1.696q-4.302,4.515-8.819,8.818Zm-19.056,16.451q4.96349-3.87748,9.729-7.993l-1.608-1.861q-4.71753,4.0725-9.635,7.916Zm-20.57,14.514q5.322-3.37793,10.463-7.005l-1.418-2.01q-5.091,3.59244-10.363,6.938Zm-21.893,12.428q5.631-2.8395,11.099-5.945L455.5,532.1q-5.415,3.07352-10.993,5.888Zm-23.01,10.215q5.88748-2.27253,11.631-4.824l-.998-2.248q-5.68653,2.52594-11.518,4.777ZM398.7,558.293q6.087-1.68155,12.05-3.652l-.771-2.335q-5.904,1.95-11.934,3.616Zm-24.567,5.494q6.228-1.07245,12.351-2.444l-.537-2.4q-6.06147,1.356-12.232,2.42Zm-24.986,3.053q6.30748-.459,12.53-1.22l-.298-2.442q-6.162.753-12.411,1.209Zm-18.889.685q3.16649,0,6.314-.07605l-.059-2.459q-3.11851.075-6.255.075Zm-6.314-.07605q3.1485.07655,6.314.07605v-2.46q-3.13651,0-6.254-.075ZM298.84,565.62q6.2205.759,12.53,1.22l.179-2.453q-6.249-.45456-12.411-1.209Zm-24.807-4.277q6.12153,1.36944,12.351,2.444l.418-2.424q-6.1695-1.06349-12.233-2.42Zm-24.266-6.702q5.961,1.96948,12.05,3.652l.655-2.371q-6.02847-1.665-11.934-3.616Zm-23.486-9.066q5.742,2.55,11.631,4.824l.885-2.295q-5.829-2.25-11.518-4.777Zm-22.478-11.336q5.46752,3.10346,11.099,5.945l1.108-2.196q-5.577-2.8125-10.993-5.888Zm-21.257-13.488q5.1405,3.62558,10.463,7.004l1.318-2.076q-5.271-3.34507-10.363-6.938Zm-19.835-15.502q4.7625,4.113,9.728,7.993l1.515-1.938q-4.917-3.84147-9.636-7.917Zm-18.23-17.361q4.34252,4.5585,8.903,8.903l1.696-1.781q-4.515-4.302-8.818-8.819ZM128.03,468.832q3.87752,4.96348,7.993,9.729l1.861-1.607q-4.07249-4.719-7.916-9.636Zm-14.513-20.57q3.3765,5.322,7.004,10.463l2.01-1.418q-3.591-5.091-6.937-10.363Zm-12.429-21.893q2.841,5.631,5.945,11.099l2.139-1.214q-3.0735-5.415-5.888-10.993Zm-10.2141-23.01q2.2725,5.88748,4.8233,11.631l2.2481-.998q-2.5248-5.68652-4.7767-11.518Zm-7.8936-23.905q1.681,6.087,3.6511,12.05l2.3355-.771q-1.94955-5.904-3.6157-11.934Zm-5.4945-24.567q1.07355,6.228,2.4438,12.351l2.4003-.536q-1.35585-6.063-2.4202-12.233ZM74.433,329.901q.45915,6.309,1.2201,12.53l2.4415-.298q-.75255-6.1605-1.2085-12.411Zm-.685-18.888q0,3.165.0763,6.314l2.4589-.06q-.0753-3.11851-.0755-6.254Zm.0763-6.314q-.076,3.147-.0763,6.314h2.4597q0-3.1365.0754-6.255Zm1.8288-25.105q-.7596,6.22051-1.2201,12.53l2.4531.179q.4548-6.249,1.2085-12.411Zm4.2766-24.807q-1.3692,6.12152-2.4438,12.351l2.4238.418q1.0632-6.168,2.4203-12.232Zm6.7017-24.266q-1.9686,5.9625-3.651,12.05l2.3708.655q1.66485-6.0285,3.6158-11.934Zm9.0658-23.486q-2.5494,5.7435-4.8233,11.631l2.2945.886q2.2506-5.83052,4.7768-11.519Zm11.3368-22.478q-3.105,5.46749-5.946,11.099l2.197,1.108q2.811-5.577,5.887-10.993ZM120.521,163.3q-3.6255,5.14051-7.004,10.463l2.077,1.318q3.3435-5.271,6.937-10.363Zm15.502-19.836q-4.113,4.764-7.993,9.729l1.938,1.514q3.84152-4.91551,7.916-9.635Zm17.361-18.23q-4.56,4.3425-8.903,8.903l1.781,1.697q4.30051-4.5165,8.818-8.819Zm19.055-16.451q-4.9635,3.879-9.729,7.993l1.608,1.862q4.71751-4.074,9.635-7.917Zm20.57-14.5134q-5.322,3.3768-10.463,7.0044l1.418,2.01q5.091-3.5925,10.363-6.9377ZM214.902,81.841q-5.631,2.8398-11.099,5.9452l1.214,2.1389q5.415-3.0741,10.992-5.888Zm23.009-10.2147q-5.886,2.2725-11.63,4.8233l.998,2.2481q5.6865-2.525,11.518-4.7768Zm23.906-7.8938q-6.087,1.681-12.051,3.6511l.772,2.3356q5.904-1.9497,11.933-3.6159Zm24.567-5.4946q-6.228,1.0734-12.352,2.4438l.537,2.4004q6.063-1.356,12.232-2.4203Zm24.986-3.053q-6.309.4593-12.53,1.2202l.298,2.4415q6.1605-.75255,12.41-1.2086ZM330.258,54.5q-3.165,0-6.314.0762l.06,2.4589q3.117-.07515,6.254-.0754Zm6.314.0762q-3.147-.0759-6.314-.0762v2.4597q3.1365,0,6.255.0754Zm25.105,1.829q-6.2205-.75975-12.53-1.2202l-.179,2.4531q6.249.4548,12.411,1.2085Zm24.807,4.2766q-6.12149-1.36905-12.351-2.4439l-.418,2.4239q6.168,1.06305,12.232,2.4202Zm24.266,6.7019q-5.961-1.9689-12.05-3.6512l-.655,2.3708q6.02849,1.66485,11.934,3.6159Zm23.486,9.0661q-5.742-2.54955-11.631-4.8233l-.886,2.2945q5.8305,2.2506,11.519,4.7769Zm22.478,11.3365q-5.46749-3.1041-11.099-5.9452l-1.108,2.1961q5.577,2.8125,10.993,5.8881Zm21.257,13.4877q-5.1405-3.62595-10.463-7.0043l-1.318,2.0767q5.271,3.34455,10.363,6.9376Zm19.836,15.502q-4.764-4.113-9.729-7.993l-1.514,1.938q4.9155,3.8415,9.635,7.917Zm18.23,17.361q-4.34244-4.55847-8.904-8.903l-1.696,1.781q4.51648,4.302,8.818,8.819Zm16.451,19.056q-3.879-4.96349-7.993-9.729l-1.862,1.607q4.074,4.719,7.917,9.636Zm14.513,20.57q-3.37647-5.322-7.005-10.463l-2.009,1.418q3.591,5.091,6.937,10.363Zm12.429,21.893q-2.841-5.631-5.946-11.1l-2.139,1.215q3.07508,5.415,5.888,10.992Zm10.214,23.009q-2.27243-5.886-4.823-11.63l-2.248.998q2.52447,5.68652,4.777,11.518Zm7.894,23.906q-1.68154-6.087-3.651-12.05l-2.336.771q1.95,5.904,3.616,11.934Zm5.495,24.567q-1.074-6.228-2.444-12.351l-2.4.536q1.35442,6.063,2.42,12.233Zm3.053,24.986q-.459-6.30747-1.221-12.53l-2.441.298q.753,6.16048,1.209,12.411Zm.685,18.889q0-3.16648-.077-6.314l-2.459.059q.07653,3.11852.076,6.255Z" transform="translate(-0.07764 -0.83838)"/><path class="cls-2" d="M520.961,317.269q.10053-3.11553.101-6.256h-2.46q0,3.10049-.099,6.177Zm-2.42,24.837q1.005-6.129,1.615-12.385l-2.448-.239q-.6,6.174-1.594,12.226Zm-5.648,24.312q1.80294-5.95051,3.223-12.06l-2.395-.556q-1.401,6.027-3.182,11.903Zm-8.798,23.363q2.574-5.673,4.784-11.537l-2.301-.867q-2.1795,5.787-4.722,11.387Zm-11.784,22.002q3.297-5.292,6.254-10.809l-2.168-1.161q-2.916,5.4435-6.173,10.669ZM477.756,432.06q3.96148-4.821,7.608-9.9l-1.998-1.435q-3.597,5.0115-7.51,9.773ZM460.69,450.274q4.557-4.269,8.829-8.829l-1.795-1.682q-4.215,4.49849-8.716,8.716Zm-19.286,15.845q5.07751-3.64348,9.901-7.608l-1.562-1.9q-4.758,3.9105-9.773,7.51ZM420.219,479.32q5.51551-2.9535,10.809-6.254l-1.301-2.087q-5.223,3.255-10.67,6.173Zm-22.73,10.315q5.862-2.208,11.536-4.785l-1.016-2.239q-5.598,2.541-11.387,4.722Zm-23.886,7.237q6.108-1.419,12.06-3.224l-.713-2.354q-5.87252,1.779-11.903,3.182Zm-24.638,4.039q6.255-.6075,12.386-1.615l-.398-2.427q-6.04949.99151-12.226,1.594Zm-18.707.906q3.13952,0,6.255-.101l-.079-2.458q-3.075.099-6.176.099Zm-6.256-.101q3.1155.10048,6.256.101v-2.46q-3.10048,0-6.177-.099Zm-24.838-2.42q6.13052,1.005,12.386,1.616l.238-2.448q-6.174-.6015-12.226-1.595Zm-24.312-5.648q5.95051,1.803,12.06,3.224l.557-2.396q-6.02847-1.39951-11.904-3.182Zm-23.362-8.797q5.67148,2.574,11.537,4.784l.866-2.302q-5.7855-2.178-11.386-4.722Zm-22.002-11.784q5.29048,3.297,10.809,6.254l1.161-2.169q-5.4435-2.916-10.669-6.173Zm-20.277-14.555q4.821,3.96,9.9,7.608l1.435-1.998q-5.01151-3.59853-9.774-7.511Zm-18.214-17.067q4.269,4.557,8.829,8.83l1.682-1.795q-4.4985-4.215-8.716-8.716ZM175.152,422.16q3.645,5.076,7.608,9.9l1.9-1.561q-3.909-4.7595-7.51-9.773Zm-13.2-21.186q2.95351,5.5155,6.254,10.809l2.087-1.301q-3.255-5.223-6.173-10.669Zm-10.314-22.73q2.20649,5.862,4.784,11.537l2.239-1.017q-2.5395-5.598-4.721-11.387Zm-7.237-23.886q1.419,6.108,3.224,12.06l2.354-.713q-1.78049-5.87247-3.182-11.903Zm-4.039-24.637q.6075,6.2535,1.615,12.385l2.427-.398q-.99152-6.04953-1.594-12.226Zm-.906-18.708q0,3.13949.101,6.256l2.458-.08q-.099-3.075-.099-6.176Zm.101-6.256q-.1005,3.11553-.101,6.256h2.46q0-3.10048.099-6.177Zm2.42-24.837q-1.005,6.129-1.615,12.385l2.448.238q.6-6.17249,1.594-12.226Zm5.648-24.313q-1.803,5.95053-3.224,12.06l2.396.557q1.3995-6.02851,3.182-11.904Zm8.797-23.362q-2.574,5.6715-4.784,11.537l2.302.867q2.178-5.787,4.721-11.387Zm11.784-22.002q-3.297,5.2905-6.254,10.809l2.168,1.161q2.916-5.4435,6.173-10.67Zm14.554-20.277q-3.96,4.821-7.608,9.9l1.999,1.434q3.597-5.0115,7.51-9.773Zm17.066-18.215q-4.557,4.2705-8.829,8.83l1.795,1.681q4.215-4.49848,8.716-8.716Zm19.285-15.845q-5.076,3.645-9.9,7.608l1.562,1.901q4.758-3.91048,9.773-7.511Zm21.186-13.2q-5.5155,2.95352-10.809,6.253l1.301,2.088q5.223-3.255,10.669-6.173Zm22.73-10.315q-5.862,2.208-11.537,4.784l1.017,2.24q5.598-2.541,11.387-4.722Zm23.885-7.237q-6.10648,1.419-12.06,3.224l.714,2.354q5.87247-1.779,11.903-3.182Zm24.638-4.039q-6.25347.6075-12.385,1.615l.397,2.427q6.051-.9915,12.226-1.594Zm18.708-.906q-3.13948,0-6.256.101l.079,2.458q3.0765-.099,6.177-.099Zm6.256.101q-3.1155-.1005-6.256-.101v2.46q3.10052,0,6.177.099Zm24.837,2.42q-6.129-1.005-12.385-1.615l-.239,2.448q6.174.6,12.226,1.594Zm24.313,5.648q-5.95051-1.803-12.061-3.224l-.556,2.396q6.02851,1.401,11.903,3.182Zm23.362,8.798q-5.673-2.574-11.537-4.785l-.867,2.302q5.787,2.17951,11.387,4.722Zm22.002,11.784q-5.292-3.297-10.809-6.254l-1.161,2.168q5.4435,2.916,10.669,6.173Zm20.277,14.555q-4.821-3.96151-9.9-7.608l-1.435,1.998q5.0115,3.597,9.773,7.51Zm18.214,17.066q-4.269-4.557-8.829-8.829l-1.682,1.794q4.49849,4.21647,8.716,8.717Zm15.845,19.285q-3.645-5.076-7.608-9.9l-1.9,1.562q3.91053,4.758,7.51,9.773Zm13.201,21.186q-2.95349-5.5155-6.254-10.809l-2.088,1.301q3.255,5.223,6.174,10.669Zm10.314,22.73q-2.20652-5.862-4.784-11.537l-2.239,1.017q2.53953,5.598,4.722,11.387Zm7.237,23.885q-1.41751-6.10647-3.223-12.06l-2.354.714q1.779,5.87247,3.182,11.903Zm4.04,24.638q-.609-6.2535-1.615-12.385l-2.427.398q.99152,6.04953,1.594,12.226Zm.906,18.708q0-3.13948-.101-6.256l-2.458.08q.099,3.075.099,6.176Z" transform="translate(-0.07764 -0.83838)"/><g class="cls-3"><path class="cls-4" d="M417.862,290.006a2.72121,2.72121,0,0,1-2.078-1.099H242.018c-2.811,2.932-5.866-.978-3.788-3.055,27.006-27.862,52.667-54.134,79.429-81.629a15.78662,15.78662,0,0,1,22.607,0c26.517,27.372,52.301,53.767,79.429,81.629A2.46939,2.46939,0,0,1,417.862,290.006Z" transform="translate(-0.07764 -0.83838)"/><path class="cls-4" d="M237.497,288.54c0-1.344.122-3.421,2.444-3.421H417.862c2.811,0,2.444,3.421,2.444,3.421l-80.04,82.24a15.57994,15.57994,0,0,1-22.607,0Z" transform="translate(-0.07764 -0.83838)"/><path class="cls-5" d="M270.246,354.771V226.096a6.5182,6.5182,0,0,1,6.476-6.476H381.08a6.54559,6.54559,0,0,1,6.599,6.476V354.771Z" transform="translate(-0.07764 -0.83838)"/><path class="cls-6" d="M322.669,267.033c-15.031,0-13.075,1.1-13.075-18.33,0-6.354,7.698-5.01,13.075-5.01,3.177,0,3.177,4.888,0,4.888h-8.187l-.123,13.442c5.377.122,10.754-.856,10.754,2.566A2.45144,2.45144,0,0,1,322.669,267.033Z" transform="translate(-0.07764 -0.83838)"/><path class="cls-6" d="M322.669,257.868H312.037a2.44419,2.44419,0,1,1,0-4.888h10.632C325.846,252.98,325.846,257.868,322.669,257.868Zm-20.163,9.165a2.55022,2.55022,0,0,1-1.955-.978l-9.41-12.586v11.12a2.44419,2.44419,0,1,1-4.888,0V246.137a2.461,2.461,0,0,1,4.4-1.467l9.409,12.587v-11.12c0-3.177,4.888-3.177,4.888,0v18.452A2.37618,2.37618,0,0,1,302.506,267.033Zm62.077,0c-7.088,0-9.287-9.532-4.644-9.532,3.666,0,1.222,4.644,4.644,4.644a2.13872,2.13872,0,0,0,0-4.277c-9.287,0-9.287-14.175,0-14.175,6.965,0,9.287,9.531,4.521,9.531-3.666,0-1.222-4.643-4.521-4.643a2.19951,2.19951,0,1,0,0,4.399C373.87,252.98,373.87,267.033,364.583,267.033Zm-18.697,0c-2.688,0-3.177-4.277-4.643-8.554-1.467,4.399-1.955,8.676-4.766,8.554a2.32272,2.32272,0,0,1-2.199-1.833l-4.644-18.574a2.46056,2.46056,0,0,1,4.766-1.222l2.566,10.387c1.344-3.789,1.711-7.455,4.277-7.455s3.055,3.666,4.277,7.455l2.566-10.387c.855-3.055,5.621-1.955,4.766,1.222L348.208,265.2A2.35436,2.35436,0,0,1,345.886,267.033Zm23.218,13.808H288.697c-3.177,0-3.177-4.888,0-4.888h80.407C372.281,275.953,372.281,280.841,369.104,280.841Zm-4.032,13.687H292.73a2.44419,2.44419,0,1,1,0-4.888h72.342A2.44419,2.44419,0,1,1,365.072,294.528Zm-4.033,13.808H296.763a2.44419,2.44419,0,1,1,0-4.888h64.398C364.338,303.448,364.338,308.336,361.039,308.336Zm-4.766,13.686H301.65a2.44418,2.44418,0,1,1,0-4.888h54.623C359.45,317.134,359.45,322.022,356.273,322.022Z" transform="translate(-0.07764 -0.83838)"/><path class="cls-7" d="M237.863,400.23v0Zm-.244-2.322a.73607.73607,0,0,1-.122-.489V288.54l59.755,61.344Zm123.054-48.024,59.633-61.344c0,10.998.244,108.268-.122,110.346a2.38816,2.38816,0,0,0,.122-.978Z" transform="translate(-0.07764 -0.83838)"/><path class="cls-4" d="M409.674,408.05H248.128a10.59891,10.59891,0,0,1-10.509-10.142l80.04-64.521c7.087-6.477,15.519-6.477,22.607,0l80.04,64.521A10.62682,10.62682,0,0,1,409.674,408.05Z" transform="translate(-0.07764 -0.83838)"/></g><path class="cls-8" d="M26.7878,344.154l-4.7397-.145-.0753,2.459,4.7397.145Zm-4.7397-.145a1.23007,1.23007,0,0,0-.0753,2.459Zm4.6644,2.604a1.23009,1.23009,0,0,0,.0753-2.459Z" transform="translate(-0.07764 -0.83838)"/><path class="cls-8" d="M22.5111,335.498l-3.3992,3.175,1.679,1.798,3.3992-3.176Zm-3.3992,3.175a1.22951,1.22951,0,0,0,.7969,2.13,1.218,1.218,0,0,0,.4742-.078,1.23981,1.23981,0,0,0,.4079-.254Zm5.0782-1.378a1.23085,1.23085,0,0,0-.3288-2.021,1.2286,1.2286,0,0,0-.9423-.03,1.22308,1.22308,0,0,0-.4079.254Z" transform="translate(-0.07764 -0.83838)"/><path class="cls-8" d="M13.2615,332.274l-.0714,4.634,2.4593.038.0714-4.634Zm-.0714,4.634a1.229,1.229,0,0,0,1.6833,1.164,1.21415,1.21415,0,0,0,.4033-.261,1.22726,1.22726,0,0,0,.3727-.865Zm2.5307-4.596a1.22708,1.22708,0,0,0-.346-.876,1.2162,1.2162,0,0,0-.3951-.274,1.22738,1.22738,0,0,0-.9421-.014,1.21457,1.21457,0,0,0-.4034.261,1.22716,1.22716,0,0,0-.3727.865Z" transform="translate(-0.07764 -0.83838)"/><path class="cls-8" d="M4.47987,336.334l3.3008,3.379,1.75955-1.718-3.30079-3.38Zm3.3008,3.379a1.2296,1.2296,0,1,0,1.75955-1.718Zm-1.54124-5.098a1.23,1.23,0,1,0-1.75956,1.719Z" transform="translate(-0.07764 -0.83838)"/><path class="cls-8" d="M1.2698,345.309l4.7372.145.07532-2.459-4.73721-.145Zm4.7372.145a1.23008,1.23008,0,0,0,.07532-2.459ZM1.34511,342.85a1.23007,1.23007,0,0,0-.07531,2.459Z" transform="translate(-0.07764 -0.83838)"/><path class="cls-8" d="M5.54353,353.966l3.40164-3.176-1.67836-1.798-3.40164,3.176Zm3.40164-3.176a1.22969,1.22969,0,0,0,.31574-1.332,1.22821,1.22821,0,0,0-1.58608-.72,1.224,1.224,0,0,0-.408.254Zm-5.08,1.378a1.22981,1.22981,0,1,0,1.67836,1.798Z" transform="translate(-0.07764 -0.83838)"/><path class="cls-8" d="M14.7969,357.19l.0713-4.634-2.4593-.037-.0714,4.633Zm.0713-4.634a1.22979,1.22979,0,1,0-2.4593-.037Zm-2.5307,4.596a1.229,1.229,0,0,0,.0864.472,1.2119,1.2119,0,0,0,.2604.403,1.22976,1.22976,0,0,0,2.1126-.837Z" transform="translate(-0.07764 -0.83838)"/><path class="cls-8" d="M23.5773,353.129l-3.3008-3.379-1.7596,1.718,3.3008,3.38Zm-3.3008-3.379a1.22961,1.22961,0,1,0-1.7596,1.718Zm1.5412,5.098a1.23,1.23,0,0,0,1.7596-1.719Z" transform="translate(-0.07764 -0.83838)"/><path class="cls-8" d="M643.953,278.483l-2.084,2.255,1.807,1.669,2.08294-2.255Zm-2.084,2.255a1.23682,1.23682,0,0,0-.325.884,1.21209,1.21209,0,0,0,.112.466,1.23126,1.23126,0,0,0,1.166.714,1.25468,1.25468,0,0,0,.466-.112,1.22109,1.22109,0,0,0,.388-.283Zm3.88995-.586a1.23733,1.23733,0,0,0,.332-.885,1.23017,1.23017,0,0,0-1.282-1.184,1.24273,1.24273,0,0,0-.468.114,1.22961,1.22961,0,0,0-.388.286Z" transform="translate(-0.07764 -0.83838)"/><path class="cls-8" d="M634.243,282.182l1.572,1.449,1.667-1.809-1.572-1.449Zm1.572,1.449a1.23,1.23,0,0,0,1.667-1.809Zm.095-3.258a1.23,1.23,0,0,0-1.667,1.809Z" transform="translate(-0.07764 -0.83838)"/><path class="cls-8" d="M634.395,292.109l2.083-2.255-1.807-1.669-2.083,2.255Zm2.083-2.255a1.23766,1.23766,0,0,0,.254-.41,1.22416,1.22416,0,0,0,.077-.476,1.2031,1.2031,0,0,0-.111-.468,1.23435,1.23435,0,0,0-.694-.642,1.247,1.247,0,0,0-.476-.074,1.23021,1.23021,0,0,0-.469.115,1.25249,1.25249,0,0,0-.388.286Zm-3.89.586a1.22993,1.22993,0,0,0,1.807,1.669Z" transform="translate(-0.07764 -0.83838)"/><path class="cls-8" d="M644.102,288.411l-1.569-1.449-1.668,1.808,1.569,1.448Zm-1.569-1.449a1.23,1.23,0,1,0-1.668,1.808Zm-.099,3.256a1.22824,1.22824,0,0,0,1.353.218,1.23654,1.23654,0,0,0,.389-.283,1.2295,1.2295,0,0,0-.074-1.742Z" transform="translate(-0.07764 -0.83838)"/><path class="cls-8" d="M454.079,13.0029l-5.039-.1353-.066,2.4588,5.039.1353Zm-5.039-.1353a1.23,1.23,0,0,0-.879.3368,1.20607,1.20607,0,0,0-.277.3916,1.22767,1.22767,0,0,0,.23,1.347,1.23126,1.23126,0,0,0,.86.3834Zm4.973,2.5941a1.22986,1.22986,0,1,0,.066-2.4588Z" transform="translate(-0.07764 -0.83838)"/><path class="cls-8" d="M439.778,2.04339l-.076,4.30677,2.459.04354.076-4.30678Zm-.076,4.30677a1.22931,1.22931,0,0,0,1.208,1.25773,1.22943,1.22943,0,0,0,1.251-1.21419Zm2.535-4.26324a1.22969,1.22969,0,0,0-2.459-.04353Z" transform="translate(-0.07764 -0.83838)"/><path class="cls-8" d="M426.951,14.2501l5.039.1328.065-2.4587-5.04-.1328Zm5.039.1328a1.23124,1.23124,0,0,0,1.187-1.6711,1.23115,1.23115,0,0,0-1.122-.7876Zm-4.975-2.5915a1.22977,1.22977,0,0,0-.064,2.4587Z" transform="translate(-0.07764 -0.83838)"/><path class="cls-8" d="M441.253,25.2097l.076-4.3067-2.459-.0436-.076,4.3068Zm.076-4.3067a1.2297,1.2297,0,0,0-2.459-.0436Zm-2.535,4.2632a1.21907,1.21907,0,0,0,.083.4741,1.22982,1.22982,0,0,0,2.376-.4306Z" transform="translate(-0.07764 -0.83838)"/><path class="cls-9" d="M80.8416,479.245a21.87771,21.87771,0,0,0-11.7298,12.729c-.3468-5.869-4.0732-13.245-8.1733-14.308a22.41435,22.41435,0,0,0,11.8627-13.747C72.5405,469.66,77.7524,477.996,80.8416,479.245Z" transform="translate(-0.07764 -0.83838)"/><path class="cls-9" d="M165.754,37.3011a16.40108,16.40108,0,0,0-9.839,8.4635c.249-4.4003-1.889-10.2172-4.85-11.3634a16.814,16.814,0,0,0,10.025-9.2137C160.399,29.4426,163.56,36.1032,165.754,37.3011Z" transform="translate(-0.07764 -0.83838)"/><path class="cls-10" d="M536.417,69.2539a6.76066,6.76066,0,1,1,2.598-.4576A6.75972,6.75972,0,0,1,536.417,69.2539Z" transform="translate(-0.07764 -0.83838)"/><path class="cls-9" d="M536.435,512.358a5.89171,5.89171,0,1,1,2.262-.399A5.88189,5.88189,0,0,1,536.435,512.358Z" transform="translate(-0.07764 -0.83838)"/><path class="cls-8" d="M50.0952,155.403a2.41593,2.41593,0,0,1-2.4673,2.364l-.0541,2.459a4.875,4.875,0,0,0,4.9804-4.769Zm-2.364-2.465a2.41727,2.41727,0,0,1,2.364,2.465l2.459.054a4.87784,4.87784,0,0,0-4.7689-4.978Zm-2.4648,2.36a2.41567,2.41567,0,0,1,2.4648-2.36l.0541-2.459a4.874,4.874,0,0,0-4.978,4.768Zm2.3615,2.469a2.414,2.414,0,0,1-2.3615-2.469l-2.4591-.051a4.87469,4.87469,0,0,0,4.7665,4.979Z" transform="translate(-0.07764 -0.83838)"/><path class="cls-11" d="M396.259,244.68a33.692,33.692,0,1,0-33.692-33.692A33.69208,33.69208,0,0,0,396.259,244.68Z" transform="translate(-0.07764 -0.83838)"/><path class="cls-12" d="M408.54,190.11a5.43844,5.43844,0,0,0-7.563,2.172l-12.255,23.469a4.08329,4.08329,0,0,0,7.026,4.135l14.565-22.11a5.47322,5.47322,0,0,0-1.773-7.666Z" transform="translate(-0.07764 -0.83838)"/><path class="cls-12" d="M383.952,231.865a3.89765,3.89765,0,1,0-1.137-1.013A3.89922,3.89922,0,0,0,383.952,231.865Z" transform="translate(-0.07764 -0.83838)"/></svg>