<svg id="Layer_1" data-name="Layer 1" xmlns="http://www.w3.org/2000/svg" viewBox="0 0 545 568"><defs><style>.cls-1{fill:#e9eaec;}.cls-2{fill:#d2d8df;}.cls-3{fill:#ebecef;}.cls-3,.cls-4{fill-rule:evenodd;}.cls-4{fill:#d1d9e0;}.cls-5{fill:#f1f2f7;}.cls-6{fill:#d8dbea;}.cls-7{fill:#e21b22;}.cls-8{fill:#fff;}</style></defs><title>no-orders-found</title><path class="cls-1" d="M544.494,317.198q.07644-3.1485.076-6.315h-2.459q0,3.1365-.07605,6.255Zm-1.829,25.104q.75906-6.2205,1.22-12.53l-2.453-.179q-.45447,6.249-1.209,12.411Zm-4.277,24.807q1.36954-6.12149,2.444-12.351l-2.42395-.418q-1.062,6.1695-2.42,12.233Zm-6.702,24.266q1.96957-5.961,3.652-12.05l-2.371-.655q-1.665,6.02849-3.616,11.934Zm-9.066,23.486q2.55-5.742,4.824-11.63l-2.295-.886q-2.25,5.829-4.777,11.518ZM511.284,437.34q3.10355-5.46748,5.945-11.1l-2.196-1.107q-2.8125,5.57552-5.888,10.992Zm-13.488,21.256q3.62553-5.139,7.004-10.463l-2.076-1.317q-3.345,5.2695-6.938,10.362Zm-15.502,19.836q4.113-4.764,7.993-9.728l-1.938-1.515q-3.84152,4.9155-7.917,9.636Zm-17.361,18.23q4.55845-4.34249,8.903-8.903l-1.781-1.697q-4.3005,4.51648-8.818,8.819Zm-19.055,16.451q4.962-3.879,9.728-7.993l-1.607-1.862q-4.719,4.074-9.636,7.917Zm-20.571,14.513q5.322-3.37647,10.463-7.004l-1.418-2.01q-5.091,3.59253-10.362,6.938Zm-21.893,12.429q5.631-2.8395,11.1-5.945l-1.215-2.139q-5.415,3.07352-10.992,5.888ZM380.405,550.27q5.886-2.27253,11.631-4.824l-.998-2.248q-5.688,2.52447-11.519,4.777Zm-23.906,7.893q6.087-1.68,12.051-3.651l-.772-2.335q-5.904,1.94851-11.933,3.616Zm-24.567,5.495q6.228-1.074,12.352-2.444l-.537-2.4q-6.063,1.356-12.232,2.42Zm-24.986,3.053q6.309-.459,12.53-1.22l-.298-2.442q-6.1605.753-12.411,1.209Zm-18.888.685q3.165,0,6.314-.076l-.06-2.459q-3.11852.075-6.254.07495Zm-6.314-.076q3.147.075,6.314.076v-2.46q-3.1365,0-6.255-.07495Zm-25.105-1.829q6.2205.759,12.53,1.22l.179-2.453q-6.249-.45447-12.411-1.209Zm-24.807-4.277q6.12149,1.36953,12.351,2.444l.418-2.424q-6.168-1.06349-12.232-2.42Zm-24.266-6.702q5.96251,1.96948,12.05,3.651l.655-2.371q-6.0285-1.66352-11.934-3.615Zm-23.486-9.066q5.7435,2.55,11.631,4.824l.886-2.295q-5.83048-2.25-11.519-4.777ZM161.602,534.11q5.46747,3.10355,11.099,5.945l1.108-2.196q-5.57551-2.8125-10.993-5.888Zm-21.256-13.489q5.139,3.627,10.462,7.005l1.318-2.076q-5.2695-3.345-10.362-6.938ZM120.51,505.12q4.764,4.113,9.728,7.993l1.515-1.938q-4.91551-3.84147-9.636-7.917Zm-18.23-17.361q4.3425,4.5585,8.903,8.903l1.696-1.781q-4.515-4.302-8.818-8.819ZM85.8289,468.703q3.8787,4.96349,7.993,9.729l1.8617-1.608q-4.07355-4.71753-7.9167-9.635Zm-14.5128-20.57q3.37665,5.322,7.0046,10.463l2.0098-1.418q-3.5919-5.091-6.9376-10.363ZM58.8877,426.24q2.8398,5.62953,5.9451,11.099l2.1389-1.214q-3.0741-5.415-5.8879-10.993ZM48.6732,403.23q2.2725,5.88748,4.8233,11.631l2.2481-.998q-2.5248-5.68653-4.7767-11.519Zm-7.8936-23.905q1.681,6.087,3.6511,12.05l2.3356-.771q-1.9497-5.904-3.6158-11.934Zm-5.4944-24.567q1.0734,6.228,2.4437,12.351l2.4004-.537q-1.356-6.06147-2.4203-12.232Zm-3.0529-24.986q.45915,6.30748,1.2201,12.53l2.4415-.298q-.7524-6.1605-1.2085-12.411Zm-.6849-18.889q0,3.16649.0762,6.314l2.4589-.059q-.0753-3.11851-.0755-6.255Zm.0762-6.313q-.076,3.147-.0762,6.313H34.007q0-3.135.0755-6.254Zm1.8289-25.105q-.75975,6.2205-1.2202,12.53l2.4532.179q.45465-6.249,1.2084-12.411Zm4.2765-24.807q-1.36905,6.12152-2.4438,12.351l2.4239.418q1.063-6.168,2.4202-12.232Zm6.7017-24.266q-1.9686,5.961-3.651,12.05l2.3708.655q1.66485-6.0285,3.6158-11.934Zm9.0658-23.486q-2.5494,5.742-4.8233,11.631l2.2946.886q2.25045-5.8305,4.7767-11.519Zm11.3363-22.478q-3.104,5.46752-5.945,11.099l2.1961,1.108q2.81235-5.577,5.8879-10.993Zm13.4879-21.257q-3.62655,5.1405-7.0046,10.463l2.0768,1.318q3.34425-5.271,6.9375-10.363Zm15.5012-19.836q-4.1127,4.764-7.993,9.729l1.938,1.514q3.8418-4.91551,7.9168-9.635Zm17.3611-18.23q-4.5585,4.3425-8.903,8.903l1.781,1.697q4.3005-4.5165,8.818-8.819Zm19.055-16.451q-4.96352,3.8775-9.728,7.993l1.607,1.861q4.719-4.0725,9.636-7.917Zm20.57-14.5136q-5.3205,3.3768-10.463,7.0046l1.418,2.01q5.091-3.5925,10.363-6.9378Zm21.893-12.4285q-5.6295,2.83965-11.099,5.9452l1.214,2.1389q5.415-3.07425,10.993-5.8881Zm23.01-10.2148q-5.8875,2.2725-11.631,4.8233l.998,2.2481q5.688-2.5248,11.519-4.7768Zm23.905-7.8937q-6.087,1.68105-12.05,3.6511l.771,2.3355q5.904-1.9497,11.934-3.6158Zm24.567-5.4947q-6.228,1.07355-12.351,2.4439l.537,2.4003q6.0615-1.35585,12.232-2.4202Zm24.986-3.0529q-6.30753.45915-12.53,1.2201l.298,2.4415q6.1605-.7524,12.411-1.2085Zm18.889-.685q-3.16653,0-6.314.0763l.059,2.4589q3.11847-.0753,6.255-.0755Zm6.314.0763q-3.1485-.07605-6.314-.0763v2.4597q3.135,0,6.254.0754Zm25.104,1.829q-6.2205-.7599-12.53-1.2202l-.179,2.4531q6.249.4548,12.411,1.2085Zm24.807,4.2765q-6.12148-1.36905-12.351-2.4439l-.417,2.4239q6.168,1.0632,12.232,2.4203Zm24.267,6.7019q-5.96247-1.96875-12.051-3.6512l-.654,2.3709q6.027,1.66485,11.933,3.6158Zm23.485,9.0661q-5.742-2.5494-11.63-4.8233l-.886,2.2946q5.829,2.2506,11.518,4.7768Zm22.479,11.3365q-5.469-3.10395-11.1-5.9451l-1.107,2.1961q5.57547,2.81235,10.992,5.888ZM435.77,101.145q-5.139-3.6261-10.463-7.0045l-1.317,2.0768q5.2695,3.3444,10.362,6.9377Zm19.836,15.502q-4.764-4.113-9.728-7.993l-1.515,1.938q4.9155,3.8415,9.636,7.916Zm18.23,17.361q-4.34249-4.55852-8.903-8.903l-1.697,1.781q4.51653,4.30051,8.819,8.818Zm16.451,19.055q-3.879-4.962-7.993-9.728l-1.862,1.607q4.074,4.719,7.917,9.636ZM504.8,173.634q-3.37647-5.322-7.004-10.463l-2.01,1.418q3.59249,5.091,6.938,10.362Zm12.429,21.893q-2.8395-5.631-5.945-11.1l-2.139,1.215q3.07352,5.415,5.888,10.992Zm10.215,23.009q-2.27242-5.886-4.824-11.631l-2.248.998q2.52447,5.688,4.777,11.519Zm7.893,23.906q-1.68-6.087-3.651-12.051l-2.335.772q1.94852,5.904,3.616,11.933Zm5.495,24.567q-1.07391-6.228-2.444-12.352l-2.4.537q1.35608,6.063,2.42,12.232Zm3.053,24.986q-.459-6.309-1.22-12.53l-2.442.298q.75294,6.1605,1.209,12.411Zm.685,18.888q0-3.165-.076-6.314l-2.459.06q.07507,3.11852.07605,6.254Z"/><path class="cls-1" d="M478.761,317.14q.099-3.117.1-6.256h-2.459q0,3.10048-.1,6.176Zm-2.421,24.837q1.005-6.129,1.616-12.386l-2.448-.238q-.60152,6.174-1.595,12.226Zm-5.648,24.312q1.803-5.95051,3.224-12.06l-2.396-.556q-1.401,6.027-3.182,11.903Zm-8.797,23.363q2.574-5.673,4.784-11.537l-2.302-.867q-2.1795,5.787-4.722,11.387ZM450.11,411.654q3.2985-5.292,6.254-10.809l-2.168-1.161q-2.916,5.4435-6.173,10.669Zm-14.555,20.277q3.96153-4.821,7.608-9.901l-1.998-1.434q-3.597,5.0115-7.51,9.773Zm-17.066,18.214q4.557-4.269,8.829-8.829l-1.794-1.682q-4.215,4.4985-8.717,8.716ZM399.204,465.99q5.076-3.645,9.9-7.608l-1.561-1.9q-4.7595,3.909-9.774,7.51Zm-21.186,13.201q5.5155-2.95355,10.809-6.254l-1.301-2.088q-5.223,3.255-10.669,6.174Zm-22.73,10.314q5.862-2.2065,11.537-4.784l-1.017-2.239q-5.598,2.5395-11.387,4.722Zm-23.885,7.237q6.10647-1.4175,12.06-3.223l-.714-2.354q-5.87247,1.779-11.903,3.182Zm-24.638,4.04q6.25347-.609,12.385-1.615l-.398-2.427q-6.04953.99152-12.226,1.594Zm-18.708.906q3.13947,0,6.256-.101l-.079-2.458q-3.0765.099-6.177.099Zm-6.256-.101q3.1155.10047,6.256.101v-2.46q-3.10053,0-6.177-.099Zm-24.837-2.42q6.129,1.005,12.385,1.615l.238-2.448q-6.17255-.6-12.225-1.594Zm-24.313-5.648q5.9505,1.803,12.06,3.224l.557-2.396q-6.02853-1.401-11.903-3.182Zm-23.362-8.797q5.673,2.574,11.537,4.784l.867-2.302q-5.787-2.1795-11.387-4.722Zm-22.002-11.784q5.292,3.297,10.809,6.253l1.161-2.168q-5.44349-2.916-10.669-6.173ZM167.01,458.383q4.821,3.96,9.901,7.608l1.434-1.999q-5.0115-3.597-9.773-7.51Zm-18.214-17.067q4.2705,4.557,8.829,8.83l1.682-1.795q-4.49851-4.215-8.716-8.717Zm-15.844-19.285q3.6435,5.076,7.607,9.9l1.901-1.561q-3.91052-4.75951-7.51-9.774Zm-13.201-21.186q2.9535,5.5155,6.254,10.809l2.087-1.301q-3.255-5.223-6.173-10.669Zm-10.314-22.73q2.208,5.862,4.784,11.536l2.24-1.016q-2.541-5.598-4.722-11.387ZM102.2,354.229q1.419,6.108,3.224,12.06l2.354-.713q-1.779-5.87247-3.182-11.904Zm-4.0391-24.638q.60855,6.255,1.6154,12.386l2.4277-.398q-.993-6.04953-1.595-12.226Zm-.9055-18.707q0,3.13948.1006,6.255l2.4583-.079q-.099-3.075-.0993-6.176Zm.1006-6.256q-.10035,3.1155-.1006,6.256H99.715q0-3.10052.0993-6.177Zm2.4202-24.838q-1.00455,6.1305-1.6153,12.386l2.4481.238q.6-6.17248,1.594-12.226Zm5.6478-24.312q-1.803,5.95052-3.224,12.06l2.396.557q1.401-6.02852,3.182-11.904Zm8.797-23.362q-2.574,5.6715-4.784,11.537l2.302.866q2.178-5.7855,4.722-11.387Zm11.784-22.002q-3.297,5.29051-6.254,10.809l2.169,1.161q2.9145-5.4435,6.172-10.67Zm14.554-20.277q-3.96,4.81949-7.607,9.9l1.998,1.434q3.597-5.01151,7.51-9.773Zm17.067-18.215q-4.557,4.2705-8.83,8.829l1.795,1.682q4.215-4.4985,8.716-8.716Zm19.285-15.845q-5.0775,3.645-9.9,7.608l1.561,1.9q4.75949-3.909,9.773-7.51Zm21.185-13.201q-5.514,2.955-10.809,6.254l1.301,2.088q5.223-3.255,10.67-6.173Zm22.73-10.314q-5.862,2.208-11.536,4.784l1.016,2.24q5.598-2.541,11.387-4.722Zm23.886-7.237q-6.108,1.419-12.06,3.224l.713,2.354q5.87248-1.7805,11.903-3.182Zm24.637-4.04q-6.25352.609-12.385,1.616l.398,2.427q6.04948-.9915,12.226-1.595Zm18.708-.905q-3.13953,0-6.256.1l.079,2.459q3.0765-.099,6.177-.1Zm6.256.1q-3.1155-.099-6.256-.1v2.459q3.10047,0,6.177.1Zm24.838,2.421q-6.1305-1.005-12.386-1.616l-.238,2.448q6.17248.6015,12.226,1.595Zm24.312,5.648q-5.95052-1.803-12.06-3.224l-.557,2.396q6.02847,1.401,11.904,3.182Zm23.362,8.797q-5.6715-2.574-11.537-4.784l-.867,2.302q5.787,2.1795,11.387,4.722Zm22.002,11.785q-5.29052-3.29848-10.809-6.254l-1.161,2.168q5.4435,2.916,10.669,6.173Zm20.277,14.554q-4.821-3.96-9.9-7.607l-1.434,1.998q5.0115,3.597,9.773,7.51Zm18.215,17.067q-4.27053-4.557-8.83-8.829l-1.681,1.794q4.4985,4.215,8.716,8.717Zm15.844,19.285q-3.64347-5.076-7.607-9.9l-1.901,1.561q3.91049,4.75952,7.51,9.774Zm13.201,21.186q-2.95353-5.5155-6.254-10.809l-2.087,1.301q3.255,5.223,6.173,10.669Zm10.315,22.73q-2.208-5.862-4.784-11.537l-2.24,1.017q2.541,5.598,4.722,11.387Zm7.237,23.885q-1.419-6.10647-3.224-12.06l-2.354.714q1.779,5.8725,3.182,11.903Zm4.04,24.638q-.609-6.2535-1.616-12.385l-2.427.398q.99153,6.04947,1.594,12.225Zm.905,18.708q0-3.141-.101-6.256l-2.458.079q.099,3.0765.1,6.177Z"/><path class="cls-2" d="M411.879,12.874l-5.04-.1353-.066,2.4588,5.04.1353Zm-5.04-.1353a1.22924,1.22924,0,0,0-1.156.7284,1.23287,1.23287,0,0,0,.23,1.347,1.23125,1.23125,0,0,0,.86.3834Zm4.974,2.5941a1.2312,1.2312,0,0,0,1.161-.727,1.22523,1.22523,0,0,0,.025-.9435,1.23053,1.23053,0,0,0-1.12-.7883Z"/><path class="cls-2" d="M397.578,1.91424,397.501,6.221l2.459.04353.077-4.30677ZM397.501,6.221a1.239,1.239,0,0,0,.084.47412,1.20582,1.20582,0,0,0,.259.40578,1.22931,1.22931,0,0,0,2.116-.83637Zm2.536-4.26324a1.22969,1.22969,0,0,0-2.459-.04353Z"/><path class="cls-2" d="M384.75,14.1207l5.04.1328.064-2.4587-5.039-.1328Zm5.04.1328a1.23108,1.23108,0,0,0,1.161-.7273,1.22581,1.22581,0,0,0,.025-.9438,1.23112,1.23112,0,0,0-1.122-.7876Zm-4.975-2.5915a1.22978,1.22978,0,0,0-.065,2.4587Z"/><path class="cls-2" d="M399.052,25.0804l.077-4.3068-2.46-.0436-.076,4.3068Zm.077-4.3068a1.23019,1.23019,0,0,0-2.46-.0436Zm-2.536,4.2632a1.23852,1.23852,0,0,0,.083.4741,1.22985,1.22985,0,0,0,2.376-.4305Z"/><path class="cls-3" d="M38.6409,479.116a21.87778,21.87778,0,0,0-11.7298,12.729c-.3468-5.869-4.0731-13.245-8.1733-14.308A22.42051,22.42051,0,0,0,30.6005,463.79C30.3398,469.531,35.5517,477.867,38.6409,479.116Z"/><path class="cls-3" d="M123.553,37.1717a16.39544,16.39544,0,0,0-9.838,8.4635c.248-4.4002-1.889-10.2172-4.851-11.3634a16.81939,16.81939,0,0,0,10.026-9.2137C118.198,29.3132,121.359,35.9738,123.553,37.1717Z"/><path class="cls-4" d="M494.216,69.1248a6.75734,6.75734,0,1,1,2.599-.4577A6.763,6.763,0,0,1,494.216,69.1248Z"/><path class="cls-3" d="M494.234,512.229a5.88768,5.88768,0,1,1,2.263-.399A5.88243,5.88243,0,0,1,494.234,512.229Z"/><path class="cls-2" d="M7.89448,155.274a2.41857,2.41857,0,0,1-.744,1.693,2.41493,2.41493,0,0,1-1.72325.671l-.05411,2.459a4.87636,4.87636,0,0,0,4.98041-4.769Zm-2.364-2.465a2.41713,2.41713,0,0,1,2.364,2.465l2.459.054a4.87608,4.87608,0,0,0-4.76889-4.978Zm-2.46479,2.36a2.41251,2.41251,0,0,1,2.46479-2.36l.05411-2.459a4.8727,4.8727,0,0,0-4.978,4.768Zm2.36149,2.469a2.41506,2.41506,0,0,1-2.36149-2.469l-2.45907-.051a4.87468,4.87468,0,0,0,4.76645,4.979Z"/><path class="cls-5" d="M354.418,396.903H245.036a5.67336,5.67336,0,0,1-5.674-5.673V241.19a5.67355,5.67355,0,0,1,5.674-5.674H354.418a5.67357,5.67357,0,0,1,5.674,5.674V391.23A5.67337,5.67337,0,0,1,354.418,396.903Z"/><path class="cls-6" d="M264.219,327.789a1.99946,1.99946,0,0,1,2-2h53.66a1.99944,1.99944,0,0,1,2,2v8.968a2.00008,2.00008,0,0,1-2,2h-53.66a2.0001,2.0001,0,0,1-2-2Zm0,32.559a2.0001,2.0001,0,0,1,2-2h67.017a2.00072,2.00072,0,0,1,2,2v8.969a2.00072,2.00072,0,0,1-2,2H266.219a2.0001,2.0001,0,0,1-2-2Zm0-97.246a2.0001,2.0001,0,0,1,2-2h53.66a2.00008,2.00008,0,0,1,2,2v8.969a2.0001,2.0001,0,0,1-2,2h-53.66a2.00011,2.00011,0,0,1-2-2Zm0,32.561a1.99947,1.99947,0,0,1,2-2h66.297a1.99946,1.99946,0,0,1,2,2v8.968a2.0001,2.0001,0,0,1-2,2H266.219a2.00011,2.00011,0,0,1-2-2Z"/><path class="cls-7" d="M261.745,261.407a37.424,37.424,0,1,0-52.017,9.762A37.42512,37.42512,0,0,0,261.745,261.407Z"/><path class="cls-8" d="M219.415,215.927a6.04307,6.04307,0,0,0-2.751,8.297l13.832,25.953a4.53587,4.53587,0,0,0,8.197-3.85l-11.137-27.218a6.08234,6.08234,0,0,0-8.141-3.182Z"/><path class="cls-8" d="M242.279,264.654a4.33544,4.33544,0,1,0-1.641.407A4.328,4.328,0,0,0,242.279,264.654Z"/></svg>