<svg id="Layer_1" data-name="Layer 1" xmlns="http://www.w3.org/2000/svg" viewBox="0 0 646.01373 566.68677"><defs><style>.cls-1{fill:#e9eaec;}.cls-2{fill:#f1f2f7;}.cls-3{fill:#d8dbea;}.cls-4{fill:#e21b22;}.cls-5{fill:#fff;}.cls-6{fill:#d2d8df;}.cls-7{fill:#ebecef;}.cls-7,.cls-8{fill-rule:evenodd;}.cls-8{fill:#d1d9e0;}</style></defs><title>no-subscriptions-found</title><path class="cls-1" d="M587.196,317.198q.07655-3.1485.076-6.315h-2.459q0,3.1365-.076,6.255Zm-1.829,25.104q.76053-6.2205,1.22-12.53l-2.453-.179q-.45447,6.249-1.20794,12.411Zm-4.276,24.807q1.368-6.12149,2.443-12.351l-2.423-.418q-1.06356,6.1695-2.421,12.233Zm-6.702,24.266q1.968-5.961,3.651-12.05l-2.371-.655q-1.665,6.02849-3.616,11.934Zm-9.066,23.486q2.54845-5.742,4.823-11.63l-2.295-.886q-2.25,5.829-4.777,11.518ZM553.986,437.34q3.10345-5.46748,5.945-11.1l-2.196-1.107q-2.8125,5.57552-5.888,10.992Zm-13.488,21.256q3.627-5.139,7.005-10.463l-2.077-1.317q-3.34508,5.2695-6.938,10.362Zm-15.502,19.836q4.113-4.764,7.994-9.728l-1.938-1.515q-3.843,4.9155-7.917,9.636Zm-17.361,18.23q4.56-4.34249,8.903-8.903l-1.781-1.697q-4.30052,4.51648-8.818,8.819ZM488.58,513.113q4.96353-3.879,9.728-7.993l-1.607-1.862q-4.719,4.074-9.636,7.917Zm-20.57,14.513q5.3205-3.37647,10.462-7.004l-1.418-2.01q-5.091,3.59253-10.362,6.938Zm-21.894,12.429q5.631-2.8395,11.1-5.945l-1.214-2.139q-5.41653,3.07352-10.993,5.888ZM423.107,550.27q5.886-2.27253,11.631-4.824l-.998-2.248q-5.688,2.52447-11.519,4.777Zm-23.906,7.893q6.087-1.68,12.051-3.651l-.771-2.335q-5.90547,1.94851-11.934,3.616Zm-24.566,5.495q6.228-1.074,12.351-2.444l-.537-2.4q-6.063,1.356-12.232,2.42Zm-24.987,3.053q6.309-.459,12.53-1.22l-.298-2.442q-6.16048.753-12.41,1.209Zm-18.888.685q3.165,0,6.314-.076l-.06-2.459q-3.117.075-6.254.07495Zm-6.314-.076q3.147.075,6.314.076v-2.46q-3.1365,0-6.255-.07495Zm-25.105-1.829q6.22051.759,12.531,1.22l.178-2.453q-6.249-.45447-12.411-1.209Zm-24.807-4.277q6.12149,1.36953,12.351,2.444l.418-2.424q-6.168-1.06349-12.232-2.42Zm-24.266-6.702q5.96249,1.96948,12.05,3.651l.655-2.371q-6.02847-1.66352-11.934-3.615Zm-23.486-9.066q5.74348,2.55,11.631,4.824l.886-2.295q-5.8305-2.25-11.519-4.777ZM204.304,534.11q5.46751,3.10355,11.1,5.945l1.107-2.196q-5.57549-2.8125-10.992-5.888Zm-21.256-13.489q5.139,3.627,10.463,7.005l1.317-2.076q-5.2695-3.345-10.362-6.938ZM163.212,505.12q4.764,4.113,9.728,7.993l1.515-1.938q-4.91552-3.84147-9.635-7.917Zm-18.23-17.361q4.34252,4.5585,8.903,8.903l1.697-1.781q-4.5165-4.302-8.819-8.819Zm-16.451-19.056q3.879,4.96349,7.993,9.729l1.862-1.608q-4.074-4.71753-7.917-9.635Zm-14.513-20.57q3.3765,5.322,7.005,10.463l2.01-1.418q-3.5925-5.091-6.938-10.363ZM101.59,426.24q2.8395,5.62953,5.945,11.099l2.139-1.214q-3.075-5.415-5.888-10.993ZM91.3754,403.23q2.27235,5.88748,4.8233,11.631l2.2481-.998q-2.525-5.68653-4.7767-11.519Zm-7.8936-23.905q1.681,6.087,3.651,12.05l2.3356-.771q-1.9497-5.904-3.6158-11.934Zm-5.4945-24.567q1.0734,6.228,2.4438,12.351l2.4003-.537q-1.35585-6.06147-2.4202-12.232Zm-3.0529-24.986q.45915,6.30748,1.2202,12.53l2.4414-.298q-.7524-6.1605-1.2084-12.411Zm-.6849-18.889q0,3.16649.0763,6.314l2.4589-.059q-.07545-3.11851-.0755-6.255Zm.0763-6.313q-.07605,3.147-.0763,6.313h2.4597q0-3.135.0754-6.254Zm1.8288-25.105q-.75975,6.2205-1.2201,12.53l2.4531.179q.4548-6.249,1.2085-12.411Zm4.2765-24.807q-1.36905,6.12152-2.4437,12.351l2.4238.418q1.0632-6.168,2.4203-12.232Zm6.7018-24.266q-1.96875,5.961-3.6511,12.05l2.3709.655q1.6647-6.0285,3.6157-11.934Zm9.0657-23.486q-2.5494,5.742-4.8233,11.631l2.2946.886q2.2506-5.8305,4.7767-11.519Zm11.3364-22.478q-3.1035,5.46752-5.945,11.099l2.196,1.108q2.8125-5.577,5.888-10.993Zm13.488-21.257q-3.627,5.1405-7.005,10.463l2.077,1.318q3.345-5.271,6.938-10.363Zm15.501-19.836q-4.113,4.764-7.993,9.729l1.938,1.514q3.84152-4.91551,7.917-9.635Zm17.361-18.23q-4.5585,4.3425-8.903,8.903l1.781,1.697q4.302-4.5165,8.819-8.819Zm19.055-16.451q-4.9635,3.8775-9.728,7.993l1.607,1.861q4.719-4.0725,9.636-7.917Zm20.57-14.5136q-5.32048,3.3768-10.462,7.0046l1.418,2.01q5.091-3.5925,10.362-6.9378Zm21.893-12.4285q-5.62951,2.83965-11.099,5.9452l1.214,2.1389q5.415-3.07425,10.993-5.8881Zm23.01-10.2148q-5.88747,2.2725-11.631,4.8233l.998,2.2481q5.688-2.5248,11.519-4.7768Zm23.905-7.8937q-6.087,1.68105-12.05,3.6511l.771,2.3355q5.904-1.9497,11.934-3.6158Zm24.567-5.4947q-6.228,1.07355-12.351,2.4439l.537,2.4003q6.063-1.35585,12.232-2.4202Zm24.986-3.0529q-6.30751.45915-12.53,1.2201l.298,2.4415q6.162-.7524,12.411-1.2085Zm18.889-.685q-3.16653,0-6.314.0763l.059,2.4589q3.11852-.0753,6.255-.0755Zm6.314.0763q-3.1485-.07605-6.314-.0763v2.4597q3.1365,0,6.254.0754Zm25.104,1.829q-6.2205-.7599-12.53-1.2202l-.178,2.4531q6.24752.4548,12.41,1.2085Zm24.808,4.2765q-6.123-1.36905-12.352-2.4439l-.417,2.4239q6.168,1.0632,12.232,2.4203Zm24.266,6.7019q-5.9625-1.96875-12.051-3.6512l-.654,2.3709q6.027,1.66485,11.933,3.6158Zm23.486,9.0661q-5.74351-2.5494-11.631-4.8233l-.886,2.2946q5.83049,2.2506,11.519,4.7768Zm22.478,11.3365q-5.46749-3.10395-11.1-5.9451l-1.107,2.1961q5.57551,2.81235,10.992,5.888Zm21.256,13.4879q-5.139-3.6261-10.462-7.0045l-1.318,2.0768q5.2695,3.3444,10.362,6.9377Zm19.836,15.502q-4.764-4.113-9.728-7.993l-1.515,1.938q4.91552,3.8415,9.636,7.916Zm18.23,17.361q-4.34251-4.55852-8.903-8.903l-1.696,1.781q4.515,4.30051,8.818,8.818Zm16.451,19.055q-3.87753-4.962-7.993-9.728l-1.861,1.607q4.07245,4.719,7.916,9.636Zm14.514,20.571q-3.378-5.322-7.005-10.463l-2.01,1.418q3.59253,5.091,6.938,10.362Zm12.428,21.893q-2.83952-5.631-5.945-11.1l-2.139,1.215q3.07353,5.415,5.888,10.992Zm10.215,23.009q-2.27253-5.886-4.824-11.631l-2.248.998q2.526,5.688,4.777,11.519Zm7.894,23.906q-1.68146-6.087-3.652-12.051l-2.335.772q1.95007,5.904,3.616,11.933Zm5.494,24.567q-1.07254-6.228-2.444-12.352l-2.4.537q1.356,6.063,2.42,12.232Zm3.053,24.986q-.459-6.309-1.22-12.53l-2.442.298q.753,6.1605,1.209,12.411Zm.685,18.888q0-3.165-.076-6.314l-2.459.06q.075,3.11852.076,6.254Z" transform="translate(-0.5791 -0.70923)"/><path class="cls-1" d="M521.463,317.14q.10053-3.117.1-6.256h-2.459q0,3.10048-.1,6.176Zm-2.421,24.837q1.005-6.129,1.616-12.386l-2.448-.238q-.6015,6.174-1.595,12.226Zm-5.648,24.312q1.803-5.95051,3.224-12.06l-2.396-.556q-1.39947,6.027-3.182,11.903Zm-8.797,23.363q2.574-5.673,4.784-11.537l-2.302-.867q-2.1795,5.787-4.722,11.387Zm-11.785,22.002q3.29847-5.292,6.254-10.809l-2.168-1.161q-2.916,5.4435-6.173,10.669Zm-14.554,20.277q3.96-4.821,7.607-9.901l-1.998-1.434q-3.597,5.0115-7.51,9.773Zm-17.067,18.214q4.557-4.269,8.83-8.829l-1.795-1.682q-4.215,4.4985-8.716,8.716ZM441.906,465.99q5.076-3.645,9.9-7.608l-1.561-1.9q-4.75951,3.909-9.773,7.51ZM420.72,479.191q5.5155-2.95355,10.809-6.254l-1.301-2.088q-5.223,3.255-10.669,6.174Zm-22.73,10.314q5.8635-2.2065,11.537-4.784l-1.017-2.239q-5.598,2.5395-11.387,4.722Zm-23.885,7.237q6.10647-1.4175,12.06-3.223l-.713-2.354q-5.874,1.779-11.904,3.182Zm-24.638,4.04q6.25347-.609,12.385-1.615l-.397-2.427q-6.051.99152-12.226,1.594Zm-18.708.906q3.13948,0,6.256-.101l-.079-2.458q-3.07648.099-6.177.099Zm-6.256-.101q3.1155.10047,6.256.101v-2.46q-3.10052,0-6.177-.099Zm-24.837-2.42q6.129,1.005,12.385,1.615l.239-2.448q-6.174-.6-12.226-1.594Zm-24.312-5.648q5.95052,1.803,12.06,3.224l.556-2.396q-6.02852-1.401-11.903-3.182Zm-23.362-8.797q5.67148,2.574,11.536,4.784l.867-2.302q-5.787-2.1795-11.387-4.722Zm-22.003-11.784q5.292,3.297,10.809,6.253l1.162-2.168q-5.445-2.916-10.67-6.173Zm-20.276-14.555q4.81949,3.96,9.9,7.608l1.434-1.999q-5.01151-3.597-9.773-7.51Zm-18.215-17.067q4.2705,4.557,8.83,8.83l1.681-1.795q-4.49851-4.215-8.716-8.717Zm-15.844-19.285q3.64347,5.076,7.607,9.9l1.901-1.561q-3.91052-4.75951-7.51-9.774Zm-13.201-21.186q2.955,5.5155,6.254,10.809l2.087-1.301q-3.25351-5.223-6.172-10.669Zm-10.314-22.73q2.208,5.862,4.784,11.536l2.24-1.016q-2.541-5.598-4.722-11.387Zm-7.236-23.886q1.41752,6.108,3.223,12.06l2.354-.713q-1.779-5.87247-3.182-11.904Zm-4.04-24.638q.609,6.255,1.615,12.386l2.428-.398q-.99152-6.04953-1.595-12.226Zm-.905-18.707q0,3.13948.1,6.255l2.458-.079q-.099-3.075-.099-6.176Zm.1-6.256q-.1005,3.1155-.1,6.256h2.459q0-3.10052.099-6.177Zm2.42-24.838q-1.00349,6.1305-1.615,12.386l2.448.238q.60151-6.17248,1.595-12.226Zm5.648-24.312q-1.803,5.95052-3.223,12.06l2.395.557q1.401-6.02852,3.182-11.904Zm8.797-23.362q-2.574,5.6715-4.784,11.537l2.302.866q2.17952-5.7855,4.722-11.387Zm11.784-22.002q-3.297,5.29051-6.254,10.809l2.169,1.161q2.916-5.4435,6.173-10.67Zm14.555-20.277q-3.96148,4.81949-7.608,9.9l1.998,1.434q3.597-5.01151,7.51-9.773Zm17.066-18.215q-4.557,4.2705-8.83,8.829l1.795,1.682q4.215-4.4985,8.716-8.716Zm19.285-15.845q-5.07751,3.645-9.9,7.608l1.561,1.9q4.75952-3.909,9.773-7.51Zm21.185-13.201q-5.514,2.955-10.809,6.254l1.301,2.088q5.223-3.255,10.67-6.173Zm22.73-10.314q-5.862,2.208-11.536,4.784l1.016,2.24q5.598-2.541,11.387-4.722Zm23.886-7.237q-6.108,1.419-12.06,3.224l.713,2.354q5.8725-1.7805,11.903-3.182Zm24.637-4.04q-6.2535.609-12.385,1.616l.398,2.427q6.04947-.9915,12.226-1.595Zm18.708-.905q-3.13951,0-6.256.1l.08,2.459q3.075-.099,6.176-.1Zm6.256.1q-3.11553-.099-6.256-.1v2.459q3.10048,0,6.177.1Zm24.838,2.421q-6.13052-1.005-12.386-1.616l-.238,2.448q6.174.6015,12.226,1.595Zm24.312,5.648q-5.95052-1.803-12.06-3.224l-.557,2.396q6.02848,1.401,11.904,3.182Zm23.362,8.797q-5.67152-2.574-11.537-4.784l-.866,2.302q5.7855,2.1795,11.387,4.722Zm22.002,11.785q-5.29047-3.29848-10.809-6.254l-1.161,2.168q5.4435,2.916,10.67,6.173Zm20.277,14.554q-4.821-3.96-9.9-7.607l-1.434,1.998q5.01152,3.597,9.773,7.51Zm18.215,17.067q-4.27049-4.557-8.83-8.829l-1.681,1.794q4.49849,4.215,8.716,8.717Zm15.845,19.285q-3.645-5.076-7.608-9.9l-1.901,1.561q3.9105,4.75952,7.51,9.774Zm13.2,21.186q-2.95355-5.5155-6.254-10.809l-2.087,1.301q3.255,5.223,6.173,10.669Zm10.315,22.73q-2.208-5.862-4.784-11.537l-2.24,1.017q2.541,5.598,4.722,11.387Zm7.237,23.885q-1.419-6.10647-3.224-12.06l-2.354.714q1.78047,5.8725,3.182,11.903Zm4.04,24.638q-.609-6.2535-1.616-12.385l-2.427.398q.99151,6.04947,1.595,12.225Zm.905,18.708q0-3.141-.1-6.256l-2.459.079q.099,3.0765.1,6.177Z" transform="translate(-0.5791 -0.70923)"/><path class="cls-2" d="M401.936,359.587a9.557,9.557,0,0,1-7.471,9.385,285.94216,285.94216,0,0,1-123.191,0,9.58018,9.58018,0,0,1-5.923-14.579,73.56146,73.56146,0,0,0,11.967-40.273V301.788a55.86987,55.86987,0,0,1,22.293-44.404,52.41917,52.41917,0,0,1,23.235-10.297,12.11946,12.11946,0,0,1-2.217-7.016,12.24017,12.24017,0,1,1,22.111,7.199,50.89736,50.89736,0,0,1,5.072,1.184,55.47621,55.47621,0,0,1,36.933,33.44c3.888,9.173,3.767,20.35,3.706,30.221l-.031,2.035a73.53989,73.53989,0,0,0,11.967,40.243A9.36529,9.36529,0,0,1,401.936,359.587Z" transform="translate(-0.5791 -0.70923)"/><path class="cls-3" d="M315.77,381.243c5.679.364,11.389.516,17.099.516s11.42-.152,17.1-.516c2.278-.122,4.556-.274,6.803-.456a25.2415,25.2415,0,0,1-47.806,0C311.214,380.969,313.492,381.121,315.77,381.243Z" transform="translate(-0.5791 -0.70923)"/><path class="cls-4" d="M304.447,261.407a37.424,37.424,0,1,0-52.017,9.762A37.42421,37.42421,0,0,0,304.447,261.407Z" transform="translate(-0.5791 -0.70923)"/><path class="cls-5" d="M262.117,215.927a6.04306,6.04306,0,0,0-2.751,8.297l13.832,25.953a4.53587,4.53587,0,0,0,8.197-3.85l-11.137-27.218a6.08233,6.08233,0,0,0-8.141-3.182Z" transform="translate(-0.5791 -0.70923)"/><path class="cls-5" d="M284.981,264.654a4.33541,4.33541,0,1,0-1.641.407A4.32812,4.32812,0,0,0,284.981,264.654Z" transform="translate(-0.5791 -0.70923)"/><path class="cls-6" d="M27.2892,344.025l-4.7396-.145-.0753,2.459,4.7396.145Zm-4.7396-.145a1.23007,1.23007,0,0,0-.0753,2.459Zm4.6643,2.604a1.23009,1.23009,0,0,0,.0753-2.459Z" transform="translate(-0.5791 -0.70923)"/><path class="cls-6" d="M23.0126,335.369l-3.3992,3.175,1.679,1.797,3.3992-3.175Zm-3.3992,3.175a1.23018,1.23018,0,0,0-.3147,1.332,1.22659,1.22659,0,0,0,.6435.689,1.22228,1.22228,0,0,0,.4681.109,1.22306,1.22306,0,0,0,.8821-.333Zm5.0782-1.378a1.23122,1.23122,0,0,0,.3919-.857,1.229,1.229,0,0,0-1.1888-1.273,1.23426,1.23426,0,0,0-.8821.333Z" transform="translate(-0.5791 -0.70923)"/><path class="cls-6" d="M13.7629,332.145l-.0713,4.634,2.4593.038.0713-4.634Zm-.0713,4.634a1.23087,1.23087,0,0,0,.3459.876,1.22623,1.22623,0,0,0,.8648.375,1.23086,1.23086,0,0,0,1.2486-1.213Zm2.5306-4.596a1.229,1.229,0,0,0-.741-1.15,1.22776,1.22776,0,0,0-.9422-.014,1.23165,1.23165,0,0,0-.6759.656,1.23279,1.23279,0,0,0-.1002.47Z" transform="translate(-0.5791 -0.70923)"/><path class="cls-6" d="M4.98134,336.204l3.30079,3.38,1.75957-1.719-3.30081-3.379Zm3.30079,3.38a1.23,1.23,0,1,0,1.75957-1.719Zm-1.54124-5.098a1.2296,1.2296,0,1,0-1.75955,1.718Z" transform="translate(-0.5791 -0.70923)"/><path class="cls-6" d="M1.77126,345.18l4.73721.145.07531-2.459-4.73721-.145Zm4.73721.145a1.23008,1.23008,0,0,0,.07531-2.459Zm-4.6619-2.604a1.23007,1.23007,0,0,0-.07531,2.459Z" transform="translate(-0.5791 -0.70923)"/><path class="cls-6" d="M6.045,353.836l3.40164-3.175-1.67836-1.798-3.40164,3.175Zm3.40164-3.175a1.22879,1.22879,0,0,0-.32779-2.021,1.223,1.223,0,0,0-.94256-.031,1.22353,1.22353,0,0,0-.408.254Zm-5.08,1.377a1.22948,1.22948,0,0,0,.796,2.131,1.22374,1.22374,0,0,0,.88238-.333Z" transform="translate(-0.5791 -0.70923)"/><path class="cls-6" d="M15.2984,357.061l.0713-4.634-2.4594-.038-.0713,4.634Zm.0713-4.634a1.22718,1.22718,0,0,0-.7416-1.147,1.20515,1.20515,0,0,0-.4692-.101,1.22925,1.22925,0,0,0-1.2486,1.21Zm-2.5307,4.596a1.22723,1.22723,0,0,0,.0864.472,1.21185,1.21185,0,0,0,.2604.403,1.22976,1.22976,0,0,0,2.1126-.837Z" transform="translate(-0.5791 -0.70923)"/><path class="cls-6" d="M24.0788,353l-3.3008-3.379-1.7596,1.719,3.3008,3.379Zm-3.3008-3.379a1.23,1.23,0,1,0-1.7596,1.719Zm1.5412,5.098A1.23,1.23,0,0,0,24.0788,353Z" transform="translate(-0.5791 -0.70923)"/><path class="cls-6" d="M644.454,278.354l-2.083,2.255,1.807,1.669,2.083-2.255Zm-2.083,2.255a1.22591,1.22591,0,0,0-.213,1.35,1.20164,1.20164,0,0,0,.282.388,1.21466,1.21466,0,0,0,.409.251,1.23729,1.23729,0,0,0,.474.075,1.25945,1.25945,0,0,0,.467-.112,1.24345,1.24345,0,0,0,.388-.283Zm3.89-.586a1.237,1.237,0,0,0,.254-.41,1.22113,1.22113,0,0,0,.077-.475,1.22673,1.22673,0,0,0-.394-.859,1.23492,1.23492,0,0,0-.888-.325,1.24323,1.24323,0,0,0-.468.114,1.23028,1.23028,0,0,0-.388.286Z" transform="translate(-0.5791 -0.70923)"/><path class="cls-6" d="M634.745,282.053l1.572,1.448,1.667-1.808-1.572-1.449Zm1.572,1.448a1.22961,1.22961,0,0,0,1.667-1.808Zm.095-3.257a1.243,1.243,0,0,0-.41-.25,1.21139,1.21139,0,0,0-.474-.074,1.23,1.23,0,0,0-.783,2.133Z" transform="translate(-0.5791 -0.70923)"/><path class="cls-6" d="M634.896,291.98l2.084-2.256-1.807-1.668L633.09,290.311Zm2.084-2.256a1.22962,1.22962,0,1,0-1.807-1.668Zm-3.88995.587a1.22954,1.22954,0,0,0,1.806,1.669Z" transform="translate(-0.5791 -0.70923)"/><path class="cls-6" d="M644.604,288.282l-1.569-1.449L641.366,288.64l1.56994,1.449Zm-1.569-1.449a1.22573,1.22573,0,0,0-.41-.25,1.21272,1.21272,0,0,0-.474-.075,1.22989,1.22989,0,0,0-.785,2.132Zm-.099,3.256a1.20487,1.20487,0,0,0,.409.253,1.22306,1.22306,0,0,0,.475.077,1.2608,1.2608,0,0,0,.468-.112,1.22941,1.22941,0,0,0,.715-1.17,1.22876,1.22876,0,0,0-.399-.855Z" transform="translate(-0.5791 -0.70923)"/><path class="cls-6" d="M454.581,12.874l-5.04-.1353-.066,2.4588,5.04.1353Zm-5.04-.1353a1.22924,1.22924,0,0,0-1.156.7284,1.23287,1.23287,0,0,0,.23,1.347,1.23125,1.23125,0,0,0,.86.3834Zm4.974,2.5941a1.235,1.235,0,0,0,.475-.0793,1.23412,1.23412,0,0,0,.686-.6477,1.22517,1.22517,0,0,0,.025-.9435,1.23017,1.23017,0,0,0-.65-.6836,1.23558,1.23558,0,0,0-.47-.1047Z" transform="translate(-0.5791 -0.70923)"/><path class="cls-6" d="M440.28,1.91424,440.203,6.221l2.46.04353.076-4.30677ZM440.203,6.221a1.23372,1.23372,0,0,0,.343.8799,1.23081,1.23081,0,0,0,2.117-.83637Zm2.536-4.26324a1.2297,1.2297,0,0,0-2.459-.04353Z" transform="translate(-0.5791 -0.70923)"/><path class="cls-6" d="M427.452,14.1207l5.04.1328.065-2.4587-5.04-.1328Zm5.04.1328a1.23123,1.23123,0,0,0,1.161-.7273,1.226,1.226,0,0,0,.025-.9438,1.22487,1.22487,0,0,0-.258-.4067,1.21205,1.21205,0,0,0-.394-.2766,1.22443,1.22443,0,0,0-.469-.1043Zm-4.975-2.5915a1.22978,1.22978,0,0,0-.065,2.4587Z" transform="translate(-0.5791 -0.70923)"/><path class="cls-6" d="M441.754,25.0804l.077-4.3068-2.46-.0436-.076,4.3068Zm.077-4.3068a1.23019,1.23019,0,0,0-2.46-.0436Zm-2.536,4.2632a1.23882,1.23882,0,0,0,.084.4741,1.206,1.206,0,0,0,.259.4058,1.22932,1.22932,0,0,0,2.116-.8363Z" transform="translate(-0.5791 -0.70923)"/><path class="cls-7" d="M81.3431,479.116a21.87836,21.87836,0,0,0-11.7299,12.729c-.3468-5.869-4.0731-13.245-8.1733-14.308A22.42051,22.42051,0,0,0,73.3026,463.79C73.0419,469.531,78.2538,477.867,81.3431,479.116Z" transform="translate(-0.5791 -0.70923)"/><path class="cls-7" d="M166.255,37.1717a16.39539,16.39539,0,0,0-9.838,8.4635c.248-4.4002-1.889-10.2172-4.851-11.3634a16.81944,16.81944,0,0,0,10.026-9.2137C160.901,29.3132,164.061,35.9738,166.255,37.1717Z" transform="translate(-0.5791 -0.70923)"/><path class="cls-8" d="M536.918,69.1248a6.75716,6.75716,0,1,1,2.599-.4577A6.76295,6.76295,0,0,1,536.918,69.1248Z" transform="translate(-0.5791 -0.70923)"/><path class="cls-7" d="M536.937,512.229a5.88772,5.88772,0,1,1,2.262-.399A5.883,5.883,0,0,1,536.937,512.229Z" transform="translate(-0.5791 -0.70923)"/><path class="cls-6" d="M50.5966,155.274a2.41837,2.41837,0,0,1-.744,1.693,2.415,2.415,0,0,1-1.7233.671l-.0541,2.459a4.87666,4.87666,0,0,0,4.9805-4.769Zm-2.3639-2.465a2.417,2.417,0,0,1,2.3639,2.465l2.4591.054a4.87615,4.87615,0,0,0-4.7689-4.978Zm-2.4648,2.36a2.41244,2.41244,0,0,1,2.4648-2.36l.0541-2.459a4.87264,4.87264,0,0,0-4.978,4.768Zm2.3614,2.469a2.41485,2.41485,0,0,1-2.3614-2.469l-2.4591-.051a4.8747,4.8747,0,0,0,4.7664,4.979Z" transform="translate(-0.5791 -0.70923)"/></svg>