<svg id="Layer_1" data-name="Layer 1" xmlns="http://www.w3.org/2000/svg" xmlns:xlink="http://www.w3.org/1999/xlink" viewBox="0 0 600 600"><defs><style>.cls-1{fill:none;}.cls-2{fill:#bcdffd;}.cls-3{fill:#35c4a6;}.cls-4{fill:#fff;}.cls-5{fill:#ff5c5b;}.cls-6{fill:#121b46;}.cls-7{fill:#fdb32c;}.cls-8{fill:#cc6f49;}.cls-9{fill:#dfdfdf;}.cls-10{fill:#a1b0cf;}.cls-11{fill:#c4533a;}.cls-12{fill:#adadad;}.cls-13{fill:#6db2e3;}.cls-14{fill:#3cdebc;}.cls-15{clip-path:url(#clip-path);}.cls-16{fill:#ff9f9e;}.cls-17{fill:#f7bb8b;}.cls-18{fill:#f28766;}.cls-19{fill:#28ad92;}.cls-20{fill:#c4c4c4;}.cls-21{fill:#919191;}.cls-22{fill:#ebebeb;}.cls-23{fill:#eba771;}.cls-24{fill:#f08d6e;}.cls-25{fill:#fa9778;}.cls-26{fill:#fa7c55;}.cls-27{fill:#e3f2ff;}</style><clipPath id="clip-path"><polygon class="cls-1" points="412.418 361.188 230.633 361.188 230.633 337.891 195.874 265.85 216.852 206.574 419.965 202.045 412.418 336.25 412.418 361.188"/></clipPath></defs><title>Advertise with us</title><g id="BACKGROUND"><path class="cls-2" d="M127.39967,181.78022c24.61206-19.50075,58.21836-23.07191,86.92287-12.22915,38.13637,14.40462,66.20384,50.88762,103.2419,68.4072a115.771,115.771,0,0,0,83.15991,6.13189c13.27253-4.0747,26.18093-10.6062,39.957-11.04384,12.20128-.38778,24.253,4.14143,34.62518,11.20435,30.5209,20.78153,45.84137,65.10808,35.5562,102.87355-5.50753,20.22055-17.33115,37.78068-31.10472,52.50972-28.45529,30.42968-66.20384,50.20668-105.65817,55.3577-22.02007,2.875-44.36033,1.31458-66.301-2.21772-47.81238-7.69654-94.91849-25.1291-134.28917-55.8773-47.13059-36.8074-93.84214-101.01742-76.19415-167.947C102.2562,210.21521,112.97308,193.21183,127.39967,181.78022Z"/><path class="cls-2" d="M496.8704,235.84531c-1.55114-3.96148-2.837-8.99339-.22725-12.21648a7.2426,7.2426,0,0,1,3.80774-2.31572c6.899-1.86373,13.66538,3.44443,18.47761,9.18095a81.63967,81.63967,0,0,1,11.315,17.7781,31.34831,31.34831,0,0,1,3.22139,10.44736c.32357,3.68184-.50524,7.62727-2.8446,10.29107C514.8749,286.93738,501.16981,246.82577,496.8704,235.84531Z"/></g><g id="OBJECTS"><path class="cls-3" d="M368.03217,348.35687c8.81512-8.6242,20.719,19.58353,24.8351,30.35194l8.2457-9.46229c-5.77029-6.88044-26.59321-33.49392-9.51042-40.23748,11.75772-4.64157,11.49159,27.63492,11.0827,38.4329l11.13677-12.78c-2.87585-6.63965-16.63755-40.63288,2.3816-42.108,12.74029-.98847,2.63762,30.47529-.82879,40.32535l11.84979-13.5978c4.39744-10.62563,17.0904-38.5647,25.67489-29.69128,12.0847,12.4919-14.09625,27.15927-23.80523,31.98756L417.7877,354.55293c9.96242-5.92406,36.67223-20.57706,38.23688-8.37243,2.39768,18.70068-32.82314,12.5147-40.48587,10.95343L403.4726,370.98012c8.38594-2.16113,43.7208-10.52425,41.44816,2.63424-3.27461,18.95921-36.36725,1.6255-42.304-1.65166l-8.59292,9.861c.05069.14023.09715.27121.136.37934,9.464,1.4278,43.66673,7.41267,36.61481,18.4261-10.08241,15.74709-32.81973-11.02441-37.948-17.43171l-19.03609,21.84518-2.2-1.91779,19.31149-22.162C381.29456,375.84562,355.62813,360.49225,368.03217,348.35687Z"/><path class="cls-3" d="M413.6057,451.13494c-9.698,0-19.15182-2.66464-22.64865-10.651-7.69738-17.5745,12.9422-33.04025,26.35161-39.40785,5.07248-2.40867,10.384-4.4439,15.52153-6.41323,4.68806-1.797,9.53577-3.6548,14.16133-5.783h0a111.03261,111.03261,0,0,0,32.84933-23.077,2.04237,2.04237,0,0,1,3.49,1.52832c-.55845,13.49727-1.503,26.6059-6.84663,38.57906-4.051,9.07787-10.7456,17.71643-21.06624,27.188-5.31665,4.8815-12.51981,10.92047-21.08651,14.31169A60.2073,60.2073,0,0,1,413.6057,451.13494Zm34.17152-60.54422c-4.68131,2.15353-9.55774,4.02316-14.27452,5.83029-5.10373,1.95582-10.38149,3.97922-15.388,6.35661-12.796,6.077-32.55278,20.69788-25.43411,36.95189,5.88773,13.44574,31.33705,9.74193,40.95646,5.93252,8.28036-3.27886,15.30943-9.17672,20.507-13.94757,10.12377-9.29246,16.67556-17.73417,20.61932-26.56788,5.20846-11.66985,6.13442-24.58333,6.68529-37.89136a.15279.15279,0,0,0-.10137-.15967.1326.1326,0,0,0-.16646.02957,112.92016,112.92016,0,0,1-33.40355,23.4656Z"/><path class="cls-3" d="M245.74657,398.55679c-8.816-8.62419-20.719,19.58353-24.83509,30.352l-8.24571-9.46312c5.77029-6.88044,26.59321-33.49392,9.51042-40.23748-11.75772-4.64157-11.49159,27.63492-11.0827,38.4329l-11.13677-12.78c2.87585-6.63965,16.63755-40.63288-2.38162-42.108-12.74029-.98848-2.63761,30.47529.82879,40.32535l-11.84981-13.5978c-4.39658-10.62563-17.0904-38.5647-25.67488-29.69129-12.08468,12.49106,14.09626,27.15928,23.80524,31.98757L195.991,404.752c-9.96242-5.924-36.67224-20.57706-38.2369-8.37328-2.39767,18.70068,32.82312,12.5147,40.48588,10.95428l12.0661,13.84619c-8.38594-2.16113-43.7208-10.52425-41.44816,2.63424,3.27463,18.95921,36.36724,1.6255,42.304-1.65166l8.59292,9.861c-.05069.14109-.09715.27121-.136.37934-9.464,1.4278-43.66673,7.41267-36.6148,18.4261,10.0824,15.7471,32.81975-11.02441,37.948-17.43171l19.03609,21.84519,2.2-1.9178-19.3115-22.162C232.48335,426.04555,258.15061,410.69215,245.74657,398.55679Z"/><path class="cls-3" d="M213.9888,384.64047a112.67479,112.67479,0,0,0-14.1233-37.9412,1.10191,1.10191,0,0,1,1.2774-1.60858c12.49614,3.83053,25.11221,8.081,35.27571,16.23034,8.90807,7.14234,15.38382,16.87749,20.72238,26.97089,3.94121,7.4507,7.384,15.32972,8.40115,23.6971,1.42019,11.68421-2.18985,36.83783-16.89945,39.162-18.4337,2.913-27.73039-20.75533-30.37644-34.719C216.27413,405.9171,215.85253,395.17656,213.9888,384.64047Z"/><path class="cls-2" d="M470.88122,183.5037l-.01521-.98424a12.783,12.783,0,0,0,6.31185-1.77925l.50183.84653A13.77351,13.77351,0,0,1,470.88122,183.5037Zm-6.8568-1.699a13.85278,13.85278,0,0,1-5.11218-4.87476l.83809-.51536a12.87121,12.87121,0,0,0,4.74885,4.52753Zm18.61117-5.25242-.85583-.48832a12.79711,12.79711,0,0,0,1.67871-6.34057c-.00083-.272-.00929-.54408-.0262-.81358l.98258-.06083c.01856.2881.027.57872.02789.87272A13.78065,13.78065,0,0,1,482.63559,176.5523Zm-25.75008-6.38956c-.005-.147-.00675-.29485-.00593-.44271a13.80152,13.80152,0,0,1,1.59677-6.4411l.86934.46044a12.83081,12.83081,0,0,0-1.481,5.984c-.00083.13771.00082.272.00593.40553Zm24.46842-7.47183a12.86025,12.86025,0,0,0-4.88911-4.37546l.44779-.87695a13.85071,13.85071,0,0,1,5.26425,4.71171Zm-17.555-3.77054-.52886-.83049a13.76,13.76,0,0,1,6.7351-2.13155l.04646.9834A12.75794,12.75794,0,0,0,463.79888,158.92037Z"/><path class="cls-2" d="M51.35506,400.0057a42.893,42.893,0,0,1-6.89564-.94792l.21375-.96144a42.05935,42.05935,0,0,0,6.7368.92678Zm6.95731-.17236-.10308-.97832a41.79493,41.79493,0,0,0,6.68189-1.26219l.2619.9496A42.81981,42.81981,0,0,1,58.31237,399.83334Zm-20.507-2.83614a42.78054,42.78054,0,0,1-6.22821-3.11748l.51114-.84232a41.66009,41.66009,0,0,0,6.08373,3.0465Zm33.88679-.84485-.41229-.89386a41.8016,41.8016,0,0,0,5.91984-3.34135l.55169.81527A42.86949,42.86949,0,0,1,71.6922,396.15235Zm-45.75265-6.35746a43.18813,43.18813,0,0,1-4.90518-4.939l.75276-.63448a42.107,42.107,0,0,0,4.79281,4.82576Zm57.24-1.42019-.67588-.71474a42.28024,42.28024,0,0,0,4.55035-5.05725l.78232.59816A43.26791,43.26791,0,0,1,83.17957,388.3747Zm-66.18948-9.18347a42.7722,42.7722,0,0,1-3.07186-6.24258l.91581-.3616a41.788,41.788,0,0,0,3.00089,6.09894Zm74.60584-1.84937-.86935-.463a41.73613,41.73613,0,0,0,2.69591-6.24763l.93271.31511A42.63443,42.63443,0,0,1,91.59593,377.34186ZM11.90411,366.28451a43.03212,43.03212,0,0,1-.90314-6.90323l.98341-.04817a42.01085,42.01085,0,0,0,.882,6.74356Zm84.12811-2.09691-.97157-.158a42.18156,42.18156,0,0,0,.54662-6.779c0-1.38556-.06842-2.7846-.20445-4.16l.97917-.09633c.13856,1.40668.20867,2.83868.20867,4.25548A43.05875,43.05875,0,0,1,96.03222,364.1876ZM12.19643,352.53546l-.97833-.10983a42.77619,42.77619,0,0,1,1.33739-6.83143l.94707.267A41.81829,41.81829,0,0,0,12.19643,352.53546Zm81.98981-6.13526A41.78131,41.78131,0,0,0,91.895,339.998l.89722-.40554a42.67354,42.67354,0,0,1,2.3453,6.55432Zm-78.30543-6.91252-.89132-.419a42.93485,42.93485,0,0,1,3.46472-6.0398l.81105.5576A41.937,41.937,0,0,0,15.88081,339.48768ZM88.5925,334.0553a42.05451,42.05451,0,0,0-4.22085-5.33268l.7198-.67081a43.01915,43.01915,0,0,1,4.32054,5.4577Zm-65.03289-5.74579-.71051-.68095a43.07914,43.07914,0,0,1,5.20678-4.62046l.5914.78655A42.13154,42.13154,0,0,0,23.55961,328.30951Zm55.7852-4.17017a42.007,42.007,0,0,0-5.701-3.71309l.468-.86511a42.90282,42.90282,0,0,1,5.83536,3.79928Zm-44.95-3.97752-.45706-.87271a42.64227,42.64227,0,0,1,6.41154-2.71365l.30836.93439A41.72816,41.72816,0,0,0,34.39477,320.16182Zm33.02082-2.47119a41.633,41.633,0,0,0-6.589-1.68293l.16559-.97073a42.79236,42.79236,0,0,1,6.74441,1.72348Zm-20.1479-1.775-.15208-.97326a43.21279,43.21279,0,0,1,6.63628-.51367h.01858l.28894.00085-.00929.98424-.27965-.00085A40.64059,40.64059,0,0,0,47.26769,315.91563Z"/><path class="cls-2" d="M570.4717,358.55417a17.04151,17.04151,0,0,1-6.76552-1.955l.4613-.86934a16.06258,16.06258,0,0,0,6.37775,1.84176Zm6.98267-.9116-.32527-.92849a16.13949,16.13949,0,0,0,5.68579-3.42669l.66912.72065A17.09239,17.09239,0,0,1,577.45437,357.64257ZM558.289,352.09868a17.09409,17.09409,0,0,1-3.16735-6.289l.95128-.25344a16.11628,16.11628,0,0,0,2.98651,5.92914Zm29.2756-3.82883-.90147-.3937a16.1235,16.1235,0,0,0,1.35261-6.50025H589A17.12218,17.12218,0,0,1,587.56463,348.26985Zm.354-8.6639a16.06408,16.06408,0,0,0-2.053-6.311l.85331-.49a17.00864,17.00864,0,0,1,2.178,6.69539Zm-32.20553-.67925-.97325-.14783a17.03646,17.03646,0,0,1,2.46106-6.59825l.83216.52718A16.05991,16.05991,0,0,0,555.71309,338.9267ZM581.453,328.33317a16.07264,16.07264,0,0,0-6.02546-2.78715l.22137-.95974a17.06892,17.06892,0,0,1,6.393,2.95611Zm-18.80288-.39963-.5534-.81359a17.04389,17.04389,0,0,1,6.51208-2.68238l.17909.96734A16.08631,16.08631,0,0,0,562.65012,327.93354Z"/><path class="cls-2" d="M444.57522,156.434a5.90635,5.90635,0,1,1-5.90634-5.90632A5.90634,5.90634,0,0,1,444.57522,156.434Z"/><path class="cls-2" d="M59.67679,299.66416a5.4142,5.4142,0,1,1-5.41461-5.41462A5.414,5.414,0,0,1,59.67679,299.66416Z"/><circle class="cls-2" cx="557.78039" cy="321.81264" r="3.93784"/><path class="cls-2" d="M221.11763,160.86435a3.44529,3.44529,0,1,1-3.44528-3.44528A3.44551,3.44551,0,0,1,221.11763,160.86435Z"/><path class="cls-4" d="M198.99278,213.98069H166.0066a3.95319,3.95319,0,0,0-3.953,3.953v21.26394a3.95319,3.95319,0,0,0,3.953,3.953h9.8188l3.10058,5.37068,3.57286,6.1885,3.57286-6.1885,3.10058-5.37068h9.8188a3.95317,3.95317,0,0,0,3.953-3.953V217.93372A3.95062,3.95062,0,0,0,198.99278,213.98069Z"/><path class="cls-5" d="M175.91328,275.34188c-6.8931-4.24789-11.1883,4.04174-11.21533,4.09243-.0262-.05069-4.32223-8.34032-11.21533-4.09243-7.91789,4.87983-.17911,20.29321,11.21364,24.03334l.00085.00085.00085-.00085.00085.00085v-.00085C176.09239,295.63507,183.83117,280.22171,175.91328,275.34188Z"/><path class="cls-4" d="M130.1564,230.83622a37.15739,37.15739,0,0,0,8.62166.05154,4.67162,4.67162,0,0,0,1.98708-.54746,1.64625,1.64625,0,0,0,.87273-1.67956,2.06457,2.06457,0,0,0,1.31543-.76458,1.90428,1.90428,0,0,0,.39877-.49508,1.47428,1.47428,0,0,0,.11236-.72065,2.22185,2.22185,0,0,0-1.0814-1.8764,1.95841,1.95841,0,0,0,.94707-3.13354,2.32175,2.32175,0,0,0-1.0003-.64968c.28218-.25092.675-.3768.89554-.68349a1.12187,1.12187,0,0,0-.24671-1.416,2.44606,2.44606,0,0,0-1.45059-.52888,22.21979,22.21979,0,0,0-2.86318.076,5.78959,5.78959,0,0,1-2.83446-.58464c-.18332-1.26051.11744-2.57509-.21965-3.80349a3.86641,3.86641,0,0,0-3.41486-2.761.7771.7771,0,0,0-.99185.87358,12.96642,12.96642,0,0,0,.61167,2.98061,3.70555,3.70555,0,0,1-.28556,2.94767,9.788,9.788,0,0,0-.724.94454,6.85874,6.85874,0,0,0-.36327,1.59676c-.1318.53225-.54831,1.08984-1.09324,1.03494Z"/><path class="cls-6" d="M129.68921,231.905h-3.414a.47954.47954,0,0,1-.47987-.47987V219.52964a.47954.47954,0,0,1,.47987-.47986h3.414a.48008.48008,0,0,1,.47986.47986v11.89544A.48009.48009,0,0,1,129.68921,231.905Z"/><circle class="cls-4" cx="127.87617" cy="220.64906" r="0.5331"/><path class="cls-7" d="M480.03767,250.07506H447.05149a3.95321,3.95321,0,0,0-3.95305,3.953V275.292a3.95317,3.95317,0,0,0,3.95305,3.953h9.81881l3.10057,5.37069,3.57286,6.18849,3.57286-6.18849,3.10057-5.37069H480.036a3.9532,3.9532,0,0,0,3.953-3.953V254.0281A3.95066,3.95066,0,0,0,480.03767,250.07506Z"/><path class="cls-4" d="M460.91287,274.149a37.10953,37.10953,0,0,0,8.62167.05154,4.65927,4.65927,0,0,0,1.98707-.54746,1.64627,1.64627,0,0,0,.87274-1.67956,2.06831,2.06831,0,0,0,1.31626-.76458,1.88338,1.88338,0,0,0,.39793-.49508,1.47391,1.47391,0,0,0,.11236-.72065,2.22366,2.22366,0,0,0-1.08143-1.8764,1.95842,1.95842,0,0,0,.947-3.13353,2.32177,2.32177,0,0,0-1.00032-.64969c.28217-.25091.675-.3768.89554-.68348a1.12192,1.12192,0,0,0-.24669-1.416,2.442,2.442,0,0,0-1.45058-.52888,22.22153,22.22153,0,0,0-2.86317.076,5.78781,5.78781,0,0,1-2.83444-.58463c-.18332-1.26052.11741-2.5751-.21967-3.8035a3.86641,3.86641,0,0,0-3.41486-2.761.7771.7771,0,0,0-.99186.87358,12.96767,12.96767,0,0,0,.61167,2.98062,3.70553,3.70553,0,0,1-.28557,2.94766,9.78636,9.78636,0,0,0-.724.94454,6.85937,6.85937,0,0,0-.36328,1.59676c-.1318.53226-.54829,1.08984-1.09323,1.03409Z"/><path class="cls-6" d="M460.44569,275.21768h-3.414a.47953.47953,0,0,1-.47987-.47987V262.84238a.47956.47956,0,0,1,.47987-.47987h3.414a.47952.47952,0,0,1,.47986.47987v11.89543A.479.479,0,0,1,460.44569,275.21768Z"/><path class="cls-4" d="M459.16573,263.96263a.53308.53308,0,1,1-.53308-.53309A.5331.5331,0,0,1,459.16573,263.96263Z"/><path class="cls-8" d="M462.71915,451.10369H453.12c.75022,5.90632,1.34838,10.40766,1.60352,12.317,0,0-6.7005,4.54781-11.24742,3.959a.7.7,0,0,0-.66576.2619.97918.97918,0,0,0,.09209,1.28163.68345.68345,0,0,0,.53731.25006H461.522a1.36371,1.36371,0,0,0,1.35173-1.16674,11.35754,11.35754,0,0,0-.3016-4.3121Z"/><path class="cls-6" d="M452.14253,465.02844s1.5993,1.04593,1.846,2.15352c.12417.55846,1.8595.45961,3.55007.22473a10.85559,10.85559,0,0,0,4.73705-1.97947,1.06822,1.06822,0,0,1,.69613-.27541c.61507.12335.5534,3.87617-.185,4.18368-.68009.283-17.26866.04478-19.89359.00508a.369.369,0,0,1-.36668-.36666c-.00676-.63616.10138-1.9009,1.06451-2.03776C444.88276,466.75108,452.14253,465.02844,452.14253,465.02844Z"/><path class="cls-8" d="M484.79839,451.10369h-9.59914l2.35034,12.58991a11.50781,11.50781,0,0,0,.45285,4.31209,1.6978,1.6978,0,0,0,1.55537,1.16675h15.01881c.00253-.64292.02027-1.28586.03465-1.92878-4.25548-.78908-9.26118-3.82377-9.26118-3.82377C485.2715,461.51135,485.08138,457.00916,484.79839,451.10369Z"/><path class="cls-6" d="M488.30958,465.02844s-1.5993,1.04593-1.846,2.15352c-.12417.55846-1.8595.45961-3.54919.22473a10.85559,10.85559,0,0,1-4.73705-1.97947,1.0697,1.0697,0,0,0-.69613-.27541c-.61507.12335-.5534,3.87617.18419,4.18368.6801.283,17.26866.04478,19.89359.00508a.3685.3685,0,0,0,.36668-.36666c.00676-.63616-.10137-1.9009-1.06451-2.03776C495.5693,466.75108,488.30958,465.02844,488.30958,465.02844Z"/><path class="cls-7" d="M451.30192,338.63606s-5.57855,5.086-5.086,9.1877,4.26563,16.57083,3.11748,25.10208-3.77309,15.91437-3.11748,24.93817c.65642,9.02381,6.23414,59.06406,6.23414,59.06406s12.633-4.26564,17.0625-2.29713,16.57083,3.60918,18.21148,2.95358c0,0-2.78886-67.4314-11.97656-80.06439,0,0-1.64071-18.12957-.04141-22.18988s-.3692-15.25792-4.42951-16.61135C467.21626,337.36458,451.30192,338.63606,451.30192,338.63606Z"/><path class="cls-6" d="M455.342,344.9327c3.09974-.39033,6.15556-.7536,9.186-1.28,1.51648-.25514,3.0144-.57957,4.51315-.92425,1.492-.37174,2.96119-.81275,4.45065-1.3019a23.57648,23.57648,0,0,1-8.7957,3.19605,37.41825,37.41825,0,0,1-4.67032.48579A27.37885,27.37885,0,0,1,455.342,344.9327Z"/><path class="cls-6" d="M458.84809,425.34771c2.13238-2.62578,4.26816-5.184,6.27215-7.85706,2.02847-2.65535,3.91164-5.40363,5.86323-8.16712a41.34488,41.34488,0,0,1-12.13538,16.02418Z"/><path class="cls-6" d="M465.323,424.04074a17.5984,17.5984,0,0,1,1.83841-3.99358,17.38355,17.38355,0,0,1,2.68067-3.48414,17.23643,17.23643,0,0,1-1.8384,3.99358A17.438,17.438,0,0,1,465.323,424.04074Z"/><path class="cls-8" d="M465.5688,373.92022c.06168-.77386-5.10708-2.15352-4.9052-2.6807.17909-.46721,1.48776-.64462,2.17126-.62012a.22247.22247,0,0,0,.23741-.25092c-.03042-.28472-.1994-.70121-.915-.77472a12.52954,12.52954,0,0,0-4.90773.381l-.005-.00253c-.25767-.14446-2.53624-1.38976-5.93506-3.26194-.60069,2.03018-1.15662,4.089-1.91782,6.01953a57.71542,57.71542,0,0,0,6.91676.92425v-.01944l.00171-.00508c1.26051,1.1718,4.33153,3.91165,6.03809,4.43882a.16069.16069,0,0,0,.20275-.21544c-.10308-.29232-.47563-.844-1.7049-1.7691,0,0,3.00935,1.26389,3.55512,1.04.54494-.22305-3.05241-2.37149-3.05241-2.37149s3.534,1.05943,3.91247.67671-3.4225-2.08-3.4225-2.08S465.54431,374.23114,465.5688,373.92022Z"/><path class="cls-7" d="M449.49734,340.27676a137.26082,137.26082,0,0,0-11.15621,12.96079c-4.01978,5.66048-4.84013,8.77712-3.8559,12.30519.98422,3.52722,7.13726,5.57852,8.94184,6.15218,1.80458.57449,10.66448,2.2152,10.66448,2.2152l1.47678-5.24987-10.25469-5.90637,10.5006-15.094Z"/><path class="cls-6" d="M441.56,361.359a8.213,8.213,0,0,1,1.99723.31174,13.70632,13.70632,0,0,1,1.8629.6615l-.57367.68855a8.93726,8.93726,0,0,1-.94962-2.46188,8.94877,8.94877,0,0,1,1.75729,1.96766l.79839,1.1549-1.37205-.4655a13.64126,13.64126,0,0,1-1.82825-.7536A8.26678,8.26678,0,0,1,441.56,361.359Z"/><path class="cls-6" d="M450.60491,356.86785a8.01684,8.01684,0,0,1,1.74884-2.38332,7.9061,7.9061,0,0,1,2.43486-1.677,7.93229,7.93229,0,0,1-1.74884,2.38333A8.02733,8.02733,0,0,1,450.60491,356.86785Z"/><path class="cls-9" d="M477.03255,376.86367h-31.0084V358.2424a1.39467,1.39467,0,0,1,1.39485-1.39484h28.21953a1.39466,1.39466,0,0,1,1.39484,1.39484v18.62127Z"/><rect class="cls-10" x="446.02415" y="376.53587" width="31.0084" height="2.29713"/><path class="cls-4" d="M464.31762,367.676a2.78886,2.78886,0,1,1-2.78886-2.78883A2.78895,2.78895,0,0,1,464.31762,367.676Z"/><path class="cls-8" d="M478.81939,372.66141l-.51957-.648c-.1284.02282-.24416.05745-.36921.08364-.19517-.125-.3954-.24669-.588-.37341-.17233.32443-.28469.53394-.321.60239l-.00171.00253a12.52313,12.52313,0,0,0-4.32225,2.374.8736.8736,0,0,0-.34131,1.14983.22337.22337,0,0,0,.33625.07941c.55758-.39538,1.74967-.964,2.156-.67166.4579.33032-3.109,4.31715-2.63339,4.93052.19095.24669,2.80572-2.52186,2.80572-2.52186s-2.24984,3.50273-1.72264,3.61595c.52633.11236,2.902-2.71028,2.902-2.71028s-1.83166,3.76886-1.25289,3.6565,2.40274-2.81841,2.40274-2.81841a4.734,4.734,0,0,0-.4562,2.41372.16033.16033,0,0,0,.28727.06928c1.138-1.37457,2.20422-5.34449,2.61648-7.01814l.00846.00761.01016.01013c.39622-.30076.77471-.6235,1.16166-.93524Q479.88555,373.32629,478.81939,372.66141Z"/><path class="cls-7" d="M472.63006,339.7031a36.38961,36.38961,0,0,1,4.34757,2.13323c1.55872.98425,16.24215,13.53528,16.4069,17.14446.16388,3.60919-12.87885,16.24218-12.87885,16.24218l-3.36335-3.36332,5.24987-10.99229-14.2737-13.20748Z"/><path class="cls-6" d="M484.19683,358.4063a5.72156,5.72156,0,0,1-.561,1.47088,9.06627,9.06627,0,0,1-.833,1.27317l-.76713.95891-.10221-1.19291a7.44721,7.44721,0,0,1,.00083-1.21235,5.23188,5.23188,0,0,1,.23235-1.236,5.23964,5.23964,0,0,1,.479,1.16336,7.54453,7.54453,0,0,1,.24669,1.187l-.86934-.234a9.0746,9.0746,0,0,1,.95128-1.18786A5.69621,5.69621,0,0,1,484.19683,358.4063Z"/><path class="cls-6" d="M477.79881,371.26487a4.6342,4.6342,0,0,1,2.02255.93271,4.581,4.581,0,0,1,1.42356,1.71251,5.04418,5.04418,0,0,1-3.44611-2.64522Z"/><polygon class="cls-6" points="475.829 354.838 471.031 352.254 475.399 356.56 475.829 354.838"/><path class="cls-8" d="M472.26425,323.53105a1.8622,1.8622,0,0,0-2.09015-1.31543c.403-11.86672-9.49013-10.26827-9.49013-10.26827-6.2096.539-6.91759,7.1381-6.87113,10.49975a2.32481,2.32481,0,0,0-.49426-.23066,1.86167,1.86167,0,0,0-2.0969,1.31459,2.46257,2.46257,0,0,0,.31934,2.05129,3.10261,3.10261,0,0,0,1.40923,1.17773,4.03836,4.03836,0,0,0,1.08308.12419c.95891,7.75906,7.988,6.99533,7.988,6.99533,6.09388.3016,7.67544-3.95558,8.03027-7.02743a2.84146,2.84146,0,0,0,.48409-.09124,3.10433,3.10433,0,0,0,1.41005-1.17773A2.46758,2.46758,0,0,0,472.26425,323.53105Z"/><circle class="cls-11" cx="466.96705" cy="326.49477" r="1.98707"/><circle class="cls-11" cx="457.07558" cy="326.49477" r="1.98707"/><ellipse class="cls-6" cx="464.50687" cy="322.63807" rx="0.57366" ry="1.17517"/><path class="cls-6" d="M465.67864,321.09113a1.69984,1.69984,0,0,1-.38865.50184,1.3631,1.3631,0,0,1-.60068.31091l-.00929.00253a.21232.21232,0,1,1-.03888-.419,1.23907,1.23907,0,0,0,.92091-.46635l.00423-.00508a.0693.0693,0,0,1,.09715-.00761A.06859.06859,0,0,1,465.67864,321.09113Z"/><ellipse class="cls-6" cx="459.53576" cy="322.63807" rx="0.57366" ry="1.17517"/><path class="cls-6" d="M458.48141,321.02018a1.242,1.242,0,0,0,.9209.46636.21222.21222,0,1,1,.01687.4241.19843.19843,0,0,1-.05492-.00508l-.011-.00253a1.36279,1.36279,0,0,1-.60068-.31091,1.6805,1.6805,0,0,1-.38865-.50184.06838.06838,0,0,1,.02955-.09209.07059.07059,0,0,1,.08364.01606Z"/><path class="cls-6" d="M464.17654,326.19316a2.81431,2.81431,0,0,1-.86511.98426,2.1972,2.1972,0,0,1-1.285.42665,2.23017,2.23017,0,0,1-1.27908-.441,4.10776,4.10776,0,0,1-.49508-.441c-.13515-.174-.26695-.34806-.38524-.528.17744.1301.33878.26781.50183.40216.18079.10984.34219.245.52463.33708a2.36838,2.36838,0,0,0,1.13464.32273,2.316,2.316,0,0,0,1.1397-.30754A5.04739,5.04739,0,0,0,464.17654,326.19316Z"/><path class="cls-6" d="M462.62623,328.27656a.94341.94341,0,0,1-.60409.20445.98965.98965,0,0,1-.60491-.20445,3.10574,3.10574,0,0,0,.60491.06757A2.643,2.643,0,0,0,462.62623,328.27656Z"/><path class="cls-6" d="M460.58759,318.56253a1.365,1.365,0,0,0-.8896-.32951,2.73086,2.73086,0,0,0-.947.13433,2.31017,2.31017,0,0,0-.83386.47734,2.41948,2.41948,0,0,0-.56944.73.27485.27485,0,0,0,.42578.33623l.02366-.022a3.37009,3.37009,0,0,1,.56691-.45029,1.9769,1.9769,0,0,1,.62606-.25682,2.44284,2.44284,0,0,1,.67757-.0659,2.60161,2.60161,0,0,0,.72485-.04223l.07266-.01774a.28765.28765,0,0,0,.21121-.34807A.29683.29683,0,0,0,460.58759,318.56253Z"/><path class="cls-6" d="M463.45586,318.56253a1.365,1.365,0,0,1,.88961-.32951,2.73086,2.73086,0,0,1,.94705.13433,2.31017,2.31017,0,0,1,.83386.47734,2.40587,2.40587,0,0,1,.56944.73.27485.27485,0,0,1-.42578.33623l-.02279-.022a3.40523,3.40523,0,0,0-.56691-.45029,1.9691,1.9691,0,0,0-.62605-.25682,2.44572,2.44572,0,0,0-.6784-.0659,2.60161,2.60161,0,0,1-.72485-.04223l-.07266-.01774a.28829.28829,0,0,1-.21121-.34807A.29716.29716,0,0,1,463.45586,318.56253Z"/><path class="cls-6" d="M462.15482,320.84277c.10138.44269.17573.88288.25855,1.318.08534.43426.16475.86766.28809,1.2791.02872.10308.06085.20531.09715.30331a1.08089,1.08089,0,0,1,.09968.37934.76319.76319,0,0,1-.41227.697.92649.92649,0,0,1-.7494.0397,1.80947,1.80947,0,0,1-.5931-.35484c.41226.15462.893.27541,1.18363.05659a.45344.45344,0,0,0,.20363-.41905.85351.85351,0,0,0-.08616-.26105c-.04394-.10983-.08364-.22049-.11659-.332a6.21583,6.21583,0,0,1-.21544-1.35176A7.18725,7.18725,0,0,1,462.15482,320.84277Z"/><path class="cls-6" d="M451.94143,324.16639a.97549.97549,0,0,1,.30583-.77727.90923.90923,0,0,1,.88626-.08534,1.66724,1.66724,0,0,1,.71557.52212,2.69089,2.69089,0,0,1,.44521.75023.19595.19595,0,0,1-.321.21121l-.01269-.01351a1.7237,1.7237,0,0,0-.65813-.46551.30313.30313,0,0,0-.27628.03042.741.741,0,0,0-.1977.305c-.10056.25767-.16053.55927.05914.67842a1.4753,1.4753,0,0,0,.86934.05914,1.36681,1.36681,0,0,1-.9555.12843.53783.53783,0,0,1-.33709-.4503,1.39571,1.39571,0,0,1,.05575-.52042.97845.97845,0,0,1,.27793-.47987.65853.65853,0,0,1,.60151-.12419,1.89989,1.89989,0,0,1,.85666.57619l-.33456.1977a2.09582,2.09582,0,0,0-.90229-1.12871.73685.73685,0,0,0-.66829-.04056A.98034.98034,0,0,0,451.94143,324.16639Z"/><path class="cls-6" d="M471.80042,324.16639a.97549.97549,0,0,0-.30583-.77727.90922.90922,0,0,0-.88625-.08534,1.66727,1.66727,0,0,0-.71558.52212,2.66893,2.66893,0,0,0-.44439.75023.196.196,0,0,0,.32105.21121l.01268-.01351a1.72378,1.72378,0,0,1,.65813-.46551.30316.30316,0,0,1,.27629.03042.741.741,0,0,1,.1977.305c.10055.25767.16052.55927-.05914.67842a1.47531,1.47531,0,0,1-.86934.05914,1.36681,1.36681,0,0,0,.9555.12843.53782.53782,0,0,0,.33708-.4503,1.3955,1.3955,0,0,0-.05574-.52042.97848.97848,0,0,0-.27794-.47987.65853.65853,0,0,0-.60151-.12419,1.89986,1.89986,0,0,0-.85665.57619l.33456.1977a2.09577,2.09577,0,0,1,.90229-1.12871.73683.73683,0,0,1,.66828-.04056A.98252.98252,0,0,1,471.80042,324.16639Z"/><path class="cls-6" d="M473.97081,339.73605c-.03548-.00928-.07013-.01859-.10478-.02872a4.43261,4.43261,0,0,1-2.98992-5.15357c.77219-3.93191,2.069-10.99989,1.83583-12.98023-.3278-2.78884-2.21519-10.74645-9.59744-11.32094-7.38312-.57449-11.89457,4.34758-12.79686,11.48484s1.47678,14.84818,1.47678,14.84818c-.07013,1.11858-3.83306,4.67961-4.944,5.70779a.24579.24579,0,0,0,.09714.41229c11.168,3.53231,23.89481-1.20051,27.06974-2.5168A.23872.23872,0,0,0,473.97081,339.73605Zm-11.95795-6.34986c-4.28338,0-7.75656-4.02148-7.75656-8.9824s3.47231-8.98239,7.75656-8.98239,7.75656,4.02147,7.75656,8.98239C469.76854,329.36471,466.29624,333.38619,462.01286,333.38619Z"/><path class="cls-4" d="M448.18443,342.24609a90.88326,90.88326,0,0,0,9.53577-4.05357,46.6757,46.6757,0,0,0,4.43627-2.59114,31.71378,31.71378,0,0,0,3.99275-3.28138,16.75276,16.75276,0,0,1-3.534,3.89813,27.79232,27.79232,0,0,1-4.44726,2.85051,34.65631,34.65631,0,0,1-4.87137,1.99637A27.69922,27.69922,0,0,1,448.18443,342.24609Z"/><path class="cls-4" d="M457.20821,332.15525a7.14909,7.14909,0,0,1-2.72631-1.74884,8.19673,8.19673,0,0,1-1.83841-2.74322,8.29466,8.29466,0,0,1-.62688-3.23916,8.86164,8.86164,0,0,1,.14531-1.62717,12.01623,12.01623,0,0,1,.452-1.55283c.03888.54491.00253,1.06789.03043,1.58916.05409.52042.03635,1.03662.13855,1.54015l.11154.75361.18079.73586a5.65182,5.65182,0,0,0,.21373.7215,5.16446,5.16446,0,0,0,.26361.70291,10.91678,10.91678,0,0,0,1.50215,2.61228A14.62363,14.62363,0,0,0,457.20821,332.15525Z"/><path class="cls-4" d="M455.81337,318.94862s6.52136-2.99414,12.4277,0C468.2419,318.94862,462.21226,309.35032,455.81337,318.94862Z"/><path class="cls-9" d="M399.78486,469.47234H243.2661a17.22741,17.22741,0,0,1-17.22725-17.22725v-265.787a17.2274,17.2274,0,0,1,17.22725-17.22726H399.78486a17.22741,17.22741,0,0,1,17.22725,17.22726V452.24421A17.22758,17.22758,0,0,1,399.78486,469.47234Z"/><rect class="cls-12" x="299.37657" y="176.45008" width="44.29784" height="3.28139"/><rect class="cls-12" x="300.52558" y="452.73761" width="42.00068" height="8.53125"/><rect class="cls-4" x="230.63314" y="188.59136" width="181.78473" height="258.66743"/><rect class="cls-6" x="230.63314" y="188.59136" width="181.78473" height="9.84415"/><circle class="cls-13" cx="246.7942" cy="371.93483" r="7.30116"/><circle class="cls-14" cx="246.7942" cy="432.72153" r="7.30116"/><circle class="cls-13" cx="266.97419" cy="371.93483" r="7.30116"/><rect class="cls-2" x="278.37623" y="366.27437" width="38.88319" height="3.77309"/><rect class="cls-2" x="240.80507" y="383.99333" width="161.44085" height="3.77309"/><rect class="cls-2" x="240.80507" y="391.70508" width="161.44085" height="3.77309"/><rect class="cls-2" x="240.80507" y="399.416" width="38.88319" height="3.77309"/><rect class="cls-2" x="257.04809" y="426.73325" width="38.88319" height="3.77309"/><circle class="cls-5" cx="246.78555" cy="233.22829" r="7.30081"/><rect class="cls-2" x="257.04809" y="227.22872" width="38.88319" height="3.77309"/><rect class="cls-2" x="278.37623" y="373.32967" width="62.67324" height="3.77309"/><rect class="cls-5" x="230.63314" y="243.06114" width="181.78473" height="118.12724"/><g class="cls-15"><path class="cls-16" d="M362.01011,371.749c-5.84379,0-11.74844-2.70857-16.38748-4.83843-6.07275-2.78715-9.97764-10.34851-8.70361-16.85807a12.36214,12.36214,0,0,1,8.30145-9.49606c.43848-.12587.88455-.2239,1.33064-.3219a12.7439,12.7439,0,0,0,1.96005-.53731,8.50518,8.50518,0,0,0,4.737-6.18,27.28829,27.28829,0,0,0,.267-7.95l-.02787-.44016c-.28219-4.55373-.41905-9.36934,1.24022-13.7879,1.5317-4.07892,5.32252-8.36482,10.33923-8.74246.60154-.04646,1.20645-.03379,1.79107-.022a12.33263,12.33263,0,0,0,2.38671-.10476c3.60666-.637,5.90546-4.40334,7.7523-7.43042,1.85359-3.03637,4.82744-7.05108,9.07364-6.98519a7.45885,7.45885,0,0,1,6.38956,4.50049,11.07935,11.07935,0,0,1,.21882,7.86974c-.245.78064-.55845,1.57565-.86173,2.3453-.95974,2.43569-1.86458,4.73705-.95383,6.87873a9.07621,9.07621,0,0,0,1.917,2.55228c.28387.29992.56689.59985.83557.90906a14.23688,14.23688,0,0,1,1.23264,16.37227c-2.0589,3.26027-5.38251,5.52868-8.59715,7.72191-4.0561,2.76857-7.88578,5.38252-9.17587,9.75967a20.05153,20.05153,0,0,0-.3278,7.1305,24.704,24.704,0,0,1-.11574,6.50363,14.035,14.035,0,0,1-8.50085,9.98694A15.84384,15.84384,0,0,1,362.01011,371.749Zm4.03919-68.20105c-.30668,0-.60744.00761-.91075.02958-4.58245.3447-8.06912,4.32054-9.491,8.10714-1.59,4.23775-1.45481,8.93339-1.17855,13.38067l.02787.44016a27.96871,27.96871,0,0,1-.29232,8.2381,9.47733,9.47733,0,0,1-5.33351,6.86861,13.69868,13.69868,0,0,1-2.11126.58462c-.4258.09292-.8516.18587-1.2698.30583h0a11.3611,11.3611,0,0,0-7.607,8.73824c-1.17095,5.98743,2.56073,13.21085,8.15023,15.775,6.11416,2.8049,14.49419,6.64641,21.721,3.65988a13.04334,13.04334,0,0,0,7.91283-9.268,24.02721,24.02721,0,0,0,.09885-6.24342,21.06351,21.06351,0,0,1,.365-7.47857c1.38894-4.71256,5.54472-7.5504,9.56534-10.2936,3.131-2.13746,6.3693-4.34673,8.31922-7.43381a13.219,13.219,0,0,0-1.14393-15.203c-.25852-.29823-.53225-.58717-.80514-.87694a9.90384,9.90384,0,0,1-2.10788-2.84375c-1.07042-2.51258-.04646-5.11133.94284-7.62474.29738-.7536.60406-1.53254.83894-2.28108a10.105,10.105,0,0,0-.17911-7.16852,6.45414,6.45414,0,0,0-5.50924-3.92177c-3.74774-.03971-6.49011,3.68436-8.21613,6.51377-1.94992,3.1952-4.3763,7.17275-8.42142,7.88664a13.40012,13.40012,0,0,1-2.57762.11913C366.56975,303.553,366.30782,303.54791,366.0493,303.54791Z"/><path class="cls-16" d="M394.98614,282.191a3.32236,3.32236,0,1,1,3.32194-3.32194A3.32528,3.32528,0,0,1,394.98614,282.191Zm0-5.66047a2.33769,2.33769,0,1,0,2.33768,2.33769A2.34,2.34,0,0,0,394.98614,276.53057Z"/><path class="cls-16" d="M380.34326,264.71792a1.23009,1.23009,0,1,1-1.23009-1.23009A1.23023,1.23023,0,0,1,380.34326,264.71792Z"/><circle class="cls-16" cx="248.0657" cy="335.71712" r="1.5993"/><path class="cls-16" d="M394.7403,344.45368a3.07608,3.07608,0,1,1,3.07608-3.07608A3.08028,3.08028,0,0,1,394.7403,344.45368Zm0-5.16793a2.09185,2.09185,0,1,0,2.09185,2.09185A2.09451,2.09451,0,0,0,394.7403,339.28575Z"/></g><g class="cls-15"><path class="cls-6" d="M294.29061,335.266s-9.51551,15.75047-12.30519,29.36769h64.15s-4.92206-23.62527-10.49975-29.20382Z"/><path class="cls-4" d="M292.73187,339.9008c1.86627-.11069,3.73253-.15882,5.5988-.23994l5.59881-.13685c3.73253-.09039,7.46506-.10308,11.19759-.11489,3.73253.011,7.46506.0245,11.19759.11321l5.59881.13771c1.86628.08194,3.73253.1301,5.59881.24163-1.86628.11151-3.73253.15968-5.59881.24164l-5.59881.13771c-3.73253.08954-7.46506.10222-11.19759.11321-3.73253-.01269-7.46506-.02535-11.19759-.11489l-5.59881-.13685C296.4644,340.05962,294.59812,340.01148,292.73187,339.9008Z"/><path class="cls-4" d="M299.25408,340.27a14.45057,14.45057,0,0,1-1.20727,3.55934,14.87377,14.87377,0,0,1-2.053,3.19775,8.826,8.826,0,0,1-3.05411,2.3588,5.16391,5.16391,0,0,1-3.77562.23571,6.612,6.612,0,0,0,3.42923-.92088,10.78136,10.78136,0,0,0,2.65535-2.31572A37.829,37.829,0,0,0,299.25408,340.27Z"/><path class="cls-4" d="M318.44984,339.7783c.14363,3.15805.25344,6.31691.31091,9.47495l.10138,4.73705.03548,4.73705.0017.18334-.13265.13348c-1.715,1.73025-3.41064,3.47991-5.14174,5.19412l-.83976.83134.01268-1.17435c.04308-3.99866.02449-7.99817.11829-11.99765.07518-3.99866.17318-7.99817.36666-11.99766.19347,3.99866.29147,7.99817.36665,11.99766.09377,3.99951.07518,7.99816.11829,11.99765l-.8271-.343c1.71418-1.7311,3.46387-3.4267,5.19412-5.14174l-.13095.31682.03548-4.73705.10137-4.73705C318.19552,346.09436,318.3062,342.93632,318.44984,339.7783Z"/><path class="cls-4" d="M332.96935,339.9008a23.9553,23.9553,0,0,0,.60658,3.31011,9.76957,9.76957,0,0,0,1.26642,2.94007,5.17687,5.17687,0,0,0,2.39008,1.90513,10.026,10.026,0,0,0,3.24336.58125,6.2894,6.2894,0,0,1-3.48329.14869,5.138,5.138,0,0,1-2.96034-2.07664,7.93045,7.93045,0,0,1-1.20645-3.349A9.43978,9.43978,0,0,1,332.96935,339.9008Z"/><path class="cls-17" d="M368.09637,270.5516l-7.91368.23824s-2.56074,11.64452-6.066,27.177c-1.15829-1.84007-2.24392-3.5813-3.24421-5.20847a134.97663,134.97663,0,0,1-12.51893,19.57254c2.64185,4.48361,5.67822,9.38118,9.12351,14.47728.04731.07013.09547.14108.14363.21206,6.11586,9.02633,20.22478,5.70947,21.66355-5.0978.01606-.12249.033-.24584.049-.36921C371.4707,305.36518,371.83735,287.61411,368.09637,270.5516Z"/><path class="cls-18" d="M363.41761,258.83864c-.18-2.06227-.44862-4.2141-.78317-4.14482-.55508.11574-.8837,1.5562-1.127,3.37684A13.09515,13.09515,0,0,1,363.41761,258.83864Z"/><path class="cls-18" d="M366.76152,261.37149c-.033-2.21518-.19177-6.5501-.92511-6.94633-.57364-.31006-1.209,2.45682-1.64238,4.8359A9.97343,9.97343,0,0,1,366.76152,261.37149Z"/><path class="cls-17" d="M372.27922,258.439c-.52551.3768-1.41258,1.44807-2.548,4.45066,0,0,.77049-6.76976.00423-7.732-.60744-.7629-2.113,4.389-2.712,6.56108a5.08235,5.08235,0,0,1,.83386,1.63225,6.0646,6.0646,0,0,1,.21206,2.3605,5.17407,5.17407,0,0,1-3.33883,6.45886,6.91019,6.91019,0,0,1-3.21378.2695,5.34442,5.34442,0,0,1-2.53792.2391,23.26516,23.26516,0,0,0,2.23209,3.24337l5.51094-1.05183s6.033-11.386,6.10569-16.15262A.33329.33329,0,0,0,372.27922,258.439Z"/><path class="cls-6" d="M352.94405,310.24585a60,60,0,0,1,.16813-6.1564c.0659-1.02227.169-2.04029.2678-3.06.109-1.01805.22558-2.03524.36836-3.0499l.79416.2619c-.99354,1.52073-2.01159,3.02624-3.15719,4.45656.71475-1.68715,1.55536-3.29829,2.42133-4.89505l.91327-1.68377-.11912,1.94653c-.06252,1.02227-.15121,2.04283-.24754,3.06171-.10645,1.018-.20783,2.03692-.34724,3.05159A59.72254,59.72254,0,0,1,352.94405,310.24585Z"/><path class="cls-9" d="M355.74472,255.58768l9.49944,17.78485a1.849,1.849,0,0,0,2.1307.90652c1.75222-.48747,4.52754-1.59676,5.21354-3.83391,1.02143-3.33292-7.55207-19.94428-7.55207-19.94428Z"/><path class="cls-19" d="M345.539,232.50057l-3.20958.95974a2.02839,2.02839,0,0,0-1.42272,2.24645,73.23967,73.23967,0,0,0,5.37154,17.70206,2.02884,2.02884,0,0,0,2.44244,1.1397l2.84375-.85076Z"/><path class="cls-3" d="M361.34775,223.91186l-15.12021,4.52331c-2.2228.66489-2.13746,7.51575.19177,15.30185s6.01953,13.5581,8.24233,12.8932l15.12022-4.52331Z"/><path class="cls-14" d="M369.59006,236.8059c2.32923,7.7861,2.41542,14.637.19177,15.30185-2.2228.6649-5.91307-5.10794-8.24233-12.8932-2.32923-7.7861-2.41542-14.637-.19177-15.30185C363.57053,223.247,367.26083,229.01979,369.59006,236.8059Z"/><path class="cls-9" d="M389.86975,205.71556l-28.00918,21.60778.09462,1.92287a42.17818,42.17818,0,0,0,6.67514,20.70634h0l34.90987.20784Z"/><path class="cls-20" d="M408.35414,224.45256c3.71394,12.41417,2.13493,23.85086-3.5264,25.54477-4.38475,1.312-9.93455-3.605-13.94-11.658a50.5574,50.5574,0,0,1-4.65849-15.13964c-1.28-9.28147.64124-16.8116,5.14934-18.16C397.04,203.34492,404.64105,212.03839,408.35414,224.45256Z"/><path class="cls-21" d="M396.789,227.913c2.30644,7.71008,2.57172,15.04165,1.08393,19.89866-3.90994-3.24168-7.71513-9.5155-10.02157-17.22472-2.30726-7.71177-2.57256-15.04588-1.08478-19.90035C390.67659,213.92662,394.48263,220.20129,396.789,227.913Z"/><path class="cls-22" d="M396.91746,222.35227l3.03215,10.13561-9.061,5.85056a50.5574,50.5574,0,0,1-4.65849-15.13964Z"/><path class="cls-3" d="M400.74547,226.72858c.83724,2.799.48157,5.37745-.795,5.75931s-2.98991-1.57733-3.82715-4.37629-.48157-5.37745.795-5.75932C398.194,221.9704,399.90823,223.9296,400.74547,226.72858Z"/><path class="cls-6" d="M364.67475,225.67c.37341,2.14929.83216,4.27069,1.307,6.37943.50016,2.10367,1.02564,4.198,1.688,6.24764a52.59836,52.59836,0,0,0,2.30306,6.02038,32.73118,32.73118,0,0,0,3.31518,5.55234,20.98084,20.98084,0,0,1-3.99951-5.20341,35.40826,35.40826,0,0,1-2.5565-6.07276,46.24984,46.24984,0,0,1-1.5013-6.39718A39.97277,39.97277,0,0,1,364.67475,225.67Z"/><path class="cls-6" d="M352.45235,253.72564a44.41278,44.41278,0,0,1,12.633-3.77309,38.96661,38.96661,0,0,1-6.17583,2.358A39.43088,39.43088,0,0,1,352.45235,253.72564Z"/><path class="cls-6" d="M399.45706,226.819a11.06969,11.06969,0,0,1,.2678,1.50129,3.82638,3.82638,0,0,1,.00423.7874,1.47463,1.47463,0,0,1-.10476.41819.65113.65113,0,0,1-.38947.38356.74667.74667,0,0,1-.57534-.07941,1.62829,1.62829,0,0,1-.38019-.28133,3.61948,3.61948,0,0,1-.5238-.66912,5.4939,5.4939,0,0,1-.757-3.11579,3.48122,3.48122,0,0,1,.158-.83555,1.59974,1.59974,0,0,1,.20951-.425.75286.75286,0,0,1,.47734-.33456.65674.65674,0,0,1,.523.163,1.44759,1.44759,0,0,1,.28471.32526,3.90235,3.90235,0,0,1,.35653.70292A11.15349,11.15349,0,0,1,399.45706,226.819Zm0,0a4.96944,4.96944,0,0,0-.572-1.39568,2.90279,2.90279,0,0,0-.4596-.5728c-.16052-.163-.414-.26528-.46465-.19938a.78074.78074,0,0,0-.1301.4351,3.768,3.768,0,0,0,.01774.6725,11.21511,11.21511,0,0,0,.25344,1.38892,11.0659,11.0659,0,0,0,.40891,1.35176,3.63281,3.63281,0,0,0,.29233.6066.76621.76621,0,0,0,.31766.32781c.07689.03378.25515-.174.32273-.39285a2.87173,2.87173,0,0,0,.14531-.72066A4.9764,4.9764,0,0,0,399.45706,226.819Z"/><path class="cls-6" d="M392.23786,205.98252a15.821,15.821,0,0,1,6.15048,2.91135,14.64513,14.64513,0,0,1,2.43654,2.45259,31.888,31.888,0,0,1,1.90936,2.8598,61.81951,61.81951,0,0,1,5.61317,12.46655,43.39358,43.39358,0,0,1,1.48018,6.70808,22.83243,22.83243,0,0,1-.01521,6.88972,16.57959,16.57959,0,0,1-2.34615,6.46646,6.20387,6.20387,0,0,1-2.67309,2.18815,4.50153,4.50153,0,0,1-3.36755-.03971,4.38005,4.38005,0,0,0,1.6652.196,4.2282,4.2282,0,0,0,1.60182-.39708,5.83244,5.83244,0,0,0,2.374-2.21772,16.11541,16.11541,0,0,0,1.99638-6.30593c.56012-4.42446-.33626-8.92919-1.65507-13.19735a66.22883,66.22883,0,0,0-5.32675-12.38122,31.24709,31.24709,0,0,0-1.75222-2.86572,14.50486,14.50486,0,0,0-2.24644-2.45344A16.574,16.574,0,0,0,392.23786,205.98252Z"/><path class="cls-17" d="M359.75351,274.43873s-3.28139-7.21921-2.95358-8.8599,4.06033-5.66047,5.82438-5.004-.9437,5.74242-.9437,5.74242,4.389,5.33183,3.89643,8.03956C365.08534,277.06367,359.75351,274.43873,359.75351,274.43873Z"/><path class="cls-7" d="M327.72456,268.6245s14.31,7.57742,16.7702,10.531c2.461,2.95358,9.02381,16.89861,9.02381,16.89861L339.2449,315.24987S324.00046,292.52436,327.72456,268.6245Z"/><path class="cls-17" d="M330.56493,273.60064a4.67091,4.67091,0,0,1-.70291-2.92993,11.47343,11.47343,0,0,1-2.17717-2.01834c-.25261-.91244-.83809-3.14029-1.2791-5.65117a26.479,26.479,0,0,1-.47059-6.65317v-.00844a5.76767,5.76767,0,0,1,.65731-2.39344l-21.74466-12.22746c.01606.07266.02449.13771.04056.21121.34468,2.01919,2.96541,17.86.27711,26.26375a15.84509,15.84509,0,0,1-6.1412,1.37372,11.16184,11.16184,0,0,0-7.27752,2.89191c-2.11549,1.98792-3.991,5.33183-4.02485,10.90528,1.99044.24839,3.97922.64039,5.96293.99692,5.93167,1.067,11.8549,2.20167,17.80092,3.18676,7.667,1.27065,15.53251,1.54691,23.28566,2.40782C334.43432,284.17981,333.2997,278.18815,330.56493,273.60064Z"/><path class="cls-23" d="M326.4066,263.00036c-11.82194,1.49284-17.8102-12.62538-18.029-13.15256a13.94552,13.94552,0,0,0,8.43833,6.05332,23.16311,23.16311,0,0,0,9.04663.46213c.02449-.00845.049-.00845.07265-.01605A26.51825,26.51825,0,0,0,326.4066,263.00036Z"/><path class="cls-7" d="M304.62729,267.99931s13.94587,15.42182,18.04761,12.96163,5.13582-11.86672,5.13582-11.86672,14.05993,12.19452,16.02844,16.13234,1.80458,11.64874-3.11748,23.78919-3.07608,28.54736-3.07608,28.54736H292.6499a34.00127,34.00127,0,0,0,2.62494-17.0625c-1.14816-9.1877-11.97654-38.55541-11.97654-38.55541S281.16592,268.491,304.62729,267.99931Z"/><path class="cls-6" d="M304.2167,269.64c1.10675,1.20306,2.216,2.396,3.38109,3.534,1.14477,1.15575,2.314,2.28446,3.5382,3.34729a45.292,45.292,0,0,0,3.78913,3.01019,18.52947,18.52947,0,0,0,4.15918,2.29544,5.89,5.89,0,0,0,4.41855.13011,6.48231,6.48231,0,0,0,3.17408-3.169,16.17633,16.17633,0,0,0,1.46327-4.55118,29.76542,29.76542,0,0,0,.5238-4.84266,20.04808,20.04808,0,0,1-1.307,9.72587,7.04022,7.04022,0,0,1-3.4926,3.69535,5.85511,5.85511,0,0,1-2.59113.47059,8.51446,8.51446,0,0,1-2.52864-.53648,18.89,18.89,0,0,1-4.36108-2.46357,35.34008,35.34008,0,0,1-3.75873-3.21126A54.31338,54.31338,0,0,1,304.2167,269.64Z"/><path class="cls-6" d="M336.67908,287.79659a47.68225,47.68225,0,0,0,2.87585,6.22482,18.46958,18.46958,0,0,1,2.27264,6.61684,18.84726,18.84726,0,0,1-.69616,6.96661,41.23373,41.23373,0,0,1-2.47877,6.45885c.61082-2.21941,1.25714-4.42192,1.73193-6.6388a21.537,21.537,0,0,0,.46465-6.67936,20.9274,20.9274,0,0,0-1.98624-6.39633c-.4596-1.04846-.9175-2.11043-1.30275-3.20367A23.32386,23.32386,0,0,1,336.67908,287.79659Z"/><path class="cls-6" d="M315.6179,313.59566a12.68579,12.68579,0,0,1,9.68278.82795c-1.67195-.076-3.24591-.27457-4.84265-.39792C318.863,313.87446,317.278,313.8035,315.6179,313.59566Z"/><path class="cls-17" d="M278.63561,309.58941c-.91836-.85752-1.84769-1.704-2.76011-2.56918-4.231-4.00964-8.598-7.83256-12.78676-11.8287q-1.75135,1.90091-3.54751,3.926c-2.70182,3.05243-5.46026,6.311-8.21021,9.7605a12.5251,12.5251,0,0,0-.34554,15.1574c2.18392,3.01948,4.48866,6.017,6.91677,8.957A134.56193,134.56193,0,0,0,282.293,356.344l5.74494-5.43659s-8.05729-14.38605-17.72066-32.00108C273.15762,315.70524,275.95238,312.57424,278.63561,309.58941Z"/><path class="cls-17" d="M281.90516,354.71518s3.05073,12.51978,6.16231,16.13064a.335.335,0,0,0,.59731-.15629c.14278-.63111.09462-2.02088-1.051-5.01924,0,0,3.91925,5.57343,5.1316,5.78382,1.2115.21036-2.76519-7.57995-2.76519-7.57995s5.07331,5.79481,6.16737,5.538-3.74437-7.47519-3.74437-7.47519,5.57092,5.66976,5.95954,5.14764c.96734-1.30022-6.64133-9.47327-5.69849-10.18124.83557-.62688,3.34644.51029,4.52584,1.31288a.4661.4661,0,0,0,.69868-.17911,1.82087,1.82087,0,0,0-.75868-2.385,25.206,25.206,0,0,0-11.80335-5.38252Z"/><path class="cls-6" d="M266.5636,315.086a7.48785,7.48785,0,0,1,3.77391,3.77391,6.69776,6.69776,0,0,1-2.23461-1.53931A6.782,6.782,0,0,1,266.5636,315.086Z"/><path class="cls-7" d="M259.18047,298.51516l16.40693,15.094,20.67254-21.32814s1.33992-22.13329-3.09467-22.53543C286.57968,269.14746,265.41544,289.49136,259.18047,298.51516Z"/><polygon class="cls-6" points="289.287 299.417 297.654 291.543 291.584 306.719 289.287 299.417"/><path class="cls-17" d="M337.53154,236.51865c-.24331-6.40985-1.02226-13.00641-3.229-18.67786-2.83952-7.30285-16.22781-10.14238-25.5583-2.02848-4.33659,3.76886-5.24987,10.602-4.99219,16.84032a3.33742,3.33742,0,0,0-.55928-.22811,3.88338,3.88338,0,0,0-4.3763,2.74406,5.14664,5.14664,0,0,0,.66573,4.28253,6.47511,6.47511,0,0,0,2.94261,2.4585,8.299,8.299,0,0,0,2.53116.25008,18.8624,18.8624,0,0,0,6.21553,10.57917,17.04414,17.04414,0,0,0,14.49924,3.66748c4.04089-.83555,10.01228-3.42416,11.49752-7.61883a10.63629,10.63629,0,0,0,.43848-3.43261c.00846-.26782.00846-.53564.00846-.80345C337.63714,241.96284,337.63714,239.25342,337.53154,236.51865Z"/><path class="cls-23" d="M337.61262,244.55145a4.14687,4.14687,0,1,1-1.06281-8.15532,3.92646,3.92646,0,0,1,.9817.12166C337.63714,239.25342,337.63714,241.96284,337.61262,244.55145Z"/><path class="cls-23" d="M311.75527,240.54266a4.1482,4.1482,0,1,0,4.1482-4.1482A4.14789,4.14789,0,0,0,311.75527,240.54266Z"/><path class="cls-6" d="M330.21769,232.493c0,1.35429.53649,2.45259,1.198,2.45259s1.198-1.0983,1.198-2.45259-.53648-2.45259-1.198-2.45259C330.75333,230.04037,330.21769,231.13867,330.21769,232.493Z"/><path class="cls-6" d="M333.86068,229.2648a3.51815,3.51815,0,0,1-.81105,1.04677,2.85356,2.85356,0,0,1-1.25376.64884l-.02026.00507a.44339.44339,0,1,1-.19853-.86427.50385.50385,0,0,1,.11659-.011,2.58763,2.58763,0,0,0,1.922-.97325l.00846-.01014a.1432.1432,0,0,1,.20193-.01521A.14174.14174,0,0,1,333.86068,229.2648Z"/><path class="cls-6" d="M316.71536,232.16178a2.58915,2.58915,0,0,0,1.922.97326.44346.44346,0,1,1,.03465.88624.47.47,0,0,1-.11488-.01013l-.02282-.00507a2.85348,2.85348,0,0,1-1.25376-.64885,3.518,3.518,0,0,1-.81105-1.04676.14354.14354,0,0,1,.23656-.15883Z"/><path class="cls-6" d="M318.31128,233.19671a4.008,4.008,0,0,1,1.372-.9665,3.51655,3.51655,0,0,1,1.62887-.28556,4.02381,4.02381,0,0,1,1.54438.45621c.23826.11574.44524.27543.66744.41144l.59478.48917a.26583.26583,0,0,1-.32105.42326l-.02619-.01774-.57872-.40638c-.207-.10391-.403-.23486-.615-.31681a3.34142,3.34142,0,0,0-1.29176-.28133,2.69134,2.69134,0,0,0-1.23347.316,3.15813,3.15813,0,0,0-.97327.79247l-.02449.03041a.49288.49288,0,0,1-.76967-.6159Z"/><path class="cls-6" d="M330.72545,239.91325a5.8722,5.8722,0,0,1-1.80628,2.05382,4.58233,4.58233,0,0,1-2.68155.89047,4.6503,4.6503,0,0,1-2.66972-.92088,8.74549,8.74549,0,0,1-1.03409-.92088c-.28219-.36328-.5576-.72657-.80429-1.10252.37.27036.70714.55929,1.04678.83893.37764.22895.7139.51113,1.09576.70291a4.95049,4.95049,0,0,0,2.36894.67334,4.82933,4.82933,0,0,0,2.37824-.64207A10.32569,10.32569,0,0,0,330.72545,239.91325Z"/><path class="cls-6" d="M327.48883,244.26251a1.97191,1.97191,0,0,1-1.26137.42749,2.06348,2.06348,0,0,1-1.26219-.42749,6.58215,6.58215,0,0,0,1.263.14194A5.50434,5.50434,0,0,0,327.48883,244.26251Z"/><path class="cls-6" d="M323.23335,223.9862a2.84272,2.84272,0,0,0-1.85612-.6877,5.73859,5.73859,0,0,0-1.97694.28049,4.83438,4.83438,0,0,0-1.74123.99691,5.06806,5.06806,0,0,0-1.18871,1.52326.57383.57383,0,0,0,.88963.70122l.04816-.04477a7.10368,7.10368,0,0,1,1.18278-.93947,4.16165,4.16165,0,0,1,1.30613-.53647,5.08325,5.08325,0,0,1,1.4151-.13687,5.43425,5.43425,0,0,0,1.51311-.08787l.15122-.03718a.60012.60012,0,0,0,.25687-1.03155Z"/><path class="cls-6" d="M329.22163,223.9862a2.84113,2.84113,0,0,1,1.85612-.6877,5.73859,5.73859,0,0,1,1.97694.28049,4.82371,4.82371,0,0,1,1.74038.99691,5.06806,5.06806,0,0,1,1.18871,1.52326.57383.57383,0,0,1-.88963.70122l-.04817-.04477a7.07346,7.07346,0,0,0-1.18363-.93947,4.1616,4.1616,0,0,0-1.30612-.53647,5.08332,5.08332,0,0,0-1.41511-.13687,5.42669,5.42669,0,0,1-1.51228-.08787l-.15121-.03718a.59933.59933,0,0,1-.256-1.03155Z"/><path class="cls-6" d="M326.5046,228.74607c.21206.92426.36751,1.84176.539,2.75082.17741.90651.34387,1.81134.60154,2.67055.06.21544.12672.42834.2036.63278a2.24933,2.24933,0,0,1,.20784.79162,1.59637,1.59637,0,0,1-.86006,1.45483,1.93334,1.93334,0,0,1-1.56382.08364,3.81361,3.81361,0,0,1-1.23855-.74093c.86006.32273,1.86458.57534,2.46949.11828a.94553.94553,0,0,0,.42495-.87442,1.74058,1.74058,0,0,0-.18-.54493q-.13938-.3447-.24246-.69278a13.09209,13.09209,0,0,1-.4503-2.82179A15.14036,15.14036,0,0,1,326.5046,228.74607Z"/><path class="cls-6" d="M300.31774,236.49415a2.04043,2.04043,0,0,1,.63872-1.623,1.89836,1.89836,0,0,1,1.85021-.17826,3.48353,3.48353,0,0,1,1.4937,1.08985,5.58322,5.58322,0,0,1,.92848,1.56634.40868.40868,0,0,1-.67.44018l-.02705-.02788a3.61948,3.61948,0,0,0-1.37287-.97157.636.636,0,0,0-.577.06336,1.5318,1.5318,0,0,0-.4123.63617c-.20868.53816-.3354,1.16673.1242,1.416a3.07641,3.07641,0,0,0,1.81474.1242,2.85449,2.85449,0,0,1-1.99468.26781,1.12245,1.12245,0,0,1-.70376-.94032,2.92059,2.92059,0,0,1,.11659-1.08563,2.03779,2.03779,0,0,1,.58042-1.002,1.37392,1.37392,0,0,1,1.25543-.25852,3.945,3.945,0,0,1,1.7877,1.20306l-.69784.41229a4.37481,4.37481,0,0,0-1.88316-2.35628,1.53664,1.53664,0,0,0-1.394-.08449A2.04252,2.04252,0,0,0,300.31774,236.49415Z"/><path class="cls-6" d="M335.52247,219.96558a13.49733,13.49733,0,0,0-3.11916-6.21976c-3.47486-3.79927-9.02718-4.83336-14.16553-4.95164-3.46473-.0887-7.02828.16728-10.14914,1.68294-4.92207,2.37233-7.885,7.40254-11.49752,11.49751a39.62839,39.62839,0,0,1-20.692,12.32461c-6.507,1.49622-13.27,1.30952-19.93415,1.90935-6.65487.59055-13.53528,2.12648-18.64406,6.43772-3.97669,3.34729-6.70386,8.2398-11.34038,10.59184a25.532,25.532,0,0,1-8.37748,2.09691l-4.70495.61a9.75357,9.75357,0,0,0-7.19555,14.61837c.01944.0397.049.07857.06842.12841,2.39176,3.839,6.24088,6.82213,7.69824,11.11395,1.32894,3.92769.414,8.22964.72826,12.36432.512,6.49687,4.20311,12.52147,9.3119,16.56744a35.08014,35.08014,0,0,0,18.00452,6.93026,44.47637,44.47637,0,0,0,7.1567.21629,12.468,12.468,0,0,1,2.65788-9.0069c2.75589-3.44529,5.51262-6.70385,8.21021-9.76558a2.004,2.004,0,0,1,.1377-.14786l-.49255-.45283c6.23159-9.01705,27.39583-29.36432,33.9814-28.76364a9.882,9.882,0,0,1,4.42023-.049,11.6213,11.6213,0,0,1,1.43707-.13771,15.96241,15.96241,0,0,0,6.14288-1.35851c2.60889-8.15107.22642-23.28058-.24584-26.04745a8.27642,8.27642,0,0,1-2.50074-.24585,6.43714,6.43714,0,0,1-2.93329-2.461,5.12534,5.12534,0,0,1-.66911-4.28253,3.97275,3.97275,0,0,1,3.94711-2.8015,18.70107,18.70107,0,0,0,2.968,3.839,1.84367,1.84367,0,0,0,1.29094.6877c.65307-.03464,1.07212-.6877,1.37878-1.26558.3937-.74262,1.07717-1.50636,1.47087-2.249a15.198,15.198,0,0,0,12.39053-5.42053,29.89045,29.89045,0,0,0,2.40021-3.56188l2.98316-4.91954c2.20844,2.461,5.69173,6.90831,8.974,7.30285A21.68231,21.68231,0,0,0,335.52247,219.96558Z"/></g><path class="cls-18" d="M178.425,442.60116c-1.70236.6159-3.09806,1.11858-4.07638,1.47173l-.00338.00085a12.833,12.833,0,0,0-5.41546-1.42694c-.74262-.04224-.97834.35567-1.05183.64209a.23513.23513,0,0,0,.20529.2957c.70206.087,2.01243.48409,2.12479.99186.12757.57281-5.36139,1.13294-5.41462,1.9347-.02111.3219,3.89643.02958,3.89643.02958s-4.13974,1.11012-3.81025,1.56382,4.1-.04816,4.1-.04816-3.99866,1.6052-3.47486,1.92372,3.78913-.479,3.78913-.479a4.79909,4.79909,0,0,0-2.00736,1.52917.16791.16791,0,0,0,.17489.25344c1.44976-.2053,3.997-1.7032,5.71538-2.80657l.00085.00591.01014.05914a59.02967,59.02967,0,0,0,6.90745.21374C179.46248,446.7333,178.91755,444.67862,178.425,442.60116Z"/><path class="cls-7" d="M203.52117,416.10594l-10.09,20.79506L174.728,443.17653l.73839,6.27552s22.14933-1.35343,25.71712-4.92206c3.56863-3.56863,10.33586-20.79506,10.58255-22.51768C212.01187,420.28962,203.52117,416.10594,203.52117,416.10594Z"/><path class="cls-7" d="M209.73585,413.1118s-4.67623,4.77846-4.49121,8.53125c.18417,3.7528.49255,24.36369.49255,24.36369l-1.90681.92258-3.93783-1.41511s1.9068-21.77928,1.96848-24.11782c.06167-2.33769.73839-5.90632,2.95358-6.89057A22.36921,22.36921,0,0,1,209.73585,413.1118Z"/><path class="cls-24" d="M149.12911,454.8092c-8.30738,1.05353-13.98727,1.82487-13.98727,1.82487l-1.84092,7.92043,16.64432.1901C149.51859,461.44968,149.2626,458.13705,149.12911,454.8092Z"/><path class="cls-7" d="M136.2959,456.27077a15.64393,15.64393,0,0,1-2.49736-3.46473c-.72488-1.612-.32274-8.86328-3.948-8.38v16.75922l1.49031,1.49031h-1.65167v3.34391s3.70633,1.28924,5.96208.08026c0,0-2.17547-2.4171-1.20812-5.07583C135.40966,458.366,136.2959,456.27077,136.2959,456.27077Z"/><path class="cls-5" d="M144.82716,454.2516v11.23815h79.73573s-2.78883-16.07828-9.26964-18.12957C208.81245,445.30973,144.82716,454.2516,144.82716,454.2516Z"/><path class="cls-25" d="M151.15252,452.36843l-11.6217,6.46983-.93862,5.54389,2.66634,3.11748,2.55482-.84484a1.18426,1.18426,0,0,1,.12757-.049c.83218-.34469,5.64357-2.32755,12.4108-5.14511C154.526,458.48258,152.77209,455.46225,151.15252,452.36843Z"/><path class="cls-7" d="M139.87551,457.778a15.62735,15.62735,0,0,1-3.80856-1.933c-1.38386-1.09914-4.35264-7.72781-7.3527-5.63429l7.68894,14.89127,2.0082.64039-1.4675.75783,1.53424,2.97132s3.88461-.55507,5.33521-2.66381c0,0-3.04229-1.14983-3.40305-3.95558S139.87551,457.778,139.87551,457.778Z"/><path class="cls-5" d="M144.70382,454.99l4.67622,9.59829,29.4091-11.69014s33.83862,18.82655,42.94439,15.25792,9.59829-21.04175,5.90632-23.13357c-3.69113-2.09185-23.83058.697-23.83058.697l-1.02564.90229s-20.05749-8.4907-24.85622-8.244S144.70382,454.99,144.70382,454.99Z"/><path class="cls-6" d="M149.74924,464.21825c2.363-1.12534,4.75649-2.17211,7.16008-3.19267,2.39514-1.04337,4.819-2.01326,7.24371-2.98063q3.6396-1.44594,7.31131-2.80742c2.45765-.88288,4.906-1.79192,7.39071-2.60467l-.06252.23826c-.501-.68265-.99861-1.3678-1.481-2.06481.58378.615,1.15237,1.24278,1.71758,1.87218l.13264.14784-.196.0904c-2.37487,1.09408-4.78775,2.09267-7.19049,3.11748q-3.618,1.49921-7.2699,2.91388c-2.43569.94032-4.87223,1.87724-7.33749,2.74152C154.71355,462.57587,152.2466,463.43675,149.74924,464.21825Z"/><path class="cls-6" d="M205.98221,465.44919c-1.17518-.4275-2.32333-.91242-3.48585-1.367l-3.4419-1.45989c-2.29376-.97495-4.55541-2.0192-6.81622-3.06427-2.25151-1.06619-4.50134-2.13409-6.7199-3.27126l-3.32532-1.70828c-1.09324-.60238-2.20082-1.1735-3.28139-1.8029,1.17519.42665,2.32333.9116,3.48585,1.36612l3.4419,1.45989c2.29376.97495,4.55541,2.02,6.81622,3.06595,2.25067,1.067,4.50134,2.13493,6.71906,3.27292L202.7,463.64879C203.79406,464.24865,204.90165,464.82061,205.98221,465.44919Z"/><path class="cls-6" d="M202.90613,446.74513a18.92256,18.92256,0,0,1,4.23269,1.72012,18.7106,18.7106,0,0,1,3.76633,2.58608,21.2228,21.2228,0,0,1-7.999-4.3062Z"/><path class="cls-6" d="M212.99612,449.45285a12.57441,12.57441,0,0,1-3.71226-.1301,12.4315,12.4315,0,0,1-3.54752-1.1,14.02374,14.02374,0,0,1,7.25978,1.23009Z"/><path class="cls-25" d="M227.43539,414.94766a5.49352,5.49352,0,0,0-3.58131-1.42357,7.79891,7.79891,0,0,1-3.01018-.67081c-1.33147-4.13131-.04561-11.93516.12419-12.93037.00761-.03632.01184-.06757.02027-.1039l-10.70081,6.01783a2.83133,2.83133,0,0,1,.32357,1.17772v.00423a13.05605,13.05605,0,0,1-.23148,3.27463c-.218,1.24193-.50691,2.33854-.63025,2.78378a11.145,11.145,0,0,1-3.56948,2.43654,5.46837,5.46837,0,0,1-.08534,1.2453c-.45961,2.49146.35229,5.9815.2374,8.56928-.13347,3.01949-.234,6.00855-.20868,9.03056.03125,3.76125.19009,7.3468.4596,10.97792h20.28559c-.58209-5.40363.79331-13.44911,2.31149-22.31662C229.93866,418.58642,228.78207,416.21322,227.43539,414.94766Z"/><path class="cls-26" d="M210.37879,410.2934c5.8176.735,8.76443-6.213,8.87259-6.47238A6.86346,6.86346,0,0,1,215.099,406.8a11.38627,11.38627,0,0,1-4.45233.22727c-.01183-.00423-.02366-.00423-.03632-.00845A13.01572,13.01572,0,0,1,210.37879,410.2934Z"/><path class="cls-4" d="M209.68769,413.29259s-2.27011,4.70072-.62941,5.76691,11.8946-6.23412,11.8946-6.23412,5.57852.65646,7.13641,4.59427c1.55874,3.93783-.65645,28.3015-.65645,28.3015s-18.86711,1.14815-23.62527,0c0,0,.08193-12.0585-.49256-15.83241s-.22557-10.15167.9437-12.73522C204.86953,415.80431,209.68769,413.29259,209.68769,413.29259Z"/><path class="cls-7" d="M221.11763,412.53731s-8.73655,4.06033-7.87482,8.4907c.86173,4.42954,4.67623,48.35814,4.67623,48.35814s11.44345.36921,15.75047-1.846-5.41462-32.23848-4.92206-35.06872,3.07607-15.50461-.615-17.8423A12.59453,12.59453,0,0,0,221.11763,412.53731Z"/><path class="cls-6" d="M218.49267,465.16194a24.11112,24.11112,0,0,0,7.82329,1.47511,16.58849,16.58849,0,0,0,3.91925-.376,24.1161,24.1161,0,0,0,3.844-1.1811,11.51619,11.51619,0,0,1-3.648,1.92372,13.54148,13.54148,0,0,1-2.03438.49085,16.98821,16.98821,0,0,1-2.09185.12673,14.54044,14.54044,0,0,1-4.11273-.64547A12.43636,12.43636,0,0,1,218.49267,465.16194Z"/><rect class="cls-6" x="186.08266" y="415.46787" width="1.74135" height="10.11349" transform="translate(-242.02365 253.87756) rotate(-44.80149)"/><path class="cls-25" d="M185.98722,425.35532s.3937.73924.69193.87694a15.25721,15.25721,0,0,0,1.88317.49761l.00169-.00085c.06927.05659,1.47,1.2453,3.56187,2.96709.65054-.87189,1.3205-1.7387,2.00228-2.61057.46213-.59055.90821-1.19291,1.35007-1.79782-.92342-.4199-1.69645-.77219-2.28954-1.04255l-1.33232-1.04c-.59814-.74514-2.33177-3.54919-3.14114-3.48922-.97833.07181-.91919.452-.91919.452s1.51566,1.93723,1.17434,2.70352c-.32357.72573-3.63876-2.88683-3.63876-2.88683l-.88286-.69954s-.15207,2.02425.57449,2.7069a1.96268,1.96268,0,0,0,.36919,1.94821S185.42878,425.02582,185.98722,425.35532Z"/><path class="cls-7" d="M220.25587,415.73674l-6.6447,16.61135-21.2876-9.10574s-3.69114,4.67623-3.32194,4.79872c.36919.12335,19.19574,18.45735,27.07057,17.10391,7.87565-1.35343,13.16607-24.487,13.16607-24.487Z"/><path class="cls-6" d="M215.785,445.2278a6.08635,6.08635,0,0,0,3.93784-2.3791c1.55874-2.13323,7.13726-13.45334,7.13726-13.45334S223.8245,449.00171,215.785,445.2278Z"/><path class="cls-6" d="M216.93393,433.90683a7.66162,7.66162,0,0,1-1.86628-.441,12.43467,12.43467,0,0,1-1.7049-.77219l-1.15238-.62688,1.23855-.25937a8.36585,8.36585,0,0,1,2.58355-.1977,8.35937,8.35937,0,0,1-2.33854,1.1152l.08616-.8854a12.43276,12.43276,0,0,1,1.65845.86766A7.72965,7.72965,0,0,1,216.93393,433.90683Z"/><path class="cls-6" d="M194.94935,433.3332a27.46284,27.46284,0,0,1,4.64835,2.9747,27.18952,27.18952,0,0,1,4.04682,3.752,27.19741,27.19741,0,0,1-4.6492-2.9747A27.49213,27.49213,0,0,1,194.94935,433.3332Z"/><path class="cls-6" d="M198.72244,425.86814a5.3509,5.3509,0,0,1,2.33938.53731,5.289,5.289,0,0,1,1.9271,1.43117,5.86171,5.86171,0,0,1-4.26648-1.96848Z"/><path class="cls-6" d="M217.1798,419.79792a6.10324,6.10324,0,0,1,.56265-2.13156,6.92146,6.92146,0,0,1,1.22249-1.87556,5.32867,5.32867,0,0,1,1.87808-1.31035,3.58938,3.58938,0,0,1,2.24307-.09715,7.45412,7.45412,0,0,0-1.90513.7874,8.44072,8.44072,0,0,0-1.49455,1.28924,15.37,15.37,0,0,0-1.27995,1.58661Z"/><path class="cls-25" d="M223.95716,396.59674a1.91129,1.91129,0,0,0-2.15353-1.35005,1.64314,1.64314,0,0,0-.27626.11236c.12757-3.07018-.3219-6.4335-2.456-8.28879-4.59174-3.99276-11.1807-2.59536-12.57807.99776-1.5976,4.10849-1.67956,9.19446-1.62549,13.54288a5.22046,5.22046,0,0,0,.21459,1.68717c.72995,2.06395,3.67256,3.338,5.66048,3.75027a8.39092,8.39092,0,0,0,7.133-1.80543,9.27219,9.27219,0,0,0,3.05919-5.20678,4.08782,4.08782,0,0,0,1.24615-.1225,3.18235,3.18235,0,0,0,1.44806-1.20982A2.53037,2.53037,0,0,0,223.95716,396.59674Z"/><path class="cls-6" d="M208.20921,395.28046c0,.66659-.2636,1.20727-.5897,1.20727-.32528,0-.5897-.54071-.5897-1.20727s.2636-1.20727.5897-1.20727C207.94478,394.07319,208.20921,394.6139,208.20921,395.28046Z"/><ellipse class="cls-6" cx="212.72576" cy="395.28046" rx="0.5897" ry="1.20727"/><path class="cls-6" d="M207.95914,398.93191a2.88387,2.88387,0,0,0,.88878,1.01044,2.25349,2.25349,0,0,0,1.31966.43764,2.28721,2.28721,0,0,0,1.31373-.45285,4.26571,4.26571,0,0,0,.50859-.45284c.13856-.17827.27459-.35738.39623-.54239-.18249.13347-.34807.27541-.51535.41314-.18586.11236-.35144.25176-.539.34554a2.43745,2.43745,0,0,1-1.16589.33117,2.37271,2.37271,0,0,1-1.17012-.316A5.07385,5.07385,0,0,1,207.95914,398.93191Z"/><path class="cls-6" d="M209.55169,401.07189a.96753.96753,0,0,0,.62095.21036,1.01626,1.01626,0,0,0,.62095-.21036,3.22479,3.22479,0,0,1-.62181.07013A2.69106,2.69106,0,0,1,209.55169,401.07189Z"/><path class="cls-6" d="M211.64606,391.09426a1.40275,1.40275,0,0,1,.91328-.33878,2.80414,2.80414,0,0,1,.97327.13855,2.37312,2.37312,0,0,1,.85668.49085,2.49312,2.49312,0,0,1,.58462.74937.2822.2822,0,0,1-.43764.34472l-.02366-.022a3.46532,3.46532,0,0,0-.5821-.46213,2.05772,2.05772,0,0,0-.64292-.26442,2.512,2.512,0,0,0-.69615-.06758,2.678,2.678,0,0,1-.74432-.04308l-.07436-.01859a.2954.2954,0,0,1-.21712-.35738A.28964.28964,0,0,1,211.64606,391.09426Z"/><path class="cls-6" d="M208.69923,391.09426a1.40272,1.40272,0,0,0-.91327-.33878,2.80414,2.80414,0,0,0-.97327.13855,2.373,2.373,0,0,0-.85668.49085,2.4928,2.4928,0,0,0-.58462.74937.28219.28219,0,0,0,.43763.34472l.02367-.022a3.46452,3.46452,0,0,1,.5821-.46213,2.05776,2.05776,0,0,1,.64291-.26442,2.509,2.509,0,0,1,.69616-.06758,2.678,2.678,0,0,0,.74432-.04308l.07436-.01859a.29539.29539,0,0,0,.21711-.35738A.2899.2899,0,0,0,208.69923,391.09426Z"/><path class="cls-6" d="M208.98225,393.32382c-.1039.45452-.18079.90651-.26528,1.35428-.087.44609-.1698.89131-.29655,1.31458-.02957.10646-.06252.21036-.0997.31174a1.11456,1.11456,0,0,0-.10223.38947.78466.78466,0,0,0,.42327.71557.95118.95118,0,0,0,.76967.04141,1.87367,1.87367,0,0,0,.60914-.36413c-.42327.15882-.9175.283-1.21573.0583a.464.464,0,0,1-.20869-.43.86856.86856,0,0,1,.08872-.26781c.04561-.11321.08534-.22642.11912-.34131a6.394,6.394,0,0,0,.22134-1.38893A7.3786,7.3786,0,0,0,208.98225,393.32382Z"/><path class="cls-6" d="M223.2669,397.13661a1.00728,1.00728,0,0,0-.31429-.79924.9344.9344,0,0,0-.91075-.08787,1.71441,1.71441,0,0,0-.735.53649,2.75031,2.75031,0,0,0-.45705.77049.20086.20086,0,0,0,.32951.21629l.01351-.01351a1.77306,1.77306,0,0,1,.67586-.47819.31352.31352,0,0,1,.28387.03125.75277.75277,0,0,1,.20275.31344c.10308.26442.16476.57448-.06082.697a1.51164,1.51164,0,0,1-.893.06083,1.401,1.401,0,0,0,.98171.1318.55257.55257,0,0,0,.34639-.463,1.43706,1.43706,0,0,0-.05745-.53479,1.00917,1.00917,0,0,0-.28557-.4934.67693.67693,0,0,0-.61757-.12757,1.93764,1.93764,0,0,0-.87947.59223l.343.20275a2.159,2.159,0,0,1,.92678-1.16.75573.75573,0,0,1,.686-.04141A1.01646,1.01646,0,0,1,223.2669,397.13661Z"/><path class="cls-6" d="M224.42519,392.1951c-.354-1.122-.89554-2.412-2.0572-2.60889a3.755,3.755,0,0,0-.02957-3.12087,5.2684,5.2684,0,0,0-1.90006-2.01834,8.86575,8.86575,0,0,0-3.61256-1.38809,17.72784,17.72784,0,0,0-5.92576.48242c-1.01382.19685-2.28362.36413-3.29745.561a2.59447,2.59447,0,0,0-3.43515.62013,5.47691,5.47691,0,0,0-.99438,3.66157,22.27875,22.27875,0,0,0,1.81136,7.38313c.0659-.98678.17911-1.96934.32272-2.94261a7.58643,7.58643,0,0,1,1.75474-2.83952,9.45743,9.45743,0,0,0,9.69377,2.20084,8.20163,8.20163,0,0,0,.637,2.32,3.07215,3.07215,0,0,0,2.00566,1.98624.9396.9396,0,0,0,1.08393-.4579c.13009-.36583,1.051-.71812,1.0493-.68095a2.20843,2.20843,0,0,1,.27541-.10813,1.898,1.898,0,0,1,2.14592,1.34838,2.49825,2.49825,0,0,1-.32528,2.10622,3.15394,3.15394,0,0,1-1.44723,1.21067,3.95373,3.95373,0,0,1-1.25038.12843,9.57187,9.57187,0,0,1-1.18111,3.00257,3.98839,3.98839,0,0,0,2.32333-.33456,5.421,5.421,0,0,0,2.07664-2.62831,10.289,10.289,0,0,0,1.01383-2.83529A11.312,11.312,0,0,0,224.42519,392.1951Z"/><path class="cls-27" d="M164.28143,267.33526a10.32236,10.32236,0,0,0-7.68472-3.78913c-3.50695-.01859-7.21583,1.73193-10.36626.19262-4.22086-2.06312-4.56386-8.70276-8.85315-10.618-2.99075-1.3357-6.37436.28472-9.59239.89638a15.69869,15.69869,0,0,1-14.88619-5.52107c-1.33992-1.68125-2.32755-3.64466-3.84826-5.16455A11.53069,11.53069,0,0,0,97.86723,240.737a15.48487,15.48487,0,0,0-8.9841,7.5487c-1.49369,2.72124-2.5903,6.10485-5.46785,7.27158-3.294,1.33486-7.22175-1.04084-10.52594.27036-2.37486.942-3.70042,3.60834-3.82208,6.16061a15.59121,15.59121,0,0,0,.86428,5.34872h94.34989Z"/><path class="cls-27" d="M564.56624,309.57758a6.18225,6.18225,0,0,0-3.74437-3.36755c-2.27516-.72826-4.775-.55761-6.8948-1.75222-2.37484-1.33824-4.2859-4.34843-6.92012-4.0561-2.11464.234-3.63958,2.592-5.72468,3.06425-4.31127.97665-7.17866-6.23749-11.57352-6.24-2.62159-.00169-4.80378,2.6317-7.42366,2.72547-3.39459.12251-5.63346-3.79589-7.70669-6.87874-3.071-4.56639-8.3986-8.37157-12.94981-5.91392-3.02621,1.63394-4.5723,5.42983-6.22058,8.76613s-4.14565,6.801-7.49043,6.80608c-3.51542.00507-7.05785-3.86854-10.11959-1.88992-1.44131.93186-2.13491,2.94936-2.12563,4.846a13.97077,13.97077,0,0,0,.675,3.89051h88.21884Z"/></g></svg>