<svg id="Layer_1" data-name="Layer 1" xmlns="http://www.w3.org/2000/svg" xmlns:xlink="http://www.w3.org/1999/xlink" viewBox="0 0 600 337"><defs><style>.cls-1{fill:none;}.cls-2{fill:#bcdffd;}.cls-3{fill:#35c4a6;}.cls-4{fill:#fff;}.cls-5{fill:#d8192a;}.cls-6{fill:#121b46;}.cls-7{fill:#fdb32c;}.cls-8{fill:#cc6f49;}.cls-9{fill:#dfdfdf;}.cls-10{fill:#a1b0cf;}.cls-11{fill:#adadad;}.cls-12{fill:#6db2e3;}.cls-13{fill:#3cdebc;}.cls-14{clip-path:url(#clip-path);}.cls-15{fill:#ff9f9e;}.cls-16{fill:#f7bb8b;}.cls-17{fill:#f28766;}.cls-18{fill:#28ad92;}.cls-19{fill:#c4c4c4;}.cls-20{fill:#919191;}.cls-21{fill:#ebebeb;}.cls-22{fill:#eba771;}.cls-23{fill:#f08d6e;}.cls-24{fill:#fa9778;}.cls-25{fill:#fa7c55;}.cls-26{fill:#e3f2ff;}</style><clipPath id="clip-path"><polygon class="cls-1" points="412.418 220.188 230.633 220.188 230.633 196.891 195.874 124.85 216.852 65.574 419.965 61.045 412.418 195.25 412.418 220.188"/></clipPath></defs><title>Advertise with us-01</title><g id="BACKGROUND"><path class="cls-2" d="M127.39967,40.78021C152.01173,21.27946,185.618,17.7083,214.32254,28.55106c38.13637,14.40461,66.20383,50.88761,103.24191,68.40719a115.771,115.771,0,0,0,83.15992,6.1319c13.27252-4.07471,26.18093-10.6062,39.957-11.04384,12.20129-.38779,24.253,4.14143,34.62518,11.20435,30.5209,20.78154,45.8414,65.10807,35.55618,102.87355-5.50754,20.22055-17.33114,37.78067-31.1047,52.5097-28.4553,30.42969-66.20383,50.20667-105.65818,55.3577-22.02008,2.875-44.36032,1.31457-66.301-2.21771-47.81238-7.69654-94.91849-25.12909-134.28917-55.87729C126.3791,219.0892,79.66755,154.87918,97.31554,87.9496,102.2562,69.21521,112.97308,52.21182,127.39967,40.78021Z"/><path class="cls-2" d="M496.87039,94.84531c-1.55115-3.96149-2.837-8.9934-.22726-12.21648a7.24254,7.24254,0,0,1,3.80774-2.31572c6.899-1.86372,13.6654,3.44443,18.4776,9.181a81.64063,81.64063,0,0,1,11.315,17.7781,31.34826,31.34826,0,0,1,3.22137,10.44735c.32355,3.68186-.50525,7.62726-2.8446,10.29108C514.87488,145.93738,501.1698,105.82578,496.87039,94.84531Z"/></g><g id="OBJECTS"><path class="cls-3" d="M368.03217,207.35687c8.81512-8.6242,20.719,19.58353,24.83511,30.35193l8.2457-9.46228c-5.7703-6.88043-26.5932-33.49393-9.51041-40.23749,11.75772-4.64157,11.49158,27.63492,11.0827,38.4329l11.13678-12.78c-2.87585-6.63965-16.63754-40.63288,2.38159-42.108,12.7403-.98846,2.63764,30.47529-.82879,40.32535l11.84979-13.59781c4.39743-10.62564,17.09039-38.56469,25.6749-29.69128,12.08468,12.49191-14.09626,27.15927-23.80524,31.98755l-11.30661,12.97519c9.96243-5.92407,36.67224-20.57706,38.23688-8.37244,2.39767,18.70068-32.82315,12.51471-40.48587,10.95343l-12.0661,13.84622c8.38592-2.16113,43.72079-10.52426,41.44815,2.63425-3.2746,18.9592-36.36725,1.62549-42.304-1.65167l-8.59293,9.861c.05069.14023.09714.27121.136.37933,9.464,1.4278,43.66672,7.41266,36.61481,18.42609-10.0824,15.7471-32.81973-11.02441-37.948-17.4317l-19.0361,21.84518-2.2-1.91778,19.31149-22.162C381.29456,234.84561,355.62814,219.49225,368.03217,207.35687Z"/><path class="cls-3" d="M413.60571,310.135c-9.698,0-19.15182-2.66464-22.64865-10.651-7.69739-17.5745,12.9422-33.04025,26.35163-39.40784,5.07247-2.40866,10.384-4.44391,15.52151-6.41324,4.68805-1.797,9.53577-3.65478,14.16132-5.783h0a111.03221,111.03221,0,0,0,32.84933-23.077,2.04237,2.04237,0,0,1,3.49,1.52832c-.55844,13.49728-1.503,26.60589-6.84662,38.57907-4.051,9.07788-10.7456,17.71643-21.06625,27.188-5.31665,4.8815-12.51981,10.92047-21.08652,14.31167A60.20766,60.20766,0,0,1,413.60571,310.135Zm34.17151-60.54422c-4.6813,2.15353-9.55774,4.02316-14.2745,5.83029-5.10373,1.95581-10.3815,3.97922-15.388,6.3566-12.796,6.077-32.55277,20.69787-25.43412,36.95187,5.88773,13.44574,31.337,9.74195,40.95645,5.93253,8.28037-3.27887,15.30942-9.17673,20.507-13.94757,10.12378-9.29245,16.67557-17.73416,20.61933-26.56787,5.20846-11.66986,6.13443-24.58335,6.6853-37.89136a.15282.15282,0,0,0-.10138-.15967.13258.13258,0,0,0-.16647.02957,112.92027,112.92027,0,0,1-33.40354,23.46561Z"/><path class="cls-3" d="M245.74657,257.55679c-8.816-8.62417-20.719,19.58353-24.8351,30.352l-8.24571-9.46313c5.77029-6.88043,26.59321-33.49393,9.51042-40.23749-11.75772-4.64157-11.49159,27.63492-11.0827,38.43289l-11.13677-12.78c2.87586-6.63964,16.63756-40.63287-2.38162-42.108-12.7403-.98849-2.63761,30.47528.82879,40.32535l-11.8498-13.59781c-4.39658-10.62564-17.0904-38.5647-25.67488-29.69128-12.08469,12.49105,14.09626,27.15927,23.80523,31.98758L195.991,263.752c-9.96242-5.924-36.67224-20.577-38.23691-8.37329-2.39768,18.70069,32.82312,12.51471,40.48588,10.95429l12.06611,13.84619c-8.38594-2.16113-43.7208-10.52426-41.44817,2.63425,3.27463,18.95919,36.36725,1.62548,42.304-1.65168l8.59293,9.861c-.05069.14108-.09716.27121-.136.37933-9.464,1.4278-43.66674,7.41266-36.61481,18.42609,10.0824,15.7471,32.81975-11.02442,37.948-17.43171l19.03608,21.84519,2.2-1.91779-19.31149-22.162C232.48335,285.04556,258.1506,269.69214,245.74657,257.55679Z"/><path class="cls-3" d="M213.9888,243.64047a112.67491,112.67491,0,0,0-14.12331-37.94119,1.10192,1.10192,0,0,1,1.27741-1.60858c12.49614,3.83053,25.11221,8.081,35.27571,16.23034,8.90807,7.14234,15.38382,16.87751,20.72238,26.97089,3.94122,7.45072,7.384,15.32971,8.40115,23.69711,1.4202,11.68421-2.18985,36.83783-16.89944,39.162-18.4337,2.913-27.73039-20.75534-30.37643-34.719C216.27412,264.91711,215.85252,254.17657,213.9888,243.64047Z"/><path class="cls-2" d="M470.88123,42.50369l-.0152-.98424a12.783,12.783,0,0,0,6.31186-1.77925l.50183.84653A13.77353,13.77353,0,0,1,470.88123,42.50369Zm-6.85682-1.699a13.85293,13.85293,0,0,1-5.11218-4.87476l.83811-.51536a12.8712,12.8712,0,0,0,4.74884,4.52752Zm18.61118-5.25243-.85584-.48833a12.79713,12.79713,0,0,0,1.67872-6.34057c-.00083-.272-.00928-.54408-.02622-.81359l.98258-.06083c.01855.2881.027.57872.02789.87272a13.78061,13.78061,0,0,1-1.80713,6.83065ZM456.8855,29.1627c-.005-.147-.00675-.29484-.00592-.4427a13.80154,13.80154,0,0,1,1.59677-6.4411l.86935.46043a12.83062,12.83062,0,0,0-1.481,5.984c-.00083.13771.00082.272.00592.40553Zm24.46841-7.47183a12.86029,12.86029,0,0,0-4.8891-4.37546l.44779-.877a13.85061,13.85061,0,0,1,5.26425,4.71172Zm-17.555-3.77054-.52887-.83049a13.75992,13.75992,0,0,1,6.73511-2.13154l.04645.9834a12.75807,12.75807,0,0,0-6.25272,1.97866Z"/><path class="cls-2" d="M51.35506,259.00571a42.89118,42.89118,0,0,1-6.89564-.94791l.21375-.96143a42.057,42.057,0,0,0,6.7368.92679Zm6.95731-.17237-.10308-.97833a41.79084,41.79084,0,0,0,6.68189-1.26218l.2619.94959A42.818,42.818,0,0,1,58.31237,258.83334Zm-20.507-2.83615a42.77915,42.77915,0,0,1-6.22821-3.11749l.51114-.84232a41.6591,41.6591,0,0,0,6.08373,3.04651Zm33.88679-.84485-.41229-.89386a41.8027,41.8027,0,0,0,5.91984-3.34134l.55169.81528a42.86666,42.86666,0,0,1-6.0592,3.41992Zm-45.75265-6.35745a43.18692,43.18692,0,0,1-4.90518-4.939l.75276-.63449a42.10643,42.10643,0,0,0,4.79281,4.82577Zm57.24-1.4202-.67588-.71475a42.28082,42.28082,0,0,0,4.55036-5.05725l.78231.59818a43.26775,43.26775,0,0,1-4.65673,5.17382ZM16.99,238.19122a42.77051,42.77051,0,0,1-3.07186-6.24258l.91581-.3616a41.7881,41.7881,0,0,0,3.00089,6.09893Zm74.60584-1.84936-.86935-.463a41.737,41.737,0,0,0,2.69591-6.24762l.93271.31512a42.63432,42.63432,0,0,1-2.75921,6.39551ZM11.90411,225.28452a43.03209,43.03209,0,0,1-.90314-6.90323l.98341-.04816a42.01037,42.01037,0,0,0,.882,6.74356Zm84.12812-2.09693-.97158-.158a42.18077,42.18077,0,0,0,.54663-6.779c0-1.38556-.06842-2.78461-.20446-4.16l.97918-.09635c.13855,1.40668.20867,2.83869.20867,4.2555A43.06078,43.06078,0,0,1,96.03223,223.18759Zm-83.8358-11.65213-.97833-.10983a42.77647,42.77647,0,0,1,1.33739-6.83142l.94707.267A41.81791,41.81791,0,0,0,12.19643,211.53546Zm81.9898-6.13525A41.78127,41.78127,0,0,0,91.895,198.998l.89721-.40555a42.67264,42.67264,0,0,1,2.3453,6.55432ZM15.88081,198.4877l-.89132-.419a42.93336,42.93336,0,0,1,3.46472-6.0398l.81105.55759a41.93556,41.93556,0,0,0-3.38445,5.90118Zm72.71169-5.4324a42.05546,42.05546,0,0,0-4.22085-5.33267l.7198-.67081a43.01941,43.01941,0,0,1,4.32054,5.4577Zm-65.03289-5.74579-.71051-.68094a43.07592,43.07592,0,0,1,5.20678-4.62045l.5914.78656A42.1293,42.1293,0,0,0,23.55961,187.30951Zm55.78519-4.17017a42.007,42.007,0,0,0-5.701-3.7131l.468-.86511a42.90268,42.90268,0,0,1,5.83536,3.79928Zm-44.95-3.97751-.45706-.87271a42.64222,42.64222,0,0,1,6.41154-2.71365l.30836.93439a41.72608,41.72608,0,0,0-6.26287,2.652Zm33.02082-2.47119a41.632,41.632,0,0,0-6.589-1.68292l.16559-.97073a42.7898,42.7898,0,0,1,6.74441,1.72348Zm-20.1479-1.775-.15208-.97327a43.21267,43.21267,0,0,1,6.63628-.51367h.01858l.28894.00086-.00929.98425-.27965-.00086a40.64291,40.64291,0,0,0-6.50281.50266Z"/><path class="cls-2" d="M570.47168,217.55417a17.04139,17.04139,0,0,1-6.7655-1.955l.4613-.86935a16.0626,16.0626,0,0,0,6.37775,1.84176Zm6.98267-.91159-.32526-.9285a16.13929,16.13929,0,0,0,5.68579-3.4267l.66913.72065A17.09213,17.09213,0,0,1,577.45435,216.64258ZM558.289,211.09869a17.09458,17.09458,0,0,1-3.16736-6.289l.9513-.25345a16.11651,16.11651,0,0,0,2.98651,5.92914Zm29.27558-3.82882-.90149-.39371a16.12438,16.12438,0,0,0,1.3526-6.50024H589a17.12285,17.12285,0,0,1-1.43536,6.89392Zm.354-8.66391a16.0644,16.0644,0,0,0-2.053-6.311l.85333-.49a17.00786,17.00786,0,0,1,2.178,6.69541Zm-32.20551-.67926-.97326-.14783a17.03653,17.03653,0,0,1,2.46106-6.59824l.83215.52719A16.06,16.06,0,0,0,555.71307,197.9267ZM581.453,187.33316a16.0728,16.0728,0,0,0-6.02545-2.78714l.22138-.95975a17.069,17.069,0,0,1,6.393,2.95612Zm-18.80285-.39963-.55341-.8136a17.04411,17.04411,0,0,1,6.51209-2.68237l.17907.96735A16.08629,16.08629,0,0,0,562.65015,186.93353Z"/><path class="cls-2" d="M444.57523,15.434a5.90636,5.90636,0,1,1-5.90638-5.90633h0A5.90635,5.90635,0,0,1,444.57523,15.434Z"/><path class="cls-2" d="M59.67679,158.66415a5.414,5.414,0,1,1,0-.00122Z"/><circle class="cls-2" cx="557.7804" cy="180.81265" r="3.93785"/><path class="cls-2" d="M221.11763,19.86435a3.44529,3.44529,0,1,1-3.4453-3.44528h0A3.4455,3.4455,0,0,1,221.11763,19.86435Z"/><path class="cls-4" d="M198.99278,72.98068H166.00661a3.95321,3.95321,0,0,0-3.953,3.953V98.19763a3.9532,3.9532,0,0,0,3.953,3.953h9.8188l3.10058,5.37069,3.57287,6.1885,3.57286-6.1885,3.10058-5.37069h9.8188a3.95316,3.95316,0,0,0,3.953-3.953V76.93372a3.95064,3.95064,0,0,0-3.94821-3.953Z"/><path class="cls-5" d="M175.91328,134.34189c-6.89309-4.2479-11.18829,4.04175-11.21533,4.09244-.0262-.05069-4.32223-8.34034-11.21533-4.09244-7.91789,4.87982-.17911,20.29321,11.21364,24.03335l.00085.00086.00086-.00086.00085.00086v-.00086C176.09239,154.63507,183.83118,139.22171,175.91328,134.34189Z"/><path class="cls-4" d="M130.1564,89.83623a37.15747,37.15747,0,0,0,8.62166.05154,4.67174,4.67174,0,0,0,1.98708-.54745,1.64624,1.64624,0,0,0,.87272-1.67957,2.06458,2.06458,0,0,0,1.31543-.76459,1.90444,1.90444,0,0,0,.39878-.49508,1.47418,1.47418,0,0,0,.11236-.72066,2.22184,2.22184,0,0,0-1.0814-1.8764,1.95842,1.95842,0,0,0,.94706-3.13355,2.32168,2.32168,0,0,0-1.0003-.64967c.28218-.25092.675-.3768.89554-.68349a1.12186,1.12186,0,0,0-.24671-1.416,2.446,2.446,0,0,0-1.45059-.52888,22.22,22.22,0,0,0-2.86317.076,5.78955,5.78955,0,0,1-2.83446-.58464c-.18332-1.26051.11745-2.57509-.21965-3.8035a3.86642,3.86642,0,0,0-3.41486-2.761.7771.7771,0,0,0-.99185.87358,12.96647,12.96647,0,0,0,.61166,2.98061,3.7055,3.7055,0,0,1-.28555,2.94767,9.78913,9.78913,0,0,0-.724.94454,6.85849,6.85849,0,0,0-.36326,1.59676c-.13181.53225-.54831,1.08984-1.09325,1.03494Z"/><path class="cls-6" d="M129.68921,90.905h-3.414a.47956.47956,0,0,1-.47988-.4792V78.52963a.47956.47956,0,0,1,.47923-.47986h3.41465a.48008.48008,0,0,1,.47986.47986V90.42508A.4801.4801,0,0,1,129.68921,90.905Z"/><path class="cls-4" d="M127.87617,79.116a.5331.5331,0,1,1-.5331.53309A.5331.5331,0,0,1,127.87617,79.116Z"/><path class="cls-7" d="M480.03766,109.07506H447.05148a3.95319,3.95319,0,0,0-3.95306,3.953V134.292a3.95318,3.95318,0,0,0,3.95306,3.953h9.81882l3.10056,5.37069,3.57284,6.18848,3.57285-6.18848,3.10055-5.37069H480.036a3.95322,3.95322,0,0,0,3.953-3.953V113.02811a3.95067,3.95067,0,0,0-3.94827-3.95305Z"/><path class="cls-4" d="M460.91287,133.149a37.10916,37.10916,0,0,0,8.62168.05154,4.65955,4.65955,0,0,0,1.98706-.54745,1.64629,1.64629,0,0,0,.87274-1.67957,2.06823,2.06823,0,0,0,1.31625-.76459,1.88353,1.88353,0,0,0,.39792-.49508,1.47428,1.47428,0,0,0,.11237-.72065,2.22371,2.22371,0,0,0-1.08142-1.8764,1.95842,1.95842,0,0,0,.947-3.13354,2.32184,2.32184,0,0,0-1.00031-.64969c.28217-.25092.675-.3768.89554-.68347a1.1219,1.1219,0,0,0-.2467-1.416,2.44209,2.44209,0,0,0-1.4506-.52887,22.22349,22.22349,0,0,0-2.86316.076,5.78768,5.78768,0,0,1-2.83444-.58463c-.18332-1.26052.1174-2.5751-.21966-3.80349a3.86639,3.86639,0,0,0-3.41486-2.761.77709.77709,0,0,0-.99185.87358,12.96677,12.96677,0,0,0,.61166,2.98062,3.70548,3.70548,0,0,1-.28558,2.94766,9.78321,9.78321,0,0,0-.724.94455,6.85849,6.85849,0,0,0-.36328,1.59677c-.13181.53226-.54828,1.08984-1.09323,1.03409Z"/><path class="cls-6" d="M460.44568,134.21768h-3.414a.47952.47952,0,0,1-.47986-.47919V121.84238a.47956.47956,0,0,1,.47925-.47986h3.41461a.47953.47953,0,0,1,.47986.47919v11.89608a.479.479,0,0,1-.47812.47989Z"/><path class="cls-4" d="M459.16574,122.96262a.53308.53308,0,1,1-.53308-.53309A.5331.5331,0,0,1,459.16574,122.96262Z"/><path class="cls-8" d="M462.71915,310.1037H453.12c.75021,5.90631,1.34838,10.40765,1.60351,12.317,0,0-6.7005,4.54783-11.24741,3.959a.7.7,0,0,0-.66577.2619.97919.97919,0,0,0,.09211,1.28162.68346.68346,0,0,0,.53732.25006H461.522a1.36372,1.36372,0,0,0,1.35172-1.16675,11.35716,11.35716,0,0,0-.30161-4.3121Z"/><path class="cls-6" d="M452.14252,324.02844s1.5993,1.04593,1.846,2.15354c.12417.55847,1.85949.45962,3.55007.22473a10.856,10.856,0,0,0,4.73707-1.97946,1.06817,1.06817,0,0,1,.69613-.27543c.61508.12336.55341,3.87616-.185,4.18369-.68008.283-17.26864.04477-19.89358.00507a.369.369,0,0,1-.36667-.36667c-.00677-.63617.10138-1.90091,1.06451-2.03775C444.88275,325.75107,452.14252,324.02844,452.14252,324.02844Z"/><path class="cls-8" d="M484.7984,310.1037h-9.59915l2.35034,12.5899a11.50789,11.50789,0,0,0,.45285,4.31211,1.69779,1.69779,0,0,0,1.55536,1.16674h15.0188c.00253-.64291.02026-1.28585.03464-1.92877-4.2555-.78909-9.26117-3.82376-9.26117-3.82376C485.27151,320.51135,485.08139,316.00916,484.7984,310.1037Z"/><path class="cls-6" d="M488.30957,324.02844s-1.5993,1.04593-1.846,2.15354c-.12417.55847-1.8595.45962-3.54919.22473a10.85586,10.85586,0,0,1-4.73706-1.97946,1.06973,1.06973,0,0,0-.69614-.27543c-.61508.12336-.55341,3.87616.1842,4.18369.68012.283,17.26865.04477,19.89359.00507a.36852.36852,0,0,0,.36667-.36667c.00677-.63617-.10138-1.90091-1.06452-2.03775C495.56931,325.75107,488.30957,324.02844,488.30957,324.02844Z"/><path class="cls-7" d="M451.30191,197.63605s-5.57855,5.086-5.086,9.18771,4.26563,16.57083,3.11749,25.10208-3.7731,15.91437-3.11749,24.93817c.65643,9.02381,6.23413,59.06406,6.23413,59.06406s12.633-4.26562,17.0625-2.29712,16.57083,3.60919,18.21149,2.95358c0,0-2.78885-67.43139-11.97656-80.06439,0,0-1.64072-18.12958-.04142-22.18988s-.3692-15.25793-4.4295-16.61136C467.21625,196.36459,451.30191,197.63605,451.30191,197.63605Z"/><path class="cls-6" d="M455.342,203.93271c3.09973-.39032,6.15555-.7536,9.186-1.28,1.51647-.25513,3.0144-.57956,4.51315-.92426,1.492-.37173,2.96118-.81274,4.45065-1.30191a23.5762,23.5762,0,0,1-8.79571,3.19605,37.41825,37.41825,0,0,1-4.67032.48578A27.37972,27.37972,0,0,1,455.342,203.93271Z"/><path class="cls-6" d="M458.84808,284.34772c2.13239-2.6258,4.26816-5.184,6.27216-7.85706,2.02847-2.65536,3.91165-5.40362,5.86322-8.16711A41.34478,41.34478,0,0,1,458.84808,284.34772Z"/><path class="cls-6" d="M465.323,283.04074a17.59827,17.59827,0,0,1,1.83841-3.99359,17.38438,17.38438,0,0,1,2.68066-3.48413,17.23612,17.23612,0,0,1-1.83841,3.99359A17.43813,17.43813,0,0,1,465.323,283.04074Z"/><path class="cls-8" d="M465.56879,232.92023c.06167-.77387-5.10709-2.15354-4.90522-2.6807.17908-.46722,1.48777-.64462,2.17127-.62011a.22243.22243,0,0,0,.2374-.25092c-.03043-.28473-.19941-.7012-.915-.77472a12.52973,12.52973,0,0,0-4.90772.381l-.005-.00253c-.25766-.14447-2.53626-1.38977-5.93506-3.26193-.60068,2.03018-1.15662,4.089-1.91782,6.01953a57.71272,57.71272,0,0,0,6.91675.92425v-.01944l.00171-.00506c1.2605,1.17181,4.33154,3.91165,6.03809,4.43881a.16068.16068,0,0,0,.20275-.21545c-.10308-.29233-.47561-.844-1.70489-1.76911,0,0,3.00934,1.26389,3.55511,1.04.545-.22305-3.0524-2.37149-3.0524-2.37149s3.534,1.05942,3.91248.6767-3.42248-2.08-3.42248-2.08S465.54431,233.23114,465.56879,232.92023Z"/><path class="cls-7" d="M449.49734,199.27676a137.26653,137.26653,0,0,0-11.15621,12.96079c-4.01978,5.66049-4.84012,8.77713-3.8559,12.30517.98422,3.52723,7.13727,5.57853,8.94183,6.1522,1.80457.57449,10.66449,2.21521,10.66449,2.21521l1.47678-5.24988-10.2547-5.90637,10.50061-15.094Z"/><path class="cls-6" d="M441.56,220.359a8.21255,8.21255,0,0,1,1.99722.31174,13.70975,13.70975,0,0,1,1.86292.66149l-.57367.68854a8.937,8.937,0,0,1-.94962-2.46188,8.94909,8.94909,0,0,1,1.75729,1.96765l.79841,1.15491-1.372-.46552a13.6392,13.6392,0,0,1-1.82825-.7536A8.26556,8.26556,0,0,1,441.56,220.359Z"/><path class="cls-6" d="M450.60492,215.86786a8.01674,8.01674,0,0,1,1.74884-2.38333,7.90616,7.90616,0,0,1,2.43484-1.677,7.93246,7.93246,0,0,1-1.74884,2.38333A8.02734,8.02734,0,0,1,450.60492,215.86786Z"/><path class="cls-9" d="M477.03256,235.86368H446.02417V217.2424a1.39467,1.39467,0,0,1,1.3945-1.39484h28.21988a1.39466,1.39466,0,0,1,1.39484,1.39447v18.62165Z"/><rect class="cls-10" x="446.02414" y="235.53586" width="31.00839" height="2.29712"/><path class="cls-4" d="M464.31763,226.676a2.78887,2.78887,0,1,1-2.78891-2.78881h.00006A2.789,2.789,0,0,1,464.31763,226.676Z"/><path class="cls-8" d="M478.8194,231.66141l-.51956-.648c-.12839.02282-.24418.05746-.36921.08365-.19516-.125-.39538-.24671-.588-.37342-.17233.32444-.2847.53394-.321.60239l-.00171.00253a12.523,12.523,0,0,0-4.32224,2.374.87359.87359,0,0,0-.34131,1.14984.22337.22337,0,0,0,.2988.10254.221.221,0,0,0,.03745-.02314c.55758-.39538,1.74966-.964,2.156-.67166.45789.33032-3.109,4.31714-2.63339,4.93051.19095.24671,2.80573-2.52185,2.80573-2.52185s-2.24985,3.50272-1.72263,3.61594c.52634.11236,2.902-2.71027,2.902-2.71027s-1.83167,3.76886-1.2529,3.6565,2.40274-2.81842,2.40274-2.81842a4.73385,4.73385,0,0,0-.45621,2.41372.16032.16032,0,0,0,.28726.06928c1.138-1.37457,2.20423-5.34448,2.61649-7.01813l.00845.0076.01016.01013c.39621-.30075.77472-.6235,1.16166-.93524Q479.88551,232.32632,478.8194,231.66141Z"/><path class="cls-7" d="M472.63007,198.70309a36.394,36.394,0,0,1,4.34756,2.13324c1.55872.98426,16.24216,13.53528,16.40689,17.14447.16388,3.6092-12.87884,16.24219-12.87884,16.24219l-3.36335-3.36331,5.24988-10.99228L468.1185,206.65991Z"/><path class="cls-6" d="M484.19684,217.40631a5.72226,5.72226,0,0,1-.561,1.47089,9.06511,9.06511,0,0,1-.833,1.27316l-.76712.95892-.10221-1.1929a7.44444,7.44444,0,0,1,.00083-1.21234,5.23175,5.23175,0,0,1,.23236-1.236,5.23945,5.23945,0,0,1,.479,1.16336,7.54508,7.54508,0,0,1,.24671,1.187l-.86936-.234a9.07316,9.07316,0,0,1,.95129-1.18786A5.6958,5.6958,0,0,1,484.19684,217.40631Z"/><path class="cls-6" d="M477.7988,230.26486a4.6341,4.6341,0,0,1,2.02255.93271,4.58135,4.58135,0,0,1,1.42355,1.71253A5.04415,5.04415,0,0,1,477.7988,230.26486Z"/><polygon class="cls-6" points="475.829 213.838 471.031 211.254 475.399 215.56 475.829 213.838"/><path class="cls-8" d="M472.26425,182.531a1.8622,1.8622,0,0,0-2.09015-1.31543c.403-11.86673-9.49014-10.26828-9.49014-10.26828-6.20959.539-6.9176,7.13809-6.87112,10.49975a2.32429,2.32429,0,0,0-.49427-.23065,1.86168,1.86168,0,0,0-2.09689,1.31458,2.46262,2.46262,0,0,0,.31934,2.0513,3.10255,3.10255,0,0,0,1.40924,1.17773,4.03858,4.03858,0,0,0,1.08307.12418c.95892,7.75906,7.988,6.99533,7.988,6.99533,6.09387.3016,7.67545-3.95557,8.03028-7.02744a2.84258,2.84258,0,0,0,.4841-.09125,3.10419,3.10419,0,0,0,1.41006-1.17773A2.46753,2.46753,0,0,0,472.26425,182.531Z"/><circle class="cls-8" cx="466.96704" cy="185.49478" r="1.98706"/><circle class="cls-8" cx="457.07559" cy="185.49478" r="1.98706"/><ellipse class="cls-6" cx="464.50687" cy="181.63806" rx="0.57367" ry="1.17517"/><path class="cls-6" d="M465.67865,180.09113a1.69992,1.69992,0,0,1-.38864.50183,1.36286,1.36286,0,0,1-.60068.31091l-.00928.00253a.21232.21232,0,1,1-.03888-.419,1.23912,1.23912,0,0,0,.9209-.46634l.00424-.00507a.06929.06929,0,0,1,.09714-.0076A.06858.06858,0,0,1,465.67865,180.09113Z"/><ellipse class="cls-6" cx="459.53577" cy="181.63806" rx="0.57367" ry="1.17517"/><path class="cls-6" d="M458.48141,180.02017a1.242,1.242,0,0,0,.9209.46637.21221.21221,0,0,1,.018.424l-.00116.00006a.19779.19779,0,0,1-.05493-.00506l-.011-.00253a1.36293,1.36293,0,0,1-.60068-.31092,1.68065,1.68065,0,0,1-.38864-.50183.06842.06842,0,0,1,.02951-.0921h0a.07057.07057,0,0,1,.08365.01605Z"/><path class="cls-6" d="M464.17654,185.19315a2.81434,2.81434,0,0,1-.86511.98425,2.19715,2.19715,0,0,1-1.285.42663,2.23028,2.23028,0,0,1-1.27909-.441,4.10822,4.10822,0,0,1-.49508-.441c-.13516-.174-.26694-.34806-.38526-.528.17743.1301.33878.26782.50184.40216.18078.10983.34219.245.52462.33707a2.36855,2.36855,0,0,0,1.13465.32272,2.31631,2.31631,0,0,0,1.13971-.30752A5.047,5.047,0,0,0,464.17654,185.19315Z"/><path class="cls-6" d="M462.62622,187.27655a.94337.94337,0,0,1-.60409.20444.98969.98969,0,0,1-.60492-.20444,3.106,3.106,0,0,0,.60492.06757A2.64209,2.64209,0,0,0,462.62622,187.27655Z"/><path class="cls-6" d="M460.58759,177.56253a1.365,1.365,0,0,0-.88959-.3295,2.73083,2.73083,0,0,0-.947.13434,2.3101,2.3101,0,0,0-.83387.47733,2.4198,2.4198,0,0,0-.56942.73.27485.27485,0,0,0,.42578.33624l.02365-.022a3.37055,3.37055,0,0,1,.56692-.45029,1.97722,1.97722,0,0,1,.62607-.25681,2.44373,2.44373,0,0,1,.67758-.06588,2.60261,2.60261,0,0,0,.72486-.04224l.07266-.01773a.28765.28765,0,0,0,.21133-.3476l-.00012-.00048A.29688.29688,0,0,0,460.58759,177.56253Z"/><path class="cls-6" d="M463.45587,177.56253a1.365,1.365,0,0,1,.88962-.3295,2.73049,2.73049,0,0,1,.947.13434,2.31,2.31,0,0,1,.83386.47733,2.40553,2.40553,0,0,1,.56943.73.27485.27485,0,0,1-.42578.33624l-.0228-.022a3.4036,3.4036,0,0,0-.56692-.45029,1.96891,1.96891,0,0,0-.626-.25681,2.44615,2.44615,0,0,0-.6784-.06588,2.60261,2.60261,0,0,1-.72486-.04224l-.07266-.01773a.28829.28829,0,0,1-.21121-.34808A.297.297,0,0,1,463.45587,177.56253Z"/><path class="cls-6" d="M462.15482,179.84277c.10138.44269.17572.88288.25854,1.318.08533.43426.16477.86764.28809,1.27911.02871.10309.06085.20532.09713.30331a1.08053,1.08053,0,0,1,.09967.37934.76317.76317,0,0,1-.41226.697.92644.92644,0,0,1-.74939.0397,1.80965,1.80965,0,0,1-.59311-.35483c.41227.15464.893.27543,1.18363.05658a.45346.45346,0,0,0,.20364-.419.85379.85379,0,0,0-.08615-.26105c-.04394-.10983-.08365-.22049-.11658-.332a6.21681,6.21681,0,0,1-.21545-1.35175A7.18678,7.18678,0,0,1,462.15482,179.84277Z"/><path class="cls-6" d="M451.94144,183.16638a.97552.97552,0,0,1,.30581-.77728.90923.90923,0,0,1,.88626-.08533,1.66713,1.66713,0,0,1,.71558.52213,2.69064,2.69064,0,0,1,.44522.75024.19594.19594,0,0,1-.321.21121l-.0127-.01352a1.72389,1.72389,0,0,0-.65814-.46551.30311.30311,0,0,0-.27628.03043.74081.74081,0,0,0-.19769.305c-.10055.25766-.16052.55926.05914.6784a1.47549,1.47549,0,0,0,.86936.05915,1.36681,1.36681,0,0,1-.95551.12841.53786.53786,0,0,1-.33709-.45028,1.39537,1.39537,0,0,1,.05575-.52042.97854.97854,0,0,1,.27793-.47986.6585.6585,0,0,1,.6015-.12417,1.9,1.9,0,0,1,.85666.5762l-.33457.19769a2.09582,2.09582,0,0,0-.90228-1.12872.73693.73693,0,0,0-.66831-.04056A.98025.98025,0,0,0,451.94144,183.16638Z"/><path class="cls-6" d="M471.80042,183.16638a.97552.97552,0,0,0-.30582-.77728.90922.90922,0,0,0-.88626-.08533,1.66713,1.66713,0,0,0-.71558.52213,2.66856,2.66856,0,0,0-.4444.75024.196.196,0,0,0,.32105.21121l.01266-.01352a1.72392,1.72392,0,0,1,.65815-.46551.30308.30308,0,0,1,.27627.03043.74081.74081,0,0,1,.19769.305c.10056.25766.16053.55926-.05914.6784a1.47546,1.47546,0,0,1-.86935.05915,1.36679,1.36679,0,0,0,.9555.12841.5378.5378,0,0,0,.33707-.45028,1.39556,1.39556,0,0,0-.05573-.52042.97834.97834,0,0,0-.278-.47986.6585.6585,0,0,0-.6015-.12417,1.9,1.9,0,0,0-.85666.5762l.33456.19769a2.09584,2.09584,0,0,1,.90229-1.12872.73685.73685,0,0,1,.66827-.04056A.98253.98253,0,0,1,471.80042,183.16638Z"/><path class="cls-6" d="M473.97083,198.73605c-.0355-.00927-.07013-.01858-.10477-.02871a4.43261,4.43261,0,0,1-2.98993-5.15357c.77219-3.93191,2.069-10.99988,1.83581-12.98022-.32778-2.78885-2.21517-10.74646-9.59744-11.321-7.38312-.57449-11.89456,4.34757-12.79687,11.48484s1.47677,14.84817,1.47677,14.84817c-.07013,1.11859-3.83307,4.6796-4.944,5.7078a.2458.2458,0,0,0,.09714.41229c11.168,3.53232,23.89481-1.2005,27.06973-2.51679a.23872.23872,0,0,0-.04644-.45285Zm-11.95795-6.34985c-4.28339,0-7.75656-4.02148-7.75656-8.98239s3.47232-8.98239,7.75656-8.98239,7.75656,4.02148,7.75656,8.98239c-.00089,4.96091-3.47321,8.98239-7.75659,8.98239Z"/><path class="cls-4" d="M448.18442,201.24609a90.87931,90.87931,0,0,0,9.53576-4.05355,46.67737,46.67737,0,0,0,4.43628-2.59113A31.71234,31.71234,0,0,0,466.1492,191.32a16.75291,16.75291,0,0,1-3.534,3.89813,27.79243,27.79243,0,0,1-4.44726,2.85053,34.65811,34.65811,0,0,1-4.87137,1.99636A27.69993,27.69993,0,0,1,448.18442,201.24609Z"/><path class="cls-4" d="M457.20822,191.15524a7.14905,7.14905,0,0,1-2.72632-1.74884,8.19646,8.19646,0,0,1-1.83841-2.74322,8.29472,8.29472,0,0,1-.62689-3.23917,8.86008,8.86008,0,0,1,.14533-1.62717,12.01891,12.01891,0,0,1,.452-1.55282c.03888.54492.00254,1.0679.03043,1.58917.05408.52042.03634,1.03662.13855,1.54016l.11154.7536.18079.73587a5.65121,5.65121,0,0,0,.21374.7215,5.16628,5.16628,0,0,0,.26361.70291,10.91764,10.91764,0,0,0,1.50214,2.61228A14.62381,14.62381,0,0,0,457.20822,191.15524Z"/><path class="cls-4" d="M455.81339,177.94861s6.52136-2.99414,12.4277,0C468.24191,177.94861,462.21225,168.35031,455.81339,177.94861Z"/><path class="cls-9" d="M399.78485,328.47235H243.2661a17.2274,17.2274,0,0,1-17.22725-17.22723V45.45813A17.2274,17.2274,0,0,1,243.2661,28.23087H399.78485a17.2274,17.2274,0,0,1,17.22723,17.22726V311.2442a17.22758,17.22758,0,0,1-17.227,17.22815Z"/><rect class="cls-11" x="299.37656" y="35.45007" width="44.29785" height="3.28139"/><rect class="cls-11" x="300.52557" y="311.73761" width="42.00067" height="8.53125"/><rect class="cls-4" x="230.63313" y="47.59135" width="181.78471" height="258.66743"/><rect class="cls-6" x="230.63313" y="47.59135" width="181.78471" height="9.84415"/><circle class="cls-12" cx="246.7942" cy="230.93484" r="7.30116"/><circle class="cls-13" cx="246.7942" cy="291.72153" r="7.30116"/><circle class="cls-12" cx="266.97418" cy="230.93484" r="7.30115"/><rect class="cls-2" x="278.37622" y="225.27438" width="38.88318" height="3.7731"/><rect class="cls-2" x="240.80507" y="242.99332" width="161.44084" height="3.7731"/><rect class="cls-2" x="240.80507" y="250.70508" width="161.44084" height="3.7731"/><rect class="cls-2" x="240.80507" y="258.41599" width="38.88319" height="3.7731"/><rect class="cls-2" x="257.0481" y="285.73325" width="38.88318" height="3.7731"/><circle class="cls-5" cx="246.78555" cy="92.22829" r="7.30081"/><rect class="cls-2" x="257.0481" y="86.22871" width="38.88318" height="3.77309"/><rect class="cls-2" x="278.37622" y="232.32968" width="62.67325" height="3.7731"/><rect class="cls-5" x="230.63313" y="102.06114" width="181.78471" height="118.12724"/><g class="cls-14"><path class="cls-15" d="M362.0101,230.749c-5.84378,0-11.74844-2.70855-16.38748-4.83844-6.07275-2.78714-9.97763-10.34851-8.70361-16.85806a12.36212,12.36212,0,0,1,8.30145-9.49606c.43848-.12589.88455-.22391,1.33063-.3219a12.746,12.746,0,0,0,1.96005-.53733,8.50521,8.50521,0,0,0,4.737-6.18,27.28857,27.28857,0,0,0,.267-7.95l-.02787-.44016c-.28219-4.55374-.419-9.36935,1.24024-13.7879,1.53171-4.07892,5.32251-8.36481,10.33923-8.74246.60153-.04645,1.20645-.03378,1.79108-.022a12.3325,12.3325,0,0,0,2.38672-.10477c3.60666-.637,5.90545-4.40335,7.75229-7.43042,1.85357-3.03638,4.82745-7.05109,9.07364-6.9852a7.45883,7.45883,0,0,1,6.38955,4.50049,11.07921,11.07921,0,0,1,.21881,7.86975c-.245.78064-.55844,1.57565-.86172,2.34531-.95975,2.4357-1.8646,4.73706-.95383,6.87872a9.07638,9.07638,0,0,0,1.917,2.55228c.28388.29992.5669.59985.83557.90905a14.2369,14.2369,0,0,1,1.23264,16.37229c-2.0589,3.26028-5.38251,5.52868-8.59714,7.72192-4.05609,2.76856-7.88577,5.38251-9.17587,9.75968a20.05135,20.05135,0,0,0-.32779,7.13049,24.70422,24.70422,0,0,1-.11575,6.50363,14.035,14.035,0,0,1-8.50086,9.98694A15.84378,15.84378,0,0,1,362.0101,230.749Zm4.03919-68.201c-.30668,0-.60746.0076-.91074.02957-4.58246.3447-8.06912,4.32053-9.491,8.10715-1.59,4.23776-1.4548,8.93338-1.17856,13.38068l.02787.44015a27.96828,27.96828,0,0,1-.29233,8.2381,9.4773,9.4773,0,0,1-5.3335,6.86862,13.7014,13.7014,0,0,1-2.11126.58463c-.42582.09292-.8516.18588-1.26981.30582h0a11.36108,11.36108,0,0,0-7.607,8.73825c-1.171,5.98742,2.56073,13.21084,8.15023,15.775,6.11417,2.8049,14.4942,6.64642,21.721,3.65988a13.0433,13.0433,0,0,0,7.91284-9.268,24.0267,24.0267,0,0,0,.09885-6.24341,21.06354,21.06354,0,0,1,.365-7.47858c1.38895-4.71255,5.54471-7.55041,9.56534-10.29361,3.131-2.13745,6.36929-4.34674,8.31921-7.43381a13.219,13.219,0,0,0-1.14392-15.203c-.25851-.29822-.53226-.58716-.80514-.87695a9.9036,9.9036,0,0,1-2.10788-2.84375c-1.07044-2.51258-.04645-5.11133.94284-7.62473.29739-.7536.60406-1.53253.83892-2.28106a10.105,10.105,0,0,0-.1791-7.16852,6.45414,6.45414,0,0,0-5.50925-3.92179c-3.74774-.0397-6.49011,3.68436-8.21613,6.51377-1.94992,3.19519-4.37631,7.17276-8.42141,7.88662a13.40063,13.40063,0,0,1-2.57761.11915c-.267-.0051-.52893-.0102-.78747-.0102Z"/><path class="cls-15" d="M394.98615,141.191a3.32236,3.32236,0,1,1,3.32192-3.32278v.00085A3.32528,3.32528,0,0,1,394.98615,141.191Zm0-5.66046a2.33769,2.33769,0,1,0,2.33767,2.33771v0a2.34,2.34,0,0,0-2.33767-2.33765Z"/><path class="cls-15" d="M380.34326,123.71793a1.23009,1.23009,0,1,1-1.2301-1.23011A1.23009,1.23009,0,0,1,380.34326,123.71793Z"/><circle class="cls-15" cx="248.0657" cy="194.71713" r="1.5993"/><path class="cls-15" d="M394.7403,203.45367a3.07608,3.07608,0,1,1,3.07608-3.07608A3.07606,3.07606,0,0,1,394.7403,203.45367Zm0-5.16793a2.09184,2.09184,0,1,0,2.09185,2.09185A2.0918,2.0918,0,0,0,394.7403,198.28574Z"/></g><g class="cls-14"><path class="cls-6" d="M294.29062,194.266s-9.5155,15.75046-12.30518,29.36768h64.15s-4.92206-23.62528-10.49976-29.20383Z"/><path class="cls-4" d="M292.73187,198.90079c1.86627-.11069,3.73255-.15882,5.59879-.23993l5.59881-.13684c3.73255-.0904,7.46506-.10309,11.19761-.1149,3.73254.011,7.46505.0245,11.1976.11322l5.59881.13769c1.86627.08194,3.73255.1301,5.59882.24164-1.86627.11151-3.73255.15967-5.59882.24164l-5.59881.1377c-3.73255.08953-7.46506.10223-11.1976.11322-3.73255-.0127-7.46506-.02536-11.19761-.1149l-5.59881-.13684C296.46439,199.05963,294.59811,199.01147,292.73187,198.90079Z"/><path class="cls-4" d="M299.25409,199.27a14.45,14.45,0,0,1-1.20728,3.55933,14.87405,14.87405,0,0,1-2.053,3.19775,8.8259,8.8259,0,0,1-3.0541,2.35879,5.16377,5.16377,0,0,1-3.77564.23572,6.61181,6.61181,0,0,0,3.42923-.92087,10.782,10.782,0,0,0,2.65537-2.31573A37.82916,37.82916,0,0,0,299.25409,199.27Z"/><path class="cls-4" d="M318.44983,198.77829c.14361,3.15805.25345,6.31692.31091,9.47494l.10138,4.73707.03549,4.73706.00171.18335-.13266.13348c-1.715,1.73025-3.41064,3.47992-5.14175,5.19412l-.83975.83133.01266-1.17435c.04309-3.99865.02448-7.99816.11829-11.99765.07516-3.99865.17318-7.99816.36667-11.99765.19348,3.99866.29147,7.99817.36663,11.99765.09378,3.99952.07517,7.99817.11829,11.99765l-.82709-.343c1.71418-1.73111,3.46387-3.4267,5.19413-5.14176l-.131.31684.0355-4.73706.10138-4.73706C318.19553,205.09436,318.30621,201.93631,318.44983,198.77829Z"/><path class="cls-4" d="M332.96936,198.90079a23.95279,23.95279,0,0,0,.60657,3.31012,9.76863,9.76863,0,0,0,1.26642,2.94006,5.17692,5.17692,0,0,0,2.39007,1.90512,10.02621,10.02621,0,0,0,3.24335.58124,6.28946,6.28946,0,0,1-3.48328.14868,5.138,5.138,0,0,1-2.96032-2.07663,7.93071,7.93071,0,0,1-1.20646-3.349A9.44018,9.44018,0,0,1,332.96936,198.90079Z"/><path class="cls-16" d="M368.09637,129.55161l-7.91366.23825s-2.56073,11.64453-6.066,27.177c-1.1583-1.84006-2.24393-3.5813-3.2442-5.20847a134.97522,134.97522,0,0,1-12.51892,19.57254c2.64184,4.48361,5.67822,9.38117,9.1235,14.4773.0473.07013.09546.14108.14362.21206,6.11587,9.02634,20.22479,5.70948,21.66354-5.0978.01605-.1225.033-.24585.049-.36921C371.4707,164.36517,371.83734,146.61411,368.09637,129.55161Z"/><path class="cls-17" d="M363.4176,117.83865c-.18-2.06225-.44861-4.21409-.78317-4.14482-.55508.11574-.8837,1.5562-1.127,3.37685A13.09746,13.09746,0,0,1,363.4176,117.83865Z"/><path class="cls-17" d="M366.76151,120.37149c-.033-2.21518-.19178-6.55009-.92511-6.94633-.57364-.31006-1.209,2.45683-1.6424,4.83589A9.97357,9.97357,0,0,1,366.76151,120.37149Z"/><path class="cls-16" d="M372.27921,117.439c-.52552.3768-1.41257,1.44805-2.548,4.45065,0,0,.77048-6.76978.00424-7.732-.60745-.76289-2.113,4.389-2.712,6.56107a5.08232,5.08232,0,0,1,.83386,1.63226,6.06469,6.06469,0,0,1,.21207,2.36051,5.17407,5.17407,0,0,1-3.33884,6.45886,6.90988,6.90988,0,0,1-3.21378.2695,5.3444,5.3444,0,0,1-2.53793.23911,23.26573,23.26573,0,0,0,2.23209,3.24337l5.51092-1.05182s6.033-11.386,6.10568-16.15261a.33328.33328,0,0,0-.5483-.2789Z"/><path class="cls-6" d="M352.94406,169.24585a60.00011,60.00011,0,0,1,.16812-6.1564c.06589-1.02228.169-2.04029.26779-3.06.109-1.018.22559-2.03525.36835-3.0499l.79416.26191c-.99353,1.52072-2.0116,3.02624-3.1572,4.45657.71476-1.68717,1.55536-3.29828,2.42133-4.895l.91327-1.68378-.11911,1.94653c-.06253,1.02228-.15122,2.04282-.24753,3.06171-.10644,1.018-.20782,2.03693-.34723,3.05158A59.71813,59.71813,0,0,1,352.94406,169.24585Z"/><path class="cls-9" d="M355.74472,114.58768l9.49945,17.78485a1.849,1.849,0,0,0,2.13071.90652c1.75223-.48745,4.52752-1.59677,5.21353-3.83392,1.02142-3.33292-7.55206-19.94428-7.55206-19.94428Z"/><path class="cls-18" d="M345.539,91.50056l-3.20959.95975a2.0284,2.0284,0,0,0-1.42273,2.24645,73.23934,73.23934,0,0,0,5.37155,17.70205,2.02883,2.02883,0,0,0,2.44244,1.1397l2.84375-.85076Z"/><path class="cls-3" d="M361.34775,82.91187l-15.12021,4.52331c-2.22281.66489-2.13745,7.51575.19177,15.30185s6.01953,13.55811,8.24234,12.89319l15.12021-4.52332Z"/><path class="cls-13" d="M369.59006,95.80589c2.32922,7.78611,2.4154,14.637.19177,15.30185-2.22281.6649-5.91306-5.10794-8.24234-12.8932-2.32922-7.7861-2.41541-14.637-.19177-15.30185C363.57053,82.247,367.26083,88.01979,369.59006,95.80589Z"/><path class="cls-9" d="M389.86975,64.71556,361.86057,86.32333l.09463,1.92287a42.17817,42.17817,0,0,0,6.67514,20.70635h0l34.90988.20784Z"/><path class="cls-19" d="M408.35413,83.45256c3.71392,12.41417,2.13491,23.85086-3.5264,25.54477-4.38474,1.312-9.93454-3.605-13.94-11.658a50.55748,50.55748,0,0,1-4.65848-15.13963c-1.28-9.28146.64123-16.8116,5.14935-18.16C397.04,62.34492,404.64105,71.03839,408.35413,83.45256Z"/><path class="cls-20" d="M396.789,86.913c2.30643,7.71009,2.57172,15.04166,1.08392,19.89867-3.90994-3.24168-7.71511-9.5155-10.02157-17.22472-2.30725-7.71177-2.57257-15.04588-1.08478-19.90034C390.67661,72.92662,394.48264,79.20129,396.789,86.913Z"/><path class="cls-21" d="M396.91745,81.35226l3.03213,10.13561-9.061,5.85055a50.55777,50.55777,0,0,1-4.65848-15.13963Z"/><path class="cls-3" d="M400.74548,85.72858c.83725,2.799.48157,5.37745-.795,5.7593s-2.9899-1.57733-3.82715-4.37629-.48157-5.37746.795-5.75933C398.194,80.9704,399.90823,82.9296,400.74548,85.72858Z"/><path class="cls-6" d="M364.67474,84.67c.37342,2.14929.83216,4.27069,1.307,6.37942.50015,2.10367,1.02564,4.198,1.688,6.24764a52.59913,52.59913,0,0,0,2.30307,6.02038,32.73016,32.73016,0,0,0,3.31518,5.55234,20.98109,20.98109,0,0,1-3.99951-5.20341,35.40867,35.40867,0,0,1-2.55649-6.07276,46.252,46.252,0,0,1-1.50131-6.39718A39.97274,39.97274,0,0,1,364.67474,84.67Z"/><path class="cls-6" d="M352.45236,112.72565a44.413,44.413,0,0,1,12.633-3.77309,38.96649,38.96649,0,0,1-6.17584,2.358A39.43118,39.43118,0,0,1,352.45236,112.72565Z"/><path class="cls-6" d="M399.45706,85.819a11.07152,11.07152,0,0,1,.26779,1.5013,3.82746,3.82746,0,0,1,.00425.7874,1.47589,1.47589,0,0,1-.10477.41818.65109.65109,0,0,1-.38947.38356.74666.74666,0,0,1-.57534-.07941,1.62824,1.62824,0,0,1-.38019-.28132,3.6204,3.6204,0,0,1-.52381-.66912,5.49366,5.49366,0,0,1-.757-3.11578,3.48106,3.48106,0,0,1,.158-.83556,1.59939,1.59939,0,0,1,.20951-.425.75279.75279,0,0,1,.47732-.33456.65675.65675,0,0,1,.523.163,1.447,1.447,0,0,1,.2847.32526,3.90221,3.90221,0,0,1,.35654.70292A11.14987,11.14987,0,0,1,399.45706,85.819Zm0,0a4.96953,4.96953,0,0,0-.572-1.39568,2.90333,2.90333,0,0,0-.45959-.5728c-.16053-.163-.414-.26527-.46466-.19938a.78087.78087,0,0,0-.1301.4351,3.76822,3.76822,0,0,0,.01773.6725,11.21853,11.21853,0,0,0,.25345,1.38892,11.06839,11.06839,0,0,0,.4089,1.35176,3.63439,3.63439,0,0,0,.29233.6066.76629.76629,0,0,0,.31766.3278c.0769.03379.25516-.174.32272-.39285a2.87258,2.87258,0,0,0,.14533-.72066A4.97749,4.97749,0,0,0,399.45706,85.819Z"/><path class="cls-6" d="M392.23785,64.98251a15.82106,15.82106,0,0,1,6.15049,2.91135,14.64525,14.64525,0,0,1,2.43655,2.45259,31.88743,31.88743,0,0,1,1.90936,2.8598,61.81845,61.81845,0,0,1,5.61316,12.46656,43.39472,43.39472,0,0,1,1.4802,6.70808,22.83358,22.83358,0,0,1-.0152,6.88972,16.57981,16.57981,0,0,1-2.34616,6.46647,6.20387,6.20387,0,0,1-2.6731,2.18815,4.50151,4.50151,0,0,1-3.36755-.0397,4.38008,4.38008,0,0,0,1.66519.196,4.22848,4.22848,0,0,0,1.60181-.39708,5.83263,5.83263,0,0,0,2.374-2.21771,16.11551,16.11551,0,0,0,1.99637-6.30593c.56012-4.42445-.33628-8.92918-1.65506-13.19734a66.23006,66.23006,0,0,0-5.32675-12.38123,31.25083,31.25083,0,0,0-1.75223-2.86572,14.50477,14.50477,0,0,0-2.24643-2.45344A16.57407,16.57407,0,0,0,392.23785,64.98251Z"/><path class="cls-16" d="M359.75351,133.43872s-3.2814-7.21921-2.95358-8.85989,4.06033-5.66046,5.82437-5.004-.9437,5.74243-.9437,5.74243,4.389,5.33182,3.89643,8.03955C365.08533,136.06366,359.75351,133.43872,359.75351,133.43872Z"/><path class="cls-7" d="M327.72455,127.62451s14.31,7.57742,16.7702,10.531c2.461,2.95358,9.0238,16.89862,9.0238,16.89862L339.2449,174.24988S324.00046,151.52435,327.72455,127.62451Z"/><path class="cls-16" d="M330.56494,132.60065a4.671,4.671,0,0,1-.70291-2.92993,11.47348,11.47348,0,0,1-2.17719-2.01835c-.25262-.91244-.8381-3.14029-1.27911-5.65118a26.47923,26.47923,0,0,1-.47058-6.65317v-.00845a5.76787,5.76787,0,0,1,.65732-2.39343l-21.74466-12.22747c.01605.07267.02447.13771.04056.21122.34466,2.01919,2.96542,17.86.2771,26.26374a15.8452,15.8452,0,0,1-6.14121,1.37372,11.16182,11.16182,0,0,0-7.27753,2.89191c-2.11547,1.98791-3.991,5.33182-4.02484,10.90527,1.99045.24839,3.97922.64038,5.96292.99692,5.93168,1.067,11.85489,2.20166,17.80094,3.18677,7.667,1.27066,15.5325,1.5469,23.28567,2.4078C334.43433,143.17981,333.29971,137.18814,330.56494,132.60065Z"/><path class="cls-22" d="M326.40659,122.00037c-11.82193,1.49282-17.81022-12.62539-18.029-13.15256a13.9456,13.9456,0,0,0,8.43833,6.05331,23.16341,23.16341,0,0,0,9.04663.46213c.02447-.00845.049-.00845.07266-.016A26.518,26.518,0,0,0,326.40659,122.00037Z"/><path class="cls-7" d="M304.62729,126.9993s13.94586,15.42181,18.04761,12.96164,5.13583-11.86673,5.13583-11.86673,14.05994,12.19452,16.02844,16.13235,1.80457,11.64875-3.11749,23.78919-3.07608,28.54736-3.07608,28.54736H292.6499a34.00132,34.00132,0,0,0,2.62494-17.0625c-1.14816-9.18771-11.97653-38.55542-11.97653-38.55542S281.16592,127.491,304.62729,126.9993Z"/><path class="cls-6" d="M304.21671,128.64c1.10675,1.20307,2.216,2.396,3.3811,3.534,1.14477,1.15576,2.314,2.28446,3.53821,3.34729a45.28963,45.28963,0,0,0,3.78912,3.01019,18.53006,18.53006,0,0,0,4.15918,2.29544,5.8901,5.8901,0,0,0,4.41855.1301,6.48225,6.48225,0,0,0,3.17407-3.169,16.17589,16.17589,0,0,0,1.46326-4.55117,29.76636,29.76636,0,0,0,.5238-4.84265,20.04783,20.04783,0,0,1-1.307,9.72586,7.04014,7.04014,0,0,1-3.49261,3.69534,5.85508,5.85508,0,0,1-2.59113.47058,8.51515,8.51515,0,0,1-2.52862-.53647,18.88949,18.88949,0,0,1-4.36109-2.46356,35.34291,35.34291,0,0,1-3.75872-3.21127A54.31465,54.31465,0,0,1,304.21671,128.64Z"/><path class="cls-6" d="M336.67908,146.7966a47.68285,47.68285,0,0,0,2.87585,6.22482,18.46986,18.46986,0,0,1,2.27265,6.61686,18.84754,18.84754,0,0,1-.69617,6.96661,41.231,41.231,0,0,1-2.47876,6.45886c.61081-2.21942,1.25714-4.4219,1.73193-6.63879a21.53723,21.53723,0,0,0,.46466-6.67935,20.92716,20.92716,0,0,0-1.98623-6.39634c-.4596-1.04846-.91751-2.11044-1.30277-3.20367A23.32192,23.32192,0,0,1,336.67908,146.7966Z"/><path class="cls-6" d="M315.61789,172.59567a12.68582,12.68582,0,0,1,9.68277.82794c-1.67194-.076-3.24591-.27456-4.84265-.39791C318.863,172.87445,317.278,172.8035,315.61789,172.59567Z"/><path class="cls-16" d="M278.63562,168.58942c-.91837-.85752-1.84769-1.704-2.7601-2.56919-4.231-4.00964-8.598-7.83255-12.78677-11.8287q-1.75137,1.9009-3.54752,3.926c-2.70181,3.05243-5.46027,6.311-8.21021,9.7605a12.52512,12.52512,0,0,0-.34553,15.15741c2.18391,3.01947,4.48866,6.017,6.91676,8.957A134.56124,134.56124,0,0,0,282.293,215.344l5.74493-5.43658s-8.05728-14.38605-17.72067-32.00107C273.15762,174.70523,275.95239,171.57425,278.63562,168.58942Z"/><path class="cls-16" d="M281.90515,213.71518s3.05072,12.51977,6.16232,16.13065a.335.335,0,0,0,.59732-.15629c.1428-.6311.09464-2.02087-1.051-5.01922,0,0,3.91925,5.57342,5.13159,5.78381,1.21149.21036-2.7652-7.57995-2.7652-7.57995s5.07331,5.7948,6.16736,5.538-3.74438-7.47519-3.74438-7.47519,5.57092,5.66977,5.95953,5.14765c.96735-1.30024-6.64133-9.47327-5.69848-10.18125.83557-.62689,3.34643.51029,4.52584,1.31287a.466.466,0,0,0,.69867-.17911,1.82085,1.82085,0,0,0-.75866-2.385,25.20626,25.20626,0,0,0-11.80335-5.38251Z"/><path class="cls-6" d="M266.5636,174.086a7.48792,7.48792,0,0,1,3.77389,3.77389,6.69781,6.69781,0,0,1-2.23462-1.5393A6.78233,6.78233,0,0,1,266.5636,174.086Z"/><path class="cls-7" d="M259.18048,157.51517l16.40692,15.094L296.26,151.281s1.3399-22.1333-3.09467-22.53544C286.57968,128.14746,265.41544,148.49136,259.18048,157.51517Z"/><polygon class="cls-6" points="289.287 158.417 297.654 150.543 291.584 165.719 289.287 158.417"/><path class="cls-16" d="M337.53156,95.51865c-.24332-6.40985-1.02225-13.00641-3.229-18.67786-2.83951-7.30286-16.22781-10.14238-25.55829-2.02847-4.33658,3.76886-5.24988,10.602-4.99218,16.84031a3.33718,3.33718,0,0,0-.55927-.2281,3.88338,3.88338,0,0,0-4.37631,2.74406,5.14663,5.14663,0,0,0,.66574,4.28254,6.475,6.475,0,0,0,2.9426,2.45849,8.29925,8.29925,0,0,0,2.53115.25008,18.86247,18.86247,0,0,0,6.21552,10.57916,17.04419,17.04419,0,0,0,14.49924,3.66748c4.04089-.83555,10.01226-3.42416,11.49752-7.61883a10.63635,10.63635,0,0,0,.43848-3.43262c.00845-.26782.00845-.53565.00845-.80345C337.63715,100.96284,337.63715,98.25342,337.53156,95.51865Z"/><path class="cls-16" d="M337.61261,103.55145a4.14687,4.14687,0,1,1-1.06281-8.15532,3.92688,3.92688,0,0,1,.98169.12166C337.63715,98.25342,337.63715,100.96284,337.61261,103.55145Z"/><path class="cls-16" d="M311.75528,99.54266a4.1482,4.1482,0,1,0,4.14819-4.14819h0a4.14788,4.14788,0,0,0-4.14819,4.14758Z"/><path class="cls-6" d="M330.21768,91.493c0,1.35429.5365,2.45259,1.198,2.45259s1.198-1.0983,1.198-2.45259-.53647-2.45259-1.198-2.45259C330.75333,89.04037,330.21768,90.13867,330.21768,91.493Z"/><path class="cls-6" d="M333.86069,88.2648a3.51816,3.51816,0,0,1-.811,1.04677,2.85359,2.85359,0,0,1-1.25375.64883l-.02027.00507a.44339.44339,0,1,1-.19985-.864l.00134-.0003a.50449.50449,0,0,1,.11658-.011,2.58762,2.58762,0,0,0,1.922-.97325l.00846-.01014a.14319.14319,0,0,1,.20193-.01522A.14175.14175,0,0,1,333.86069,88.2648Z"/><path class="cls-6" d="M316.71536,91.16177a2.58919,2.58919,0,0,0,1.922.97327.44346.44346,0,1,1,.03464.88625h0a.46989.46989,0,0,1-.11487-.01014l-.02283-.00506a2.85336,2.85336,0,0,1-1.25375-.64885,3.51808,3.51808,0,0,1-.811-1.04675.14354.14354,0,0,1,.23658-.15883Z"/><path class="cls-6" d="M318.31128,92.19672a4.008,4.008,0,0,1,1.372-.96651,3.51657,3.51657,0,0,1,1.62887-.28555,4.02367,4.02367,0,0,1,1.54438.4562c.23825.11574.44525.27544.66745.41144l.59478.48917a.26583.26583,0,0,1-.321.42326l-.02618-.01774-.57871-.40639c-.207-.10391-.403-.23487-.615-.3168a3.34133,3.34133,0,0,0-1.29175-.28133,2.69152,2.69152,0,0,0-1.23346.316,3.1578,3.1578,0,0,0-.97326.79247l-.02448.03041a.49289.49289,0,1,1-.76968-.61591Z"/><path class="cls-6" d="M330.72546,98.91325a5.87191,5.87191,0,0,1-1.80627,2.05382,4.58235,4.58235,0,0,1-2.68155.89047,4.65033,4.65033,0,0,1-2.66971-.92088,8.74542,8.74542,0,0,1-1.03409-.92088c-.28219-.36328-.55758-.72656-.80429-1.10253.37.27036.70716.5593,1.04679.83893.37765.22894.71389.51113,1.09576.70291a4.95056,4.95056,0,0,0,2.36893.67334,4.82912,4.82912,0,0,0,2.37823-.64207A10.325,10.325,0,0,0,330.72546,98.91325Z"/><path class="cls-6" d="M327.48883,103.26251a1.972,1.972,0,0,1-1.26138.42749,2.06349,2.06349,0,0,1-1.26218-.42749,6.58233,6.58233,0,0,0,1.263.14194A5.50419,5.50419,0,0,0,327.48883,103.26251Z"/><path class="cls-6" d="M323.23334,82.98621a2.84263,2.84263,0,0,0-1.85611-.6877,5.73875,5.73875,0,0,0-1.97693.28048,4.8345,4.8345,0,0,0-1.74124.99691,5.06794,5.06794,0,0,0-1.18872,1.52325.57383.57383,0,0,0,.88961.70122l.04816-.04477a7.10449,7.10449,0,0,1,1.18277-.93947,4.16141,4.16141,0,0,1,1.30612-.53647,5.0832,5.0832,0,0,1,1.4151-.13687,5.43416,5.43416,0,0,0,1.51313-.08787l.15121-.03719a.6001.6001,0,0,0,.25687-1.03155Z"/><path class="cls-6" d="M329.22162,82.98621a2.84113,2.84113,0,0,1,1.85611-.6877,5.73879,5.73879,0,0,1,1.97693.28048,4.82383,4.82383,0,0,1,1.74038.99691,5.06794,5.06794,0,0,1,1.18872,1.52325.57383.57383,0,0,1-.88961.70122l-.04816-.04477a7.07278,7.07278,0,0,0-1.18362-.93947,4.16156,4.16156,0,0,0-1.30613-.53647,5.0832,5.0832,0,0,0-1.4151-.13687,5.42682,5.42682,0,0,1-1.51226-.08787l-.15122-.03719a.59932.59932,0,0,1-.256-1.03155Z"/><path class="cls-6" d="M326.50461,87.74606c.21206.92426.36752,1.84177.539,2.75083.1774.90651.34387,1.81134.60153,2.67054.06.21544.12671.42835.20361.63279a2.24892,2.24892,0,0,1,.20786.79162,1.59634,1.59634,0,0,1-.86005,1.45484,1.93334,1.93334,0,0,1-1.56381.08363,3.81351,3.81351,0,0,1-1.23855-.74094c.86.32273,1.86459.57534,2.46948.11829a.94554.94554,0,0,0,.425-.87442,1.74078,1.74078,0,0,0-.18-.54494q-.13938-.34469-.24246-.69278a13.09333,13.09333,0,0,1-.45029-2.82179A15.14021,15.14021,0,0,1,326.50461,87.74606Z"/><path class="cls-6" d="M300.31775,95.49416a2.04044,2.04044,0,0,1,.63873-1.623,1.89839,1.89839,0,0,1,1.85022-.17825,3.48339,3.48339,0,0,1,1.49372,1.08985,5.58269,5.58269,0,0,1,.92846,1.56634.40868.40868,0,0,1-.67.44019l-.027-.02788a3.61949,3.61949,0,0,0-1.37286-.97157.636.636,0,0,0-.577.06335,1.53177,1.53177,0,0,0-.41229.63617c-.20868.53816-.33539,1.16673.1242,1.416a3.07655,3.07655,0,0,0,1.81473.12421,2.85448,2.85448,0,0,1-1.99469.2678,1.12242,1.12242,0,0,1-.70376-.94032,2.92084,2.92084,0,0,1,.11657-1.08563,2.03775,2.03775,0,0,1,.58042-1.002,1.374,1.374,0,0,1,1.25543-.25852,3.94526,3.94526,0,0,1,1.78769,1.20307l-.69785.41229A4.37489,4.37489,0,0,0,302.56927,94.27a1.5366,1.5366,0,0,0-1.394-.08448A2.04245,2.04245,0,0,0,300.31775,95.49416Z"/><path class="cls-6" d="M335.52246,78.96558a13.49724,13.49724,0,0,0-3.11917-6.21976c-3.47485-3.79927-9.02719-4.83336-14.16553-4.95165-3.46472-.0887-7.02829.16729-10.14914,1.68294-4.92206,2.37233-7.885,7.40254-11.49753,11.49751a39.62826,39.62826,0,0,1-20.692,12.32462c-6.507,1.49622-13.27,1.30952-19.93414,1.90935-6.65488.59054-13.53528,2.12648-18.64406,6.43771-3.97669,3.34729-6.70386,8.23981-11.34038,10.59184a25.53186,25.53186,0,0,1-8.37747,2.09691l-4.705.61a9.75358,9.75358,0,0,0-7.19555,14.61837c.01943.0397.049.07858.06842.12841,2.39175,3.839,6.24087,6.82215,7.69824,11.114,1.32893,3.9277.414,8.22964.72825,12.36431.512,6.49686,4.20311,12.52149,9.31191,16.56745a35.08007,35.08007,0,0,0,18.00452,6.93027,44.47419,44.47419,0,0,0,7.1567.21627,12.468,12.468,0,0,1,2.65789-9.00689c2.75589-3.44528,5.51261-6.70386,8.21022-9.7656a2.00022,2.00022,0,0,1,.13769-.14785l-.49255-.45282c6.2316-9.01706,27.39584-29.36432,33.98138-28.76365a9.88192,9.88192,0,0,1,4.42023-.049,11.62606,11.62606,0,0,1,1.43707-.13769,15.96267,15.96267,0,0,0,6.14289-1.35852c2.60888-8.15107.22641-23.28058-.24585-26.04746a8.276,8.276,0,0,1-2.50074-.24585,6.43712,6.43712,0,0,1-2.93329-2.461,5.12539,5.12539,0,0,1-.66909-4.28253,3.97276,3.97276,0,0,1,3.94711-2.8015,18.70055,18.70055,0,0,0,2.968,3.839,1.84362,1.84362,0,0,0,1.291.6877c.65308-.03464,1.07211-.6877,1.37879-1.26558.3937-.74262,1.07717-1.50637,1.47085-2.249a15.198,15.198,0,0,0,12.39053-5.42053,29.88822,29.88822,0,0,0,2.40021-3.56187l2.98316-4.91954c2.20843,2.461,5.69174,6.90831,8.974,7.30285A21.68291,21.68291,0,0,0,335.52246,78.96558Z"/></g><path class="cls-17" d="M178.425,301.60117c-1.70236.6159-3.09805,1.11859-4.07638,1.47174l-.00339.00085a12.8332,12.8332,0,0,0-5.41547-1.42694c-.74261-.04224-.97833.35568-1.05183.64209a.23511.23511,0,0,0,.20529.29568c.70206.087,2.01244.48411,2.12479.99186.12756.57281-5.36139,1.13293-5.41463,1.93469-.0211.3219,3.89642.02957,3.89642.02957s-4.13974,1.11011-3.81025,1.56381,4.1-.04815,4.1-.04815-3.99865,1.60519-3.47485,1.9237,3.78912-.479,3.78912-.479a4.79915,4.79915,0,0,0-2.00735,1.52917.16791.16791,0,0,0,.17489.25345c1.44976-.20529,3.997-1.70318,5.71538-2.80658l.00086.00592.01014.05915a59.02749,59.02749,0,0,0,6.90746.21374C179.46248,305.73331,178.91756,303.67862,178.425,301.60117Z"/><path class="cls-7" d="M203.52116,275.10593l-10.09,20.79507L174.728,302.17654l.73838,6.27552s22.14934-1.35343,25.71712-4.92206c3.56864-3.56864,10.33586-20.79508,10.58255-22.51767C212.01187,279.28961,203.52116,275.10593,203.52116,275.10593Z"/><path class="cls-7" d="M209.73586,272.11179s-4.67623,4.77847-4.49122,8.53125c.18418,3.7528.49256,24.36367.49256,24.36367l-1.90682.92258-3.93783-1.4151s1.9068-21.77927,1.96847-24.11783c.06168-2.33767.73839-5.90631,2.95359-6.89056A22.36941,22.36941,0,0,1,209.73586,272.11179Z"/><path class="cls-23" d="M149.1291,313.8092c-8.30737,1.05353-13.98727,1.82486-13.98727,1.82486l-1.84093,7.92044,16.64432.1901C149.51859,320.44968,149.2626,317.13705,149.1291,313.8092Z"/><path class="cls-7" d="M136.2959,315.27078a15.64392,15.64392,0,0,1-2.49736-3.46472c-.72489-1.612-.32274-8.86328-3.948-8.38v16.75921l1.49031,1.4903h-1.65167v3.3439s3.70633,1.28925,5.96208.08026c0,0-2.17548-2.41711-1.20811-5.07583C135.40965,317.366,136.2959,315.27078,136.2959,315.27078Z"/><path class="cls-5" d="M144.82716,313.25159v11.23816H224.5629s-2.78884-16.07828-9.26964-18.12958C208.81245,304.30972,144.82716,313.25159,144.82716,313.25159Z"/><path class="cls-24" d="M151.15253,311.36844l-11.62171,6.46982-.93861,5.54388,2.66633,3.11749,2.55483-.84484a1.18576,1.18576,0,0,1,.12756-.049c.83219-.34469,5.64357-2.32754,12.4108-5.14511C154.526,317.48257,152.77209,314.46225,151.15253,311.36844Z"/><path class="cls-7" d="M139.8755,316.778a15.62794,15.62794,0,0,1-3.80856-1.933c-1.38387-1.09915-4.35265-7.72781-7.35271-5.63428l7.68894,14.89127,2.00819.64038-1.4675.75784,1.53424,2.97132s3.88462-.55509,5.33521-2.66382c0,0-3.0423-1.14984-3.40305-3.95557S139.8755,316.778,139.8755,316.778Z"/><path class="cls-5" d="M144.70383,313.99l4.67622,9.5983,29.4091-11.69016s33.83863,18.82654,42.9444,15.25794,9.5983-21.04175,5.90633-23.13358c-3.69113-2.09186-23.83058.697-23.83058.697l-1.02564.90229s-20.05749-8.4907-24.85622-8.244S144.70383,313.99,144.70383,313.99Z"/><path class="cls-6" d="M149.74924,323.21826c2.363-1.12533,4.75648-2.17212,7.16008-3.19266,2.39514-1.04336,4.819-2.01327,7.24371-2.98062q3.63959-1.44594,7.31131-2.80743c2.45766-.88287,4.906-1.79193,7.39072-2.60468l-.06252.23825c-.501-.68264-.99861-1.36779-1.481-2.06482.58378.615,1.15237,1.24277,1.71757,1.8722l.13265.14782-.196.0904c-2.37486,1.09408-4.78775,2.09268-7.19049,3.11749q-3.618,1.49922-7.2699,2.91388c-2.43568.94031-4.87222,1.87723-7.33749,2.74152C154.71355,321.57587,152.2466,322.43674,149.74924,323.21826Z"/><path class="cls-6" d="M205.98221,324.44919c-1.17519-.42749-2.32334-.91242-3.48586-1.367l-3.44189-1.4599c-2.29376-.97494-4.55541-2.01919-6.81622-3.06427-2.25152-1.06619-4.50135-2.13409-6.7199-3.27127l-3.32532-1.70828c-1.09324-.60239-2.20082-1.17349-3.28138-1.80289,1.17518.42664,2.32333.91159,3.48585,1.36612l3.4419,1.4599c2.29376.975,4.5554,2.02,6.81622,3.06595,2.25067,1.067,4.50134,2.13492,6.71905,3.27292L202.7,322.6488C203.79407,323.24866,204.90166,323.82062,205.98221,324.44919Z"/><path class="cls-6" d="M202.90613,305.74512a18.92217,18.92217,0,0,1,4.23269,1.72012,18.71188,18.71188,0,0,1,3.76633,2.58609,21.22258,21.22258,0,0,1-7.999-4.30621Z"/><path class="cls-6" d="M212.99612,308.45285a12.57424,12.57424,0,0,1-3.71226-.1301,12.43188,12.43188,0,0,1-3.54752-1.1A14.02373,14.02373,0,0,1,212.99612,308.45285Z"/><path class="cls-24" d="M227.43539,273.94766a5.49359,5.49359,0,0,0-3.58131-1.42358,7.7987,7.7987,0,0,1-3.01018-.67081c-1.33146-4.13132-.04561-11.93515.12419-12.93036.00762-.03631.01184-.06756.02027-.10391l-10.70081,6.01782a2.83125,2.83125,0,0,1,.32356,1.17774v.00424a13.05563,13.05563,0,0,1-.23147,3.27463c-.218,1.24194-.50691,2.33853-.63025,2.78378a11.14485,11.14485,0,0,1-3.56947,2.43655,5.468,5.468,0,0,1-.08535,1.2453c-.45961,2.49146.3523,5.98151.2374,8.56928-.13347,3.0195-.234,6.00854-.20868,9.03055.03125,3.76126.1901,7.3468.4596,10.9779h20.28558c-.58209-5.40362.7933-13.44909,2.31149-22.31662C229.93866,277.58643,228.78207,275.21323,227.43539,273.94766Z"/><path class="cls-25" d="M210.37878,269.2934c5.8176.735,8.76444-6.213,8.87259-6.47239A6.8634,6.8634,0,0,1,215.099,265.8a11.386,11.386,0,0,1-4.45233.22726c-.01183-.00424-.02367-.00424-.03632-.00845A13.01515,13.01515,0,0,1,210.37878,269.2934Z"/><path class="cls-4" d="M209.68768,272.2926s-2.27011,4.70072-.62941,5.76691,11.89461-6.23413,11.89461-6.23413,5.57852.65646,7.13641,4.59427c1.55875,3.93783-.65644,28.30151-.65644,28.30151s-18.86712,1.14816-23.62528,0c0,0,.08193-12.0585-.49255-15.8324s-.22557-10.15167.94369-12.73523C204.86954,274.80432,209.68768,272.2926,209.68768,272.2926Z"/><path class="cls-7" d="M221.11763,271.53732s-8.73656,4.06034-7.87482,8.4907c.86173,4.42953,4.67623,48.35815,4.67623,48.35815s11.44345.3692,15.75047-1.846-5.41463-32.23846-4.92206-35.06872,3.07607-15.50461-.615-17.84229A12.59457,12.59457,0,0,0,221.11763,271.53732Z"/><path class="cls-6" d="M218.49268,324.16193A24.111,24.111,0,0,0,226.316,325.637a16.58814,16.58814,0,0,0,3.91925-.376,24.11433,24.11433,0,0,0,3.844-1.18109,11.51569,11.51569,0,0,1-3.648,1.9237,13.54209,13.54209,0,0,1-2.03437.49085,16.98638,16.98638,0,0,1-2.09185.12674,14.54112,14.54112,0,0,1-4.11273-.64548A12.43657,12.43657,0,0,1,218.49268,324.16193Z"/><rect class="cls-6" x="186.08265" y="274.4679" width="1.74135" height="10.11349" transform="translate(-142.66765 212.92442) rotate(-44.80149)"/><path class="cls-24" d="M185.98721,284.35532s.39371.73922.69193.877a15.25517,15.25517,0,0,0,1.88316.49762l.0017-.00086c.06927.05658,1.47,1.2453,3.56187,2.96711.65054-.87189,1.3205-1.73871,2.00227-2.61057.46213-.59054.90821-1.1929,1.35007-1.79782-.92342-.41989-1.69646-.77219-2.28954-1.04254l-1.33232-1.04c-.59814-.74515-2.33177-3.54919-3.14114-3.48923-.97833.07181-.91919.452-.91919.452s1.51566,1.93722,1.17435,2.70352c-.32357.72574-3.63877-2.88684-3.63877-2.88684l-.88285-.69955s-.15207,2.02426.57449,2.7069a1.9627,1.9627,0,0,0,.36919,1.94822S185.42879,284.02582,185.98721,284.35532Z"/><path class="cls-7" d="M220.25587,274.73672l-6.64469,16.61136-21.2876-9.10574s-3.69115,4.67624-3.32195,4.79871c.36919.12335,19.19574,18.45733,27.07057,17.10391,7.87566-1.35343,13.16608-24.487,13.16608-24.487Z"/><path class="cls-6" d="M215.785,304.22781a6.08633,6.08633,0,0,0,3.93784-2.37909c1.55875-2.13324,7.13725-13.45333,7.13725-13.45333S223.82449,308.00171,215.785,304.22781Z"/><path class="cls-6" d="M216.93393,292.90683a7.66227,7.66227,0,0,1-1.86629-.441,12.43373,12.43373,0,0,1-1.70489-.77219l-1.15238-.62689,1.23856-.25937a8.36644,8.36644,0,0,1,2.58356-.19769,8.36,8.36,0,0,1-2.33855,1.1152l.08617-.8854a12.43241,12.43241,0,0,1,1.65844.86764A7.73,7.73,0,0,1,216.93393,292.90683Z"/><path class="cls-6" d="M194.94936,292.33319a30.98564,30.98564,0,0,1,8.69516,6.72672,27.19641,27.19641,0,0,1-4.6492-2.9747A27.49211,27.49211,0,0,1,194.94936,292.33319Z"/><path class="cls-6" d="M198.72244,284.86813a5.351,5.351,0,0,1,2.33939.53733,5.289,5.289,0,0,1,1.92709,1.43118,5.86174,5.86174,0,0,1-4.26648-1.96848Z"/><path class="cls-6" d="M217.17979,278.79791a6.10322,6.10322,0,0,1,.56266-2.13156,6.92106,6.92106,0,0,1,1.22249-1.87555,5.32826,5.32826,0,0,1,1.87808-1.31036,3.58949,3.58949,0,0,1,2.24307-.09714,7.45464,7.45464,0,0,0-1.90514.78742A8.44009,8.44009,0,0,0,219.6864,275.46a15.37118,15.37118,0,0,0-1.27995,1.58661Z"/><path class="cls-24" d="M223.95715,255.59674a1.91129,1.91129,0,0,0-2.15353-1.35,1.64245,1.64245,0,0,0-.27626.11237c.12756-3.07019-.3219-6.4335-2.456-8.28879-4.59174-3.99277-11.1807-2.59537-12.57807.99777-1.59759,4.10849-1.67956,9.19446-1.62549,13.54288a5.2205,5.2205,0,0,0,.21459,1.68717c.73,2.064,3.67256,3.338,5.66047,3.75027a8.39089,8.39089,0,0,0,7.133-1.80542,9.27219,9.27219,0,0,0,3.05919-5.20679,4.08794,4.08794,0,0,0,1.24615-.12249,3.18234,3.18234,0,0,0,1.44806-1.20981A2.53042,2.53042,0,0,0,223.95715,255.59674Z"/><path class="cls-6" d="M208.20921,254.28046c0,.66659-.26359,1.20727-.5897,1.20727-.32529,0-.58971-.54071-.58971-1.20727s.2636-1.20728.58971-1.20728C207.94478,253.07318,208.20921,253.61389,208.20921,254.28046Z"/><ellipse class="cls-6" cx="212.72575" cy="254.28046" rx="0.58971" ry="1.20728"/><path class="cls-6" d="M207.95914,257.93192a2.88388,2.88388,0,0,0,.88878,1.01043,2.25332,2.25332,0,0,0,1.31965.43765,2.28719,2.28719,0,0,0,1.31374-.45285,4.26411,4.26411,0,0,0,.50859-.45285c.13856-.17828.2746-.35739.39622-.54238-.18249.13348-.34806.27542-.51535.41314-.18586.11237-.35144.25177-.539.34555a2.43756,2.43756,0,0,1-1.16589.33118,2.37272,2.37272,0,0,1-1.17012-.316A5.07508,5.07508,0,0,1,207.95914,257.93192Z"/><path class="cls-6" d="M209.5517,260.0719a.96751.96751,0,0,0,.62095.21036,1.01647,1.01647,0,0,0,.621-.21036,3.22513,3.22513,0,0,1-.62181.07013A2.69124,2.69124,0,0,1,209.5517,260.0719Z"/><path class="cls-6" d="M211.64606,250.09427a1.40286,1.40286,0,0,1,.91328-.33878,2.80427,2.80427,0,0,1,.97327.13855,2.373,2.373,0,0,1,.85667.49085,2.49308,2.49308,0,0,1,.58463.74936.2822.2822,0,0,1-.43764.34472l-.02367-.022a3.46522,3.46522,0,0,0-.5821-.46213,2.058,2.058,0,0,0-.64292-.26443,2.51263,2.51263,0,0,0-.69615-.06757,2.67733,2.67733,0,0,1-.74432-.04309l-.07436-.01858a.2954.2954,0,0,1-.21725-.35682l.00013-.00058A.28966.28966,0,0,1,211.64606,250.09427Z"/><path class="cls-6" d="M208.69923,250.09427a1.40285,1.40285,0,0,0-.91327-.33878,2.80422,2.80422,0,0,0-.97326.13855,2.3731,2.3731,0,0,0-.85668.49085,2.49289,2.49289,0,0,0-.58462.74936.28219.28219,0,0,0,.43764.34472l.02366-.022a3.46449,3.46449,0,0,1,.58211-.46213,2.058,2.058,0,0,1,.64291-.26443,2.50936,2.50936,0,0,1,.69617-.06757,2.6773,2.6773,0,0,0,.74432-.04309l.07436-.01858a.2954.2954,0,0,0,.21726-.35682l-.00014-.00058A.28984.28984,0,0,0,208.69923,250.09427Z"/><path class="cls-6" d="M208.98225,252.32382c-.10389.45453-.18078.90653-.26527,1.35428-.087.44608-.1698.8913-.29655,1.31458-.02958.10644-.06252.21035-.09971.31173a1.11476,1.11476,0,0,0-.10223.38947.78468.78468,0,0,0,.42326.71557.95112.95112,0,0,0,.76967.04142,1.873,1.873,0,0,0,.60915-.36414c-.42326.15881-.9175.283-1.21573.05829a.464.464,0,0,1-.20869-.43.86813.86813,0,0,1,.08871-.26783c.04561-.11322.08534-.22641.11913-.3413a6.3939,6.3939,0,0,0,.22134-1.38892A7.3786,7.3786,0,0,0,208.98225,252.32382Z"/><path class="cls-6" d="M223.26691,256.1366a1.00733,1.00733,0,0,0-.31429-.79923.93437.93437,0,0,0-.91075-.08786,1.71448,1.71448,0,0,0-.735.5365,2.75044,2.75044,0,0,0-.45705.77048.20086.20086,0,0,0,.32952.21628l.0135-.01352a1.77316,1.77316,0,0,1,.67586-.47818.31345.31345,0,0,1,.28387.03125.753.753,0,0,1,.20275.31344c.10307.26444.16476.5745-.06083.697a1.5116,1.5116,0,0,1-.893.06083,1.401,1.401,0,0,0,.9817.1318.55256.55256,0,0,0,.34639-.463,1.43674,1.43674,0,0,0-.05745-.53479,1.00921,1.00921,0,0,0-.28556-.49341.67691.67691,0,0,0-.61757-.12756,1.93749,1.93749,0,0,0-.87947.59222l.343.20276a2.159,2.159,0,0,1,.92677-1.16.75576.75576,0,0,1,.686-.04142A1.01659,1.01659,0,0,1,223.26691,256.1366Z"/><path class="cls-6" d="M224.42519,251.1951c-.354-1.122-.89554-2.412-2.05721-2.60889a3.755,3.755,0,0,0-.02957-3.12088,5.26845,5.26845,0,0,0-1.90006-2.01834,8.86566,8.86566,0,0,0-3.61256-1.38809,17.72771,17.72771,0,0,0-5.92577.48242c-1.01382.19684-2.28361.36414-3.29745.561a2.59447,2.59447,0,0,0-3.43515.62011,5.477,5.477,0,0,0-.99439,3.66156,22.279,22.279,0,0,0,1.81136,7.38312c.0659-.98679.17911-1.96933.32272-2.9426a7.58664,7.58664,0,0,1,1.75475-2.8395,9.45743,9.45743,0,0,0,9.69377,2.20083,8.20171,8.20171,0,0,0,.637,2.32,3.07218,3.07218,0,0,0,2.00566,1.98624.9396.9396,0,0,0,1.08393-.45789c.13009-.36584,1.051-.71811,1.0493-.68094a2.21009,2.21009,0,0,1,.27541-.10812,1.898,1.898,0,0,1,2.14592,1.34839,2.49822,2.49822,0,0,1-.32529,2.10623,3.154,3.154,0,0,1-1.44724,1.21066,3.9535,3.9535,0,0,1-1.25038.12842,9.57194,9.57194,0,0,1-1.1811,3.00256,3.98844,3.98844,0,0,0,2.32333-.33456,5.421,5.421,0,0,0,2.07664-2.6283,10.28854,10.28854,0,0,0,1.01383-2.83529A11.312,11.312,0,0,0,224.42519,251.1951Z"/><path class="cls-26" d="M164.28143,126.33527a10.32233,10.32233,0,0,0-7.68472-3.78913c-3.50694-.01858-7.21584,1.73194-10.36626.19263-4.22085-2.06311-4.56385-8.70276-8.85315-10.618-2.99075-1.33569-6.37436.28472-9.59239.89638a15.69864,15.69864,0,0,1-14.88619-5.52107c-1.33992-1.68125-2.32755-3.64465-3.84826-5.16455A11.53068,11.53068,0,0,0,97.86723,99.737a15.48488,15.48488,0,0,0-8.9841,7.54871c-1.49369,2.72123-2.5903,6.10484-5.46785,7.27157-3.294,1.33487-7.22175-1.04083-10.52594.27036-2.37486.942-3.70041,3.60833-3.82208,6.16061a15.59177,15.59177,0,0,0,.86428,5.34873h94.34989Z"/><path class="cls-26" d="M564.56622,168.57758a6.18226,6.18226,0,0,0-3.74438-3.36756c-2.27515-.72827-4.775-.55762-6.89478-1.75223-2.37481-1.33822-4.28589-4.34841-6.9201-4.05609-2.11463.234-3.63959,2.592-5.72467,3.06424-4.31128.97666-7.17865-6.23749-11.57355-6.24-2.62158-.00168-4.80377,2.63172-7.42364,2.72547-3.3946.12249-5.63349-3.7959-7.70667-6.87876-3.071-4.56637-8.39859-8.37158-12.9498-5.91391-3.02621,1.63394-4.57229,5.42984-6.22058,8.76615s-4.14566,6.801-7.49042,6.80609c-3.51541.00506-7.05786-3.86853-10.1196-1.88993-1.44131.93186-2.13491,2.94938-2.12564,4.846a13.971,13.971,0,0,0,.675,3.89051Z"/></g></svg>