<svg id="Layer_1" data-name="Layer 1" xmlns="http://www.w3.org/2000/svg" viewBox="0 0 136.07422 51.83801"><defs><style>.cls-1{fill:#fff;fill-rule:evenodd;}</style></defs><title>Apple</title><path d="M0,25.919A25.919,25.919,0,0,1,25.919,0h84.23671a25.919,25.919,0,0,1,0,51.838H25.919A25.919,25.919,0,0,1,0,25.919Z"/><path class="cls-1" d="M79.55785,32.30811a13.07312,13.07312,0,0,1-1.83593,3.5077c-1.10587,1.5033-2.25351,2.99941-4.06063,3.03109-1.77546.02879-2.34711-.97917-4.37744-.97917s-2.66389.94748-4.34718,1.008c-1.74233.06192-3.07284-1.62281-4.18736-3.12035-2.278-3.06276-4.01888-8.65262-1.68041-12.42672a6.57769,6.57769,0,0,1,5.48762-3.09155c1.71354-.0288,3.33059,1.07275,4.37743,1.07275,1.04828,0,3.01236-1.32474,5.07868-1.13035a6.36426,6.36426,0,0,1,4.8526,2.44646,5.56307,5.56307,0,0,0-2.86836,4.69134A5.52751,5.52751,0,0,0,79.55785,32.30811ZM72.53957,18.38242a5.39065,5.39065,0,0,0,1.33915-3.98288,5.83369,5.83369,0,0,0-3.79138,1.89064,5.12858,5.12858,0,0,0-1.36362,3.85905A4.8251,4.8251,0,0,0,72.53957,18.38242Z"/></svg>