<svg width="228" height="248" viewBox="0 0 228 248" fill="none" xmlns="http://www.w3.org/2000/svg">
<path d="M171.233 106.254H57.6636C55.5297 106.254 54.0286 107.984 54.3116 110.118L57.9455 137.558C58.2285 139.692 60.187 141.422 62.3209 141.422H175.891C178.025 141.422 179.526 139.692 179.243 137.558L175.609 110.118C175.326 107.983 173.367 106.254 171.233 106.254Z" fill="#A7A7C6"/>
<path d="M172.226 104.082H58.6558C56.5219 104.082 55.0208 105.812 55.3038 107.946L58.9377 135.386C59.2207 137.52 61.1792 139.25 63.3131 139.25H176.883C179.017 139.25 180.518 137.52 180.235 135.386L176.601 107.946C176.318 105.812 174.36 104.082 172.226 104.082Z" fill="#B8B8D1"/>
<path d="M68.1318 117.244H62.0485L61.2422 111.16H67.3265L68.1318 117.244ZM76.6492 117.244H70.5649L69.7596 111.16H75.8439L76.6492 117.244ZM85.1666 117.244H79.0823L78.277 111.16H84.3603L85.1666 117.244ZM93.684 117.244H87.5997L86.7944 111.16H92.8777L93.684 117.244ZM102.2 117.244H96.1171L95.3118 111.16H101.395L102.2 117.244ZM111.14 117.244H105.056L104.25 111.16H110.334L111.14 117.244ZM119.657 117.244H113.573L112.768 111.16H118.851L119.657 117.244ZM128.175 117.244H122.09L121.285 111.16H127.368L128.175 117.244ZM136.692 117.244H130.608L129.802 111.16H135.886L136.692 117.244ZM145.208 117.244H139.125L138.32 111.16H144.403L145.208 117.244ZM77.6847 125.066H63.084L62.2787 118.983H76.8794L77.6847 125.066ZM86.2021 125.066H80.1188L79.3125 118.983H85.3968L86.2021 125.066ZM94.7195 125.066H88.6352L87.8299 118.983H93.9142L94.7195 125.066ZM103.237 125.066H97.1526L96.3473 118.983H102.431L103.237 125.066ZM112.175 125.066H106.092L105.286 118.983H111.37L112.175 125.066ZM120.693 125.066H114.609L113.803 118.983H119.887L120.693 125.066ZM129.21 125.066H123.127L122.32 118.983H128.405L129.21 125.066ZM146.245 125.066H131.643L130.838 118.983H145.439L146.245 125.066ZM70.2038 132.889H64.1195L63.3142 126.804H69.3975L70.2038 132.889ZM78.7212 132.889H72.6369L71.8316 126.804H77.9149L78.7212 132.889ZM87.2376 132.889H81.1543L80.3491 126.804H86.4323L87.2376 132.889ZM138.645 132.889H89.6717L88.8654 126.804H137.84L138.645 132.889ZM147.28 132.889H141.197L140.391 126.804H146.475L147.28 132.889ZM157.335 117.349H151.252L150.446 111.265H156.53L157.335 117.349ZM164.649 117.349H158.566L157.759 111.265H163.844L164.649 117.349ZM171.962 117.349H165.879L165.073 111.265H171.157L171.962 117.349ZM158.358 125.066H152.274L151.468 118.983H157.552L158.358 125.066ZM165.671 125.066H159.588L158.782 118.983H164.866L165.671 125.066ZM172.985 125.066H166.901L166.095 118.983H172.179L172.985 125.066ZM159.38 132.784H153.296L152.49 126.7H158.574L159.38 132.784ZM166.694 132.784H160.609L159.804 126.7H165.887L166.694 132.784ZM174.007 132.784H167.923L167.118 126.7H173.201L174.007 132.784Z" fill="#C8C8DC"/>
<path d="M57.0102 97.237C53.6298 97.237 50.5212 94.4865 50.0821 91.1061L41.1965 22.7325C40.7573 19.3521 43.1499 16.6016 46.5313 16.6016H153.079C156.459 16.6016 159.568 19.3521 160.007 22.7325L168.893 91.1061C169.332 94.4865 166.939 97.237 163.558 97.237H57.0102Z" fill="#B8B8D1"/>
<path d="M59.186 97.2351C55.8056 97.2351 52.697 94.4845 52.2579 91.1041L43.3723 22.7306C42.9331 19.3502 45.3257 16.5996 48.7071 16.5996H155.255C158.635 16.5996 161.744 19.3502 162.183 22.7306L171.068 91.1041C171.508 94.4845 169.115 97.2351 165.734 97.2351H59.186Z" fill="#C8C8DC"/>
<path d="M155.565 18.9844H49.0172C46.9482 18.9844 45.4897 20.6609 45.7585 22.7299L50.2008 56.9172L54.643 91.1045C54.9118 93.1724 56.8064 94.85 58.8754 94.85H165.424C167.493 94.85 168.952 93.1735 168.683 91.1045L164.241 56.9172L159.798 22.7299C159.528 20.6619 157.634 18.9844 155.565 18.9844Z" fill="#E9E9F2"/>
<path d="M160.795 30.4065L159.797 22.7299C159.528 20.6619 157.634 18.9844 155.565 18.9844H49.0172C46.9482 18.9844 45.4897 20.6609 45.7585 22.7299L46.7565 30.4065H160.795ZM159.155 84.8204H150.348L150.723 87.7028H159.529L159.155 84.8204ZM158.262 78.5981H149.454L149.828 81.4805H158.636L158.262 78.5981ZM131.625 84.8204H114.843L115.217 87.7028H132.001L131.625 84.8204ZM146.712 84.8204H133.755L134.129 87.7028H147.086L146.712 84.8204ZM145.903 78.6062H114.035L114.41 81.4886H146.279L145.903 78.6062ZM157.457 71.9662H148.65L149.025 74.8475H157.832L157.457 71.9662ZM156.65 65.752H147.843L148.217 68.6334H157.024L156.65 65.752ZM145.013 71.9662H113.144L113.519 74.8475H145.388L145.013 71.9662ZM129.12 65.752H112.337L112.711 68.6334H129.494L129.12 65.752ZM144.206 65.752H131.249L131.624 68.6334H144.58L144.206 65.752Z" fill="#D9D9E7"/>
<path opacity="0.5" d="M163.421 34.7812H121.652L125.394 60.5962H167.162L163.421 34.7812Z" fill="#A7A7C6"/>
<path d="M166.978 33.0156H127.128C125.994 33.0156 125.124 34.0248 125.295 35.1465L128.64 57.2544C128.777 58.1611 129.556 58.8305 130.472 58.8305H170.323C171.457 58.8305 172.326 57.8214 172.156 56.6997L168.811 34.5917C168.674 33.686 167.894 33.0156 166.978 33.0156Z" fill="#FFCD5C"/>
<path opacity="0.5" d="M170.327 58.8285H130.475C129.556 58.8285 128.774 58.1602 128.637 57.2565L125.547 36.8027C135.409 55.4035 163.251 56.9167 170.553 46.0879L172.154 56.7017C172.324 57.8194 171.458 58.8285 170.327 58.8285Z" fill="#F4B442"/>
<path d="M140.926 46.0163C141.101 46.2009 141.27 46.3834 141.431 46.564C141.592 46.7435 141.736 46.9331 141.863 47.1319C141.99 47.3307 142.09 47.5498 142.163 47.7901C142.236 48.0305 142.268 48.2983 142.258 48.5934C142.25 49.0275 142.162 49.3804 141.996 49.6533C141.83 49.9261 141.61 50.136 141.337 50.2841C141.063 50.4322 140.751 50.5316 140.399 50.5823C140.046 50.633 139.678 50.6604 139.296 50.6655C138.914 50.6695 138.528 50.6584 138.141 50.631C137.754 50.6036 137.392 50.5853 137.059 50.5762H136.9C136.849 50.5762 136.799 50.5671 136.749 50.5488C136.455 48.9694 136.201 47.3826 135.988 45.7901C135.777 44.215 135.536 42.6247 135.266 41.0172L135.278 41.003C135.632 40.9016 136.012 40.8225 136.42 40.7677C136.827 40.7119 137.235 40.6937 137.645 40.7119C138.054 40.7302 138.453 40.791 138.843 40.8914C139.232 40.9928 139.587 41.1572 139.908 41.3833C140.228 41.6095 140.499 41.9006 140.719 42.2566C140.939 42.6126 141.088 43.0487 141.166 43.5659C141.225 43.9534 141.215 44.3327 141.137 44.7018C141.059 45.072 140.951 45.4138 140.814 45.7272C140.787 45.7921 140.786 45.8428 140.81 45.8794C140.833 45.9149 140.871 45.9615 140.926 46.0163ZM139.972 48.3165C140.052 48.1776 140.075 48.0112 140.042 47.8175C140.007 47.6238 139.946 47.4484 139.858 47.2912C139.786 47.1806 139.688 47.0812 139.564 46.993C139.44 46.9057 139.315 46.8479 139.192 46.8195C139.009 46.7739 138.826 46.7485 138.64 46.7435C138.454 46.7394 138.273 46.7272 138.094 46.709C138.078 46.8479 138.07 47.0051 138.069 47.1796C138.068 47.355 138.078 47.5325 138.101 47.7131C138.124 47.8926 138.162 48.066 138.215 48.2323C138.268 48.3987 138.34 48.5376 138.43 48.6482L138.459 48.6624C138.588 48.6624 138.725 48.6644 138.869 48.6695C139.013 48.6745 139.155 48.6695 139.296 48.6553C139.437 48.6411 139.566 48.6096 139.684 48.5579C139.8 48.5082 139.897 48.4271 139.972 48.3165ZM139.36 44.3682C139.408 44.2576 139.443 44.1278 139.468 43.9807C139.491 43.8337 139.454 43.6856 139.359 43.5375C139.263 43.3894 139.151 43.2769 139.023 43.1978C138.897 43.1197 138.756 43.0619 138.602 43.0243C138.412 42.9878 138.213 42.9665 138.004 42.9615C137.795 42.9574 137.628 42.9919 137.5 43.0659C137.551 43.2789 137.582 43.5365 137.596 43.8418C137.61 44.1461 137.684 44.4605 137.815 44.784C137.956 44.8033 138.106 44.8165 138.265 44.8256C138.423 44.8347 138.575 44.8307 138.72 44.8114C138.865 44.7931 138.995 44.7485 139.109 44.6795C139.224 44.6106 139.307 44.5061 139.36 44.3682ZM149.243 49.3419C149.312 49.6746 149.358 49.9261 149.385 50.0975C149.411 50.2689 149.418 50.3936 149.407 50.4717C149.396 50.5508 149.362 50.5914 149.307 50.5965C149.253 50.6016 149.175 50.6036 149.073 50.6036C148.97 50.5945 148.839 50.5945 148.679 50.6036C148.518 50.6127 148.248 50.6218 147.865 50.631C147.483 50.6401 146.958 50.6452 146.288 50.6452C145.619 50.6452 144.723 50.636 143.604 50.6178L143.566 50.3683C143.489 49.6756 143.417 49.0498 143.351 48.491C143.285 47.9321 143.217 47.4108 143.149 46.926C143.08 46.4412 143.011 45.9727 142.943 45.5203C142.875 45.068 142.8 44.6055 142.72 44.1349C142.639 43.6643 142.554 43.1633 142.465 42.6318C142.374 42.1004 142.277 41.5121 142.169 40.8661C142.256 40.8296 142.395 40.7991 142.585 40.7758C142.776 40.7525 142.982 40.7413 143.204 40.7413C143.426 40.7413 143.644 40.7555 143.861 40.7829C144.077 40.8103 144.255 40.8519 144.393 40.9077C144.465 41.5081 144.551 42.1247 144.652 42.7576C144.753 43.3905 144.855 44.0254 144.962 44.6623C145.067 45.2992 145.17 45.9341 145.271 46.567C145.371 47.1999 145.462 47.8114 145.542 48.4027L145.544 48.4169C145.606 48.3987 145.727 48.3916 145.908 48.3966C146.088 48.4017 146.299 48.4078 146.542 48.4169C146.783 48.4261 147.041 48.4382 147.316 48.4514C147.59 48.4656 147.85 48.4768 148.097 48.4859C148.343 48.495 148.561 48.5021 148.751 48.5062C148.94 48.5113 149.072 48.5082 149.144 48.4991C149.159 48.6005 149.171 48.7029 149.177 48.8044C149.182 48.8967 149.189 48.992 149.199 49.0883C149.207 49.1827 149.222 49.2679 149.243 49.3419ZM154.647 42.4006C154.733 42.5395 154.803 42.6805 154.857 42.8235C154.911 42.9665 154.959 43.1126 154.999 43.2596C155.053 43.4909 155.099 43.7191 155.138 43.9452C155.177 44.1714 155.209 44.4006 155.236 44.6309C155.282 45.1207 155.345 45.5954 155.424 46.0579C155.503 46.5203 155.561 46.9909 155.597 47.4707L155.624 47.9281C155.654 48.2516 155.653 48.5772 155.62 48.9048C155.587 49.2324 155.507 49.5305 155.382 49.7983C155.258 50.0204 155.079 50.1979 154.846 50.3318C154.612 50.4657 154.358 50.5691 154.083 50.6431C153.835 50.7171 153.58 50.7634 153.322 50.7811C153.061 50.7993 152.795 50.7993 152.526 50.7811C152.329 50.7628 152.138 50.7375 151.953 50.705C151.767 50.6726 151.588 50.6198 151.416 50.5458C151.243 50.4717 151.083 50.3774 150.937 50.2618C150.79 50.1462 150.661 49.9961 150.551 49.8115C150.389 49.5855 150.265 49.3353 150.182 49.0701C150.101 48.8064 150.035 48.5417 149.985 48.2739C149.848 47.5528 149.709 46.8307 149.567 46.1055C149.426 45.3843 149.322 44.6561 149.258 43.9239C149.204 43.5081 149.194 43.0903 149.227 42.6704C149.261 42.2505 149.396 41.8783 149.634 41.5547C149.712 41.4624 149.806 41.3793 149.915 41.3052C150.198 41.1572 150.511 41.0486 150.856 40.9797C151.201 40.9107 151.553 40.8853 151.912 40.9036C152.27 40.9229 152.626 40.9847 152.979 41.0912C153.332 41.1977 153.657 41.3519 153.957 41.5557C154.256 41.7961 154.488 42.0781 154.647 42.4006ZM153.677 45.781L153.506 44.8388C153.505 44.8296 153.484 44.7353 153.442 44.5548C153.401 44.3743 153.364 44.2059 153.331 44.0487C153.273 43.7901 153.167 43.5548 153.009 43.3418C152.852 43.1298 152.66 42.9726 152.432 42.8712C152.237 42.7971 152.045 42.784 151.858 42.8296C151.672 42.8763 151.512 42.9543 151.382 43.0649C151.096 43.3144 150.927 43.6329 150.875 44.0203C150.854 44.3712 150.866 44.7404 150.912 45.1288C150.957 45.5163 151.017 45.9047 151.096 46.2921C151.191 46.6157 151.273 46.9453 151.342 47.283C151.412 47.6208 151.515 47.9413 151.654 48.2455C151.775 48.4301 151.93 48.5731 152.122 48.6756C152.313 48.777 152.51 48.8348 152.716 48.849C152.921 48.8632 153.12 48.8348 153.313 48.7658C153.505 48.6969 153.659 48.5833 153.774 48.4261C153.84 48.3155 153.887 48.2252 153.913 48.1553C153.939 48.0863 153.951 48.0102 153.948 47.9271C153.944 47.8439 153.931 47.7445 153.909 47.6289C153.887 47.5133 153.87 47.3591 153.859 47.1654C153.84 46.9808 153.823 46.8185 153.807 46.6806C153.79 46.5427 153.78 46.4635 153.778 46.4453L153.677 45.781ZM159.51 45.781C159.618 45.7069 159.808 45.6633 160.078 45.6491C160.348 45.6349 160.637 45.6329 160.944 45.642C161.25 45.6512 161.536 45.6674 161.803 45.6907C162.069 45.714 162.249 45.7252 162.341 45.7252H162.37L162.386 45.7394C162.516 46.2293 162.631 46.7485 162.733 47.2982C162.834 47.848 162.877 48.3723 162.86 48.8703C162.886 49.3409 162.797 49.7019 162.595 49.9514C162.392 50.2009 162.125 50.3906 161.794 50.5194C161.572 50.5843 161.341 50.6421 161.1 50.6928C160.858 50.7435 160.61 50.7811 160.354 50.8034C160.099 50.8267 159.847 50.8237 159.598 50.7963C159.348 50.7689 159.107 50.7081 158.871 50.6168C158.477 50.4596 158.164 50.2476 157.929 49.9798C157.695 49.7121 157.492 49.3794 157.321 48.9829C157.277 48.8814 157.227 48.7405 157.167 48.5599C157.107 48.3794 157.054 48.1967 157.007 48.0123C156.934 47.7171 156.872 47.4494 156.817 47.209C156.762 46.9686 156.709 46.7313 156.661 46.496C156.611 46.2607 156.564 46.0112 156.52 45.7485C156.475 45.4848 156.431 45.1826 156.389 44.8408C156.353 44.5457 156.321 44.2434 156.292 43.9331C156.264 43.6227 156.251 43.3215 156.252 43.0253C156.252 42.7201 156.287 42.4249 156.36 42.1389C156.432 41.8529 156.589 41.6176 156.828 41.432C156.989 41.2748 157.179 41.1602 157.399 41.0862C157.619 41.0121 157.85 40.9574 158.094 40.9198C158.592 40.8549 159.078 40.8711 159.555 40.9685C160.032 41.0659 160.455 41.2393 160.825 41.4878C161.195 41.7373 161.494 42.0669 161.724 42.4787C161.952 42.8894 162.077 43.3773 162.097 43.9402L162.096 44.0233C162.082 44.0507 162.042 44.0649 161.977 44.0649C161.912 44.0649 161.807 44.07 161.661 44.0791C161.522 44.0791 161.405 44.0811 161.309 44.0862C161.212 44.0913 161.116 44.0933 161.019 44.0933C160.921 44.0933 160.822 44.0882 160.718 44.0791C160.615 44.07 160.493 44.0558 160.352 44.0375C160.311 43.9452 160.254 43.8316 160.183 43.6978C160.112 43.5639 160.028 43.4391 159.932 43.3235C159.839 43.2104 159.732 43.108 159.616 43.0182C159.501 42.931 159.375 42.8864 159.236 42.8864C159.076 42.8773 158.924 42.8722 158.776 42.8722C158.628 42.8722 158.507 42.928 158.413 43.0385C158.398 43.0578 158.38 43.1055 158.359 43.1836C158.339 43.2627 158.325 43.3387 158.318 43.4118C158.286 43.6339 158.274 43.9016 158.28 44.215C158.286 44.5294 158.307 44.8641 158.342 45.2191C158.378 45.5751 158.428 45.9422 158.495 46.3205C158.562 46.6999 158.635 47.0599 158.714 47.4017C158.764 47.6045 158.834 47.8267 158.926 48.067C159.019 48.3074 159.162 48.496 159.358 48.635C159.45 48.6908 159.562 48.7324 159.696 48.7597C159.837 48.778 159.982 48.7739 160.13 48.7455C160.278 48.7182 160.413 48.6806 160.536 48.635C160.63 48.5893 160.708 48.5265 160.771 48.4484C160.833 48.3703 160.873 48.2658 160.89 48.137C160.894 48.1005 160.896 48.0376 160.896 47.9494C160.897 47.8622 160.892 47.7719 160.883 47.6796C160.874 47.5873 160.86 47.5041 160.845 47.4301C160.829 47.3561 160.807 47.3145 160.778 47.3053C160.722 47.2962 160.644 47.2942 160.549 47.2982C160.453 47.3033 160.351 47.3074 160.247 47.3124C160.141 47.3175 160.044 47.3175 159.956 47.3124C159.868 47.3084 159.799 47.2962 159.75 47.278C159.708 47.1299 159.678 47.0011 159.657 46.8905C159.635 46.78 159.619 46.6715 159.607 46.565C159.596 46.4585 159.582 46.3499 159.564 46.2394C159.547 46.1288 159.518 45.9899 159.474 45.8236L159.472 45.8094C159.471 45.8002 159.474 45.7952 159.484 45.7952L159.51 45.781Z" fill="#F4B442"/>
<path d="M47.3289 5.21492L44.8288 5.21289C44.0611 5.25245 43.3542 5.61351 42.7254 6.13279C40.491 7.97867 39.8409 11.14 40.9069 13.8348L41.6706 15.7669L53.6242 14.7932L47.3289 5.21492Z" fill="#A7A7C6"/>
<path d="M99.247 10.0254C98.8282 7.25857 96.4509 5.21289 93.6516 5.21289H44.8281C47.0391 5.95327 47.8819 9.00708 47.9266 9.1937L47.9327 9.19978V9.20587L59.8355 87.8849H111.021L99.247 10.0254Z" fill="#C8C8DC"/>
<path d="M72.1788 25.9007H56.2891L56.7982 29.1675H72.689L72.1788 25.9007ZM69.9922 11.9785H63.416L63.9789 15.5881H70.5551L69.9922 11.9785Z" fill="#A7A7C6"/>
<path d="M70.8887 17.7207H64.3125L64.8744 21.3293H71.4516L70.8887 17.7207Z" fill="#B8B8D1"/>
<path d="M63.052 21.3298H60.0368L59.9556 20.8074C60.2173 20.7831 60.4303 20.7334 60.5946 20.6604C60.7589 20.5863 60.8319 20.4961 60.8157 20.3876C60.8086 20.3429 60.7974 20.2892 60.7802 20.2253C60.7629 20.1614 60.7447 20.1056 60.7234 20.0559L59.7578 17.7151H57.2101C57.1685 18.0589 57.1371 18.3581 57.1168 18.6127C57.0965 18.8683 57.0803 19.1036 57.0661 19.3196C57.055 19.5305 57.0509 19.7019 57.0539 19.8348C57.057 19.9677 57.0661 20.0752 57.0783 20.1583C57.1087 20.3551 57.2406 20.5072 57.4718 20.6147C57.703 20.7233 57.9556 20.7861 58.2274 20.8064L58.3085 21.3288H55.5772L55.4961 20.8064C55.5833 20.7973 55.6898 20.7689 55.8156 20.7223C55.9413 20.6756 56.0407 20.6127 56.1138 20.5346C56.2294 20.4028 56.3136 20.2638 56.3663 20.1188C56.419 19.9738 56.4606 19.774 56.4921 19.5194C56.6523 18.209 56.8247 16.7374 57.0103 15.1025C57.1949 13.4686 57.3602 12.0132 57.5053 10.7383H57.914L61.7376 19.7476C61.8187 19.9393 61.9009 20.0934 61.9841 20.2111C62.0672 20.3287 62.1757 20.4444 62.3086 20.5569C62.3979 20.6259 62.5094 20.6837 62.6423 20.7304C62.7751 20.777 62.8857 20.8034 62.9709 20.8074L63.052 21.3298ZM59.4678 17.0609L57.7365 13.0081L57.2852 17.0609H59.4678ZM99.57 33.5268L96.5608 14.2313C96.3843 13.0984 95.4086 12.2637 94.2626 12.2637H76.3708C74.9427 12.2637 73.8524 13.5375 74.0725 14.9483L77.0817 34.2438C77.2582 35.3767 78.2339 36.2114 79.3799 36.2114H97.2718C98.6988 36.2114 99.7891 34.9375 99.57 33.5268Z" fill="#A7A7C6"/>
<path d="M85.2035 23.3511C86.2995 22.2175 86.2051 20.3482 84.9926 19.1759C83.7801 18.0035 81.9087 17.9721 80.8126 19.1057C79.7166 20.2393 79.8111 22.1086 81.0236 23.2809C82.2361 24.4532 84.1075 24.4847 85.2035 23.3511Z" fill="#B8B8D1"/>
<path d="M96.2374 34.9929H83.5525C83.0982 33.9564 82.8122 32.8316 82.7331 31.6572C82.3781 26.3285 86.4086 22.0059 91.7373 22.0059C93.5527 22.0059 95.285 22.5089 96.7942 23.3822L98.2395 32.6481C98.4332 33.8783 97.4808 34.9929 96.2374 34.9929ZM92.7191 43.2548H101.084L100.575 39.989H92.2099L92.7191 43.2548ZM73.3282 32.9442H57.3867L57.8959 36.211H73.8373L73.3282 32.9442Z" fill="#B8B8D1"/>
<path d="M58.9974 43.2541H89.2678L88.7587 39.9883H58.4883L58.9974 43.2541Z" fill="#A7A7C6"/>
<path d="M75.5274 47.0332H59.5859L60.0951 50.3H76.0366L75.5274 47.0332Z" fill="#B8B8D1"/>
<path d="M77.1681 50.2999H81.0393L80.8781 49.2715H77.0078L77.1681 50.2999Z" fill="#9898B7"/>
<path d="M167.979 173.762C167.979 173.762 185.988 177.502 186.108 178.728C186.229 179.955 179.244 208.49 177.366 210.791C175.487 213.092 170.17 211.813 170.465 207.205C170.761 202.596 171.664 193.01 168.935 189.281L163.254 184.943L167.979 173.762Z" fill="#FFCD5C"/>
<path opacity="0.5" d="M167.976 173.758C167.976 173.758 185.985 177.499 186.104 178.724C186.223 179.956 179.238 208.49 177.363 210.791C176.239 212.166 173.883 212.263 172.24 211.123C178.798 204.73 180.193 180.902 180.193 180.902L171.769 177.603L166.905 187.728L163.254 184.942L167.976 173.758Z" fill="#F4B442"/>
<path d="M183.764 177.102C184.328 177.221 186.796 177.886 186.718 178.939C186.642 179.993 178.159 212.062 177.664 212.153C177.168 212.244 175.517 211.868 175.177 211.888C174.836 211.908 183.764 177.102 183.764 177.102ZM171.167 195.763C171.109 195.844 170.452 195.453 169.378 194.877C169.11 194.734 168.814 194.581 168.494 194.428C168.174 194.276 167.83 194.123 167.465 193.995C167.282 193.931 167.096 193.878 166.907 193.836C166.719 193.797 166.529 193.775 166.365 193.791C166.284 193.799 166.212 193.817 166.157 193.843C166.101 193.87 166.063 193.902 166.029 193.947C165.996 193.992 165.968 194.054 165.948 194.131C165.93 194.209 165.921 194.303 165.92 194.392C165.922 194.569 165.963 194.728 166.051 194.87C166.137 195.012 166.266 195.138 166.418 195.246C166.725 195.462 167.104 195.602 167.473 195.706C168.218 195.91 168.939 195.98 169.54 196.024C170.143 196.064 170.635 196.069 170.974 196.07C171.14 196.07 171.27 196.07 171.362 196.069C171.451 196.072 171.486 196.069 171.504 196.082C171.511 196.091 171.516 196.11 171.495 196.135C171.476 196.159 171.443 196.184 171.4 196.207C171.312 196.255 171.18 196.301 171.008 196.343C170.663 196.429 170.16 196.501 169.532 196.524C168.904 196.542 168.149 196.526 167.312 196.338C167.103 196.29 166.889 196.23 166.672 196.147C166.456 196.064 166.236 195.961 166.023 195.817C165.811 195.674 165.604 195.486 165.449 195.238C165.292 194.991 165.211 194.685 165.211 194.393C165.213 194.247 165.226 194.107 165.262 193.959C165.299 193.812 165.362 193.658 165.468 193.52C165.571 193.382 165.717 193.269 165.867 193.204C166.017 193.137 166.167 193.108 166.307 193.098C166.586 193.08 166.832 193.121 167.059 193.176C167.286 193.233 167.496 193.304 167.695 193.384C168.091 193.543 168.445 193.726 168.768 193.907C169.09 194.09 169.379 194.272 169.638 194.447C170.669 195.149 171.224 195.687 171.167 195.763ZM171.454 196.897C171.454 196.946 171.269 196.991 170.935 197.049C170.603 197.108 170.12 197.175 169.536 197.287C169.243 197.342 168.926 197.41 168.593 197.499C168.262 197.588 167.912 197.698 167.575 197.851C167.49 197.888 167.411 197.934 167.328 197.975C167.252 198.024 167.167 198.066 167.097 198.122C167.02 198.172 166.957 198.232 166.891 198.289C166.835 198.35 166.774 198.411 166.734 198.479C166.647 198.612 166.601 198.754 166.597 198.911C166.601 198.952 166.604 198.992 166.605 199.033C166.608 199.074 166.624 199.117 166.632 199.16C166.645 199.247 166.683 199.33 166.716 199.401C166.791 199.545 166.879 199.622 167.009 199.665C167.139 199.707 167.315 199.705 167.495 199.672C167.859 199.603 168.228 199.439 168.565 199.264C169.242 198.906 169.824 198.492 170.304 198.142C170.784 197.787 171.161 197.482 171.423 197.273C171.553 197.169 171.654 197.088 171.723 197.034C171.795 196.982 171.824 196.957 171.847 196.96C171.857 196.964 171.87 196.978 171.868 197.009C171.867 197.038 171.856 197.076 171.837 197.12C171.798 197.209 171.725 197.325 171.621 197.465C171.412 197.743 171.076 198.112 170.623 198.528C170.167 198.942 169.6 199.412 168.88 199.836C168.516 200.043 168.119 200.247 167.627 200.354C167.381 200.401 167.1 200.428 166.798 200.337C166.642 200.29 166.498 200.21 166.375 200.103C166.252 199.995 166.156 199.862 166.087 199.728C166.02 199.592 165.968 199.461 165.943 199.323C165.93 199.254 165.91 199.188 165.905 199.116C165.9 199.044 165.896 198.972 165.894 198.9C165.9 198.607 166.002 198.314 166.161 198.089C166.237 197.971 166.332 197.88 166.423 197.789C166.519 197.707 166.616 197.626 166.716 197.564C166.814 197.493 166.917 197.445 167.016 197.388C167.118 197.341 167.217 197.291 167.317 197.252C167.717 197.092 168.102 196.995 168.464 196.925C168.796 196.862 169.131 196.817 169.469 196.79C170.083 196.738 170.58 196.747 170.923 196.772C171.266 196.8 171.454 196.847 171.454 196.897Z" fill="#111968"/>
<path d="M170.491 205.03C170.536 206.489 172.28 204.292 172.899 200.823C173.519 197.353 173.514 191.895 171.11 189.165C169.191 186.985 167.219 188.128 167.219 188.128C167.219 188.128 169.682 191.45 170.436 195.408C171.084 198.811 170.388 201.771 170.491 205.03Z" fill="#111968"/>
<path d="M119.407 113.825C119.407 113.825 100.773 167.506 112.026 177.871C120.209 185.409 165.277 188.503 165.277 188.503L169.633 172.517L136.704 159.876C136.704 159.876 152.877 120.695 147.203 111.945C143.876 106.812 119.407 113.825 119.407 113.825Z" fill="#171C80"/>
<path d="M145.378 124.705L145.283 124.661C145.134 124.591 141.636 122.934 141.155 121.396C140.683 119.895 141.575 113.84 141.613 113.583L141.63 113.47L141.739 113.432C141.969 113.352 147.386 111.464 148.654 111.714L148.769 111.737L148.8 111.851C149.53 114.553 149.456 118.714 149.298 120.747C149.184 122.19 145.848 124.401 145.468 124.649L145.378 124.705ZM136.018 160.127C136.084 160.216 135.98 160.417 135.732 160.706C135.608 160.85 135.447 161.017 135.254 161.203C135.157 161.295 135.054 161.396 134.939 161.493C134.821 161.587 134.696 161.687 134.562 161.788C134.296 161.991 134.002 162.214 133.676 162.437C133.342 162.648 132.981 162.868 132.597 163.095C132.502 163.153 132.401 163.204 132.3 163.256C132.198 163.308 132.095 163.359 131.991 163.412C131.782 163.515 131.568 163.621 131.35 163.729C131.243 163.785 131.128 163.829 131.014 163.878C130.899 163.924 130.784 163.972 130.668 164.021C130.434 164.114 130.2 164.215 129.958 164.302C129.712 164.383 129.471 164.463 129.232 164.542C129.112 164.58 128.993 164.62 128.876 164.655C128.756 164.687 128.637 164.718 128.519 164.749C128.282 164.809 128.051 164.866 127.824 164.923C127.594 164.97 127.368 165.011 127.148 165.052C127.039 165.071 126.929 165.092 126.823 165.11C126.715 165.126 126.608 165.138 126.502 165.151C126.291 165.176 126.087 165.199 125.89 165.222C125.691 165.237 125.498 165.247 125.314 165.256C125.221 165.26 125.131 165.263 125.043 165.267C124.954 165.266 124.867 165.266 124.782 165.265C123.424 165.26 122.59 164.984 122.614 164.764C122.634 164.543 123.424 164.41 124.669 164.134C124.747 164.118 124.826 164.102 124.907 164.084C124.988 164.065 125.07 164.045 125.155 164.026C125.324 163.987 125.499 163.948 125.681 163.906C125.861 163.86 126.048 163.813 126.24 163.763C126.336 163.74 126.432 163.715 126.532 163.691C126.629 163.663 126.728 163.634 126.829 163.606C127.03 163.55 127.236 163.493 127.445 163.435C127.653 163.37 127.866 163.304 128.082 163.236C128.191 163.203 128.3 163.17 128.41 163.136C128.519 163.098 128.628 163.059 128.739 163.021C128.96 162.944 129.185 162.867 129.412 162.789C129.638 162.709 129.858 162.616 130.077 162.535C130.187 162.493 130.295 162.452 130.404 162.411C130.511 162.369 130.621 162.333 130.723 162.285C130.932 162.196 131.138 162.109 131.339 162.023C131.441 161.981 131.541 161.939 131.639 161.898C131.739 161.857 131.837 161.818 131.931 161.771C132.311 161.593 132.674 161.427 133.019 161.277C133.356 161.114 133.669 160.956 133.962 160.823C134.108 160.755 134.248 160.692 134.383 160.634C134.514 160.571 134.638 160.511 134.754 160.456C134.987 160.346 135.194 160.258 135.371 160.195C135.724 160.068 135.952 160.038 136.018 160.127Z" fill="#111968"/>
<path d="M126.825 215.516C126.825 215.516 135.263 229.526 134.385 230.491C133.506 231.454 106.125 246.187 102.985 246.341C99.8448 246.496 97.0811 241.409 100.914 238.375C104.747 235.342 112.922 229.257 113.919 224.47L113.303 216.93L126.825 215.516Z" fill="#FFCD5C"/>
<path opacity="0.5" d="M134.384 230.492C133.506 231.455 106.125 246.184 102.987 246.339C100.911 246.445 98.9981 244.248 99.0478 241.875C106.6 241.025 127.463 230.03 128.646 227.495C129.992 224.604 125.273 219.872 125.273 219.872L113.677 221.48L113.302 216.932L126.825 215.516C126.825 215.516 135.263 229.528 134.384 230.492Z" fill="#F4B442"/>
<path d="M134.004 227.495C134.31 228.023 135.537 230.433 134.654 231.119C133.771 231.806 102.549 247.866 102.127 247.54C101.704 247.214 100.829 245.65 100.572 245.397C100.315 245.144 134.004 227.495 134.004 227.495ZM110.407 230.819C110.3 230.83 110.144 230.037 109.836 228.785C109.758 228.472 109.668 228.131 109.562 227.772C109.454 227.413 109.331 227.034 109.172 226.656C109.093 226.467 109.004 226.281 108.903 226.104C108.801 225.929 108.682 225.764 108.555 225.646C108.491 225.588 108.426 225.544 108.366 225.519C108.306 225.493 108.253 225.486 108.194 225.492C108.135 225.499 108.066 225.52 107.991 225.559C107.917 225.601 107.836 225.66 107.766 225.722C107.628 225.848 107.532 225.993 107.483 226.163C107.432 226.331 107.424 226.523 107.447 226.719C107.495 227.113 107.654 227.512 107.834 227.874C108.202 228.604 108.657 229.221 109.049 229.724C109.444 230.227 109.789 230.617 110.028 230.885C110.146 231.016 110.238 231.117 110.304 231.19C110.336 231.226 110.358 231.25 110.372 231.269C110.383 231.288 110.399 231.298 110.395 231.311C110.393 231.323 110.382 231.34 110.347 231.341C110.315 231.342 110.272 231.334 110.223 231.317C110.124 231.282 109.994 231.211 109.839 231.106C109.527 230.896 109.115 230.55 108.651 230.074C108.192 229.593 107.669 228.989 107.224 228.197C107.114 227.999 107.01 227.788 106.922 227.558C106.834 227.33 106.76 227.084 106.721 226.815C106.683 226.547 106.683 226.251 106.77 225.954C106.852 225.656 107.035 225.375 107.265 225.168C107.38 225.065 107.5 224.977 107.641 224.9C107.783 224.825 107.949 224.766 108.132 224.75C108.313 224.734 108.505 224.768 108.663 224.84C108.822 224.911 108.951 225.009 109.059 225.11C109.271 225.316 109.412 225.539 109.529 225.756C109.646 225.974 109.738 226.191 109.816 226.403C109.973 226.828 110.08 227.235 110.165 227.617C110.25 228 110.311 228.357 110.358 228.684C110.536 229.992 110.506 230.809 110.407 230.819ZM109.719 231.848C109.68 231.882 109.513 231.768 109.232 231.547C108.95 231.326 108.556 230.996 108.054 230.615C107.802 230.426 107.524 230.224 107.219 230.025C106.914 229.827 106.579 229.629 106.219 229.474C105.864 229.32 105.464 229.206 105.129 229.256C104.961 229.281 104.819 229.347 104.694 229.457C104.631 229.512 104.574 229.582 104.52 229.658C104.464 229.736 104.423 229.82 104.392 229.898C104.331 230.059 104.335 230.184 104.392 230.315C104.451 230.447 104.577 230.584 104.73 230.702C105.041 230.94 105.433 231.113 105.809 231.255C106.571 231.534 107.308 231.698 107.925 231.826C108.544 231.952 109.051 232.033 109.401 232.09C109.575 232.118 109.711 232.14 109.801 232.157C109.892 232.176 109.933 232.181 109.947 232.203C109.951 232.214 109.949 232.234 109.924 232.253C109.9 232.274 109.862 232.292 109.814 232.308C109.717 232.34 109.574 232.366 109.39 232.382C109.024 232.414 108.496 232.412 107.847 232.351C107.199 232.286 106.427 232.174 105.584 231.907C105.164 231.767 104.721 231.6 104.289 231.289C104.077 231.129 103.858 230.928 103.715 230.625C103.642 230.469 103.603 230.299 103.6 230.126C103.598 229.952 103.635 229.784 103.692 229.635C103.746 229.492 103.817 229.358 103.904 229.233C103.989 229.112 104.086 228.996 104.204 228.894C104.436 228.69 104.741 228.559 105.031 228.527C105.322 228.491 105.594 228.529 105.838 228.592C106.082 228.656 106.303 228.745 106.508 228.845C106.918 229.045 107.266 229.282 107.577 229.515C107.887 229.75 108.158 229.985 108.396 230.209C108.872 230.657 109.218 231.052 109.44 231.34C109.661 231.631 109.758 231.813 109.719 231.848Z" fill="#111968"/>
<path d="M102.642 236.855C101.527 237.926 104.49 237.739 107.656 235.767C110.822 233.796 115.11 229.925 115.553 226.099C115.907 223.045 113.611 222.305 113.611 222.305C113.611 222.305 112.745 226.596 110.167 229.992C107.949 232.914 105.131 234.464 102.642 236.855Z" fill="#111968"/>
<path d="M108.642 109.814C108.642 109.814 89.3467 145.343 90.2453 158.27C91.1773 171.68 112.122 219.92 112.122 219.92L128.231 216.508L114.659 167.976C114.659 167.976 138.876 133.221 139.882 109.71C133.539 109.588 108.642 109.814 108.642 109.814Z" fill="#171C80"/>
<path d="M131.109 127.833L131.038 127.801C130.837 127.707 126.088 125.497 125.363 123.919C124.643 122.352 125.502 116.523 125.539 116.275L125.562 116.129L125.709 116.115C126.07 116.08 134.561 115.265 136.252 115.719C137.575 116.075 137.086 119.258 136.42 122.77C136.269 123.564 136.139 124.25 136.123 124.572C136.051 126.009 131.681 127.627 131.184 127.808L131.109 127.833ZM122.603 198.367C122.388 198.423 121.259 194.897 119.606 189.152C118.78 186.279 117.823 182.851 116.784 179.038C116.264 177.131 115.725 175.129 115.17 173.052C114.894 172.013 114.613 170.956 114.328 169.883C114.163 169.256 113.998 168.625 113.83 167.99L113.804 167.888L113.791 167.837C113.786 167.828 113.793 167.821 113.798 167.814L113.813 167.791L113.932 167.617L114.169 167.266C114.252 167.143 114.334 167.02 114.417 166.896C114.574 166.662 114.731 166.426 114.888 166.19C119.904 158.609 124.152 151.545 127.036 146.335C127.219 146.01 127.396 145.693 127.57 145.383C127.738 145.072 127.903 144.769 128.062 144.474C128.383 143.884 128.687 143.328 128.969 142.809C129.514 141.759 130.002 140.863 130.393 140.126C131.156 138.643 131.628 137.84 131.73 137.883C131.833 137.927 131.555 138.813 130.962 140.386C130.657 141.168 130.248 142.109 129.777 143.206C129.53 143.748 129.26 144.324 128.974 144.937C128.83 145.243 128.681 145.558 128.529 145.88C128.374 146.202 128.209 146.527 128.041 146.864C125.393 152.251 121.276 159.448 116.226 167.08C116.067 167.319 115.908 167.556 115.75 167.792C115.675 167.904 115.6 168.016 115.525 168.126C115.526 168.125 115.525 168.125 115.525 168.125C115.643 168.579 115.759 169.03 115.876 169.478C116.153 170.553 116.426 171.613 116.693 172.654C117.227 174.737 117.736 176.747 118.217 178.664C119.177 182.498 120.02 185.955 120.706 188.865C122.077 194.683 122.818 198.31 122.603 198.367ZM117.735 126.308C117.716 126.455 117.48 126.56 117.057 126.624C116.846 126.661 116.591 126.664 116.294 126.663C115.996 126.667 115.662 126.626 115.29 126.584C114.551 126.476 113.678 126.27 112.75 125.914C111.822 125.56 110.842 125.055 109.894 124.408C108.949 123.758 108.13 123.029 107.461 122.304C106.793 121.577 106.268 120.858 105.89 120.217C105.129 118.936 104.941 117.988 105.202 117.853C105.465 117.715 106.089 118.334 107.082 119.28C107.576 119.755 108.165 120.307 108.837 120.887C109.511 121.465 110.272 122.066 111.107 122.641C111.944 123.212 112.774 123.703 113.556 124.111C114.337 124.521 115.069 124.845 115.692 125.122C116.943 125.659 117.774 126.003 117.735 126.308ZM111.458 166.661C111.419 166.746 111.162 166.726 110.73 166.619C110.514 166.565 110.254 166.489 109.956 166.393C109.659 166.298 109.318 166.175 108.964 166.058C108.609 165.942 108.231 165.837 107.851 165.811C107.475 165.785 107.07 165.846 106.634 165.981C106.197 166.12 105.734 166.33 105.228 166.568C104.974 166.686 104.711 166.811 104.429 166.93C104.36 166.961 104.288 166.99 104.215 167.019L104.107 167.062L104.08 167.073C104.069 167.077 104.064 167.079 104.045 167.086L103.95 167.117C103.822 167.159 103.693 167.2 103.564 167.243C103.424 167.272 103.289 167.275 103.157 167.252C103.125 167.247 103.094 167.238 103.062 167.231C102.797 167.153 102.584 166.97 102.447 166.728C102.375 166.608 102.333 166.465 102.281 166.332C102.269 166.297 102.259 166.263 102.249 166.229L102.231 166.165L102.198 166.046C102.116 165.73 102.067 165.431 102.021 165.155C101.975 164.88 101.932 164.626 101.879 164.396C101.85 164.279 101.823 164.177 101.788 164.075C101.753 163.975 101.715 163.877 101.671 163.787C101.585 163.604 101.478 163.448 101.364 163.324C101.249 163.204 101.13 163.113 101.001 163.062C100.759 162.95 100.378 162.974 100 163.013C99.2559 163.088 98.6525 163.202 98.2255 163.268C97.7985 163.336 97.5459 163.353 97.5084 163.266C97.4719 163.182 97.6575 163 98.049 162.773C98.4405 162.549 99.0409 162.281 99.8279 162.074C100.023 162.024 100.235 161.971 100.485 161.939C100.734 161.911 101.031 161.904 101.343 161.994C101.655 162.077 101.943 162.25 102.183 162.461C102.42 162.675 102.616 162.927 102.769 163.199C102.848 163.335 102.914 163.476 102.975 163.621C103.036 163.766 103.085 163.919 103.127 164.062C103.211 164.352 103.27 164.64 103.325 164.915C103.38 165.19 103.431 165.454 103.499 165.697L103.525 165.787L103.538 165.828C103.539 165.828 103.538 165.829 103.538 165.829H103.539C103.54 165.829 103.54 165.828 103.54 165.828L103.573 165.817L103.582 165.814L103.623 165.797L103.719 165.76C103.783 165.736 103.847 165.711 103.911 165.684C104.167 165.58 104.425 165.466 104.686 165.355C105.206 165.131 105.745 164.913 106.307 164.775C106.59 164.709 106.875 164.662 107.162 164.647C107.232 164.64 107.305 164.644 107.376 164.643C107.447 164.645 107.517 164.641 107.587 164.648C107.727 164.662 107.865 164.671 107.999 164.696C108.535 164.794 108.97 164.989 109.335 165.174C109.701 165.362 110.002 165.542 110.271 165.703C110.539 165.864 110.767 166.01 110.95 166.138C111.313 166.394 111.497 166.575 111.458 166.661Z" fill="#111968"/>
<path d="M91.8693 45.6759C90.4292 43.826 88.422 42.8219 87.5569 42.4507C85.7485 41.6779 80.8428 41.0592 80.4178 42.4396C80.2474 42.9913 82.9716 43.8798 84.0163 44.1343C83.4879 44.1242 82.4249 44.254 82.3398 44.9812C82.2617 45.6506 82.5629 46.0177 83.7444 46.2652C82.8418 46.3108 82.4016 46.7074 82.3732 46.9386C82.3397 47.2064 82.1582 47.8352 83.5396 48.0898C82.5081 48.0452 82.4158 48.8028 82.4452 49.1253C82.5396 50.1699 86.067 50.7612 86.067 50.7612C87.8013 53.8262 88.7699 56.2654 89.6016 57.522C89.8024 57.8253 95.7822 52.8191 95.7822 52.8191C95.7822 52.8191 92.9475 47.0543 91.8693 45.6759Z" fill="#FCA993"/>
<path d="M90.713 49.1132C90.7495 49.1315 90.6806 49.3861 90.4473 49.7441C90.3286 49.9196 90.1674 50.1204 89.9534 50.308C89.7404 50.4966 89.4757 50.6721 89.1745 50.806C88.569 51.0727 87.9625 51.1143 87.5436 51.0808C87.1207 51.0474 86.8732 50.947 86.8833 50.9023C86.8925 50.8567 87.145 50.8729 87.5456 50.8465C87.9432 50.8202 88.4939 50.7451 89.0406 50.5037C89.2961 50.3894 89.5372 50.245 89.7586 50.0737C89.9635 49.9155 90.1288 49.7471 90.2627 49.6011C90.5264 49.3019 90.6684 49.0889 90.713 49.1132ZM85.8752 44.7399C85.8356 44.8383 85.215 44.6791 84.4482 44.5087C83.6825 44.3322 83.0547 44.1994 83.0618 44.0979C83.0668 43.9935 83.7372 43.962 84.5314 44.1456C85.3265 44.3211 85.9148 44.6476 85.8752 44.7399ZM85.361 46.6315C85.3306 46.7319 84.7586 46.6497 84.0587 46.5432C83.3589 46.4317 82.7889 46.3211 82.793 46.2187C82.796 46.1152 83.3944 46.0594 84.1166 46.1751C84.8407 46.2856 85.3914 46.5351 85.361 46.6315ZM84.8478 48.5585C84.8224 48.6579 84.3843 48.6325 83.8691 48.5017C83.3539 48.3708 82.9563 48.1832 82.9816 48.0828C83.007 47.9824 83.4451 48.0088 83.9604 48.1396C84.4756 48.2704 84.8742 48.4581 84.8478 48.5585Z" fill="#D8776A"/>
<path d="M103.45 86.9886C98.8536 80.6386 86.9883 54.28 86.9883 54.28C86.9883 54.28 92.0827 50.1938 94.7836 49.5781C97.7441 51.639 119.826 78.2653 118.793 82.1508C118.109 84.7249 109.101 94.796 103.45 86.9886Z" fill="#1996F2"/>
<path opacity="0.5" d="M118.796 82.1468C118.107 84.7249 109.099 94.791 103.453 86.9836C101.163 83.8121 97.062 75.6771 93.5234 68.3098C98.3846 67.2367 103.67 63.761 105.911 62.1758C112.502 70.392 119.381 79.9368 118.796 82.1468Z" fill="#1965F2"/>
<path d="M80.1641 49.4317L82.8264 48.0736L80.801 46.5117L80.1641 49.4317Z" fill="#D8776A"/>
<path d="M80.2847 48.8789C80.3365 48.9347 80.3973 48.9895 80.4643 49.0422C80.5322 49.0939 80.6012 49.1385 80.6671 49.1751L80.1641 49.4317L80.2847 48.8789Z" fill="#171C80"/>
<path d="M81.625 47.5352C81.5276 47.4602 81.4364 47.3841 81.3532 47.3101C80.9526 46.9551 80.7132 46.6224 80.7984 46.5129C80.8086 46.4997 91.2002 32.6465 91.2002 32.6465C91.1941 32.7885 91.4203 33.0816 91.7712 33.3929C91.8554 33.467 91.9467 33.543 92.0431 33.6181C92.1394 33.6932 92.2368 33.7621 92.3301 33.824C92.7195 34.0836 93.0613 34.2287 93.1972 34.1861C93.1972 34.1861 82.8339 48.0606 82.8228 48.0738C82.7376 48.1833 82.3573 48.0383 81.911 47.7401C81.813 47.6756 81.7176 47.6072 81.625 47.5352Z" fill="#FFCD5C"/>
<path d="M93.202 34.1855C93.202 34.1855 82.8387 48.0641 82.8235 48.0793C82.7778 48.1402 82.6409 48.1168 82.4513 48.0418C82.7322 47.5103 83.575 45.8633 83.4756 45.5062C83.4077 45.2405 82.5801 45.0732 81.9492 44.9819C82.1683 44.6908 82.4137 44.3632 82.6795 44.0093C83.002 43.5792 86.3864 42.7932 86.3864 42.7932L92.3571 33.8438C92.7385 34.0943 93.0651 34.2302 93.202 34.1855Z" fill="#F4B442"/>
<path d="M92.0471 33.6184C91.545 33.232 91.1961 32.8232 91.2032 32.6468L92.7905 30.5879L94.7875 32.1275L93.2002 34.1863C93.0309 34.2391 92.5481 34.0048 92.0471 33.6184Z" fill="#D89935"/>
<path d="M93.6014 31.5998C93.0426 31.1688 92.6724 30.7114 92.7748 30.5775C92.8773 30.4446 93.4138 30.686 93.9736 31.1171C94.5325 31.5481 94.9027 32.0055 94.8002 32.1394C94.6978 32.2733 94.1613 32.0309 93.6014 31.5998Z" fill="#F4B442"/>
<path d="M88.1074 42.8152C87.1043 42.6651 82.1833 43.2878 82.3314 44.3355C82.4795 45.3842 88.4745 45.731 88.4745 45.731C88.4745 45.731 89.1084 49.5262 92.4269 48.222C93.6633 47.7351 89.582 43.0363 88.1074 42.8152Z" fill="#FCA993"/>
<path d="M84.1567 43.2667C84.1506 43.2444 84.2124 43.2059 84.3311 43.1552C84.3899 43.1298 84.464 43.1014 84.5492 43.07C84.5928 43.0548 84.6384 43.0385 84.6871 43.0213C84.7368 43.0071 84.7895 42.9929 84.8453 42.9777C84.9559 42.9483 85.0786 42.9168 85.2094 42.8844C85.3433 42.86 85.4853 42.8347 85.6344 42.8073C85.7845 42.7809 85.9447 42.7698 86.109 42.7505C86.2743 42.7333 86.4468 42.7322 86.6222 42.7231C87.3281 42.715 87.9661 42.8164 88.4083 42.9533C88.8525 43.0862 89.101 43.2434 89.0807 43.285C89.0614 43.3266 88.7947 43.2515 88.3545 43.1815C87.9153 43.1075 87.3038 43.0477 86.6263 43.0548C85.2693 43.075 84.1851 43.3702 84.1567 43.2667ZM90.8992 48.4109C90.8982 48.422 90.8708 48.4301 90.817 48.4352C90.7643 48.4392 90.6852 48.4443 90.5858 48.4342C90.386 48.4179 90.0909 48.3632 89.7602 48.1948C89.4326 48.0254 89.0837 47.7263 88.8251 47.3114C88.6909 47.0951 88.5814 46.8645 88.4985 46.6238C88.4559 46.499 88.4184 46.3713 88.387 46.2384C88.3717 46.1725 88.3575 46.1055 88.3454 46.0376L88.3281 45.9351L88.32 45.8804C88.105 45.855 87.8951 45.8297 87.6922 45.8053C87.4468 45.7739 87.2095 45.7445 86.9843 45.7151C86.534 45.6552 86.1283 45.5974 85.7895 45.5447C85.111 45.4382 84.6952 45.3499 84.7003 45.3053C84.7054 45.2607 85.1303 45.2668 85.8159 45.3144C86.1587 45.3378 86.5664 45.3712 87.0188 45.4138L87.7287 45.4838C88.0188 45.5153 88.319 45.5477 88.6263 45.5812C88.6304 45.6339 88.6334 45.6897 88.6385 45.7424C88.6415 45.7749 88.6446 45.8124 88.6486 45.8398L88.6547 45.8865L88.6699 45.9798C88.7016 46.1626 88.7463 46.3429 88.8038 46.5193C88.8778 46.7496 88.9742 46.9615 89.0837 47.1522C89.3038 47.5346 89.5929 47.8135 89.8738 47.991C90.1568 48.1674 90.4215 48.2536 90.6051 48.3064C90.6974 48.3358 90.7704 48.351 90.8201 48.3683C90.8738 48.3855 90.9002 48.3997 90.8992 48.4109Z" fill="#D8776A"/>
<path d="M99.6875 120.734C101.437 121.256 106.468 122.768 110.156 121.026C111.121 120.571 112.558 114.996 112.558 114.996C112.558 114.996 114.263 120.777 115.512 120.757C129.808 120.533 144.082 119.831 149.907 113.968C148.358 90.913 135.475 65.6144 123.47 57.8627C120.555 55.9803 114.076 57.4266 112.834 59.9378C106.807 72.1185 103.805 106.624 99.6875 120.734Z" fill="#1996F2"/>
<path opacity="0.5" d="M99.6875 120.733C101.434 121.252 106.466 122.764 110.158 121.026C111.117 120.573 112.554 114.998 112.554 114.998C112.554 114.998 114.261 120.781 115.508 120.761C118.553 120.714 121.598 120.648 124.552 120.506C113.024 118.907 112.983 106.963 112.983 106.963C112.983 106.963 110.488 118.154 106.006 116.869C101.514 115.593 111.915 74.7137 111.886 74.4023C111.786 74.4023 110.059 75.9521 107.623 78.1904C104.658 93.0325 102.413 111.38 99.6875 120.733Z" fill="#1965F2"/>
<path d="M121.467 114.454C121.489 114.274 122.979 114.335 125.364 114.412C126.556 114.446 127.974 114.485 129.534 114.432C130.315 114.409 131.13 114.359 131.97 114.271C132.81 114.185 133.672 114.06 134.544 113.881C136.288 113.525 137.892 112.962 139.302 112.326C140.007 112.01 140.662 111.666 141.271 111.336C141.572 111.165 141.868 111.006 142.143 110.838C142.282 110.756 142.419 110.676 142.553 110.598C142.685 110.517 142.815 110.438 142.941 110.36C143.952 109.738 144.757 109.203 145.33 108.851C145.9 108.495 146.24 108.325 146.295 108.392C146.348 108.458 146.113 108.757 145.63 109.234C145.145 109.707 144.41 110.358 143.439 111.09C143.317 111.181 143.192 111.273 143.064 111.369C142.934 111.46 142.801 111.554 142.665 111.65C142.394 111.843 142.102 112.03 141.801 112.227C141.191 112.608 140.528 113.002 139.8 113.364C138.346 114.092 136.646 114.727 134.798 115.104C133.876 115.294 132.966 115.415 132.085 115.489C131.205 115.564 130.356 115.591 129.55 115.583C127.936 115.574 126.497 115.441 125.296 115.293C122.896 114.988 121.445 114.617 121.467 114.454ZM132.163 110.315C132.142 110.131 133.057 109.911 134.471 109.474C135.176 109.249 136.006 108.971 136.898 108.592C137.789 108.214 138.739 107.737 139.687 107.156C140.638 106.579 141.49 105.944 142.233 105.324C142.974 104.703 143.602 104.093 144.114 103.562C145.139 102.499 145.696 101.759 145.849 101.84C146.004 101.916 145.698 102.855 144.797 104.126C144.346 104.759 143.749 105.473 143.002 106.184C142.255 106.893 141.361 107.605 140.341 108.224C139.324 108.846 138.287 109.327 137.315 109.667C136.342 110.01 135.435 110.214 134.672 110.336C134.48 110.363 134.297 110.388 134.125 110.411C133.953 110.436 133.787 110.441 133.635 110.453C133.329 110.473 133.065 110.485 132.848 110.471C132.412 110.452 132.172 110.4 132.163 110.315ZM112.372 113.369C112.309 113.36 112.31 112.904 112.364 112.092C112.379 111.889 112.396 111.664 112.415 111.416C112.425 111.294 112.436 111.165 112.447 111.031C112.46 110.898 112.47 110.759 112.479 110.614C112.514 110.037 112.56 109.382 112.615 108.658C112.811 105.76 113.006 101.753 113.092 97.3187C113.175 92.8846 113.17 88.8673 113.174 85.9575C113.176 83.0477 113.194 81.2454 113.32 81.2383C113.447 81.2312 113.659 83.0264 113.823 85.9402C113.986 88.8531 114.093 92.8836 114.01 97.337C113.923 101.79 113.625 105.82 113.262 108.72C113.165 109.444 113.074 110.099 112.989 110.673C112.969 110.817 112.946 110.955 112.921 111.088C112.896 111.221 112.872 111.348 112.85 111.47C112.802 111.715 112.758 111.938 112.719 112.139C112.555 112.941 112.435 113.378 112.372 113.369Z" fill="#115ACE"/>
<path d="M121.444 64.6749C121.444 64.6749 110.121 86.5668 104.018 91.6308C101.084 94.066 93.7607 86.5516 94.1055 76.2137C99.4302 71.7896 113.123 59.0064 113.589 59.2194C114.054 59.4324 121.639 61.902 121.444 64.6749Z" fill="#1996F2"/>
<path d="M96.3454 74.3579C96.1862 74.1783 99.4773 71.0038 103.695 67.2685C107.914 63.5331 111.462 60.6507 111.622 60.8302C111.781 61.0097 108.49 64.1842 104.272 67.9196C100.053 71.655 96.5046 74.5374 96.3454 74.3579ZM102.745 92.5022C102.742 92.4353 103.05 92.3775 103.494 92.0083C103.941 91.6544 104.53 91.0499 105.201 90.2466C106.546 88.6411 108.231 86.2577 110.029 83.5812C111.826 80.9026 113.408 78.4411 114.576 76.6743C115.743 74.9055 116.493 73.8264 116.597 73.8863C116.701 73.9461 116.137 75.1378 115.101 76.9938C114.064 78.8478 112.56 81.3702 110.751 84.066C108.941 86.7597 107.158 89.1158 105.657 90.6584C104.908 91.4292 104.226 91.9961 103.679 92.2913C103.609 92.3268 103.546 92.3623 103.482 92.3897C103.419 92.416 103.359 92.4404 103.303 92.4637C103.186 92.5002 103.088 92.5296 103.003 92.5367C102.921 92.5509 102.855 92.5438 102.811 92.5367C102.767 92.5286 102.746 92.5175 102.745 92.5022Z" fill="#115ACE"/>
<path d="M63.7321 64.5827C61.7229 62.7013 59.2127 61.9042 58.1417 61.6313C55.9033 61.0664 52.9094 61.3088 52.67 62.9873C52.5737 63.6587 53.0869 64.1273 54.3445 64.2318C53.7299 64.316 52.5209 64.6618 52.5554 65.5198C52.5869 66.3109 53.0037 66.6811 54.4185 66.7511C53.38 66.9681 52.9428 67.5097 52.952 67.7826C52.9621 68.099 52.8668 68.8617 54.5149 68.9043C53.31 69.0412 53.3424 69.9368 53.4347 70.3049C53.736 71.4997 57.9338 71.5392 57.9338 71.5392C59.1732 75.2746 61.373 76.516 62.9866 77.2401C63.3791 77.4105 67.0851 69.2339 67.0851 69.2339C67.0851 69.2339 65.2352 65.9844 63.7321 64.5827Z" fill="#FCA993"/>
<path d="M57.2253 64.4981C57.1969 64.6198 56.4484 64.5478 55.5275 64.492C54.6066 64.4271 53.855 64.3886 53.8439 64.2689C53.8317 64.1472 54.6025 63.988 55.5569 64.0549C56.5123 64.1137 57.2537 64.3845 57.2253 64.4981ZM56.9748 66.7862C56.9575 66.9079 56.28 66.918 55.4484 66.9221C54.6157 66.9201 53.9352 66.8967 53.921 66.7771C53.9058 66.6564 54.5893 66.4819 55.4484 66.484C56.3084 66.4799 56.993 66.6686 56.9748 66.7862Z" fill="#D8776A"/>
<path d="M56.7312 69.1146C56.7424 68.9942 56.2479 68.8496 55.6266 68.7916C55.0053 68.7337 54.4925 68.7845 54.4813 68.9049C54.47 69.0254 54.9646 69.17 55.5859 69.2279C56.2072 69.2858 56.72 69.2351 56.7312 69.1146Z" fill="#D8776A"/>
<path d="M106.543 85.2494C105.204 77.8456 92.27 75.1377 66.5616 68.2734L62.457 78.086C62.457 78.086 91.2274 94.0985 97.1342 93.9687C103.041 93.8389 107.394 89.9554 106.543 85.2494Z" fill="#1996F2"/>
<path d="M104.541 86.315C103.697 83.315 93.8258 88.9388 95.4942 91.5879C97.1606 94.2361 106.107 91.8831 104.541 86.315Z" fill="#1965F2"/>
<path d="M94.5172 75.8659C94.5425 75.7594 95.1318 75.7685 96.0182 76.0829C96.9006 76.3923 98.0558 77.0475 99.0842 78.0414C100.121 79.0262 100.839 80.1074 101.263 80.9269C101.687 81.7504 101.821 82.3204 101.711 82.3681C101.601 82.4178 101.279 81.9614 100.742 81.2534C100.205 80.5475 99.4503 79.5871 98.4848 78.6702C97.5263 77.7442 96.5263 77.0718 95.7636 76.6418C95.0009 76.2107 94.4837 75.9917 94.5172 75.8659Z" fill="#115ACE"/>
<path d="M120.069 49.2148L122.62 56.7748L113.974 58.145L110.566 53.5851L120.069 49.2148Z" fill="#FCA993"/>
<path d="M122.278 53.9985C119.372 53.4316 112.438 56.3444 112.393 57.0107C112.347 57.6771 113.137 58.8891 113.916 59.6041C113.916 59.6041 122.112 60.0067 123.586 58.0311C123.314 55.8119 122.278 53.9985 122.278 53.9985Z" fill="#1965F2"/>
<path d="M103.227 37.3089C103.227 37.3089 102.881 44.1782 102.421 45.0667C101.96 45.9551 101.27 46.5748 101.641 47.0535C102.013 47.5322 102.385 47.6377 102.385 47.6377C102.385 47.6377 102.517 51.6135 104.381 53.8316C105.781 55.4979 116.273 54.9665 118.537 53.3244C120.8 51.6824 120.616 40.4266 119.671 38.4418C118.726 36.458 106.23 34.8991 103.227 37.3089Z" fill="#FCA993"/>
<path d="M111.296 54.8118C111.301 54.8423 111.209 54.8849 111.033 54.9356C110.946 54.9609 110.838 54.9883 110.711 55.0167C110.584 55.04 110.438 55.0573 110.277 55.0786C109.631 55.1557 108.723 55.1486 107.745 54.9914C106.765 54.8372 105.908 54.5684 105.307 54.3352C104.706 54.0978 104.359 53.8879 104.384 53.8311C104.431 53.7145 105.919 54.2388 107.818 54.5431C108.767 54.6952 109.633 54.751 110.262 54.7581C110.419 54.7601 110.562 54.7621 110.687 54.7642C110.812 54.7601 110.921 54.7581 111.011 54.7601C111.187 54.7652 111.29 54.7814 111.296 54.8118Z" fill="#D8776A"/>
<path d="M122.929 44.9927C121.337 46.5576 123.166 49.3863 122.512 50.4056C121.225 52.4188 118.196 51.9097 115.66 52.3864C114.848 52.5385 114.029 52.431 113.257 52.1642C110.38 51.1876 108.068 48.0536 108.64 47.9573C110.882 47.6692 110.327 44.3233 109.286 43.9673C108.244 43.6154 107.787 45.7534 107.509 45.512C107.229 45.2665 107.484 44.1276 106.86 43.6408C106.239 43.1549 105.285 43.227 103.748 43.3152C103.518 43.3284 103.153 43.2959 102.706 43.2168C100.204 42.7685 95.1324 40.8233 96.6081 36.9996C96.6203 36.9621 96.6355 36.9246 96.6507 36.8881C98.5503 32.3028 102.472 32.3961 102.472 32.3961C102.472 32.3961 101.446 28.0613 103.431 26.6932C107.642 23.8016 115.21 29.7307 115.21 29.7307C115.21 29.7307 113.265 26.3595 115.297 26.2966C122.446 27.0613 124.118 36.0382 122.174 38.3922C122.174 38.3922 123.164 38.6417 124.185 39.7411C124.365 39.9378 124.508 40.1569 124.606 40.3963C125.134 41.6549 124.532 43.4207 122.929 44.9927Z" fill="#070E3F"/>
<path d="M102.583 49.8345C102.517 49.9542 103.083 50.4714 103.975 50.3984C104.854 50.3457 105.581 49.872 105.567 49.7432C105.559 49.6103 104.867 49.8436 104.053 49.8903C103.234 49.9582 102.646 49.6976 102.583 49.8345ZM103.665 45.8293C103.594 46.2016 103.34 46.4673 103.099 46.4206C102.856 46.375 102.718 46.0352 102.788 45.663C102.859 45.2908 103.113 45.0251 103.354 45.0717C103.597 45.1174 103.736 45.4561 103.665 45.8293Z" fill="#070E3F"/>
<path d="M103.831 45.4821C103.823 45.5115 103.809 45.539 103.79 45.563C103.771 45.5871 103.748 45.6071 103.721 45.6221C103.695 45.6371 103.666 45.6467 103.635 45.6503C103.605 45.654 103.574 45.6516 103.545 45.6434C103.515 45.6352 103.488 45.6214 103.464 45.6026C103.44 45.5838 103.42 45.5604 103.405 45.5339C103.39 45.5073 103.38 45.478 103.377 45.4477C103.373 45.4175 103.375 45.3868 103.384 45.3574C103.418 45.2337 103.546 45.1616 103.67 45.1961C103.792 45.2306 103.865 45.3584 103.831 45.4821Z" fill="white"/>
<path d="M104.066 44.2753C104.001 44.0197 103.193 43.8209 103.009 44.1302C102.826 44.4386 102.891 44.6252 103.259 44.6252C103.625 44.6242 104.118 44.4791 104.066 44.2753Z" fill="#070E3F"/>
<path d="M107.718 48.3966C109.964 49.631 111.327 44.5173 109.302 43.788C108.718 43.5771 107.583 43.5467 107.365 44.7018C107.129 45.9473 107.226 48.1269 107.718 48.3966Z" fill="#FCA993"/>
<path d="M109.015 44.7461C108.572 45.1366 107.8 46.4135 108.428 47.2958C108.428 47.2958 108.38 46.6762 108.682 46.2755L109.484 45.8374H108.652L109.015 44.7461Z" fill="#070E3F"/>
<path d="M166.612 148.523C164.945 144.711 163.22 140.769 162.92 136.496C162.657 132.746 163.742 127.776 167.574 125.073C170.311 123.144 173.733 122.846 177.042 122.557C180.168 122.284 183.4 122.002 185.959 120.323C189.885 117.746 191.1 112.565 190.927 108.575C190.767 104.875 189.592 101.651 187.614 99.4761C186.965 101.464 185.865 103.01 184.573 103.706C182.95 104.582 181.27 104.027 179.963 102.185C179.356 101.329 179.147 99.187 180.201 97.7783C180.857 96.901 182.198 96.047 184.858 96.9618C185.809 97.2884 186.578 97.6677 187.211 98.1272C187.708 95.8766 187.64 93.124 186.551 90.3309C183.979 83.7395 175.511 79.5883 169.939 80.4149L169.831 79.6877C172.714 79.2597 176.402 80.1015 179.697 81.9403C183.299 83.9494 185.976 86.8339 187.236 90.0641C188.298 92.7863 188.53 95.7813 187.89 98.4964L187.851 98.6617C187.919 98.7266 187.985 98.7935 188.049 98.8615C190.817 101.814 191.543 105.756 191.663 108.544C191.77 111.003 191.395 113.408 190.58 115.503C189.667 117.849 188.209 119.729 186.364 120.94C183.65 122.721 180.324 123.011 177.108 123.291C173.748 123.584 170.574 123.861 167.999 125.675C164.416 128.202 163.405 132.896 163.655 136.446C163.946 140.594 165.644 144.476 167.286 148.231L166.612 148.523ZM182.796 97.3077C181.923 97.3077 181.243 97.613 180.791 98.2174C179.975 99.3067 180.09 101.089 180.565 101.758C181.648 103.284 182.947 103.747 184.225 103.058C185.356 102.449 186.418 100.928 187.013 98.9C186.4 98.403 185.625 98.0014 184.62 97.6556C183.944 97.4233 183.333 97.3077 182.796 97.3077Z" fill="#9898B7"/>
<path d="M168.626 148.608L167.747 148.871L169.597 155.048L175.741 153.207L175.467 152.294C174.596 149.388 171.534 147.736 168.626 148.608ZM167.068 149.074L166.13 149.355C163.224 150.226 161.572 153.288 162.444 156.196L162.717 157.109L168.919 155.251L167.068 149.074Z" fill="#B8B8D1"/>
<path d="M162.922 157.786L165.735 169.928C166.205 171.956 168.287 173.147 170.37 172.522L177.827 170.288C179.91 169.664 180.994 167.525 180.272 165.573L175.946 153.883L162.922 157.786Z" fill="#D9D9E7"/>
<path d="M226.039 71.8154L225.486 67.6257C225.486 67.6257 223.192 67.1794 221.181 67.8509C221.181 67.8509 224.103 66.4178 225.14 66.6429L225.015 65.7656C225.015 65.7656 215.64 67.8103 213.475 69.8245L212.793 73.8591L226.039 71.8154Z" fill="#D9D9E7"/>
<path d="M202.133 61.7669L205.651 57.8398C205.651 57.8398 214.071 65.8572 214.268 69.7671L213.392 72.617L202.133 61.7669Z" fill="#E9E9F2"/>
<path d="M213.39 72.618L199.793 88.0108C199.793 88.0108 197.234 79.4792 189.398 76.2661L202.623 59.6035C202.623 59.6045 211.523 66.0529 213.39 72.618Z" fill="#1996F2"/>
<path d="M213.389 72.6177C213.389 72.6177 221.186 68.1805 227.535 71.8794L211.604 87.0257C211.604 87.0257 204.585 85.2944 199.793 88.0115L213.389 72.6177ZM210.357 71.8175L206.887 75.6411C206.887 75.6411 202.468 69.8509 198.988 67.7099L202.277 63.582C202.278 63.582 206.94 66.363 210.357 71.8175Z" fill="#1965F2"/>
<path d="M94.6494 211.757C94.6494 211.757 102.697 207.645 112.484 196.126L84.0406 182.027C84.0406 182.027 76.9807 197.489 69.8477 199.204L94.6494 211.757Z" fill="#FCA993"/>
<path d="M109.375 186.773L109.703 191.656C109.703 191.656 109.056 195.824 106.544 197.888C106.544 197.888 109.21 196.571 110.232 194.304L110.516 196.37C110.516 196.37 96.8259 210.725 93.5043 210.22L91.3633 205.994L109.375 186.773Z" fill="#E9E9F2"/>
<path d="M93.5058 210.219L69.4079 198.074L68.3633 195.466L107.837 188.855C107.837 188.855 99.8223 210.244 93.5058 210.219Z" fill="#D9D9E7"/>
<path d="M92.7851 207.829C92.7851 207.829 104.402 205.075 109.521 186.255L82.1773 178.1C82.1773 178.1 75.1174 193.561 67.9844 195.276L92.7851 207.829Z" fill="#EA907F"/>
<path d="M94.6492 211.759L92.7851 207.83L67.9844 195.277L69.8485 199.206L94.6492 211.759Z" fill="#D8776A"/>
<path d="M70.4933 198.753L69.6211 196.914L77.2186 200.754L77.82 202.601L70.4933 198.753ZM92.4704 209.782C92.4309 209.698 91.5921 207.929 91.5921 207.929L78.6669 201.341L79.1162 203.086L92.4704 209.782Z" fill="#EA907F"/>
<path d="M42.7128 110.458L42.584 108.132L21.8473 106.199L4.55078 122.124L6.07312 123.493L25.3737 118.703L26.4934 118.292L42.7128 110.458Z" fill="#F4B442"/>
<path d="M34.3809 90.7227L18.7305 97.7289L24.9446 115.927L42.9784 108.404L34.3809 90.7227Z" fill="#FFCD5C"/>
<path d="M25.1465 115.9C25.1465 115.9 33.2268 105.779 40.227 106.967L40.159 106.216C40.159 106.216 37.2391 105.954 36.448 106.282C36.448 106.282 39.5525 105.555 40.0292 105.667L39.8273 104.996C39.8273 104.996 29.8444 102.76 27.3007 105.421C24.7561 108.085 25.1465 115.9 25.1465 115.9Z" fill="#C8C8DC"/>
<path d="M19.0363 99.1869L24.9471 115.927C24.9471 115.927 29.7403 104.194 39.9758 105.006L31.2505 88.4453C31.2505 88.4453 16.6539 92.4403 19.0363 99.1869Z" fill="#E9E9F2"/>
<path d="M30.1266 91.881C30.1459 91.9479 29.5465 92.0686 28.6205 92.3769C27.6945 92.6832 26.4531 93.2177 25.1995 94.0686C23.949 94.9246 22.9348 95.9277 22.2441 96.7228C21.5524 97.517 21.1619 98.0707 21.1234 98.017C21.1062 97.9947 21.1863 97.8324 21.3465 97.5575C21.5037 97.2796 21.7542 96.9074 22.0828 96.4754C22.738 95.6092 23.7441 94.5484 25.0129 93.6802C26.2837 92.8171 27.5617 92.3201 28.5221 92.0858C29.0018 91.9672 29.3994 91.8982 29.6804 91.8759C29.9603 91.8536 30.1185 91.8526 30.1266 91.881ZM34.6957 101.729C34.7149 101.796 34.1155 101.917 33.1896 102.225C32.2636 102.531 31.0222 103.066 29.7686 103.917C28.5181 104.773 27.5038 105.776 26.8132 106.571C26.1215 107.365 25.731 107.919 25.6924 107.865C25.6752 107.843 25.7553 107.68 25.9156 107.406C26.0728 107.128 26.3233 106.755 26.6519 106.323C27.3071 105.457 28.3132 104.396 29.582 103.528C30.8528 102.665 32.1307 102.168 33.0912 101.934C33.5709 101.815 33.9685 101.746 34.2494 101.724C34.5293 101.701 34.6876 101.701 34.6957 101.729ZM30.6479 93.5047C30.6723 93.5625 30.1844 93.8597 29.4025 94.3465C28.6205 94.8333 27.5485 95.522 26.4014 96.3577C25.2543 97.1944 24.2502 98.019 23.5291 98.6285C22.808 99.2381 22.3638 99.6205 22.3323 99.5667C22.3039 99.519 22.6964 99.0444 23.3821 98.3659C24.0677 97.6863 25.0555 96.8151 26.2087 95.9733C27.3629 95.1336 28.4613 94.4834 29.2787 94.0666C30.0962 93.6498 30.6256 93.452 30.6479 93.5047ZM32.6419 98.7229C32.6662 98.7807 32.1784 99.0778 31.3964 99.5647C30.6145 100.051 29.5424 100.74 28.3953 101.576C27.2483 102.413 26.2442 103.237 25.5231 103.847C24.802 104.456 24.3577 104.839 24.3263 104.785C24.2979 104.737 24.6904 104.263 25.376 103.584C26.0616 102.904 27.0495 102.033 28.2026 101.191C29.3568 100.352 30.4552 99.7016 31.2727 99.2848C32.0901 98.8689 32.6196 98.6712 32.6419 98.7229ZM31.4208 95.6944C31.4471 95.7492 30.9938 96.1194 30.2534 96.6975C29.4948 97.2928 28.4826 98.0859 27.3629 98.9643C26.2564 99.8649 25.2553 100.679 24.5038 101.291C23.7725 101.888 23.3141 102.247 23.2847 102.196C23.2563 102.146 23.664 101.695 24.3587 101.028C25.0535 100.362 26.0393 99.4856 27.1651 98.586C28.2909 97.6874 29.3416 96.9358 30.1185 96.4267C30.8954 95.9155 31.3954 95.6427 31.4208 95.6944Z" fill="#C8C8DC"/>
<path d="M25.1447 115.899L4.55303 122.123L0.257812 102.91L18.4458 97.873L25.1447 115.899Z" fill="#FFCD5C"/>
<path d="M5.69141 120.366C5.69141 120.366 16.6247 113.499 25.1451 115.899C25.1451 115.899 19.4168 108.892 10.6347 109.902C6.99265 110.322 5.69141 120.366 5.69141 120.366Z" fill="#C8C8DC"/>
<path d="M2.93105 98.582L2.22313 100.566L2.52942 102.252L2.10345 101.336L1.60547 103.272L5.69074 120.366L7.96969 114.852L2.93105 98.582Z" fill="#D9D9E7"/>
<path d="M19.1714 99.182L25.1431 115.9C25.1431 115.9 15.1764 108.337 7.75331 115.443L2.92969 98.5826C2.92969 98.5826 16.7636 92.4436 19.1714 99.182Z" fill="#E9E9F2"/>
<path d="M6.09068 100.998C6.11908 101.061 6.65459 100.766 7.56028 100.4C8.46497 100.034 9.75708 99.6377 11.2622 99.4744C12.7693 99.3172 14.1923 99.4247 15.2328 99.5829C16.2745 99.7401 16.9296 99.9095 16.9256 99.8436C16.9236 99.8152 16.7572 99.7442 16.458 99.6377C16.1578 99.5282 15.7268 99.4064 15.1963 99.2898C14.1355 99.0535 12.6821 98.8973 11.1537 99.0576C9.62726 99.2229 8.33109 99.6722 7.44669 100.115C7.00348 100.335 6.65661 100.54 6.42842 100.706C6.1992 100.869 6.07851 100.971 6.09068 100.998ZM8.98729 111.46C9.01569 111.523 9.5512 111.228 10.4569 110.863C11.3616 110.497 12.6537 110.1 14.1588 109.937C15.6659 109.78 17.0889 109.887 18.1295 110.046C19.1711 110.203 19.8262 110.372 19.8222 110.306C19.8202 110.278 19.6538 110.207 19.3546 110.1C19.0544 109.991 18.6234 109.869 18.0929 109.752C17.0321 109.516 15.5787 109.36 14.0503 109.52C12.5239 109.686 11.2277 110.135 10.3433 110.578C9.90009 110.798 9.55322 111.003 9.32502 111.168C9.0948 111.332 8.97411 111.434 8.98729 111.46ZM6.74485 102.572C6.76412 102.632 7.32701 102.542 8.2388 102.407C9.14957 102.271 10.4133 102.102 11.8281 101.996C13.244 101.891 14.5432 101.869 15.4874 101.866C16.4317 101.863 17.0179 101.867 17.0067 101.806C16.9976 101.752 16.3921 101.644 15.4286 101.571C14.4661 101.498 13.1486 101.473 11.7247 101.579C10.3017 101.686 9.04307 101.902 8.15056 102.113C7.25906 102.325 6.72761 102.518 6.74485 102.572ZM8.60493 107.841C8.6242 107.901 9.18709 107.811 10.0989 107.675C11.0096 107.539 12.2734 107.371 13.6882 107.265C15.104 107.16 16.4033 107.138 17.3475 107.135C18.2917 107.132 18.878 107.136 18.8668 107.075C18.8577 107.021 18.2522 106.913 17.2887 106.84C16.3262 106.767 15.0087 106.742 13.5847 106.848C12.1618 106.955 10.9031 107.171 10.0106 107.382C9.12015 107.594 8.5887 107.787 8.60493 107.841ZM7.57448 104.742C7.5897 104.801 8.1749 104.79 9.11407 104.75C10.0776 104.713 11.3636 104.662 12.7835 104.605C14.2105 104.575 15.5006 104.548 16.4682 104.527C17.4124 104.51 17.9946 104.486 17.9824 104.427C17.9712 104.371 17.3688 104.291 16.4073 104.233C15.4458 104.175 14.1274 104.146 12.6882 104.19C11.249 104.233 9.96094 104.342 9.03901 104.456C8.1181 104.57 7.55927 104.685 7.57448 104.742Z" fill="#C8C8DC"/>
<path d="M19.1714 99.181C18.6338 97.6769 17.5253 96.8168 16.1287 96.3848C16.6794 97.6678 17.2048 98.9751 17.4026 100.367C17.6095 101.823 17.4431 103.357 16.9705 104.776C16.5851 105.934 15.9076 106.992 15.0202 107.871C14.6358 108.252 14.1885 108.416 13.6966 108.633C13.1865 108.86 13.1165 109.233 13.08 109.747C13.0404 110.294 13.0729 110.839 12.865 111.366C12.6591 111.888 12.3011 112.384 11.9116 112.799C11.8507 112.864 11.7787 112.921 11.7148 112.983C18.288 110.708 25.1421 115.9 25.1421 115.9L19.1714 99.181Z" fill="#D9D9E7"/>
<path d="M25.1371 115.857L25.5499 115.705C25.5499 115.705 23.992 110.515 23.4454 110.37C22.8987 110.225 25.1371 115.857 25.1371 115.857Z" fill="#C8C8DC"/>
<path d="M137.872 9.46015C138.062 9.67212 138.243 9.98856 138.429 10.3841C138.622 10.7766 138.803 11.2513 139.15 11.7533C139.317 11.9998 139.561 12.2655 139.915 12.4166C140.263 12.5687 140.698 12.5829 141.077 12.3912C141.835 11.9825 142.115 11.2188 142.45 10.588C142.762 9.94393 143.146 9.24717 143.679 9.25731C144.217 9.1995 144.633 9.92466 145.009 10.6701C145.207 11.0474 145.404 11.443 145.705 11.8152C145.983 12.1833 146.504 12.5383 147.047 12.4967C147.592 12.4927 148.06 12.1225 148.307 11.7736C148.576 11.4176 148.737 11.0555 148.897 10.7188C149.204 10.0525 149.491 9.40741 149.91 9.17718C150.341 8.93986 150.817 9.15487 151.114 9.56563C151.728 10.3861 152.071 11.3212 152.617 11.7421C152.872 11.9673 153.144 12.0464 153.316 12.0545C153.494 12.0495 153.579 12.0312 153.578 12.0038C153.59 11.9206 153.199 11.9693 152.825 11.519C152.635 11.307 152.454 10.9896 152.27 10.594C152.077 10.2015 151.896 9.72588 151.549 9.22485C151.382 8.9784 151.138 8.71166 150.783 8.56156C150.434 8.41145 149.999 8.39725 149.621 8.59097C148.866 9.00375 148.588 9.76645 148.253 10.3973C147.941 11.0413 147.557 11.7371 147.024 11.7229C146.486 11.7736 146.072 11.0484 145.695 10.302C145.498 9.92365 145.3 9.52811 144.998 9.1569C144.845 8.9713 144.655 8.7999 144.426 8.66298C144.304 8.6072 144.175 8.55547 144.047 8.51896C143.915 8.50374 143.782 8.48143 143.65 8.48346C143.105 8.49157 142.642 8.86278 142.394 9.21167C142.126 9.56766 141.965 9.92974 141.805 10.2665C141.499 10.9318 141.211 11.5778 140.79 11.804C140.358 12.0413 139.882 11.8223 139.584 11.4125C138.97 10.592 138.626 9.65691 138.079 9.23702C137.823 9.01187 137.552 8.93377 137.38 8.92566C137.202 8.93073 137.117 8.94899 137.118 8.97637C137.107 9.05954 137.497 9.01085 137.872 9.46015ZM93.3363 226.196C93.173 225.997 93.0229 225.705 92.8728 225.341C92.7146 224.98 92.5726 224.543 92.2795 224.077C92.1386 223.848 91.9286 223.598 91.6152 223.448C91.3079 223.297 90.9195 223.265 90.5696 223.418C89.8657 223.745 89.5756 224.422 89.244 224.972C88.9316 225.537 88.5543 226.142 88.0726 226.107C87.5827 226.135 87.2389 225.469 86.9316 224.781C86.7693 224.432 86.607 224.068 86.3504 223.72C86.1131 223.376 85.6577 223.038 85.1688 223.051C84.68 223.028 84.2408 223.337 83.9994 223.639C83.7398 223.946 83.5775 224.265 83.4173 224.56C83.11 225.145 82.8199 225.71 82.4315 225.894C82.0319 226.086 81.611 225.874 81.3604 225.493C80.8412 224.73 80.5714 223.871 80.0947 223.47C79.8736 223.257 79.6322 223.176 79.477 223.161C79.3168 223.158 79.2397 223.17 79.2387 223.196C79.2245 223.271 79.5774 223.245 79.8969 223.664C80.0602 223.863 80.2093 224.155 80.3594 224.519C80.5166 224.88 80.6596 225.316 80.9527 225.783C81.0937 226.012 81.3037 226.263 81.6181 226.412C81.9264 226.561 82.3158 226.593 82.6637 226.439C83.3656 226.107 83.6536 225.433 83.9842 224.881C84.2966 224.316 84.6739 223.713 85.1557 223.751C85.6435 223.73 85.9873 224.396 86.2946 225.085C86.4569 225.434 86.6192 225.799 86.8768 226.146C87.0066 226.319 87.1719 226.482 87.3727 226.614C87.4802 226.667 87.5938 226.721 87.7074 226.759C87.8261 226.779 87.9447 226.804 88.0624 226.808C88.5513 226.826 88.9874 226.517 89.2277 226.216C89.4864 225.909 89.6496 225.59 89.8099 225.296C90.1172 224.712 90.4073 224.147 90.7978 223.964C91.1984 223.773 91.6183 223.988 91.8698 224.369C92.3891 225.132 92.6599 225.991 93.1376 226.39C93.3597 226.602 93.6 226.684 93.7552 226.699C93.9155 226.702 93.9925 226.689 93.9935 226.664C94.0088 226.589 93.6558 226.615 93.3363 226.196Z" fill="#B8B8D1"/>
<path d="M154.931 158.926C154.204 158.671 153.628 158.087 153.377 157.349C153.368 157.319 153.35 157.294 153.325 157.275C153.301 157.257 153.271 157.247 153.24 157.247C153.209 157.247 153.18 157.257 153.155 157.275C153.13 157.294 153.112 157.319 153.103 157.349C152.852 158.087 152.276 158.671 151.547 158.926C151.518 158.936 151.493 158.954 151.475 158.979C151.457 159.004 151.447 159.034 151.447 159.065C151.447 159.096 151.457 159.126 151.475 159.151C151.493 159.175 151.518 159.194 151.547 159.204C152.276 159.459 152.852 160.044 153.103 160.783C153.112 160.812 153.13 160.838 153.155 160.856C153.18 160.874 153.21 160.884 153.24 160.884C153.271 160.884 153.301 160.874 153.325 160.856C153.35 160.838 153.368 160.812 153.377 160.783C153.629 160.045 154.204 159.459 154.931 159.204C155.064 159.157 155.064 158.973 154.931 158.926ZM110.984 1.95423C110.257 1.69966 109.68 1.11547 109.43 0.377122C109.421 0.347707 109.403 0.321929 109.378 0.303606C109.354 0.285283 109.324 0.275391 109.293 0.275391C109.262 0.275391 109.232 0.285283 109.208 0.303606C109.183 0.321929 109.165 0.347707 109.156 0.377122C108.905 1.11547 108.329 1.69966 107.6 1.95423C107.571 1.9639 107.546 1.98253 107.528 2.00747C107.51 2.03242 107.5 2.06241 107.5 2.09318C107.5 2.12396 107.51 2.15394 107.528 2.17889C107.546 2.20383 107.571 2.22246 107.6 2.23213C108.329 2.48771 108.905 3.0719 109.156 3.81126C109.165 3.84057 109.183 3.86622 109.208 3.88445C109.233 3.90267 109.262 3.9125 109.293 3.9125C109.324 3.9125 109.354 3.90267 109.378 3.88445C109.403 3.86622 109.421 3.84057 109.43 3.81126C109.681 3.07291 110.257 2.48771 110.984 2.23213C111.118 2.18649 111.118 2.00088 110.984 1.95423ZM27.476 64.6725C26.7488 64.4179 26.1727 63.8337 25.9222 63.0954C25.9134 63.066 25.8953 63.0402 25.8706 63.0219C25.8459 63.0036 25.816 62.9937 25.7853 62.9937C25.7546 62.9937 25.7247 63.0036 25.7 63.0219C25.6754 63.0402 25.6573 63.066 25.6484 63.0954C25.3969 63.8337 24.8208 64.4179 24.0926 64.6725C24.0634 64.6822 24.0379 64.7008 24.0199 64.7257C24.0019 64.7507 23.9922 64.7807 23.9922 64.8115C23.9922 64.8422 24.0019 64.8722 24.0199 64.8972C24.0379 64.9221 24.0634 64.9407 24.0926 64.9504C24.8208 65.206 25.3969 65.7902 25.6484 66.5295C25.6574 66.5588 25.6755 66.5845 25.7002 66.6027C25.7248 66.6209 25.7547 66.6308 25.7853 66.6308C25.816 66.6308 25.8458 66.6209 25.8705 66.6027C25.8951 66.5845 25.9132 66.5588 25.9222 66.5295C26.1738 65.7912 26.7488 65.206 27.476 64.9504C27.6089 64.9037 27.6089 64.7192 27.476 64.6725ZM191.348 48.161C190.512 47.8679 189.85 47.1965 189.561 46.3476C189.551 46.3138 189.53 46.2842 189.502 46.2632C189.473 46.2422 189.439 46.2309 189.404 46.2309C189.368 46.2309 189.334 46.2422 189.306 46.2632C189.277 46.2842 189.256 46.3138 189.246 46.3476C188.957 47.1965 188.294 47.8679 187.457 48.161C187.304 48.2148 187.304 48.4278 187.457 48.4805C188.294 48.7736 188.957 49.447 189.246 50.2959C189.256 50.3297 189.277 50.3592 189.306 50.3801C189.334 50.4011 189.368 50.4124 189.404 50.4124C189.439 50.4124 189.473 50.4011 189.502 50.3801C189.53 50.3592 189.551 50.3297 189.561 50.2959C189.85 49.447 190.512 48.7736 191.348 48.4805C191.502 48.4267 191.502 48.2148 191.348 48.161Z" fill="#C8C8DC"/>
<path d="M48.5162 133.491C47.8691 133.265 47.3569 132.745 47.1338 132.089C47.0932 131.968 46.9309 131.968 46.8904 132.089C46.6662 132.745 46.154 133.265 45.507 133.491C45.3883 133.533 45.3883 133.697 45.507 133.739C46.154 133.966 46.6672 134.486 46.8914 135.143C46.9319 135.264 47.0942 135.264 47.1348 135.143C47.3579 134.486 47.8701 133.966 48.5172 133.739C48.6348 133.697 48.6348 133.533 48.5162 133.491Z" fill="#D9D9E7"/>
<path d="M85.8376 151.841C85.9715 151.866 85.9999 152.531 85.7484 153.565C85.5111 154.599 84.9451 156.001 83.9644 157.322C82.9968 158.653 81.8426 159.622 80.9308 160.175C80.0221 160.739 79.3578 160.901 79.2949 160.763C79.1529 160.497 81.2919 159.136 83.0637 156.668C84.8843 154.241 85.4847 151.763 85.8376 151.841ZM87.7149 149.286C87.787 149.258 87.9016 149.374 88.0476 149.613C88.1835 149.855 88.4006 150.208 88.5243 150.696C88.8458 151.641 89.0182 153.107 88.6186 154.643C88.2444 156.187 87.4198 157.399 86.7251 158.129C86.0232 158.868 85.439 159.157 85.3467 159.039C85.2463 158.918 85.6115 158.446 86.1034 157.648C86.5932 156.852 87.2099 155.728 87.5324 154.386C87.8803 153.051 87.8549 151.783 87.7494 150.865C87.7342 150.398 87.6399 150.03 87.6348 149.755C87.6176 149.482 87.6429 149.315 87.7149 149.286ZM51.8217 157.073C51.8704 156.803 49.6696 156.426 46.5458 154.863C43.426 153.316 39.5314 150.342 36.2302 146.135C32.9116 141.946 30.7625 137.521 29.6448 134.217C29.089 132.56 28.7899 131.177 28.659 130.213C28.5292 129.249 28.5383 128.699 28.4116 128.676C28.3132 128.655 28.0779 129.198 28.0089 130.236C27.941 131.27 28.0748 132.768 28.5089 134.547C29.3822 138.092 31.4512 142.793 34.9198 147.174C38.3661 151.573 42.641 154.598 46.0569 155.939C49.489 157.304 51.8116 157.257 51.8217 157.073Z" fill="#C8C8DC"/>
</svg>
