<svg width="21" height="21" viewBox="0 0 21 21" fill="none" xmlns="http://www.w3.org/2000/svg">
<path d="M7.90664 17.8632C7.9066 17.8684 7.90625 17.8736 7.90625 17.8788C7.90625 19.1884 8.96792 20.2501 10.2776 20.2501C11.5872 20.2501 12.6489 19.1884 12.6489 17.8788C12.6489 17.8736 12.6485 17.8684 12.6485 17.8632H7.90664Z" fill="#8492A6"/>
<path d="M17.8485 14.8991L15.7143 11.764C15.7143 10.8043 15.7143 8.45931 15.7143 7.85269C15.7143 5.21492 13.8358 3.01617 11.3436 2.52067V1.31623C11.3436 0.727465 10.8663 0.250122 10.2774 0.250122C9.68863 0.250122 9.21133 0.727465 9.21133 1.31623V2.52071C6.71916 3.01626 4.84062 5.21501 4.84062 7.85274C4.84062 8.88536 4.84062 11.1655 4.84062 11.7641L2.70644 14.8991C2.48163 15.2293 2.45786 15.6568 2.64465 16.0099C2.83145 16.363 3.19815 16.5839 3.59764 16.5839H16.9572C17.3567 16.5839 17.7234 16.363 17.9102 16.0099C18.0971 15.6567 18.0733 15.2293 17.8485 14.8991Z" fill="#8492A6"/>
</svg>
