<svg width="24" height="20" viewBox="0 0 24 20" fill="none" xmlns="http://www.w3.org/2000/svg">
<path d="M22.2045 1.0138C22.9419 0.972834 23.5974 1.54638 23.5564 2.24283V16.0899C23.5564 16.7454 23.0238 17.3189 22.3274 17.3599C20.32 17.4418 16.2232 17.8515 13.3964 19.2854C12.9458 19.4902 12.4132 19.2034 12.4132 18.7118V3.7996C12.4132 3.59476 12.5361 3.38993 12.7409 3.26702C15.4858 1.58735 19.9513 1.1367 22.2045 1.0138ZM10.8155 3.26702C11.0203 3.38993 11.1432 3.59476 11.1432 3.7996V18.7118C11.1432 19.2034 10.6106 19.4902 10.16 19.2854C7.33321 17.8515 3.23645 17.4418 1.22903 17.3599C0.53258 17.3189 0 16.7454 0 16.0899V2.24283C0 1.54638 0.614515 0.972834 1.35193 1.0138C3.60515 1.1367 8.07063 1.58735 10.8155 3.26702Z" fill="white"/>
</svg>
