<svg id="Layer_1" data-name="Layer 1" xmlns="http://www.w3.org/2000/svg" viewBox="0 0 14 14"><defs><style>.cls-1{fill:#8b8b8b;}</style></defs><title>calendar</title><path class="cls-1" d="M4.35358,1.87761a.56477.56477,0,0,0-.28793.26559c-.0422.08439-.04716.15141-.04716.68507v.59324L3.604,3.43392a1.64039,1.64039,0,0,0-.60564.07694,1.58806,1.58806,0,0,0-.63791.39218,1.50606,1.50606,0,0,0-.39218.63047,1.65636,1.65636,0,0,0-.07943.61309l-.01241.417H12.5149L12.5,5.1466a1.55026,1.55026,0,0,0-.1787-.8489,1.57559,1.57559,0,0,0-.9184-.78435,1.65691,1.65691,0,0,0-.6131-.07943l-.417-.01241V2.82827c0-.53862-.005-.60068-.04718-.68755a.54575.54575,0,0,0-.93329-.05709l-.07446.10921-.00745.61806L9.303,3.429H5.08829l-.00744-.618L5.0734,2.19284l-.07446-.10921A.57965.57965,0,0,0,4.35358,1.87761Z"/><path class="cls-1" d="M1.8897,8.88517l.00745,2.27857.067.1886a1.63264,1.63264,0,0,0,1.10207,1.0574,39.005,39.005,0,0,0,4.13029.0447,39.1557,39.1557,0,0,0,4.13277-.0447,1.66124,1.66124,0,0,0,1.1195-1.1095,14.46617,14.46617,0,0,0,.0546-2.41507L12.5108,6.609H1.88226Z"/></svg>