<svg id="Layer_1" data-name="Layer 1" xmlns="http://www.w3.org/2000/svg" viewBox="0 0 26 26"><defs><style>.cls-1{fill:#666;fill-opacity:0.4;}</style></defs><title>call</title><path class="cls-1" d="M21.2537,16.5268l-2.8418-1.7461a1.66093,1.66093,0,0,0-2.0215.1464l-.0351.0352L15.0017,16.433l-.0175.0176a.49033.49033,0,0,1-.3282-.0703,12.491,12.491,0,0,1-2.7597-2.0801A12.41988,12.41988,0,0,1,9.90409,11.476c-.07031-.1582-.082-.2871-.0293-.3516l1.5-1.30077a.25293.25293,0,0,1,.041-.03516,1.66641,1.66641,0,0,0,.2168-2.00976L9.9744,4.87246a1.41885,1.41885,0,0,0-1.29492-.791,5.91169,5.91169,0,0,0-2.0918.48047C3.98612,5.89785,4.46073,9.20253,4.47831,9.34316a.03523.03523,0,0,0,.00586.02344A16.38489,16.38489,0,0,0,16.6014,21.8822c.0058,0,.0117.0059.0234.0059a5.98226,5.98226,0,0,0,.9258.0703,4.26889,4.26889,0,0,0,3.914-2.0449,6.05175,6.05175,0,0,0,.5391-2.0801A1.40072,1.40072,0,0,0,21.2537,16.5268ZM9.87479,11.142l-.01171.0117A.01254.01254,0,0,1,9.87479,11.142Z"/></svg>