<svg width="26" height="26" viewBox="0 0 26 26" fill="none" xmlns="http://www.w3.org/2000/svg">
<path d="M21.2537 16.5268L18.4119 14.7807C17.8728 14.4408 17.0115 14.3412 16.3904 14.9271C16.3787 14.9389 16.367 14.9506 16.3553 14.9623L15.0017 16.433C14.9959 16.4389 14.99 16.4447 14.9842 16.4506C14.9842 16.4506 14.867 16.4857 14.656 16.3803C14.6443 16.3744 13.367 15.7299 11.8963 14.3002C10.5135 12.7885 9.90995 11.4877 9.90409 11.476C9.83378 11.3178 9.82206 11.1889 9.87479 11.1244L11.3748 9.82363C11.3865 9.81191 11.3982 9.80019 11.4158 9.78847C12.0193 9.18496 11.949 8.31777 11.6326 7.77871L9.9744 4.87246C9.6287 4.21035 9.00175 4.06386 8.67948 4.08144C7.39042 4.18105 6.67558 4.51503 6.58768 4.56191C3.98612 5.89785 4.46073 9.20253 4.47831 9.34316C4.47831 9.34902 4.47831 9.36074 4.48417 9.3666C5.32206 13.9311 8.43925 17.0717 8.74394 17.3705C9.03104 17.6811 12.0721 20.8978 16.6014 21.8822C16.6072 21.8822 16.6131 21.8881 16.6248 21.8881C16.6717 21.8939 17.035 21.9584 17.5506 21.9584C18.6639 21.9584 20.4978 21.6654 21.4646 19.9135C21.5057 19.8373 21.8631 19.1342 22.0037 17.8334C22.033 17.5228 21.91 16.8959 21.2537 16.5268ZM9.87479 11.142C9.87479 11.142 9.86893 11.1478 9.86308 11.1537C9.86308 11.1478 9.86893 11.142 9.87479 11.142Z" fill="#666666" fill-opacity="0.4"/>
</svg>
