<svg width="9" height="6" viewBox="0 0 9 6" fill="none" xmlns="http://www.w3.org/2000/svg">
<path d="M8.17969 5.46106C8.0612 5.57043 7.92448 5.62512 7.76953 5.62512C7.61458 5.62512 7.47786 5.57043 7.35938 5.46106L4.26953 2.35754L1.17969 5.46106C1.0612 5.57043 0.924479 5.62512 0.769531 5.62512C0.614583 5.62512 0.477865 5.57043 0.359375 5.46106C0.240885 5.34257 0.181641 5.20585 0.181641 5.0509C0.181641 4.89596 0.240885 4.75924 0.359375 4.64075L3.85938 1.14075C3.92318 1.07694 3.99382 1.03137 4.07129 1.00403C4.14876 0.976685 4.21484 0.963013 4.26953 0.963013C4.32422 0.963013 4.3903 0.976685 4.46777 1.00403C4.54525 1.03137 4.61589 1.07694 4.67969 1.14075L8.17969 4.64075C8.29818 4.75924 8.35742 4.89596 8.35742 5.0509C8.35742 5.20585 8.29818 5.34257 8.17969 5.46106Z" fill="white"/>
</svg>
