<svg id="Layer_1" data-name="Layer 1" xmlns="http://www.w3.org/2000/svg" viewBox="0 0 602 435"><defs><style>.cls-1{fill:#fafafa;}.cls-2{fill:#e0e0e0;}.cls-3{fill:#ebebeb;}.cls-4{fill:#f5f5f5;}.cls-5{fill:#e21b22;}.cls-6{fill:#263238;}.cls-7{fill:#455a64;}.cls-8{fill:#ffbe9d;}.cls-9{fill:#eb996e;}.cls-10{opacity:0.3;}.cls-11{fill:#fff;}</style></defs><title>Contact-us-01</title><g id="freepik--background-complete--inject-35"><rect class="cls-1" x="92.15" y="72.84" width="173.58999" height="155.30002"/><path class="cls-2" d="M265.74,228.14v-11.2c0-7.29-.06-17.95-.1-31.52-.05-27.14-.12-65.91-.2-112.58l.39.39L92.17,73.3h0l.46-.46v155.3l-.41-.4,125.55.2,35.42.11h9.46l-9.29.05-35.32.11-125.82.2h-.41V228c0-45.63,0-98.8-.05-155.3v-.46h.48l173.57.07h.4v.39c-.08,46.77-.15,85.63-.2,112.82,0,13.54-.08,24.17-.1,31.44v8.25A20.16517,20.16517,0,0,1,265.74,228.14Z"/><path class="cls-2" d="M158.71,100.43c0,.26-9.14.47-20.4.47s-20.41-.21-20.41-.47,9.1-.43,20.41-.43S158.71,100.18,158.71,100.43Z"/><path class="cls-2" d="M232.26,112.1c0,.25-25.1.46-56,.46s-56.07-.21-56.07-.46,25.1-.47,56.07-.47S232.26,111.84,232.26,112.1Z"/><rect class="cls-2" x="118.2" y="131.85001" width="7.31" height="7.31"/><rect class="cls-2" x="136.2" y="131.85001" width="7.31" height="7.31"/><rect class="cls-2" x="154.53" y="131.52" width="7.31" height="7.31"/><rect class="cls-2" x="172.2" y="131.85001" width="7.31" height="7.31"/><rect class="cls-2" x="190.21001" y="131.85001" width="7.31" height="7.31"/><rect class="cls-2" x="208.21001" y="131.85001" width="7.31" height="7.31"/><rect class="cls-3" x="226.21001" y="131.85001" width="7.31" height="7.31"/><rect class="cls-3" x="118.2" y="147.39999" width="7.31" height="7.31"/><rect class="cls-2" x="136.2" y="147.39999" width="7.31" height="7.31"/><rect class="cls-3" x="154.2" y="147.39999" width="7.31" height="7.31"/><rect class="cls-2" x="172.2" y="147.39999" width="7.31" height="7.31"/><rect class="cls-2" x="190.21001" y="147.39999" width="7.31" height="7.31"/><rect class="cls-2" x="208.53999" y="147.06" width="7.31" height="7.31"/><rect class="cls-2" x="226.21001" y="147.39999" width="7.31" height="7.31"/><rect class="cls-2" x="118.2" y="162.94" width="7.31" height="7.31"/><rect class="cls-2" x="136.53" y="162.61" width="7.31" height="7.31"/><rect class="cls-2" x="154.2" y="162.94" width="7.31" height="7.31"/><rect class="cls-3" x="172.2" y="162.94" width="7.31" height="7.31"/><rect class="cls-2" x="190.21001" y="162.94" width="7.31" height="7.31"/><rect class="cls-2" x="208.21001" y="162.94" width="7.31" height="7.31"/><rect class="cls-2" x="226.21001" y="162.94" width="7.31" height="7.31"/><rect class="cls-2" x="118.2" y="178.49002" width="7.31" height="7.31"/><rect class="cls-2" x="136.2" y="178.49002" width="7.31" height="7.31"/><rect class="cls-2" x="154.2" y="178.49002" width="7.31" height="7.31"/><rect class="cls-2" x="172.53999" y="178.16" width="7.31001" height="7.31"/><rect class="cls-2" x="190.21001" y="178.49002" width="7.31" height="7.31"/><rect class="cls-3" x="208.21001" y="178.49002" width="7.31" height="7.31"/><rect class="cls-2" x="226.21001" y="178.49002" width="7.31" height="7.31"/><rect class="cls-2" x="118.2" y="194.03998" width="7.31" height="7.31"/><rect class="cls-3" x="136.2" y="194.03998" width="7.31" height="7.31"/><rect class="cls-2" x="154.2" y="194.03998" width="7.31" height="7.31"/><rect class="cls-2" x="172.2" y="194.03998" width="7.31" height="7.31"/><rect class="cls-2" x="190.21001" y="194.03998" width="7.31" height="7.31"/><rect class="cls-2" x="208.53999" y="193.71002" width="7.31" height="7.31"/><rect class="cls-2" x="226.21001" y="194.03998" width="7.31" height="7.31"/><rect class="cls-2" x="450.75512" y="35.8958" width="11.16" height="55.50999" transform="translate(-0.3377 2.46993) rotate(-0.31)"/><rect class="cls-3" x="354.04019" y="36.09126" width="28.88998" height="30.64" transform="translate(-0.27277 1.99444) rotate(-0.31)"/><rect class="cls-4" x="382.79888" y="35.92565" width="28.89001" height="30.63998" transform="translate(-0.27145 2.15004) rotate(-0.31)"/><path class="cls-2" d="M354,44.65q28.8.24,57.64-.27a.31.31,0,0,0,0-.61c-19.19-.11-38.44,0-57.63.35a.27.27,0,0,0,0,.53Z"/><rect class="cls-3" x="336.02972" y="66.2854" width="52.49023" height="24.97012" transform="translate(-0.42084 1.96105) rotate(-0.30997)"/><rect class="cls-4" x="388.2677" y="66.00279" width="52.49023" height="24.97012" transform="translate(-0.41855 2.24365) rotate(-0.30997)"/><path class="cls-2" d="M336,73.39c34.87.4,69.86,0,104.72-.52a.31.31,0,0,0,0-.61c-34.87-.18-69.86-.16-104.72.6a.27.27,0,0,0,0,.53Z"/><rect class="cls-2" x="316.35999" y="91.42" width="203.34998" height="8.95"/><rect class="cls-2" x="349.64999" y="95.72" width="8.25" height="30.53"/><rect class="cls-2" x="472.88" y="95.72" width="8.26001" height="30.53"/><rect class="cls-3" x="461.69933" y="15.1967" width="11.16" height="76.33999" transform="translate(-0.2819 2.52899) rotate(-0.31)"/><rect class="cls-4" x="473.27331" y="27.4427" width="17.33084" height="61.87309" transform="translate(-0.55967 4.82208) rotate(-0.57294)"/><path class="cls-2" d="M490,41.32a125.2869,125.2869,0,0,1-17.33,0c0-.17,3.88-.3,8.66-.3S490,41.15,490,41.32Z"/><path class="cls-2" d="M490,38.72a125.2869,125.2869,0,0,1-17.33,0c0-.17,3.88-.3,8.66-.3S490,38.55,490,38.72Z"/><path class="cls-2" d="M490,82a125.29,125.29,0,0,1-17.33,0c0-.17,3.88-.3,8.66-.3S490,81.79,490,82Z"/><path class="cls-2" d="M490,79.36a125.29,125.29,0,0,1-17.33,0c0-.17,3.88-.3,8.66-.3S490,79.19,490,79.36Z"/><path class="cls-2" d="M481.57,73.69c-.16,0-.3-6.24-.3-13.94s.14-13.94.3-13.94.3,6.24.3,13.94S481.74,73.69,481.57,73.69Z"/><rect class="cls-3" x="490.14999" y="44.59" width="18.87" height="46.7"/><path class="cls-2" d="M470.11,28.22a3.21,3.21,0,1,1-3.21-3.21h.01A3.21,3.21,0,0,1,470.11,28.22Z"/><rect class="cls-2" x="465.91" y="37.04" width="1.98001" height="45.41999"/></g><g id="freepik--Plant--inject-35"><path class="cls-5" d="M125.26,326.83c5.24-2.7,11.4-3.05,17.21-2.09,3.12.52,6.37,1.45,8.5,3.8s2.52,6.47.08,8.48c-1.45,1.2-3.47,1.38-5.35,1.36-4.55-.05-9.6-.85-13.23,1.88-2.08,1.57-3.46,4.16-5.93,4.93s-5.17-.68-6.45-2.87a10,10,0,0,1-.73-7.39A11.28,11.28,0,0,1,125.26,326.83Z"/><path class="cls-5" d="M113.27,303.69c3.2,4.57,9.42,3.05,12.31.27s4.1-6.84,5.21-10.69c2.53-8.81,5.09-18,3.2-27a14.92973,14.92973,0,0,0-3.45-7.34,7.83994,7.83994,0,0,0-7.43-2.48c-3.14.83-5.08,3.9-6.49,6.83a64.32986,64.32986,0,0,0-6.37,27.64c0,4.45.51,9.12,3,12.8"/><path class="cls-5" d="M104.48,310.25c3.48-4.13,4.14-10.14,2.59-15.31s-5-9.56-9.06-13.15a48.81006,48.81006,0,0,0-16.23-9.57,17.20015,17.20015,0,0,0-7.3-1.24,7.66,7.66,0,0,0-6.13,3.7c-1.71,3.26-.07,7.21,1.7,10.44a123.65867,123.65867,0,0,0,10.66,16.23c3.2,4.12,6.86,8.18,11.73,10s9.93,1.65,12.56-1.69"/><path class="cls-6" d="M113.06,372.63a10.359,10.359,0,0,0,.29-2.07c.14-1.52.33-3.41.55-5.67a81.16934,81.16934,0,0,1,1.27-8.32,65.10044,65.10044,0,0,1,3-9.81,36.33009,36.33009,0,0,1,5-8.88,18.63,18.63,0,0,1,6.34-5.26,17.67052,17.67052,0,0,1,5.36-1.62,10.14061,10.14061,0,0,0,2.07-.3,9.44872,9.44872,0,0,0-2.1,0,16.31069,16.31069,0,0,0-5.57,1.44,18.73983,18.73983,0,0,0-6.68,5.31,35.55943,35.55943,0,0,0-5.19,9.06,60.00061,60.00061,0,0,0-3,10,70.79761,70.79761,0,0,0-1.11,8.42c-.18,2.41-.24,4.36-.28,5.71A9.23011,9.23011,0,0,0,113.06,372.63Z"/><path class="cls-6" d="M113.45,368.27a4.45143,4.45143,0,0,0,0-1v-2.76c0-2.39,0-5.85.12-10.12.21-8.55,1-17.75,2.37-30.72,1.34-12.19,3.15-26.39,5.06-35.61.4-2.1.82-4,1.2-5.64s.69-3.09,1-4.25.48-2,.65-2.67a4,4,0,0,0,.17-1,3.5789,3.5789,0,0,0-.34.9c-.21.69-.47,1.57-.8,2.64s-.72,2.56-1.13,4.22-.89,3.53-1.34,5.62a315.7458,315.7458,0,0,0-5.32,33c-1.42,13-2.06,24.83-2.12,33.39,0,4.29,0,7.76.15,10.15.07,1.12.13,2,.17,2.75A4.10028,4.10028,0,0,0,113.45,368.27Z"/><path class="cls-6" d="M113.5,345.45a18.14894,18.14894,0,0,0,0-2.88,78.38126,78.38126,0,0,0-.88-7.8,102.24939,102.24939,0,0,0-2.53-11.36A92.88018,92.88018,0,0,0,105.31,310a71.63982,71.63982,0,0,0-14-21.73,36.67835,36.67835,0,0,0-3.28-3.05c-.51-.42-.95-.85-1.41-1.18l-1.27-.88A18.00123,18.00123,0,0,0,83,281.57c-.14.18,3.43,2.29,7.94,7.08a75.57037,75.57037,0,0,1,13.59,21.65,107.10259,107.10259,0,0,1,4.78,13.32A114.8694,114.8694,0,0,1,112,334.87c.62,3.25.94,5.89,1.15,7.73A20.42043,20.42043,0,0,0,113.5,345.45Z"/><polygon class="cls-6" points="91.45 385.71 93.73 417.04 133.98 417.04 136.27 385.71 91.45 385.71"/><rect class="cls-6" x="87.56" y="373.35999" width="53.50999" height="12.35001"/><polygon class="cls-7" points="87.56 415.84 87.56 419.26 90.07 419.26 140.19 419.26 140.19 415.84 87.56 415.84"/><polygon class="cls-7" points="92.54 425.29 90.07 419.26 138.27 419.26 135.39 425.29 92.54 425.29"/><path class="cls-2" d="M135.52,396a1.219,1.219,0,0,1-.19.28c-.16.22-.35.48-.6.8l-2.34,3-.11.14-.1-.14-5.76-8h.33l-5.67,8-.18.25-.2-.23-6.72-8h.39c-.12.14-.25.3-.37.46l-6,7.54-.2.25-.18-.26-5.68-8h.33c-2.79,3.19-5.17,5.89-7,8l-.12.14-.09-.16c-.93-1.54-1.66-2.78-2.19-3.67-.23-.4-.42-.72-.56-1a1.40916,1.40916,0,0,1-.18-.35,3.90262,3.90262,0,0,1,.24.31l.62.94,2.3,3.61h-.22l6.87-8.06.18-.2.15.22,5.73,8h-.4l6-7.55.37-.46.2-.24.19.23c2.36,2.81,4.62,5.52,6.71,8h-.38l5.73-8,.17-.23.16.23,5.64,8.06h-.2l2.44-2.91.65-.76Q135.51,395.93,135.52,396Z"/><path class="cls-7" d="M136.83,385.5c0,.14-10.09.25-22.52.25s-22.53-.11-22.53-.25,10.08-.25,22.53-.25S136.83,385.36,136.83,385.5Z"/><path class="cls-6" d="M138.86,419.6c0,.14-11,.25-24.48.25s-24.48-.11-24.48-.25,11-.25,24.48-.25S138.86,419.46,138.86,419.6Z"/></g><g id="freepik--Chair--inject-35"><path class="cls-7" d="M414.1,293.11h93.53a15.13,15.13,0,0,1,15.13,15.13h0V425.86H399V308.24A15.13,15.13,0,0,1,414.1,293.11Z"/><path class="cls-6" d="M512.34,293.79c.15,0,.26,29.55.26,66s-.11,66-.26,66-.26-29.55-.26-66S512.2,293.79,512.34,293.79Z"/></g><g id="freepik--Character--inject-35"><path class="cls-6" d="M451.36,149a105.06007,105.06007,0,0,1,18.82,55.34c.58,13.3-1.21,27.47,5.1,39.19,9.06,16.82,28.65,16.25,34.65,34.38,2.61,7.89-2.2,25.24-3.5,33.45-1.47,9.32,4.23,17.15,2.76,26.48-1.35,8.55-7.75,14.65-15.43,18.63-6.84,3.54-13.16,3.64-20.27.69-13.56-5.61-24.84-11.53-34.49-22.57-13.56-15.5-17.66-37-20-57.43a503.86956,503.86956,0,0,1,3.07-135.75"/><path class="cls-7" d="M480.35,359.07a3.59215,3.59215,0,0,1,.43-.11c.29-.07.73-.14,1.29-.31a21.99965,21.99965,0,0,0,10.86-6.83,12.81011,12.81011,0,0,0,2.42-4.29,23.54046,23.54046,0,0,0,.85-5.49,54.08951,54.08951,0,0,0-1.3-12.74,115.14541,115.14541,0,0,1-2.34-14.63,30.30062,30.30062,0,0,1,.57-8,51.28919,51.28919,0,0,1,2.54-8,85.73927,85.73927,0,0,0,2.86-8.13,20.74014,20.74014,0,0,0,.7-8.7,19.66987,19.66987,0,0,0-3.25-8.08,37.07942,37.07942,0,0,0-5.67-6.42c-4.13-3.86-8.6-7-12.42-10.62a70.34984,70.34984,0,0,1-16.18-22.34,68.46921,68.46921,0,0,1-3.72-10c-.48-1.49-.76-2.93-1.1-4.23s-.49-2.52-.71-3.6c-.31-2.19-.55-3.88-.61-5,0-.56-.08-1-.1-1.32a2.41951,2.41951,0,0,1,0-.45,2.23762,2.23762,0,0,0,.07.45c.07.3.09.75.16,1.31.09,1.15.36,2.84.7,5,.23,1.08.48,2.28.75,3.59a36.0851,36.0851,0,0,0,1.14,4.2,69.728,69.728,0,0,0,3.77,9.9,70.68014,70.68014,0,0,0,16.17,22.14c3.8,3.54,8.28,6.71,12.45,10.59a37.84959,37.84959,0,0,1,5.75,6.51,20.16024,20.16024,0,0,1,3.33,8.3,21.20015,21.20015,0,0,1-.71,8.91c-.78,2.84-1.87,5.53-2.88,8.17a52.13127,52.13127,0,0,0-2.54,7.9,29.76976,29.76976,0,0,0-.57,7.89c.27,5.18,1.43,10,2.29,14.57a54.47957,54.47957,0,0,1,1.24,12.84,24.5596,24.5596,0,0,1-.9,5.58,13.5296,13.5296,0,0,1-2.51,4.37,20.7202,20.7202,0,0,1-6.32,4.95,20.23928,20.23928,0,0,1-4.75,1.8A11.69122,11.69122,0,0,1,480.35,359.07Z"/><path class="cls-5" d="M294.16,394.8l48-22.79s18.69-90.75,22.23-97.56,18.3-12.7,18.3-12.7l-2.47,122.88L375.82,413l-67.68,6.41Z"/><path class="cls-8" d="M253.21,416.3c-.27,0-1.6.82-.49,2.93s9.25,9.08,11.64,6.65-1.26-5.39-1.26-5.39Z"/><path class="cls-8" d="M263.44,420.58s9.82,1.24,13.59,2.68c4.11,1.56,9.11.49,12.47-1.78a35.48984,35.48984,0,0,0,5.32-4.34l12.52-.2a15,15,0,0,0,2.44-15.51,16.82941,16.82941,0,0,0-2.86-4.89c-1.49-1.61-3.84-2.91-7.9-3.61l-14.87,3.21s-23-1.65-27.14.29c0,0-5.15,3.05-6.74,4.33-.6.49-2.43,6.35,1.32,9.4,0,0-3.26,2.59-1.49,4.92l.84,1s-2.19,2.84-1.06,4.08,11,7,14.51,5.64.61-4.65-.95-5.25"/><path class="cls-9" d="M254.06,405.09a10.83127,10.83127,0,0,1,1.22.44c.77.29,1.9.71,3.32,1.16.7.23,1.48.46,2.33.68s1.76.41,2.71.72a5.79,5.79,0,0,1,2.7,1.63,3.31,3.31,0,0,1,.72,3.29,2.58,2.58,0,0,1-1.21,1.31,4.70089,4.70089,0,0,1-1.64.46,13.86886,13.86886,0,0,1-3.13-.17,28.00109,28.00109,0,0,1-5.08-1.32c-1.41-.5-2.52-1-3.29-1.3a6.52911,6.52911,0,0,1-1.17-.56,10.5403,10.5403,0,0,1,1.23.41c.78.28,1.91.71,3.32,1.17a29.99887,29.99887,0,0,0,5,1.23,13.82053,13.82053,0,0,0,3,.14,4.19021,4.19021,0,0,0,1.49-.42,2.15987,2.15987,0,0,0,1-1.1A2.93,2.93,0,0,0,266,410a5.4701,5.4701,0,0,0-2.51-1.53c-.92-.31-1.84-.51-2.68-.75s-1.63-.49-2.33-.73c-1.42-.49-2.53-1-3.29-1.29A6.82954,6.82954,0,0,1,254.06,405.09Z"/><path class="cls-9" d="M254.94,398a8.42878,8.42878,0,0,1,1.21.44c.78.3,1.9.73,3.3,1.19s3.09,1,5,1.43a6.90024,6.90024,0,0,1,2.91,1.18,2.43,2.43,0,0,1,.85,1.51,3.10985,3.10985,0,0,1-.25,1.75,4.19,4.19,0,0,1-2.57,2.18,6.74981,6.74981,0,0,1-3.13.25,30.08176,30.08176,0,0,1-5-1.46l-3.31-1.16a9.23809,9.23809,0,0,1-1.2-.47,7.63043,7.63043,0,0,1,1.25.32l3.35,1a33.99521,33.99521,0,0,0,5,1.36,6.48991,6.48991,0,0,0,2.95-.26,3.83,3.83,0,0,0,2.33-2,2.33,2.33,0,0,0-.49-2.79,6.64994,6.64994,0,0,0-2.74-1.11,48.60367,48.60367,0,0,1-5-1.52c-1.4-.52-2.5-1-3.26-1.32A8.06052,8.06052,0,0,1,254.94,398Z"/><path class="cls-9" d="M259.67,400a12.44756,12.44756,0,0,1-.45-2,10.9985,10.9985,0,0,1-.49-2,3.52989,3.52989,0,0,1,.89,1.87A3.31994,3.31994,0,0,1,259.67,400Z"/><path class="cls-8" d="M294.3,400.32,285.55,397s-24.29-11.34-24.7-10.72-1.73.54-1.44,3.5,14.44,8.94,14.89,10-.3,6.22,4.93,9.93,9,3.8,9,3.8"/><path class="cls-9" d="M288.23,413.42H288l-.6-.06a14.55032,14.55032,0,0,1-2.27-.55,22.2104,22.2104,0,0,1-7.42-4.27,10.45991,10.45991,0,0,1-3-5.11,23.22364,23.22364,0,0,1-.52-3.27,1.82245,1.82245,0,0,0-.09-.37.72059.72059,0,0,0-.23-.24,7.92094,7.92094,0,0,0-.71-.46c-.49-.29-1-.57-1.54-.85-2.1-1.13-4.35-2.26-6.61-3.56a39.44284,39.44284,0,0,1-3.37-2.13,12.278,12.278,0,0,1-1.58-1.32,3.99976,3.99976,0,0,1-.67-.84,1.63938,1.63938,0,0,1-.2-.55,2.4695,2.4695,0,0,1,0-.54,3.82991,3.82991,0,0,1,.37-2.11,2.57043,2.57043,0,0,1,.77-.77,1.71108,1.71108,0,0,0,.34-.29l.08-.09a.24989.24989,0,0,1,.17-.05.76109.76109,0,0,1,.17,0l.27.07c1.31.4,2.52.93,3.73,1.43q3.6,1.5,6.87,3c4.37,2,8.27,3.78,11.55,5.32.82.37,1.59.76,2.33,1.08l2.14.84,3.43,1.36,2.16.87.55.24a.20708.20708,0,0,1,.19.09c0,.01-.07,0-.2-.06l-.57-.19-2.19-.81L287.89,398l-2.16-.81c-.76-.31-1.53-.69-2.35-1.06L271.8,390.9q-3.285-1.5-6.88-3c-1.2-.49-2.42-1-3.68-1.41l-.22-.05h-.08v-.1h0c.28.18.07.06.13.1h0a1.82937,1.82937,0,0,1-.42.38,2.05009,2.05009,0,0,0-.66.65,3.48,3.48,0,0,0-.32,1.89,1.87,1.87,0,0,0,.21.9,3.84909,3.84909,0,0,0,.6.76,11.71541,11.71541,0,0,0,1.53,1.27c1.08.78,2.21,1.46,3.33,2.11,2.25,1.3,4.48,2.44,6.59,3.57.53.29,1,.57,1.55.88a8.63691,8.63691,0,0,1,.75.48.9998.9998,0,0,1,.34.39,2.00189,2.00189,0,0,1,.1.45,25.92939,25.92939,0,0,0,.49,3.24,10.27994,10.27994,0,0,0,2.86,5,22.73961,22.73961,0,0,0,7.27,4.33,16.07379,16.07379,0,0,0,2.23.61c.26.06.46.08.6.1Z"/><path class="cls-9" d="M261.44,414.56a2.99978,2.99978,0,0,1,.93.27,9.40819,9.40819,0,0,1,2.29,1.32,8.39053,8.39053,0,0,1,1.32,1.29,2.73,2.73,0,0,1,.71,2,2.26,2.26,0,0,1-1.62,1.75,4.31987,4.31987,0,0,1-2.54-.08,46.55023,46.55023,0,0,1-8.06-3.23,24.15669,24.15669,0,0,1-2.26-1.34,3.86094,3.86094,0,0,1-.77-.58,4.72219,4.72219,0,0,1,.85.44c.54.31,1.32.74,2.31,1.22a56.45814,56.45814,0,0,0,8,3.1,4,4,0,0,0,2.32.09,1.9,1.9,0,0,0,1.37-1.42,2.44992,2.44992,0,0,0-.6-1.78,8.33017,8.33017,0,0,0-1.24-1.27A13.89012,13.89012,0,0,0,261.44,414.56Z"/><g class="cls-10"><path d="M375.48,413c-7.86-26.51-14.79-60.65-22.65-87.16-2.88,24.47.72,56.78,5.22,81,.53,2.84.77,5.62,3,7.49L375.48,413"/></g><path class="cls-6" d="M362.61,394.8c-.11,0-.44-1.73-1.51-4.38a31.09132,31.09132,0,0,0-2.25-4.46,33.82986,33.82986,0,0,0-3.7-4.86,32.93658,32.93658,0,0,0-4.58-4.05,29.80259,29.80259,0,0,0-4.28-2.58c-2.56-1.26-4.28-1.72-4.25-1.82a5.38153,5.38153,0,0,1,1.22.29,10.14992,10.14992,0,0,1,1.39.46,18.2172,18.2172,0,0,1,1.8.74,28.00042,28.00042,0,0,1,4.4,2.52,32,32,0,0,1,4.69,4.08,32.35058,32.35058,0,0,1,3.72,5,28.59741,28.59741,0,0,1,2.19,4.57c.27.67.43,1.3.6,1.85a10.2775,10.2775,0,0,1,.36,1.43A6.38826,6.38826,0,0,1,362.61,394.8Z"/><path class="cls-5" d="M377.59,260.51S352.46,316.66,352.46,327s18.83,81.93,18.83,81.93c-.18,2.85-.91,17.12-.91,17.12l105.59.37h0l1.61-22.7-8.24-21.63,8.23-61.15s5.54-35.5,6-45.43c.62-12.42-41.46-26.82-40.31-28.54L436,237.21,394.39,271l-8.23-23.76-9.86,9.31Z"/><path class="cls-5" d="M446.74,275.45C435.31,294.78,414.4,330,414.4,330l-37.48,42.74s-2.45,21.71,2.45,28.37,13.31,11.21,13.31,11.21,9.89,0,22.46-10.51,47.24-53.94,47.24-53.94l11.91-14.37s14.2-34.88,11.55-52.63c-1-6.85-3.94-9.69-7.82-12.83C468.25,260.17,453.13,264.64,446.74,275.45Z"/><path class="cls-6" d="M478.7,321.4a3.08981,3.08981,0,0,1-.18.4c-.13.28-.32.65-.55,1.14-.5,1-1.26,2.45-2.3,4.29-2.07,3.69-5.29,8.9-9.49,15.19-2.11,3.14-4.46,6.55-7.05,10.17a120.05622,120.05622,0,0,0-7.95,11.71c-2.42,4.36-4.62,9.12-7.27,13.88a87.67882,87.67882,0,0,1-9.53,13.91,55.74051,55.74051,0,0,1-12.62,11.16,39.74009,39.74009,0,0,1-14.62,5.66,32.77,32.77,0,0,1-14.16-.6,26.83051,26.83051,0,0,1-6-2.43,27.3913,27.3913,0,0,1-4.94-3.34,22.41011,22.41011,0,0,1-3.72-3.93,22.1,22.1,0,0,1-2.46-4.16,26.31932,26.31932,0,0,1-2-7.44,34.37973,34.37973,0,0,1-.17-4.87c0-.54.06-1,.08-1.27a3.00159,3.00159,0,0,1,0-.43,2.84955,2.84955,0,0,1,0,.43v1.27a37.00408,37.00408,0,0,0,.26,4.84,26.58143,26.58143,0,0,0,2.08,7.35,22.35122,22.35122,0,0,0,2.46,4.08,21.90988,21.90988,0,0,0,3.7,3.85,27.05953,27.05953,0,0,0,4.89,3.27,26.73905,26.73905,0,0,0,5.91,2.37,32.54944,32.54944,0,0,0,14,.54,39.34,39.34,0,0,0,14.42-5.62A55.44946,55.44946,0,0,0,434,391.75a86.77134,86.77134,0,0,0,9.47-13.82c2.65-4.73,4.79-9.53,7.3-13.87a130.12175,130.12175,0,0,1,8-11.73c2.6-3.6,5-7,7.09-10.12,4.24-6.25,7.5-11.43,9.62-15.08,1.07-1.83,1.86-3.26,2.38-4.24l.61-1.12A1.93092,1.93092,0,0,1,478.7,321.4Z"/><path class="cls-6" d="M375,370.83c0,.07-.53.4-1.22,1.17a6,6,0,0,0-.68,7.36,14.11628,14.11628,0,0,0,1,1.37c0,.06-.63-.28-1.29-1.16a5.9,5.9,0,0,1,.73-7.83A3,3,0,0,1,375,370.83Z"/><path class="cls-6" d="M381.93,382.17a2.99955,2.99955,0,0,1,.59.14l.7.19,1,.18a13.93011,13.93011,0,0,0,6.18-.58,22.62983,22.62983,0,0,0,8-4.68,60.24027,60.24027,0,0,0,7.45-8.65,52.29028,52.29028,0,0,1,7.69-8.59c1.36-1.14,2.69-2.15,3.8-3.24a10.64963,10.64963,0,0,0,2.5-3.45,6.29,6.29,0,0,0-.57-5.9,4.63994,4.63994,0,0,0-1.81-1.35,3.06845,3.06845,0,0,1,.58.17,3.83005,3.83005,0,0,1,1.39,1.06,6.46,6.46,0,0,1,.76,6.16,11.11991,11.11991,0,0,1-2.54,3.62c-1.13,1.12-2.47,2.16-3.8,3.3a53.39889,53.39889,0,0,0-7.58,8.54,59.05192,59.05192,0,0,1-7.56,8.7,22.62984,22.62984,0,0,1-8.16,4.66,13.59028,13.59028,0,0,1-6.33.43l-1-.23c-.28-.08-.51-.18-.69-.24A2.70941,2.70941,0,0,1,381.93,382.17Z"/><path class="cls-6" d="M451.83,269.51a5.42166,5.42166,0,0,1-.42.6c-.33.42-.75,1-1.28,1.67-1.14,1.42-2.71,3.54-4.63,6.18a202.27785,202.27785,0,0,0-13.33,21.67c-4.72,8.76-8.62,16.89-11.61,22.69-1.48,2.91-2.7,5.25-3.59,6.85L416,331a3.67046,3.67046,0,0,1-.39.62,3.8769,3.8769,0,0,1,.29-.67l.94-1.89,3.43-6.91c2.9-5.85,6.76-14,11.48-22.78a181.99848,181.99848,0,0,1,13.5-21.64c2-2.61,3.57-4.71,4.76-6.09l1.36-1.61A3.17823,3.17823,0,0,1,451.83,269.51Z"/><g class="cls-10"><path d="M373.8,380.44c4.87,2.64,10.23,2.36,15.67,1.3a24.31993,24.31993,0,0,0,14-8.38A24.29021,24.29021,0,0,1,397,386.14c-3.46,3.39-8.48,5.35-13.24,4.48s-9.58-5.35-10-10.18"/></g><g class="cls-10"><path d="M419.9,351.58a21.49,21.49,0,0,1,3,16.12c4.13-6.32,5.1-14.32,4-21.79s-4.15-14.52-7.53-21.27c0,0-3.72,6.3-3.76,7-.18,3.64,1.16,10.48,1.86,14.05a7.81,7.81,0,0,1,2.27,7.06"/></g><g class="cls-10"><path d="M390.32,406.6c9.94,7.75,24.69,8.11,35.56,1.75,10.47-6.13,16.92-17.17,22.9-27.72,9.27-16.34,20.57-36.55,27.19-54.13,0,0-18.55,25.31-24.14,36.22A180.04923,180.04923,0,0,1,439.17,384a54.56,54.56,0,0,1-47.88,23.33"/></g><path class="cls-6" d="M370.38,426a1.00025,1.00025,0,0,1,0-.31v-.91c0-.85.07-2,.13-3.47.14-3,.33-7.3.57-12.43V409c-1.79-6-3.89-13.28-6.07-21.14-2.88-10.42-5.31-19.9-6.95-26.79-.81-3.44-1.45-6.24-1.85-8.18-.19-.93-.34-1.68-.45-2.23a6.68218,6.68218,0,0,1-.13-.79,4.09083,4.09083,0,0,1,.23.76l.55,2.22c.49,2,1.17,4.74,2,8.13,1.73,6.87,4.22,16.33,7.1,26.74,2.17,7.86,4.24,15.14,6,21.15v.07c-.31,5.13-.57,9.4-.76,12.44-.1,1.45-.18,2.61-.24,3.46a8.83475,8.83475,0,0,1-.08.9A1.05,1.05,0,0,1,370.38,426Z"/><path class="cls-6" d="M476,267.46c0,.08-1.08-.3-2.81-.73a33.89984,33.89984,0,0,0-6.89-1,33.17837,33.17837,0,0,0-6.94.54c-1.76.33-2.83.63-2.85.55a2.57959,2.57959,0,0,1,.72-.32,20.62264,20.62264,0,0,1,2.05-.59,27.22007,27.22007,0,0,1,7-.7,27.62923,27.62923,0,0,1,7,1.12,17.00066,17.00066,0,0,1,2,.72C475.78,267.3,476,267.42,476,267.46Z"/><path class="cls-6" d="M442.57,249a2.94025,2.94025,0,0,1-.27.52l-.85,1.43c-.75,1.24-1.86,3-3.27,5.19-2.83,4.33-6.88,10.24-11.67,16.52-3.85,5.07-7.58,9.62-10.63,13.18l-.22.25-.13-.3c-1.46-3.18-2.66-5.82-3.53-7.73-.39-.88-.7-1.6-.95-2.15a3.9985,3.9985,0,0,1-.29-.77,4.09839,4.09839,0,0,1,.41.72c.27.54.61,1.24,1.05,2.1.91,1.89,2.17,4.5,3.68,7.66l-.34-.05c3-3.6,6.69-8.16,10.54-13.22,4.78-6.28,8.86-12.14,11.77-16.42l3.41-5.09.93-1.38A2.21,2.21,0,0,1,442.57,249Z"/><path class="cls-6" d="M466.88,410.27c-.15,0,.31-5.21,1-11.6s1.4-11.55,1.54-11.53-.32,5.2-1,11.59S467,410.28,466.88,410.27Z"/><path class="cls-6" d="M394.5,408.9a74.47438,74.47438,0,0,1,1.19,8.72,70.84119,70.84119,0,0,1,.67,8.77,77.12161,77.12161,0,0,1-1.19-8.72A75.84047,75.84047,0,0,1,394.5,408.9Z"/><path class="cls-11" d="M447.91,294.69a1.28,1.28,0,0,0-1.94-.77l-.07.06a1.21,1.21,0,1,0,2,.71Z"/><path class="cls-11" d="M437.48,269.27a1.28,1.28,0,0,0-1.94-.77l-.06.06a1.21,1.21,0,1,0,2,.71Z"/><path class="cls-11" d="M413.55,289.74a1.28,1.28,0,0,0-1.94-.77h-.06a1.21,1.21,0,1,0,2,.72Z"/><path class="cls-11" d="M387.68,279.46a1.27,1.27,0,0,0-1.93-.77l-.07.06a1.21,1.21,0,1,0,2,.71Z"/><path class="cls-11" d="M383.11,269.33a1.28,1.28,0,0,0-1.94-.77l-.07.06a1.22,1.22,0,1,0,2,.71Z"/><path class="cls-11" d="M385.1,257.63a1.28,1.28,0,0,0-1.94-.77l-.07.05a1.21,1.21,0,1,0,2,.72Z"/><path class="cls-11" d="M370.77,273.73a1.28,1.28,0,0,0-1.94-.77l-.07.05a1.21,1.21,0,1,0,2,.72Z"/><path class="cls-11" d="M404,278.37a1.27,1.27,0,0,0-1.93-.77l-.07.06a1.21,1.21,0,1,0,2,.71Z"/><path class="cls-11" d="M375.86,299.24a1.28,1.28,0,0,0-1.94-.77h-.07a1.21,1.21,0,1,0,2,.72Z"/><path class="cls-11" d="M350.14,359.26a1.28,1.28,0,0,0-1.94-.77l-.06.05a1.21,1.21,0,1,0,2,.72Z"/><path class="cls-11" d="M359.32,324.64a1.28,1.28,0,0,0-1.94-.77l-.07.06a1.21,1.21,0,1,0,2,.71Z"/><path class="cls-11" d="M427,263.86a1.28,1.28,0,0,0-1.94-.77l-.07.05a1.21,1.21,0,1,0,2,.72Z"/><path class="cls-11" d="M459.24,332.78a1.28,1.28,0,0,0-1.94-.77l-.07.06a1.22,1.22,0,1,0,2,.71Z"/><path class="cls-11" d="M471.81,273.47a1.27,1.27,0,0,0-1.93-.77l-.07.05a1.21,1.21,0,1,0,2,.72Z"/><path class="cls-11" d="M466.88,312.31a1.28,1.28,0,0,0-1.94-.77l-.07.06a1.22,1.22,0,1,0,2,.71Z"/><path class="cls-11" d="M438.67,340.36a1.28,1.28,0,0,0-1.94-.77l-.07.06a1.21,1.21,0,1,0,2,.71Z"/><path class="cls-11" d="M439.86,317a1.28,1.28,0,0,0-1.94-.77l-.07.06a1.22,1.22,0,1,0,2,.71Z"/><path class="cls-11" d="M456.87,273.67a1.27,1.27,0,0,0-1.93-.77l-.07.06a1.21,1.21,0,1,0,2,.71Z"/><path class="cls-11" d="M434,251.05a1.27,1.27,0,0,0-1.93-.77l-.07.05a1.21,1.21,0,1,0,2,.72Z"/><path class="cls-11" d="M433.13,287.52a1.27,1.27,0,0,0-1.94-.77l-.06.05a1.21,1.21,0,1,0,2,.72Z"/><path class="cls-11" d="M403.89,398.77A1.27,1.27,0,0,0,402,398l-.07.05a1.21,1.21,0,1,0,2,.72Z"/><path class="cls-11" d="M370.34,380.47a1.28,1.28,0,0,0-1.94-.77l-.07.06a1.21,1.21,0,1,0,2,.71Z"/><path class="cls-11" d="M343.21,389.44a1.28,1.28,0,0,0-1.94-.77l-.06.05a1.21,1.21,0,1,0,2,.72Z"/><path class="cls-11" d="M340.31,404.89a1.28,1.28,0,0,0-1.94-.77l-.07.05a1.21,1.21,0,1,0,2,.72Z"/><path class="cls-11" d="M365.74,410.06a1.28,1.28,0,0,0-1.94-.77l-.06.06a1.21,1.21,0,1,0,2,.71Z"/><path class="cls-11" d="M357.24,375.46a1.28,1.28,0,0,0-1.94-.77l-.07.06a1.22,1.22,0,1,0,2,.71Z"/><path class="cls-11" d="M388.44,384.26a1.27,1.27,0,0,0-1.94-.77l-.06.05a1.21,1.21,0,1,0,2,.72Z"/><path class="cls-11" d="M462.61,375.41a1.26006,1.26006,0,0,0-1.93-.77l-.07.05a1.21,1.21,0,1,0,2,.72Z"/><path class="cls-11" d="M416.72,419.38a1.28,1.28,0,0,0-1.94-.77l-.07.06a1.21,1.21,0,1,0,2,.71Z"/><path class="cls-11" d="M436.29,394.9a1.27,1.27,0,0,0-1.93-.77l-.07.06a1.21,1.21,0,1,0,2,.71Z"/><path class="cls-11" d="M447.92,414.81A1.28,1.28,0,0,0,446,414l-.06.06a1.21,1.21,0,1,0,2,.71Z"/><path class="cls-11" d="M415.57,310.55a1.28,1.28,0,0,0-1.94-.77l-.07.06a1.21,1.21,0,1,0,2,.71Z"/><path class="cls-11" d="M441.9,361.38a1.28,1.28,0,0,0-1.94-.77l-.07.05a1.21,1.21,0,1,0,2,.72Z"/><path class="cls-11" d="M433.36,380.63a1.28,1.28,0,0,0-1.94-.77l-.07.05a1.21,1.21,0,1,0,2,.72Z"/><path class="cls-11" d="M461.43,396.09a1.28,1.28,0,0,0-1.94-.77l-.07.06a1.21,1.21,0,1,0,2,.71Z"/><path class="cls-11" d="M384.62,418.42a1.27,1.27,0,0,0-1.94-.77l-.07.05a1.21,1.21,0,1,0,2,.72Z"/><path class="cls-11" d="M320.62,412.57a1.28,1.28,0,0,0-1.94-.77l-.07.06a1.22,1.22,0,1,0,2,.71Z"/><path class="cls-11" d="M377,402.06a1.28,1.28,0,0,0-1.94-.77l-.07.06a1.22,1.22,0,1,0,2,.71Z"/><path class="cls-11" d="M323,390.63a1.27,1.27,0,0,0-1.94-.77l-.06.05a1.21,1.21,0,1,0,2,.72Z"/><path class="cls-11" d="M413.2,354.33a1.28,1.28,0,0,0-1.94-.77l-.07.05a1.21,1.21,0,1,0,2,.72Z"/><path class="cls-11" d="M394.32,299.24a1.28,1.28,0,0,0-1.94-.77h-.07a1.21,1.21,0,1,0,2,.72Z"/><path class="cls-11" d="M389.6,347a1.28,1.28,0,0,0-1.94-.77l-.06.06a1.21,1.21,0,1,0,2,.71Z"/><path class="cls-11" d="M381.92,331.43a1.28,1.28,0,0,0-1.94-.77h-.06a1.21,1.21,0,1,0,2,.72Z"/><path class="cls-11" d="M415.89,380.41a1.28,1.28,0,0,0-1.94-.77l-.07.06a1.22,1.22,0,1,0,2,.71Z"/><path class="cls-11" d="M391.94,370.8A1.27,1.27,0,0,0,390,370l-.07.06a1.21,1.21,0,1,0,2,.71Z"/><path class="cls-11" d="M402.19,318.05a1.27,1.27,0,0,0-1.93-.77l-.07.05a1.21,1.21,0,1,0,2,.72Z"/><path class="cls-11" d="M365.74,355.4a1.28,1.28,0,0,0-1.94-.77l-.06.06a1.21,1.21,0,1,0,2,.71Z"/><path class="cls-11" d="M422,338.26a1.28,1.28,0,0,0-1.94-.77l-.07.05a1.21,1.21,0,1,0,2,.72Z"/><path class="cls-11" d="M474.19,293.5a1.28,1.28,0,0,0-1.94-.77l-.07.06a1.21,1.21,0,1,0,2,.71Z"/><path class="cls-11" d="M453,259.61a1.28,1.28,0,0,0-1.94-.77l-.07.06a1.21,1.21,0,1,0,2,.71Z"/><path class="cls-11" d="M411.94,263.86a1.28,1.28,0,0,0-1.94-.77l-.07.05a1.21,1.21,0,1,0,2,.72Z"/><path class="cls-6" d="M370.05,142.21c-7.87,5-11,15.51-9.52,21.72.76,3.13,2.18,6.28,1.56,9.43-.53,2.73-2.5,4.92-4,7.28a21.92,21.92,0,0,0,27.4,31.66"/><path class="cls-6" d="M365.39,183.2c-19.16-42.14,26.42-63.31,51.28-56.29,23.37,6.6,33.34,18.23,37.19,33.86s3.66,32.58-2.47,47.47c-3,7.34-8.46,14.8-16.35,15.72"/><path class="cls-8" d="M387.84,286.11c-.33-20.14-.57-47.79-.57-47.68S370,235.56,366.37,213c-1.78-11.23-1.21-29.64-.27-44.69.86-13.55,9.83-30.17,23.33-28.74l42.15,10.65a7.93,7.93,0,0,1,7.1,8.06h0l-2.74,87.17"/><path class="cls-6" d="M373.64,182.08a2.87,2.87,0,0,0,2.74,2.93,2.75,2.75,0,0,0,2.99387-2.4823h0q.00357-.03877.00613-.07767a2.89,2.89,0,0,0-2.74-2.94,2.76,2.76,0,0,0-2.99484,2.50323h0Z"/><path class="cls-6" d="M403.56,182.08A2.87,2.87,0,0,0,406.3,185a2.75,2.75,0,0,0,2.99386-2.4823v0q.00361-.03878.00614-.07767a2.87,2.87,0,0,0-2.74-2.93,2.75,2.75,0,0,0-2.99329,2.483h0C403.56406,182.022,403.56177,182.05093,403.56,182.08Z"/><path class="cls-6" d="M370.52,176.82c.35.39,2.6-1.16,5.71-1s5.34,1.74,5.7,1.37c.17-.16-.18-.85-1.15-1.61a7.90022,7.90022,0,0,0-4.54-1.57,7.65993,7.65993,0,0,0-4.56,1.31C370.7,176,370.35,176.64,370.52,176.82Z"/><path class="cls-6" d="M400.1,177.56c.36.38,2.55-1.26,5.66-1.26s5.41,1.54,5.74,1.16c.17-.17-.2-.85-1.2-1.57a7.90014,7.90014,0,0,0-4.6-1.4,7.58,7.58,0,0,0-4.5,1.48C400.24,176.71,399.92,177.39,400.1,177.56Z"/><path class="cls-6" d="M389.42,201.56c0-.18-1.92-.51-5.06-.92-.8-.08-1.55-.24-1.68-.78a4.00007,4.00007,0,0,1,.53-2.36c.74-1.92,1.53-3.94,2.35-6.06,3.27-8.62,5.63-15.72,5.28-15.85s-3.28,6.76-6.54,15.39l-2.26,6.1a4.57991,4.57991,0,0,0-.41,3.12,2.0001,2.0001,0,0,0,1.31,1.16,5.08077,5.08077,0,0,0,1.35.19C387.45,201.72,389.41,201.73,389.42,201.56Z"/><path class="cls-9" d="M387.27,238.43a57.47,57.47,0,0,0,30.24-8.06s-7.64,15.7-30.24,13.59Z"/><path class="cls-6" d="M399.33,173.13c.3.85,3.42.44,7.07.89s6.61,1.43,7.1.67c.22-.36-.3-1.16-1.49-2a12.41,12.41,0,0,0-10.8-1.19C399.87,172.06,399.19,172.73,399.33,173.13Z"/><path class="cls-6" d="M371.24,169c.55.71,2.7,0,5.28-.06s4.77.48,5.27-.26c.22-.36-.12-1.07-1.08-1.74a7.3,7.3,0,0,0-4.29-1.16,7.38,7.38,0,0,0-4.21,1.42C371.3,167.91,371,168.64,371.24,169Z"/><path class="cls-8" d="M434.81,188c.33-.16,12.09-5.36,12.23,8.16s-13.47,10.87-13.5,10.48S434.81,188,434.81,188Z"/><path class="cls-9" d="M437.62,201.46c.06,0,.24.16.64.34a2.3801,2.3801,0,0,0,1.76,0c1.42-.54,2.6-2.82,2.64-5.26a7.56959,7.56959,0,0,0-.69-3.36,2.7,2.7,0,0,0-1.79-1.79,1.19,1.19,0,0,0-1.38.66c-.18.38-.09.65-.16.67s-.3-.22-.19-.78a1.49,1.49,0,0,1,.52-.85,1.76008,1.76008,0,0,1,1.3-.36,3.31,3.31,0,0,1,2.48,2.07,8.00016,8.00016,0,0,1,.86,3.76c-.06,2.72-1.43,5.29-3.38,5.87a2.53992,2.53992,0,0,1-2.16-.33C437.65,201.79,437.58,201.48,437.62,201.46Z"/><path class="cls-6" d="M384.93,132.88c-7.52,3.89-10.62,19.27-7.51,27.15s11.5,11.72,19.77,13.53a50.318,50.318,0,0,0,24.54-.24c.56,5.48,3.85,11.11,9.17,12.56,7.05,1.91,14.15-4.54,15.72-11.67s-.79-14.47-3.11-21.4"/><path class="cls-6" d="M444.58,181.93a9.78871,9.78871,0,0,1-1.05,1,35.31893,35.31893,0,0,1-3.11,2.35,19.23951,19.23951,0,0,1-5.26,2.55,11.36987,11.36987,0,0,1-7.17-.11,11.09008,11.09008,0,0,1-5.43-4.69,15.07,15.07,0,0,1-1.95-5.52,20.13925,20.13925,0,0,1-.21-3.92,4.36971,4.36971,0,0,1,.17-1.42c.15,0,0,2.05.58,5.24a15.51966,15.51966,0,0,0,2,5.24,10.67014,10.67014,0,0,0,5.09,4.34,10.94,10.94,0,0,0,6.71.14,20.21957,20.21957,0,0,0,5.15-2.31C442.88,183.08,444.5,181.82,444.58,181.93Z"/><path class="cls-9" d="M390.34,210.24a12.78009,12.78009,0,0,0,1.68,3.29,4.36009,4.36009,0,0,0,3.11,1.81,3.99994,3.99994,0,0,0,3.32-1.81,6.30991,6.30991,0,0,0,.92-3.78c-.05-1.19-.6-2.61-1.78-2.75a2.89981,2.89981,0,0,0-1.43.32l-6.22,2.52"/><path class="cls-6" d="M392.82,215.35c0-.19,1.4.36,3.32-.41a4.71977,4.71977,0,0,0,2.51-2.27,4.99994,4.99994,0,0,0,.08-4.07,4.71125,4.71125,0,0,0-.54-.93c-.25-.26-.21-.25-.47-.21a6.55314,6.55314,0,0,0-1,.39l-1,.42c-1.33.54-2.54,1-3.55,1.39-2,.76-3.33,1.16-3.39,1s1.12-.8,3.08-1.74c1-.47,2.15-1,3.46-1.61l1-.45c.37-.15.64-.31,1.14-.47a1.45983,1.45983,0,0,1,.92,0,1.70032,1.70032,0,0,1,.69.54,5.69005,5.69005,0,0,1,.51,6.15,5.26992,5.26992,0,0,1-3.16,2.55,4.93009,4.93009,0,0,1-2.69.11C393.09,215.63,392.8,215.42,392.82,215.35Z"/><path class="cls-7" d="M450,178.73c-1.38-.1-12.55,1.35-11.67,22.1.82,19.39,14.42,15.12,18.76,7.82C461.17,201.74,463.55,179.68,450,178.73Z"/><path class="cls-7" d="M456.87,181.18a3.37158,3.37158,0,0,1-.05-.54c0-.41,0-.93-.06-1.59,0-1.43-.1-3.43-.17-5.91-.1-5.09-.24-12.18-.41-20.35l.25.24h-5.75l.26-.26c0,1.54.08,3.17.13,4.83.19,7.78.37,15,.52,21.11v.18h-.17a10.41,10.41,0,0,0-5.93,3.82,13.99984,13.99984,0,0,0-2.37,5,22.05611,22.05611,0,0,0-.61,3.55c0,.41-.05.73-.06.94a2.80751,2.80751,0,0,0,0,.33,1.39138,1.39138,0,0,1,0-.33v-.95a18.60113,18.60113,0,0,1,.5-3.6,14.00042,14.00042,0,0,1,2.33-5.16,10.78007,10.78007,0,0,1,6.11-4l-.17.22c-.17-6.07-.38-13.32-.6-21.11-.05-1.65-.09-3.28-.13-4.83v-.27h6.27v.25c.09,8.18.17,15.26.23,20.36v7.49A2.15,2.15,0,0,1,456.87,181.18Z"/><path class="cls-7" d="M450,152.78s-5.84-13.66-19.75-20.41a83.17165,83.17165,0,0,0-16.67-6.18s8.12-1.92,21.25,3.92c6,2.66,12,6.11,16,11.3,2.52,3.29,5.68,9.72,5.67,11.37Z"/><path class="cls-11" d="M414,318.25s.08-.1.25-.27.43-.43.75-.78a37.10746,37.10746,0,0,0,2.7-3.2,52.25884,52.25884,0,0,0,3.65-5.6c1.3-2.27,2.66-4.95,4.13-7.94,2.95-6,6.36-13.22,9.9-21.52,1.76-4.15,3.56-8.56,5.36-13.21l1.34-3.52a20.43925,20.43925,0,0,1,1.61-3.55,7.33984,7.33984,0,0,1,2.9-2.76,4.1202,4.1202,0,0,1,2-.51,2.06984,2.06984,0,0,1,1.06.38,2.26966,2.26966,0,0,1,.67.9v.15a3.46018,3.46018,0,0,1-.54,1.33,2.1,2.1,0,0,1-1.25.82,4.52991,4.52991,0,0,1-2.79-.51,4.42,4.42,0,0,1-2.47-4.85,3.89,3.89,0,0,1,1.63-2.44,4.54012,4.54012,0,0,1,2.84-.81,3.13,3.13,0,0,1,2.62,1.45,1.51,1.51,0,0,1-.1,1.63,2.88,2.88,0,0,1-1.27.92A4.17,4.17,0,0,1,444.2,253a3.51021,3.51021,0,0,1-.65-2.52,4.32969,4.32969,0,0,1,1-2.36,3.62009,3.62009,0,0,1,2.25-1.24,2.88,2.88,0,0,1,2.43.84,1.8,1.8,0,0,1,.48,1.27,1.68,1.68,0,0,1-.58,1.23,2.8,2.8,0,0,1-2.44.66,3.07,3.07,0,0,1-1.95-1.56,6.43026,6.43026,0,0,1-.73-2.31,8.18,8.18,0,0,1,.53-4.66,3.47,3.47,0,0,1,1.71-1.69,3.13007,3.13007,0,0,1,2.37.08,2.25,2.25,0,0,1,1.47,1.85,2.06,2.06,0,0,1-1.27,2,2.52,2.52,0,0,1-2.3,0,3.18,3.18,0,0,1-1.43-1.76,4.38979,4.38979,0,0,1-.13-2.18,9.91988,9.91988,0,0,1,.46-2.08,3.80991,3.80991,0,0,1,1.21-1.77,4.84976,4.84976,0,0,1,1.89-.93,2,2,0,0,1,1.1,0,2.32975,2.32975,0,0,1,.91.58,2.61953,2.61953,0,0,1,.59.88,1.47006,1.47006,0,0,1,0,1.11,1.8,1.8,0,0,1-1.79,1,3.26006,3.26006,0,0,1-1.88-.63,5.16,5.16,0,0,1-2-3.15A5.31009,5.31009,0,0,1,446,232a4.04989,4.04989,0,0,1,1.13-1.37,3.65047,3.65047,0,0,1,1.59-.69,2.57007,2.57007,0,0,1,1.7.24,1.77,1.77,0,0,1,.92,1.41,2.49,2.49,0,0,1-1.88,2.4,2.72,2.72,0,0,1-2.72-1,4.35978,4.35978,0,0,1-1-2.56,16.00038,16.00038,0,0,1,1-4.78c.41-1.44.78-2.76,1.12-3.94.67-2.35,1.19-4.18,1.56-5.44.17-.61.31-1.08.41-1.41s.16-.48.16-.48a1.69972,1.69972,0,0,1-.11.49c-.11.32-.21.82-.36,1.43-.34,1.27-.84,3.11-1.47,5.46l-1.07,3.95a17.04873,17.04873,0,0,0-.93,4.7,4.15987,4.15987,0,0,0,1,2.38,2.43,2.43,0,0,0,2.4.9,2.16,2.16,0,0,0,1.62-2,1.43,1.43,0,0,0-.74-1.13,2.26987,2.26987,0,0,0-1.46-.19,3.26958,3.26958,0,0,0-1.44.63,3.76018,3.76018,0,0,0-1,1.25,5.00011,5.00011,0,0,0-.37,3.3,4.78008,4.78008,0,0,0,1.86,2.89,2.92985,2.92985,0,0,0,1.64.55,1.37,1.37,0,0,0,1.38-.73,1.52994,1.52994,0,0,0-.53-1.52,2.00022,2.00022,0,0,0-.73-.47,1.71985,1.71985,0,0,0-.87,0,3.8,3.8,0,0,0-2.77,2.43,9.08972,9.08972,0,0,0-.43,2,3.88984,3.88984,0,0,0,.12,2,2.62993,2.62993,0,0,0,1.2,1.49,2.09008,2.09008,0,0,0,1.87,0,1.57,1.57,0,0,0,1-1.49,1.77,1.77,0,0,0-1.17-1.43,2.7201,2.7201,0,0,0-2-.07,3,3,0,0,0-1.45,1.45,7.77006,7.77006,0,0,0-.47,4.37,6.00033,6.00033,0,0,0,.67,2.13,2.58,2.58,0,0,0,1.61,1.31,2.28,2.28,0,0,0,2-.53,1.24,1.24,0,0,0,.10666-1.75036q-.01785-.02023-.03665-.03965a2.39007,2.39007,0,0,0-2-.67,3.07,3.07,0,0,0-1.92,1.08,3.44,3.44,0,0,0-.36,4.23,3.67,3.67,0,0,0,4.18,1.18,2.49,2.49,0,0,0,1-.75,1,1,0,0,0,.06-1.08,2.63,2.63,0,0,0-2.19-1.17,3.75,3.75,0,0,0-3.93,2.83A3.86,3.86,0,0,0,446,258a3.93,3.93,0,0,0,2.45.48,2,2,0,0,0,1.4-1.75v.15a1.5,1.5,0,0,0-1.31-1,3.56975,3.56975,0,0,0-1.77.46,6.79994,6.79994,0,0,0-2.71,2.58,19.53046,19.53046,0,0,0-1.57,3.45l-1.36,3.53c-1.8,4.64-3.62,9-5.4,13.2-3.56,8.3-7,15.54-10,21.5-1.49,3-2.87,5.65-4.2,7.92a51.29494,51.29494,0,0,1-3.73,5.57A26.28714,26.28714,0,0,1,414,318.25Z"/><path class="cls-7" d="M462.09,169a13.12066,13.12066,0,0,0-.91-3.7,14.57007,14.57007,0,0,0-7.18-7.19,19.39021,19.39021,0,0,0-6.92-1.69,32.56008,32.56008,0,0,0-8.21.62c-5.73,1.06-11.75,3.53-18.49,4.55a37.701,37.701,0,0,1-9.9,0,39.84057,39.84057,0,0,1-8.9-2.42,39.2802,39.2802,0,0,1-13-8.56,34.99919,34.99919,0,0,1-6.28-8.4,11.895,11.895,0,0,1-.74-1.47l-.48-1.11c-.12-.27-.21-.5-.29-.68a.85936.85936,0,0,1-.08-.24,1.00129,1.00129,0,0,1,.13.22l.33.66.53,1.08a12.54485,12.54485,0,0,0,.78,1.45,36.41026,36.41026,0,0,0,6.36,8.23,38.9999,38.9999,0,0,0,21.67,10.73,37.07006,37.07006,0,0,0,9.76,0c6.65-1,12.68-3.46,18.48-4.5a32.75976,32.75976,0,0,1,8.32-.58,19.45,19.45,0,0,1,7.05,1.79,14.59,14.59,0,0,1,7.21,7.44,10.91115,10.91115,0,0,1,.69,2.78v.74A.86.86,0,0,1,462.09,169Z"/><path class="cls-7" d="M447,147.45a4.86888,4.86888,0,0,1-.72.12c-.47.07-1.17.17-2.06.33-1.78.29-4.33.86-7.47,1.64a79.47825,79.47825,0,0,1-11.19,2.17,56.22971,56.22971,0,0,1-13.94-.31,59.00113,59.00113,0,0,1-13.47-3.62A56.99873,56.99873,0,0,1,388,142.53c-1.34-.91-2.54-1.75-3.56-2.55s-1.88-1.49-2.54-2.11l-1.52-1.43c-.34-.33-.52-.51-.5-.53a3.90931,3.90931,0,0,1,.57.45l1.58,1.35c.68.6,1.59,1.24,2.59,2s2.24,1.59,3.58,2.47a60.33006,60.33006,0,0,0,23.46,8.67,57.39049,57.39049,0,0,0,13.83.34,81.6876,81.6876,0,0,0,11.14-2c3.15-.73,5.73-1.25,7.53-1.49.9-.12,1.6-.19,2.08-.22A3.67971,3.67971,0,0,1,447,147.45Z"/><path class="cls-6" d="M448.48,214.45a1.90939,1.90939,0,0,1-.39-.12,6.36209,6.36209,0,0,1-1-.53,9.18017,9.18017,0,0,1-2.93-3.12,15.07,15.07,0,0,1-1.8-6.09,43.66746,43.66746,0,0,1,0-7.76,47.281,47.281,0,0,1,1.28-7.65,22.07038,22.07038,0,0,1,2.23-5.93,9.15986,9.15986,0,0,1,3-3.11,5.47806,5.47806,0,0,1,1-.52c.25-.09.39-.13.39-.11a12.17957,12.17957,0,0,0-1.32.8,9.59045,9.59045,0,0,0-2.74,3.12,22.50025,22.50025,0,0,0-2.08,5.87,49.99565,49.99565,0,0,0-1.24,7.58,46.74874,46.74874,0,0,0,0,7.66,15.21,15.21,0,0,0,1.64,6,9.3597,9.3597,0,0,0,2.72,3.14C448,214.21,448.51,214.4,448.48,214.45Z"/><rect class="cls-7" x="390.87751" y="212.31045" width="16.16" height="6.09" rx="2.85001" transform="translate(-33.99722 80.83681) rotate(-11.1)"/><path class="cls-7" d="M405.47,212.88,452.92,198a2.24,2.24,0,0,1,2.8,1.45h0a2.25,2.25,0,0,1-1.46472,2.8248q-.04239.01346-.08527.02518l-48.52,13.1Z"/><path class="cls-6" d="M440.54,206.34a10.62082,10.62082,0,0,1,1.57-.55l4.34-1.32c1.82-.56,4.06-1.16,6.42-1.93a4.3,4.3,0,0,0,1.55-1,2.33994,2.33994,0,0,0,.67-1.65,1.44,1.44,0,0,0-1-1.36,3.63,3.63,0,0,0-2,.06l-14.23,4.58-4.33,1.34A9.9087,9.9087,0,0,1,432,205a10.71044,10.71044,0,0,1,1.55-.61l4.28-1.5c3.63-1.23,8.61-2.94,14.21-4.73a4.1005,4.1005,0,0,1,2.28,0,2,2,0,0,1,1.32,1.84,2.84,2.84,0,0,1-.82,2,4.7998,4.7998,0,0,1-1.82,1c-2.45.77-4.64,1.31-6.49,1.83L442.17,206A8.87156,8.87156,0,0,1,440.54,206.34Z"/><path class="cls-6" d="M363,170c1.62,5.7-4.17,10.59-6.21,16.16-2,5.38-.3,11.41,2.13,16.61s5.63,10.12,6.87,15.71c3.07,13.8-9.41,28.67-7,42.6.86,5.08,2.91,10.38,4.68,15.21a20.10011,20.10011,0,0,1,0,14.13c-2.7,8-7.28,11.75-10.5,19.53-1.65,4-1.52,8.44-1.44,12.74s.06,8.8-1.86,12.66-6.3,6.84-10.46,5.72a15.33,15.33,0,0,0,18.32,3.49c5.47-2.92,8.53-8.84,11.15-14.46,12.68-27.21,19.39-29.51,19-59.53,0-1.93-.38-32-.38-32a30.00082,30.00082,0,0,1-7.49-3.15c-14.16-9.78-14.68-27.2-14.57-40.71"/><path class="cls-8" d="M391.3,261.08v11.33s-8.71,44.45-11.33,69.14-3.05,31.21-3.05,31.21,6.25,9.75,19.32-6.81,15.4-19.17,20.63-19.46c0,0-6.39-69.43-6.1-72a10.49008,10.49008,0,0,1,2.32-4.94Z"/><path class="cls-8" d="M408.44,235.52S394.21,254.4,393.05,257s-1.75,4.06-1.75,4.06l21.79,8.43,21.21-23.24,7.84-20.63-2.33-24.4s-4.64-.29-5.51,3.78a30.57066,30.57066,0,0,0-.59,7.84l-6.5-5.23-10.49-3.19s-2.47,4.06,1.6,6.1,5.23,2,5.23,2l3.66,6.39-1.6,7.16-7.42-7a4.23,4.23,0,0,0-5.4-.34l-4.8,3.48-4.49-2L394.79,228l-3.49,3.19a5.37184,5.37184,0,0,0,7,2.33l4.65-2Z"/><path class="cls-9" d="M391.3,264.91a4.70643,4.70643,0,0,1,0-.61,16.92919,16.92919,0,0,1,.14-1.77,20.81589,20.81589,0,0,1,.55-2.85,12.64072,12.64072,0,0,1,1.52-3.66c3.26-5,8.39-12,14.79-20.61v.26l-5.52-4.06h.19l-2.87,1.27a19.86267,19.86267,0,0,1-3.06,1.19,5.00008,5.00008,0,0,1-3.4-.39,6.26,6.26,0,0,1-2.56-2.44l-.08-.14.13-.12c3.74-3.52,7.91-7.07,12.19-10.87l.13-.11.14.08,3.87,2.29h-.25l4.52-3c.79-.51,1.5-1,2.35-1.52a2.82,2.82,0,0,1,2.92.25l8.81,7.45-.41.14c.48-2.15,1-4.48,1.52-6.83v.18l-3.66-6.39.23.13a7.28933,7.28933,0,0,1-1.81-.49c-.57-.21-1.14-.45-1.71-.7s-1.13-.53-1.69-.8c-.29-.14-.57-.33-.85-.49a5.29013,5.29013,0,0,1-.76-.66,3.6802,3.6802,0,0,1-1-2.67,5.89,5.89,0,0,1,.77-2.72l.1-.17.2.06,10.48,3.2h.05l6.5,5.23-.41.22a31.05934,31.05934,0,0,1,.55-7.73,4.71,4.71,0,0,1,2.12-3.22,6.74044,6.74044,0,0,1,3.7-.93H440v.22c.82,8.67,1.59,16.85,2.3,24.4h0v.05c-2.9,7.6-5.54,14.5-7.88,20.61h0L418,264.31l-4.46,4.83c-.51.53-.9.95-1.17,1.24l-.41.41s.12-.16.37-.45l1.13-1.27,4.4-4.89,16.34-18v.05l7.8-20.64v.1c-.73-7.55-1.51-15.72-2.35-24.4l.23.23a6.16,6.16,0,0,0-3.4.86,4.17994,4.17994,0,0,0-1.89,2.9,29.999,29.999,0,0,0-.54,7.59v.58l-.45-.36L427,207.83h.09l-10.48-3.19.29-.12a5.45011,5.45011,0,0,0-.69,2.46,3.17006,3.17006,0,0,0,.86,2.31,5.3704,5.3704,0,0,0,.67.58c.27.15.51.31.79.45.56.27,1.11.55,1.67.79a14.69188,14.69188,0,0,0,3.31,1.15h.16l.06.1,3.66,6.39.05.09v.1c-.53,2.35-1,4.68-1.53,6.83l-.09.42-.33-.28-8.78-7.43a2.31,2.31,0,0,0-2.4-.22c-.74.44-1.54,1-2.3,1.49l-4.53,3-.12.08-.13-.07-3.87-2.3h.28c-4.28,3.78-8.46,7.33-12.21,10.83l.05-.26a5.7699,5.7699,0,0,0,2.36,2.26,4.51005,4.51005,0,0,0,3.12.36,19.80185,19.80185,0,0,0,3-1.15l2.87-1.26h.11l.09.06,5.51,4.08.15.11-.11.15c-6.43,8.61-11.61,15.55-14.91,20.5a13.00007,13.00007,0,0,0-1.55,3.59,23.179,23.179,0,0,0-.59,2.82c-.11.77-.16,1.37-.19,1.76S391.3,264.91,391.3,264.91Z"/><path class="cls-9" d="M418.26,239.89c-.1,0,.28-1.54.44-4a9.18016,9.18016,0,0,0-.68-4.2,11.22969,11.22969,0,0,0-3.47-3.9,86.205,86.205,0,0,0-8.07-5.49l-2.55-1.5a4.90012,4.90012,0,0,1-.92-.59,3.59949,3.59949,0,0,1,1,.41c.64.29,1.55.75,2.65,1.36a66.85727,66.85727,0,0,1,8.2,5.4,11.23032,11.23032,0,0,1,3.58,4.11,9.00036,9.00036,0,0,1,.62,4.42,18.80871,18.80871,0,0,1-.49,2.94A3.8893,3.8893,0,0,1,418.26,239.89Z"/><path class="cls-9" d="M433.51,230.83a19.52258,19.52258,0,0,1,.37-2.62,41.002,41.002,0,0,0,.45-6.3,41.84013,41.84013,0,0,0-.56-6.31,20.31679,20.31679,0,0,1-.41-2.6,10.00068,10.00068,0,0,1,.77,2.53,30.88971,30.88971,0,0,1,.11,12.75A10.00079,10.00079,0,0,1,433.51,230.83Z"/></g><g id="freepik--speech-bubble--inject-35"><path class="cls-11" d="M336.4,156.73,326,138.36a49.21,49.21,0,1,0-11.79,13.12h0Z"/><path class="cls-6" d="M336.4,156.73l-22.26-5.1h-.19l.12-.16h0l.18.18a50.11868,50.11868,0,0,1-10.11,6.09,49.13006,49.13006,0,0,1-13.47,3.84,44.14882,44.14882,0,0,1-7.78.39c-1.33-.07-2.7-.11-4.07-.22l-4.15-.63A49.51994,49.51994,0,0,1,244,141.34a48.89,48.89,0,0,1-8.3-19,49.99979,49.99979,0,0,1,.58-21.85,48.42008,48.42008,0,0,1,10.53-20.2l2-2.21a28.89933,28.89933,0,0,1,2.16-2,29.34783,29.34783,0,0,1,2.23-2l2.36-1.76A20.99963,20.99963,0,0,1,258,70.76l2.49-1.51L263.1,68a21.27916,21.27916,0,0,1,2.63-1.17,50.25012,50.25012,0,0,1,22-3.39,48.55026,48.55026,0,0,1,20.2,6,49.77989,49.77989,0,0,1,23.32,28.69,52.93059,52.93059,0,0,1,2.14,16,48.60074,48.60074,0,0,1-2.4,13.79,49.57954,49.57954,0,0,1-4.93,10.58v-.13l10.31,18.43c-.44-.77-3.78-6.56-10.53-18.31v-.12a49.89024,49.89024,0,0,0,4.85-10.54,48.91974,48.91974,0,0,0,2.33-13.71,52.71934,52.71934,0,0,0-2.17-15.85,49.42,49.42,0,0,0-23.16-28.39,48.15012,48.15012,0,0,0-20-5.89,49.67989,49.67989,0,0,0-21.79,3.37,20.80911,20.80911,0,0,0-2.6,1.16l-2.58,1.25-2.47,1.5a18.31081,18.31081,0,0,0-2.41,1.6l-2.34,1.74c-.79.56-1.46,1.29-2.2,1.92a23.7789,23.7789,0,0,0-2.14,2l-2,2.18a47.99989,47.99989,0,0,0-10.42,20,49.64006,49.64006,0,0,0-.59,21.63,48.50988,48.50988,0,0,0,8.2,18.79,49.28,49.28,0,0,0,30.38,19.59l4.11.63c1.36.12,2.72.15,4,.23a44.48122,44.48122,0,0,0,7.72-.36,48.87,48.87,0,0,0,23.47-9.78l.78-.6-.6.79h0l-.08-.21Z"/><path class="cls-6" d="M273.47,112.63a4,4,0,1,1-4-4A4,4,0,0,1,273.47,112.63Z"/><path class="cls-6" d="M289.43,112.63a4,4,0,1,1-4-4A4,4,0,0,1,289.43,112.63Z"/><path class="cls-6" d="M305.36,110.63a4,4,0,1,1-5.468-1.44963l.018-.01037A4,4,0,0,1,305.36,110.63Z"/></g><g id="freepik--Table--inject-35"><path class="cls-6" d="M533,426.14c0,.15-101.66.26-227,.26s-227-.11-227-.26,101.63-.26,227.05-.26S533,426,533,426.14Z"/></g><g id="freepik--Device--inject-35"><path class="cls-7" d="M404.55,426.39a26.84,26.84,0,0,1,21.39-12.08c14.61-.5,21.91,12.08,21.91,12.08Z"/><path class="cls-6" d="M432.55,426a16.22858,16.22858,0,0,1-.43-2.18,14.09017,14.09017,0,0,0-5.79-8.52,18.50161,18.50161,0,0,1-1.87-1.2,5.22,5.22,0,0,1,2.11.82,12.39006,12.39006,0,0,1,6,8.82A5.27,5.27,0,0,1,432.55,426Z"/><path class="cls-7" d="M395.51,425.86v-.1a5.6,5.6,0,0,0-5.61-5.51H265.56a5.61,5.61,0,0,0-5.61,5.61H395.51Z"/><path class="cls-6" d="M157.47,208c0,2.62,2,158.78,2,158.78l116,27.91H285l-6.1-218h-8.72Z"/><path class="cls-6" d="M182,360.29l-35.95,65.88h32.86c-5.88-.58,52,0,52,0l-52-13.79,16.27-36.95-1.39-15.14Z"/><polygon class="cls-6" points="182.8 372.45 178.91 249.65 214.23 246.27 218.58 377.38 205.97 378.02 182.8 372.45"/><path class="cls-7" d="M223.52,382.24v-8.77c0-5.71-.05-14-.08-24.43,0-20.87-.05-50.24-.09-84.3l.25.25H181.85l.26-.26v5.66c0,33.22,0,64.13-.05,89.89h0v.05c-10.82,19.83-19.79,36.29-26.07,47.79-3.14,5.74-5.61,10.24-7.3,13.32-.84,1.52-1.49,2.68-1.93,3.49s-.69,1.18-.69,1.18.21-.42.63-1.21,1.06-2,1.87-3.53c1.67-3.09,4.1-7.61,7.2-13.37l25.9-47.88v-95.7h42.18v.25c0,34.06-.07,63.43-.09,84.3,0,10.42-.06,18.72-.08,24.43v8.2A1.276,1.276,0,0,1,223.52,382.24Z"/><path class="cls-7" d="M195.18,375.43c.13.05-4.87,11.62-11.17,25.82s-11.52,25.68-11.65,25.62,4.87-11.62,11.17-25.83S195.05,375.37,195.18,375.43Z"/><path class="cls-7" d="M275.42,394.73v-2.21c0-1.47-.05-3.6-.08-6.34,0-5.5-.17-13.46-.36-23.3-.37-19.68-1.26-46.85-2.35-76.86s-1.92-57.21-2.2-76.89c-.15-9.84-.22-17.81-.19-23.31v-6.34c0,1.47,0,3.6.08,6.34,0,5.5.16,13.46.36,23.3C271.11,228.8,272,256,273.09,286s1.92,57.19,2.2,76.87c.15,9.84.21,17.81.19,23.31v7.99A1.87987,1.87987,0,0,1,275.42,394.73Z"/><path class="cls-7" d="M217.19,263.83c.15,0,.26,26.12.26,58.33s-.11,58.33-.26,58.33-.26-26.11-.26-58.33S217.05,263.83,217.19,263.83Z"/><path class="cls-7" d="M154.7,415.89a4.38905,4.38905,0,0,1-.5-.7c-.17-.24-.36-.53-.58-.86a11.61338,11.61338,0,0,1-.72-1.22,30.7706,30.7706,0,0,1-3.17-8.45,41.85947,41.85947,0,0,1-.62-13.37,53.50016,53.50016,0,0,1,4.34-15.81,32.83071,32.83071,0,0,1,4.53-7.21,18.2056,18.2056,0,0,1,1.33-1.56c.46-.5.9-1,1.36-1.48,1-.91,1.87-1.84,2.86-2.63a46.1033,46.1033,0,0,1,5.81-4.21c1-.54,1.91-1.11,2.85-1.56a29.596,29.596,0,0,1,2.73-1.25,31.27864,31.27864,0,0,1,8.72-2.32,16.46872,16.46872,0,0,1,2.45-.15,5.16011,5.16011,0,0,1,.86,0,6.66579,6.66579,0,0,1-.85.09,21.58063,21.58063,0,0,0-2.43.25,32.77,32.77,0,0,0-8.61,2.46c-.89.33-1.75.83-2.69,1.26a29.86062,29.86062,0,0,0-2.81,1.58,46.14482,46.14482,0,0,0-5.72,4.21c-1,.78-1.87,1.71-2.82,2.61-.45.47-.89,1-1.34,1.46a19.38053,19.38053,0,0,0-1.3,1.55,32.4999,32.4999,0,0,0-4.46,7.11,53.61015,53.61015,0,0,0-4.33,15.64,42.2397,42.2397,0,0,0,.5,13.24,32.31926,32.31926,0,0,0,3,8.43,10.639,10.639,0,0,0,.68,1.24l.53.89A6.44381,6.44381,0,0,1,154.7,415.89Z"/></g></svg>