<svg width="395" height="343" viewBox="0 0 395 343" fill="none" xmlns="http://www.w3.org/2000/svg">
<g clip-path="url(#clip0_4180_4074)">
<path d="M443.941 290.439H-56.0586V290.689H443.941V290.439Z" fill="#EBEBEB"/>
<path d="M393.843 306.535H360.721V306.785H393.843V306.535Z" fill="#EBEBEB"/>
<path d="M275.162 309.25H266.469V309.5H275.162V309.25Z" fill="#EBEBEB"/>
<path d="M359.719 297.25H340.527V297.5H359.719V297.25Z" fill="#EBEBEB"/>
<path d="M39.5934 298.93H-3.59961V299.18H39.5934V298.93Z" fill="#EBEBEB"/>
<path d="M54.831 298.93H48.498V299.18H54.831V298.93Z" fill="#EBEBEB"/>
<path d="M169.088 303.152H75.4121V303.402H169.088V303.152Z" fill="#EBEBEB"/>
<path d="M397.252 245.842H204.154C201.007 245.842 198.447 243.281 198.447 240.134V-31.2979C198.447 -34.4449 201.008 -37.0059 204.154 -37.0059H397.252C400.4 -37.0059 402.96 -34.4449 402.96 -31.2979V240.134C402.961 243.281 400.4 245.842 397.252 245.842ZM204.154 -36.7549C201.145 -36.7549 198.697 -34.3069 198.697 -31.2969V240.135C198.697 243.145 201.145 245.593 204.154 245.593H397.252C400.262 245.593 402.71 243.145 402.71 240.135V-31.2979C402.71 -34.3069 400.262 -36.7559 397.252 -36.7559L204.154 -36.7549Z" fill="#EBEBEB"/>
<path d="M186.28 81.918H44.2949V290.087H186.28V81.918Z" fill="#F0F0F0"/>
<path d="M181.261 88.4707H49.3145V126.918H181.261V88.4707Z" fill="#E0E0E0"/>
<path d="M56.8095 94.6953H49.3145V126.918H56.8095V94.6953Z" fill="#EBEBEB"/>
<path d="M93.0526 94.6953H85.5566V126.918H93.0526V94.6953Z" fill="#EBEBEB"/>
<path d="M134.196 93.9049L126.809 95.1777L132.28 126.934L139.667 125.661L134.196 93.9049Z" fill="#EBEBEB"/>
<path d="M66.0966 98.9414H58.6016V126.917H66.0966V98.9414Z" fill="#EBEBEB"/>
<path d="M83.3251 98.9414H75.8301V126.917H83.3251V98.9414Z" fill="#EBEBEB"/>
<path d="M126.811 98.9414H119.316V126.917H126.811V98.9414Z" fill="#EBEBEB"/>
<path d="M102.898 97.9854L95.5801 99.6113L101.648 126.921L108.966 125.296L102.898 97.9854Z" fill="#EBEBEB"/>
<path d="M72.58 93.0938H68.832V126.916H72.58V93.0938Z" fill="#EBEBEB"/>
<path d="M117.162 93.0938H113.414V126.916H117.162V93.0938Z" fill="#EBEBEB"/>
<path d="M49.3147 171.453L181.262 171.453V133.006H49.3147V171.453Z" fill="#E0E0E0"/>
<path d="M173.767 171.453H181.262V139.231H173.767V171.453Z" fill="#EBEBEB"/>
<path d="M137.524 171.453H145.02V139.231H137.524V171.453Z" fill="#EBEBEB"/>
<path d="M90.893 170.179L98.2793 171.451L103.751 139.695L96.3644 138.423L90.893 170.179Z" fill="#EBEBEB"/>
<path d="M164.479 171.453H171.975V143.477H164.479V171.453Z" fill="#EBEBEB"/>
<path d="M147.25 171.453H154.746V143.477H147.25V171.453Z" fill="#EBEBEB"/>
<path d="M103.764 171.453H111.26V143.477H103.764V171.453Z" fill="#EBEBEB"/>
<path d="M121.611 169.824L128.928 171.449L134.996 144.139L127.679 142.513L121.611 169.824Z" fill="#EBEBEB"/>
<path d="M157.996 171.453H161.744V137.631H157.996V171.453Z" fill="#EBEBEB"/>
<path d="M113.414 171.453H117.162V137.631H113.414V171.453Z" fill="#EBEBEB"/>
<path d="M56.8095 139.23H49.3145V171.452H56.8095V139.23Z" fill="#EBEBEB"/>
<path d="M66.0966 143.477H58.6016V171.453H66.0966V143.477Z" fill="#EBEBEB"/>
<path d="M83.3251 143.477H75.8301V171.453H83.3251V143.477Z" fill="#EBEBEB"/>
<path d="M72.58 137.631H68.832V171.453H72.58V137.631Z" fill="#EBEBEB"/>
<path d="M181.263 177.539H49.3164V215.986H181.263V177.539Z" fill="#E0E0E0"/>
<path d="M132.545 183.762H125.049V215.985H132.545V183.762Z" fill="#EBEBEB"/>
<path d="M173.684 182.975L166.297 184.248L171.768 216.004L179.156 214.731L173.684 182.975Z" fill="#EBEBEB"/>
<path d="M105.588 188.008H98.0918V215.984H105.588V188.008Z" fill="#EBEBEB"/>
<path d="M122.817 188.008H115.322V215.984H122.817V188.008Z" fill="#EBEBEB"/>
<path d="M166.303 188.008H158.807V215.984H166.303V188.008Z" fill="#EBEBEB"/>
<path d="M142.389 187.052L135.072 188.678L141.14 215.988L148.457 214.362L142.389 187.052Z" fill="#EBEBEB"/>
<path d="M112.07 182.162H108.322V215.984H112.07V182.162Z" fill="#EBEBEB"/>
<path d="M156.654 182.162H152.906V215.984H156.654V182.162Z" fill="#EBEBEB"/>
<path d="M87.4479 182.971L80.0605 184.244L85.532 216L92.9193 214.727L87.4479 182.971Z" fill="#EBEBEB"/>
<path d="M80.0702 188.008H72.5742V215.984H80.0702V188.008Z" fill="#EBEBEB"/>
<path d="M56.1545 187.05L48.8379 188.676L54.9059 215.986L62.2225 214.36L56.1545 187.05Z" fill="#EBEBEB"/>
<path d="M70.4199 182.162H66.6719V215.984H70.4199V182.162Z" fill="#EBEBEB"/>
<path d="M19.7999 290.633H44.2949L44.2949 81.9178H19.7999L19.7999 290.633Z" fill="#E0E0E0"/>
<path d="M269.378 285.185H248.566L259.507 196.078C259.97 192.306 263.403 189.248 267.175 189.248H274.327H357.984L344.672 285.185H269.378Z" fill="#F5F5F5"/>
<path d="M335.383 285.185H356.195L367.136 196.078C367.599 192.306 364.917 189.248 361.145 189.248H353.993C350.221 189.248 346.788 192.306 346.325 196.078L335.383 285.185Z" fill="#F0F0F0"/>
<path d="M327.717 285.079L331.488 241.98C331.656 240.055 333.144 238.508 335.061 238.263L336.612 238.065C339.183 237.737 341.178 235.661 341.404 233.079L342.092 225.221C342.374 222 339.835 219.23 336.602 219.23H371.383C374.616 219.23 377.155 222 376.873 225.221L376.185 233.079C375.959 235.661 373.964 237.737 371.393 238.065L369.842 238.263C367.925 238.508 366.438 240.055 366.27 241.98L362.499 285.079C362.224 288.221 359.593 290.632 356.439 290.632H321.658C324.811 290.632 327.442 288.221 327.717 285.079Z" fill="#E6E6E6"/>
<path d="M232.002 231.191C231.41 224.423 225.743 219.23 218.949 219.23H235.778H249.228C256.022 219.23 261.689 224.423 262.281 231.191L265.27 265.356H234.99L232.002 231.191Z" fill="#E6E6E6"/>
<path d="M205.498 219.23H218.948C225.742 219.23 231.409 224.423 232.001 231.191L234.99 265.355H307.107L310.096 231.19C310.688 224.422 316.355 219.229 323.149 219.229H336.599C339.832 219.229 342.371 221.999 342.089 225.22L341.401 233.078C341.175 235.66 339.18 237.736 336.609 238.064L335.058 238.262C333.141 238.507 331.654 240.054 331.485 241.979L327.714 285.078C327.439 288.22 324.808 290.631 321.654 290.631H220.442C217.288 290.631 214.657 288.22 214.382 285.078L210.611 241.979C210.443 240.054 208.955 238.507 207.039 238.262L205.488 238.064C202.917 237.736 200.922 235.66 200.696 233.078L200.008 225.22C199.726 222.001 202.265 219.23 205.498 219.23Z" fill="#F0F0F0"/>
<path d="M46.0988 71.5187C46.0988 71.5187 44.9908 64.2157 50.3178 59.5327C55.6438 54.8497 55.1758 52.0647 53.6538 51.7017C52.1318 51.3387 50.7268 56.0207 48.3858 57.3087C48.3858 57.3087 48.3118 50.6357 50.6898 48.1777C53.0678 45.7197 54.3158 39.3867 52.0528 39.2747C49.7898 39.1637 49.5558 43.0367 49.0878 45.7827C48.6198 48.5287 46.0978 52.3917 46.0978 52.3917C46.0978 52.3917 45.6058 46.4207 44.0688 43.9627C42.5318 41.5047 46.6298 35.8847 45.0488 33.4267C43.4688 30.9687 40.6588 35.6507 40.8928 40.9187C41.1268 46.1867 44.6388 51.8057 43.8198 57.3077C43.8198 57.3077 42.2708 53.4447 40.8798 53.0937C39.4888 52.7427 38.0838 50.1877 37.1478 49.2407C36.2108 48.2937 35.0408 51.5717 37.1478 54.6157C39.2548 57.6597 44.6398 65.8027 43.8208 72.3837L46.0988 71.5187Z" fill="#E6E6E6"/>
<path d="M49.2832 68.1973L51.0272 79.1433C51.5662 82.5233 48.9542 85.5843 45.5312 85.5843H43.6702C40.2472 85.5843 37.6352 82.5233 38.1742 79.1433L39.9182 68.1973H49.2832Z" fill="#E6E6E6"/>
<path d="M153.996 83.4355H159.428V60.0845H153.996V83.4355Z" fill="#EBEBEB"/>
<path d="M127.73 83.4355H133.162V60.0845H127.73V83.4355Z" fill="#EBEBEB"/>
<path d="M93.9358 82.5151L99.2891 83.4375L103.254 60.4251L97.9008 59.5027L93.9358 82.5151Z" fill="#EBEBEB"/>
<path d="M147.265 83.4355H152.697V63.1615H147.265V83.4355Z" fill="#EBEBEB"/>
<path d="M134.779 83.4355H140.211V63.1615H134.779V83.4355Z" fill="#EBEBEB"/>
<path d="M103.265 83.4355H108.697V63.1615H103.265V83.4355Z" fill="#EBEBEB"/>
<path d="M116.195 82.2573L121.498 83.4355L125.895 63.6441L120.593 62.4659L116.195 82.2573Z" fill="#EBEBEB"/>
<path d="M142.569 83.4355H145.285V58.9245H142.569V83.4355Z" fill="#EBEBEB"/>
<path d="M110.259 83.4355H112.975V58.9245H110.259V83.4355Z" fill="#EBEBEB"/>
<path d="M90.885 64.9004H64.418V83.1724H90.885V64.9004Z" fill="#EBEBEB"/>
<path d="M181.671 72.3848H159.498V86.0268H181.671V72.3848Z" fill="#EBEBEB"/>
<path d="M176.487 60.3945H165.4V74.0355H176.487V60.3945Z" fill="#EBEBEB"/>
<path d="M361.755 42.3438H335.385V152.229H361.755V42.3438Z" fill="#E0E0E0"/>
<path d="M260.307 152.52H358.924V42.3445L260.307 42.3445V152.52Z" fill="#E0E0E0"/>
<path d="M257.127 152.52H359.447V42.3445L257.127 42.3445V152.52Z" fill="#F0F0F0"/>
<path d="M261.496 147.457H355.24V45.858L261.496 45.858V147.457Z" fill="white"/>
<path d="M261.497 147.457H263.236V45.858H261.497V147.457Z" fill="#E0E0E0"/>
<path d="M262.943 118.918V121.658H355.484V118.918H262.943Z" fill="#E0E0E0"/>
<path d="M261.497 118.918L356.711 118.918V114.318L261.497 114.318V118.918Z" fill="#F0F0F0"/>
<path d="M193.942 335.603C301.024 335.603 387.831 330.534 387.831 324.28C387.831 318.027 301.024 312.957 193.942 312.957C86.8598 312.957 0.0527344 318.027 0.0527344 324.28C0.0527344 330.534 86.8598 335.603 193.942 335.603Z" fill="#F5F5F5"/>
<path d="M265.896 286.171H86.9762C82.9362 286.171 79.6602 282.896 79.6602 278.855V68.1832C79.6602 64.1432 82.9352 60.8672 86.9762 60.8672H265.895C269.935 60.8672 273.211 64.1422 273.211 68.1832V278.855C273.212 282.895 269.936 286.171 265.896 286.171Z" fill="#E21B22"/>
<path opacity="0.6" d="M265.896 286.171H86.9762C82.9362 286.171 79.6602 282.896 79.6602 278.855V68.1832C79.6602 64.1432 82.9352 60.8672 86.9762 60.8672H265.895C269.935 60.8672 273.211 64.1422 273.211 68.1832V278.855C273.212 282.895 269.936 286.171 265.896 286.171Z" fill="white"/>
<path d="M239.855 164.189H113.018C111.913 164.189 111.018 165.085 111.018 166.189V184.592C111.018 185.697 111.913 186.592 113.018 186.592H239.855C240.959 186.592 241.855 185.697 241.855 184.592V166.189C241.855 165.085 240.959 164.189 239.855 164.189Z" fill="white"/>
<g opacity="0.4">
<path d="M122.716 177.569V178.156H118.176V171.736H122.578V172.323H118.855V174.607H122.175V175.184H118.855V177.569H122.716Z" fill="#263238"/>
<path d="M123.633 175.387H126.036V175.955H123.633V175.387Z" fill="#263238"/>
<path d="M135.454 175.36V178.157H134.803V175.424C134.803 174.406 134.289 173.884 133.418 173.884C132.428 173.884 131.804 174.526 131.804 175.626V178.157H131.153V175.424C131.153 174.406 130.639 173.884 129.759 173.884C128.778 173.884 128.145 174.526 128.145 175.626V178.157H127.494V173.333H128.118V174.214C128.457 173.636 129.081 173.297 129.888 173.297C130.686 173.297 131.309 173.636 131.603 174.315C131.952 173.692 132.64 173.297 133.511 173.297C134.684 173.297 135.454 173.976 135.454 175.36Z" fill="#263238"/>
<path d="M140.865 175.166V178.156H140.241V177.404C139.948 177.899 139.379 178.202 138.581 178.202C137.49 178.202 136.82 177.633 136.82 176.799C136.82 176.056 137.297 175.433 138.682 175.433H140.213V175.139C140.213 174.314 139.745 173.865 138.847 173.865C138.223 173.865 137.636 174.085 137.242 174.433L136.949 173.947C137.435 173.535 138.15 173.297 138.911 173.297C140.159 173.296 140.865 173.919 140.865 175.166ZM140.214 176.707V175.918H138.701C137.765 175.918 137.463 176.285 137.463 176.78C137.463 177.34 137.912 177.688 138.683 177.688C139.416 177.688 139.957 177.34 140.214 176.707Z" fill="#263238"/>
<path d="M142.49 171.812C142.49 171.565 142.701 171.354 142.967 171.354C143.233 171.354 143.444 171.556 143.444 171.803C143.444 172.069 143.242 172.28 142.967 172.28C142.701 172.279 142.49 172.068 142.49 171.812ZM142.636 173.333H143.287V178.158H142.636V173.333Z" fill="#263238"/>
<path d="M145.104 171.352H145.755V178.157H145.104V171.352Z" fill="#263238"/>
</g>
<path d="M239.855 194.793H113.018C111.913 194.793 111.018 195.688 111.018 196.793V215.196C111.018 216.301 111.913 217.196 113.018 217.196H239.855C240.959 217.196 241.855 216.301 241.855 215.196V196.793C241.855 195.688 240.959 194.793 239.855 194.793Z" fill="white"/>
<path opacity="0.2" d="M241.855 232.047H111.018V254.45H241.855V232.047Z" fill="black"/>
<path d="M241.855 230.676H111.018V253.079H241.855V230.676Z" fill="#E21B22"/>
<path d="M164.294 240.422C164.251 240.063 164.078 239.783 163.775 239.584C163.472 239.385 163.1 239.286 162.66 239.286C162.338 239.286 162.056 239.338 161.815 239.442C161.576 239.546 161.389 239.69 161.254 239.872C161.121 240.054 161.055 240.261 161.055 240.493C161.055 240.688 161.101 240.854 161.193 240.994C161.288 241.131 161.409 241.246 161.556 241.339C161.702 241.429 161.856 241.503 162.017 241.562C162.178 241.619 162.326 241.665 162.461 241.701L163.2 241.9C163.389 241.949 163.6 242.018 163.832 242.106C164.066 242.193 164.29 242.313 164.503 242.464C164.718 242.613 164.896 242.805 165.036 243.04C165.175 243.274 165.245 243.562 165.245 243.903C165.245 244.296 165.142 244.651 164.936 244.968C164.733 245.285 164.434 245.537 164.041 245.724C163.651 245.911 163.176 246.005 162.617 246.005C162.097 246.005 161.646 245.921 161.264 245.753C160.886 245.585 160.587 245.35 160.369 245.05C160.154 244.749 160.032 244.4 160.004 244.002H160.913C160.936 244.277 161.029 244.504 161.19 244.684C161.353 244.861 161.559 244.994 161.808 245.081C162.059 245.167 162.329 245.209 162.617 245.209C162.954 245.209 163.255 245.155 163.523 245.046C163.79 244.935 164.002 244.781 164.159 244.584C164.315 244.385 164.393 244.153 164.393 243.888C164.393 243.647 164.325 243.45 164.191 243.299C164.056 243.147 163.878 243.024 163.658 242.93C163.438 242.835 163.2 242.752 162.944 242.681L162.049 242.425C161.481 242.262 161.031 242.029 160.7 241.726C160.368 241.423 160.203 241.026 160.203 240.536C160.203 240.129 160.313 239.774 160.533 239.471C160.755 239.165 161.054 238.929 161.428 238.76C161.804 238.59 162.224 238.505 162.688 238.505C163.157 238.505 163.574 238.589 163.938 238.757C164.303 238.923 164.592 239.15 164.805 239.439C165.02 239.728 165.134 240.055 165.146 240.422H164.294ZM170.017 243.647V240.422H170.855V245.877H170.017V244.954H169.96C169.832 245.231 169.634 245.466 169.364 245.66C169.094 245.852 168.753 245.948 168.341 245.948C168 245.948 167.697 245.873 167.432 245.724C167.167 245.573 166.958 245.345 166.807 245.042C166.655 244.737 166.58 244.352 166.58 243.888V240.422H167.418V243.831C167.418 244.229 167.529 244.546 167.751 244.783C167.976 245.02 168.263 245.138 168.611 245.138C168.819 245.138 169.031 245.085 169.246 244.979C169.464 244.872 169.647 244.709 169.793 244.488C169.942 244.268 170.017 243.988 170.017 243.647ZM172.504 245.877V238.604H173.342V241.289H173.413C173.474 241.194 173.56 241.073 173.669 240.927C173.78 240.778 173.938 240.645 174.144 240.529C174.353 240.411 174.634 240.351 174.99 240.351C175.449 240.351 175.854 240.466 176.204 240.696C176.554 240.925 176.828 241.251 177.024 241.672C177.221 242.094 177.319 242.591 177.319 243.164C177.319 243.742 177.221 244.242 177.024 244.666C176.828 245.087 176.556 245.414 176.208 245.646C175.86 245.876 175.458 245.991 175.004 245.991C174.653 245.991 174.373 245.933 174.162 245.817C173.951 245.698 173.789 245.564 173.676 245.415C173.562 245.264 173.474 245.138 173.413 245.039H173.313V245.877H172.504ZM173.328 243.15C173.328 243.562 173.388 243.925 173.509 244.24C173.629 244.552 173.806 244.797 174.038 244.975C174.27 245.15 174.554 245.238 174.89 245.238C175.24 245.238 175.533 245.145 175.767 244.961C176.004 244.774 176.182 244.523 176.3 244.208C176.421 243.891 176.481 243.538 176.481 243.15C176.481 242.766 176.422 242.421 176.303 242.113C176.187 241.803 176.011 241.558 175.774 241.378C175.54 241.195 175.245 241.104 174.89 241.104C174.549 241.104 174.263 241.191 174.031 241.363C173.799 241.534 173.624 241.773 173.505 242.081C173.387 242.386 173.328 242.742 173.328 243.15ZM178.601 245.877V240.422H179.411V241.275H179.482C179.595 240.983 179.779 240.757 180.032 240.596C180.285 240.433 180.59 240.351 180.945 240.351C181.305 240.351 181.604 240.433 181.843 240.596C182.085 240.757 182.273 240.983 182.408 241.275H182.465C182.604 240.993 182.814 240.769 183.093 240.604C183.373 240.435 183.708 240.351 184.098 240.351C184.586 240.351 184.985 240.504 185.295 240.809C185.605 241.113 185.76 241.585 185.76 242.226V245.877H184.922V242.226C184.922 241.824 184.812 241.536 184.592 241.363C184.372 241.191 184.112 241.104 183.814 241.104C183.431 241.104 183.133 241.22 182.923 241.452C182.712 241.682 182.607 241.973 182.607 242.326V245.877H181.754V242.141C181.754 241.831 181.654 241.581 181.453 241.392C181.251 241.2 180.992 241.104 180.675 241.104C180.457 241.104 180.253 241.162 180.064 241.278C179.877 241.394 179.726 241.555 179.61 241.761C179.496 241.965 179.439 242.2 179.439 242.468V245.877H178.601ZM187.292 245.877V240.422H188.131V245.877H187.292ZM187.719 239.513C187.555 239.513 187.414 239.458 187.296 239.346C187.18 239.235 187.122 239.101 187.122 238.945C187.122 238.789 187.18 238.655 187.296 238.544C187.414 238.433 187.555 238.377 187.719 238.377C187.882 238.377 188.022 238.433 188.138 238.544C188.256 238.655 188.315 238.789 188.315 238.945C188.315 239.101 188.256 239.235 188.138 239.346C188.022 239.458 187.882 239.513 187.719 239.513ZM192.038 240.422V241.133H189.211V240.422H192.038ZM190.035 239.116H190.873V244.314C190.873 244.551 190.907 244.729 190.976 244.847C191.047 244.963 191.137 245.041 191.246 245.081C191.357 245.119 191.474 245.138 191.597 245.138C191.69 245.138 191.765 245.134 191.825 245.124C191.884 245.112 191.931 245.103 191.967 245.096L192.137 245.849C192.08 245.87 192.001 245.891 191.899 245.912C191.797 245.936 191.668 245.948 191.512 245.948C191.275 245.948 191.043 245.897 190.816 245.795C190.591 245.693 190.404 245.538 190.255 245.33C190.108 245.122 190.035 244.859 190.035 244.542V239.116Z" fill="white"/>
<g opacity="0.6">
<path d="M153.533 85.6501L153.977 84.7141C154.601 85.2781 155.668 85.6861 156.748 85.6861C158.199 85.6861 158.823 85.1221 158.823 84.3911C158.823 82.3401 153.738 83.6362 153.738 80.5172C153.738 79.2222 154.745 78.1191 156.952 78.1191C157.935 78.1191 158.955 78.3831 159.651 78.8631L159.255 79.8232C158.524 79.3552 157.696 79.1391 156.952 79.1391C155.525 79.1391 154.914 79.7391 154.914 80.4701C154.914 82.5211 159.999 81.2381 159.999 84.3201C159.999 85.6031 158.968 86.7071 156.749 86.7071C155.464 86.7061 154.205 86.2741 153.533 85.6501Z" fill="#263238"/>
<path d="M161.381 78.2872C161.381 77.8672 161.716 77.5312 162.16 77.5312C162.604 77.5312 162.94 77.8552 162.94 78.2632C162.94 78.6952 162.616 79.0312 162.16 79.0312C161.716 79.0302 161.381 78.7062 161.381 78.2872ZM161.585 80.2533H162.736V86.6102H161.585V80.2533Z" fill="#263238"/>
<path d="M171.014 80.2534V85.7464C171.014 87.9894 169.875 89.0094 167.716 89.0094C166.552 89.0094 165.377 88.6854 164.681 88.0614L165.233 87.1734C165.821 87.6774 166.744 88.0014 167.68 88.0014C169.179 88.0014 169.863 87.3064 169.863 85.8664V85.3624C169.312 86.0224 168.484 86.3464 167.572 86.3464C165.737 86.3464 164.346 85.0984 164.346 83.2634C164.346 81.4284 165.737 80.1934 167.572 80.1934C168.519 80.1934 169.383 80.5414 169.923 81.2364V80.2534H171.014ZM169.887 83.2644C169.887 82.0294 168.976 81.2014 167.704 81.2014C166.421 81.2014 165.509 82.0294 165.509 83.2644C165.509 84.4874 166.421 85.3394 167.704 85.3394C168.976 85.3384 169.887 84.4874 169.887 83.2644Z" fill="#263238"/>
<path d="M179.245 82.9524V86.6104H178.094V83.0844C178.094 81.8364 177.471 81.2254 176.379 81.2254C175.155 81.2254 174.364 81.9574 174.364 83.3364V86.6104H173.213V80.2534H174.317V81.2134C174.785 80.5664 175.6 80.1934 176.607 80.1934C178.154 80.1934 179.245 81.0814 179.245 82.9524Z" fill="#263238"/>
<path d="M190.538 80.2529V86.6099H189.447V85.6499C188.979 86.3099 188.188 86.681 187.288 86.681C185.645 86.681 184.553 85.7819 184.553 83.9099V80.252H185.704V83.7779C185.704 85.0259 186.328 85.6489 187.419 85.6489C188.618 85.6489 189.386 84.9049 189.386 83.5379V80.252L190.538 80.2529Z" fill="#263238"/>
<path d="M199.32 83.4314C199.32 85.3864 197.965 86.6814 196.106 86.6814C195.207 86.6814 194.415 86.3334 193.887 85.6504V88.9364H192.736V80.2534H193.84V81.2604C194.356 80.5524 195.171 80.1934 196.107 80.1934C197.964 80.1924 199.32 81.4884 199.32 83.4314ZM198.156 83.4314C198.156 82.0884 197.233 81.2004 196.01 81.2004C194.799 81.2004 193.875 82.0884 193.875 83.4314C193.875 84.7864 194.798 85.6744 196.01 85.6744C197.233 85.6734 198.156 84.7864 198.156 83.4314Z" fill="#263238"/>
</g>
<path d="M239.855 133.588H113.018C111.913 133.588 111.018 134.483 111.018 135.588V153.991C111.018 155.095 111.913 155.991 113.018 155.991H239.855C240.959 155.991 241.855 155.095 241.855 153.991V135.588C241.855 134.483 240.959 133.588 239.855 133.588Z" fill="white"/>
<g opacity="0.4">
<path d="M118.178 141.137H118.857V146.969H122.452V147.556H118.179V141.137H118.178Z" fill="#263238"/>
<path d="M127.102 144.567V147.556H126.478V146.804C126.185 147.299 125.616 147.602 124.818 147.602C123.727 147.602 123.057 147.034 123.057 146.199C123.057 145.457 123.534 144.833 124.919 144.833H126.45V144.54C126.45 143.715 125.982 143.265 125.084 143.265C124.46 143.265 123.873 143.486 123.479 143.834L123.185 143.348C123.671 142.935 124.386 142.697 125.147 142.697C126.396 142.695 127.102 143.319 127.102 144.567ZM126.451 146.108V145.319H124.938C124.002 145.319 123.7 145.686 123.7 146.181C123.7 146.74 124.149 147.088 124.92 147.088C125.653 147.088 126.194 146.739 126.451 146.108Z" fill="#263238"/>
<path d="M128.201 147.006L128.495 146.492C128.88 146.795 129.532 147.033 130.21 147.033C131.127 147.033 131.504 146.721 131.504 146.244C131.504 144.988 128.377 145.978 128.377 144.071C128.377 143.282 129.056 142.695 130.285 142.695C130.908 142.695 131.587 142.87 131.99 143.144L131.706 143.667C131.284 143.373 130.78 143.254 130.285 143.254C129.413 143.254 129.029 143.593 129.029 144.052C129.029 145.354 132.156 144.373 132.156 146.226C132.156 147.06 131.423 147.601 130.166 147.601C129.366 147.602 128.595 147.345 128.201 147.006Z" fill="#263238"/>
<path d="M135.897 147.263C135.64 147.492 135.255 147.602 134.879 147.602C133.971 147.602 133.467 147.088 133.467 146.199V143.283H132.605V142.733H133.467V141.678H134.118V142.733H135.585V143.283H134.118V146.163C134.118 146.731 134.411 147.043 134.952 147.043C135.218 147.043 135.484 146.961 135.667 146.796L135.897 147.263Z" fill="#263238"/>
<path d="M144.984 141.137V147.556H144.424L140.298 142.347V147.556H139.619V141.137H140.179L144.315 146.346V141.137H144.984Z" fill="#263238"/>
<path d="M150.579 144.567V147.556H149.956V146.804C149.662 147.299 149.094 147.602 148.296 147.602C147.205 147.602 146.535 147.034 146.535 146.199C146.535 145.457 147.012 144.833 148.397 144.833H149.928V144.54C149.928 143.715 149.46 143.265 148.562 143.265C147.938 143.265 147.352 143.486 146.957 143.834L146.664 143.348C147.15 142.935 147.865 142.697 148.626 142.697C149.873 142.695 150.579 143.319 150.579 144.567ZM149.928 146.108V145.319H148.415C147.479 145.319 147.177 145.686 147.177 146.181C147.177 146.74 147.626 147.088 148.397 147.088C149.13 147.088 149.671 146.739 149.928 146.108Z" fill="#263238"/>
<path d="M160.31 144.758V147.555H159.659V144.823C159.659 143.804 159.145 143.282 158.274 143.282C157.284 143.282 156.66 143.925 156.66 145.024V147.555H156.009V144.823C156.009 143.804 155.495 143.282 154.615 143.282C153.634 143.282 153.001 143.925 153.001 145.024V147.555H152.35V142.732H152.973V143.612C153.312 143.035 153.936 142.695 154.743 142.695C155.541 142.695 156.164 143.035 156.458 143.714C156.807 143.09 157.495 142.695 158.366 142.695C159.54 142.694 160.31 143.373 160.31 144.758Z" fill="#263238"/>
<path d="M166.298 145.345H162.263C162.337 146.354 163.107 147.024 164.161 147.024C164.748 147.024 165.271 146.813 165.638 146.391L166.005 146.813C165.574 147.326 164.904 147.601 164.144 147.601C162.64 147.601 161.613 146.574 161.613 145.144C161.613 143.713 162.612 142.695 163.97 142.695C165.327 142.695 166.308 143.695 166.308 145.144C166.308 145.198 166.298 145.272 166.298 145.345ZM162.263 144.858H165.684C165.601 143.914 164.914 143.254 163.969 143.254C163.034 143.254 162.346 143.914 162.263 144.858Z" fill="#263238"/>
</g>
<path d="M239.855 102.984H113.018C111.913 102.984 111.018 103.88 111.018 104.984V123.387C111.018 124.492 111.913 125.387 113.018 125.387H239.855C240.959 125.387 241.855 124.492 241.855 123.387V104.984C241.855 103.88 240.959 102.984 239.855 102.984Z" fill="white"/>
<g opacity="0.4">
<path d="M118.855 111.119V113.641H122.175V114.228H118.855V116.952H118.176V110.533H122.578V111.12L118.855 111.119Z" fill="#263238"/>
<path d="M123.607 110.606C123.607 110.358 123.818 110.148 124.084 110.148C124.35 110.148 124.561 110.35 124.561 110.598C124.561 110.864 124.359 111.075 124.084 111.075C123.817 111.073 123.607 110.862 123.607 110.606ZM123.753 112.128H124.404V116.952H123.753V112.128Z" fill="#263238"/>
<path d="M128.651 112.092V112.725C128.596 112.725 128.541 112.716 128.495 112.716C127.486 112.716 126.872 113.358 126.872 114.495V116.953H126.221V112.129H126.845V113.074C127.147 112.432 127.762 112.092 128.651 112.092Z" fill="#263238"/>
<path d="M129.191 116.402L129.484 115.888C129.869 116.191 130.521 116.429 131.199 116.429C132.116 116.429 132.492 116.118 132.492 115.641C132.492 114.385 129.365 115.375 129.365 113.468C129.365 112.68 130.044 112.092 131.273 112.092C131.897 112.092 132.575 112.266 132.979 112.541L132.695 113.064C132.273 112.771 131.769 112.651 131.274 112.651C130.402 112.651 130.018 112.99 130.018 113.449C130.018 114.751 133.145 113.77 133.145 115.622C133.145 116.457 132.412 116.998 131.155 116.998C130.357 116.999 129.586 116.742 129.191 116.402Z" fill="#263238"/>
<path d="M136.886 116.659C136.629 116.888 136.244 116.998 135.868 116.998C134.96 116.998 134.456 116.484 134.456 115.595V112.679H133.594V112.129H134.456V111.074H135.107V112.129H136.574V112.679H135.107V115.558C135.107 116.127 135.401 116.438 135.942 116.438C136.208 116.438 136.474 116.355 136.657 116.191L136.886 116.659Z" fill="#263238"/>
<path d="M145.974 110.533V116.952H145.414L141.288 111.743V116.952H140.609V110.533H141.169L145.305 115.742V110.533H145.974Z" fill="#263238"/>
<path d="M151.568 113.962V116.952H150.944V116.2C150.65 116.695 150.082 116.998 149.284 116.998C148.193 116.998 147.523 116.429 147.523 115.595C147.523 114.852 148 114.229 149.385 114.229H150.916V113.935C150.916 113.11 150.448 112.66 149.55 112.66C148.926 112.66 148.339 112.88 147.945 113.229L147.652 112.743C148.138 112.33 148.853 112.092 149.614 112.092C150.861 112.091 151.568 112.715 151.568 113.962ZM150.916 115.503V114.714H149.403C148.467 114.714 148.165 115.081 148.165 115.576C148.165 116.135 148.614 116.484 149.385 116.484C150.119 116.484 150.66 116.135 150.916 115.503Z" fill="#263238"/>
<path d="M161.298 114.156V116.953H160.647V114.22C160.647 113.202 160.133 112.68 159.262 112.68C158.272 112.68 157.648 113.322 157.648 114.422V116.953H156.997V114.22C156.997 113.202 156.483 112.68 155.603 112.68C154.622 112.68 153.989 113.322 153.989 114.422V116.953H153.338V112.129H153.962V113.009C154.301 112.431 154.925 112.092 155.732 112.092C156.53 112.092 157.153 112.431 157.447 113.11C157.796 112.486 158.484 112.092 159.355 112.092C160.528 112.092 161.298 112.771 161.298 114.156Z" fill="#263238"/>
<path d="M167.289 114.743H163.254C163.328 115.752 164.098 116.421 165.152 116.421C165.739 116.421 166.262 116.21 166.629 115.788L166.996 116.21C166.565 116.723 165.895 116.999 165.135 116.999C163.631 116.999 162.604 115.972 162.604 114.541C162.604 113.11 163.603 112.092 164.961 112.092C166.318 112.092 167.299 113.092 167.299 114.541C167.298 114.596 167.289 114.669 167.289 114.743ZM163.254 114.256H166.675C166.592 113.312 165.905 112.651 164.96 112.651C164.024 112.652 163.336 113.312 163.254 114.256Z" fill="#263238"/>
</g>
<path d="M80.3825 253.594C80.3825 253.594 73.7625 248.075 68.0865 253.594C62.4105 259.113 61.3145 293.305 61.3145 293.305" stroke="#0DD209" stroke-width="0.9446" stroke-miterlimit="10"/>
<path d="M60.8447 299.907C60.8447 299.907 64.7467 259.781 50.0547 242.918" stroke="#0DD209" stroke-width="0.9446" stroke-miterlimit="10"/>
<path d="M62.2434 295.678C62.2434 295.678 59.2384 249.998 70.2574 239.863" stroke="#0DD209" stroke-width="0.9446" stroke-miterlimit="10"/>
<path d="M60.8451 295.678C60.8451 295.678 60.5891 265.493 52.4001 260.8C44.2111 256.108 40.0371 271.412 40.0371 271.412" stroke="#0DD209" stroke-width="0.9446" stroke-miterlimit="10"/>
<path d="M64.0802 295.677C64.0802 295.677 62.7442 272.504 69.0892 264.222C75.4332 255.94 82.1122 267.77 82.1122 267.77" stroke="#0DD209" stroke-width="0.9446" stroke-miterlimit="10"/>
<path d="M61.8686 298.781C61.8686 298.781 65.9716 244.587 59.1816 235.404" stroke="#0DD209" stroke-width="0.9446" stroke-miterlimit="10"/>
<path d="M45.3891 265.197C45.3891 265.197 49.4721 266.702 48.2581 270.256C47.0441 273.81 34.1331 279.658 34.1331 279.658C34.1331 279.658 28.7261 274.702 33.6921 266.641C38.6581 258.581 45.2791 262.654 45.3891 265.197Z" fill="#0DD209"/>
<path opacity="0.2" d="M45.3891 265.197C45.3891 265.197 49.4721 266.702 48.2581 270.256C47.0441 273.81 34.1331 279.658 34.1331 279.658C34.1331 279.658 28.7261 274.702 33.6921 266.641C38.6581 258.581 45.2791 262.654 45.3891 265.197Z" fill="black"/>
<path d="M63.1387 258.433C63.1387 258.433 58.7907 258.251 58.5437 261.998C58.2967 265.745 67.9627 276.112 67.9627 276.112C67.9627 276.112 74.8607 273.618 73.3787 264.267C71.8977 254.917 64.2197 256.128 63.1387 258.433Z" fill="#0DD209"/>
<path opacity="0.2" d="M63.1387 258.433C63.1387 258.433 58.7907 258.251 58.5437 261.998C58.2967 265.745 67.9627 276.112 67.9627 276.112C67.9627 276.112 74.8607 273.618 73.3787 264.267C71.8977 254.917 64.2197 256.128 63.1387 258.433Z" fill="black"/>
<path d="M66.821 240.496C66.821 240.496 63.922 240.185 64.156 238.419C64.389 236.653 75.425 232.109 81.935 239.457C81.935 239.457 77.766 246.618 71.74 246.712C65.714 246.806 66.821 240.496 66.821 240.496Z" fill="#0DD209"/>
<path opacity="0.2" d="M66.821 240.496C66.821 240.496 63.922 240.185 64.156 238.419C64.389 236.653 75.425 232.109 81.935 239.457C81.935 239.457 77.766 246.618 71.74 246.712C65.714 246.806 66.821 240.496 66.821 240.496Z" fill="black"/>
<path d="M61.4187 236.207C61.4187 236.207 64.0437 237.476 64.7787 235.854C65.5147 234.232 58.5527 224.539 49.1407 227.332C49.1407 227.332 48.8917 235.615 53.9567 238.881C59.0207 242.148 61.4187 236.207 61.4187 236.207Z" fill="#0DD209"/>
<path opacity="0.2" d="M61.4187 236.207C61.4187 236.207 64.0437 237.476 64.7787 235.854C65.5147 234.232 58.5527 224.539 49.1407 227.332C49.1407 227.332 48.8917 235.615 53.9567 238.881C59.0207 242.148 61.4187 236.207 61.4187 236.207Z" fill="black"/>
<path d="M75.1422 263.769C75.1422 263.769 73.1412 262.154 75.3002 261.365C77.4592 260.577 88.0532 260.801 88.1632 271.295C88.1632 271.295 75.8252 273.345 74.2972 269.348C72.7712 265.351 75.1422 263.769 75.1422 263.769Z" fill="#0DD209"/>
<path opacity="0.2" d="M75.1422 263.769C75.1422 263.769 73.1412 262.154 75.3002 261.365C77.4592 260.577 88.0532 260.801 88.1632 271.295C88.1632 271.295 75.8252 273.345 74.2972 269.348C72.7712 265.351 75.1422 263.769 75.1422 263.769Z" fill="black"/>
<path d="M49.9839 240.233C49.9839 240.233 51.9849 238.618 49.8259 237.829C47.6669 237.04 37.0729 237.264 36.9629 247.758C36.9629 247.758 49.3009 249.809 50.8289 245.811C52.3549 241.815 49.9839 240.233 49.9839 240.233Z" fill="#0DD209"/>
<path opacity="0.2" d="M49.9839 240.233C49.9839 240.233 51.9849 238.618 49.8259 237.829C47.6669 237.04 37.0729 237.264 36.9629 247.758C36.9629 247.758 49.3009 249.809 50.8289 245.811C52.3549 241.815 49.9839 240.233 49.9839 240.233Z" fill="black"/>
<path d="M56.5068 248.685C56.5068 248.685 56.6828 246.721 55.0978 247.491C53.5128 248.261 47.9898 254.219 53.7148 259.873C53.7148 259.873 61.4208 254.166 60.0318 251.194C58.6418 248.221 56.5068 248.685 56.5068 248.685Z" fill="#0DD209"/>
<path opacity="0.2" d="M56.5068 248.685C56.5068 248.685 56.6828 246.721 55.0978 247.491C53.5128 248.261 47.9898 254.219 53.7148 259.873C53.7148 259.873 61.4208 254.166 60.0318 251.194C58.6418 248.221 56.5068 248.685 56.5068 248.685Z" fill="black"/>
<path d="M76.9318 251.484C76.9318 251.484 75.7358 249.917 77.4878 249.723C79.2388 249.529 87.0887 251.624 85.2607 259.459C85.2607 259.459 75.6977 258.74 75.2887 255.485C74.8777 252.23 76.9318 251.484 76.9318 251.484Z" fill="#0DD209"/>
<path opacity="0.2" d="M76.9318 251.484C76.9318 251.484 75.7358 249.917 77.4878 249.723C79.2388 249.529 87.0887 251.624 85.2607 259.459C85.2607 259.459 75.6977 258.74 75.2887 255.485C74.8777 252.23 76.9318 251.484 76.9318 251.484Z" fill="black"/>
<path d="M46.1012 324.767H77.0162L81.1252 294.705H41.9922L46.1012 324.767Z" fill="#263238"/>
<path opacity="0.2" d="M46.1012 324.767H77.0162L81.1252 294.705H41.9922L46.1012 324.767Z" fill="white"/>
<path d="M85.0005 292.268V295.124C85.0005 297.035 83.4515 298.585 81.5395 298.585H41.1915C39.2805 298.585 37.7305 297.036 37.7305 295.124V292.268H85.0005Z" fill="#263238"/>
<path d="M342.562 7.34961H313.834C308.948 7.34961 304.988 11.3106 304.988 16.1956V41.1976C304.988 46.0826 308.949 50.0436 313.834 50.0436H322.222L320.194 57.9376L328.171 50.0436H342.562C347.447 50.0436 351.408 46.0836 351.408 41.1976V16.1956C351.408 11.3106 347.448 7.34961 342.562 7.34961Z" fill="#E21B22"/>
<path opacity="0.7" d="M342.562 7.34961H313.834C308.948 7.34961 304.988 11.3106 304.988 16.1956V41.1976C304.988 46.0826 308.949 50.0436 313.834 50.0436H322.222L320.194 57.9376L328.171 50.0436H342.562C347.447 50.0436 351.408 46.0836 351.408 41.1976V16.1956C351.408 11.3106 347.448 7.34961 342.562 7.34961Z" fill="white"/>
<path d="M338.277 38.6717C343.845 33.1036 343.845 24.076 338.277 18.508C332.709 12.94 323.681 12.94 318.113 18.508C312.545 24.0761 312.545 33.1036 318.113 38.6717C323.681 44.2397 332.709 44.2397 338.277 38.6717Z" fill="#E21B22"/>
<path d="M326.701 34.9564C326.316 34.9564 325.951 34.7874 325.702 34.4944L320.108 27.9034C319.64 27.3514 319.708 26.5254 320.259 26.0564C320.81 25.5894 321.637 25.6554 322.106 26.2074L326.701 31.6214L334.289 22.6814C334.758 22.1284 335.585 22.0624 336.136 22.5304C336.688 22.9984 336.756 23.8254 336.287 24.3774L327.7 34.4954C327.451 34.7874 327.086 34.9564 326.701 34.9564Z" fill="white"/>
<path d="M337.587 161.599C337.587 161.599 320.172 159.407 293.796 166.638C293.796 166.638 289.55 119.5 290.056 113.025C290.562 106.55 330.779 108.446 330.779 108.446C330.779 108.446 331.817 127.312 334.405 138.695C336.993 150.077 338.913 159.41 337.587 161.599Z" fill="#E21B22"/>
<path opacity="0.2" d="M337.587 161.599C337.587 161.599 320.172 159.407 293.796 166.638C293.796 166.638 289.55 119.5 290.056 113.025C290.562 106.55 330.779 108.446 330.779 108.446C330.779 108.446 331.817 127.312 334.405 138.695C336.993 150.077 338.913 159.41 337.587 161.599Z" fill="black"/>
<path d="M281.07 317.663L288.17 319.673L289.86 308.623L290.77 302.713L283.67 300.703L282.46 308.623L281.07 317.663Z" fill="#E4897B"/>
<path d="M321.891 318.244L329.211 319.214L329.281 308.624L329.331 302.044L322.001 301.084L321.951 308.624L321.891 318.244Z" fill="#E4897B"/>
<path opacity="0.2" d="M321.999 301.084L321.949 308.624H329.279L329.329 302.044L321.999 301.084Z" fill="black"/>
<path opacity="0.2" d="M282.459 308.623H289.859L290.769 302.713L283.669 300.703L282.459 308.623Z" fill="black"/>
<path d="M249.55 116.853L242.502 114.77L243.789 122.819C243.789 122.819 250.189 124.298 250.812 120.968L249.55 116.853Z" fill="#FFBE9D"/>
<path d="M235.467 116.639L238.923 123.184L243.789 122.818L242.502 114.77L235.467 116.639Z" fill="#FFBE9D"/>
<path d="M259.281 118.909L247.706 116.318L246.654 121.94L257.163 124.503L259.281 118.909Z" fill="#FFBE9D"/>
<path d="M294.315 113.836C294.315 113.836 294.065 114.136 293.635 114.646C292.175 116.356 288.605 120.486 284.945 124.046C281.945 126.946 278.905 129.476 276.925 129.986C271.255 131.446 250.645 125.376 250.645 125.376L252.775 117.016C252.775 117.016 271.975 119.566 273.465 119.566C274.595 119.566 286.275 102.646 289.105 101.256L294.315 113.836Z" fill="#E21B22"/>
<path opacity="0.2" d="M293.635 114.645C292.175 116.355 288.605 120.485 284.945 124.045C285.685 118.185 287.835 112.805 290.665 109.405C290.965 109.045 291.265 108.745 291.565 108.525L293.635 114.645Z" fill="black"/>
<path d="M281.157 316.555L289.22 316.338C289.522 316.33 289.791 316.532 289.867 316.823L291.561 323.316C291.737 323.989 291.243 324.645 290.546 324.652C287.636 324.681 283.427 324.625 279.771 324.723C275.496 324.838 272.779 324.628 267.766 324.763C264.735 324.845 263.784 321.817 265.043 321.507C270.774 320.094 274.52 320.373 279.401 317.175C279.93 316.828 280.52 316.572 281.157 316.555Z" fill="#263238"/>
<path d="M280.467 317.59C280.46 317.593 280.452 317.595 280.444 317.597C279.264 317.865 277.158 318.212 276.322 317.52C276.07 317.311 275.95 317.03 275.964 316.682C275.973 316.475 276.067 316.312 276.236 316.211C277.118 315.681 280.137 317.108 280.478 317.271C280.545 317.303 280.585 317.374 280.577 317.447C280.571 317.512 280.527 317.567 280.467 317.59ZM276.48 316.481C276.457 316.49 276.436 316.499 276.417 316.51C276.348 316.551 276.317 316.607 276.313 316.699C276.304 316.935 276.379 317.116 276.544 317.253C277.013 317.641 278.23 317.679 279.851 317.365C278.661 316.841 277.03 316.274 276.48 316.481Z" fill="#E21B22"/>
<path d="M280.467 317.59C280.426 317.606 280.38 317.606 280.338 317.588C279.433 317.214 277.61 315.672 277.715 314.838C277.74 314.642 277.87 314.397 278.349 314.334C278.705 314.288 279.034 314.38 279.33 314.606C280.297 315.348 280.567 317.322 280.578 317.406C280.586 317.468 280.561 317.528 280.511 317.566C280.497 317.576 280.482 317.584 280.467 317.59ZM278.219 314.72C278.076 314.774 278.066 314.853 278.062 314.884C277.999 315.385 279.244 316.601 280.173 317.121C280.057 316.545 279.752 315.368 279.117 314.881C278.896 314.711 278.66 314.645 278.396 314.679C278.322 314.689 278.264 314.703 278.219 314.72Z" fill="#E21B22"/>
<path d="M322.182 316.555L330.245 316.338C330.547 316.33 330.816 316.532 330.892 316.823L332.586 323.316C332.762 323.989 332.268 324.645 331.571 324.652C328.661 324.681 324.452 324.625 320.796 324.723C316.521 324.838 313.804 324.628 308.791 324.763C305.76 324.845 304.809 321.817 306.068 321.507C311.799 320.094 315.545 320.373 320.426 317.175C320.954 316.828 321.545 316.572 322.182 316.555Z" fill="#263238"/>
<path d="M321.492 317.59C321.485 317.593 321.477 317.595 321.469 317.597C320.288 317.865 318.183 318.212 317.347 317.52C317.095 317.311 316.975 317.03 316.989 316.682C316.998 316.475 317.092 316.312 317.261 316.211C318.143 315.681 321.162 317.108 321.503 317.271C321.57 317.303 321.61 317.374 321.602 317.447C321.596 317.512 321.552 317.567 321.492 317.59ZM317.505 316.481C317.482 316.49 317.461 316.499 317.442 316.51C317.373 316.551 317.342 316.607 317.339 316.699C317.33 316.935 317.405 317.116 317.57 317.253C318.039 317.641 319.256 317.679 320.877 317.365C319.686 316.841 318.055 316.274 317.505 316.481Z" fill="#E21B22"/>
<path d="M321.493 317.59C321.452 317.606 321.406 317.606 321.364 317.588C320.459 317.214 318.636 315.672 318.741 314.838C318.766 314.642 318.896 314.397 319.375 314.334C319.731 314.288 320.061 314.38 320.356 314.606C321.323 315.348 321.593 317.322 321.604 317.406C321.612 317.468 321.587 317.528 321.537 317.566C321.523 317.576 321.508 317.584 321.493 317.59ZM319.245 314.72C319.102 314.774 319.092 314.853 319.088 314.884C319.025 315.385 320.27 316.601 321.199 317.121C321.083 316.545 320.778 315.368 320.143 314.881C319.922 314.711 319.686 314.645 319.423 314.679C319.347 314.689 319.29 314.703 319.245 314.72Z" fill="#E21B22"/>
<path d="M336.991 157.299C340.869 174.115 334.214 306.364 334.214 306.364H321.352L315.853 196.149L295.598 306.364L281.852 305.363C290.838 219.986 298.782 169.013 298.782 169.013L298.763 162.572L336.991 157.299Z" fill="#263238"/>
<path opacity="0.4" d="M281.85 305.363L295.6 306.363L311.54 219.603L315.85 196.153L321.35 306.363H334.21C334.21 306.363 340.87 174.113 336.99 157.303L298.76 162.573L298.78 169.013C298.78 169.013 290.84 219.983 281.85 305.363Z" fill="white"/>
<path d="M330.063 95.0314C329.598 103.267 329.951 111.482 330.675 119.132C331.208 124.728 331.953 130.019 332.743 134.793C334.592 145.984 336.692 154.371 336.991 157.298C331.389 158.073 310.276 160.987 298.763 162.571C284.823 123.593 290.073 100.906 290.073 100.906C290.073 100.906 294.059 99.2034 298.841 97.9064C299.47 97.7314 300.114 97.5734 300.77 97.4224C305.015 96.4384 312.107 95.6204 317.023 95.1794C318.057 95.0874 319.108 95.0214 320.134 94.9734C325.356 94.7354 330.063 95.0314 330.063 95.0314Z" fill="#263238"/>
<path d="M309.601 77.4922C309.881 82.8462 310.45 92.8842 314.898 95.4292C314.898 95.4292 312.129 100.704 306.138 101.24C301.607 101.646 301.908 97.1772 301.908 97.1772C304.529 95.2182 303.9 91.9092 301.905 88.1782L309.601 77.4922Z" fill="#FFBE9D"/>
<path opacity="0.2" d="M306.466 81.8516L301.91 88.1726C302.386 89.0546 302.811 89.9636 303.111 90.8736C305.218 90.0316 307.62 86.9176 307.278 84.5826C307.108 83.4176 306.785 82.3366 306.466 81.8516Z" fill="black"/>
<path d="M290.104 66.7275C289.23 69.5025 289.709 75.2045 293.587 73.3505C297.465 71.4965 291.606 61.9575 290.104 66.7275Z" fill="#263238"/>
<path d="M310.102 70.4763C310.528 77.6093 311.142 81.7663 307.997 85.8033C303.267 91.8753 294.104 89.6103 291.548 82.7283C289.247 76.5333 288.937 65.9093 295.546 62.3133C302.058 58.7703 309.676 63.3433 310.102 70.4763Z" fill="#FFBE9D"/>
<path d="M305.1 66.5985V58.6295C305.1 58.6295 313.582 57.9995 313.205 62.3405C317.903 64.6705 315.682 71.9795 309.372 75.5635C305.914 72.7955 306.309 66.1295 306.309 66.1295C305.936 66.2945 305.526 66.4495 305.1 66.5985Z" fill="#263238"/>
<path d="M313.553 76.0468C313.209 77.9388 312.018 79.4878 310.699 80.3558C308.714 81.6618 306.978 80.0568 306.907 77.8018C306.843 75.7718 307.799 72.6468 310.091 72.2448C312.348 71.8498 313.947 73.8838 313.553 76.0468Z" fill="#FFBE9D"/>
<path d="M299.568 73.6603C299.638 74.2373 299.389 74.7393 299.011 74.7813C298.633 74.8233 298.27 74.3903 298.199 73.8133C298.129 73.2363 298.378 72.7343 298.756 72.6923C299.134 72.6503 299.498 73.0833 299.568 73.6603Z" fill="#263238"/>
<path d="M293.031 74.3907C293.101 74.9677 292.852 75.4697 292.474 75.5117C292.096 75.5537 291.733 75.1207 291.662 74.5437C291.592 73.9667 291.841 73.4647 292.219 73.4227C292.597 73.3807 292.96 73.8137 293.031 74.3907Z" fill="#263238"/>
<path d="M295.144 74.4453C295.144 74.4453 294.186 77.7993 292.914 79.5183C294.033 80.3063 295.719 79.6753 295.719 79.6753L295.144 74.4453Z" fill="#ECA784"/>
<path d="M299.087 81.5367C298.854 81.5957 298.605 81.6407 298.34 81.6707C298.246 81.6807 298.161 81.6137 298.15 81.5207C298.138 81.4267 298.208 81.3427 298.299 81.3327C300.839 81.0457 301.807 79.1477 301.817 79.1287C301.858 79.0447 301.962 79.0117 302.046 79.0527C302.131 79.0947 302.166 79.1977 302.124 79.2817C302.086 79.3577 301.251 80.9957 299.087 81.5367Z" fill="#263238"/>
<path d="M301.327 71.3292C301.212 71.3582 301.084 71.3262 300.995 71.2332C299.934 70.1312 298.694 70.3432 298.681 70.3452C298.495 70.3792 298.316 70.2562 298.28 70.0722C298.244 69.8872 298.367 69.7092 298.551 69.6752C298.616 69.6632 300.171 69.3962 301.487 70.7642C301.618 70.9012 301.615 71.1162 301.479 71.2462C301.435 71.2882 301.382 71.3152 301.327 71.3292Z" fill="#263238"/>
<path d="M289.942 72.4636C289.879 72.4796 289.811 72.4776 289.745 72.4546C289.566 72.3916 289.471 72.1966 289.533 72.0196C290.15 70.2386 291.675 69.8656 291.741 69.8396C291.924 69.7956 292.11 69.9086 292.156 70.0906C292.202 70.2726 292.092 70.4556 291.91 70.5016C291.846 70.5146 290.674 70.8176 290.179 72.2466C290.141 72.3586 290.049 72.4366 289.942 72.4636Z" fill="#263238"/>
<path d="M308.866 69.5591C308.866 69.5591 303.894 67.7361 301.583 64.8351C301.583 64.8351 297.045 66.0221 296.115 67.8681C296.115 67.8681 294.541 66.5491 295.72 64.8351C295.72 64.8351 292.324 65.5521 291.65 67.8681C291.65 67.8681 289.955 67.2871 290.056 64.8351C290.056 64.8351 288.542 65.4051 288.064 67.8681C288.064 67.8681 284.308 60.0551 296.697 57.8131C296.697 57.8131 295.719 57.4011 293.795 57.3181C293.795 57.3181 302.437 53.8311 309.294 57.0251C316.152 60.2201 314.899 66.3521 308.866 69.5591Z" fill="#263238"/>
<path d="M339.944 164.025L327.954 165.625C327.954 165.625 323.004 131.035 320.824 119.865V96.0055L327.094 94.3555L331.924 96.0055C333.084 99.8755 334.104 104.955 334.994 110.605C335.584 114.345 336.114 118.345 336.584 122.395C337.234 127.915 337.774 133.535 338.234 138.795C338.954 147.285 339.434 154.805 339.694 159.385C339.864 162.305 339.944 164.025 339.944 164.025Z" fill="#E21B22"/>
<path d="M320.826 119.862C320.826 119.862 321.822 103.034 327.097 94.3523C327.097 94.3523 326.965 91.8683 325.91 91.4723C324.855 91.0763 320.826 93.4503 320.826 93.4503C320.826 93.4503 318.314 91.7363 317.761 92.5273C317.208 93.3183 315.873 98.6703 320.826 119.862Z" fill="#E21B22"/>
<path opacity="0.7" d="M320.826 119.862C320.826 119.862 321.822 103.034 327.097 94.3523C327.097 94.3523 326.965 91.8683 325.91 91.4723C324.855 91.0763 320.826 93.4503 320.826 93.4503C320.826 93.4503 318.314 91.7363 317.761 92.5273C317.208 93.3183 315.873 98.6703 320.826 119.862Z" fill="white"/>
<path d="M293.54 168.656L294.91 169.646C294.91 169.646 292.93 158.492 293.73 130.292C293.77 128.932 293.82 127.622 293.87 126.372C294.89 102.512 298.59 98.1721 298.83 97.9121L295.37 99.0921L289.1 101.252C287.25 121.612 293.54 168.656 293.54 168.656Z" fill="#E21B22"/>
<path d="M294.083 122.267C294.083 122.267 290.62 105.913 291.65 100.275C292.679 94.6371 296.372 97.1422 296.372 97.1422C296.372 97.1422 299.765 94.4042 300.772 97.4212C300.772 97.4212 296.115 100.702 294.083 122.267Z" fill="#E21B22"/>
<path opacity="0.7" d="M294.083 122.267C294.083 122.267 290.62 105.913 291.65 100.275C292.679 94.6371 296.372 97.1422 296.372 97.1422C296.372 97.1422 299.765 94.4042 300.772 97.4212C300.772 97.4212 296.115 100.702 294.083 122.267Z" fill="white"/>
<path opacity="0.2" d="M336.585 122.395C331.465 119.525 330.785 112.035 330.785 112.035C331.095 111.915 332.995 111.265 334.995 110.605C335.585 114.345 336.115 118.345 336.585 122.395Z" fill="black"/>
<path opacity="0.2" d="M311.539 219.602L315.849 196.152L315.019 183.742C315.019 183.742 309.109 205.262 311.539 219.602Z" fill="black"/>
<path opacity="0.2" d="M339.694 159.387C336.474 159.167 333.684 158.957 333.684 158.957L333.074 145.867C333.074 145.867 334.114 144.997 336.444 145.247C336.444 145.247 337.494 142.687 338.234 138.797C338.954 147.287 339.434 154.807 339.694 159.387Z" fill="black"/>
<path d="M340.793 138.783L334.523 148.851L339.482 151.702L345.373 142.63L340.793 138.783Z" fill="#FFBE9D"/>
<path d="M331.674 95.8809C335.896 96.3449 353.83 120.962 354.621 128.384C355.412 135.805 344.086 148.615 344.086 148.615L336.517 144.162C336.517 144.162 344.203 132.352 344.599 129.2C344.995 126.048 330.552 113.126 330.552 113.126C330.552 113.126 328.975 109.33 328.775 103.866C328.574 98.4019 331.674 95.8809 331.674 95.8809Z" fill="#E21B22"/>
<path d="M333.069 145.869C333.069 145.869 339.524 147.254 342.117 151.308C342.117 151.308 339.423 159.758 337.495 160.678C335.568 161.598 330.779 161.598 330.779 161.598C330.779 161.598 330.472 152.199 333.069 145.869Z" fill="#E21B22"/>
<path d="M119.012 208.494V203.04H119.627V203.878H119.683C119.792 203.596 119.973 203.375 120.227 203.214C120.482 203.05 120.789 202.969 121.146 202.969C121.523 202.969 121.832 203.057 122.073 203.235C122.317 203.41 122.499 203.652 122.62 203.959H122.666C122.789 203.656 122.99 203.416 123.267 203.238C123.546 203.059 123.884 202.969 124.282 202.969C124.789 202.969 125.189 203.128 125.482 203.448C125.776 203.765 125.923 204.229 125.923 204.84V208.494H125.291V204.84C125.291 204.409 125.181 204.086 124.96 203.871C124.74 203.655 124.45 203.547 124.09 203.547C123.674 203.547 123.353 203.675 123.128 203.931C122.903 204.187 122.791 204.511 122.791 204.904V208.494H122.144V204.783C122.144 204.414 122.041 204.116 121.835 203.888C121.629 203.661 121.339 203.547 120.965 203.547C120.714 203.547 120.488 203.609 120.287 203.732C120.088 203.855 119.931 204.027 119.815 204.247C119.701 204.465 119.644 204.716 119.644 205V208.494H119.012ZM129.801 208.608C129.292 208.608 128.852 208.489 128.48 208.253C128.109 208.014 127.821 207.683 127.618 207.262C127.416 206.838 127.316 206.35 127.316 205.799C127.316 205.25 127.416 204.762 127.618 204.336C127.821 203.907 128.102 203.572 128.459 203.331C128.819 203.087 129.234 202.965 129.706 202.965C130.002 202.965 130.287 203.019 130.561 203.128C130.836 203.235 131.082 203.399 131.3 203.622C131.52 203.842 131.694 204.12 131.822 204.456C131.95 204.79 132.014 205.186 132.014 205.643V205.955H127.752V205.398H131.368C131.368 205.047 131.297 204.732 131.154 204.453C131.015 204.171 130.819 203.949 130.569 203.785C130.32 203.622 130.032 203.54 129.706 203.54C129.36 203.54 129.056 203.633 128.793 203.817C128.53 204.002 128.324 204.246 128.175 204.549C128.028 204.852 127.954 205.183 127.951 205.543V205.877C127.951 206.31 128.026 206.689 128.175 207.013C128.327 207.335 128.541 207.585 128.818 207.763C129.095 207.94 129.423 208.029 129.801 208.029C130.06 208.029 130.286 207.989 130.48 207.908C130.676 207.828 130.841 207.72 130.973 207.585C131.108 207.448 131.21 207.297 131.279 207.134L131.879 207.329C131.796 207.559 131.66 207.771 131.471 207.965C131.283 208.159 131.049 208.315 130.767 208.434C130.488 208.55 130.166 208.608 129.801 208.608ZM137.072 204.236L136.493 204.4C136.436 204.236 136.355 204.088 136.251 203.956C136.147 203.823 136.011 203.718 135.843 203.64C135.677 203.562 135.471 203.523 135.225 203.523C134.856 203.523 134.553 203.61 134.316 203.785C134.079 203.961 133.961 204.187 133.961 204.464C133.961 204.698 134.041 204.889 134.202 205.035C134.366 205.18 134.617 205.295 134.955 205.38L135.779 205.582C136.236 205.693 136.578 205.87 136.805 206.111C137.035 206.353 137.15 206.656 137.15 207.02C137.15 207.328 137.064 207.602 136.894 207.841C136.724 208.08 136.486 208.268 136.18 208.405C135.877 208.54 135.526 208.608 135.126 208.608C134.593 208.608 134.154 208.488 133.808 208.249C133.462 208.008 133.241 207.66 133.144 207.205L133.751 207.056C133.829 207.38 133.982 207.625 134.209 207.791C134.439 207.957 134.741 208.04 135.115 208.04C135.534 208.04 135.869 207.946 136.12 207.759C136.371 207.57 136.496 207.333 136.496 207.049C136.496 206.829 136.423 206.644 136.276 206.495C136.129 206.343 135.907 206.232 135.608 206.161L134.717 205.948C134.244 205.834 133.893 205.654 133.666 205.408C133.439 205.162 133.325 204.857 133.325 204.492C133.325 204.191 133.407 203.927 133.57 203.7C133.733 203.47 133.958 203.291 134.245 203.16C134.531 203.03 134.858 202.965 135.225 202.965C135.724 202.965 136.123 203.079 136.422 203.306C136.722 203.531 136.939 203.841 137.072 204.236ZM142.199 204.236L141.62 204.4C141.563 204.236 141.482 204.088 141.378 203.956C141.274 203.823 141.138 203.718 140.97 203.64C140.804 203.562 140.598 203.523 140.352 203.523C139.983 203.523 139.68 203.61 139.443 203.785C139.206 203.961 139.088 204.187 139.088 204.464C139.088 204.698 139.168 204.889 139.329 205.035C139.493 205.18 139.743 205.295 140.082 205.38L140.906 205.582C141.363 205.693 141.705 205.87 141.932 206.111C142.162 206.353 142.277 206.656 142.277 207.02C142.277 207.328 142.191 207.602 142.021 207.841C141.85 208.08 141.613 208.268 141.307 208.405C141.004 208.54 140.653 208.608 140.252 208.608C139.72 208.608 139.281 208.488 138.935 208.249C138.589 208.008 138.368 207.66 138.271 207.205L138.878 207.056C138.956 207.38 139.109 207.625 139.336 207.791C139.566 207.957 139.868 208.04 140.242 208.04C140.661 208.04 140.996 207.946 141.247 207.759C141.498 207.57 141.623 207.333 141.623 207.049C141.623 206.829 141.55 206.644 141.403 206.495C141.256 206.343 141.034 206.232 140.735 206.161L139.844 205.948C139.371 205.834 139.02 205.654 138.793 205.408C138.566 205.162 138.452 204.857 138.452 204.492C138.452 204.191 138.534 203.927 138.697 203.7C138.86 203.47 139.085 203.291 139.372 203.16C139.658 203.03 139.985 202.965 140.352 202.965C140.851 202.965 141.25 203.079 141.549 203.306C141.849 203.531 142.066 203.841 142.199 204.236ZM145.184 208.618C144.855 208.618 144.554 208.555 144.282 208.427C144.01 208.296 143.793 208.109 143.632 207.866C143.471 207.619 143.391 207.321 143.391 206.971C143.391 206.701 143.442 206.474 143.544 206.289C143.645 206.104 143.79 205.953 143.977 205.834C144.164 205.716 144.385 205.622 144.641 205.554C144.896 205.485 145.178 205.432 145.486 205.394C145.791 205.356 146.049 205.323 146.26 205.295C146.473 205.266 146.635 205.221 146.747 205.16C146.858 205.098 146.914 204.999 146.914 204.861V204.733C146.914 204.362 146.802 204.069 146.58 203.856C146.36 203.641 146.042 203.533 145.628 203.533C145.235 203.533 144.914 203.62 144.666 203.792C144.419 203.965 144.247 204.169 144.147 204.403L143.547 204.187C143.67 203.888 143.841 203.65 144.058 203.473C144.276 203.293 144.52 203.164 144.79 203.086C145.06 203.005 145.333 202.965 145.61 202.965C145.819 202.965 146.035 202.992 146.26 203.047C146.487 203.101 146.698 203.196 146.892 203.331C147.086 203.463 147.244 203.649 147.365 203.888C147.485 204.125 147.546 204.426 147.546 204.79V208.494H146.914V207.631H146.874C146.799 207.792 146.686 207.948 146.537 208.1C146.388 208.251 146.201 208.376 145.976 208.473C145.751 208.57 145.487 208.618 145.184 208.618ZM145.269 208.04C145.606 208.04 145.897 207.965 146.143 207.816C146.389 207.667 146.579 207.469 146.711 207.223C146.846 206.974 146.914 206.701 146.914 206.403V205.614C146.866 205.659 146.787 205.699 146.676 205.735C146.567 205.77 146.44 205.802 146.296 205.831C146.154 205.857 146.012 205.879 145.869 205.898C145.727 205.917 145.6 205.934 145.486 205.948C145.178 205.986 144.915 206.045 144.698 206.126C144.48 206.206 144.313 206.317 144.197 206.459C144.081 206.599 144.023 206.779 144.023 206.999C144.023 207.331 144.141 207.587 144.378 207.77C144.615 207.95 144.912 208.04 145.269 208.04ZM151.308 210.653C150.936 210.653 150.611 210.605 150.331 210.508C150.052 210.413 149.817 210.283 149.625 210.117C149.433 209.951 149.284 209.765 149.177 209.559L149.696 209.219C149.774 209.356 149.878 209.491 150.008 209.623C150.141 209.756 150.313 209.866 150.523 209.954C150.736 210.041 150.998 210.085 151.308 210.085C151.791 210.085 152.18 209.964 152.476 209.723C152.775 209.481 152.924 209.106 152.924 208.597V207.368H152.867C152.794 207.534 152.688 207.7 152.551 207.866C152.414 208.029 152.234 208.165 152.011 208.274C151.791 208.383 151.518 208.437 151.191 208.437C150.755 208.437 150.368 208.33 150.03 208.114C149.693 207.899 149.428 207.591 149.234 207.191C149.042 206.788 148.947 206.309 148.947 205.753C148.947 205.201 149.04 204.716 149.227 204.297C149.416 203.878 149.68 203.551 150.019 203.317C150.358 203.082 150.752 202.965 151.202 202.965C151.535 202.965 151.812 203.024 152.032 203.143C152.253 203.259 152.429 203.403 152.562 203.576C152.697 203.749 152.802 203.917 152.878 204.08H152.942V203.04H153.559V208.636C153.559 209.098 153.461 209.478 153.265 209.776C153.068 210.074 152.801 210.295 152.462 210.437C152.124 210.581 151.739 210.653 151.308 210.653ZM151.265 207.858C151.616 207.858 151.915 207.774 152.164 207.606C152.412 207.436 152.603 207.192 152.736 206.875C152.868 206.558 152.934 206.18 152.934 205.742C152.934 205.316 152.869 204.938 152.739 204.609C152.609 204.278 152.42 204.017 152.171 203.828C151.925 203.636 151.623 203.54 151.265 203.54C150.901 203.54 150.593 203.639 150.342 203.835C150.091 204.032 149.902 204.297 149.774 204.631C149.646 204.962 149.582 205.332 149.582 205.742C149.582 206.159 149.647 206.527 149.778 206.846C149.908 207.164 150.098 207.412 150.349 207.592C150.6 207.77 150.906 207.858 151.265 207.858ZM157.438 208.608C156.929 208.608 156.489 208.489 156.117 208.253C155.746 208.014 155.458 207.683 155.254 207.262C155.053 206.838 154.952 206.35 154.952 205.799C154.952 205.25 155.053 204.762 155.254 204.336C155.458 203.907 155.738 203.572 156.096 203.331C156.456 203.087 156.871 202.965 157.342 202.965C157.638 202.965 157.924 203.019 158.198 203.128C158.473 203.235 158.719 203.399 158.937 203.622C159.157 203.842 159.331 204.12 159.459 204.456C159.587 204.79 159.651 205.186 159.651 205.643V205.955H155.389V205.398H159.004C159.004 205.047 158.933 204.732 158.791 204.453C158.652 204.171 158.456 203.949 158.205 203.785C157.957 203.622 157.669 203.54 157.342 203.54C156.997 203.54 156.692 203.633 156.43 203.817C156.167 204.002 155.961 204.246 155.812 204.549C155.665 204.852 155.59 205.183 155.588 205.543V205.877C155.588 206.31 155.663 206.689 155.812 207.013C155.963 207.335 156.178 207.585 156.455 207.763C156.732 207.94 157.059 208.029 157.438 208.029C157.696 208.029 157.922 207.989 158.116 207.908C158.313 207.828 158.478 207.72 158.61 207.585C158.745 207.448 158.847 207.297 158.915 207.134L159.516 207.329C159.433 207.559 159.297 207.771 159.107 207.965C158.92 208.159 158.686 208.315 158.404 208.434C158.125 208.55 157.803 208.608 157.438 208.608Z" fill="#A8ADAF"/>
</g>
<defs>
<clipPath id="clip0_4180_4074">
<rect width="394" height="343" fill="white" transform="translate(0.0332031)"/>
</clipPath>
</defs>
</svg>
