<?xml version="1.0" encoding="utf-8"?>
<!-- Generator: Adobe Illustrator 18.1.1, SVG Export Plug-In . SVG Version: 6.00 Build 0)  -->
<svg version="1.1" id="Layer_1" xmlns="http://www.w3.org/2000/svg" xmlns:xlink="http://www.w3.org/1999/xlink" x="0px" y="0px"
	 viewBox="0 0 300 300" enable-background="new 0 0 300 300" xml:space="preserve">
<path fill="none" stroke="#909090" stroke-width="18.0731" d="M93.7,191.1c2,5.4-53.3,54.7-21.1,94.8c7.6,9.4,33.2-44.8,69.5-69.3
	c20.1-13.5,66.7-42.3,66.7-58.2v-103c0-19.2-74-39.4-130.3-39.4C58,15.8,28.2,145,28.2,165.5C28.2,186.1,91.7,185.8,93.7,191.1z
	 M224,189.7c9.9,0,45.2-6,45.2-47v-73c0-41-35.3-45.5-45.2-45.5c-9.9,0,15.1,8.6,15.1,34v96C239,180.8,214.1,189.7,224,189.7z"/>
</svg>
