<?xml version="1.0" encoding="utf-8"?>
<!-- Generator: Adobe Illustrator 23.0.5, SVG Export Plug-In . SVG Version: 6.00 Build 0)  -->
<svg version="1.1" id="Layer_1" xmlns="http://www.w3.org/2000/svg" xmlns:xlink="http://www.w3.org/1999/xlink" x="0px" y="0px"
	 viewBox="0 0 9 6" style="enable-background:new 0 0 9 6;" xml:space="preserve">
<style type="text/css">
	.st0{fill:#FFFFFF;}
</style>
<path class="st0" d="M8.4,1.5c0,0.2-0.1,0.3-0.2,0.4L4.7,5.4C4.6,5.5,4.5,5.6,4.5,5.6c-0.1,0-0.1,0-0.2,0c-0.1,0-0.1,0-0.2,0
	C4,5.6,3.9,5.5,3.9,5.4L0.4,1.9C0.2,1.8,0.2,1.7,0.2,1.5c0-0.2,0.1-0.3,0.2-0.4C0.5,1,0.6,1,0.8,1S1.1,1,1.2,1.1l3.1,3.1l3.1-3.1
	C7.5,1,7.6,1,7.8,1C7.9,1,8.1,1,8.2,1.1C8.3,1.2,8.4,1.4,8.4,1.5z"/>
</svg>
