<svg id="Layer_1" data-name="Layer 1" xmlns="http://www.w3.org/2000/svg" viewBox="0 0 1012 616"><defs><style>.cls-1{fill:#263238;}.cls-2{fill:#455a64;}.cls-3{fill:#ed3b41;}.cls-4{fill:#ffc8a0;}.cls-5{fill:#cca67f;}.cls-6{fill:#bc936f;}.cls-7{fill:#ffbf9d;}.cls-8{fill:#fcb07c;}.cls-9{fill:#f9ba98;}.cls-10{fill:#f3f3f3;}</style></defs><title>error</title><path class="cls-1" d="M676.128,353.41c10.741-75.065.027-138.696-23.931-142.124s-52.087,54.645-62.827,129.71c-10.741,75.066-.027,138.697,23.931,142.125S665.388,428.476,676.128,353.41Z"/><path class="cls-2" d="M602.49,343.172c9.786-68.422,34.018-122.717,56.374-129.204a15.45557,15.45557,0,0,0-6.674-2.72c-23.959-3.427-52.086,54.649-62.821,129.718-10.738,75.068-.019,138.701,23.938,142.128a15.19637,15.19637,0,0,0,6.447-.515C600.573,469.236,592.81,410.857,602.49,343.172Z"/><path class="cls-3" d="M397.57,174.78l2.662,1.17a.46928.46928,0,0,1,.097.818l-2.34,1.555a.45091.45091,0,0,0-.165.199l-1.074,2.596a.46952.46952,0,0,1-.821.063l-1.661-2.386a.48769.48769,0,0,0-.209-.17l-2.662-1.171a.46843.46843,0,0,1-.097-.817l2.34-1.556a.451.451,0,0,0,.165-.199l1.074-2.595a.46885.46885,0,0,1,.821-.064l1.661,2.387A.54818.54818,0,0,0,397.57,174.78Z"/><path class="cls-3" d="M430.003,144.968l5.286,2.325a.9316.9316,0,0,1,.192,1.623l-4.647,3.088a.86364.86364,0,0,0-.326.397l-2.132,5.154a.93144.93144,0,0,1-1.629.125l-3.3-4.738a.98932.98932,0,0,0-.412-.34l-5.285-2.324a.932.932,0,0,1-.191-1.624l4.648-3.087a.8719.8719,0,0,0,.325-.395l2.133-5.155a.93207.93207,0,0,1,1.63-.127l3.3,4.739A.95689.95689,0,0,0,430.003,144.968Z"/><path class="cls-4" d="M415.95,348.263c-6.082,1.854-1.87,15.45.049,20.026,1.845,4.4,5.974,8.67,9.065,7.614,4.682-1.599,3.727-11.974,3.22-15.259S425.867,345.241,415.95,348.263Z"/><path class="cls-5" d="M426.287,427.287a4.29,4.29,0,0,1-4.332-4.248l-1.644-168.464a4.2907,4.2907,0,0,1,8.581-.083l1.643,168.463A4.29056,4.29056,0,0,1,426.287,427.287Z"/><path class="cls-6" d="M424.562,250.243a4.29081,4.29081,0,0,0-4.249,4.332l.532,54.559s5.676,1.734,5.764,10.683c.024,2.507.105,11.283.212,22.724.036,3.837-5.637,1.154-5.596,5.454.104,11.1.234,24.068.347,35.626.037,3.776,5.757-1.266,5.893,12.826.138,14.421.113,24.415.143,25.87.026,1.215.049,2.898.069,4.724a4.29087,4.29087,0,0,0,2.86-4.086l-1.643-168.464A4.2906,4.2906,0,0,0,424.562,250.243Z"/><path class="cls-7" d="M410.023,380.02c.048,3.146,1.202,4.771,6.624,4.247,5.11-.494,12.08-.97,12.297-3.86.216-2.882.111-5.624-8.134-4.714C413.258,376.527,409.98,377.18,410.023,380.02Z"/><path class="cls-8" d="M420.807,375.694a40.40975,40.40975,0,0,0-8.331,1.445c.665-.006,1.399-.04,2.213-.098a35.43351,35.43351,0,0,0,8.823-1.524A9.09381,9.09381,0,0,0,420.807,375.694Z"/><path class="cls-8" d="M417.304,383.905c-4.995.053-5.777-1.255-5.915-3.88-.094-1.808.793-2.722,3.709-3.368-3.126.133-5.082,1.323-5.136,3.281-.099,3.594,1.259,4.855,6.681,4.33a69.70611,69.70611,0,0,0,7.971-1.029A45.85648,45.85648,0,0,1,417.304,383.905Z"/><path class="cls-7" d="M428.8,368.377c-1.935-2.507-8.187-1.299-17.502-.602-2.598.195-5.647,1.143-5.316,4.536.399,4.098,2.122,4.982,8.203,4.453a69.98069,69.98069,0,0,0,12.236-2.092A4.0724,4.0724,0,0,0,428.8,368.377Z"/><path class="cls-7" d="M423.391,357.612c-1.332.072-8.76,1.067-14.119.755-3.253-.189-6.185,2.232-5.82,5.535.652,5.889,7.723,4.024,15.33,3.235,7.729-.802,9.992-1.511,9.918-5.371C428.638,358.567,426.34,357.451,423.391,357.612Z"/><path class="cls-8" d="M411.295,367.777a9.101,9.101,0,0,0-3.192.753c2.2-.315,8.842-.995,11.035-1.439C417.035,367.274,413.909,367.582,411.295,367.777Z"/><path class="cls-8" d="M409.114,359.634c3.313.15,9.299.31,12.652-1.879a83.053,83.053,0,0,1-12.491.606,4.37591,4.37591,0,0,0-3.033.75A9.67579,9.67579,0,0,0,409.114,359.634Z"/><path class="cls-7" d="M403.183,354.111c.401,2.504,1.423,4.676,4.581,4.793,3.872.143,16.952,1.521,16.4-5.141-.465-5.619-8.812-3.279-11.506-4.133-2.693-.854-7.548-1.278-8.266-.762C403.673,349.384,402.808,351.768,403.183,354.111Z"/><path class="cls-8" d="M412.779,376.867c-3.8-.026-5.277-1.93-5.355-4.589-.075-2.579,2.183-3.934,4.204-4.414-3.338.008-6.516-.531-6.728-4.006-.136-2.244.916-4.377,3.251-4.94-2.415-.423-3.172-2.567-3.37-4.486-.292-2.834.342-5.087,1.061-5.603a1.53723,1.53723,0,0,1,.643-.178,4.65748,4.65748,0,0,0-2.09.215c-.719.516-1.612,2.885-1.404,5.248.186,2.107,1.104,4.094,3.329,4.825-2.181.992-2.996,2.224-2.867,4.957.175,3.681,2.726,4.157,6.063,4.149-2.021.48-3.916,1.639-3.734,4.276C406.072,376.51,407.831,377.13,412.779,376.867Z"/><path class="cls-7" d="M618.305,342.246s-45.984,4.814-103.553,10.869c-28.247,2.971-49.062,1.324-59.472-5.322-10.409-6.645-23.961-11.219-32.061-11.59-8.099-.371-23.255,8.879-22.287,14.424,1.038,5.944,9.642,1.42,11.428.053s13.636-4.566,18.112,1.14c3.351,4.272.316,13.266-.145,21.269-.323,5.622-.206,10.264-.191,13.006,5.11,4.113,19.348,3.166,30.942,1.032,13.053-2.402,88.479.278,117.099.689,35.8.515,40.577.363,40.577.363Z"/><path class="cls-9" d="M446.693,366.468c-16.781-4.939-9.643-16.098-19.256-18.132a22.36735,22.36735,0,0,0-13.656,1.643c3.231-1.229,9.986-2.204,14.225.669a4.18883,4.18883,0,0,1,1.824,3.431l.181,18.503c.042,4.295.117,11.855.117,11.855C429.475,370.531,450.419,367.565,446.693,366.468Z"/><path class="cls-10" d="M585.671,304.523l-318.273,3.105c-2.773.027-5.039-1.868-5.062-4.232l-1.931-197.959c-.023-2.364,2.206-4.303,4.979-4.33l318.273-3.1043c2.773-.027,5.039,1.868,5.062,4.2323l1.931,197.958C590.673,302.558,588.444,304.496,585.671,304.523Z"/><path class="cls-3" d="M678.521,333.131l-66.356,2.709-1.409,56.78,58.057-.792.842-3.597.823-3.583,1.542-7.282,2.80395-14.544,2.011-14.768.926-7.579Z"/><path class="cls-1" d="M664.653,388.607a26.41692,26.41692,0,0,1-4.022-3.617,117.83782,117.83782,0,0,1-16.195-20.425,26.2883,26.2883,0,0,1-2.605-4.739,38.43628,38.43628,0,0,1,3.151,4.38c1.889,2.738,4.56,6.472,7.71,10.447,3.151,3.969,6.178,7.422,8.413,9.885A38.89964,38.89964,0,0,1,664.653,388.607Z"/><path class="cls-10" d="M710.977,75.8554l5.892,3.5082a1.13629,1.13629,0,0,1-.108,1.9903l-6.254,3.1284a1.16537,1.16537,0,0,0-.475.4373L706.38,90.882a1.136,1.136,0,0,1-1.992-.0631l-2.991-6.1713a1.09377,1.09377,0,0,0-.428-.4653l-5.892-3.5082a1.13629,1.13629,0,0,1,.108-1.9903l6.254-3.1284a1.16522,1.16522,0,0,0,.475-.4359l3.651-5.9624a1.13684,1.13684,0,0,1,1.993.0617l2.991,6.1713A1.10292,1.10292,0,0,0,710.977,75.8554Z"/><path class="cls-10" d="M354.359,576.555l-5.892,3.508a1.136,1.136,0,0,0,.108,1.99l6.254,3.129a1.16361,1.16361,0,0,1,.475.437l3.652,5.962a1.13623,1.13623,0,0,0,1.992-.063l2.991-6.171a1.09828,1.09828,0,0,1,.428-.465l5.892-3.509a1.13577,1.13577,0,0,0-.109-1.99l-6.254-3.128a1.16849,1.16849,0,0,1-.475-.436l-3.652-5.963a1.1371,1.1371,0,0,0-1.993.062l-2.991,6.171A1.08358,1.08358,0,0,1,354.359,576.555Z"/><path class="cls-10" d="M854.797,556.465l5.892,3.508a1.13569,1.13569,0,0,1-.108,1.99l-6.254,3.129a1.16346,1.16346,0,0,0-.475.437l-3.652,5.962a1.1352,1.1352,0,0,1-1.992-.063l-2.991-6.171a1.09528,1.09528,0,0,0-.427-.465l-5.893-3.509a1.13549,1.13549,0,0,1,.11005-1.99l6.253-3.12805a1.17112,1.17112,0,0,0,.476-.436l3.651-5.962a1.13666,1.13666,0,0,1,1.993.061l2.991,6.171A1.09711,1.09711,0,0,0,854.797,556.465Z"/><path class="cls-10" d="M161.836,126.375l5.893,3.508a1.1364,1.1364,0,0,1-.108,1.99l-6.254,3.129a1.15122,1.15122,0,0,0-.475.437l-3.653,5.963a1.13591,1.13591,0,0,1-1.992-.064l-2.991-6.171a1.10114,1.10114,0,0,0-.427-.465l-5.893-3.508a1.13723,1.13723,0,0,1,.108-1.991l6.254-3.128a1.162,1.162,0,0,0,.475-.436l3.652-5.962a1.13673,1.13673,0,0,1,1.993.061l2.991,6.172A1.10762,1.10762,0,0,0,161.836,126.375Z"/><path class="cls-10" d="M263.512,8.01554l5.892,3.50826a1.13585,1.13585,0,0,1-.108,1.9902l-6.254,3.1284a1.16632,1.16632,0,0,0-.475.4373l-3.652,5.9624a1.13555,1.13555,0,0,1-1.992-.063l-2.991-6.1713a1.10431,1.10431,0,0,0-.427-.4653l-5.893-3.5082a1.1363,1.1363,0,0,1,.108-1.9903l6.254-3.1284a1.16613,1.16613,0,0,0,.475-.4359L258.1,1.31727a1.1377,1.1377,0,0,1,1.994.06168l2.991,6.17126A1.109,1.109,0,0,0,263.512,8.01554Z"/><path class="cls-10" d="M8.598,59.5866l2.98966,1.78a.57587.57587,0,0,1-.0547,1.0092L8.35977,63.9624a.58272.58272,0,0,0-.24108.2214L6.26577,67.2099a.576.576,0,0,1-1.01055-.0322L3.73728,64.0465A.55946.55946,0,0,0,3.52,63.811L.53041,62.031a.57755.57755,0,0,1,.05466-1.0106L3.7583,59.4338a.58353.58353,0,0,0,.24107-.2215l1.85292-3.026a.57635.57635,0,0,1,1.01056.0308l1.51794,3.1312A.55055.55055,0,0,0,8.598,59.5866Z"/><path class="cls-10" d="M405.969,42.3209l2.99,1.7801a.57577.57577,0,0,1-.055,1.0091l-3.173,1.5866a.57789.57789,0,0,0-.241.2215l-1.853,3.0261a.57631.57631,0,0,1-1.011-.0323l-1.518-3.1312a.54729.54729,0,0,0-.217-.2354l-2.989-1.7801a.57727.57727,0,0,1,.054-1.0105l3.173-1.5866a.57777.57777,0,0,0,.241-.2215l1.853-3.026a.57673.57673,0,0,1,1.011.0308l1.518,3.1312A.55678.55678,0,0,0,405.969,42.3209Z"/><path class="cls-10" d="M746.028,40.0149l2.99,1.78a.5773.5773,0,0,1-.055,1.0105l-3.173,1.5867a.57693.57693,0,0,0-.241.2214l-1.853,3.0261a.57631.57631,0,0,1-1.011-.0323l-1.517-3.1311a.55.55,0,0,0-.218-.2355l-2.989-1.78a.577.577,0,0,1,.054-1.0106l3.174-1.5866a.58969.58969,0,0,0,.241-.2215l1.853-3.026a.57588.57588,0,0,1,1.01.0308L745.811,39.778A.55627.55627,0,0,0,746.028,40.0149Z"/><path class="cls-10" d="M420.015,606.532l-3.508,2.048a.67372.67372,0,0,0,.053,1.18l3.689,1.885a.69265.69265,0,0,1,.281.261l2.133,3.552a.67305.67305,0,0,0,1.18-.027l1.804-3.641a.6481.6481,0,0,1,.255-.274l3.508-2.047a.67355.67355,0,0,0-.054-1.181l-3.689-1.885a.69491.69491,0,0,1-.279-.261l-2.133-3.551a.67317.67317,0,0,0-1.181.026l-1.803,3.64A.636.636,0,0,1,420.015,606.532Z"/><path class="cls-10" d="M1007.91,337.437l3.5,2.048a.67085.67085,0,0,1-.05,1.18l-3.69,1.885a.69091.69091,0,0,0-.28.261l-2.13,3.551a.67259.67259,0,0,1-1.18-.026l-1.81-3.64a.6077.6077,0,0,0-.25-.274l-3.509-2.047a.67312.67312,0,0,1,.055-1.18l3.694-1.886a.6631.6631,0,0,0,.27-.26l2.13995-3.552a.67216.67216,0,0,1,1.18.027l1.8,3.64A.61231.61231,0,0,0,1007.91,337.437Z"/><path class="cls-10" d="M134.854,427.601l2.823,1.681a.54363.54363,0,0,1-.052.953l-2.995,1.498a.56084.56084,0,0,0-.228.209l-1.749,2.856a.54527.54527,0,0,1-.955-.029l-1.432-2.956a.532.532,0,0,0-.205-.223l-2.823-1.68a.54484.54484,0,0,1,.052-.954l2.995-1.498a.55822.55822,0,0,0,.227-.209l1.749-2.856a.54527.54527,0,0,1,.955.029l1.432,2.956A.529.529,0,0,0,134.854,427.601Z"/><path class="cls-10" d="M292.443,577.066l2.823,1.68a.54485.54485,0,0,1-.052.954l-2.995,1.498a.54519.54519,0,0,0-.227.209l-1.75,2.856a.54444.54444,0,0,1-.954-.029l-1.433-2.956a.52307.52307,0,0,0-.204-.223l-2.823-1.681a.544.544,0,0,1,.052-.953l2.995-1.49805a.58258.58258,0,0,0,.229-.209l1.749-2.856a.54411.54411,0,0,1,.954.029l1.433,2.956A.515.515,0,0,0,292.443,577.066Z"/><path class="cls-10" d="M829.8,508.492l2.823,1.68a.5443.5443,0,0,1-.052.953l-2.996,1.499a.57108.57108,0,0,0-.228.20795l-1.749,2.85706a.545.545,0,0,1-.955-.03l-1.432-2.955a.52549.52549,0,0,0-.205-.223l-2.823-1.681a.54433.54433,0,0,1,.052-.953l2.995-1.498a.56725.56725,0,0,0,.228-.209l1.749-2.857a.54415.54415,0,0,1,.954.03l1.433,2.956A.55329.55329,0,0,0,829.8,508.492Z"/><path class="cls-10" d="M770.179,575.062l2.823,1.681a.54434.54434,0,0,1-.052.953l-2.996,1.498a.56723.56723,0,0,0-.228.209l-1.749,2.856a.54529.54529,0,0,1-.955-.029L765.59,579.274a.53206.53206,0,0,0-.205-.223l-2.823-1.681a.54437.54437,0,0,1,.052-.953l2.995-1.498a.57707.57707,0,0,0,.229-.209l1.749-2.856a.5453.5453,0,0,1,.955.029l1.432,2.956A.52065.52065,0,0,0,770.179,575.062Z"/><path class="cls-3" d="M841.573,199.597l1.458.903a.27681.27681,0,0,1-.011.485l-1.494.714a.26732.26732,0,0,0-.112.104l-.841,1.427a.2762.2762,0,0,1-.484-.031l-.774-1.529a.28212.28212,0,0,0-.106-.116l-1.458-.903a.27679.27679,0,0,1,.011-.485l1.495-.715a.27592.27592,0,0,0,.112-.102l.841-1.427a.27532.27532,0,0,1,.483.031l.774,1.529A.29288.29288,0,0,0,841.573,199.597Z"/><path class="cls-3" d="M842.726,411.462l1.457.902a.276.276,0,0,1-.011.485l-1.494.715a.27024.27024,0,0,0-.112.102l-.841,1.427a.27532.27532,0,0,1-.483-.031l-.774-1.529a.29905.29905,0,0,0-.107-.116l-1.457-.903a.27611.27611,0,0,1,.011-.485l1.494-.714a.27763.27763,0,0,0,.112-.103l.841-1.427a.277.277,0,0,1,.485.031l.774,1.529A.275.275,0,0,0,842.726,411.462Z"/><path class="cls-3" d="M900.926,314.372l2.81994,1.679a.54434.54434,0,0,1-.052.953l-2.993,1.497a.55332.55332,0,0,0-.228.209l-1.748,2.853a.54324.54324,0,0,1-.953-.029l-1.431-2.953a.5256.5256,0,0,0-.205-.223l-2.82-1.679a.544.544,0,0,1,.052-.953l2.993-1.497a.57117.57117,0,0,0,.227-.209l1.747-2.854a.54325.54325,0,0,1,.953.03l1.432,2.953A.55339.55339,0,0,0,900.926,314.372Z"/><path class="cls-3" d="M825.944,215.453l2.837,1.756a.53854.53854,0,0,1-.021.944l-2.908,1.391a.51816.51816,0,0,0-.219.201l-1.636,2.778a.53716.53716,0,0,1-.941-.06l-1.507-2.977a.5742.5742,0,0,0-.209-.228l-2.837-1.756a.53766.53766,0,0,1,.021-.943l2.908-1.392a.50445.50445,0,0,0,.219-.2l1.636-2.778a.538.538,0,0,1,.942.059l1.506,2.977A.57406.57406,0,0,0,825.944,215.453Z"/><path class="cls-3" d="M252.997,312.413l2.141,1.365a.40924.40924,0,0,1-.025.718l-2.227,1.03a.37611.37611,0,0,0-.168.15l-1.274,2.098a.40932.40932,0,0,1-.716-.054l-1.116-2.282a.43478.43478,0,0,0-.157-.175l-2.142-1.365a.41.41,0,0,1,.025-.718l2.228-1.03a.38656.38656,0,0,0,.168-.15l1.274-2.098a.40935.40935,0,0,1,.716.054l1.116,2.282A.42764.42764,0,0,0,252.997,312.413Z"/><path class="cls-3" d="M81.9809,376.029l2.0716,1.186a.38459.38459,0,0,1,.0084.675l-2.0449,1.067a.36287.36287,0,0,0-.1514.148l-1.1017,2.026a.38527.38527,0,0,1-.6755-.02L78.938,379.02a.40111.40111,0,0,0-.1541-.157l-2.0716-1.186a.38541.38541,0,0,1-.0084-.676l2.0449-1.066a.37144.37144,0,0,0,.1514-.149l1.1017-2.025a.38493.38493,0,0,1,.6755.02l1.1494,2.091A.3984.3984,0,0,0,81.9809,376.029Z"/><path class="cls-3" d="M95.5903,185.716l2.0716,1.186a.38592.38592,0,0,1,.0084.676l-2.045,1.066a.3717.3717,0,0,0-.1513.149l-1.1017,2.025a.38535.38535,0,0,1-.6756-.02l-1.1493-2.091a.40757.40757,0,0,0-.1542-.157l-2.0715-1.185a.38543.38543,0,0,1-.0084-.676l2.0449-1.067a.36352.36352,0,0,0,.1514-.148l1.1016-2.026a.3857.3857,0,0,1,.6756.02l1.1493,2.091A.4225.4225,0,0,0,95.5903,185.716Z"/><path class="cls-3" d="M66.8307,383.827l4.1123,2.354a.76532.76532,0,0,1,.0168,1.342l-4.0605,2.118a.70643.70643,0,0,0-.2999.295l-2.1865,4.023a.76392.76392,0,0,1-1.3399-.039l-2.2833-4.153a.80628.80628,0,0,0-.3069-.313l-4.1123-2.355a.764.764,0,0,1-.0154-1.341l4.0604-2.118a.71543.71543,0,0,0,.3-.294l2.1865-4.023a.76514.76514,0,0,1,1.3413.04l2.2832,4.153A.79522.79522,0,0,0,66.8307,383.827Z"/><path class="cls-3" d="M673.653,456.997l4.113,2.354a.7655.7655,0,0,1,.015,1.342l-4.06,2.118a.709.709,0,0,0-.3.294l-2.187,4.023a.76406.76406,0,0,1-1.34-.04l-2.283-4.153a.8146.8146,0,0,0-.307-.312l-4.114-2.355a.76467.76467,0,0,1-.015-1.341l4.06-2.118a.709.709,0,0,0,.3-.294l2.187-4.023a.76518.76518,0,0,1,1.341.038l2.283,4.153A.79928.79928,0,0,0,673.653,456.997Z"/><path class="cls-3" d="M617.101,152.616l2.677,1.534a.498.498,0,0,1,.011.873l-2.643,1.379a.45764.45764,0,0,0-.195.192l-1.424,2.62a.49827.49827,0,0,1-.873-.025l-1.488-2.704a.52052.52052,0,0,0-.2-.203l-2.679-1.534a.49724.49724,0,0,1-.009-.873l2.643-1.379a.469.469,0,0,0,.195-.192l1.42395-2.62a.498.498,0,0,1,.873.025l1.487,2.704A.51647.51647,0,0,0,617.101,152.616Z"/></svg>