<?xml version="1.0" encoding="utf-8"?>
<!-- Generator: Adobe Illustrator 23.0.5, SVG Export Plug-In . SVG Version: 6.00 Build 0)  -->
<svg version="1.1" id="Layer_1" xmlns="http://www.w3.org/2000/svg" xmlns:xlink="http://www.w3.org/1999/xlink" x="0px" y="0px"
	 viewBox="0 0 25 26" style="enable-background:new 0 0 25 26;" xml:space="preserve">
<style type="text/css">
	.st0{fill-rule:evenodd;clip-rule:evenodd;fill:#808D9E;}
</style>
<path class="st0" d="M12.5,3C9.9,3,7.8,5.1,7.8,7.7c0,2.6,2.1,4.7,4.7,4.7c2.6,0,4.7-2.1,4.7-4.7C17.2,5.1,15.1,3,12.5,3z M9.4,7.7
	c0-1.7,1.4-3.1,3.1-3.1c1.7,0,3.1,1.4,3.1,3.1c0,1.7-1.4,3.1-3.1,3.1C10.8,10.8,9.4,9.4,9.4,7.7z M12.5,13.1c-3.6,0-5.8,1.1-7.1,2.7
	c-1.3,1.6-1.6,3.5-1.6,4.8c0,1.6,1.4,2.6,2.8,2.6h11.7c1.4,0,2.8-1,2.8-2.6c0-1.3-0.3-3.2-1.6-4.8C18.3,14.3,16.1,13.1,12.5,13.1z
	 M5.4,20.7c0-1.2,0.2-2.7,1.2-3.8c0.9-1.1,2.7-2.1,5.9-2.1c3.3,0,5,1,5.9,2.1c1,1.2,1.2,2.7,1.2,3.8c0,0.6-0.5,1.1-1.2,1.1H6.6
	C5.9,21.7,5.4,21.2,5.4,20.7z"/>
</svg>
