<svg id="Layer_1" data-name="Layer 1" xmlns="http://www.w3.org/2000/svg" viewBox="0 0 136.07422 51.83801"><defs><style>.cls-1{fill:#faf6f4;}.cls-2{fill:#4285f4;}.cls-3{fill:#34a853;}.cls-4{fill:#fbbc05;}.cls-5{fill:#eb4335;}</style></defs><title>Google</title><path class="cls-1" d="M.06836,25.919A25.919,25.919,0,0,1,25.98734,0H110.224a25.919,25.919,0,1,1,0,51.838H25.9873A25.919,25.919,0,0,1,.06836,25.919Z"/><path class="cls-2" d="M84.97452,26.2423a14.75691,14.75691,0,0,0-.36353-3.5205H68.44336v6.39045h9.49a8.41509,8.41509,0,0,1-3.52051,5.58689l-.03216.21395,5.1119,3.96013.35416.03535A16.83666,16.83666,0,0,0,84.97452,26.2423Z"/><path class="cls-3" d="M68.44376,43.07948a16.413,16.413,0,0,0,11.40341-4.171L74.4133,34.699a10.1917,10.1917,0,0,1-5.96954,1.722,10.36657,10.36657,0,0,1-9.79633-7.15575l-.202.01715L53.13,33.39607l-.06949.19324A17.20751,17.20751,0,0,0,68.44376,43.07948Z"/><path class="cls-4" d="M58.64822,29.26544a10.60125,10.60125,0,0,1-.57388-3.40574,11.13925,11.13925,0,0,1,.55478-3.40574l-.00964-.22819-5.382-4.17975-.17609.08376a17.18386,17.18386,0,0,0,0,15.45971Z"/><path class="cls-5" d="M68.44376,15.29787a9.54377,9.54377,0,0,1,6.65832,2.56393l4.85986-4.74508A16.54457,16.54457,0,0,0,68.44376,8.63953a17.20739,17.20739,0,0,0-15.38321,9.49l5.56775,4.32418A10.40908,10.40908,0,0,1,68.44376,15.29787Z"/></svg>