<svg width="28" height="27" viewBox="0 0 28 27" fill="none" xmlns="http://www.w3.org/2000/svg">
<g clip-path="url(#clip0_1332_5779)">
<g clip-path="url(#clip1_1332_5779)">
<path d="M26.8647 13.8972C26.8647 13.035 26.7883 12.2164 26.6573 11.4197H14.3242V16.342H21.3858C21.0692 17.9573 20.1415 19.3216 18.7663 20.2493V23.5236H22.9792C25.4459 21.2425 26.8647 17.8809 26.8647 13.8972Z" fill="#4285F4"/>
<path d="M14.322 26.6996C17.8582 26.6996 20.816 25.5208 22.977 23.5235L18.7641 20.2492C17.5854 21.0351 16.0901 21.5153 14.322 21.5153C10.9058 21.5153 8.01355 19.2124 6.97669 16.1018H2.63281V19.4743C4.78292 23.7527 9.2032 26.6996 14.322 26.6996Z" fill="#34A853"/>
<path d="M6.97838 16.102C6.70553 15.3161 6.56364 14.4757 6.56364 13.6026C6.56364 12.7294 6.71644 11.889 6.97838 11.1032V7.73071H2.6345C1.73953 9.49882 1.22656 11.4852 1.22656 13.6026C1.22656 15.72 1.73953 17.7064 2.6345 19.4745L6.97838 16.102Z" fill="#FBBC05"/>
<path d="M14.322 5.68965C16.2538 5.68965 17.9783 6.35542 19.3426 7.65422L23.0752 3.92154C20.816 1.80417 17.8582 0.505371 14.322 0.505371C9.2032 0.505371 4.78292 3.45223 2.63281 7.73062L6.97669 11.1031C8.01355 7.99256 10.9058 5.68965 14.322 5.68965Z" fill="#EA4335"/>
</g>
</g>
<defs>
<clipPath id="clip0_1332_5779">
<rect width="26.1942" height="26.1942" fill="white" transform="translate(0.947266 0.505371)"/>
</clipPath>
<clipPath id="clip1_1332_5779">
<rect width="26.1942" height="26.1942" fill="white" transform="translate(0.947266 0.505371)"/>
</clipPath>
</defs>
</svg>
