<svg id="Layer_1" data-name="Layer 1" xmlns="http://www.w3.org/2000/svg" viewBox="0 0 23.99998 23.99998"><defs><style>.cls-1{fill:#fff;}.cls-2,.cls-3{fill:none;}.cls-2{stroke:#111;stroke-linecap:round;stroke-linejoin:round;stroke-width:0.86777px;}.cls-3{stroke:#cfcfcf;stroke-width:0.37718px;}</style></defs><title>hide</title><path class="cls-1" d="M12,.18859h0A11.81139,11.81139,0,0,1,23.81139,12h0A11.81139,11.81139,0,0,1,12,23.81139h0A11.81139,11.81139,0,0,1,.18859,12h0A11.81139,11.81139,0,0,1,12,.18859Z" transform="translate(0 0)"/><path class="cls-2" d="M13.4585,14.9168l-2.9167-2.9166,2.9167-2.9167" transform="translate(0 0)"/><path class="cls-3" d="M12,.18859h0A11.81139,11.81139,0,0,1,23.81139,12h0A11.81139,11.81139,0,0,1,12,23.81139h0A11.81139,11.81139,0,0,1,.18859,12h0A11.81139,11.81139,0,0,1,12,.18859Z" transform="translate(0 0)"/></svg>