<svg width="20" height="21" viewBox="0 0 20 21" fill="none" xmlns="http://www.w3.org/2000/svg">
<g clip-path="url(#clip0_1_11624)">
<path d="M8.45703 0.685181C7.32422 0.923462 6.36328 1.50549 5.6875 2.36487C5.30469 2.84924 5.11719 3.1969 4.92578 3.77112C4.71484 4.39221 4.6875 4.70862 4.6875 6.41565V7.95081H4.01953C3.55078 7.95081 3.27344 7.97034 3.07812 8.01331C1.83203 8.29846 0.867188 9.31799 0.667969 10.568C0.609375 10.9156 0.609375 17.6422 0.667969 17.9899C0.867188 19.2399 1.83203 20.2594 3.07812 20.5446C3.31641 20.5992 3.6875 20.6071 5.72266 20.6071C7.97266 20.6071 8.09766 20.6031 8.23438 20.5328C8.41797 20.4391 8.53516 20.3141 8.61328 20.1305C8.76953 19.7477 8.60938 19.3102 8.23438 19.1188C8.09766 19.0485 7.97656 19.0446 5.98828 19.0446C4.83203 19.0406 3.76953 19.025 3.625 19.0094C2.96484 18.9235 2.44922 18.4742 2.28516 17.8492C2.19531 17.5094 2.19531 11.0485 2.28516 10.7086C2.44922 10.0836 2.96484 9.6344 3.625 9.54846C3.96875 9.50549 14.8203 9.50549 15.1641 9.54846C15.6602 9.61487 16.1016 9.90002 16.3438 10.3141C16.5117 10.5953 16.5625 10.8805 16.5625 11.4938C16.5625 12.0914 16.5977 12.2516 16.7695 12.4352C17.0703 12.7594 17.6562 12.7594 17.957 12.4352C18.1328 12.2477 18.1641 12.0953 18.1641 11.4391C18.1641 10.7477 18.125 10.4391 17.9883 10.0485C17.6328 9.02502 16.7695 8.25549 15.7109 8.01331C15.5156 7.97034 15.2383 7.95081 14.7695 7.95081H14.1016V6.45081C14.1016 5.62268 14.082 4.81018 14.0625 4.64221C13.918 3.56018 13.4297 2.60315 12.6406 1.86877C11.9727 1.24377 11.1758 0.845337 10.2383 0.669556C9.78125 0.583618 8.91406 0.591431 8.45703 0.685181ZM10.293 2.32581C11.4258 2.68909 12.2109 3.53674 12.4414 4.65002C12.4883 4.88049 12.5 5.24377 12.5 6.4469V7.95081H9.39062H6.28516L6.30078 6.31799C6.31641 4.49768 6.31641 4.49377 6.60156 3.90784C6.98828 3.12659 7.74219 2.52502 8.63281 2.28674C9.04297 2.17737 9.89062 2.1969 10.293 2.32581Z" fill="#9D9DA8"/>
<path d="M13.2227 13.0719C11.8399 13.3024 10.4532 14.236 9.09379 15.8414C8.62504 16.4 8.51566 16.6344 8.57426 16.9742C8.65629 17.4703 10.125 19.025 11.1485 19.6969C11.8164 20.1422 12.5899 20.4586 13.2539 20.568C13.5664 20.6188 14.3633 20.6188 14.6758 20.568C15.6563 20.4078 16.6602 19.8883 17.6368 19.0328C18.3477 18.4117 19.25 17.361 19.336 17.0602C19.4141 16.7711 19.3594 16.5211 19.1563 16.2477C18.5118 15.3766 17.5547 14.4469 16.7813 13.9391C16.1133 13.4938 15.3399 13.1774 14.6758 13.068C14.3907 13.0211 13.5 13.025 13.2227 13.0719ZM14.6289 14.7047C15.461 14.9235 16.1094 15.3414 17.0039 16.2399C17.2969 16.5367 17.5391 16.7985 17.5391 16.818C17.5391 16.8883 16.4649 17.9352 16.168 18.1578C15.3672 18.7477 14.7032 19.0055 13.9649 19.0055C13.2266 19.0055 12.5625 18.7477 11.7618 18.1578C11.4649 17.9352 10.3907 16.8883 10.3907 16.818C10.3907 16.7477 11.4649 15.7008 11.7618 15.4781C12.3047 15.0797 12.75 14.8492 13.2813 14.7047C13.6328 14.611 14.2696 14.611 14.6289 14.7047Z" fill="#9D9DA8"/>
<path d="M13.5312 15.3922C13.3203 15.4586 13.0898 15.6071 12.9102 15.7906C12.3789 16.3336 12.3789 17.3024 12.9102 17.8453C13.2188 18.1617 13.5547 18.3024 14.0039 18.3024C14.7656 18.3024 15.3359 17.8258 15.4727 17.0758C15.6094 16.3414 15.168 15.6031 14.457 15.3883C14.2383 15.3219 13.75 15.3219 13.5312 15.3922Z" fill="#9D9DA8"/>
<path d="M4.66792 13.4078C4.18745 13.6578 4.07026 14.2789 4.42573 14.6617C4.72651 14.986 5.31245 14.986 5.61323 14.6617C5.9687 14.2828 5.85151 13.6578 5.38276 13.4156C5.20307 13.3219 4.83588 13.318 4.66792 13.4078Z" fill="#9D9DA8"/>
<path d="M7.5976 13.4078C7.11713 13.6578 6.99995 14.2789 7.35542 14.6617C7.6562 14.986 8.24213 14.986 8.54292 14.6617C8.89838 14.2828 8.7812 13.6578 8.31245 13.4156C8.13276 13.3219 7.76557 13.318 7.5976 13.4078Z" fill="#9D9DA8"/>
</g>
<defs>
<clipPath id="clip0_1_11624">
<rect width="20" height="20" fill="white" transform="translate(0 0.607056)"/>
</clipPath>
</defs>
</svg>
