<svg width="41" height="41" viewBox="0 0 41 41" fill="none" xmlns="http://www.w3.org/2000/svg">
<path d="M14.4772 39.5062H26.029C35.6555 39.5062 39.5062 35.6555 39.5062 26.029V14.4772C39.5062 4.85062 35.6555 1 26.029 1H14.4772C4.85062 1 1 4.85062 1 14.4772V26.029C1 35.6555 4.85062 39.5062 14.4772 39.5062Z" fill="white" stroke="white" stroke-width="1.92324" stroke-linecap="round" stroke-linejoin="round"/>
<path d="M12.9722 15.3034C12.9722 15.085 12.9769 14.9235 12.9864 14.819C13.0054 14.7051 13.0529 14.5769 13.1289 14.4344C13.2619 14.178 13.6323 14.0497 14.2401 14.0497C14.9049 14.0497 15.2991 14.2254 15.4225 14.5769C15.47 14.7383 15.4938 14.9852 15.4938 15.3177V23.2385C15.4938 23.4665 15.4843 23.6327 15.4653 23.7371C15.4558 23.8416 15.413 23.9651 15.3371 24.1075C15.2041 24.364 14.8337 24.4922 14.2259 24.4922C13.561 24.4922 13.1716 24.3117 13.0577 23.9508C13.0007 23.7989 12.9722 23.5567 12.9722 23.2243V15.3034ZM25.3355 22.7257C25.478 23.0676 25.5492 23.3145 25.5492 23.4665C25.5492 23.8274 25.2548 24.1313 24.666 24.3782C24.362 24.5112 24.1151 24.5777 23.9252 24.5777C23.7447 24.5777 23.5927 24.5349 23.4693 24.4494C23.3553 24.3545 23.2698 24.2595 23.2128 24.1645C23.1179 23.9841 22.7475 23.1246 22.1016 21.586L21.66 21.6145H19.865V23.2243C19.865 23.4427 19.8555 23.6089 19.8365 23.7229C19.827 23.8274 19.7843 23.9508 19.7083 24.0933C19.5753 24.3497 19.2049 24.4779 18.5971 24.4779C17.9323 24.4779 17.5429 24.3022 17.4289 23.9508C17.3719 23.7894 17.3434 23.5424 17.3434 23.21V15.3034C17.3434 15.085 17.3482 14.9235 17.3577 14.819C17.3767 14.7051 17.4242 14.5769 17.5001 14.4344C17.6331 14.178 18.0035 14.0497 18.6113 14.0497H21.6885C22.5243 14.0497 23.3363 14.3537 24.1246 14.9615C24.5045 15.2559 24.8179 15.6548 25.0648 16.1582C25.3118 16.6615 25.4352 17.2219 25.4352 17.8392C25.4352 18.9124 25.0791 19.7957 24.3668 20.489C24.5757 20.9924 24.8986 21.7379 25.3355 22.7257ZM19.865 19.0929H21.6885C21.9639 19.0929 22.2394 18.9884 22.5148 18.7795C22.7902 18.5705 22.9279 18.2571 22.9279 17.8392C22.9279 17.4213 22.7902 17.1079 22.5148 16.899C22.2394 16.6805 21.9544 16.5713 21.66 16.5713H19.865V19.0929Z" fill="#E21B22"/>
</svg>
