<svg width="27" height="28" viewBox="0 0 27 28" fill="none" xmlns="http://www.w3.org/2000/svg">
<rect x="0.319336" y="0.489197" width="26.5612" height="26.5612" rx="4.98022" fill="#DD1628"/>
<path d="M9.80878 7.81407V19.0004H7.69598V7.81407H9.80878ZM12.0906 7.81407H16.1549C17.0051 7.81407 17.735 7.94212 18.3445 8.19822C18.954 8.45432 19.4227 8.83334 19.7505 9.33529C20.0783 9.83725 20.2422 10.4544 20.2422 11.1869C20.2422 11.7657 20.1398 12.2676 19.9349 12.6927C19.73 13.1179 19.4406 13.4738 19.0667 13.7607C18.6979 14.0475 18.2626 14.2729 17.7606 14.4368L17.0999 14.7748H13.512L13.4966 13.1076H16.1779C16.6133 13.1076 16.9744 13.0308 17.2612 12.8771C17.5481 12.7235 17.7632 12.5109 17.9066 12.2394C18.0551 11.968 18.1294 11.6581 18.1294 11.3098C18.1294 10.9359 18.0577 10.6132 17.9143 10.3418C17.7709 10.0652 17.5532 9.85261 17.2612 9.70408C16.9693 9.55554 16.6005 9.48127 16.1549 9.48127H14.2034V19.0004H12.0906V7.81407ZM18.406 19.0004L15.8168 13.9912L18.0526 13.9835L20.6725 18.8929V19.0004H18.406Z" fill="white"/>
</svg>
