<?xml version="1.0" encoding="utf-8"?>
<!-- Generator: Adobe Illustrator 18.1.1, SVG Export Plug-In . SVG Version: 6.00 Build 0)  -->
<svg version="1.1" id="Layer_1" xmlns="http://www.w3.org/2000/svg" xmlns:xlink="http://www.w3.org/1999/xlink" x="0px" y="0px"
	 viewBox="-141 142 17 17" enable-background="new -141 142 17 17" xml:space="preserve">
<path fill="#CCCCCC" d="M-129.7,155.8c-0.1,0.2-0.2,0.2-0.4,0.2c-0.1,0-0.2,0-0.3,0c-0.1-0.1-5.4-5.3-5.4-5.4c0-0.1,0-0.4,0-0.5
	c0.1-0.1,5.3-5.4,5.4-5.4c0,0,0.2,0,0.3,0c0.3,0,0.5,0.2,0.5,0.5c0,0.1,0,0.2,0,0.2c0,0-1.1,1.2-2.5,2.5l-2.4,2.4l2.4,2.4
	c1.3,1.3,2.5,2.5,2.5,2.5C-129.6,155.4-129.6,155.7-129.7,155.8z"/>
</svg>
