<?xml version="1.0" encoding="utf-8"?>
<!-- Generator: Adobe Illustrator 18.1.1, SVG Export Plug-In . SVG Version: 6.00 Build 0)  -->
<svg version="1.1" id="Layer_1" xmlns="http://www.w3.org/2000/svg" xmlns:xlink="http://www.w3.org/1999/xlink" x="0px" y="0px"
	 viewBox="0 0 300 300" enable-background="new 0 0 300 300" xml:space="preserve">
<path fill="#E11C22" d="M204.7,110.2c-2-5.4,53.5-55,21.1-95.1c-7.6-9.4-33.3,45-69.8,69.6c-20.1,13.6-67,42.5-67,58.5v103.4
	c0,19.2,74.3,39.6,130.8,39.6c20.7,0,50.7-129.7,50.7-150.3C270.5,115.3,206.7,115.6,204.7,110.2z M74,111.7
	c-9.9,0-45.4,6-45.4,47.2v73.3c0,41.2,35.4,45.7,45.4,45.7c9.9,0-15.1-8.7-15.1-34.2v-96.4C58.9,120.6,83.9,111.7,74,111.7z"/>
</svg>
