<?xml version="1.0" encoding="utf-8"?>
<!-- Generator: Adobe Illustrator 18.1.1, SVG Export Plug-In . SVG Version: 6.00 Build 0)  -->
<svg version="1.1" id="Layer_1" xmlns="http://www.w3.org/2000/svg" xmlns:xlink="http://www.w3.org/1999/xlink" x="0px" y="0px"
	 viewBox="-142 143 15 15" enable-background="new -142 143 15 15" xml:space="preserve">
<path fill="#121212" d="M-137.8,157h-2.7v-8.7h2.7V157z M-139.1,147.1c-0.8,0-1.5-0.7-1.5-1.6c0-0.8,0.7-1.5,1.5-1.5
	c0.9,0,1.6,0.7,1.6,1.5C-137.6,146.4-138.3,147.1-139.1,147.1z M-127.7,157h-2.7v-4.2c0-1,0-2.3-1.4-2.3c-1.4,0-1.6,1.1-1.6,2.2v4.3
	h-2.7v-8.7h2.6v1.2h0c0.4-0.7,1.2-1.4,2.6-1.4c2.7,0,3.3,1.8,3.3,4.1L-127.7,157L-127.7,157z"/>
</svg>
