<svg id="Layer_1" data-name="Layer 1" xmlns="http://www.w3.org/2000/svg" viewBox="0 0 14 14"><defs><style>.cls-1{fill:#8b8b8b;}</style></defs><title>location</title><path class="cls-1" d="M6.50771,1.6678A3.81977,3.81977,0,0,0,3.19064,5.24345a3.10772,3.10772,0,0,0,.33491,1.45784,31.31958,31.31958,0,0,0,2.31728,4.078c.40139.6428.82495,1.3273.93823,1.5219a3.91061,3.91061,0,0,0,.21917.3497,1.80488,1.80488,0,0,0,.14776-.2265c.165-.2882.53191-.8792,1.2362-1.9898a32.958,32.958,0,0,0,1.86906-3.21369,3.86509,3.86509,0,0,0,.5566-1.95774,3.8158,3.8158,0,0,0-3.0413-3.54856A5.69848,5.69848,0,0,0,6.50771,1.6678Zm.93578,2.02177a1.51185,1.51185,0,0,1,.73877.4408,1.6501,1.6501,0,0,1,.01232,2.35422,1.66218,1.66218,0,0,1-2.37885.0123,1.59763,1.59763,0,0,1-.495-1.18449,1.59612,1.59612,0,0,1,.495-1.1845A1.63319,1.63319,0,0,1,7.44349,3.68957Z"/></svg>