<svg id="Layer_1" data-name="Layer 1" xmlns="http://www.w3.org/2000/svg" viewBox="0 0 26 26"><defs><style>.cls-1{fill:#b0b0b0;}</style></defs><title>mail</title><path class="cls-1" d="M13.806,13.3126,23.8692,5.20344a2.57891,2.57891,0,0,0-1.8563-.68391H4.42668a3.636,3.636,0,0,0-1.954.68391L12.6336,13.3126A1.24568,1.24568,0,0,0,13.806,13.3126Z"/><path class="cls-1" d="M14.9789,14.8767a3.15222,3.15222,0,0,1-1.7587.5862,3.29361,3.29361,0,0,1-1.6609-.4885L1.49609,6.96289V18.5893a2.87879,2.87879,0,0,0,2.931,2.9311H22.0133a2.87879,2.87879,0,0,0,2.9311-2.9311V7.4514a.73214.73214,0,0,0-.0977-.48851Z"/></svg>