<svg width="24" height="19" viewBox="0 0 24 19" fill="none" xmlns="http://www.w3.org/2000/svg">
<path d="M19.4229 1.83548C19.7143 1.83548 19.9328 1.74807 20.0785 1.57325C20.2242 1.39843 20.297 1.19447 20.297 0.961383C20.297 0.728291 20.2242 0.538904 20.0785 0.393222C19.9328 0.24754 19.7143 0.174699 19.4229 0.174699H4.73812C4.44676 0.174699 4.22824 0.24754 4.08255 0.393222C3.93687 0.538904 3.86403 0.728291 3.86403 0.961383C3.86403 1.19447 3.93687 1.39843 4.08255 1.57325C4.22824 1.74807 4.44676 1.83548 4.73812 1.83548H19.4229ZM19.4229 18.181C19.7143 18.181 19.9328 18.1082 20.0785 17.9625C20.2242 17.8168 20.297 17.6274 20.297 17.3943C20.297 17.1613 20.2242 16.9573 20.0785 16.7825C19.9328 16.6077 19.7143 16.5203 19.4229 16.5203H4.73812C4.44676 16.5203 4.22824 16.6077 4.08255 16.7825C3.93687 16.9573 3.86403 17.1613 3.86403 17.3943C3.86403 17.6274 3.93687 17.8168 4.08255 17.9625C4.22824 18.1082 4.44676 18.181 4.73812 18.181H19.4229ZM22.7445 8.39118H1.41657C1.18348 8.39118 0.994089 8.46402 0.848406 8.6097C0.702724 8.75539 0.629883 8.94477 0.629883 9.17786C0.629883 9.41096 0.702724 9.60034 0.848406 9.74603C0.994089 9.89171 1.18348 9.96455 1.41657 9.96455H22.7445C22.9775 9.96455 23.1669 9.89171 23.3126 9.74603C23.4583 9.60034 23.5311 9.41096 23.5311 9.17786C23.5311 8.94477 23.4583 8.75539 23.3126 8.6097C23.1669 8.46402 22.9775 8.39118 22.7445 8.39118Z" fill="#111111"/>
</svg>
