<svg id="Layer_1" data-name="Layer 1" xmlns="http://www.w3.org/2000/svg" viewBox="0 0 159 152"><defs><style>.cls-1{fill:#ffd9da;}.cls-2{fill:#ffcdcf;opacity:0.73;isolation:isolate;}.cls-3{fill:#ffb031;}.cls-4{fill:#ff9433;}.cls-5{fill:#f73;}.cls-6{fill:#e21b22;}.cls-7{fill:#00c8b7;}.cls-8{fill:#7a4c08;}.cls-9{fill:#fff;}.cls-10{fill:#e6e8e8;}.cls-11{fill:#d9dbdb;}.cls-12{fill:#d00e15;}</style></defs><title>Newsletter-subscription</title><path class="cls-1" d="M116.33,113.749a53.15279,53.15279,0,1,0-75.1694,0A53.1536,53.1536,0,0,0,116.33,113.749Z"/><path class="cls-2" d="M122.155,88.9462V106.816a53.46763,53.46763,0,0,1-6.596,7.672V88.9462h-.01v-.0609c-.031-.132-3.237-2.7907-5.703-4.8101V82.9589l2.983-.7713a5.67309,5.67309,0,0,1,3.664.2843c.517.2231,1.055.4362,1.593.6088v2.334a52.28363,52.28363,0,0,1,4.059,3.4706v.0609Z"/><path class="cls-3" d="M3.09375,7.97266,18.6913,44.5705l11.3996-7.7993,6.6065,9.5999,1.1927-16.1944,13.797-8.4071Z"/><path class="cls-4" d="M32.6208,35.0369,18.6941,44.5684l11.3995-7.7992,6.6065,9.5998,1.1927-16.1944L15.9082,17.082Z"/><path class="cls-5" d="M37.6009,34.1447,15.9082,17.082,37.8928,30.1746Z"/><path class="cls-6" d="M36.979,50.9362c-.1227-.7131-.279-1.4241-.4634-2.1145l1.0695-.2865c.1935.7228.3562,1.4673.4849,2.2129Z"/><path class="cls-6" d="M24.0625,75.7964a9.15524,9.15524,0,0,1-4.447-1.4836l.6121-.9224a8.04909,8.04909,0,0,0,3.9084,1.3009Zm4.5993-.9029-.4887-.9937a11.13623,11.13623,0,0,0,3.3121-2.6082l.824.7396A12.22485,12.22485,0,0,1,28.6618,74.8935ZM16.5343,70.7769a9.13144,9.13144,0,0,1-.9542-4.0225c0-.1119.0021-.2244.007-.3363l.013-.24,1.104.081-.0108.2017c-.0038.0995-.006.1968-.006.2936a8.02488,8.02488,0,0,0,.8397,3.5326Zm42.8382-.2525-.0054-1.1073c1.4424-.007,2.9265-.0659,4.4106-.1752l.0812,1.1041C62.3499,70.4574,60.8403,70.5174,59.3725,70.5244Zm-4.4908-.1454-.7072-.0547c-1.3608-.1129-2.5941-.2665-3.77-.4698l.1882-1.091c1.144.1979,2.3454.3471,3.6738.4579l.692.0525Zm13.4381-.5034-.1492-1.0975c1.4241-.1936,2.892-.4363,4.3626-.7197l.2098,1.0868C71.2524,69.4328,69.7645,69.6788,68.3198,69.8756ZM46.0046,68.7565a21.43694,21.43694,0,0,1-3.6261-1.6074c-.1736-.0974-.3467-.199-.518-.3023l.572-.9483c.1616.0979.3238.193.4888.2855a20.3567,20.3567,0,0,0,3.4402,1.5246Zm-11.0494-.4413-.9603-.5514a24.86166,24.86166,0,0,0,1.8264-3.9479l1.0413.3752A25.96694,25.96694,0,0,1,34.9552,68.3152Zm42.1639-.1226-.2606-1.076c1.3846-.3358,2.826-.7174,4.2825-1.1343l.305,1.0651C79.9743,67.468,78.5188,67.853,77.1191,68.1926Zm8.6035-2.452-.3417-1.0531q2.1111-.68385,4.2009-1.4285l.3699,1.0435Q87.84945,65.04935,85.7226,65.7406ZM38.164,64.2819a30.66014,30.66014,0,0,0-3.2964-2.1691l-.3704-.1962.5071-.984c.1319.0675.2639.1378.3942.2092a31.97644,31.97644,0,0,1,3.4175,2.2448ZM18.2558,62.6167l-.7742-.7915a9.46206,9.46206,0,0,1,4.0749-2.1864l.372,1.0445A8.622,8.622,0,0,0,18.2558,62.6167Zm12.1973-2.1615a17.59916,17.59916,0,0,0-3.8376-.425l-.4487.0059-.0271-1.1072a18.7554,18.7554,0,0,1,4.5556.446Zm7.579-.6526-1.09-.1936a25.69469,25.69469,0,0,0,.393-4.3356l1.1073.0055A26.74053,26.74053,0,0,1,38.0321,59.8026Z"/><path class="cls-7" d="M94.1924,62.7424l-.3936-1.0347q1.03335-.3942,2.0643-.7975l.4022,1.0316Q95.2321,62.3456,94.1924,62.7424Z"/><path class="cls-6" d="M129.045,89.7241a1.10717,1.10717,0,0,1-.106-2.2091,26.29573,26.29573,0,0,0,17.334-8.9945,1.1069,1.1069,0,1,1,1.669,1.4544,28.49334,28.49334,0,0,1-18.788,9.7437A1.04735,1.04735,0,0,1,129.045,89.7241Z"/><path class="cls-8" d="M115.553,88.9463,76.9797,111.693,38.4065,88.9463a.21367.21367,0,0,1,.0063-.0627c.0314-.1445,2.1604-1.9218,5.4073-4.5595.0313-.0251.0564-.0502.0879-.0754,10.6513-8.6478,33.0717-26.3581,33.0717-26.3581S99.4002,75.6009,110.051,84.2487c3.298,2.6755,5.464,4.4841,5.496,4.6349A.22044.22044,0,0,1,115.553,88.9463Z"/><path class="cls-9" d="M92.8434,39.0508H51.2253a6.46362,6.46362,0,0,0-6.4636,6.4636V108.44a6.46345,6.46345,0,0,0,6.4636,6.464H103.374a6.46311,6.46311,0,0,0,6.464-6.464V56.0452Z"/><path class="cls-10" d="M92.8438,49.5816a6.46345,6.46345,0,0,0,6.4635,6.4636H109.838L92.8438,39.0508Z"/><path class="cls-6" d="M71.2662,49.6836H56.9079a2.30237,2.30237,0,0,0-2.3024,2.3024V66.3444a2.30237,2.30237,0,0,0,2.3024,2.3024H71.2662a2.30246,2.30246,0,0,0,2.3025-2.3024V51.986A2.30246,2.30246,0,0,0,71.2662,49.6836Z"/><path class="cls-11" d="M90.9363,73.9219H56.484a1.8551,1.8551,0,1,0,0,3.7102H90.9363a1.8551,1.8551,0,0,0,0-3.7102Z"/><path class="cls-11" d="M90.9363,83.1641H56.484a1.8551,1.8551,0,1,0,0,3.7102H90.9363a1.8551,1.8551,0,0,0,0-3.7102Z"/><path class="cls-11" d="M75.2897,92.1289H56.484a1.8551,1.8551,0,1,0,0,3.7102H75.2897a1.8551,1.8551,0,1,0,0-3.7102Z"/><path class="cls-3" d="M115.556,88.9414V125.948a4.71163,4.71163,0,0,1-4.7,4.7H43.098a4.70256,4.70256,0,0,1-4.6878-4.7V88.9414l38.573,22.7436Z"/><path class="cls-4" d="M114.252,129.177,89.4257,104.351l-12.4425,7.336-12.4476-7.339L39.707,129.176a4.65667,4.65667,0,0,0,3.3911,1.474H110.856a4.67421,4.67421,0,0,0,3.396-1.473Z"/><path class="cls-6" d="M123.347,38.1464a23.27021,23.27021,0,0,0-20.769,21.3713,23.01147,23.01147,0,0,0,4.065,14.8453,5.61716,5.61716,0,0,1,.535,5.3567l-1.831,4.4086,7.485-1.9405a5.64532,5.64532,0,0,1,3.665.2839,23.17362,23.17362,0,1,0,6.85-44.3253Z"/><path class="cls-9" d="M126.266,72.9098l1.274-1.2736s-1.012-2.384,3.229-6.4041c2.524-2.3928,3.089-4.7097,2.884-6.604a6.6201,6.6201,0,0,0-5.805-5.8044c-1.894-.2052-4.211.3596-6.604,2.8837-4.02,4.241-6.404,3.2294-6.404,3.2294l-1.274,1.2736Z"/><path class="cls-9" d="M116.437,65.1328a3.50971,3.50971,0,0,0,4.906,4.9054Z"/><path class="cls-9" d="M134.542,54.3718l-.793.7931a7.6524,7.6524,0,0,0-2.444-2.4313l.799-.7996a1.72387,1.72387,0,1,1,2.438,2.4378Z"/><path class="cls-12" d="M125.067,38.0437a20.01532,20.01532,0,1,1-20.46,32.722,23.19274,23.19274,0,0,0,2.037,3.5942,5.61723,5.61723,0,0,1,.535,5.3567l-1.831,4.4086,7.485-1.9405a5.64184,5.64184,0,0,1,3.664.2839,23.16914,23.16914,0,1,0,8.57-44.4249Z"/><path class="cls-3" d="M4.41807,18.8266,9.47736,30.4362a1.1664,1.1664,0,0,1-.60755,1.5359l-.18041.078a1.16678,1.16678,0,0,1-1.53747-.6181L2.27314,19.7445a1.16656,1.16656,0,0,1,2.14493-.9179Z"/><path class="cls-1" d="M24.2353,100.527a3.71583,3.71583,0,1,0,1.4235.283A3.72565,3.72565,0,0,0,24.2353,100.527Zm0,5.226a1.51015,1.51015,0,1,1,.5762-.115A1.50934,1.50934,0,0,1,24.2353,105.753Z"/><path class="cls-1" d="M123.913,115.582a3.7214,3.7214,0,1,0,1.423.283A3.719,3.719,0,0,0,123.913,115.582Zm0,5.225a1.50567,1.50567,0,1,1,1.065-.441A1.51055,1.51055,0,0,1,123.913,120.807Z"/><path class="cls-1" d="M154.344,57.8086a2.84853,2.84853,0,1,0,1.09.2168A2.84662,2.84662,0,0,0,154.344,57.8086Zm0,4.0006a1.1533,1.1533,0,1,1,.815-.3376A1.14979,1.14979,0,0,1,154.344,61.8092Z"/><path class="cls-1" d="M104.197,12.2461a3.01134,3.01134,0,1,0,2.129.882A3.00971,3.00971,0,0,0,104.197,12.2461Zm0,4.23a1.22,1.22,0,0,1-1.196-1.4566,1.21991,1.21991,0,0,1,.958-.9576,1.21885,1.21885,0,1,1,.238,2.4142Z"/><path class="cls-1" d="M7.875,82.4141a3.16526,3.16526,0,1,0,1.21165.2409A3.16591,3.16591,0,0,0,7.875,82.4141Z"/><path class="cls-1" d="M134.894,92.8906a2.30283,2.30283,0,1,0,.882.1753A2.30368,2.30368,0,0,0,134.894,92.8906Z"/><path class="cls-1" d="M58.6389,13.1953a3.36556,3.36556,0,1,0,2.3797.9858A3.36528,3.36528,0,0,0,58.6389,13.1953Z"/><path class="cls-1" d="M76.6574,135.105a2.45271,2.45271,0,1,0,.9385.187A2.44874,2.44874,0,0,0,76.6574,135.105Z"/><path class="cls-1" d="M124.128,26.1758a2.87947,2.87947,0,1,0,1.102.2191A2.87763,2.87763,0,0,0,124.128,26.1758Z"/><path class="cls-1" d="M22.1716,51.8276a1.6384,1.6384,0,1,0-1.6384-1.6384A1.63848,1.63848,0,0,0,22.1716,51.8276Z"/><path class="cls-1" d="M155.34,43.4531a2.794,2.794,0,1,0,1.977.8187A2.79616,2.79616,0,0,0,155.34,43.4531Z"/><path class="cls-1" d="M6.305,61.8092a1.7835,1.7835,0,1,0-1.78353-1.7835A1.78352,1.78352,0,0,0,6.305,61.8092Z"/><path class="cls-1" d="M81.2837,7.21918,82.4038,6.099A.99846.99846,0,1,0,80.9918,4.687L79.8716,5.80713,78.7515,4.687A.99853.99853,0,0,0,77.3393,6.099l1.1202,1.12015L77.3393,8.33933a.99855.99855,0,0,0,1.4122,1.41214l1.1201-1.12015,1.1202,1.12015a.99848.99848,0,0,0,1.412-1.41214Z"/><path class="cls-1" d="M5.02976,41.0668l1.12016-1.1201a.99849.99849,0,0,0-1.41206-1.4121L3.6177,39.6548,2.49748,38.5346a.99849.99849,0,0,0-1.41206,1.4121l1.12015,1.1201L1.08542,42.187a.99849.99849,0,0,0,1.41206,1.4121L3.6177,42.479l1.12016,1.1201A.99849.99849,0,0,0,6.14992,42.187Z"/><path class="cls-1" d="M137.147,109.468l.948-.948a.84295.84295,0,0,0,.248-.598.8395.8395,0,0,0-.064-.324.8488.8488,0,0,0-.183-.275.86493.86493,0,0,0-.275-.183.84959.84959,0,0,0-.647,0,.83692.83692,0,0,0-.274.184l-.949.948-.949-.948a.8502.8502,0,0,0-.274-.185.845.845,0,0,0-.924.183.84859.84859,0,0,0-.183.275.82126.82126,0,0,0-.064.324.83681.83681,0,0,0,.065.324.85176.85176,0,0,0,.184.275l.949.948-.949.949a.8457.8457,0,0,0,1.196,1.196l.949-.949.949.949a.84535.84535,0,1,0,1.195-1.196Z"/></svg>