<svg id="Layer_1" data-name="Layer 1" xmlns="http://www.w3.org/2000/svg" xmlns:xlink="http://www.w3.org/1999/xlink" viewBox="0 0 42.29132 14.27681"><defs><style>.cls-1{fill:none;}.cls-2{clip-path:url(#clip-path);}.cls-3{fill:#02b9ef;}.cls-4{fill:#06306f;}</style><clipPath id="clip-path" transform="translate(-2.83985 -17.6211)"><rect class="cls-1" x="0.13281" y="0.6875" width="47.7984" height="47.7984"/></clipPath></defs><title>paypal</title><g class="cls-2"><path class="cls-3" d="M35.9451,20.636c.1749-.1465.2624-.2198.3498-.2931a2.50457,2.50457,0,0,1,3.8135.3206c.105.1282.1575.1374.2624.0275.07-.0825.1487-.1466.2187-.229a2.47006,2.47006,0,0,1,2.8951-.6137,2.6841,2.6841,0,0,1,1.6356,2.5829c.0175,2.6287.0088,5.2482.0088,7.8769a1.37476,1.37476,0,0,1-1.4345,1.5204,10.04159,10.04159,0,0,0-1.0496.0092c-.3586.0366-.4635-.0824-.4635-.4763.0175-2.5646.0087-5.1291.0087-7.6937v-.3206c-.0087-.5953-.2361-.8426-.7784-.8701a.81123.81123,0,0,0-.8834.806c-.0088.1191,0,.2473,0,.3664v6.6404a1.35894,1.35894,0,0,1-1.4607,1.5296c-.4723-.0092-1.1108.2198-1.382-.1008-.2361-.2747-.0787-.925-.0787-1.4105V23.4845c0-.806-.4985-1.2182-1.1458-.9434a.91616.91616,0,0,0-.5335.9526c.0087,2.1249,0,4.2407,0,6.3656v.5038a1.36763,1.36763,0,0,1-1.4082,1.4563c-.3499.0091-.6997-.0275-1.0496.0091-.3761.0367-.4898-.0732-.4811-.4945.0175-3.5996.0088-7.1992.0088-10.8079,0-.1557.0087-.3023,0-.458-.0175-.2015.0612-.2656.2536-.2656.8047.0092,1.6007.0092,2.4053,0,.2012,0,.2974.055.2799.2839A3.97287,3.97287,0,0,0,35.9451,20.636Z" transform="translate(-2.83985 -17.6211)"/><path class="cls-4" d="M17.4015,25.5996v3.7552a2.1789,2.1789,0,0,1-2.379,2.4822c-.6823,0-1.3733.0091-2.0555,0a2.42218,2.42218,0,0,1-2.4665-2.4272,30.83548,30.83548,0,0,1-.0088-3.1141,2.57113,2.57113,0,0,1,2.589-2.5463c.3761-.0091.761,0,1.1371,0,.3673-.0091.5073-.229.4985-.5953,0-.3664-.1574-.5313-.5073-.5129q-.5904.01365-1.1808,0a1.383,1.383,0,0,1-1.4869-1.5571c0-.403-.1749-.9434.0787-1.1816.2187-.2015.7173-.0732,1.0934-.0732.9796-.0092,1.9504,0,2.9301,0a1.71643,1.71643,0,0,1,1.758,1.841C17.4103,22.9709,17.4015,24.2898,17.4015,25.5996Zm-2.6764,2.0791v-.4579c0-.9343,0-.9343-.8922-.8977a.66228.66228,0,0,0-.6997.7419c-.0088.3847-.0088.7603,0,1.1449.0087.6595.2886.8335,1.1983.861.6735.0183.3323-.4763.3936-.751A5.23506,5.23506,0,0,0,14.7251,27.6787ZM25.186,24.6012c0,1.4014.0174,2.8119-.0088,4.2133a2.793,2.793,0,0,1-1.2595,2.6378,2.71434,2.71434,0,0,1-1.2945.3664c-1.0058.0183-2.0117,0-3.0175.0183-.245,0-.2974-.0916-.2887-.3206.0175-.3847-.0087-.7602.0088-1.1449a1.307,1.307,0,0,1,1.2507-1.3189c.4548-.0183.9009-.0092,1.3557,0,.3674,0,.5686-.1557.5686-.5679,0-.4213-.1925-.5678-.5598-.577a6.80066,6.80066,0,0,1-1.828-.1099,2.52821,2.52821,0,0,1-1.8281-2.3539c-.0525-1.7861-.0175-3.5721-.0262-5.3582,0-.2015.0612-.2656.2536-.2564.7172.0091,1.4257.0183,2.1429,0,.3149-.0092.2712.174.2712.3755v4.0301c0,.5861.2624.8976.7522.9159.5773.0183.8309-.229.8309-.8427,0-1.3555.0088-2.7203-.0087-4.0758,0-.3206.0787-.4122.3848-.403.6385.0275,1.2858.0366,1.9243,0,.3498-.0183.4023.119.3936.4396C25.1772,21.7069,25.186,23.1541,25.186,24.6012ZM2.89972,26.6804v-4.488a2.13069,2.13069,0,0,1,2.26536-2.3631,14.47853,14.47853,0,0,1,2.74642.0732,2.36477,2.36477,0,0,1,1.90675,2.4364c.00875,1.3281,0,2.6562,0,3.9842a2.4576,2.4576,0,0,1-2.52776,2.7295c-.48106.0183-.96212.0092-1.44318,0-.21866-.0092-.31488.0641-.30613.3114.01749.3664.00875.7327,0,1.0991a1.30866,1.30866,0,0,1-1.29449,1.3647c-.43733.0092-.98836.1924-1.26825-.0732-.2624-.2473-.07-.8335-.07872-1.2732C2.891,29.2175,2.89972,27.9443,2.89972,26.6804Zm2.64146-2.244v.8701c0,1.035,0,1.035.98836.9434a.62338.62338,0,0,0,.6385-.7053c.00875-.5129-.01749-1.035.00875-1.5479.05248-1.4838-.20992-1.3372-1.36447-1.3464-.20991,0-.27989.0641-.27989.2839C5.54993,23.4288,5.54118,23.9326,5.54118,24.4364Z" transform="translate(-2.83985 -17.6211)"/><path class="cls-3" d="M27.6616,26.7c0-1.2181-.0087-2.4455.0088-3.6637,0-.2839-.0613-.403-.3587-.3938-.3935.0183-.9183.1374-1.137-.0641-.2711-.2656-.0612-.8335-.0962-1.2731v-.0916c0-.4305-.1312-.9343.0437-1.2548s.7085-.1191,1.0846-.2199a3.172,3.172,0,0,0,1.758-1.2731,1.99628,1.99628,0,0,1,1.2158-.8243c.2712-.055.4373-.0183.4199.348-.0263.5129,0,1.035-.0088,1.5571-.0087.2198.07.2931.2799.2839.3499-.0091.6997.0092,1.0496-.0091.2099-.0092.2799.0732.2711.2931-.0087.751-.0087,1.4929,0,2.244,0,.2106-.0525.3205-.2711.2931a.6254.6254,0,0,0-.1312,0c-.3849.0366-.9184-.1832-1.1196.0916-.1924.2564-.0699.7876-.0699,1.1998,0,2.4913-.0088,4.9735.0087,7.4648,0,.348-.0875.4579-.4198.4304-.3149-.0274-.6385,0-.9622-.0091a1.57476,1.57476,0,0,1-1.5656-1.6945Z" transform="translate(-2.83985 -17.6211)"/></g></svg>