<svg width="23" height="23" viewBox="0 0 23 23" fill="none" xmlns="http://www.w3.org/2000/svg">
<path d="M11.6768 13.4759C12.2136 13.4802 12.5651 13.1861 12.5651 12.565C12.5651 12.0048 12.2483 11.7385 11.7385 11.7385C11.6111 11.7385 11.5224 11.75 11.4722 11.7616V13.4641C11.5226 13.4759 11.6073 13.4759 11.6768 13.4759Z" fill="#ED1C24"/>
<path d="M15.6081 6.09845C15.3309 6.09845 15.065 5.98833 14.8689 5.7923C14.6728 5.59627 14.5626 5.33038 14.5626 5.05313V1.83844H4.9582C4.681 1.8385 4.41517 1.94865 4.21918 2.14468C4.02319 2.34071 3.91309 2.60656 3.91309 2.88377V20.0954C3.91309 20.3726 4.02319 20.6384 4.21918 20.8345C4.41517 21.0305 4.681 21.1407 4.9582 21.1407H17.7773C18.0545 21.1407 18.3203 21.0305 18.5163 20.8345C18.7123 20.6384 18.8224 20.3726 18.8224 20.0954V6.09845H15.6081ZM7.84367 13.9508H7.8396C7.6425 13.9508 7.49966 13.8005 7.49966 13.5957C7.49966 13.3833 7.6425 13.2366 7.8471 13.2366C8.04785 13.2366 8.18704 13.3795 8.1909 13.5957C8.19111 13.8003 8.05257 13.9508 7.84367 13.9508ZM10.2374 12.7155C10.0362 12.9008 9.73508 12.9896 9.38764 12.9896C9.31022 12.9896 9.24073 12.9859 9.18668 12.9743V13.9086H8.60354V11.3405C8.78519 11.3096 9.03998 11.2865 9.39901 11.2865C9.76232 11.2865 10.0248 11.356 10.1985 11.4988C10.3648 11.6264 10.4729 11.8426 10.4729 12.0976C10.4731 12.3562 10.3918 12.5726 10.2374 12.7155ZM13.1868 12.5458C13.1868 13.0436 13.0053 13.3874 12.7582 13.5997C12.4839 13.8277 12.0631 13.9356 11.5534 13.9356C11.2482 13.9356 11.0283 13.9163 10.8855 13.8966V11.3444C11.1015 11.3058 11.3835 11.2865 11.6769 11.2865C12.1751 11.2865 12.4994 11.3675 12.7464 11.5567C12.7801 11.5818 12.8125 11.6088 12.843 11.6378C13.0566 11.8407 13.1868 12.1398 13.1868 12.5452V12.5458ZM15.2017 11.7885H14.2018V12.3828H15.1361V12.862H14.2018V13.9084H13.6148V11.3056H15.2017V11.7885Z" fill="#ED1C24"/>
<path d="M9.88913 12.1165C9.88934 11.8773 9.7272 11.7345 9.42973 11.7345C9.31006 11.7345 9.22899 11.742 9.18652 11.7538V12.522C9.23349 12.533 9.29247 12.5366 9.36968 12.537L9.38362 12.5375C9.69632 12.5375 9.88913 12.379 9.88913 12.1165ZM15.6077 6.09845H18.8222L14.5622 1.83844V5.05313C14.5623 5.33038 14.6724 5.59627 14.8685 5.7923C15.0646 5.98833 15.3305 6.09845 15.6077 6.09845Z" fill="#ED1C24"/>
<path opacity="0.6" d="M15.6076 6.09845H18.822L14.562 1.83844V5.05313C14.5621 5.33038 14.6722 5.59627 14.8683 5.7923C15.0644 5.98833 15.3303 6.09845 15.6076 6.09845Z" fill="white"/>
<path d="M7.84695 13.2367C7.64235 13.2367 7.49951 13.3834 7.49951 13.5957C7.49951 13.8005 7.64235 13.9509 7.83945 13.9509H7.84331C8.05199 13.9509 8.19075 13.8005 8.19075 13.5957C8.18689 13.3795 8.0477 13.2367 7.84695 13.2367ZM10.1982 11.4988C10.0245 11.356 9.76195 11.2865 9.39864 11.2865C9.03962 11.2865 8.78483 11.3097 8.60317 11.3405V13.9086H9.18632V12.9744C9.24036 12.9862 9.30985 12.9896 9.38727 12.9896C9.73471 12.9896 10.0358 12.9008 10.237 12.7155C10.3914 12.5727 10.4725 12.3563 10.4725 12.0976C10.4727 11.8426 10.3644 11.6264 10.1982 11.4988ZM9.38363 12.5375L9.36969 12.5371C9.29269 12.5366 9.23371 12.533 9.18653 12.5225V11.7538C9.229 11.742 9.31006 11.7345 9.42974 11.7345C9.72721 11.7345 9.88956 11.8774 9.88956 12.1169C9.88935 12.379 9.69632 12.5375 9.38363 12.5375ZM12.7463 11.5567C12.4992 11.3676 12.175 11.2865 11.6767 11.2865C11.3833 11.2865 11.1013 11.3058 10.8853 11.3444V13.8966C11.0282 13.9163 11.248 13.9356 11.5532 13.9356C12.063 13.9356 12.4838 13.8275 12.7581 13.5998C13.0052 13.3874 13.1866 13.0436 13.1866 12.5459C13.1866 12.1401 13.0566 11.8409 12.8428 11.638C12.8122 11.6091 12.78 11.582 12.7463 11.5567ZM11.7383 11.7384C12.2481 11.7384 12.5649 12.0045 12.5649 12.565C12.5649 13.1861 12.2133 13.4801 11.6765 13.4762C11.607 13.4762 11.5221 13.4762 11.4719 13.4644V11.7618C11.5223 11.75 11.6111 11.7384 11.7383 11.7384ZM13.6145 11.3056V13.9084H14.2015V12.862H15.1357V12.3831H14.2015V11.7886H15.2013V11.3056H13.6145Z" fill="white"/>
</svg>
