<svg width="15" height="15" viewBox="0 0 15 15" fill="none" xmlns="http://www.w3.org/2000/svg">
<g clip-path="url(#clip0_2172_6974)">
<path d="M13.6905 7.59601L14.4498 6.28374C14.5411 6.12586 14.5658 5.9382 14.5188 5.76201C14.4716 5.58583 14.3566 5.43556 14.1988 5.34424L12.8851 4.58494V3.07184C12.8851 2.88943 12.8126 2.7145 12.6837 2.58552C12.5546 2.45653 12.3798 2.38408 12.1974 2.38408H10.6849L9.9263 1.07112C9.83467 0.91356 9.68469 0.79842 9.50881 0.750616C9.42158 0.726967 9.33052 0.720869 9.24091 0.732675C9.1513 0.744482 9.06492 0.773957 8.9868 0.819392L7.67316 1.57869L6.35951 0.818705C6.20154 0.727505 6.01382 0.70279 5.83763 0.749997C5.66143 0.797205 5.51122 0.912466 5.42002 1.07043L4.66072 2.38408H3.14831C2.96589 2.38408 2.79096 2.45653 2.66197 2.58552C2.533 2.7145 2.46053 2.88943 2.46053 3.07184V4.58425L1.14689 5.34355C1.0685 5.38864 0.999802 5.44877 0.944728 5.52049C0.889654 5.59221 0.849294 5.6741 0.825967 5.76147C0.802639 5.84883 0.796805 5.93995 0.808798 6.02958C0.820791 6.1192 0.850376 6.20558 0.895852 6.28374L1.65515 7.59601L0.895852 8.90828C0.805059 9.06631 0.780425 9.25382 0.827322 9.42994C0.874218 9.60607 0.988842 9.7565 1.1462 9.84846L2.45984 10.6078V12.1202C2.45984 12.3026 2.53231 12.4775 2.66128 12.6065C2.79027 12.7355 2.96521 12.808 3.14762 12.808H4.66072L5.42002 14.1216C5.48091 14.2257 5.56784 14.3121 5.67227 14.3724C5.7767 14.4327 5.89503 14.4648 6.01562 14.4654C6.1353 14.4654 6.25428 14.4339 6.3602 14.3726L7.67246 13.6133L8.9861 14.3726C9.14403 14.4637 9.33164 14.4884 9.50776 14.4413C9.68389 14.3943 9.83415 14.2793 9.9256 14.1216L10.6842 12.808H12.1966C12.379 12.808 12.554 12.7355 12.683 12.6065C12.8119 12.4775 12.8844 12.3026 12.8844 12.1202V10.6078L14.198 9.84846C14.2762 9.80324 14.3449 9.74304 14.3998 9.67131C14.4548 9.59957 14.4951 9.51771 14.5184 9.43039C14.5417 9.34308 14.5476 9.25202 14.5357 9.16244C14.5238 9.07285 14.4943 8.98648 14.449 8.90828L13.6905 7.59601ZM5.95303 4.15027C6.22674 4.15037 6.4892 4.25918 6.68267 4.45278C6.87614 4.64639 6.98478 4.90891 6.98469 5.18261C6.9846 5.45632 6.87579 5.71877 6.68219 5.91225C6.48858 6.10573 6.22605 6.21436 5.95235 6.21427C5.67864 6.21419 5.41619 6.10537 5.22271 5.91177C5.02924 5.71817 4.9206 5.45563 4.92069 5.18193C4.92078 4.90822 5.0296 4.64577 5.2232 4.45229C5.4168 4.25882 5.67933 4.15018 5.95303 4.15027ZM6.15936 10.7529L5.05894 9.92824L9.18556 4.42607L10.286 5.2507L6.15936 10.7529ZM9.3919 11.028C9.25637 11.028 9.12218 11.0012 8.99699 10.9492C8.8718 10.8974 8.75806 10.8213 8.66226 10.7255C8.56646 10.6296 8.49049 10.5158 8.43866 10.3906C8.38684 10.2654 8.36019 10.1312 8.36024 9.99564C8.36028 9.86011 8.38702 9.72593 8.43892 9.60073C8.49083 9.47554 8.56688 9.3618 8.66274 9.266C8.7586 9.1702 8.8724 9.09423 8.99763 9.04241C9.12285 8.99058 9.25706 8.96393 9.39258 8.96399C9.66629 8.96408 9.92874 9.07289 10.1222 9.26649C10.3157 9.46009 10.4243 9.72263 10.4242 9.99632C10.4241 10.27 10.3153 10.5325 10.1217 10.726C9.92812 10.9194 9.6656 11.0281 9.3919 11.028Z" fill="#E21B22"/>
</g>
<defs>
<clipPath id="clip0_2172_6974">
<rect width="14.4432" height="14.4432" fill="white" transform="translate(0.451172 0.375)"/>
</clipPath>
</defs>
</svg>
