<svg width="15" height="15" viewBox="0 0 15 15" fill="none" xmlns="http://www.w3.org/2000/svg">
<path d="M13.6245 11.3636C13.6245 11.5875 13.5743 11.8177 13.4677 12.0416C13.3611 12.2655 13.2231 12.477 13.0412 12.676C12.7339 13.0119 12.3952 13.2545 12.0126 13.41C11.6363 13.5655 11.2287 13.6464 10.7896 13.6464C10.1499 13.6464 9.46627 13.4971 8.74501 13.1923C8.02374 12.8875 7.30248 12.477 6.58749 11.9607C5.85877 11.4321 5.17111 10.8499 4.53032 10.2191C3.89609 9.58587 3.31113 8.90593 2.78047 8.18509C2.26618 7.47599 1.85223 6.76689 1.55118 6.06401C1.25013 5.35491 1.09961 4.67691 1.09961 4.03001C1.09961 3.60704 1.17487 3.20273 1.3254 2.82952C1.47592 2.45009 1.71425 2.10176 2.04666 1.79075C2.44806 1.39888 2.88709 1.20605 3.35121 1.20605C3.52682 1.20605 3.70243 1.24338 3.85923 1.31802C4.0223 1.39266 4.16655 1.50462 4.27944 1.66635L5.73451 3.70034C5.84741 3.85585 5.92894 3.99891 5.98539 4.13575C6.04184 4.26638 6.0732 4.397 6.0732 4.51519C6.0732 4.66447 6.02929 4.81375 5.94149 4.95682C5.85995 5.09988 5.74079 5.24917 5.59026 5.39845L5.1136 5.88984C5.04461 5.95826 5.01325 6.03913 5.01325 6.13865C5.01325 6.18841 5.01952 6.23195 5.03207 6.28171C5.05088 6.33147 5.0697 6.3688 5.08224 6.40612C5.19513 6.61138 5.38956 6.87885 5.66552 7.2023C5.94776 7.52575 6.24881 7.85542 6.57494 8.18509C6.91362 8.51475 7.23976 8.81954 7.57217 9.09945C7.89831 9.37314 8.168 9.55974 8.38124 9.67171C8.4126 9.68415 8.45023 9.70281 8.49413 9.72147C8.54431 9.74013 8.59448 9.74635 8.65093 9.74635C8.75755 9.74635 8.83909 9.70903 8.90808 9.64061L9.38474 9.17409C9.54153 9.01859 9.69206 8.90041 9.83631 8.82576C9.98056 8.73868 10.1248 8.69514 10.2816 8.69514C10.4008 8.69514 10.5262 8.72002 10.6642 8.776C10.8022 8.83198 10.9464 8.91285 11.1032 9.01859L13.1792 10.4803C13.3423 10.5923 13.4552 10.7229 13.5242 10.8784C13.5869 11.0339 13.6245 11.1894 13.6245 11.3636Z" stroke="#77808B" stroke-width="0.933025" stroke-miterlimit="10"/>
</svg>
