<svg id="Layer_1" data-name="Layer 1" xmlns="http://www.w3.org/2000/svg" viewBox="0 0 17 17"><defs><style>.cls-1{fill:#afafaf;}</style></defs><title>profit</title><path class="cls-1" d="M8.5.40217A8.09783,8.09783,0,1,0,16.59783,8.5,8.09783,8.09783,0,0,0,8.5.40217Zm0,4.04892A2.386,2.386,0,0,1,10.92935,6.7929h0q.00081.0438,0,.08752a2.42935,2.42935,0,1,1-4.8587,0A2.386,2.386,0,0,1,8.41247,4.45109h0Q8.45627,4.45028,8.5,4.45109Zm0,10.52717A6.43066,6.43066,0,0,1,3.80326,12.9538a5.61771,5.61771,0,0,1,7.803-1.49325l0,0,.05182.03563a6.22689,6.22689,0,0,1,1.45761,1.4576A6.12367,6.12367,0,0,1,8.5,14.97826Z"/></svg>