<svg width="15" height="16" viewBox="0 0 15 16" fill="none" xmlns="http://www.w3.org/2000/svg">
<path d="M13.406 13.9318C13.5767 14.1196 13.5767 14.3073 13.406 14.4951C13.3206 14.5805 13.2267 14.6232 13.1243 14.6232C13.0219 14.6232 12.9194 14.5805 12.817 14.4951L9.18062 10.8844C8.22458 11.7038 7.07221 12.1306 5.72351 12.1648C4.22116 12.1306 2.97489 11.6099 1.98471 10.6027C0.977452 9.59543 0.456752 8.34063 0.422607 6.83828C0.456752 5.33593 0.968916 4.08113 1.9591 3.07387C2.96636 2.06662 4.22116 1.54592 5.72351 1.51177C7.22586 1.54592 8.48066 2.06662 9.48792 3.07387C10.4952 4.08113 11.0159 5.33593 11.05 6.83828C11.0329 8.18698 10.6147 9.33935 9.79521 10.2954L13.406 13.9318ZM5.74912 11.3453C7.02953 11.3112 8.088 10.8758 8.92454 10.0393C9.77814 9.1857 10.222 8.11869 10.2562 6.83828C10.222 5.55787 9.78668 4.49086 8.95014 3.63725C8.09654 2.80072 7.02953 2.36538 5.74912 2.33123C4.46871 2.36538 3.4017 2.80925 2.54809 3.66286C1.71155 4.4994 1.27621 5.55787 1.24207 6.83828C1.27621 8.11869 1.71155 9.17716 2.54809 10.0137C3.4017 10.8673 4.46871 11.3112 5.74912 11.3453Z" fill="#111111"/>
</svg>
