<?xml version="1.0" encoding="utf-8"?>
<!-- Generator: Adobe Illustrator 23.0.5, SVG Export Plug-In . SVG Version: 6.00 Build 0)  -->
<svg version="1.1" id="Layer_1" xmlns="http://www.w3.org/2000/svg" xmlns:xlink="http://www.w3.org/1999/xlink" x="0px" y="0px"
	 viewBox="0 0 6 19" style="enable-background:new 0 0 6 19;" xml:space="preserve">
<style type="text/css">
	.st0{clip-path:url(#SVGID_2_);}
	.st1{fill:none;stroke:#818181;stroke-width:1.3;}
</style>
<g>
	<defs>
		<rect id="SVGID_1_" x="0.5" y="0.5" width="4.8" height="17.6"/>
	</defs>
	<clipPath id="SVGID_2_">
		<use xlink:href="#SVGID_1_"  style="overflow:visible;"/>
	</clipPath>
	<g class="st0">
		<path class="st1" d="M1.1,15.7c0-0.3,0.1-0.7,0.3-1c0.2-0.3,0.5-0.5,0.8-0.6c0.3-0.1,0.7-0.2,1-0.1c0.3,0.1,0.7,0.2,0.9,0.5
			c0.2,0.2,0.4,0.6,0.5,0.9c0.1,0.3,0,0.7-0.1,1c-0.1,0.3-0.4,0.6-0.6,0.8c-0.3,0.2-0.6,0.3-1,0.3c-0.5,0-0.9-0.2-1.2-0.5
			C1.3,16.6,1.1,16.2,1.1,15.7z M1.1,9.3c0-0.3,0.1-0.7,0.3-1C1.6,8,1.9,7.8,2.2,7.7c0.3-0.1,0.7-0.2,1-0.1C3.6,7.6,3.9,7.8,4.1,8
			c0.2,0.2,0.4,0.6,0.5,0.9c0.1,0.3,0,0.7-0.1,1c-0.1,0.3-0.4,0.6-0.6,0.8S3.2,11,2.9,11c-0.5,0-0.9-0.2-1.2-0.5
			C1.3,10.2,1.1,9.7,1.1,9.3z M1.1,2.9c0-0.3,0.1-0.7,0.3-1c0.2-0.3,0.5-0.5,0.8-0.6s0.7-0.2,1-0.1c0.3,0.1,0.7,0.2,0.9,0.5
			c0.2,0.2,0.4,0.6,0.5,0.9c0.1,0.3,0,0.7-0.1,1C4.4,3.9,4.2,4.1,3.9,4.3c-0.3,0.2-0.6,0.3-1,0.3C2.4,4.6,2,4.4,1.7,4.1
			C1.3,3.8,1.1,3.3,1.1,2.9z"/>
	</g>
</g>
</svg>
