<svg width="6" height="19" viewBox="0 0 6 19" fill="none" xmlns="http://www.w3.org/2000/svg">
<g clip-path="url(#clip0_829_3)">
<path d="M1.56016 15.779C1.56016 15.4324 1.66295 15.0935 1.85554 14.8053C2.04813 14.5171 2.32186 14.2924 2.64212 14.1598C2.96238 14.0271 3.31479 13.9924 3.65478 14.06C3.99476 14.1277 4.30706 14.2946 4.55218 14.5397C4.7973 14.7848 4.96423 15.0971 5.03185 15.4371C5.09948 15.7771 5.06477 16.1295 4.93212 16.4498C4.79946 16.77 4.57481 17.0438 4.28658 17.2363C3.99836 17.4289 3.65949 17.5317 3.31284 17.5317C2.848 17.5317 2.4022 17.3471 2.07351 17.0184C1.74481 16.6897 1.56016 16.2439 1.56016 15.779ZM1.56016 9.37187C1.56016 9.02522 1.66295 8.68635 1.85554 8.39813C2.04813 8.1099 2.32186 7.88525 2.64212 7.75259C2.96238 7.61994 3.31479 7.58523 3.65478 7.65286C3.99476 7.72048 4.30706 7.88741 4.55218 8.13253C4.7973 8.37765 4.96423 8.68995 5.03185 9.02993C5.09948 9.36992 5.06477 9.72233 4.93212 10.0426C4.79946 10.3629 4.57481 10.6366 4.28658 10.8292C3.99836 11.0218 3.65949 11.1246 3.31284 11.1246C2.848 11.1246 2.4022 10.9399 2.07351 10.6112C1.74481 10.2825 1.56016 9.83671 1.56016 9.37187ZM1.56016 2.9647C1.56016 2.61805 1.66295 2.27919 1.85554 1.99096C2.04813 1.70273 2.32186 1.47808 2.64212 1.34543C2.96238 1.21277 3.31479 1.17806 3.65478 1.24569C3.99476 1.31332 4.30706 1.48025 4.55218 1.72536C4.7973 1.97048 4.96423 2.28278 5.03185 2.62277C5.09948 2.96276 5.06477 3.31516 4.93212 3.63542C4.79946 3.95569 4.57481 4.22942 4.28658 4.42201C3.99836 4.61459 3.65949 4.71739 3.31284 4.71739C2.848 4.71739 2.4022 4.53273 2.07351 4.20404C1.74481 3.87534 1.56016 3.42954 1.56016 2.9647Z" stroke="#818181" stroke-width="1.3"/>
</g>
<defs>
<clipPath id="clip0_829_3">
<rect width="4.80538" height="17.6197" fill="white" transform="translate(0.910156 0.562012)"/>
</clipPath>
</defs>
</svg>
