<svg id="Layer_1" data-name="Layer 1" xmlns="http://www.w3.org/2000/svg" xmlns:xlink="http://www.w3.org/1999/xlink" viewBox="0 0 4.5942 14.50741"><defs><style>.cls-1,.cls-3{fill:none;}.cls-2{clip-path:url(#clip-path);}.cls-3{stroke:#818181;stroke-width:1.32721px;}</style><clipPath id="clip-path" transform="translate(-5.19139 -0.75338)"><rect id="SVGID" class="cls-1" x="0.75272" y="0.57292" width="13.78261" height="15.15168"/></clipPath></defs><title>setting</title><g class="cls-2"><path class="cls-3" d="M5.855,3.05048a1.6335,1.6335,0,1,1,.47844,1.15506A1.63348,1.63348,0,0,1,5.855,3.05048Z" transform="translate(-5.19139 -0.75338)"/><path class="cls-3" d="M5.855,8.0076a1.6335,1.6335,0,1,1,.47844,1.155A1.63345,1.63345,0,0,1,5.855,8.0076Z" transform="translate(-5.19139 -0.75338)"/><path class="cls-3" d="M5.855,12.96369a1.63345,1.63345,0,1,1,.47844,1.15508A1.63354,1.63354,0,0,1,5.855,12.96369Z" transform="translate(-5.19139 -0.75338)"/></g></svg>