<svg width="11" height="12" viewBox="0 0 11 12" fill="none" xmlns="http://www.w3.org/2000/svg">
<path d="M8.73438 7.52246C8.46094 7.52246 8.20312 7.5791 7.96094 7.69238C7.71875 7.80566 7.51172 7.95215 7.33984 8.13184L4.67969 6.57324C4.67969 6.47168 4.68945 6.37988 4.70898 6.29785C4.72852 6.21582 4.73828 6.12402 4.73828 6.02246C4.73828 5.92871 4.72656 5.83887 4.70312 5.75293C4.67969 5.66699 4.65625 5.57324 4.63281 5.47168L7.28125 3.9248C7.48438 4.10449 7.70898 4.24902 7.95508 4.3584C8.20117 4.46777 8.46094 4.52246 8.73438 4.52246C9.28125 4.52246 9.75195 4.32715 10.1465 3.93652C10.541 3.5459 10.7383 3.07715 10.7383 2.53027C10.7383 1.97559 10.541 1.50293 10.1465 1.1123C9.75195 0.72168 9.28125 0.526367 8.73438 0.526367C8.1875 0.526367 7.7168 0.72168 7.32227 1.1123C6.92773 1.50293 6.73047 1.97559 6.73047 2.53027C6.73047 2.62402 6.74219 2.71387 6.76562 2.7998C6.78906 2.88574 6.8125 2.97949 6.83594 3.08105L4.12891 4.62793C3.95703 4.44824 3.75 4.30371 3.50781 4.19434C3.26563 4.08496 3.00781 4.03027 2.73438 4.03027C2.1875 4.03027 1.7168 4.22559 1.32227 4.61621C0.927734 5.00684 0.730469 5.47559 0.730469 6.02246C0.730469 6.57715 0.927734 7.0498 1.32227 7.44043C1.7168 7.83105 2.1875 8.02637 2.73438 8.02637C3.00781 8.02637 3.26563 7.96973 3.50781 7.85645C3.75 7.74316 3.95703 7.60059 4.12891 7.42871L6.78906 8.97559C6.78906 9.07715 6.7793 9.16895 6.75977 9.25098C6.74023 9.33301 6.73047 9.4248 6.73047 9.52637C6.73047 10.0732 6.92773 10.5439 7.32227 10.9385C7.7168 11.333 8.1875 11.5303 8.73438 11.5303C9.28125 11.5303 9.75195 11.333 10.1465 10.9385C10.541 10.5439 10.7383 10.0732 10.7383 9.52637C10.7383 8.97949 10.541 8.50879 10.1465 8.11426C9.75195 7.71973 9.28125 7.52246 8.73438 7.52246ZM8.73438 1.52246C9.00781 1.52246 9.24219 1.62012 9.4375 1.81543C9.63281 2.01074 9.73047 2.24902 9.73047 2.53027C9.73047 2.80371 9.63281 3.03809 9.4375 3.2334C9.24219 3.42871 9.00781 3.52637 8.73438 3.52637C8.46094 3.52637 8.22656 3.42871 8.03125 3.2334C7.83594 3.03809 7.73828 2.80371 7.73828 2.53027C7.73828 2.24902 7.83594 2.01074 8.03125 1.81543C8.22656 1.62012 8.46094 1.52246 8.73438 1.52246ZM2.73438 7.03027C2.46094 7.03027 2.22656 6.93262 2.03125 6.7373C1.83594 6.54199 1.73828 6.30371 1.73828 6.02246C1.73828 5.74902 1.83594 5.51465 2.03125 5.31934C2.22656 5.12402 2.46094 5.02637 2.73438 5.02637C3.00781 5.02637 3.24219 5.12402 3.4375 5.31934C3.63281 5.51465 3.73047 5.74902 3.73047 6.02246C3.73047 6.30371 3.63281 6.54199 3.4375 6.7373C3.24219 6.93262 3.00781 7.03027 2.73438 7.03027ZM8.73438 10.5225C8.46094 10.5225 8.22656 10.4248 8.03125 10.2295C7.83594 10.0342 7.73828 9.7998 7.73828 9.52637C7.73828 9.4248 7.75 9.33496 7.77344 9.25684C7.79688 9.17871 7.83203 9.10059 7.87891 9.02246C7.95703 8.87402 8.07617 8.75488 8.23633 8.66504C8.39648 8.5752 8.5625 8.53027 8.73438 8.53027C9.00781 8.53027 9.24219 8.62793 9.4375 8.82324C9.63281 9.01855 9.73047 9.25293 9.73047 9.52637C9.73047 9.7998 9.63281 10.0342 9.4375 10.2295C9.24219 10.4248 9.00781 10.5225 8.73438 10.5225Z" fill="#818181"/>
</svg>
