<svg id="Layer_1" data-name="Layer 1" xmlns="http://www.w3.org/2000/svg" viewBox="0 0 12.19612 13.41004"><defs><style>.cls-1{fill:#818181;}</style></defs><title>share</title><path class="cls-1" d="M9.95913,9.18712a2.19749,2.19749,0,0,0-.94256.20708,2.50081,2.50081,0,0,0-.7569.53554L5.01784,8.03035a1.45183,1.45183,0,0,1,.0357-.33561,1.45183,1.45183,0,0,0,.0357-.33561,1.243,1.243,0,0,0-.04284-.32847q-.04284-.15708-.08569-.34274L8.18826,4.8028a3.1846,3.1846,0,0,0,.82117.5284,2.31249,2.31249,0,0,0,.9497.19994A2.36078,2.36078,0,0,0,11.68,4.81708a2.32575,2.32575,0,0,0,.7212-1.71374,2.34212,2.34212,0,0,0-.7212-1.728,2.43071,2.43071,0,0,0-3.44176,0,2.34211,2.34211,0,0,0-.72119,1.728,1.243,1.243,0,0,0,.04284.32847q.04284.15708.08569.34274l-3.299,1.88512a2.40237,2.40237,0,0,0-.7569-.5284,2.2636,2.2636,0,0,0-.94256-.19994,2.36083,2.36083,0,0,0-1.72088.71406,2.4137,2.4137,0,0,0,0,3.44176,2.36083,2.36083,0,0,0,1.72088.71406,2.19751,2.19751,0,0,0,.94256-.20707,2.63977,2.63977,0,0,0,.7569-.52127L7.58845,10.958a1.45174,1.45174,0,0,1-.0357.3356,1.45174,1.45174,0,0,0-.0357.3356,2.4626,2.4626,0,0,0,2.44208,2.4421,2.46262,2.46262,0,0,0,2.44207-2.4421A2.46262,2.46262,0,0,0,9.95913,9.18712Zm0-7.312a1.16852,1.16852,0,0,1,.85687.357,1.18531,1.18531,0,0,1,.357.87115,1.21389,1.21389,0,0,1-2.42777,0,1.18526,1.18526,0,0,1,.357-.87115A1.16862,1.16862,0,0,1,9.95913,1.87515Zm-7.312,6.71216a1.16861,1.16861,0,0,1-.85687-.357,1.18528,1.18528,0,0,1-.357-.87115,1.16861,1.16861,0,0,1,.357-.85687,1.16861,1.16861,0,0,1,.85687-.357,1.16861,1.16861,0,0,1,.85687.357,1.16861,1.16861,0,0,1,.357.85687,1.18528,1.18528,0,0,1-.357.87115A1.16861,1.16861,0,0,1,2.64716,8.58731Zm7.312,4.25579a1.219,1.219,0,0,1-1.2139-1.2139,1.145,1.145,0,0,1,.04284-.3285,1.2593,1.2593,0,0,1,.12853-.2856,1.066,1.066,0,0,1,.43558-.4356,1.2244,1.2244,0,0,1,.60695-.1642,1.2139,1.2139,0,0,1,0,2.4278Z" transform="translate(-0.20508 -0.66126)"/></svg>