<svg id="Layer_1" data-name="Layer 1" xmlns="http://www.w3.org/2000/svg" viewBox="0 0 15 16"><defs><style>.cls-1{fill:#818181;}</style></defs><title>share</title><path class="cls-1" d="M11.4297,10.4345a2.43273,2.43273,0,0,0-1.0434.2292,2.76761,2.76761,0,0,0-.8378.5928L5.9601,9.15405a1.60676,1.60676,0,0,1,.03952-.37149,1.60716,1.60716,0,0,0,.03952-.37148,1.37567,1.37567,0,0,0-.04743-.36359q-.04742-.17388-.09485-.37939l3.5726-2.08665a3.52635,3.52635,0,0,0,.90894.5849,2.56,2.56,0,0,0,1.0513.22131,2.61311,2.61311,0,0,0,1.9048-.7904,2.57438,2.57438,0,0,0,.7983-1.897,2.5925,2.5925,0,0,0-.7983-1.91276,2.69054,2.69054,0,0,0-3.80971,0,2.5925,2.5925,0,0,0-.7983,1.91276,1.37609,1.37609,0,0,0,.04742.36359q.04743.17388.09485.37939L5.21712,6.52993A2.6593,2.6593,0,0,0,4.3793,5.945,2.50557,2.50557,0,0,0,3.336,5.72372a2.61326,2.61326,0,0,0-1.90486.7904,2.67171,2.67171,0,0,0,0,3.80968,2.613,2.613,0,0,0,1.90486.7904A2.43255,2.43255,0,0,0,4.3793,10.885a2.92075,2.92075,0,0,0,.83782-.577l3.58841,2.0867a1.6071,1.6071,0,0,1-.03952.3715,1.60649,1.60649,0,0,0-.03952.3715,2.72589,2.72589,0,0,0,2.70321,2.7031,2.72589,2.72589,0,0,0,2.7031-2.7031,2.72589,2.72589,0,0,0-2.7031-2.7032Zm0-8.09368a1.29334,1.29334,0,0,1,.9484.3952,1.31185,1.31185,0,0,1,.3952.96428,1.34365,1.34365,0,0,1-2.6873,0,1.31185,1.31185,0,0,1,.3952-.96428A1.2934,1.2934,0,0,1,11.4297,2.34082ZM3.336,9.77056a1.29351,1.29351,0,0,1-.94847-.3952,1.312,1.312,0,0,1-.3952-.96428A1.34934,1.34934,0,0,1,3.336,7.0674,1.34934,1.34934,0,0,1,4.67965,8.41108a1.312,1.312,0,0,1-.3952.96428A1.29352,1.29352,0,0,1,3.336,9.77056ZM11.4297,14.4813a1.34934,1.34934,0,0,1-1.3437-1.3436,1.26807,1.26807,0,0,1,.0474-.3636,1.39072,1.39072,0,0,1,.1423-.3162,1.18021,1.18021,0,0,1,.4821-.4821,1.3557,1.3557,0,0,1,.6719-.1818,1.34365,1.34365,0,0,1,0,2.6873Z"/></svg>