<svg width="17" height="19" viewBox="0 0 17 19" fill="none" xmlns="http://www.w3.org/2000/svg">
<path d="M13.6995 11.762C13.2615 11.762 12.8485 11.8527 12.4606 12.0341C12.0727 12.2156 11.7411 12.4502 11.4657 12.7381L7.20473 10.2415C7.20473 10.0788 7.22037 9.93179 7.25166 9.80039C7.28294 9.66899 7.29859 9.52195 7.29859 9.35927C7.29859 9.2091 7.27982 9.06519 7.24227 8.92754C7.20473 8.78989 7.16719 8.63972 7.12965 8.47704L11.3719 5.99926C11.6973 6.28709 12.057 6.51859 12.4512 6.69379C12.8454 6.86899 13.2615 6.95658 13.6995 6.95658C14.5755 6.95658 15.3294 6.64373 15.9614 6.01803C16.5934 5.39233 16.9093 4.64149 16.9093 3.76552C16.9093 2.87702 16.5934 2.11992 15.9614 1.49422C15.3294 0.868525 14.5755 0.555676 13.6995 0.555676C12.8235 0.555676 12.0695 0.868525 11.4376 1.49422C10.8056 2.11992 10.4897 2.87702 10.4897 3.76552C10.4897 3.91568 10.5084 4.05959 10.546 4.19725C10.5835 4.3349 10.6211 4.48507 10.6586 4.64775L6.32249 7.12552C6.04719 6.8377 5.71557 6.60619 5.32763 6.431C4.9397 6.2558 4.52674 6.1682 4.08875 6.1682C3.21277 6.1682 2.4588 6.48105 1.82684 7.10675C1.19488 7.73245 0.878906 8.48329 0.878906 9.35927C0.878906 10.2478 1.19488 11.0049 1.82684 11.6306C2.4588 12.2563 3.21277 12.5691 4.08875 12.5691C4.52674 12.5691 4.9397 12.4784 5.32763 12.2969C5.71557 12.1155 6.04719 11.8871 6.32249 11.6118L10.5835 14.0896C10.5835 14.2522 10.5679 14.3993 10.5366 14.5307C10.5053 14.6621 10.4897 14.8091 10.4897 14.9718C10.4897 15.8478 10.8056 16.6017 11.4376 17.2337C12.0695 17.8657 12.8235 18.1816 13.6995 18.1816C14.5755 18.1816 15.3294 17.8657 15.9614 17.2337C16.5934 16.6017 16.9093 15.8478 16.9093 14.9718C16.9093 14.0958 16.5934 13.3419 15.9614 12.7099C15.3294 12.0779 14.5755 11.762 13.6995 11.762ZM13.6995 2.15121C14.1375 2.15121 14.5129 2.30763 14.8258 2.62048C15.1386 2.93333 15.295 3.31501 15.295 3.76552C15.295 4.20351 15.1386 4.57893 14.8258 4.89178C14.5129 5.20463 14.1375 5.36105 13.6995 5.36105C13.2615 5.36105 12.8861 5.20463 12.5732 4.89178C12.2604 4.57893 12.104 4.20351 12.104 3.76552C12.104 3.31501 12.2604 2.93333 12.5732 2.62048C12.8861 2.30763 13.2615 2.15121 13.6995 2.15121ZM4.08875 10.9736C3.65076 10.9736 3.27534 10.8172 2.96249 10.5043C2.64964 10.1915 2.49321 9.80978 2.49321 9.35927C2.49321 8.92128 2.64964 8.54586 2.96249 8.23301C3.27534 7.92016 3.65076 7.76374 4.08875 7.76374C4.52674 7.76374 4.90216 7.92016 5.21501 8.23301C5.52786 8.54586 5.68428 8.92128 5.68428 9.35927C5.68428 9.80978 5.52786 10.1915 5.21501 10.5043C4.90216 10.8172 4.52674 10.9736 4.08875 10.9736ZM13.6995 16.5673C13.2615 16.5673 12.8861 16.4109 12.5732 16.0981C12.2604 15.7852 12.104 15.4098 12.104 14.9718C12.104 14.8091 12.1227 14.6652 12.1603 14.5401C12.1978 14.4149 12.2541 14.2898 12.3292 14.1646C12.4544 13.9269 12.6452 13.736 12.9017 13.5921C13.1583 13.4482 13.4242 13.3763 13.6995 13.3763C14.1375 13.3763 14.5129 13.5327 14.8258 13.8455C15.1386 14.1584 15.295 14.5338 15.295 14.9718C15.295 15.4098 15.1386 15.7852 14.8258 16.0981C14.5129 16.4109 14.1375 16.5673 13.6995 16.5673Z" fill="#818181"/>
</svg>
