<svg width="23" height="25" viewBox="0 0 23 25" fill="none" xmlns="http://www.w3.org/2000/svg">
<g clip-path="url(#clip0_101_75)">
<path d="M11.457 4.40186C10.3242 4.64014 9.36328 5.22217 8.6875 6.08154C8.30469 6.56592 8.11719 6.91357 7.92578 7.48779C7.71484 8.10889 7.6875 8.42529 7.6875 10.1323V11.6675H7.01953C6.55078 11.6675 6.27344 11.687 6.07812 11.73C4.83203 12.0151 3.86719 13.0347 3.66797 14.2847C3.60938 14.6323 3.60938 21.3589 3.66797 21.7065C3.86719 22.9565 4.83203 23.9761 6.07812 24.2612C6.31641 24.3159 6.6875 24.3237 8.72266 24.3237C10.9727 24.3237 11.0977 24.3198 11.2344 24.2495C11.418 24.1558 11.5352 24.0308 11.6133 23.8472C11.7695 23.4644 11.6094 23.0269 11.2344 22.8354C11.0977 22.7651 10.9766 22.7612 8.98828 22.7612C7.83203 22.7573 6.76953 22.7417 6.625 22.7261C5.96484 22.6401 5.44922 22.1909 5.28516 21.5659C5.19531 21.2261 5.19531 14.7651 5.28516 14.4253C5.44922 13.8003 5.96484 13.3511 6.625 13.2651C6.96875 13.2222 17.8203 13.2222 18.1641 13.2651C18.6602 13.3315 19.1016 13.6167 19.3438 14.0308C19.5117 14.312 19.5625 14.5972 19.5625 15.2104C19.5625 15.8081 19.5977 15.9683 19.7695 16.1519C20.0703 16.4761 20.6562 16.4761 20.957 16.1519C21.1328 15.9644 21.1641 15.812 21.1641 15.1558C21.1641 14.4644 21.125 14.1558 20.9883 13.7651C20.6328 12.7417 19.7695 11.9722 18.7109 11.73C18.5156 11.687 18.2383 11.6675 17.7695 11.6675H17.1016V10.1675C17.1016 9.33936 17.082 8.52686 17.0625 8.35889C16.918 7.27686 16.4297 6.31982 15.6406 5.58545C14.9727 4.96045 14.1758 4.56201 13.2383 4.38623C12.7812 4.30029 11.9141 4.30811 11.457 4.40186ZM13.293 6.04248C14.4258 6.40576 15.2109 7.25342 15.4414 8.3667C15.4883 8.59717 15.5 8.96045 15.5 10.1636V11.6675H12.3906H9.28516L9.30078 10.0347C9.31641 8.21436 9.31641 8.21045 9.60156 7.62451C9.98828 6.84326 10.7422 6.2417 11.6328 6.00342C12.043 5.89404 12.8906 5.91357 13.293 6.04248Z" fill="#9D9DA8"/>
<path d="M16.2227 16.7886C14.8399 17.019 13.4532 17.9526 12.0938 19.5581C11.625 20.1167 11.5157 20.3511 11.5743 20.6909C11.6563 21.187 13.125 22.7417 14.1485 23.4136C14.8164 23.8589 15.5899 24.1753 16.2539 24.2847C16.5664 24.3354 17.3633 24.3354 17.6758 24.2847C18.6563 24.1245 19.6602 23.605 20.6368 22.7495C21.3477 22.1284 22.25 21.0776 22.336 20.7769C22.4141 20.4878 22.3594 20.2378 22.1563 19.9644C21.5118 19.0933 20.5547 18.1636 19.7813 17.6558C19.1133 17.2104 18.3399 16.894 17.6758 16.7847C17.3907 16.7378 16.5 16.7417 16.2227 16.7886ZM17.6289 18.4214C18.461 18.6401 19.1094 19.0581 20.0039 19.9565C20.2969 20.2534 20.5391 20.5151 20.5391 20.5347C20.5391 20.605 19.4649 21.6519 19.168 21.8745C18.3672 22.4644 17.7032 22.7222 16.9649 22.7222C16.2266 22.7222 15.5625 22.4644 14.7618 21.8745C14.4649 21.6519 13.3907 20.605 13.3907 20.5347C13.3907 20.4644 14.4649 19.4175 14.7618 19.1948C15.3047 18.7964 15.75 18.5659 16.2813 18.4214C16.6328 18.3276 17.2696 18.3276 17.6289 18.4214Z" fill="#9D9DA8"/>
<path d="M16.5312 19.1089C16.3203 19.1753 16.0898 19.3237 15.9102 19.5073C15.3789 20.0503 15.3789 21.019 15.9102 21.562C16.2188 21.8784 16.5547 22.019 17.0039 22.019C17.7656 22.019 18.3359 21.5425 18.4727 20.7925C18.6094 20.0581 18.168 19.3198 17.457 19.105C17.2383 19.0386 16.75 19.0386 16.5312 19.1089Z" fill="#9D9DA8"/>
<path d="M7.66792 17.1245C7.18745 17.3745 7.07026 17.9956 7.42573 18.3784C7.72651 18.7026 8.31245 18.7026 8.61323 18.3784C8.9687 17.9995 8.85151 17.3745 8.38276 17.1323C8.20307 17.0386 7.83588 17.0347 7.66792 17.1245Z" fill="#9D9DA8"/>
<path d="M10.5976 17.1245C10.1171 17.3745 9.99995 17.9956 10.3554 18.3784C10.6562 18.7026 11.2421 18.7026 11.5429 18.3784C11.8984 17.9995 11.7812 17.3745 11.3124 17.1323C11.1328 17.0386 10.7656 17.0347 10.5976 17.1245Z" fill="#9D9DA8"/>
</g>
<rect x="1.63672" y="0.297119" width="21.3633" height="11.366" fill="white"/>
<path fill-rule="evenodd" clip-rule="evenodd" d="M1.1748 6.49369C1.85059 5.63432 2.81152 5.05229 3.94434 4.81401C4.40137 4.72026 5.26855 4.71244 5.72559 4.79838C6.66309 4.97416 7.45996 5.3726 8.12793 5.9976C8.91699 6.73198 9.40527 7.68901 9.5498 8.77104C9.56934 8.93901 9.58887 9.75151 9.58887 10.5796V11.9808H7.9873V10.5757C7.9873 9.3726 7.97559 9.00932 7.92871 8.77885C7.69824 7.66557 6.91309 6.81791 5.78027 6.45463C5.37793 6.32573 4.53027 6.30619 4.12012 6.41557C3.22949 6.65385 2.47559 7.25541 2.08887 8.03666C1.80375 8.62253 1.80371 8.62651 1.78809 10.4462L1.78809 10.4468L1.77341 11.9808H0.174805V10.5445C0.174805 8.83744 0.202148 8.52104 0.413086 7.89994C0.604492 7.32573 0.791992 6.97807 1.1748 6.49369Z" fill="#9D9DA8"/>
<defs>
<clipPath id="clip0_101_75">
<rect width="20" height="20" fill="white" transform="translate(3 4.32373)"/>
</clipPath>
</defs>
</svg>
