<svg id="Layer_1" data-name="Layer 1" xmlns="http://www.w3.org/2000/svg" xmlns:xlink="http://www.w3.org/1999/xlink" viewBox="0 0 267 145"><defs><style>.cls-1{fill:#e0edf3;}.cls-2{fill:#ffd100;}.cls-3{fill:#da9135;}.cls-4{fill:#ffdf4f;}.cls-5{mask:url(#mask);}.cls-6{fill:#fff;}.cls-7{fill:#373b54;}.cls-8{fill:#fbaf7b;}.cls-9{fill:#fb8862;}.cls-10{fill:#469e9d;}.cls-11{fill:#55c0bf;}.cls-12{fill:#e21b22;}.cls-13{fill:#d52e34;}</style><mask id="mask" x="16.63" y="-0.09" width="206.05" height="133.86" maskUnits="userSpaceOnUse"><g id="mask0_4440_6256" data-name="mask0 4440 6256"><path class="cls-1" d="M200.69,97.39a60.06,60.06,0,0,1-15.31,17.1,73.59,73.59,0,0,1-7.44,5l-.77.46a90.56,90.56,0,0,1-13.33,6.29l-1.49.55-1.14.4-.11,0q-2.41.84-4.91,1.57l-1.64.47q-1.49.42-3,.78c-.54.14-1.07.27-1.61.39a122.92,122.92,0,0,1-12.21,2.2C92.91,138.46,41.52,121.15,31.93,82c-2.86-11.65,2-18.79,8.71-23.26a43.54,43.54,0,0,1,10.78-5l.46-.16h0c3.08-1,6-1.65,8.19-2.16,0,0,.12-.27.35-.75C63.13,45.2,81.59,11.08,126,9.43c27.93-1,29.5,19.33,40.49,28.34a18.29,18.29,0,0,0,11.4,4.15c.2,0,.4,0,.6,0h1.39l.6,0,.4,0,1.11-.1h.1l.87-.09,1.73-.09a25.56,25.56,0,0,1,8.9,1.22C210.59,48.36,215.44,72.15,200.69,97.39Z"/></g></mask></defs><title>Subscribe</title><path class="cls-1" d="M250.15,40.66s6.48-7.73,7.94-8,8.54,5.86,8.13,6.43-4.8-.17-4.8-.17.27,1.72-1,2-3.63-.7-3.63-.7a1.12,1.12,0,0,1-.94,1.42c-1.28.37-4-.64-4-.64Z"/><path class="cls-1" d="M222.63,44.21S213.41,40.1,212,40.46s-5.12,9-4.52,9.32,4.24-2.25,4.24-2.25.51,1.66,1.8,1.37,2.95-2.22,2.95-2.22a1.13,1.13,0,0,0,1.47.87c1.32-.23,3.35-2.35,3.35-2.35Z"/><path class="cls-2" d="M250.33,31.71,253.22,50a1,1,0,0,1-.83,1.14l-28.88,4.55a1,1,0,0,1-.38,0,1.17,1.17,0,0,1-.36-.16,1.2,1.2,0,0,1-.26-.29,1.16,1.16,0,0,1-.13-.37L219.5,36.57a1,1,0,0,1,0-.38.91.91,0,0,1,.29-.5,1,1,0,0,1,.53-.26l28.87-4.55a.89.89,0,0,1,.58.08,1,1,0,0,1,.43.4A.91.91,0,0,1,250.33,31.71Z"/><path class="cls-3" d="M223.63,54.26l11.76-10.15a2.05,2.05,0,0,1,1-.48,2.18,2.18,0,0,1,1.13.13l14.52,6-14.42-7a2.13,2.13,0,0,0-1.29-.22,2.1,2.1,0,0,0-1.16.6Z"/><path class="cls-4" d="M250.22,31.47,236.62,45l-17.1-8.67a1,1,0,0,1,.26-.58,1,1,0,0,1,.54-.31l28.87-4.55a.92.92,0,0,1,.61.13A.94.94,0,0,1,250.22,31.47Z"/><path class="cls-3" d="M220.58,36.85l14.84,7.5a1.86,1.86,0,0,0,1.13.19,1.79,1.79,0,0,0,1-.52l11.76-11.56L238,45.1a1.79,1.79,0,0,1-1.15.67,1.87,1.87,0,0,1-1.3-.28Z"/><path class="cls-1" d="M44.05,40.66s6.49-7.73,7.94-8,8.54,5.86,8.13,6.43-4.8-.17-4.8-.17.28,1.72-1,2-3.63-.7-3.63-.7a1.13,1.13,0,0,1-1,1.42c-1.28.37-4-.64-4-.64Z"/><path class="cls-1" d="M16.54,44.21S7.32,40.1,5.87,40.46s-5.12,9-4.51,9.32S5.6,47.53,5.6,47.53s.51,1.66,1.79,1.37,3-2.22,3-2.22a1.14,1.14,0,0,0,1.48.87c1.31-.23,3.34-2.35,3.34-2.35Z"/><path class="cls-2" d="M44.24,31.71,47.12,50a1,1,0,0,1-.18.74,1,1,0,0,1-.65.4L17.42,55.66a1,1,0,0,1-.74-.17.89.89,0,0,1-.26-.29,1,1,0,0,1-.14-.37L13.4,36.57a1,1,0,0,1,0-.38,1.05,1.05,0,0,1,.29-.5,1,1,0,0,1,.53-.26L43.1,30.88a.93.93,0,0,1,.59.08,1,1,0,0,1,.43.4A1.12,1.12,0,0,1,44.24,31.71Z"/><path class="cls-3" d="M17.54,54.26,29.29,44.11a2.09,2.09,0,0,1,1-.48,2.13,2.13,0,0,1,1.12.13l14.53,6-14.42-7a2.14,2.14,0,0,0-1.29-.22,2.07,2.07,0,0,0-1.16.6Z"/><path class="cls-4" d="M44.13,31.47,30.52,45,13.43,36.32a1,1,0,0,1,.25-.58,1.08,1.08,0,0,1,.55-.31L43.1,30.88a1,1,0,0,1,.61.13A1,1,0,0,1,44.13,31.47Z"/><path class="cls-3" d="M14.49,36.85l14.84,7.5a1.83,1.83,0,0,0,1.13.19,1.86,1.86,0,0,0,1-.52L43.23,32.46,31.92,45.1a1.84,1.84,0,0,1-2.45.39Z"/><g class="cls-5"><path class="cls-1" d="M200.69,98.86a58.47,58.47,0,0,1-15.31,16.41,73.5,73.5,0,0,1-7.44,4.84c-.26.15-.51.28-.77.44a92.4,92.4,0,0,1-13.33,6l-1.49.52-1.14.39-.11,0q-2.41.81-4.91,1.51c-.54.16-1.09.31-1.64.45q-1.49.4-3,.75l-1.61.38c-4,.89-8.1,1.6-12.21,2.1-44.82,5.55-96.21-11-105.8-48.61-2.86-11.18,2-18,8.71-22.32A44.67,44.67,0,0,1,51.42,57l.46-.15h0c3.08-.93,6-1.58,8.19-2.08l.35-.71c2.69-5.27,21.15-38,65.58-39.59,27.93-1,29.5,18.54,40.49,27.19a18.76,18.76,0,0,0,11.4,4h2l.6,0,.4,0,1.11-.1h.1l.87-.08c.6,0,1.17-.08,1.73-.1a27,27,0,0,1,8.9,1.17C210.59,51.82,215.44,74.65,200.69,98.86Z"/><path class="cls-6" d="M44,69a3.52,3.52,0,0,0-2.88-1.69,3.43,3.43,0,0,0-1.69.35,3.51,3.51,0,0,0-2,2.7,3.45,3.45,0,0,0,.19,1.71,3.54,3.54,0,0,0,1,1.42,3.47,3.47,0,0,0,1.52.79,3.33,3.33,0,0,0,.84.1,3.66,3.66,0,0,0,1.79-.48,3.61,3.61,0,0,0,1.75-3.12A3.58,3.58,0,0,0,44,69Zm-.68,2.41a2.41,2.41,0,1,1-4.42-1.78,2.4,2.4,0,0,1,4.13,0,2.52,2.52,0,0,1,.32.88A2.48,2.48,0,0,1,43.32,71.41Z"/><path class="cls-6" d="M47.57,40.07s9.77-2.53,11.14-1.93,3.55,9.72,2.89,10-3.81-2.92-3.81-2.92-.76,1.55-2,1-2.55-2.68-2.55-2.68a1.14,1.14,0,0,1-1.6.61c-1.26-.45-2.91-2.87-2.91-2.87Z"/><path class="cls-2" d="M52.92,32.89,44.66,49.43a.92.92,0,0,1-.24.31,1.12,1.12,0,0,1-.33.2,1,1,0,0,1-.39,0,1,1,0,0,1-.38-.1L17.17,36.83a1,1,0,0,1-.49-.58,1,1,0,0,1,.05-.76L25,19a.94.94,0,0,1,.57-.5,1,1,0,0,1,.76.05l26.15,13a1,1,0,0,1,.43.41,1,1,0,0,1,.12.58A.92.92,0,0,1,52.92,32.89Z"/><path class="cls-3" d="M18.09,35.75l15.46-1.44a2.12,2.12,0,0,1,1.11.21,2,2,0,0,1,.84.76L43.84,48.6,36.18,34.51A2.08,2.08,0,0,0,34,33.4Z"/><path class="cls-4" d="M53,32.64,34.05,35.75l-8.89-17a1,1,0,0,1,1.16-.25l26.15,13a1,1,0,0,1,.43.47A1,1,0,0,1,53,32.64Z"/><path class="cls-3" d="M25.71,19.83l7.74,14.73a1.79,1.79,0,0,0,.81.82,1.83,1.83,0,0,0,1.13.16l16.28-2.62L35.1,36.66a1.86,1.86,0,0,1-2.22-1.11Z"/><path class="cls-1" d="M206.93,9.53s5.45-8.48,6.86-9S223,5.3,222.67,5.91s-4.78.45-4.78.45.48,1.66-.76,2.11-3.69-.23-3.69-.23a1.13,1.13,0,0,1-.75,1.53c-1.23.53-4.09-.12-4.09-.12Z"/><path class="cls-6" d="M180.08,16.53s-9.66-2.9-11.05-2.36-3.94,9.57-3.3,9.82,3.92-2.77,3.92-2.77.72,1.58,2,1.13,2.64-2.58,2.64-2.58a1.14,1.14,0,0,0,1.58.68c1.27-.4,3-2.75,3-2.75Z"/><path class="cls-2" d="M206,.63l5.17,17.75a1,1,0,0,1-.68,1.24l-28.06,8.17a.86.86,0,0,1-.39,0,.81.81,0,0,1-.37-.12.89.89,0,0,1-.3-.25.91.91,0,0,1-.17-.34L176,9.36a1,1,0,0,1,.19-.92,1,1,0,0,1,.48-.32L204.75,0a1.08,1.08,0,0,1,.59,0,1.05,1.05,0,0,1,.48.35A.88.88,0,0,1,206,.63Z"/><path class="cls-3" d="M182.35,26.38l10.37-11.55a2.06,2.06,0,0,1,2.09-.62L210,18.32l-15.19-5.14a2.1,2.1,0,0,0-1.31,0,2.07,2.07,0,0,0-1.07.74Z"/><path class="cls-4" d="M205.84.41,194.06,15.54,176,9.1a1,1,0,0,1,.18-.6,1,1,0,0,1,.5-.38L204.75,0a1,1,0,0,1,.62.05A1,1,0,0,1,205.84.41Z"/><path class="cls-3" d="M177.12,9.5l15.67,5.56a1.85,1.85,0,0,0,2.09-.6l10.2-13-9.63,14a1.79,1.79,0,0,1-1,.8,1.85,1.85,0,0,1-1.33-.11Z"/><path class="cls-6" d="M75.9,107.32s7.11-2.2,8.14-1.81,3,7,2.48,7.24-2.91-2-2.91-2-.52,1.17-1.44.83a6,6,0,0,1-2-1.89.83.83,0,0,1-1.16.51c-.94-.29-2.27-2-2.27-2Z"/><path class="cls-6" d="M57.4,98.53s-4.08-6.23-5.12-6.59-6.77,3.55-6.52,4,3.53.3,3.53.3-.35,1.23.57,1.56a6.09,6.09,0,0,0,2.72-.2.84.84,0,0,0,.57,1.13,7,7,0,0,0,3-.12Z"/><path class="cls-2" d="M79.59,101.84l-5.52,12.49a.63.63,0,0,1-.16.24.61.61,0,0,1-.24.15.56.56,0,0,1-.28,0,.67.67,0,0,1-.28-.06L53.37,106a.78.78,0,0,1-.24-.16.75.75,0,0,1-.15-.24.69.69,0,0,1,0-.28A.64.64,0,0,1,53,105L58.5,92.55a.86.86,0,0,1,.15-.22.75.75,0,0,1,.39-.21.72.72,0,0,1,.43,0l19.74,8.71a.77.77,0,0,1,.33.29.75.75,0,0,1,.1.42A.7.7,0,0,1,79.59,101.84Z"/><path class="cls-3" d="M54,105.17l11.33-1.6a1.57,1.57,0,0,1,.83.11,1.62,1.62,0,0,1,.65.54l6.61,9.53-6.15-10.13a1.49,1.49,0,0,0-.71-.65,1.51,1.51,0,0,0-1-.1Z"/><path class="cls-4" d="M79.62,101.66l-13.85,3L58.63,92.4a.74.74,0,0,1,.39-.25.69.69,0,0,1,.45,0l19.74,8.71a.73.73,0,0,1,.33.32A.81.81,0,0,1,79.62,101.66Z"/><path class="cls-3" d="M59.07,93.15l6.21,10.58a1.34,1.34,0,0,0,.63.57,1.28,1.28,0,0,0,.84.08l11.92-2.47-12.09,3.33a1.34,1.34,0,0,1-1.67-.75Z"/><path class="cls-2" d="M71.23,46.47,115,14a5.09,5.09,0,0,1,3-1,5,5,0,0,1,3,1l43.11,32.45Z"/><path class="cls-2" d="M162.55,46H72.83a3.05,3.05,0,0,0-3,3.06v56.77a3,3,0,0,0,3,3h89.72a3,3,0,0,0,3-3V49.1A3.05,3.05,0,0,0,162.55,46Z"/><path class="cls-6" d="M161.28,50.2,151.21,58l-.13.1-8.17,6.32L137,69,124.72,78.5l-2.36,1.83-1.32-.8a6.37,6.37,0,0,0-3.35-.94,6.48,6.48,0,0,0-3.34,1l-1.31.82L111,78.77,98.27,69l-5.94-4.57-8.2-6.32-1.51-1.16L73.86,50.2Z"/><path class="cls-3" d="M162.23,104.69,122.36,80.33l-1.32-.8a6.34,6.34,0,0,0-3.34-.94,6.45,6.45,0,0,0-3.34,1l-1.31.82L73.86,104.69,111,78.77l3.26-2.26a6.34,6.34,0,0,1,7.61,0l2.87,2Z"/><path class="cls-6" d="M161.28,21.74H73.86V50.21h87.42Z"/><path class="cls-1" d="M151.21,31.76H82.62v4.57h68.59Z"/><path class="cls-1" d="M151.21,42.65H82.62v4.57h68.59Z"/><path class="cls-1" d="M151.21,53.54V58l-.13.1h-67l-1.5-1.16v-3.4Z"/><path class="cls-1" d="M142.91,64.42,137,69H98.27l-5.93-4.57Z"/><path class="cls-7" d="M173,70.22c3.23-1.11,1.51-6.68,6.1-10.09,4.85-3.59,6.54,1.22,6.54,1.22a6.71,6.71,0,0,1,8.32.87c2.62,2.32,5.83,8,1.67,15.86-3.6,6.8,5.32,9.64-.78,13.6-5.21,3.4-19.78-2.53-19.78-2.53S158.28,75.29,173,70.22Z"/><path class="cls-8" d="M177.77,77l-2.84,13.85,7,1.44,2.84-13.86Z"/><path class="cls-9" d="M184.73,78.44l-1,4.94c-2.29,1.51-4.91,3.24-7.82,2.7l1.74-8.46.64-.49Z"/><path class="cls-8" d="M181,62.85s-8.55,7.07-7.78,16.79a1.94,1.94,0,0,0,1,1.55c2.14,1.09,7.46,3.45,9.82,1.18,3-2.87,9.07-10.42,6.69-13.84S181,62.85,181,62.85Z"/><path class="cls-8" d="M185.91,76s5.23-.9,6.19,2.5-6.73,4.46-6.87,1.38S185.91,76,185.91,76Z"/><path class="cls-7" d="M176.68,67.75s2-3.34,2.95-1.77,1.37,4,6.35,3.31c3.77-.5,1.07,7.83,1.07,7.83s2.35-1.51,4.19-.11c0,0,3.09-8.81.15-10.91S181,60.81,179.6,62.24,176.68,67.75,176.68,67.75Z"/><path class="cls-7" d="M178.28,71.09c-.29.45-.71.7-.92.56s-.15-.61.15-1.07.71-.7.92-.56S178.57,70.64,178.28,71.09Z"/><path class="cls-7" d="M183.06,74.28c-.29.45-.71.7-.92.56s-.15-.61.15-1.07.7-.7.92-.56S183.36,73.84,183.06,74.28Z"/><path class="cls-6" d="M176.52,75.85l4.63,1.8s-4.72,4.88-4.49-1.75Z"/><path class="cls-10" d="M164.88,125.56l-2,.76c-1.22.45-2.46.89-3.71,1.3-.66.23-1.32.45-2,.66a155.58,155.58,0,0,1-15.18,4c-5.75-1.4-11.27-4.38-14.7-10a25.36,25.36,0,0,1,6.59-2.84v0a1.66,1.66,0,0,0,.67.62,1.79,1.79,0,0,0,.91.18,1.74,1.74,0,0,0,1.58-1.53,19.81,19.81,0,0,1,8.91-.8C152.49,118.72,159.34,122,164.88,125.56Z"/><path class="cls-6" d="M136.43,123.24c-1.05-.15-2-.28-2.19-.33a.52.52,0,0,0-.37,0,.57.57,0,0,0-.41.57.64.64,0,0,0,.14.35c.18.19.18.19,2.66.54,4.09.6,12.87,1.88,20.91,3.91l2-.65A210.82,210.82,0,0,0,136.43,123.24Z"/><path class="cls-11" d="M172.45,122.39l-1.39.63.09,0-.22,0-1.65.71q-2.17.93-4.4,1.77l-2,.76c-5.52-1.5-11.8-4-16.89-8.36a27.59,27.59,0,0,1-9.83-19.15,34.57,34.57,0,0,1,9.83.5l.22,1.94a1.69,1.69,0,0,0,1.29,1.46,1.59,1.59,0,0,0,1-.09,1.68,1.68,0,0,0,.79-.65l1-1.62a37.85,37.85,0,0,1,18.87,12.86,46.63,46.63,0,0,1,4.82,7.44l.26.89C173.67,121.83,173.06,122.11,172.45,122.39Z"/><path class="cls-6" d="M169.2,120.9a144.27,144.27,0,0,1-28-18.41.64.64,0,0,0-.32-.24.56.56,0,0,0-.4,0,.55.55,0,0,0-.3.68c.22.78,14.63,12.36,29,19.2.62.3,1.24.58,1.86.86l1.4-.63C171.37,121.92,170.28,121.43,169.2,120.9Z"/><path class="cls-12" d="M200.05,107a91.14,91.14,0,0,1-9.42,6.39c-.32.2-.65.38-1,.58a114.09,114.09,0,0,1-16.88,8c-.62.24-1.24.47-1.89.69-.48.18-.95.35-1.44.51l.09,0h-.22l-1.69.57.06-1.62.1-1.26.6-7.67.45-5.87.3-3.69.35-4.56.49-7.66c.27-1.79,2.18-3,3.72-3.63a15,15,0,0,1,2-.68c0,.12,1.24,5.56,7.08.6h.06l4.34,1a5.22,5.22,0,0,1,3,2c.17.23.65.92,1.31,1.93C193.5,95.72,197.31,101.72,200.05,107Z"/><path class="cls-12" d="M175.67,87.16S161,82.87,159.23,80.69,146.49,64.9,146.49,64.9l-8.69,5.93,13.2,22c6.65,7.11,22,12.61,22.76,12.4S175.67,87.16,175.67,87.16Z"/><path class="cls-8" d="M137.81,70.82l-9.29-6.18a.84.84,0,0,1-.25-.28.8.8,0,0,1-.06-.37.69.69,0,0,1,.41-.59,20.34,20.34,0,0,1,6.47-1.65c1.21.13,6.09,1.29,6.09,1.29l-.45-2.18a1.11,1.11,0,0,1,.14-.78,1.06,1.06,0,0,1,.64-.47,1.79,1.79,0,0,1,1.12.06,1.87,1.87,0,0,1,.87.7l3,4.51Z"/><path class="cls-9" d="M186.24,79.38s1.56.55,1.6-.43c0-.56-.82-.73-.82-.73s2.81-1.23,3.44.19S188.7,81.49,186.24,79.38Z"/><path class="cls-12" d="M185.42,97.14A.59.59,0,0,1,185,97a.66.66,0,0,1-.17-.4c-.06-4.73,2-6.14,2-6.2a.65.65,0,0,1,.43-.09.57.57,0,0,1,.36.24.56.56,0,0,1-.15.79s-1.59,1.23-1.53,5.24a.54.54,0,0,1,0,.22.76.76,0,0,1-.12.19.71.71,0,0,1-.18.12.54.54,0,0,1-.22,0Z"/><path class="cls-13" d="M190.63,110.13l-1,.46c-2.23-4.15-4.73-8.82-4.73-11.9a.38.38,0,0,1,.17-.31.6.6,0,0,1,.4-.13.62.62,0,0,1,.4.13.4.4,0,0,1,.16.31C186.05,101.56,188.46,106.09,190.63,110.13Z"/></g></svg>