<?xml version="1.0" encoding="utf-8"?>
<!-- Generator: Adobe Illustrator 18.1.1, SVG Export Plug-In . SVG Version: 6.00 Build 0)  -->
<svg version="1.1" id="Layer_1" xmlns="http://www.w3.org/2000/svg" xmlns:xlink="http://www.w3.org/1999/xlink" x="0px" y="0px"
	 viewBox="0 0 100 100" enable-background="new 0 0 100 100" xml:space="preserve">
<path fill="#E11F26" d="M28.5,76.6L28,80.1l0,0L28.5,76.6z M72.2,76.6l0.5,3.5L72.2,76.6z M16.8,62.8h-3.6H16.8z M27.8,33.6
	c0-12.5,10.1-22.6,22.6-22.6V3.9C34,3.9,20.7,17.2,20.7,33.6H27.8z M27.8,35v-1.3h-7.2V35H27.8z M29,73c-5-0.7-8.6-5-8.6-10.2h-7.2
	c0,8.6,6.2,16.1,14.8,17.3L29,73z M50.4,74.9C44,74.9,35.7,74,29,73l-1,7.1c6.8,0.9,15.5,1.9,22.4,1.9V74.9z M71.8,73
	c-6.7,0.9-15,1.8-21.4,1.8V82c6.9,0,15.6-1,22.4-1.9L71.8,73z M80.4,62.8c0,5.2-3.7,9.5-8.6,10.2l1,7.1c8.7-1.2,14.8-8.7,14.8-17.3
	H80.4z M72.9,33.6V35h7.2v-1.3H72.9z M50.4,11.1c12.5,0,22.6,10.1,22.6,22.6h7.2c0-16.4-13.3-29.7-29.7-29.7V11.1z M87.6,62.8
	c0-5.5-2.2-10.8-4-15.3c-1.9-4.7-3.5-8.7-3.5-12.6h-7.2c0,5.5,2.2,10.8,4,15.3c1.9,4.7,3.5,8.7,3.5,12.6H87.6z M20.7,35
	c0,3.9-1.5,7.8-3.5,12.6c-1.8,4.5-4,9.7-4,15.3h7.2c0-3.9,1.5-7.8,3.5-12.6c1.8-4.5,4-9.7,4-15.3H20.7z"/>
<path fill="none" stroke="#E11F26" stroke-width="7.1578" stroke-linecap="round" d="M59.7,88.4c-2,3-5.4,5-9.3,5
	c-3.9,0-7.3-2-9.3-5"/>
</svg>
