<svg width="12" height="12" viewBox="0 0 12 12" fill="none" xmlns="http://www.w3.org/2000/svg">
<path d="M5.79297 0.337891C5.02734 0.337891 4.3125 0.482422 3.64844 0.771484C2.97656 1.05273 2.39258 1.44336 1.89648 1.94336C1.40039 2.44336 1.00781 3.02539 0.71875 3.68945C0.4375 4.36133 0.296875 5.07617 0.296875 5.83398C0.296875 6.59961 0.4375 7.31445 0.71875 7.97852C1.00781 8.65039 1.40039 9.23438 1.89648 9.73047C2.39258 10.2266 2.97656 10.6191 3.64844 10.9082C4.3125 11.1973 5.02734 11.3418 5.79297 11.3418C6.55859 11.3418 7.27344 11.1973 7.9375 10.9082C8.60937 10.6191 9.19336 10.2266 9.68945 9.73047C10.1855 9.23438 10.5781 8.65039 10.8672 7.97852C11.1484 7.31445 11.2891 6.59961 11.2891 5.83398C11.2891 5.07617 11.1484 4.36133 10.8672 3.68945C10.5781 3.02539 10.1855 2.44336 9.68945 1.94336C9.19336 1.44336 8.60937 1.05273 7.9375 0.771484C7.27344 0.482422 6.55859 0.337891 5.79297 0.337891ZM5.79297 10.334C5.16797 10.334 4.58203 10.2168 4.03516 9.98242C3.48828 9.74805 3.01172 9.42773 2.60547 9.02148C2.19922 8.61523 1.87891 8.13867 1.64453 7.5918C1.41016 7.04492 1.29297 6.45898 1.29297 5.83398C1.29297 5.20898 1.41016 4.62305 1.64453 4.07617C1.87891 3.5293 2.19922 3.05273 2.60547 2.64648C3.01172 2.24023 3.48828 1.91992 4.03516 1.68555C4.58203 1.45117 5.16797 1.33398 5.79297 1.33398C6.41797 1.33398 7.00391 1.45117 7.55078 1.68555C8.09766 1.91992 8.57422 2.24023 8.98047 2.64648C9.38672 3.05273 9.70703 3.5293 9.94141 4.07617C10.1758 4.62305 10.293 5.20898 10.293 5.83398C10.293 6.45898 10.1758 7.04492 9.94141 7.5918C9.70703 8.13867 9.38672 8.61523 8.98047 9.02148C8.57422 9.42773 8.09766 9.74805 7.55078 9.98242C7.00391 10.2168 6.41797 10.334 5.79297 10.334ZM7.99609 6.38477L6.29688 5.54102V2.83398C6.29688 2.68555 6.25 2.56641 6.15625 2.47656C6.0625 2.38672 5.94141 2.3418 5.79297 2.3418C5.64453 2.3418 5.52344 2.38672 5.42969 2.47656C5.33594 2.56641 5.28906 2.68555 5.28906 2.83398V5.83398C5.28906 5.93555 5.31445 6.02344 5.36523 6.09766C5.41602 6.17188 5.49219 6.23633 5.59375 6.29102L7.59766 7.28711C7.62109 7.31055 7.64648 7.32422 7.67383 7.32812C7.70117 7.33203 7.74219 7.33398 7.79688 7.33398C7.89062 7.33398 7.97656 7.31055 8.05469 7.26367C8.13281 7.2168 8.19531 7.14258 8.24219 7.04102C8.28906 6.93945 8.29102 6.82422 8.24805 6.69531C8.20508 6.56641 8.12109 6.46289 7.99609 6.38477Z" fill="#818181"/>
</svg>
