<?xml version="1.0" encoding="utf-8"?>
<!-- Generator: Adobe Illustrator 18.1.1, SVG Export Plug-In . SVG Version: 6.00 Build 0)  -->
<svg version="1.1" id="Layer_1" xmlns="http://www.w3.org/2000/svg" xmlns:xlink="http://www.w3.org/1999/xlink" x="0px" y="0px"
	 viewBox="-142 143 15 15" enable-background="new -142 143 15 15" xml:space="preserve">
<path fill="#121212" d="M-129.2,147.5c0,0.1,0,0.2,0,0.4c0,3.6-2.7,7.8-7.8,7.8c-1.6,0-3-0.4-4.2-1.2c0.2,0,0.4,0.1,0.7,0.1
	c1.3,0,2.5-0.4,3.4-1.2c-1.2,0-2.2-0.8-2.6-1.9c0.2,0,0.3,0.1,0.5,0.1c0.2,0,0.5-0.1,0.7-0.1c-1.3-0.3-2.2-1.4-2.2-2.7v0
	c0.4,0.2,0.8,0.3,1.3,0.3c-0.8-0.5-1.2-1.3-1.2-2.3c0-0.5,0.1-1,0.4-1.4c1.4,1.6,3.4,2.7,5.7,2.9c-0.1-0.2-0.1-0.4-0.1-0.6
	c0-1.5,1.2-2.7,2.7-2.7c0.8,0,1.5,0.3,2,0.9c0.6-0.1,1.2-0.4,1.7-0.7c-0.2,0.7-0.6,1.2-1.2,1.5c0.5-0.1,1.1-0.2,1.6-0.4
	C-128.2,146.7-128.7,147.1-129.2,147.5z"/>
</svg>
