<svg width="8" height="10" viewBox="0 0 8 10" fill="none" xmlns="http://www.w3.org/2000/svg">
<path d="M7.70117 9.21582V4.21191C7.70117 4.07129 7.65234 3.95215 7.55469 3.85449C7.45703 3.75684 7.33789 3.70801 7.19727 3.70801C7.05664 3.70801 6.9375 3.75684 6.83984 3.85449C6.74219 3.95215 6.69336 4.07129 6.69336 4.21191V9.21582C6.69336 9.34863 6.74219 9.46387 6.83984 9.56152C6.9375 9.65918 7.05664 9.70801 7.19727 9.70801C7.33789 9.70801 7.45703 9.65918 7.55469 9.56152C7.65234 9.46387 7.70117 9.34863 7.70117 9.21582ZM4.70117 9.21582V1.21191C4.70117 1.07129 4.65234 0.952148 4.55469 0.854492C4.45703 0.756836 4.33789 0.708008 4.19727 0.708008C4.05664 0.708008 3.9375 0.756836 3.83984 0.854492C3.74219 0.952148 3.69336 1.07129 3.69336 1.21191V9.21582C3.69336 9.34863 3.74219 9.46387 3.83984 9.56152C3.9375 9.65918 4.05664 9.70801 4.19727 9.70801C4.33789 9.70801 4.45703 9.65918 4.55469 9.56152C4.65234 9.46387 4.70117 9.34863 4.70117 9.21582ZM1.70117 9.21582V6.21582C1.70117 6.0752 1.65234 5.95605 1.55469 5.8584C1.45703 5.76074 1.33789 5.71191 1.19727 5.71191C1.05664 5.71191 0.9375 5.76074 0.839844 5.8584C0.742188 5.95605 0.693359 6.0752 0.693359 6.21582V9.21582C0.693359 9.34863 0.742188 9.46387 0.839844 9.56152C0.9375 9.65918 1.05664 9.70801 1.19727 9.70801C1.33789 9.70801 1.45703 9.65918 1.55469 9.56152C1.65234 9.46387 1.70117 9.34863 1.70117 9.21582Z" fill="#818181"/>
</svg>
