<svg id="Layer_1" data-name="Layer 1" xmlns="http://www.w3.org/2000/svg" viewBox="0 0 41.82529 13.1825"><defs><style>.cls-1{fill:#0742a6;fill-rule:evenodd;}</style></defs><title>Visa</title><path class="cls-1" d="M21.8802,31.6047h-3.388l2.1191-12.7609h3.3879Z" transform="translate(-3.75781 -18.6113)"/><path class="cls-1" d="M34.1652,19.1546a8.54614,8.54614,0,0,0-3.0388-.5433c-3.3458,0-5.7019,1.7376-5.7164,4.2218-.0278,1.8328,1.6869,2.8508,2.9693,3.462,1.3108.6244,1.7564,1.032,1.7564,1.5887-.0133.8549-1.0592,1.2489-2.0346,1.2489a6.89293,6.89293,0,0,1-3.1789-.6788l-.4461-.2038-.4741,2.8645a10.55271,10.55271,0,0,0,3.7786.6792c3.5549,0,5.8693-1.7107,5.8968-4.358.0135-1.4527-.8919-2.5658-2.844-3.4754-1.1849-.5838-1.9107-.9775-1.9107-1.575.0139-.5431.6139-1.0993,1.9515-1.0993a5.88816,5.88816,0,0,1,2.5238.4886l.3064.1355Z" transform="translate(-3.75781 -18.6113)"/><path class="cls-1" d="M40.2291,18.8438h2.6207l2.7333,12.7607h-3.137s-.307-1.4662-.4043-1.9142h-4.35c-.1258.3392-.711,1.9142-.711,1.9142h-3.555l5.0325-11.702A1.67626,1.67626,0,0,1,40.2291,18.8438Zm-.2085,4.6699S38.947,26.351,38.668,27.0841h2.8161c-.1393-.638-.7809-3.6925-.7809-3.6925l-.2368-1.0996c-.0997.2831-.2439.6724-.3412.935C40.0593,23.405,40.0149,23.5247,40.0206,23.5137Z" transform="translate(-3.75781 -18.6113)"/><path class="cls-1" d="M15.6636,18.8418l-3.318,8.7017-.3626-1.7648a9.84044,9.84044,0,0,0-4.68417-5.3489L10.338,31.5892h3.5828l5.3254-12.7474Z" transform="translate(-3.75781 -18.6113)"/><path class="cls-1" d="M9.26462,18.8418h-5.451l-.05577.2578c4.25215,1.059,7.06829,3.6116,8.22529,6.6797l-1.185-5.8648A1.39878,1.39878,0,0,0,9.26462,18.8418Z" transform="translate(-3.75781 -18.6113)"/></svg>