<?xml version="1.0" encoding="utf-8"?>
<!-- Generator: Adobe Illustrator 18.1.1, SVG Export Plug-In . SVG Version: 6.00 Build 0)  -->
<svg version="1.1" id="Layer_1" xmlns="http://www.w3.org/2000/svg" xmlns:xlink="http://www.w3.org/1999/xlink" x="0px" y="0px"
	 viewBox="-142 143 15 15" enable-background="new -142 143 15 15" xml:space="preserve">
<path fill="#121212" d="M-129.2,145.3c1.3,1.3,2.1,3,2.1,4.9c0,3.8-3.2,6.9-7,6.9c-1.2,0-2.3-0.3-3.3-0.8l-3.7,0.9l1-3.6
	c-0.6-1-0.9-2.2-0.9-3.5c0-3.8,3.1-6.9,6.9-6.9C-132.2,143.2-130.5,144-129.2,145.3z M-134.1,156c3.2,0,5.8-2.6,5.8-5.8
	c0-1.6-0.7-3-1.8-4.1c-1.1-1.1-2.5-1.7-4.1-1.7c-3.2,0-5.8,2.6-5.8,5.8c0,1.1,0.3,2.2,0.9,3.1l0.2,0.2l-0.6,2.1l2.2-0.6l0.2,0.1
	C-136.1,155.7-135.1,156-134.1,156z M-130.9,151.6c0.2,0.1,0.3,0.1,0.3,0.2c0.1,0.1,0.1,0.4-0.1,0.8c-0.2,0.4-0.8,0.8-1.2,0.8
	c-0.6,0.1-1,0.1-2.1-0.4c-1.8-0.7-2.9-2.5-3-2.6c-0.1-0.1-0.7-0.9-0.7-1.8c0-0.8,0.4-1.3,0.6-1.4s0.3-0.2,0.5-0.2c0.1,0,0.2,0,0.3,0
	c0.1,0,0.3,0,0.4,0.3c0.1,0.3,0.5,1.2,0.5,1.3s0.1,0.2,0,0.3c-0.3,0.7-0.7,0.6-0.5,0.9c0.7,1.2,1.3,1.6,2.4,2.1
	c0.2,0.1,0.3,0.1,0.4,0c0.1-0.1,0.4-0.5,0.5-0.7c0.1-0.2,0.3-0.2,0.4-0.1C-132,151.1-131.1,151.5-130.9,151.6z"/>
</svg>
