<svg width="14" height="14" viewBox="0 0 14 14" fill="none" xmlns="http://www.w3.org/2000/svg">
<path d="M10.1642 6.50781L5.35166 3.58203C4.91963 3.34141 4.37549 3.65039 4.37549 4.15625V9.84375C4.37549 10.3469 4.91689 10.6586 5.35166 10.418L10.1642 7.65625C10.6126 7.40742 10.6126 6.75938 10.1642 6.50781ZM13.7817 7C13.7817 3.25391 10.7466 0.21875 7.00049 0.21875C3.25439 0.21875 0.219238 3.25391 0.219238 7C0.219238 10.7461 3.25439 13.7812 7.00049 13.7812C10.7466 13.7812 13.7817 10.7461 13.7817 7ZM1.53174 7C1.53174 3.97852 3.979 1.53125 7.00049 1.53125C10.022 1.53125 12.4692 3.97852 12.4692 7C12.4692 10.0215 10.022 12.4688 7.00049 12.4688C3.979 12.4688 1.53174 10.0215 1.53174 7Z" fill="#E21B22"/>
</svg>
