<svg width="21" height="21" viewBox="0 0 21 21" fill="none" xmlns="http://www.w3.org/2000/svg">
<g clip-path="url(#clip0_783_24390)">
<path d="M19.8934 3.27539C20.1512 3.27539 20.368 3.38086 20.5438 3.5918C20.7196 3.80273 20.7723 4.03711 20.702 4.29492L19.12 11.6074C19.0731 11.7949 18.9735 11.9531 18.8212 12.082C18.6688 12.2109 18.4989 12.2754 18.3114 12.2754H7.3075L7.65906 13.9629H17.5731C17.8309 13.9629 18.0477 14.0684 18.2235 14.2793C18.3993 14.4902 18.452 14.7246 18.3817 14.9824L18.3466 15.1582C18.8153 15.6035 19.0497 16.1426 19.0497 16.7754C19.0497 17.4082 18.8329 17.9414 18.3993 18.375C17.9657 18.8086 17.4325 19.0254 16.7997 19.0254C16.1669 19.0254 15.6337 18.8086 15.2001 18.375C14.7665 17.9414 14.5497 17.4082 14.5497 16.7754C14.5497 16.377 14.6552 16.002 14.8661 15.6504H9.73328C9.94421 16.002 10.0497 16.377 10.0497 16.7754C10.0497 17.4082 9.83289 17.9414 9.39929 18.375C8.9657 18.8086 8.4325 19.0254 7.79968 19.0254C7.16687 19.0254 6.63367 18.8086 6.20007 18.375C5.76648 17.9414 5.54968 17.4082 5.54968 16.7754C5.54968 16.166 5.76062 15.6504 6.1825 15.2285L3.72156 2.71289H0.909058C0.627808 2.71289 0.487183 2.57227 0.487183 2.29102V1.44727C0.487183 1.16602 0.627808 1.02539 0.909058 1.02539H4.42468C4.63562 1.02539 4.81726 1.08984 4.9696 1.21875C5.12195 1.34766 5.22156 1.50586 5.26843 1.69336L5.54968 3.27539H19.8934ZM17.3973 16.1777C17.3973 16.1777 17.3563 16.1367 17.2743 16.0547C17.1923 15.9727 17.0341 15.9316 16.7997 15.9316C16.5653 15.9316 16.3661 16.0137 16.202 16.1777C16.038 16.3418 15.9559 16.541 15.9559 16.7754C15.9559 17.0098 16.038 17.209 16.202 17.373C16.3661 17.5371 16.5653 17.6191 16.7997 17.6191C17.0341 17.6191 17.2333 17.5371 17.3973 17.373C17.5614 17.209 17.6434 17.0098 17.6434 16.7754C17.6434 16.541 17.5614 16.3418 17.3973 16.1777ZM8.39734 16.1777C8.39734 16.1777 8.35632 16.1367 8.27429 16.0547C8.19226 15.9727 8.03406 15.9316 7.79968 15.9316C7.56531 15.9316 7.36609 16.0137 7.20203 16.1777C7.03796 16.3418 6.95593 16.541 6.95593 16.7754C6.95593 17.0098 7.03796 17.209 7.20203 17.373C7.36609 17.5371 7.56531 17.6191 7.79968 17.6191C8.03406 17.6191 8.23328 17.5371 8.39734 17.373C8.5614 17.209 8.64343 17.0098 8.64343 16.7754C8.64343 16.541 8.5614 16.3418 8.39734 16.1777ZM17.6083 10.5879L18.8387 4.96289H5.90125L6.99109 10.5879H17.6083ZM10.0497 8.05664V7.49414C10.0497 7.21289 10.1903 7.07227 10.4716 7.07227H11.5966V5.94727C11.5966 5.66602 11.7372 5.52539 12.0184 5.52539H12.5809C12.8622 5.52539 13.0028 5.66602 13.0028 5.94727V7.07227H14.1278C14.4091 7.07227 14.5497 7.21289 14.5497 7.49414V8.05664C14.5497 8.33789 14.4091 8.47852 14.1278 8.47852H13.0028V9.60352C13.0028 9.88477 12.8622 10.0254 12.5809 10.0254H12.0184C11.7372 10.0254 11.5966 9.88477 11.5966 9.60352V8.47852H10.4716C10.1903 8.47852 10.0497 8.33789 10.0497 8.05664Z" fill="white"/>
</g>
<defs>
<clipPath id="clip0_783_24390">
<rect width="20.25" height="20" fill="white" transform="matrix(1 0 0 -1 0.487183 20.0254)"/>
</clipPath>
</defs>
</svg>
