<svg width="23" height="22" viewBox="0 0 23 22" fill="none" xmlns="http://www.w3.org/2000/svg">
<path d="M11.423 0.826852C17.0897 0.826852 21.7563 5.49351 21.7563 11.1602C21.7563 16.8685 17.0897 21.4935 11.423 21.4935C5.71467 21.4935 1.08968 16.8685 1.08968 11.1602C1.08968 5.49351 5.71467 0.826852 11.423 0.826852ZM16.8397 5.74351C14.0897 3.03518 9.923 2.82685 7.00634 4.91018L17.673 15.5768C19.7563 12.6602 19.548 8.49351 16.8397 5.74351ZM5.96467 16.6185C8.71467 19.3268 12.8813 19.5352 15.798 17.4518L5.13134 6.78518C3.04801 9.70184 3.25634 13.8685 5.96467 16.6185Z" fill="#E21B22"/>
<path d="M16.8397 5.74351L17.1959 5.39263L17.1905 5.38727L16.8397 5.74351ZM7.00634 4.91018L6.71572 4.50331L6.23543 4.84638L6.65278 5.26373L7.00634 4.91018ZM17.673 15.5768L17.3194 15.9304L17.7368 16.3477L18.0799 15.8674L17.673 15.5768ZM5.96467 16.6185L5.60839 16.9694L5.61383 16.9747L5.96467 16.6185ZM15.798 17.4518L16.0886 17.8587L16.5689 17.5156L16.1515 17.0983L15.798 17.4518ZM5.13134 6.78518L5.48489 6.43162L5.06754 6.01427L4.72447 6.49456L5.13134 6.78518ZM11.423 1.32685C16.8135 1.32685 21.2563 5.76965 21.2563 11.1602H22.2563C22.2563 5.21737 17.3658 0.326852 11.423 0.326852V1.32685ZM21.2563 11.1602C21.2563 16.591 16.8148 20.9935 11.423 20.9935V21.9935C17.3645 21.9935 22.2563 17.1459 22.2563 11.1602H21.2563ZM11.423 20.9935C5.99082 20.9935 1.58968 16.5924 1.58968 11.1602H0.58968C0.58968 17.1446 5.43853 21.9935 11.423 21.9935V20.9935ZM1.58968 11.1602C1.58968 5.76834 5.99213 1.32685 11.423 1.32685V0.326852C5.43722 0.326852 0.58968 5.21868 0.58968 11.1602H1.58968ZM17.1905 5.38727C14.2646 2.50571 9.82691 2.28103 6.71572 4.50331L7.29696 5.31705C10.0191 3.37266 13.9147 3.56465 16.4888 6.09975L17.1905 5.38727ZM6.65278 5.26373L17.3194 15.9304L18.0265 15.2233L7.35989 4.55663L6.65278 5.26373ZM18.0799 15.8674C20.3021 12.7563 20.0775 8.31856 17.1959 5.39267L16.4834 6.09436C19.0185 8.66845 19.2105 12.5641 17.2661 15.2862L18.0799 15.8674ZM5.61383 16.9747C8.53972 19.8563 12.9774 20.081 16.0886 17.8587L15.5074 17.045C12.7852 18.9893 8.88962 18.7973 6.31552 16.2623L5.61383 16.9747ZM16.1515 17.0983L5.48489 6.43162L4.77779 7.13873L15.4444 17.8054L16.1515 17.0983ZM4.72447 6.49456C2.5022 9.60575 2.72687 14.0434 5.60843 16.9693L6.32091 16.2676C3.78582 13.6935 3.59383 9.79793 5.53821 7.07579L4.72447 6.49456Z" fill="white"/>
</svg>
