<?xml version="1.0" encoding="utf-8"?>
<!-- Generator: Adobe Illustrator 18.1.1, SVG Export Plug-In . SVG Version: 6.00 Build 0)  -->
<svg version="1.1" id="Layer_1" xmlns="http://www.w3.org/2000/svg" xmlns:xlink="http://www.w3.org/1999/xlink" x="0px" y="0px"
	 viewBox="0 0 100 100" enable-background="new 0 0 100 100" xml:space="preserve">
<path fill="#E11F26" d="M50.4,4.6c25,0,45.6,20.6,45.6,45.6c0,25.2-20.6,45.6-45.6,45.6c-25.2,0-45.6-20.4-45.6-45.6
	C4.8,25.2,25.2,4.6,50.4,4.6z M74.3,26.3c-12.1-12-30.5-12.9-43.4-3.7L78,69.7C87.2,56.8,86.3,38.4,74.3,26.3z M26.3,74.3
	c12.1,12,30.5,12.9,43.4,3.7L22.7,30.9C13.5,43.7,14.4,62.1,26.3,74.3z"/>
<path fill="#FFFFFF" d="M74.3,26.3l1.6-1.5l0,0L74.3,26.3z M30.9,22.6l-1.3-1.8l-2.1,1.5l1.8,1.8L30.9,22.6z M78,69.7l-1.6,1.6
	l1.8,1.8l1.5-2.1L78,69.7z M26.3,74.3l-1.6,1.5l0,0L26.3,74.3z M69.7,77.9l1.3,1.8l2.1-1.5l-1.8-1.8L69.7,77.9z M22.7,30.9l1.6-1.6
	l-1.8-1.8l-1.5,2.1L22.7,30.9z M50.4,6.8c23.8,0,43.4,19.6,43.4,43.4h4.4c0-26.2-21.6-47.8-47.8-47.8V6.8z M93.8,50.2
	c0,24-19.6,43.4-43.4,43.4V98c26.2,0,47.8-21.4,47.8-47.8H93.8z M50.4,93.6C26.4,93.6,7,74.1,7,50.2H2.6C2.6,76.6,24,98,50.4,98
	V93.6z M7,50.2C7,26.4,26.5,6.8,50.4,6.8V2.3C24,2.3,2.6,23.9,2.6,50.2H7z M75.9,24.7C63,12,43.4,11,29.6,20.8l2.6,3.6
	c12-8.6,29.2-7.7,40.6,3.5L75.9,24.7z M29.4,24.1l47.1,47.1l3.1-3.1L32.5,21L29.4,24.1z M79.8,70.9c9.8-13.7,8.8-33.3-3.9-46.2
	l-3.1,3.1c11.2,11.4,12,28.6,3.5,40.6L79.8,70.9z M24.8,75.8C37.7,88.5,57.3,89.5,71,79.7l-2.6-3.6c-12,8.6-29.2,7.7-40.6-3.5
	L24.8,75.8z M71.3,76.4L24.2,29.3l-3.1,3.1l47.1,47.1L71.3,76.4z M20.9,29.6c-9.8,13.7-8.8,33.3,3.9,46.2l3.1-3.1
	c-11.2-11.4-12-28.6-3.5-40.6L20.9,29.6z"/>
</svg>
