<svg id="Layer_1" data-name="Layer 1" xmlns="http://www.w3.org/2000/svg" viewBox="0 0 18.83828 19.00004"><defs><style>.cls-1{fill:#fff;}</style></defs><title>cart</title><path class="cls-1" d="M15.6523,13.1419H8.74067a2.80323,2.80323,0,0,1-2.70956-2.1643L4.92966,6.50017A2.81418,2.81418,0,0,1,7.68328,3.0196H16.7702a2.81417,2.81417,0,0,1,2.7536,3.48057L18.4224,10.9886a2.80878,2.80878,0,0,1-2.7701,2.1533ZM7.65024,4.39641A1.44289,1.44289,0,0,0,6.2514,6.17525L7.35285,10.6636a1.4319,1.4319,0,0,0,1.39883,1.1015H15.6523a1.43188,1.43188,0,0,0,1.3988-1.1015l1.1014-4.48835a1.43735,1.43735,0,0,0-1.3988-1.77884Z" transform="translate(-0.76563 -0.10156)"/><path class="cls-1" d="M5.73316,7.674a.68841.68841,0,0,1-.66638-.55073L4.081,2.84419a1.76783,1.76783,0,0,0-1.72927-1.3658H1.454a.68841.68841,0,1,1,0-1.37681h.89768a3.14465,3.14465,0,0,1,3.073,2.42869L6.405,6.8094a.6829.6829,0,0,1-.51217.82609A.78811.78811,0,0,1,5.73316,7.674ZM8.84475,19.1016a2.203,2.203,0,1,1,1.55765-.6453A2.20264,2.20264,0,0,1,8.84475,19.1016Zm0-3.051a.837.837,0,1,0,.59192.2451A.83687.83687,0,0,0,8.84475,16.0506Zm7.61105,3.051a2.20319,2.20319,0,1,1,1.5576-.6453A2.20278,2.20278,0,0,1,16.4558,19.1016Zm0-3.051a.83664.83664,0,1,0,.322.0621A.83654.83654,0,0,0,16.4558,16.0506Z" transform="translate(-0.76563 -0.10156)"/><path class="cls-1" d="M16.458,16.0503H7.28294a2.14235,2.14235,0,0,1,0-4.2847H8.74236a.6884.6884,0,1,1,0,1.3768H7.28294a.7655.7655,0,1,0,0,1.531H16.458a.68845.68845,0,0,1,0,1.3769Z" transform="translate(-0.76563 -0.10156)"/></svg>