<?xml version="1.0" encoding="utf-8"?>
<!-- Generator: Adobe Illustrator 23.0.5, SVG Export Plug-In . SVG Version: 6.00 Build 0)  -->
<svg version="1.1" id="Layer_1" xmlns="http://www.w3.org/2000/svg" xmlns:xlink="http://www.w3.org/1999/xlink" x="0px" y="0px"
	 viewBox="0 0 18 18" style="enable-background:new 0 0 18 18;" xml:space="preserve">
<style type="text/css">
	.st0{fill:none;stroke:#2D2D2D;stroke-width:1.2091;stroke-linecap:round;stroke-linejoin:round;stroke-miterlimit:10;}
	.st1{fill:none;stroke:#2D2D2D;stroke-width:1.6121;stroke-linecap:round;stroke-linejoin:round;}
</style>
<path class="st0" d="M6.3,14.4H5.9c-3.2,0-4.8-0.8-4.8-4.8v-4c0-3.2,1.6-4.8,4.8-4.8h6.4c3.2,0,4.8,1.6,4.8,4.8v4
	c0,3.2-1.6,4.8-4.8,4.8h-0.4c-0.2,0-0.5,0.1-0.6,0.3l-1.2,1.6c-0.5,0.7-1.4,0.7-1.9,0l-1.2-1.6C6.8,14.6,6.5,14.4,6.3,14.4z"/>
<path class="st1" d="M12.3,8L12.3,8"/>
<path class="st1" d="M9.1,8L9.1,8"/>
<path class="st1" d="M5.9,8L5.9,8"/>
</svg>
