<svg id="Layer_1" data-name="Layer 1" xmlns="http://www.w3.org/2000/svg" viewBox="0 0 21.51172 19.99023"><defs><style>.cls-1{fill:none;stroke:#e21b22;stroke-linecap:round;stroke-linejoin:round;stroke-width:1.5px;}</style></defs><title>digital</title><path class="cls-1" d="M1,8.2207H21" transform="translate(-0.23828 -0.98047)"/><path class="cls-1" d="M10.5483,18.7205h-5.11c-3.55,0-4.45-.88-4.45-4.39v-8.22c0-3.18.74-4.2,3.53-4.36.28-.01.59-.02.92-.02h11.11c3.55,0,4.45.88,4.45,4.39v4.41" transform="translate(-0.23828 -0.98047)"/><path class="cls-1" d="M5,14.2207H9" transform="translate(-0.23828 -0.98047)"/><path class="cls-1" d="M21,16.2207a3.92091,3.92091,0,0,1-.58,2.06,3.98454,3.98454,0,0,1-6.84,0,3.92091,3.92091,0,0,1-.58-2.06,4,4,0,0,1,8,0Z" transform="translate(-0.23828 -0.98047)"/><path class="cls-1" d="M15.4414,16.2202l.99.99,2.13-1.97" transform="translate(-0.23828 -0.98047)"/></svg>