<?xml version="1.0" encoding="utf-8"?>
<!-- Generator: Adobe Illustrator 23.0.5, SVG Export Plug-In . SVG Version: 6.00 Build 0)  -->
<svg version="1.1" id="Layer_1" xmlns="http://www.w3.org/2000/svg" xmlns:xlink="http://www.w3.org/1999/xlink" x="0px" y="0px"
	 viewBox="0 0 37 21" style="enable-background:new 0 0 37 21;" xml:space="preserve">
<style type="text/css">
	.st0{fill:#E21B22;}
</style>
<g>
	<path class="st0" d="M2.9,0.2c-1.1,0.3-2,1.2-2.4,2.3C0.4,2.9,0.4,3.3,0.4,10v7l0.1,0.4c0.3,1.1,1.3,2,2.3,2.3
		c0.3,0.1,1.5,0.1,9.9,0.1h9.5l-0.7-0.7c-0.4-0.4-0.8-0.9-0.9-1l-0.2-0.3l-8.5,0H3.5l-0.3-0.2c-0.2-0.1-0.4-0.2-0.5-0.4l-0.2-0.3
		l0-3.6l0-3.6l8.2,0l8.2,0l0.2-0.5c0.5-1.5,1.3-2.8,2.4-3.9C21.8,5,22,4.8,22,4.7c0,0-4.4,0-9.8,0H2.5l0-0.8c0-0.8,0-0.8,0.2-1.1
		c0.1-0.1,0.3-0.3,0.4-0.4l0.3-0.2l11.7,0l11.7,0L27,2.3c0.3,0.1,0.4,0.1,1.5,0.2c1,0,1.2,0,1.2-0.1c0,0-0.1-0.3-0.2-0.5
		c-0.2-0.5-0.9-1.2-1.4-1.4c-0.8-0.4,0.2-0.4-13-0.4C5.7,0.2,3.1,0.2,2.9,0.2z"/>
	<path class="st0" d="M27.1,4.3c-2.5,0.4-4.7,2-5.8,4.2c-0.6,1.1-0.8,2.1-0.9,3.4c-0.1,2.7,1.1,5.2,3.3,6.8c2,1.5,4.9,1.9,7.3,1.1
		c2.4-0.8,4.3-2.8,5-5.3c0.3-1.1,0.4-2.5,0.2-3.6c-0.6-3.2-3-5.7-6.2-6.5C29.4,4.2,27.8,4.1,27.1,4.3z M29.9,6c2,0.5,3.6,2,4.4,3.8
		c0.2,0.5,0.4,1.2,0.4,1.8c0.3,3.2-1.9,6.2-5.1,6.9c-0.7,0.1-1.9,0.2-2.5,0c-1.3-0.3-2.3-0.8-3.2-1.7c-1.8-1.7-2.4-4.4-1.6-6.7
		c0.2-0.6,0.3-0.8,0.7-1.5c0.8-1.2,2.1-2.2,3.5-2.6c0.7-0.2,1.2-0.3,2.1-0.3C29.2,5.8,29.5,5.8,29.9,6z"/>
	<path class="st0" d="M28.3,6.5c-0.1,0-0.2,0.2-0.3,0.2l-0.1,0.2l0,2.5l0,2.5h-1.5c-1.6,0-1.7,0-2,0.3c-0.3,0.4-0.2,1,0.3,1.2
		c0.2,0.1,0.5,0.1,2.1,0.1c2.1,0,2.2,0,2.5-0.3l0.1-0.2l0-3c0-2.9,0-3-0.1-3.2C29,6.5,28.6,6.3,28.3,6.5z"/>
</g>
</svg>
