<svg id="Layer_1" data-name="Layer 1" xmlns="http://www.w3.org/2000/svg" xmlns:xlink="http://www.w3.org/1999/xlink" viewBox="0 0 14 19"><defs><style>.cls-1{fill:none;}.cls-2{clip-path:url(#clip-path);}.cls-3{fill:#2d2d2d;}</style><clipPath id="clip-path"><rect class="cls-1" x="0.5918" y="0.97656" width="12.9375" height="18"/></clipPath></defs><title>facebook</title><g class="cls-2"><path class="cls-3" d="M12.9668.97656H7.3418a3.25416,3.25416,0,0,0-3.375,3.375v3.9375H1.1543a.56251.56251,0,0,0-.5625.5625v3.375a.56258.56258,0,0,0,.5625.5625H3.9668v5.625a.56258.56258,0,0,0,.5625.5625H8.4668a.56259.56259,0,0,0,.5625-.5625v-5.625h2.8125a.56248.56248,0,0,0,.5546-.4697l.5625-3.375a.56361.56361,0,0,0-.5546-.65531H9.0293V6.60156a.5163.5163,0,0,1,.567-.5625h3.3705a.56258.56258,0,0,0,.5625-.5625V1.53906a.56258.56258,0,0,0-.5625-.5625Zm-.5625,3.9375H9.5918a1.64007,1.64007,0,0,0-1.6875,1.6875v2.25a.56249.56249,0,0,0,.5625.5625H11.74l-.3752,2.25H8.4668a.56241.56241,0,0,0-.5625.5625v5.625H5.0918v-5.625a.56242.56242,0,0,0-.5625-.5625H1.7168v-2.25H4.5293a.56251.56251,0,0,0,.5625-.5625v-4.5a2.16536,2.16536,0,0,1,2.25-2.25h5.0625Z"/></g></svg>