<?xml version="1.0" encoding="utf-8"?>
<!-- Generator: Adobe Illustrator 23.0.5, SVG Export Plug-In . SVG Version: 6.00 Build 0)  -->
<svg version="1.1" id="Layer_1" xmlns="http://www.w3.org/2000/svg" xmlns:xlink="http://www.w3.org/1999/xlink" x="0px" y="0px"
	 viewBox="0 0 15 17" style="enable-background:new 0 0 15 17;" xml:space="preserve">
<style type="text/css">
	.st0{fill:#313131;}
</style>
<path class="st0" d="M3.2,14.2H0.3V4.8h2.9V14.2z M1.7,3.6c-0.9,0-1.7-0.8-1.7-1.7c0-0.9,0.7-1.7,1.7-1.7c0.9,0,1.7,0.8,1.7,1.7
	C3.4,2.8,2.7,3.6,1.7,3.6z M14,14.2h-2.9V9.6c0-1.1,0-2.5-1.5-2.5c-1.5,0-1.7,1.2-1.7,2.4v4.6H5V4.8h2.8v1.3h0
	c0.4-0.7,1.3-1.5,2.8-1.5c2.9,0,3.5,1.9,3.5,4.4L14,14.2L14,14.2z"/>
</svg>
