<svg id="Layer_1" data-name="Layer 1" xmlns="http://www.w3.org/2000/svg" viewBox="0 0 20 20"><defs><style>.cls-1{fill:#2d2d2d;}</style></defs><title>linkedin-01</title><path class="cls-1" d="M7.72555,19.08645a.15988.15988,0,0,0-.06623-.02037.55119.55119,0,0,1-.426-.531c-.00017-.01341-.00009-.02682-.00009-.04023q0-5.39928-.00043-10.79855a.56976.56976,0,0,1,.04834-.25444.53317.53317,0,0,1,.5065-.32621q1.40325-.0031,2.80651-.00086c.26992,0,.53984-.00048.80977.00015a.54982.54982,0,0,1,.54215.44311.56244.56244,0,0,1,.01129.11491q-.00038.10311.00006.20622a.10853.10853,0,0,0,.005.04846c.01912.00021.02944-.01214.04132-.02021a4.588,4.588,0,0,1,4.538-.35153,4.6016,4.6016,0,0,1,1.84324,1.56833,4.551,4.551,0,0,1,.7253,1.71975,3.45156,3.45156,0,0,1,.07514.628.14.14,0,0,0,.00965.05872v7.0728c-.01835.02928-.01169.06439-.02318.09581a.55027.55027,0,0,1-.40338.36715.19525.19525,0,0,0-.06642.02H14.96939a.18478.18478,0,0,0-.06668-.02.54515.54515,0,0,1-.37056-.29177.56926.56926,0,0,1-.05744-.2674q.00092-2.46163.00056-4.92328a1.47943,1.47943,0,0,0-.0203-.25526,1.25515,1.25515,0,0,0-1.40366-1.025,1.22524,1.22524,0,0,0-.95777.67686,1.25372,1.25372,0,0,0-.13687.60128q.00168,2.44907.00061,4.89813c0,.01509.00012.03018,0,.04527a.55186.55186,0,0,1-.43691.54273.18044.18044,0,0,0-.06221.01849ZM8.337,13.09723q0,2.39946.00019,4.79893c0,.09072-.01323.08134.07891.08136q1.1796.00035,2.35922,0c.091,0,.07882.00791.07884-.07656q.00035-2.17562.00007-4.35123a2.35965,2.35965,0,0,1,2.73115-2.33237A2.3625,2.3625,0,0,1,15.576,13.54874q.00429,2.16805.00089,4.33613c0,.0151-.0002.03019.00007.04528.00084.04673.00091.04739.04811.04739q1.2098.00021,2.41959,0c.05012,0,.05013-.00055.05085-.05.00007-.005,0-.01006,0-.01509q0-3.08862-.00031-6.17724A3.51118,3.51118,0,0,0,14.77386,8.2225a3.37954,3.37954,0,0,0-.94409.07857,3.47708,3.47708,0,0,0-1.78789,1.01336c-.07406.07776-.141.16166-.21069.24323a.52667.52667,0,0,1-.55942.1844.54241.54241,0,0,1-.41727-.53674c-.00079-.30853-.00009-.61705-.00028-.92558,0-.067.00633-.0612-.06326-.06121q-1.18968-.00015-2.37935.00014c-.08584,0-.07443-.01183-.07444.0746Q8.33678,10.69525,8.337,13.09723Z"/><path class="cls-1" d="M1.3872,19.08645a.1295.1295,0,0,0-.061-.01982.55239.55239,0,0,1-.42964-.53369c-.00012-.01174-.00006-.02348-.00006-.03522q0-5.40267-.00038-10.80536A.56706.56706,0,0,1,.98249,7.372a.53394.53394,0,0,1,.46815-.25671q1.14191-.00174,2.28381-.00048.66653,0,1.33306.00017a.54852.54852,0,0,1,.53783.42333.49507.49507,0,0,1,.0156.12437c-.00018.01174,0,.02348,0,.03522q0,5.39765.00033,10.7953a.60774.60774,0,0,1-.03877.23642.54463.54463,0,0,1-.39164.337.138.138,0,0,0-.061.01983Zm3.1304-5.98592q0-2.40691-.00013-4.81382c0-.07548.00874-.06812-.06612-.06814q-1.19214-.00024-2.38428,0c-.07544,0-.0671-.0074-.0671.06725q-.00019,4.81131,0,9.62262c0,.07458-.00917.06915.07124.06916q1.18711.00014,2.37422,0c.08291,0,.072.00606.072-.07329Q4.51774,15.50242,4.5176,13.10053Z"/><path class="cls-1" d="M3.24814,5.91606c-.08385.001-.176.00481-.26822.00183A2.55145,2.55145,0,0,1,.59332,3.95811,2.57979,2.57979,0,0,1,.7628,2.26962,2.55532,2.55532,0,0,1,2.56041.82987,2.14294,2.14294,0,0,1,3.07405.77462c.124.0012.24812-.00061.37216.00112a2.514,2.514,0,0,1,1.70165.66658,2.46069,2.46069,0,0,1,.80065,1.43553A2.51378,2.51378,0,0,1,5.2778,5.12619a2.494,2.494,0,0,1-1.35108.746,2.39485,2.39485,0,0,1-.625.04639Zm.17938-1.09424a1.43988,1.43988,0,0,0,.48854-.087,1.4719,1.4719,0,0,0,.95511-1.6156,1.41913,1.41913,0,0,0-.42977-.82785A1.44386,1.44386,0,0,0,3.305,1.87979a.40465.40465,0,0,1-.07023-.00087,1.40093,1.40093,0,0,0-.41506.02079A1.472,1.472,0,0,0,3.198,4.8135a.33946.33946,0,0,1,.0702.00074A1.35036,1.35036,0,0,0,3.42752,4.82182Z"/></svg>