<svg id="Layer_1" data-name="Layer 1" xmlns="http://www.w3.org/2000/svg" viewBox="0 0 18.70004 21.49747"><defs><style>.cls-1{fill:none;stroke:#e21b22;stroke-linecap:round;stroke-linejoin:round;stroke-width:1.5px;}</style></defs><title>payment</title><path class="cls-1" d="M8.49016,1.15633l-4.99,1.88a3.46981,3.46981,0,0,0-2.09,3.01v7.43a4.86166,4.86166,0,0,0,1.73,3.44l4.3,3.21a4.55159,4.55159,0,0,0,5.14,0l4.3-3.21a4.86166,4.86166,0,0,0,1.73-3.44v-7.43a3.47218,3.47218,0,0,0-2.09-3.02l-4.99-1.87A5.08487,5.08487,0,0,0,8.49016,1.15633Z" transform="translate(-0.66016 -0.17383)"/><path class="cls-1" d="M7.05078,10.7955l1.61,1.61,4.3-4.3" transform="translate(-0.66016 -0.17383)"/></svg>