<?xml version="1.0" encoding="utf-8"?>
<!-- Generator: Adobe Illustrator 23.0.5, SVG Export Plug-In . SVG Version: 6.00 Build 0)  -->
<svg version="1.1" id="Layer_1" xmlns="http://www.w3.org/2000/svg" xmlns:xlink="http://www.w3.org/1999/xlink" x="0px" y="0px"
	 viewBox="0 0 24 21" style="enable-background:new 0 0 24 21;" xml:space="preserve">
<style type="text/css">
	.st0{fill:#E21B22;}
</style>
<g>
	<path class="st0" d="M14.9,1.3c-1.4,0.6-2.6,1.1-2.7,1.2C12,2.6,12,2.6,12,4.8c0,2.1,0,2.6,0.2,3.5c0.5,2.4,2,4.3,4.9,6
		c0.4,0.2,0.5,0.3,0.7,0.3c0.2,0,0.3,0,0.8-0.3c2.6-1.6,4-3.2,4.6-5.4c0.3-1,0.3-1.2,0.3-3.7c0-2.5,0-2.5-0.3-2.7
		c-0.1,0-1.3-0.6-2.7-1.2c-2.3-1-2.6-1.1-2.8-1.1C17.5,0.2,17.1,0.3,14.9,1.3z M19.9,2.6L22,3.5l0,1.6c0,1.7-0.1,2.4-0.3,3.1
		c-0.2,0.7-0.5,1.4-0.9,2c-0.3,0.4-1.2,1.3-1.7,1.7c-0.6,0.4-1.4,0.9-1.4,0.9c0,0-0.3-0.2-0.6-0.3c-2-1.4-3-2.6-3.4-4.3
		c-0.2-0.7-0.2-1.4-0.3-3l0-1.6l2.1-0.9c1.2-0.5,2.2-0.9,2.2-0.9C17.8,1.7,18.7,2.1,19.9,2.6z"/>
	<path class="st0" d="M19.5,4.5c-0.1,0-0.6,0.7-1.3,1.5L17,7.5l-0.5-0.7c-0.5-0.8-0.6-0.9-1-0.9c-0.5,0-0.7,0.3-0.7,0.7v0.3l0.8,1.2
		c0.6,0.8,0.8,1.2,1,1.3c0.2,0.1,0.5,0.1,0.7,0c0.1-0.1,3.1-3.7,3.2-3.9c0,0,0-0.2,0-0.3c0-0.4-0.3-0.7-0.7-0.7
		C19.7,4.5,19.5,4.5,19.5,4.5z"/>
	<path class="st0" d="M1.4,4.5C1,4.7,0.7,5.1,0.6,5.4c0,0.1,0,1.9,0,7l0,6.8l0.1,0.2c0.1,0.3,0.4,0.5,0.7,0.7l0.2,0.1H12h10.4
		l0.2-0.1c0.3-0.1,0.5-0.4,0.7-0.7l0.1-0.2l0-2.8c0-2.8,0-2.8-0.1-3C23.2,13.1,23,13,22.7,13s-0.5,0.1-0.6,0.3
		C22,13.5,22,13.6,22,16.1v2.6H12h-10v-4.3v-4.3H6c4,0,4.1,0,4.2-0.1c0.2-0.1,0.3-0.3,0.3-0.6c0-0.3-0.1-0.5-0.3-0.6
		C10.1,8.7,10,8.7,6,8.7H1.9V7.3V5.9H6c4,0,4.1,0,4.2-0.1c0.2-0.1,0.3-0.3,0.3-0.6c0-0.3-0.1-0.5-0.3-0.6C10.1,4.4,10,4.4,5.8,4.5
		C2.3,4.5,1.6,4.5,1.4,4.5z"/>
	<path class="st0" d="M3.7,13.1c-0.2,0.1-0.3,0.3-0.3,0.6s0.1,0.5,0.3,0.6c0.1,0.1,0.2,0.1,1.8,0.1c1.6,0,1.7,0,1.8-0.1
		c0.2-0.1,0.3-0.3,0.3-0.6s-0.1-0.5-0.3-0.6C7.2,13,7.1,13,5.5,13C3.9,13,3.8,13,3.7,13.1z"/>
</g>
</svg>
