<svg id="Layer_1" data-name="Layer 1" xmlns="http://www.w3.org/2000/svg" viewBox="0 0 14.0782 17.5735"><defs><style>.cls-1{fill:#fff;}.cls-2{fill:none;stroke:#fff;stroke-linecap:round;stroke-width:1.35px;}</style></defs><title>subscribe</title><path class="cls-1" d="M3.74685,14.5276l-.09615.6934h0Zm8.251,0-.0962-.6933h0Zm1.9139-3.8255-.6216.3219Zm-10.27-4.27168A4.23042,4.23042,0,0,1,7.87207,2.2V.8A5.63042,5.63042,0,0,0,2.24165,6.43042Zm0,1.53466V6.43042h-1.4V7.96508ZM2.2332,11.937a1.97771,1.97771,0,0,1,.22125-.9129l-1.2432-.6437a3.37735,3.37735,0,0,0-.378,1.5566ZM3.843,13.8343A1.88955,1.88955,0,0,1,2.2332,11.937h-1.4a3.28926,3.28926,0,0,0,2.8175,3.284Zm4.02932.3485A32.16347,32.16347,0,0,1,3.843,13.8343L3.6507,15.221a33.46554,33.46554,0,0,0,4.22161.3618Zm4.02929-.3485a32.16252,32.16252,0,0,1-4.02929.3485v1.4a33.46507,33.46507,0,0,0,4.22159-.3618Zm1.6098-1.8973a1.8895,1.8895,0,0,1-1.6098,1.8973l.1923,1.3867a3.28921,3.28921,0,0,0,2.8175-3.284Zm-.2213-.913a1.97791,1.97791,0,0,1,.2213.913h1.4a3.37766,3.37766,0,0,0-.3781-1.5568ZM12.1025,6.43042v1.534h1.4v-1.534ZM7.87207,2.2A4.2304,4.2304,0,0,1,12.1025,6.43042h1.4A5.63041,5.63041,0,0,0,7.87207.8Zm6.66123,8.1802c-.1218-.2351-.2566-.469-.3785-.68352-.1253-.22039-.24-.42546-.3397-.62928a2.5359,2.5359,0,0,1-.3126-1.10295h-1.4a3.90584,3.90584,0,0,0,.4549,1.71792c.1207.24686.2549.48553.3803.70613.1287.2265.2464.4309.3524.6355ZM2.24165,7.96508a2.53516,2.53516,0,0,1-.31252,1.10275c-.09962.20377-.21429.40881-.33952.62917-.12191.21451-.25665.4483-.37836.6834l1.2432.6437c.106-.2046.22365-.4089.35233-.6354.12536-.2205.25944-.45918.3801-.706a3.90471,3.90471,0,0,0,.45477-1.71761Z" transform="translate(-0.8332 -0.8)"/><path class="cls-2" d="M9.63281,16.7539a2.11354,2.11354,0,0,1-3.52172,0" transform="translate(-0.8332 -0.8)"/></svg>