<svg id="Layer_1" data-name="Layer 1" xmlns="http://www.w3.org/2000/svg" viewBox="0 0 18 22"><defs><style>.cls-1{fill:#fff;}.cls-2{fill:none;stroke:#fff;stroke-linecap:round;stroke-width:1.6px;}</style></defs><title>subscribe</title><path class="cls-1" d="M4.3618,16.724l.10988-.7924h0Zm9.6768,0-.1099-.7924h0ZM4.21778,7.22774A4.98243,4.98243,0,0,1,9.20021,2.24531v-1.6A6.58243,6.58243,0,0,0,2.61778,7.22774Zm0,2.07694V7.22774h-1.6V9.30468Zm-1.65215,4.381a2.33884,2.33884,0,0,1,.36514-1.2599l-1.35046-.8581a3.93923,3.93923,0,0,0-.61469,2.118Zm1.90605,2.2459a2.237,2.237,0,0,1-1.906-2.2459h-1.6a3.83672,3.83672,0,0,0,3.2863,3.8307Zm4.7285.409a37.75833,37.75833,0,0,1-4.7285-.409l-.21976,1.5848a39.23264,39.23264,0,0,0,4.94826.4242Zm4.72852-.409a37.75816,37.75816,0,0,1-4.72852.409v1.6a39.23121,39.23121,0,0,0,4.94822-.4242Zm1.906-2.2459a2.237,2.237,0,0,1-1.906,2.2459l.2197,1.5848a3.83665,3.83665,0,0,0,3.2863-3.8307Zm-.3651-1.2599a2.33847,2.33847,0,0,1,.3651,1.2599h1.6a3.93865,3.93865,0,0,0-.6146-2.1179Zm-1.287-5.19806v2.077h1.6v-2.077ZM9.20021,2.24531A4.98242,4.98242,0,0,1,14.1826,7.22774h1.6A6.58239,6.58239,0,0,0,9.20021.64531ZM16.8201,11.5678c-.2857-.4497-.5405-.8212-.7411-1.2192a2.33135,2.33135,0,0,1-.2964-1.04386h-1.6a3.90829,3.90829,0,0,0,.4676,1.76406c.2477.4914.574.9708.8194,1.357ZM2.61778,9.30468a2.33214,2.33214,0,0,1-.29635,1.04392c-.20062.398-.45544.7695-.74112,1.2191l1.35046.8581c.24541-.3862.57171-.8656.81943-1.3571a3.90823,3.90823,0,0,0,.46758-1.764Z"/><path class="cls-2" d="M11.2656,19.3379a2.4788,2.4788,0,0,1-4.13028,0"/></svg>