<svg id="Layer_1" data-name="Layer 1" xmlns="http://www.w3.org/2000/svg" viewBox="0 0 19 19"><defs><style>.cls-1{fill:#2d2d2d;}</style></defs><title>twitter</title><path class="cls-1" d="M17.3812,1.00292a1.29271,1.29271,0,0,1-.10925.13285c-.16155.18816-.32439.37521-.48644.56294q-.20478.23723-.40888.475-.20628.23931-.41287.47835-.2676.31091-.53469.62225-.23254.2705-.4653.5408-.29729.34587-.59436.69193-.23079.26862-.4617.53717-.2655.30934-.53071.61894-.23067.26874-.46165.53722-.257.29985-.51335.60028-.2533.29632-.50635.59288-.31645.37307-.631.74772c-.07754.09236-.15292.18656-.2283.2807-.03583.04475-.03471.047-.00339.09287q.35061.51355.70122,1.0271.62061.90625,1.24217,1.81185.40224.58629.80525,1.17207.64972.945,1.29962,1.88986.55845.81291,1.11586,1.62653.36613.53381.73218,1.06768.39639.57793.79285,1.15584c.01346.01962.02736.039.0397.05929a.11085.11085,0,0,1-.06057.17272.66779.66779,0,0,1-.1913.02445c-.26138.01346-.52307.0098-.78466.0127C15.36263,18.55,14,18.538,12.63734,18.5419c-.10811.00031-.0859.00281-.13616-.06969-.13843-.19966-.27545-.40029-.413-.60057q-.62758-.91383-1.25512-1.82768-.31444-.458-.6286-.91623-.60186-.87584-1.20411-1.75142-.30747-.44735-.61453-.895l-.36066-.52521-.01153-.01681c-.01171-.0169-.02258-.01666-.036-.00064-.03276.039-.06676.077-.1.11565q-.33059.38443-.66112.76892-.306.35515-.61284.70963-.29433.34168-.58775.68416-.26757.31093-.53584.62128-.30259.35138-.60471.70316-.26251.3052-.52506.61039-.29727.34588-.59431.692-.23248.27053-.46524.54084-.26417.30716-.52824.61437-.2209.257-.4415.51421a.06928.06928,0,0,1-.0567.02837c-.00849-.00019-.017.00027-.02548.00027-.4044-.00018-.80881.00115-1.21319-.00176a1.7534,1.7534,0,0,1-.26927-.01542.18486.18486,0,0,1-.07584-.028.12013.12013,0,0,1-.03709-.16606.29626.29626,0,0,1,.03026-.04093q.20467-.23733.40977-.47429.23976-.27774.47919-.55575.23438-.27226.46834-.54489.269-.31305.538-.62612.26414-.30719.52845-.61419.26573-.30918.53109-.61863.23247-.27055.4652-.54089.26225-.30543.52408-.61121.229-.26682.45831-.53338.23565-.27453.471-.54927.23072-.26872.46173-.53717.26218-.30549.524-.61131l.51743-.60352c.02985-.03482.06017-.06925.08939-.1046.03132-.03789.03131-.03857.00445-.0784q-.07266-.10776-.14629-.21487Q6.35141,9.52708,5.70479,8.583q-.41773-.60966-.83614-1.21888-.59558-.8678-1.19135-1.73546-.44295-.64491-.88642-1.28947-.58734-.8549-1.17437-1.71Q1.21259,2.041.80877,1.45266.73232,1.34132.65546,1.23024a.34554.34554,0,0,1-.022-.03428A.11079.11079,0,0,1,.695,1.03374a.29322.29322,0,0,1,.08473-.01682C.84405,1.012.9085,1.00771.973,1.006,1.56069.99084,2.14856.99374,2.73639.99339Q3.99291.99267,5.24943.99305a1.11964,1.11964,0,0,1,.84461.36528,1.05853,1.05853,0,0,1,.10431.13175q.39072.56947.78114,1.13916Q7.575,3.4971,8.17087,4.36467q.46059.66988.92275,1.33869.51408.74445,1.02909,1.48824l.00286.00422c.03093.04356.03338.04345.06966.00206q.30733-.35064.61471-.70124.318-.365.634-.73175.30861-.35628.6172-.71259.27152-.31426.542-.62936.29937-.34744.59885-.69479.26589-.309.53114-.61859.26408-.30722.52853-.61411.26577-.30914.53118-.61856.23084-.2686.462-.53694c.08866-.103.1781-.2053.26583-.30906a.09915.09915,0,0,1,.08315-.03821q.864.00128,1.728.00071A.077.077,0,0,1,17.3812,1.00292ZM15.37558,17.23051c.00445-.01436-.00592-.02278-.01234-.03206q-.08125-.11732-.16316-.23419-.49221-.70382-.98445-1.40759-.39416-.564-.78773-1.12844-.45544-.65176-.91136-1.3032-.39557-.56615-.79053-1.1327-.502-.7187-1.00448-1.43711Q10.326,9.989,9.931,9.4225q-.50056-.71662-1.00153-1.433-.38679-.55362-.77325-1.10746Q7.61912,6.1133,7.08172,5.34469q-.43054-.61632-.86062-1.233-.59239-.84832-1.18421-1.697a.10789.10789,0,0,0-.10019-.05251q-.9252.00121-1.85042-.00066c-.01359,0-.0272-.00008-.04076.00071-.01782.001-.02553.00932-.0156.02651.00679.01174.01471.02285.0225.034q.1008.14409.20171.28809.34737.49722.69464.99451.46859.67056.93734,1.341.38242.54732.76461,1.09484.47579.68106.95171,1.362.35025.50143.70023,1.003.43776.62679.8757,1.25345.343.49093.686.98187.46138.66.92292,1.32.34458.49295.68889.98608.435.62253.87007,1.245.34449.493.68887.9861.46137.66006.923,1.32c.13727.19633.27507.39229.41116.58944a.10038.10038,0,0,0,.09208.04907q.93285-.00105,1.86572.00033C15.3433,17.23755,15.361,17.24256,15.37558,17.23051Z"/></svg>