<?xml version="1.0" encoding="utf-8"?>
<!-- Generator: Adobe Illustrator 23.0.5, SVG Export Plug-In . SVG Version: 6.00 Build 0)  -->
<svg version="1.1" id="Layer_1" xmlns="http://www.w3.org/2000/svg" xmlns:xlink="http://www.w3.org/1999/xlink" x="0px" y="0px"
	 viewBox="0 0 16 17" style="enable-background:new 0 0 16 17;" xml:space="preserve">
<style type="text/css">
	.st0{clip-path:url(#SVGID_2_);}
	.st1{fill:#313131;}
</style>
<g>
	<defs>
		<rect id="SVGID_1_" y="0.2" width="15.7" height="16"/>
	</defs>
	<clipPath id="SVGID_2_">
		<use xlink:href="#SVGID_1_"  style="overflow:visible;"/>
	</clipPath>
	<g class="st0">
		<path class="st1" d="M0,16.2c0.5-0.6,1.1-1.3,1.6-1.9c1.5-1.7,2.9-3.4,4.4-5.1c0,0,0,0,0.1-0.1c0,0,0-0.1,0-0.1C6.1,9,6,9,6,9
			c0,0,0,0,0-0.1C4,6.1,2.1,3.2,0.1,0.4C0.1,0.3,0,0.3,0,0.2c0-0.1,0.1,0,0.2,0c1.4,0,2.8,0,4.2,0c0.1,0,0.1,0,0.2,0
			c0.1,0,0.1,0.1,0.1,0.1C6.1,2.2,7.3,4,8.6,5.9C8.7,6,8.7,6,8.8,5.9C10.4,4,12,2.2,13.7,0.3c0,0,0.1-0.1,0.1-0.1c0,0,0.1,0,0.1,0
			c0.4,0,0.7,0,1.1,0c0,0,0.1,0,0.1,0c0,0.1,0,0.1-0.1,0.1c-1.2,1.4-2.3,2.7-3.5,4.1C10.8,5.2,10.1,6,9.4,6.9C9.3,6.9,9.4,7,9.4,7.1
			c1.2,1.8,2.5,3.6,3.7,5.3c0.9,1.2,1.7,2.5,2.6,3.7H11c0-0.1-0.1-0.1-0.1-0.2c-0.7-1.1-1.5-2.1-2.2-3.2C8,11.9,7.4,11,6.8,10.1
			c-0.1-0.1-0.1-0.1-0.2,0c-0.2,0.2-0.4,0.4-0.6,0.7c-1.3,1.5-2.5,2.9-3.8,4.4c-0.3,0.3-0.6,0.7-0.9,1H0z M12.7,15.2
			c0.3,0,0.6,0,0.9,0c0,0,0.1,0,0.1,0c0-0.1,0-0.1-0.1-0.1c-3.2-4.5-6.3-9.1-9.5-13.6c0,0-0.1-0.1-0.1-0.1c0,0-0.1,0-0.2,0
			c-0.6,0-1.1,0-1.7,0c-0.1,0-0.1,0-0.2,0c0,0.1,0,0.1,0.1,0.2c2.1,3,4.2,6.1,6.4,9.1c1,1.5,2.1,3,3.1,4.5c0,0,0.1,0.1,0.1,0.1
			c0,0,0.1,0,0.1,0C12.1,15.2,12.4,15.2,12.7,15.2z"/>
	</g>
</g>
</svg>
