<?xml version="1.0" encoding="utf-8"?>
<!-- Generator: Adobe Illustrator 23.0.5, SVG Export Plug-In . SVG Version: 6.00 Build 0)  -->
<svg version="1.1" id="Layer_1" xmlns="http://www.w3.org/2000/svg" xmlns:xlink="http://www.w3.org/1999/xlink" x="0px" y="0px"
	 viewBox="0 0 16 17" style="enable-background:new 0 0 16 17;" xml:space="preserve">
<style type="text/css">
	.st0{fill:#313131;}
</style>
<path class="st0" d="M12.7,3.2c1.3,1.3,2.1,3,2.1,4.9c0,3.8-3.2,6.9-7,6.9c-1.2,0-2.3-0.3-3.3-0.8l-3.7,0.9l1-3.6
	c-0.6-1-0.9-2.2-0.9-3.5c0-3.8,3.1-6.9,6.9-6.9C9.7,1.2,11.5,1.9,12.7,3.2z M7.8,13.9c3.2,0,5.8-2.6,5.8-5.7c0-1.6-0.7-3-1.8-4.1
	c-1.1-1.1-2.5-1.7-4.1-1.7c-3.2,0-5.8,2.6-5.8,5.8c0,1.1,0.3,2.2,0.9,3.1l0.2,0.2l-0.6,2.1l2.2-0.6l0.2,0.1
	C5.8,13.6,6.8,13.9,7.8,13.9z M11,9.6c0.2,0.1,0.3,0.1,0.3,0.2c0.1,0.1,0.1,0.4-0.1,0.8c-0.2,0.4-0.8,0.8-1.2,0.8
	c-0.6,0.1-1,0.1-2.1-0.4c-1.8-0.8-2.9-2.5-3-2.6C4.9,8.3,4.3,7.4,4.3,6.6c0-0.8,0.4-1.3,0.6-1.4s0.3-0.2,0.5-0.2c0.1,0,0.2,0,0.3,0
	c0.1,0,0.3,0,0.4,0.3c0.1,0.3,0.5,1.2,0.5,1.3s0.1,0.2,0,0.3C6.3,7.5,6,7.4,6.1,7.8c0.7,1.2,1.3,1.6,2.4,2.1c0.2,0.1,0.3,0.1,0.4,0
	C9,9.7,9.3,9.3,9.4,9.1C9.6,8.9,9.7,8.9,9.8,9S10.8,9.5,11,9.6z"/>
</svg>
