<svg id="Layer_1" data-name="Layer 1" xmlns="http://www.w3.org/2000/svg" viewBox="0 0 20 19"><defs><style>.cls-1,.cls-2{fill:#2d2d2d;}.cls-1{fill-rule:evenodd;}</style></defs><title>what&amp;apos;sapp</title><path class="cls-1" d="M8.6445,6.07454c-.16633-.44231-.35844-.41074-.48633-.41559s-.24008-.00238-.413.00043a.84132.84132,0,0,0-.595.25051A2.43424,2.43424,0,0,0,6.31407,7.696a4.21306,4.21306,0,0,0,.81051,2.2834A8.96309,8.96309,0,0,0,10.7464,13.404c2.1965.9542,2.208.6634,2.611.642a2.2187,2.2187,0,0,0,1.5194-.9794,1.804,1.804,0,0,0,.1669-1.0296c-.0514-.0926-.1953-.1528-.4106-.2695-.2154-.117-1.2732-.6835-1.4716-.7637-.1984-.0798-.3432-.1214-.4977.091-.1546.2118-.5934.6863-.7264.8268-.1336.1407-.2622.1537-.4776.0364a5.9967,5.9967,0,0,1-1.72257-1.1452A6.57451,6.57451,0,0,1,8.574,9.26059c-.11988-.22253-.00078-.33609.11328-.44019.10227-.094.22879-.24613.34344-.3691a1.4919,1.4919,0,0,0,.23285-.35481.39793.39793,0,0,0-.004-.38168C9.20868,7.604,8.81075,6.51684,8.6445,6.07454Z"/><path class="cls-2" d="M10.604,2.55469a7.32678,7.32678,0,0,1,5.1946,2.13406,7.22815,7.22815,0,0,1,0,10.28105,7.32663,7.32663,0,0,1-5.1946,2.1343,7.4011,7.4011,0,0,1-3.551-.9063l-.46941-.2575-.51028.162-2.40047.7626.75684-2.2324.18742-.5527-.30355-.4986A7.22709,7.22709,0,0,1,5.4098,4.68871,7.3263,7.3263,0,0,1,10.604,2.55469Zm0-1.25A8.558,8.558,0,0,0,2.013,9.82937,8.43656,8.43656,0,0,0,3.24582,14.2312L1.69531,18.8047l4.75641-1.511A8.60556,8.60556,0,0,0,19.1953,9.82937,8.558,8.558,0,0,0,10.604,1.30469Z"/></svg>