<?xml version="1.0" encoding="utf-8"?>
<!-- Generator: Adobe Illustrator 18.1.1, SVG Export Plug-In . SVG Version: 6.00 Build 0)  -->
<svg version="1.1" id="Layer_1" xmlns="http://www.w3.org/2000/svg" xmlns:xlink="http://www.w3.org/1999/xlink" x="0px" y="0px"
	 viewBox="0 0 300 300" enable-background="new 0 0 300 300" xml:space="preserve">
<path fill="#EBEBEB" d="M268.9,218.5c-0.1-3.9-1.6-7.6-4.2-10.4C263.4,213.3,268.9,218.5,268.9,218.5z"/>
<path fill="#EBEBEB" d="M262.8,215.5c-3.6-1.5-7.6-1.6-11.2-0.3C255.9,218.5,262.8,215.5,262.8,215.5z"/>
<path fill="#EBEBEB" d="M262.1,212.2c0.6-3,0-6.1-1.5-8.7C258.8,207.3,262.1,212.2,262.1,212.2z"/>
<path fill="#EBEBEB" d="M285.6,200c-8.9,2.4-13.6,10.1-13.6,10.1C279.6,210.1,285.6,200,285.6,200z"/>
<path fill="#EBEBEB" d="M271.4,203.6c0.4-9.6-8.9-20.4-8.9-20.4C263.9,195.1,271.4,203.6,271.4,203.6z"/>
<path fill="#EBEBEB" d="M271.5,176.4c-0.2,4.8,1,9.5,3.4,13.7C276.2,183.9,271.5,176.4,271.5,176.4z"/>
<path fill="#EBEBEB" d="M275.1,195.8c7-0.7,10.8-7.7,10.8-7.7C277.4,190.5,275.1,195.8,275.1,195.8z"/>
<path fill="#EBEBEB" d="M290.2,225.1c-3.3-2-7.2-2.8-11-2.1C282.9,226.8,290.2,225.1,290.2,225.1z"/>
<path fill="#EBEBEB" d="M272,228.2c0.9,2.3,2.6,4.1,4.7,5.3C276.4,230.3,272,228.2,272,228.2z"/>
<path fill="#EBEBEB" d="M272.9,227.2c4,2.5,8.4,1.5,8.4,1.5C278.6,225.9,272.9,227.2,272.9,227.2z"/>
<path fill="#E0E1E0" d="M269.4,240.1c0,0,0,0,0-0.1c0-0.1,0-0.2,0-0.4v-1.6c0-0.7,0-1.5,0-2.5s0-2.1,0.1-3.4
	c0.1-2.5,0.2-5.5,0.5-8.7c0.3-3.3,0.7-6.9,1.2-10.6c1.1-7.5,2.6-14.2,3.8-19.1c0.6-2.4,1.1-4.4,1.5-5.7c0.2-0.6,0.3-1.2,0.4-1.5
	l0.1-0.4c0,0,0-0.1,0-0.1c0,0,0,0.1-0.1,0.1l-0.1,0.4c-0.1,0.4-0.3,0.9-0.5,1.5c-0.4,1.3-1,3.3-1.6,5.7c-1.7,6.3-3,12.6-3.9,19.1
	c-0.5,3.8-0.9,7.4-1.2,10.7c-0.3,3.3-0.4,6.3-0.4,8.8c0,1.2,0,2.4,0,3.4c0,1,0,1.8,0,2.5c0,0.7,0,1.2,0.1,1.6
	C269.3,239.7,269.3,239.9,269.4,240.1C269.3,240,269.3,240,269.4,240.1z"/>
<path fill="#E0E1E0" d="M282.2,219.8c0-0.1-2.9,1.8-6.3,4.1c-3.4,2.4-6.2,4.3-6.1,4.4c0.1,0.1,2.9-1.8,6.3-4.1
	C279.5,221.8,282.3,219.9,282.2,219.8z"/>
<path fill="#E0E1E0" d="M269.8,220.8c-0.1-0.2-0.3-0.3-0.4-0.5l-1.3-1.2l-4.2-3.9c-1.6-1.5-3.1-2.9-4.2-3.9l-1.3-1.2
	c-0.1-0.2-0.3-0.3-0.5-0.4c0.1,0.2,0.3,0.3,0.4,0.5c0.3,0.3,0.7,0.7,1.2,1.3c1,1.1,2.5,2.5,4.1,4c1.6,1.5,3.2,2.9,4.3,3.9
	c0.6,0.5,1,0.9,1.3,1.1C269.4,220.6,269.6,220.7,269.8,220.8z"/>
<path fill="#EBEBEB" d="M291.2,215.3c0,0-7.2-0.1-10.3,5.6c2-0.1,4-0.6,5.8-1.6C288.5,218.3,290,216.9,291.2,215.3z"/>
<path fill="#EBEBEB" d="M281.3,212.4c0,0-5.9,4.2-5,10.6c1.6-1.3,2.9-2.9,3.7-4.7C281,216.4,281.4,214.4,281.3,212.4z"/>
<path fill="#EBEBEB" d="M250.3,202c0,0,2.3,8.1,9.7,9.5c-0.8-2.2-2-4.3-3.7-5.9C254.6,204,252.5,202.7,250.3,202z"/>
<path fill="#EBEBEB" d="M284.5,171.9c0,0-9.2,6-8.2,15.8c2.5-1.8,4.6-4.2,6-6.9C283.7,178,284.5,175,284.5,171.9z"/>
<path fill="#E0E1E0" d="M253.8,225.4c0.2,0.2,0.4,0.3,0.6,0.5c0.4,0.3,1,0.7,1.7,1.3c3.6,2.8,6.7,6.3,9.1,10.2
	c0.5,0.7,0.8,1.4,1.1,1.8c0.1,0.2,0.3,0.4,0.4,0.6c-0.1-0.2-0.2-0.5-0.3-0.7c-0.2-0.4-0.6-1.1-1-1.8c-2.4-4-5.5-7.4-9.2-10.2
	c-0.7-0.5-1.3-0.9-1.7-1.2C254.3,225.7,254.1,225.6,253.8,225.4z"/>
<path fill="#EBEBEB" d="M261.8,231.5c0.7-3.8-0.1-7.7-2.1-11C258.7,227.3,261.8,231.5,261.8,231.5z"/>
<path fill="#EBEBEB" d="M255.6,228.1c-2.4-1.4-5.3-1.8-8.1-1.2C252,229.2,255.6,228.1,255.6,228.1z"/>
<path fill="#EBEBEB" d="M282.8,240.8l-3.5,22.8h-20.1l-4.7-22.4L282.8,240.8z"/>
<path fill="#FAFAFA" d="M257.4,255.4c0,0.1,5.2,0.1,11.5,0.1c6.4,0,11.5-0.1,11.5-0.1s-5.2-0.1-11.5-0.1
	C262.5,255.3,257.4,255.3,257.4,255.4z"/>
<path fill="#FAFAFA" d="M257.3,254.3c0,0.1,5.2,0.1,11.6,0.1c6.4,0,11.6-0.1,11.6-0.1c0-0.1-5.2-0.1-11.6-0.1
	C262.5,254.2,257.3,254.2,257.3,254.3z"/>
<path fill="#FAFAFA" d="M257.3,253c0,0.1,5.2,0.1,11.6,0.1c6.4,0,11.6-0.1,11.6-0.1s-5.2-0.1-11.6-0.1
	C262.5,252.9,257.3,252.9,257.3,253z"/>
<path fill="#FAFAFA" d="M277,262.3c0.3-0.9,0.5-1.9,0.6-2.9c0.2-1,0.3-1.9,0.4-2.9c-0.3,0.9-0.5,1.9-0.6,2.9
	C277.2,260.3,277.1,261.3,277,262.3z"/>
<path fill="#FAFAFA" d="M275.7,262c0.1-0.9,0.2-1.9,0.2-2.8c0.1-0.9,0.1-1.9,0.1-2.8C275.7,258.3,275.6,260.2,275.7,262z"/>
<path fill="#FAFAFA" d="M273.2,262c0.3-0.9,0.5-1.9,0.5-2.9c0.2-1,0.2-1.9,0.2-2.9c-0.2,1-0.3,1.9-0.4,2.9
	C273.3,260.1,273.2,261.1,273.2,262z"/>
<path fill="#FAFAFA" d="M271.4,262.1c0.3-1.9,0.4-3.9,0.2-5.8c-0.1,1-0.2,1.9-0.1,2.9C271.4,260.2,271.4,261.2,271.4,262.1z"/>
<path fill="#FAFAFA" d="M268.3,262c0.2-1.8,0.3-3.7,0.2-5.5c-0.1,0.9-0.2,1.8-0.2,2.8C268.2,260.2,268.3,261.1,268.3,262z"/>
<path fill="#FAFAFA" d="M266.1,262.1c0.1-1.9,0.1-3.8,0-5.7C265.9,258.3,265.9,260.3,266.1,262.1z"/>
<path fill="#FAFAFA" d="M263.9,261.8c0-1,0-2-0.2-3c-0.1-1-0.2-2-0.4-3c0,1,0,2,0.2,3C263.6,259.9,263.7,260.9,263.9,261.8z"/>
<path fill="#FAFAFA" d="M261.2,261.5c0-0.9-0.1-1.7-0.3-2.5c-0.1-0.8-0.4-1.7-0.7-2.4c0.1,0.8,0.3,1.7,0.5,2.5
	C260.8,259.9,261,260.7,261.2,261.5z"/>
<path fill="#EBEBEB" d="M285.1,236.3v4.3c0,0.2,0,0.4-0.1,0.6c-0.1,0.2-0.2,0.4-0.4,0.5c-0.2,0.2-0.3,0.3-0.5,0.4
	c-0.2,0.1-0.4,0.1-0.6,0.1h-29.1c-0.4,0-0.9-0.2-1.2-0.5c-0.3-0.3-0.5-0.7-0.5-1.2v-4.3H285.1z"/>
<path fill="#E0E1E0" d="M282.6,242.2l-0.2,1.4l-26.9,1.9l-0.7-3.3H282.6z"/>
<path fill="#E0E1E0" d="M73.4,48.9H33.5v57.8h39.9V48.9z"/>
<path fill="#F5F6F6" d="M71.4,48.9H31.5v57.8h39.9V48.9z"/>
<path fill="#FFFFFF" d="M66.4,55.2h-30v45.3h30V55.2z"/>
<path fill="#E0E1E0" d="M66.4,100.5c0,0,0-0.1,0-0.2s0-0.4,0-0.6c0-0.6,0-1.4,0-2.5c0-2.2,0-5.3,0-9.3c0-8,0-19.3-0.1-32.6l0.1,0.1
	h-30l0.1-0.1c0,17.1,0,32.9,0,45.3l-0.1-0.1l21.8,0l6,0h1.6L66.4,100.5c0,0-0.1,0-0.5,0h-1.6l-6,0l-21.9,0h-0.1v-0.1
	c0-12.5,0-28.2,0-45.3V55h0.1h30h0.1v0.1c0,13.3,0,24.7,0,32.7c0,4,0,7.1,0,9.3c0,1.1,0,1.9,0,2.5c0,0.3,0,0.5,0,0.6
	C66.4,100.4,66.4,100.5,66.4,100.5z"/>
<path fill="#E0E1E0" d="M71.5,48.9c-0.2,0.4-0.4,0.7-0.7,1c-0.5,0.6-1.1,1.5-1.9,2.4c-0.7,0.9-1.5,1.7-2,2.3
	c-0.3,0.3-0.6,0.6-0.9,0.9c0.2-0.4,0.5-0.7,0.8-1l1.9-2.3l1.9-2.3C70.9,49.5,71.2,49.2,71.5,48.9z"/>
<path fill="#FFFFFF" d="M66.6,100.3c1.5,2.4,3.2,4.6,5.2,6.5L66.6,100.3z"/>
<path fill="#E0E1E0" d="M71.8,106.9c-0.3-0.2-0.6-0.5-0.9-0.8c-1.4-1.4-2.6-3-3.7-4.6c-0.2-0.3-0.4-0.7-0.6-1.1
	c0.3,0.3,0.5,0.6,0.7,1c0.4,0.6,1.1,1.5,1.8,2.4c0.7,0.9,1.4,1.7,1.9,2.3C71.3,106.2,71.6,106.5,71.8,106.9z"/>
<path fill="#FFFFFF" d="M31.5,106.7c1.8-2.2,3.5-4.3,5.2-6.4L31.5,106.7z"/>
<path fill="#E0E1E0" d="M36.7,100.3c-0.8,1.1-1.6,2.2-2.5,3.3c-0.8,1.1-1.7,2.2-2.7,3.2c0.8-1.1,1.6-2.2,2.5-3.3
	C34.8,102.3,35.7,101.3,36.7,100.3z"/>
<path fill="#E0E1E0" d="M31.5,48.9c0.9,1,1.7,2,2.5,3c0.8,1,1.6,2.1,2.4,3.2c-0.9-1-1.7-2-2.5-3C33,51.1,32.2,50,31.5,48.9z"/>
<path fill="#E0E1E0" d="M57.1,64.4H47v28.5h10V64.4z"/>
<path fill="#EBEBEB" d="M244.3,20.2h-38v38h38V20.2z"/>
<path fill="#FFFFFF" d="M243.2,21.3h-35.8v35.8h35.8V21.3z"/>
<path fill="#E0E1E0" d="M230.5,34.1h-10.3v10.3h10.3V34.1z"/>
<path fill="#273238" d="M293.5,263.6c0,0.1-64.7,0.1-144.6,0.1S4.3,263.6,4.3,263.6s64.7-0.1,144.6-0.1S293.5,263.5,293.5,263.6z"/>
<path fill="#465B65" d="M69.9,188.6l19.6,75h6.3l-19.2-75.4L69.9,188.6z"/>
<path fill="#465B65" d="M44.2,263.6l10.4-70.6l6,0.2l-8.9,70.5H44.2z"/>
<path fill="#465B65" d="M42.3,198.5L20,263.6h7.2l19.4-59L42.3,198.5z"/>
<path fill="#E11F26" d="M85.3,176.3c7.6,22.5,4.4,43.9-10.4,48.9c-14.8,5-35.4-8.2-43.1-30.8c-7.7-22.5-1.9-44.9,12.9-49.9
	C59.5,139.6,77.7,153.8,85.3,176.3z"/>
<g opacity="0.3">
	<path fill="#010101" d="M85.3,176.3c7.6,22.5,4.4,43.9-10.4,48.9c-14.8,5-35.4-8.2-43.1-30.8c-7.7-22.5-1.9-44.9,12.9-49.9
		C59.5,139.6,77.7,153.8,85.3,176.3z"/>
</g>
<path fill="#E11F26" d="M78.4,223.6c14.8-5,20.6-27.2,13-49.5c-7.6-22.3-25.7-36.3-40.4-31.3c-14.8,5-20.6,27.2-13,49.5
	C45.6,214.6,63.7,228.6,78.4,223.6z"/>
<path fill="#FAFAFA" d="M77.1,216.6c11.9-4,16.4-22.6,10-41.4S65.9,144.5,54,148.5c-11.9,4-16.4,22.6-10,41.4
	C50.4,208.7,65.2,220.7,77.1,216.6z"/>
<path fill="#E11F26" d="M75.6,210c9.3-3.1,12.6-18,7.4-33.2c-5.2-15.2-16.8-25-26.1-21.8c-9.3,3.1-12.6,18-7.4,33.2
	C54.6,203.4,66.3,213.2,75.6,210z"/>
<path fill="#FAFAFA" d="M73,199.4c6.3-2.1,8.5-12,5.1-22.2c-3.4-10.1-11.3-16.6-17.5-14.5c-6.3,2.1-8.5,12-5.1,22.2
	C58.9,195.1,66.7,201.6,73,199.4z"/>
<path fill="#E11F26" d="M73.1,179.3c2,5.9,0.9,11.6-2.4,12.8c-3.3,1.1-7.7-2.7-9.7-8.7c-2-5.9-0.9-11.6,2.4-12.8
	C66.8,169.5,71.1,173.3,73.1,179.3z"/>
<path fill="#273238" d="M91.5,174.1c0,0-0.1-0.2-0.2-0.5c-0.1-0.4-0.3-0.9-0.6-1.6c-0.6-1.4-1.4-3.5-2.6-6c-1.6-3.1-3.4-6-5.5-8.8
	c-2.7-3.7-6-6.9-9.7-9.6c-2.1-1.6-4.5-2.9-6.9-3.9c-0.6-0.3-1.3-0.5-2-0.7l-1-0.3c-0.3-0.1-0.7-0.2-1-0.3c-1.4-0.3-2.9-0.5-4.4-0.5
	c-0.4,0-0.7,0-1.1,0l-1.1,0.1c-0.8,0.1-1.5,0.2-2.3,0.4c-1.5,0.3-3,0.9-4.4,1.6c-2.9,1.5-5.4,3.7-7.4,6.3c-2,2.8-3.6,5.9-4.6,9.2
	c-0.5,1.7-0.9,3.4-1.2,5.2c-0.3,1.8-0.5,3.6-0.6,5.4c-0.6,15.2,4.5,30.2,14.2,41.9c1.2,1.4,2.4,2.7,3.8,3.9c1.3,1.2,2.7,2.3,4.1,3.4
	c2.8,2,5.9,3.5,9.2,4.5c3.1,0.9,6.5,1.1,9.7,0.5c1.5-0.3,3-0.8,4.4-1.4c0.7-0.3,1.4-0.7,2-1.1l0.9-0.6c0.3-0.2,0.6-0.4,0.9-0.7
	c1.2-0.9,2.2-1.9,3.1-3.1c0.2-0.3,0.5-0.5,0.7-0.8l0.6-0.9c0.4-0.6,0.8-1.2,1.1-1.8c1.3-2.3,2.4-4.7,3.1-7.3c1.3-4.4,1.9-9,1.8-13.5
	c0-3.5-0.4-6.9-1-10.3c-0.5-2.8-1.1-4.9-1.5-6.4l-0.5-1.6C91.5,174.3,91.5,174.1,91.5,174.1c0,0,0,0.2,0.2,0.5
	c0.1,0.4,0.3,0.9,0.5,1.6c0.4,1.4,1,3.6,1.6,6.4c0.7,3.4,1,6.9,1.1,10.3c0.1,4.6-0.5,9.2-1.8,13.6c-0.7,2.6-1.8,5.1-3.2,7.4
	c-0.3,0.6-0.7,1.2-1.1,1.8l-0.6,0.9c-0.2,0.3-0.4,0.6-0.7,0.8c-0.9,1.1-2,2.2-3.2,3.1c-0.3,0.2-0.6,0.5-0.9,0.7
	c-0.3,0.2-0.6,0.4-0.9,0.6c-0.7,0.4-1.3,0.8-2,1.1c-1.4,0.7-2.9,1.2-4.5,1.5c-3.3,0.6-6.6,0.4-9.8-0.5c-3.3-1-6.5-2.5-9.3-4.6
	c-1.5-1-2.8-2.2-4.2-3.4c-1.3-1.2-2.6-2.6-3.8-3.9c-9.8-11.8-14.9-26.8-14.3-42.1c0.1-1.8,0.3-3.6,0.6-5.4c0.3-1.8,0.7-3.5,1.2-5.2
	c1-3.3,2.6-6.4,4.6-9.2c1.9-2.7,4.5-4.9,7.4-6.4c1.4-0.7,2.9-1.2,4.5-1.6c0.8-0.2,1.5-0.3,2.3-0.4l1.1-0.1c0.4,0,0.8,0,1.1,0
	c1.5,0,2.9,0.2,4.4,0.5c0.4,0.1,0.7,0.2,1.1,0.3l1,0.3c0.7,0.2,1.3,0.4,2,0.7c2.5,1,4.8,2.3,7,3.9c3.7,2.7,7,6,9.7,9.7
	c2.1,2.8,3.9,5.7,5.4,8.8c1.3,2.6,2.1,4.6,2.6,6c0.2,0.7,0.4,1.2,0.6,1.6C91.4,173.9,91.5,174.1,91.5,174.1z"/>
<g opacity="0.3">
	<path fill="#010101" d="M90.3,176.4l-15.5,4l19.9,13.7c0,0-0.3-10.1-1.9-16L90.3,176.4z"/>
</g>
<g opacity="0.3">
	<path fill="#010101" d="M37.7,212.1l4.6,5.9l1.3-3.9l-4.6-5.6L37.7,212.1z"/>
</g>
<g opacity="0.3">
	<path fill="#010101" d="M50.3,222.8c0,0,2.5,3,6.2,3l0.3-2.2c-2.1-1-4.2-2.1-6.1-3.5L50.3,222.8z"/>
</g>
<g opacity="0.3">
	<path fill="#010101" d="M79.8,226.3l-0.8-2.9c0,0,4.1-1.5,5.8-3.4l0.8,3.2C85.6,223.1,82.8,226,79.8,226.3z"/>
</g>
<path fill="#BB8F86" d="M225.3,235.9l13.4,9l4.2-5.6l-12.5-11.1L225.3,235.9z"/>
<path fill="#E11F26" d="M236.9,243.8l0.4,0.3c0,0-2.3,8.2-1.2,9.1l9.5-12.4l-4.2-3c-0.3,1.3-0.8,2.4-1.6,3.5
	C239,242.3,238,243.2,236.9,243.8z"/>
<path fill="#FFFFFF" d="M241.7,240.1c0.1-0.1,0.3-0.1,0.4-0.1c0.2,0,0.3,0.1,0.4,0.2c0.1,0.1,0.1,0.3,0.1,0.4c0,0.2-0.1,0.3-0.2,0.4
	c-0.1,0.1-0.3,0.1-0.5,0.1c-0.2,0-0.3-0.1-0.4-0.2c-0.1-0.1-0.1-0.3-0.1-0.5C241.5,240.3,241.6,240.1,241.7,240.1"/>
<path fill="#273238" d="M245.6,240.8l-1-0.7l-8.7,12.2c0,0-0.2,0.7,0.3,1L245.6,240.8z"/>
<path fill="#273238" d="M237.3,244.1c0.1,0,0.3-0.2,0.7-0.4s0.8-0.1,0.8-0.2c0-0.1-0.4-0.2-0.9-0.1
	C237.4,243.7,237.2,244.1,237.3,244.1z"/>
<path fill="#273238" d="M236.8,245.8c0,0.1,0.4-0.1,0.8-0.1c0.4,0,0.7,0.1,0.8,0.1c0-0.1-0.3-0.4-0.8-0.3
	C237.1,245.5,236.8,245.8,236.8,245.8z"/>
<path fill="#273238" d="M237.8,247.8c0.1,0-0.2-0.4-0.6-0.4c-0.4-0.1-0.8,0.1-0.8,0.1s0.3,0,0.7,0.1
	C237.5,247.7,237.8,247.8,237.8,247.8z"/>
<path fill="#BB8F86" d="M185.7,243.3l-1.1,16l6.9,0.9l3.3-16.4L185.7,243.3z"/>
<path fill="#E11F26" d="M184.7,257.2l-0.1,0.5c0,0-8.2,2.1-8.5,3.6l15.5,2l0.4-5.2c-1.2,0.4-2.5,0.5-3.8,0.4
	C187,258.3,185.8,257.8,184.7,257.2z"/>
<path fill="#FFFFFF" d="M190.3,259.5c0.1,0.1,0.3,0.2,0.3,0.3c0.1,0.1,0.1,0.3,0,0.5c-0.1,0.1-0.2,0.3-0.3,0.3
	c-0.1,0.1-0.3,0.1-0.5,0c-0.2-0.1-0.3-0.2-0.3-0.3c-0.1-0.2-0.1-0.3,0-0.5c0.1-0.1,0.2-0.3,0.4-0.3
	C190,259.4,190.2,259.4,190.3,259.5"/>
<path fill="#273238" d="M191.6,263.2l0.1-1.2l-14.9-1.5c0,0-0.7,0.2-0.7,0.7L191.6,263.2z"/>
<path fill="#273238" d="M184.5,257.7c0,0.1,0.4,0.2,0.7,0.4c0.3,0.3,0.5,0.6,0.6,0.6c0.1,0,0-0.5-0.4-0.8
	C185,257.6,184.5,257.6,184.5,257.7z"/>
<path fill="#273238" d="M182.8,258.1c0,0.1,0.3,0.2,0.5,0.6c0.2,0.4,0.2,0.7,0.3,0.7c0.1,0,0.2-0.4-0.1-0.9S182.8,258.1,182.8,258.1
	z"/>
<path fill="#273238" d="M181.7,260c0.1,0,0.2-0.3,0.1-0.8c-0.1-0.4-0.5-0.7-0.5-0.6c0,0.1,0.1,0.3,0.3,0.7
	C181.6,259.6,181.6,260,181.7,260z"/>
<path fill="#273238" d="M216,110.8c0.2-1.2,1.3-2.1,2.4-2.4c1.2-0.2,2.4-0.1,3.5,0.4c1.3,0.4,2.5,1.2,3.4,2.1
	c0.5,0.5,0.8,1.1,1.1,1.7c0.2,0.6,0.4,1.3,0.4,2c-0.1,1.3-0.7,2.5-0.3,3.8c0.3,0.9,1,1.6,1.8,2.2c0.8,0.6,1.6,1.1,2.2,1.9
	c0.5,0.8,0.6,2-0.1,2.6c-0.6,0.6-1.8,0.6-2,1.5c-0.2,0.5,0.1,1,0.3,1.5c0.1,0.5,0.2,1.1,0.1,1.7c-0.1,0.6-0.3,1.1-0.6,1.6
	c-0.6,0.9-1.5,1.7-2.5,2.2c-1.7,1-3.9,1.4-5.7,0.6c-0.9-0.4-1.7-1-2.2-1.8c-0.9-1.4-1.4-2.9-1.5-4.6c0-1.6,0.1-3.2,0.3-4.9"/>
<path fill="#273238" d="M215.4,130c0.7,0.2,1.5,0.2,2.3,0.1c0.8-0.2,1.5-0.5,2.1-1s1.1-1.1,1.4-1.8c0.3-0.7,0.5-1.5,0.5-2.2
	c0-1.4-0.7-2.9-0.2-4.3c0.3-0.9,1.1-1.7,1.4-2.6c0.4-1.4-0.5-2.9-1.3-4.1c-0.5-0.8-1.1-1.6-1.8-2.2c-0.4-0.3-0.8-0.5-1.2-0.7
	c-0.5-0.1-0.9-0.2-1.4-0.1"/>
<path fill="#273238" d="M202.1,111.2c0.1,1.1-0.6,2.1-1.4,2.9s-1.5,1.7-1.7,2.8c-0.3,1.9,1.6,3.7,1.2,5.6c-0.2,1-1,1.8-1.2,2.9
	c-0.1,1,0.4,2,1.1,2.7c0.7,0.8,1.5,1.4,2.1,2.2c0,0,1.2,2,5,0.7"/>
<path fill="#273238" d="M217,109.9c0-1-0.9-1.8-1.8-2.1s-1.9-0.5-2.8-1.1c-0.7-0.5-1.2-1.3-1.8-1.9c-0.8-0.8-1.7-1.3-2.8-1.6
	c-1-0.3-2.1-0.3-3.2,0c-1,0.3-2,0.8-2.7,1.6c-0.8,0.8-1.3,1.7-1.6,2.8c-0.4,1.4-0.1,3.1,1,4c1.3,1.1,3.2,0.8,4.9,0.5
	c1.7-0.3,3.5-0.7,4.9,0.3c0.8,0.6,1.3,1.5,1.8,2.4c0.5,0.9,1.1,1.8,2.1,2.1c1,0.3,2.3-0.2,2.3-1.3"/>
<path fill="#BB8F86" d="M214.9,113.1c0.4,0,0.8,0.2,1.1,0.6c0.3,0.3,0.4,0.7,0.4,1.1l-1,22.3c0,2.6-3.9,4.1-6.7,4.1
	c-2.9-0.1-2.9-1.5-3-4c-0.1-4.2-0.1-5.8-0.1-5.7c0,0-3.6-0.6-4.3-5.3c-0.4-2.3-0.2-6.2,0-9.3c0.2-2.8,2.1-6.3,4.9-6L214.9,113.1z"/>
<path fill="#273238" d="M202.1,120c0,0.2,0.1,0.3,0.2,0.4c0.1,0.1,0.3,0.2,0.4,0.2c0.1,0,0.2,0,0.2,0c0.1,0,0.1-0.1,0.2-0.1
	s0.1-0.1,0.1-0.2c0-0.1,0.1-0.1,0.1-0.2c0-0.2-0.1-0.3-0.2-0.4c-0.1-0.1-0.3-0.2-0.4-0.2c-0.1,0-0.2,0-0.2,0c-0.1,0-0.1,0.1-0.2,0.1
	c-0.1,0.1-0.1,0.1-0.1,0.2C202.1,119.8,202.1,119.9,202.1,120z"/>
<path fill="#273238" d="M202,118.4c0.1,0.1,0.5-0.3,1.2-0.3s1.1,0.3,1.2,0.2c0.1-0.1,0-0.2-0.2-0.3c-0.3-0.2-0.6-0.3-1-0.3
	c-0.3,0-0.7,0.1-0.9,0.3C202,118.2,201.9,118.3,202,118.4z"/>
<path fill="#273238" d="M208.1,120.1c0,0.2,0.1,0.3,0.2,0.4s0.3,0.2,0.4,0.2c0.1,0,0.2,0,0.2,0c0.1,0,0.1-0.1,0.2-0.1
	c0.1-0.1,0.1-0.1,0.1-0.2c0-0.1,0.1-0.1,0.1-0.2c0-0.2-0.1-0.3-0.2-0.4c-0.1-0.1-0.3-0.2-0.4-0.2c-0.1,0-0.2,0-0.2,0
	s-0.1,0.1-0.2,0.1c-0.1,0.1-0.1,0.1-0.1,0.2C208.2,119.9,208.1,120,208.1,120.1z"/>
<path fill="#273238" d="M208.5,118.7c0.1,0.1,0.5-0.3,1.2-0.3c0.6,0,1.1,0.3,1.2,0.2c0.1-0.1,0-0.2-0.2-0.3c-0.3-0.2-0.6-0.3-1-0.3
	c-0.3,0-0.7,0.1-0.9,0.3C208.5,118.5,208.5,118.6,208.5,118.7z"/>
<path fill="#273238" d="M206.1,123.8c-0.3-0.1-0.7-0.2-1.1-0.2c-0.2,0-0.3-0.1-0.4-0.2c0-0.2,0-0.3,0.1-0.5c0.2-0.4,0.3-0.8,0.5-1.3
	c0.7-1.8,1.2-3.3,1.1-3.3c-0.1,0-0.7,1.4-1.4,3.2c-0.2,0.4-0.3,0.9-0.5,1.3c-0.1,0.2-0.1,0.4-0.1,0.6c0,0.1,0.1,0.1,0.1,0.2
	s0.1,0.1,0.2,0.1c0.1,0,0.2,0,0.3,0C205.4,123.8,205.8,123.9,206.1,123.8z"/>
<path fill="#80483E" d="M205.7,131.5c2.2,0,4.4-0.5,6.3-1.7c0,0-1.6,3.2-6.3,2.8L205.7,131.5z"/>
<path fill="#273238" d="M208.2,117.1c0.1,0.2,0.7,0.1,1.5,0.2c0.8,0.1,1.4,0.3,1.5,0.1c0-0.1-0.1-0.2-0.3-0.4
	c-0.3-0.2-0.7-0.3-1.1-0.4c-0.4,0-0.8,0-1.2,0.1C208.3,116.9,208.2,117,208.2,117.1z"/>
<path fill="#273238" d="M202.1,116.9c0.1,0.1,0.6,0,1.2,0c0.6,0,1.1,0.1,1.2-0.1c0.1-0.1,0-0.2-0.3-0.4c-0.3-0.2-0.7-0.3-1-0.2
	c-0.4,0-0.7,0.1-1,0.3C202.1,116.7,202,116.8,202.1,116.9z"/>
<path fill="#273238" d="M218.2,128.6c-0.7,0.1-1.3,0.1-2-0.1c-0.6-0.2-1.2-0.5-1.7-1c-0.5-0.5-0.9-1-1.1-1.6c-0.2-0.6-0.3-1.3-0.2-2
	c0.1-1.2,0.8-2.3,0.4-3.4c-0.5-1.4-2.6-1.9-3.1-3.3c-0.3-0.8,0-1.8-0.4-2.6c-0.4-0.8-1.1-1.2-1.9-1.5s-1.6-0.5-2.3-1
	c-0.7-0.5-1.1-1.5-0.7-2.2c3.5,0.4,7,1.3,10.3,2.5c0.8,0.3,1.6,0.6,2,1.3c0.5,0.7,0.4,1.7,0.4,2.5l-0.6,12.7"/>
<path fill="#465B65" d="M220.7,113.3c0,0.1,0.1,0.1,0.1,0.2c0,0.1,0,0.2,0,0.3c0,0.1-0.1,0.2-0.2,0.3c-0.1,0.1-0.2,0.2-0.4,0.3
	c-0.1,0.1-0.3,0.1-0.5,0.1c-0.4,0-0.8-0.1-1.2-0.4c-0.4-0.2-0.9-0.4-1.4-0.4c-0.6,0-1.1,0-1.7,0.2c-0.6,0.1-1.2,0.2-1.9,0.2
	c-0.7,0-1.4-0.2-1.9-0.7c-0.5-0.5-0.8-1.1-1.1-1.7c-0.2-0.6-0.5-1.1-0.9-1.6c-0.3-0.4-0.7-0.7-1.2-0.9c-0.5-0.2-1-0.2-1.5-0.1
	c-0.7,0.2-1.3,0.6-1.6,1.2c-0.1,0.2-0.2,0.5-0.3,0.7c0-0.1,0-0.1,0-0.2c0.1-0.2,0.1-0.4,0.2-0.5c0.4-0.6,1-1.1,1.7-1.3
	c0.5-0.1,1-0.1,1.5,0c0.6,0.2,1.1,0.5,1.4,1c0.4,0.5,0.7,1.1,0.9,1.7c0.3,0.6,0.6,1.2,1.1,1.6c0.5,0.4,1.1,0.7,1.8,0.6
	c0.6,0,1.2-0.1,1.8-0.2c0.6-0.1,1.1-0.2,1.7-0.1c0.5,0,1,0.2,1.4,0.4c0.3,0.2,0.7,0.3,1.1,0.4c0.1,0,0.3,0,0.4-0.1
	c0.1-0.1,0.3-0.1,0.4-0.3c0.1-0.1,0.1-0.1,0.2-0.2c0-0.1,0.1-0.2,0.1-0.3C220.7,113.4,220.7,113.3,220.7,113.3z"/>
<path fill="#465B65" d="M221.2,113.8c-0.1,0.1-0.8-1.1-2.2-2c-0.9-0.5-1.8-0.8-2.8-0.9c0.3-0.1,0.6-0.1,0.9,0c1.5,0.2,2.8,1,3.7,2.1
	C221,113.2,221.1,113.5,221.2,113.8z"/>
<path fill="#465B65" d="M216,110.6c0,0,0,0.1-0.1,0.1c-0.1,0.1-0.2,0.2-0.3,0.3c-0.2,0.2-0.5,0.3-0.7,0.3c-0.3,0.1-0.5,0.1-0.8,0
	c-0.8-0.2-1.5-0.6-2-1.2c-0.6-0.6-1.2-1.4-2.1-1.9c-0.8-0.5-1.8-0.6-2.7-0.3c-0.7,0.2-1.4,0.6-1.9,1.2c-0.3,0.4-0.6,0.9-0.7,1.4
	c-0.1,0.4-0.1,0.6-0.1,0.6c0,0,0-0.1,0-0.1c0-0.1,0-0.3,0.1-0.4c0.1-0.5,0.3-1,0.7-1.5c0.5-0.6,1.2-1.1,2-1.3c1-0.3,2-0.1,2.9,0.4
	c0.9,0.5,1.5,1.3,2.1,2c0.5,0.6,1.2,1,1.9,1.2c0.5,0.1,1,0,1.5-0.3C215.7,110.9,215.8,110.8,216,110.6z"/>
<path fill="#465B65" d="M215.7,130.6c0.1,0,0.1,0,0.2,0.1c0.2,0,0.4,0.1,0.6,0.1c0.8,0,1.5-0.2,2.2-0.5c1-0.5,1.9-1.4,2.4-2.4
	c0.6-1.3,0.8-2.7,0.4-4.1c-0.2-0.7-0.3-1.4-0.4-2.1c0-0.6,0.1-1.3,0.5-1.8c0.3-0.5,0.6-1.1,0.7-1.7c0.1-0.5,0.1-1.1,0-1.6
	c-0.1-0.8-0.5-1.5-1-2.1c-0.1-0.2-0.3-0.3-0.4-0.4c-0.1-0.1-0.2-0.1-0.2-0.1c0,0,0.2,0.2,0.6,0.6c0.5,0.6,0.8,1.3,0.9,2
	c0.1,0.5,0,1-0.1,1.5c-0.2,0.6-0.4,1.1-0.7,1.6c-0.2,0.3-0.3,0.6-0.4,0.9c-0.1,0.3-0.1,0.7-0.1,1c0.1,0.7,0.2,1.4,0.4,2.1
	c0.4,1.3,0.2,2.7-0.4,3.9c-0.4,0.8-1,1.6-1.8,2.1c-0.8,0.5-1.7,0.8-2.6,0.8C216,130.7,215.7,130.6,215.7,130.6z"/>
<path fill="#465B65" d="M224.1,109.8c-0.2-0.2-0.5-0.4-0.8-0.4c-0.7-0.2-1.5-0.1-2.2,0.2c-0.7,0.3-1.2,0.9-1.5,1.5
	c-0.2,0.3-0.2,0.6-0.2,0.9c0,0,0.1-0.3,0.4-0.8c0.3-0.6,0.9-1.1,1.5-1.4c0.6-0.3,1.3-0.4,2-0.2C223.8,109.7,224.1,109.8,224.1,109.8
	z"/>
<path fill="#465B65" d="M220.6,112.8c0,0,0-0.1,0-0.3c0-0.3,0.1-0.6,0.2-0.8c0.2-0.4,0.6-0.7,1-0.9c0.3-0.1,0.6-0.2,0.9-0.2
	c0.3,0,0.6,0.1,0.9,0.2c0.7,0.3,1.2,0.8,1.5,1.5c0.4,0.8,0.5,1.6,0.5,2.4c-0.1,0.9-0.2,1.9-0.4,2.8c-0.3,1-0.4,2-0.4,3.1
	c0.1,1,0.4,2,0.8,3c0.4,0.9,0.7,1.7,1,2.6c0.3,0.8,0.3,1.7,0.2,2.5c-0.1,0.7-0.3,1.4-0.7,2.1c-0.5,1-1.1,1.9-1.7,2.7l-0.5,0.7
	c-0.1,0.1-0.1,0.2-0.2,0.3c0.1-0.1,0.2-0.1,0.2-0.2c0.1-0.2,0.3-0.4,0.6-0.7c0.7-0.8,1.3-1.7,1.8-2.7c0.3-0.7,0.6-1.4,0.7-2.2
	c0.1-0.9,0.1-1.8-0.2-2.6c-0.3-0.9-0.6-1.8-1-2.7c-0.4-0.9-0.7-1.9-0.8-2.9c-0.1-2.1,0.7-4,0.8-5.8c0.1-0.9-0.1-1.8-0.5-2.6
	c-0.4-0.7-0.9-1.2-1.7-1.5c-0.3-0.1-0.6-0.2-0.9-0.2c-0.3,0-0.6,0.1-0.9,0.3c-0.4,0.2-0.8,0.6-1,1c-0.1,0.3-0.2,0.6-0.2,0.9
	C220.5,112.5,220.6,112.6,220.6,112.8z"/>
<path fill="#80483E" d="M206.4,125.4c0.1,0.3,0.2,0.5,0.4,0.8c0.1,0.1,0.2,0.2,0.3,0.3c0.1,0.1,0.3,0.1,0.4,0.1c0.2,0,0.3,0,0.5-0.1
	c0.1-0.1,0.3-0.2,0.3-0.3c0.2-0.3,0.2-0.6,0.2-0.9c0-0.3-0.1-0.6-0.4-0.7c-0.1,0-0.2,0-0.3,0.1L206.4,125.4"/>
<path fill="#273238" d="M207,126.6c0.3,0,0.5,0,0.8-0.1c0.3-0.1,0.5-0.3,0.6-0.5c0.1-0.2,0.1-0.3,0.1-0.5c0-0.2,0-0.3-0.1-0.5
	c0-0.1-0.1-0.2-0.1-0.2c-0.1-0.1,0-0.1-0.1,0c-0.1,0-0.2,0.1-0.2,0.1l-0.2,0.1l-0.9,0.3c-0.3,0.1-0.5,0.2-0.8,0.2
	c0.2-0.2,0.5-0.3,0.7-0.4l0.8-0.4l0.2-0.1c0.1,0,0.2-0.1,0.3-0.1c0.1,0,0.2,0,0.2,0c0.1,0,0.1,0.1,0.2,0.1c0.1,0.1,0.1,0.2,0.2,0.3
	c0.1,0.2,0.1,0.4,0.1,0.6c0,0.2-0.1,0.4-0.2,0.6c-0.1,0.1-0.2,0.3-0.3,0.4c-0.1,0.1-0.3,0.2-0.4,0.2c-0.2,0.1-0.4,0.1-0.6,0
	C207,126.7,207,126.6,207,126.6z"/>
<path fill="#273238" d="M221.6,216.1l-2.8-22.5c1.8-4.3,2.5-8.5,2-11.2c0,0.3,0,0.6,0-0.2c-0.4-4.7-4.5-8.1-4.5-8.1l-1.4-5.7
	l-17.3,2.4l0.7,9.5l-10.9,35.3l-2.6,38.2l9.2,1c0,0,3.5-17.3,4.5-24.3c0.5-3.8,0.8-7.6,0.9-11.4l8.5-12.7c1,5.3,2.1,11.7,2.7,15.1
	c0.3,1.5,0.9,2.9,1.9,4.1l22.2,17.5l5.3-6.9C238,231.3,221.6,216.1,221.6,216.1z"/>
<path fill="#465B65" d="M199.8,178c-0.2-0.3-0.3-0.6-0.4-0.9c-0.2-0.8-0.4-1.6-0.5-2.4c-0.1-0.8-0.2-1.6-0.2-2.4c0-0.3,0-0.7,0.1-1
	c0.1,0.3,0.1,0.7,0.1,1c0,0.6,0.1,1.5,0.2,2.4c0.1,0.9,0.3,1.8,0.5,2.4C199.7,177.3,199.8,177.7,199.8,178z"/>
<path fill="#465B65" d="M200.6,171.5c0,0,0.1-0.1,0.2-0.1c0.2,0,0.5,0,0.7,0.1c0.2,0.1,0.3,0.2,0.4,0.3c0.1,0.1,0.2,0.3,0.2,0.5
	c0,0.2,0,0.4-0.1,0.6c-0.1,0.2-0.2,0.4-0.4,0.5c-0.2,0.1-0.4,0.2-0.6,0.1c-0.2,0-0.4-0.1-0.6-0.2c-0.1-0.1-0.2-0.2-0.3-0.4
	s-0.1-0.3-0.1-0.5c0-0.2,0.1-0.4,0.2-0.6c0.1-0.1,0.1-0.2,0.1-0.2c0,0,0,0.1-0.1,0.2c-0.1,0.2-0.1,0.4-0.1,0.6c0,0.2,0,0.3,0.1,0.5
	c0.1,0.1,0.2,0.3,0.3,0.3c0.1,0.1,0.3,0.1,0.5,0.1c0.2,0,0.3,0,0.5-0.1c0.1-0.1,0.3-0.2,0.4-0.4c0.1-0.2,0.1-0.3,0.1-0.5
	c0-0.1-0.1-0.3-0.1-0.4c-0.1-0.1-0.2-0.2-0.3-0.3C201.1,171.5,200.9,171.5,200.6,171.5z"/>
<path fill="#465B65" d="M212,176.1c0,0-0.1,0.1-0.3,0.1c-0.3,0.1-0.6,0.2-0.9,0.2c-0.4,0.1-0.9,0.1-1.3,0c-0.5,0-1.1-0.1-1.6-0.3
	c-0.5-0.2-1-0.4-1.5-0.7c-0.4-0.2-0.7-0.5-1.1-0.8c-0.2-0.2-0.4-0.4-0.6-0.7c-0.1-0.2-0.2-0.3-0.2-0.3c0,0,0.3,0.4,0.9,0.8
	c0.3,0.3,0.7,0.5,1.1,0.7c0.5,0.3,0.9,0.5,1.5,0.6c0.5,0.2,1,0.3,1.6,0.3c0.4,0,0.9,0,1.3,0C211.5,176.2,212,176.1,212,176.1z"/>
<path fill="#465B65" d="M217.5,193.1c-0.1,0.1-0.1,0.2-0.2,0.3l-0.6,0.7c-0.5,0.6-1.2,1.6-2,2.8c-1.7,2.3-3.9,5.6-6.4,9.3l-6.3,9.3
	l-1.9,2.8l-0.5,0.8c-0.1,0.1-0.1,0.2-0.2,0.3c0-0.1,0.1-0.2,0.2-0.3l0.5-0.8l1.9-2.9c1.6-2.4,3.8-5.7,6.2-9.4
	c2.5-3.6,4.7-6.9,6.4-9.2c0.9-1.2,1.6-2.1,2.1-2.7c0.3-0.3,0.4-0.5,0.6-0.7C217.4,193.2,217.4,193.2,217.5,193.1z"/>
<path fill="#273238" d="M215.7,141.3c0,0,0-0.4,0.2-1.2c0.2-0.9,0.5-1.8,0.9-2.6c0.4-0.8,1.1-1.5,1.9-2c0.4-0.1,0.7-0.2,1.1-0.2
	c-0.1-0.1-0.2-0.1-0.3-0.1c-0.3,0-0.6,0-0.9,0.1c-0.9,0.4-1.6,1.1-2.1,2c-0.5,0.8-0.8,1.8-0.9,2.7
	C215.7,140.5,215.6,140.9,215.7,141.3z"/>
<path fill="#E11F26" d="M214.2,134.3l-8.8,1.4l-5.5,7.2c-2.2,2.9-3.3,6.4-3.2,10.1c0.2,1.9,0.6,3.7,1.4,5.4l-1.4,10.3
	c-0.2,1.2,0.6,2.3,1.1,2.3l16.4-2.2c2.1-0.4,3-1.5,2.9-2.8l-0.2-2.3l5.4-23.1c0.4,1.4,0.2-4.5-3-5.6
	C217.8,134.2,216,134,214.2,134.3z"/>
<path fill="#273238" d="M202.8,139.1c-0.1,0-0.1,0.1-0.1,0.2l-0.4,0.5c-0.3,0.4-0.7,1-1.3,1.8c-1.4,1.9-2.6,4-3.4,6.2
	c-0.9,2.2-1.1,4.6-0.8,7c0.1,0.7,0.3,1.4,0.6,2.1c0.1,0.2,0.2,0.4,0.2,0.5c0,0.1,0.1,0.1,0.1,0.2c-0.1-0.3-0.2-0.5-0.3-0.7
	c-0.2-0.7-0.4-1.4-0.5-2.1c-0.3-2.3,0-4.7,0.8-6.9c0.9-2.2,2-4.3,3.4-6.2l1.2-1.8l0.3-0.5C202.7,139.2,202.8,139.1,202.8,139.1z"/>
<path fill="#273238" d="M216,144.7c0,0.1,0,0.1,0,0.2c0,0.2,0,0.4,0.1,0.6c0.1,0.5,0.2,1.3,0.4,2.2c0.3,1.8,0.9,4.3,1.5,7.1
	c0.6,2.8,1.2,5.3,1.7,7c0.2,0.9,0.4,1.6,0.6,2.1c0.1,0.2,0.1,0.4,0.2,0.6c0,0.2,0.1,0.2,0.1,0.2c0-0.1,0-0.1,0-0.2l-0.1-0.6
	c-0.1-0.5-0.3-1.3-0.5-2.1l-1.6-7.1c-0.6-2.8-1.2-5.3-1.5-7.1l-0.4-2.2c0-0.2-0.1-0.4-0.1-0.6C216,144.7,216,144.7,216,144.7z"/>
<g opacity="0.3">
	<path fill="#010101" d="M215.5,168.4c-0.9-0.9-1.1-2.4-1.3-3.7c-0.5-4.2-0.9-8.4-1.4-12.7c-0.3-2.6-0.6-5.4,0.4-7.8
		c0.1-0.2,0.1-0.4,0.3-0.5c0.1-0.2,0.3-0.3,0.5-0.4c0.2,0,0.4,0,0.6,0.1c0.2,0.1,0.3,0.2,0.4,0.3c0.2,0.3,0.9,0.7,1,1.1
		c1,3.8,1.4,7.4,2.3,11.2c0.2,1,0.6,1,0.4,2c-0.3,1.5-1.7,5.6-1.7,5.6s0.2,1.5,0.2,2.4c0,0.5-0.1,1-0.4,1.5
		C216.5,167.9,216.1,168.2,215.5,168.4"/>
</g>
<path fill="#E11F26" d="M205.1,136.5l-0.3-2.3l11.6-1.5v2.6L205.1,136.5z"/>
<path fill="#465B65" d="M156.5,245.2l5,8.5c0,0-6.9,8-6.1,9.6l16.8-9.2l-7.3-13.5L156.5,245.2z"/>
<path fill="#E0E1E0" d="M166.3,250.1c0.2,0,0.4,0,0.6,0.1c0.2,0.1,0.3,0.3,0.3,0.4c0,0.2,0,0.4-0.1,0.5c-0.1,0.2-0.2,0.3-0.4,0.3
	c-0.2,0-0.4,0-0.6-0.1c-0.2-0.1-0.3-0.3-0.4-0.5c0-0.2,0-0.4,0.1-0.6C166,250.2,166.2,250.1,166.3,250.1"/>
<path fill="#273238" d="M172.2,254.1l-0.8-1.3l-15.8,9.3c0,0-0.6,0.7-0.2,1.2L172.2,254.1z"/>
<path fill="#273238" d="M161.2,253.8c0,0.1,0.5-0.1,1-0.1c0.5,0,1,0.3,1,0.2c0.1-0.1-0.3-0.5-1-0.5
	C161.6,253.3,161.1,253.7,161.2,253.8z"/>
<path fill="#273238" d="M159.9,255.5c0,0.1,0.4,0,0.9,0.2c0.5,0.2,0.7,0.5,0.8,0.5c0.1,0-0.1-0.5-0.7-0.8S159.8,255.4,159.9,255.5z"
	/>
<path fill="#273238" d="M160,258.1c0.1,0,0-0.5-0.5-0.8s-0.9-0.3-0.9-0.2c0,0.1,0.4,0.2,0.7,0.5C159.7,257.8,159.9,258.1,160,258.1z
	"/>
<path fill="#273238" d="M160.3,251.7c0.1,0.1,0.4-0.3,0.9-0.5c0.5-0.2,0.9-0.3,0.9-0.4c0-0.1-0.5-0.2-1.1,0.1
	C160.5,251.2,160.2,251.7,160.3,251.7z"/>
<path fill="#465B65" d="M157.1,248.7l0.4,9.9c0,0-9.9,3.7-10,5.5l19.1,0l0.1-15.4L157.1,248.7z"/>
<path fill="#E0E1E0" d="M163.4,257.7c0.2,0.1,0.3,0.2,0.4,0.3c0.1,0.2,0.1,0.4,0.1,0.5c0,0.2-0.2,0.3-0.3,0.4
	c-0.2,0.1-0.4,0.1-0.5,0.1c-0.2-0.1-0.4-0.2-0.5-0.4c-0.1-0.2-0.1-0.4-0.1-0.6c0.1-0.2,0.2-0.3,0.4-0.4
	C163.1,257.7,163.3,257.6,163.4,257.7"/>
<path fill="#273238" d="M166.7,264l-0.1-1.6l-18.3,0.6c0,0-0.9,0.4-0.8,1L166.7,264z"/>
<path fill="#273238" d="M157.2,258.4c0,0.1,0.5,0.1,0.9,0.4c0.5,0.3,0.7,0.7,0.8,0.7c0.1,0-0.1-0.6-0.6-0.9
	C157.7,258.3,157.2,258.4,157.2,258.4z"/>
<path fill="#273238" d="M155.2,259.3c0,0.1,0.4,0.2,0.7,0.6c0.3,0.4,0.4,0.8,0.5,0.8c0.1,0,0.2-0.5-0.3-1
	C155.7,259.2,155.2,259.2,155.2,259.3z"/>
<path fill="#273238" d="M154.1,261.7c0.1,0,0.2-0.4,0-1c-0.2-0.5-0.7-0.7-0.7-0.6c0,0.1,0.2,0.4,0.4,0.8S154,261.6,154.1,261.7z"/>
<path fill="#273238" d="M157.4,256.2c0,0.1,0.5,0,1,0s0.9,0.2,1,0.1c0-0.1-0.4-0.4-1-0.4C157.8,255.8,157.3,256.1,157.4,256.2z"/>
<path fill="#273238" d="M166.8,188.1c0,0,1.1,5.4,0.5,6.2c-0.6,1.1-1.1,2.1-1.5,3.3l0.3,24.4l1.7,35.9l-11.4-0.2l-4.3-31.7
	c-1-1.7-1.7-3.6-2.3-5.5c-0.6-2.5-4-27.5-4-27.5l0.2-9.6L166.8,188.1z"/>
<path fill="#273238" d="M140.9,184c0,0,1.8,32.7,2.5,35.7c0.7,2.9,16.4,32.9,16.4,32.9l9.9-4.6l-12.4-31.6l0.6-30.2L140.9,184z"/>
<path fill="#465B65" d="M144.7,186.9c0,0.1,0,0.1,0,0.2c0,0.1,0,0.3,0.1,0.5c0.1,0.5,0.2,1.2,0.3,2.1c0.2,1.8,0.6,4.4,1,7.6
	c0.4,3.2,1,7.1,1.6,11.3c0.3,2.1,0.6,4.4,1,6.7c0.3,2.4,0.9,4.8,1.6,7.1c0.8,2.4,2,4.5,2.4,6.8c0.4,2.3,0.7,4.5,1,6.7
	c0.6,4.3,1,8.1,1.4,11.4c0.4,3.2,0.7,5.9,0.9,7.7c0.1,0.9,0.2,1.6,0.3,2.1c0,0.2,0.1,0.4,0.1,0.5c0,0.1,0,0.1,0,0.2c0,0,0-0.1,0-0.2
	s0-0.3-0.1-0.5l-0.2-2.1c-0.2-1.8-0.5-4.4-0.8-7.7c-0.4-3.2-0.8-7.1-1.3-11.4c-0.3-2.1-0.6-4.4-1-6.7c-0.4-2.4-1.6-4.5-2.4-6.9
	c-0.8-2.3-1.3-4.6-1.7-7c-0.4-2.3-0.7-4.6-1-6.7l-1.6-11.3c-0.5-3.2-0.9-5.8-1.1-7.6l-0.3-2.1c0-0.2-0.1-0.4-0.1-0.5
	C144.8,187,144.7,186.9,144.7,186.9z"/>
<path fill="#465B65" d="M166.9,238.7c0,0.3,0,0.5,0,0.8c0,0.5,0,1.2,0.1,2.1c0.1,1.8,0.2,4.1,0.3,6.8c0.1,2.6,0.3,5,0.4,6.8
	c0,0.8,0.1,1.5,0.1,2.1c0,0.3,0,0.5,0.1,0.8c0-0.3,0-0.5,0-0.8c0-0.5,0-1.2,0-2.1c0-1.8-0.1-4.1-0.3-6.8s-0.3-5-0.4-6.8
	c-0.1-0.8-0.1-1.5-0.1-2.1C167,239.2,167,238.9,166.9,238.7z"/>
<path fill="#FDD5BE" d="M154.9,114.8l2.4,18c0.4,3.1,0.4,7.7-4.5,8.1c-4.3,0-5.9-3.8-6.2-6.7c-0.2-1.4-0.3-2.5-0.4-2.6
	c0,0-4.7,0.2-5.6-4.3c-0.4-2.2-1-6.7-1.5-10.9c-0.2-2.1,0.3-4.3,1.6-6c1.3-1.7,3.2-2.9,5.3-3.3l0.4-0.1
	C151.2,106.3,154.4,110,154.9,114.8z"/>
<path fill="#F9B195" d="M146.1,131.5c2.1-0.4,4-1.3,5.6-2.8c0,0-0.8,3.5-5.3,4L146.1,131.5z"/>
<path fill="#273238" d="M140.2,118.5c0.1,0.1,0.7-0.2,1.6-0.1c0.9,0.1,1.5,0.4,1.6,0.3c0.1-0.1,0-0.2-0.3-0.3
	c-0.4-0.2-0.8-0.3-1.2-0.4c-0.4,0-0.8,0-1.2,0.2C140.3,118.4,140.2,118.5,140.2,118.5z"/>
<path fill="#273238" d="M147.3,117.9c0.1,0,0.5-0.5,1.3-0.8c0.8-0.3,1.5-0.3,1.5-0.4c0.1-0.1-0.1-0.1-0.4-0.1
	c-0.4,0-0.9,0.1-1.3,0.2c-0.4,0.2-0.7,0.4-1,0.7C147.3,117.8,147.3,117.9,147.3,117.9z"/>
<path fill="#273238" d="M147.2,119.4c0,0.1,0.1,0.2,0.2,0.3c0.1,0.1,0.2,0.1,0.4,0.1c0.1,0,0.1,0,0.2-0.1c0.1,0,0.1-0.1,0.2-0.1
	c0-0.1,0.1-0.1,0.1-0.2c0-0.1,0-0.1,0-0.2c0-0.1-0.1-0.2-0.2-0.3c-0.1-0.1-0.2-0.1-0.4-0.1c-0.1,0-0.1,0-0.2,0.1
	c-0.1,0-0.1,0.1-0.2,0.1c0,0.1-0.1,0.1-0.1,0.2C147.2,119.2,147.2,119.3,147.2,119.4z"/>
<path fill="#273238" d="M140.7,120.1c0,0.1,0.1,0.2,0.2,0.3c0.1,0.1,0.2,0.1,0.4,0.1c0.1,0,0.1,0,0.2-0.1c0.1,0,0.1-0.1,0.1-0.1
	c0-0.1,0.1-0.1,0.1-0.2c0-0.1,0-0.1,0-0.2c0-0.1-0.1-0.2-0.2-0.3c-0.1-0.1-0.2-0.1-0.4-0.1c-0.1,0-0.1,0-0.2,0.1
	c-0.1,0-0.1,0.1-0.2,0.1c0,0.1-0.1,0.1-0.1,0.2C140.7,120,140.7,120.1,140.7,120.1z"/>
<path fill="#273238" d="M145.8,122.9c-0.4,0-0.8,0-1.2,0c-0.2,0-0.4,0-0.4-0.1c-0.1-0.2-0.1-0.4,0-0.5l0.3-1.5
	c0.4-2.1,0.6-3.7,0.5-3.8c-0.1,0-0.4,1.6-0.8,3.7c-0.1,0.5-0.2,1-0.2,1.5c-0.1,0.2-0.1,0.5,0,0.7c0,0.1,0.1,0.1,0.1,0.1
	c0.1,0,0.1,0.1,0.2,0.1c0.1,0,0.2,0,0.3,0C145.1,123.1,145.5,123,145.8,122.9z"/>
<path fill="#273238" d="M147.1,114.4c0.1,0.2,0.7,0,1.4-0.1c0.7,0,1.4,0,1.4-0.1c0-0.1-0.1-0.2-0.4-0.3c-0.3-0.1-0.7-0.2-1.1-0.2
	c-0.4,0-0.7,0.1-1.1,0.3C147.2,114.2,147.1,114.4,147.1,114.4z"/>
<path fill="#273238" d="M140,116.7c0.1,0.1,0.7-0.1,1.4-0.2c0.7-0.1,1.3-0.1,1.4-0.2c0-0.1-0.1-0.2-0.4-0.3
	c-0.4-0.1-0.7-0.1-1.1-0.1c-0.4,0.1-0.7,0.2-1,0.4C140.1,116.5,140,116.6,140,116.7z"/>
<path fill="#FDD5BE" d="M155.2,118.2c0.1,0,2.9-1.5,3.4,1.6s-2.7,3-2.7,2.9C155.8,122.6,155.2,118.2,155.2,118.2z"/>
<path fill="#F9B195" d="M156.6,121.3c0,0,0.1,0,0.2,0.1c0.1,0,0.3,0,0.4-0.1c0.2-0.2,0.3-0.4,0.4-0.6c0.1-0.2,0.1-0.5,0-0.7
	c0-0.3-0.1-0.5-0.3-0.7c0-0.1-0.1-0.2-0.2-0.2c-0.1-0.1-0.2-0.1-0.3-0.1c-0.1,0-0.1,0-0.2,0c-0.1,0-0.1,0.1-0.1,0.2
	c0,0.1,0,0.2,0,0.2c0,0-0.1,0-0.1-0.2c0-0.1,0-0.2,0.1-0.2c0.1-0.1,0.2-0.1,0.3-0.1c0.1,0,0.3,0,0.4,0.1c0.1,0.1,0.2,0.2,0.3,0.3
	c0.2,0.2,0.3,0.5,0.3,0.8c0.1,0.6-0.1,1.3-0.6,1.5c-0.1,0-0.2,0.1-0.3,0.1c-0.1,0-0.2,0-0.3-0.1
	C156.6,121.4,156.6,121.3,156.6,121.3z"/>
<path fill="#273238" d="M146.8,124.9c0-0.1,0.5-0.3,0.9-1c0.1-0.3,0.3-0.6,0.3-0.9c0.1-0.2,0.1-0.4,0.1-0.4c0,0,0,0.2,0,0.4
	c0,0.3-0.1,0.7-0.3,1c-0.2,0.3-0.4,0.5-0.7,0.7C147,124.9,146.8,125,146.8,124.9z"/>
<path fill="#273238" d="M132.6,113c0-0.2,0.1-0.4,0.3-0.5c0.3-0.2,0.7-0.3,1.1-0.3c1.2-0.2,2.4-0.7,3.3-1.4c0.4-0.7,0.9-1.5,1.4-2.1
	c1.2-1.6,2.2-2.7,3.4-3.3c1.7-0.9,3.7-1.3,5.6-1.1c1.6,0.2,3.2,1.3,3.6,2.9c0.8-0.9,2.1-1,3.3-0.7h0c1.3,0.3,2.1,1.5,2.6,2.7
	c0.5,1.2,0.8,2.5,1.6,3.5c0.2,0.2,0.4,0.5,0.3,0.7c0,0.1-0.1,0.2-0.2,0.2c-0.1,0.1-0.2,0.1-0.3,0.1c-0.2,0-0.4-0.1-0.6-0.2l0.5,0.9
	c-0.4,0.1-0.9,0.1-1.3,0.1c-0.1,1.1-0.2,2.2-0.5,3.3c-0.5,0-0.9,0.2-1.2,0.5c-0.4,0.4-0.5,1.2-1.2,1c-0.4-0.1-0.8-0.8-1-1.2
	c-1.1-2.3-1.6-4.9-1.7-7.4c-0.6-0.5-1.2-0.8-1.9-1.1l0.1,0c-1.3-0.3-2.8-0.6-3.9,0.2c-0.9,0.6-1.3,1.6-1.9,2.5
	c-0.6,0.8-1.3,1.5-2.1,2c-0.8,0.5-1.8,0.8-2.7,1c0.1,1.3,0.4,3.1,0.5,4.4l-1.3-1.9c-0.1-0.1-0.2-0.3-0.3-0.4l0,0
	c-0.1-0.2-0.3-0.5-0.4-0.7c-0.1,0.2-0.3,0.3-0.5,0.3c-0.2,0-0.4,0-0.6-0.1c-0.2-0.1-0.3-0.3-0.3-0.5c0-0.2,0-0.4,0.1-0.6
	c0.1-0.2,0.2-0.3,0.3-0.4c-0.1,0.2-0.3,0.3-0.5,0.4c-0.2,0.1-0.4,0.1-0.6,0.1c-0.2,0-0.4-0.1-0.6-0.3c-0.1-0.2-0.2-0.4-0.3-0.6
	c0-0.2,0-0.3,0.1-0.4c0.1-0.1,0.2-0.2,0.3-0.3c-0.6,0.1-1.1,0-1.7-0.2C132.9,113.7,132.5,113.4,132.6,113z"/>
<path fill="#465B65" d="M149.9,107.9c0.2,0.1,0.3,0.2,0.5,0.4c0.4,0.4,0.7,0.9,0.9,1.4c0.1,0.4,0.2,0.8,0.3,1.1
	c0.1,0.4,0.1,0.9,0.1,1.3c0,0.5,0.1,1,0.1,1.5c0,0.3,0.1,0.5,0.2,0.8c0.1,0.3,0.2,0.5,0.4,0.7c0.1,0.1,0.2,0.1,0.3,0.2
	c0.1,0,0.2,0,0.4,0c0.2-0.1,0.4-0.2,0.5-0.4c0.2-0.4,0.3-0.8,0.3-1.2l-0.1,0c0.2,0.3,0.4,0.6,0.7,0.9c0.3,0.2,0.6,0.4,0.9,0.4
	c0.2,0,0.3-0.1,0.5-0.1c0.1-0.1,0.2-0.2,0.3-0.4c0.1-0.1,0.1-0.3,0-0.4c0-0.1-0.1-0.2-0.2-0.3l0,0.1c0.3,0.3,0.7,0.5,1.1,0.6
	c0.1,0,0.2,0.1,0.3,0.1h0.1l-0.1,0l-0.3-0.1c-0.4-0.1-0.7-0.4-1-0.6l0,0c0.1,0.1,0.1,0.2,0.2,0.3c0,0.1,0,0.2-0.1,0.4
	c-0.1,0.1-0.1,0.2-0.3,0.3c-0.1,0.1-0.3,0.1-0.4,0.1c-0.3,0-0.6-0.1-0.9-0.4c-0.3-0.3-0.5-0.6-0.6-0.9l-0.1-0.1v0.2
	c0,0.4-0.1,0.8-0.3,1.2c-0.1,0.2-0.3,0.3-0.5,0.4c-0.1,0-0.2,0-0.3,0c-0.1,0-0.2-0.1-0.3-0.1c-0.2-0.2-0.3-0.4-0.4-0.7
	c-0.1-0.2-0.2-0.5-0.2-0.8c-0.1-0.5-0.1-1-0.1-1.5c0-0.5,0-0.9-0.1-1.4c0-0.4-0.1-0.8-0.3-1.2c-0.2-0.6-0.5-1-0.9-1.4
	C150.3,108,150.1,107.9,149.9,107.9z"/>
<path fill="#465B65" d="M136.3,114L136.3,114l0.2,0.1c0.1,0,0.1,0.1,0.2,0.1c0.1,0,0.2,0.1,0.3,0.1c0.6,0.2,1.3,0.2,2,0.1
	c1-0.2,1.9-0.6,2.6-1.3c0.9-0.8,1.6-1.9,2-3c0.3-0.6,0.5-1.2,0.7-1.8c0.2-0.5,0.5-1,0.9-1.5c0.3-0.4,0.7-0.7,1.2-1
	c0.2-0.1,0.4-0.1,0.7-0.2c0.4,0,0.9,0.1,1.3,0.3c0.4,0.2,0.7,0.5,1,0.8c0.1,0.2,0.2,0.4,0.3,0.7c0,0,0,0,0,0l0-0.1
	c-0.1-0.2-0.1-0.3-0.2-0.5c-0.2-0.2-0.4-0.5-0.6-0.6c-0.3-0.2-0.7-0.4-1-0.5c-0.2,0-0.4-0.1-0.7-0.1c-0.2,0-0.5,0.1-0.7,0.2
	c-0.5,0.2-0.9,0.5-1.3,1c-0.4,0.5-0.7,1-0.9,1.5c-0.2,0.6-0.4,1.2-0.7,1.8c-0.5,1.1-1.1,2.1-2,3c-0.7,0.7-1.6,1.1-2.6,1.3
	c-0.7,0.1-1.3,0.1-2-0.1C136.8,114.2,136.5,114.1,136.3,114z"/>
<path fill="#465B65" d="M135.7,112c0,0,0.1,0,0.2,0.1c0.2,0.1,0.3,0.1,0.5,0.2c0.3,0.1,0.5,0.1,0.8,0.2c0.3,0,0.7,0,1,0
	c0.3,0,0.7-0.1,1-0.2c0.3-0.1,0.5-0.2,0.8-0.3c0.2-0.1,0.3-0.2,0.5-0.3c0.1,0,0.1-0.1,0.2-0.1c0,0-0.2,0.1-0.7,0.3
	c-0.2,0.1-0.5,0.2-0.7,0.3c-0.3,0.1-0.6,0.1-1,0.2c-0.3,0-0.7,0-1,0c-0.3,0-0.5-0.1-0.8-0.1C135.9,112.1,135.7,112,135.7,112z"/>
<path fill="#465B65" d="M141.8,162.1c0-0.6,4.6-26,4.6-26c0.9-0.8,10.6-7.9,10.6-7.9l8.4,10.1c0,0,2.1,7.9,2.8,13.6
	c0.4,3.8,2.4,21.7,2.9,29.3c0.1,1-0.1,2-0.6,2.9c-0.4,0.9-1.1,1.7-1.9,2.3l-0.9,0.1l-0.2,2.3c-7.7,0.2-26.4-3.3-26.7-3.1
	C140.5,185.6,141.8,164.2,141.8,162.1z"/>
<path fill="#273238" d="M140.7,182.7c0.1,0,0.2,0.1,0.3,0.1l0.8,0.2c0.7,0.1,1.6,0.3,2.8,0.6c2.4,0.4,5.8,0.9,9.5,1.4
	c3.7,0.5,7.1,0.8,9.5,1.1l2.9,0.3l0.8,0.1c0.1,0,0.2,0,0.3,0c-0.1,0-0.2,0-0.3-0.1l-0.8-0.1c-0.7-0.1-1.7-0.2-2.9-0.4l-9.5-1.1
	c-3.7-0.5-7.1-0.9-9.5-1.3c-1.2-0.2-2.2-0.4-2.9-0.5l-0.8-0.1C140.9,182.7,140.8,182.7,140.7,182.7z"/>
<path fill="#465B65" d="M160.9,127.6c1.3,0.4,2.5,1.3,3.5,2.2l4.7,3.9c0.9,0.7,1.8,1.5,2.2,2.6c0.6,1.6-0.2,3.4-1.5,4.4
	c-1.4,1-3.1,1.3-4.8,1c-1.7-0.3-3.2-0.9-4.7-1.6l-3.6-11.6C157.4,127.3,159.5,127.2,160.9,127.6z"/>
<path fill="#273238" d="M146.3,136.2c0.2-0.1,0.3-0.1,0.5-0.2c0.3-0.1,0.8-0.4,1.3-0.7c1.4-0.8,2.8-1.6,4.1-2.5
	c1.5-1.1,2.9-2.1,3.9-2.9l1.2-0.9c0.1-0.1,0.3-0.2,0.4-0.3c-0.2,0.1-0.3,0.2-0.4,0.3c-0.3,0.2-0.7,0.5-1.2,0.8
	c-1,0.7-2.4,1.8-3.9,2.8c-1.5,1.1-3,2-4.1,2.6c-0.5,0.3-1,0.5-1.3,0.7C146.6,136,146.4,136.1,146.3,136.2z"/>
<path fill="#273238" d="M159.4,132.6c0.1,0.1,0.3,0.3,0.4,0.4c0.1,0.1,0.3,0.2,0.5,0.4c0.2,0.2,0.4,0.3,0.7,0.6
	c1.3,1.1,2.4,2.4,3.3,3.8c0.9,1.4,1.6,3,2,4.6c0.2,0.6,0.3,1.1,0.4,1.5c0,0.2,0.1,0.4,0.1,0.5c0-0.2,0-0.4-0.1-0.6
	c0-0.4-0.2-0.9-0.3-1.5c-0.4-1.7-1.1-3.2-2-4.7c-0.9-1.4-2-2.7-3.3-3.8c-0.2-0.2-0.5-0.4-0.7-0.5c-0.2-0.2-0.4-0.3-0.5-0.4
	C159.7,132.8,159.5,132.7,159.4,132.6z"/>
<g opacity="0.3">
	<path fill="#010101" d="M159.7,127.8c3.3,0.4,6.9,4.1,9.6,6.3c-1.1,0.2-2.8-0.9-3.9-1.4c-2.5-1.3-4.4-3.4-7.8-4l-1-0.2
		C157.2,127.9,158.9,127.7,159.7,127.8z"/>
</g>
<path fill="#273238" d="M157.7,128.7c0,0,0.2,0,0.5,0.1c0.5,0.1,0.9,0.3,1.3,0.5c1,0.5,2.4,1.5,3.9,2.5c1.3,0.9,2.7,1.6,4.1,2.2
	c0.4,0.2,0.9,0.3,1.3,0.4c0.2,0,0.3,0.1,0.5,0.1c-0.2-0.1-0.3-0.1-0.5-0.2c-0.3-0.1-0.8-0.2-1.3-0.5c-1.4-0.6-2.8-1.4-4.1-2.2
	c-1.3-0.9-2.6-1.7-3.9-2.4c-0.4-0.2-0.9-0.4-1.3-0.4c-0.1,0-0.3,0-0.4,0C157.8,128.6,157.7,128.6,157.7,128.7z"/>
<g opacity="0.3">
	<path fill="#010101" d="M157,146.1c-1.3,8.8-2.8,18-8.2,25.2c-1.4,1.9-3.4,3.7-5.8,3.5c-0.9-0.1-2-0.9-1.6-1.8c0,0.1,1-0.4,1.8-0.9
		c1.6-1,3-1.5,4-3c1-1.6,1.9-3.8,2.7-5.5C152.3,158.2,155.1,151.7,157,146.1"/>
</g>
<path fill="#273238" d="M161.2,188.6c0.2-0.4,0.4-0.9,0.4-1.3c0.1-0.5,0.1-0.9,0-1.4c-0.1,0,0,0.6-0.2,1.4S161.1,188.5,161.2,188.6z
	"/>
<path fill="#273238" d="M157.7,187.9c0.2-0.8,0.3-1.7,0.3-2.5C157.8,186.2,157.7,187,157.7,187.9z"/>
<path fill="#273238" d="M153.6,187.2c0.2-0.4,0.3-0.8,0.3-1.2c0.1-0.4,0.1-0.8,0.1-1.3c-0.2,0.4-0.3,0.8-0.3,1.2
	C153.6,186.3,153.6,186.7,153.6,187.2z"/>
<path fill="#273238" d="M150,186.8c0.1-0.4,0.2-0.8,0.3-1.2c0.1-0.4,0.2-0.8,0.3-1.2C150.1,185.1,149.9,186,150,186.8z"/>
<path fill="#273238" d="M146.3,186.1c0.2-0.3,0.3-0.7,0.3-1c0.1-0.4,0.1-0.7,0.1-1.1c-0.2,0.3-0.3,0.7-0.3,1
	C146.3,185.4,146.3,185.8,146.3,186.1z"/>
<path fill="#273238" d="M143.1,185.9c0.1,0,0.1-0.6,0.2-1.3s0.4-1.3,0.3-1.3c-0.3,0.4-0.4,0.8-0.5,1.3
	C143,185,143,185.5,143.1,185.9z"/>
<path fill="#273238" d="M148.4,170.1c0,0.1-0.1,0.3-0.1,0.4c0,0.2,0,0.3,0,0.5c0,0.2,0,0.5,0,0.7c0,0.6,0.1,1.2,0.3,1.8
	c0.2,0.7,0.4,1.4,0.8,2.1c0.3,0.7,0.7,1.3,1.2,1.9c0.4,0.5,0.8,0.9,1.2,1.3c0.2,0.2,0.3,0.3,0.5,0.4c0.1,0.1,0.3,0.2,0.4,0.3
	c0.1,0.1,0.2,0.2,0.4,0.2c0,0-0.5-0.4-1.2-1.1c-0.4-0.4-0.8-0.8-1.2-1.3c-0.9-1.1-1.5-2.5-1.9-3.8c-0.2-0.6-0.3-1.2-0.3-1.8
	C148.4,170.7,148.5,170.1,148.4,170.1z"/>
<g opacity="0.3">
	<path fill="#010101" d="M151.7,178.4l-0.1-0.1c-1.6-1.5-2.7-3.5-3.1-5.7C150.1,174,151.3,176.3,151.7,178.4z"/>
</g>
<path fill="#273238" d="M152.5,184.5c0.8-1.2,1.1-2.8,0.8-4.2c0,0.7-0.1,1.4-0.2,2.1C153,183.2,152.8,183.9,152.5,184.5z"/>
<path fill="#273238" d="M146.8,169.4c0,0.1,0.3,0.2,0.7,0.4c0.2,0.1,0.5,0.2,0.8,0.2c0,0-0.3-0.2-0.7-0.4
	C147.4,169.5,147.1,169.4,146.8,169.4z"/>
<path fill="#273238" d="M164.5,188.6c0.3-0.4,0.5-0.8,0.5-1.3c0.1-0.5,0-0.9-0.2-1.3c-0.1,0,0.1,0.6,0,1.3
	C164.7,188.1,164.4,188.6,164.5,188.6z"/>
<path fill="#E0E1E0" d="M251.9,173.2l-1.4-21.1l-136,8.8l-0.8-12.4L86,173.4l30.8,21.6l-0.8-12.9L251.9,173.2z"/>
<g opacity="0.3">
	<path fill="#010101" d="M221.3,158c-0.3-1.3-0.8-2.7-0.8-4l-4.2,0.4c0.4,1.9,0.8,3.9,0,5.7c-0.7,1.6-2.2,2.7-3.7,3.6
		c-2.8,1.8-6,3.2-7.8,6c1.3,0.7,2.9-0.1,4.3-0.8l9.8-5.4c0.8-0.4,1.4-0.9,2-1.5C221.7,160.9,221.6,159.4,221.3,158z"/>
</g>
<path fill="#FDD5BE" d="M135.1,174l-6.3,0.9l-4.7,5.6c0,0,0.7,0.6,2-0.1c0.6-0.3-0.7,1.1-0.7,1.1l-3.4,0.2c0,0.1-0.1,0.2-0.1,0.3
	c0,0.1,0,0.2,0.1,0.3c0,0.1,0.1,0.2,0.2,0.3c0.1,0.1,0.2,0.1,0.3,0.2c0.8,0.3,3.6,0.4,3.6,0.4l0.3-0.4c0.2,0.2,0.4,0.3,0.6,0.3
	c0.2,0.1,0.5,0.1,0.7,0c0.8,0.3,1.6,0.4,2.4,0.2c0.7-0.1,1.4-0.3,2.1-0.6l5.9-5.6L135.1,174z"/>
<path fill="#F9B195" d="M129.7,176.8c-0.7,0.4-1.3,1-1.9,1.6c-0.6,0.6-1.1,1.2-1.6,1.9c0.1,0,0.8-0.8,1.7-1.8
	C128.9,177.6,129.7,176.8,129.7,176.8z"/>
<path fill="#F9B195" d="M128.7,180.5c-0.5,0.4-1,0.8-1.4,1.3c-0.5,0.4-0.9,0.9-1.2,1.4C127.1,182.4,127.9,181.5,128.7,180.5
	L128.7,180.5z"/>
<path fill="#F9B195" d="M130,181.2c-0.4,0.3-0.8,0.7-1.1,1c-0.4,0.3-0.8,0.6-1.2,1c0.5-0.2,0.9-0.5,1.3-0.8
	C129.4,182,129.8,181.6,130,181.2z"/>
<path fill="#F9B195" d="M131.4,181.7c-0.3,0.2-0.6,0.5-0.9,0.8c-0.5,0.4-0.9,0.8-0.9,0.9c0.4-0.1,0.7-0.4,1-0.7
	C131,182.4,131.2,182.1,131.4,181.7z"/>
<g opacity="0.3">
	<path fill="#010101" d="M157.5,158.5c-2.2-0.8-4.6,0.3-6.2,2c-1.6,1.7-2.4,3.9-3.5,5.9c-2.3,4.4-5.4,8.3-9.3,11.5l2.5,1.4
		c3.4-1.4,6.7-3.1,9.8-5c2.2-1.4,4.4-3,5.7-5.3C158.3,165.8,157.9,162,157.5,158.5z"/>
</g>
<path fill="#465B65" d="M156.9,141.9c0,0,0.9,22.3-2.3,26s-14.2,11.4-14.2,11.4l-1.4-0.1l-2.3,0.5l-3.7-5.6l11.5-12.3
	c0,0,0.4-23.2,0.8-23.7c0.4-0.6,0.9-3.4,4.8-3.1C154.1,135.5,157.1,138.9,156.9,141.9z"/>
<path fill="#273238" d="M154.6,136.2c0.1,0.1,0.3,0.2,0.4,0.3c0.3,0.4,0.6,0.8,0.9,1.2c0.4,0.7,0.7,1.4,0.9,2.2
	c0.2,1,0.3,2.1,0.2,3.1c0,4.7-0.2,11.1-0.7,18.2c-0.1,0.9-0.1,1.8-0.2,2.6c-0.1,0.8-0.3,1.7-0.6,2.5c-0.3,0.7-0.8,1.4-1.3,2
	c-0.5,0.6-1.1,1.1-1.6,1.6c-2.2,2-4.3,3.7-6.1,5c-1.8,1.4-3.3,2.4-4.3,3.2l-1.2,0.9l-0.3,0.2c0,0-0.1,0.1-0.1,0.1l0.1-0.1l0.3-0.2
	l1.2-0.8c1-0.7,2.5-1.8,4.3-3.1c2.1-1.6,4.2-3.2,6.2-5c0.6-0.5,1.1-1.1,1.6-1.6c0.6-0.6,1-1.3,1.4-2c0.3-0.8,0.5-1.6,0.6-2.5
	c0.1-0.9,0.2-1.8,0.2-2.6c0.5-7.1,0.6-13.6,0.6-18.3c0.1-1.1,0-2.1-0.2-3.2c-0.2-0.8-0.5-1.5-0.9-2.2c-0.2-0.4-0.5-0.9-0.9-1.2
	C154.9,136.4,154.7,136.3,154.6,136.2z"/>
<path fill="#273238" d="M144.5,161.9c0,0.1,0.8,0.2,1.7,0.7c0.9,0.5,1.5,1,1.5,0.9c-0.4-0.5-0.9-0.8-1.5-1.1
	C145.7,162.1,145.1,162,144.5,161.9z"/>
<path fill="#273238" d="M145.3,140.8c0,0,0-0.4,0-1c0.1-0.8,0.3-1.6,0.7-2.3c0.4-0.7,1-1.2,1.6-1.7c0.5-0.3,0.9-0.4,0.9-0.5
	c-0.1,0-0.2,0-0.3,0.1c-0.2,0.1-0.4,0.2-0.7,0.3c-0.7,0.4-1.3,1-1.7,1.7c-0.4,0.7-0.7,1.5-0.7,2.3c0,0.3,0,0.5,0,0.8
	C145.3,140.6,145.3,140.7,145.3,140.8z"/>
<path fill="#273238" d="M133,174.2c0.1-0.1,0.1-0.2,0.2-0.3l0.6-0.7l2.4-2.6l8.1-8.7l0,0.1c0-0.5,0-1.1,0.1-1.7
	c0.2-5.1,0.4-9.7,0.6-13.1c0.1-1.7,0.2-3,0.2-3.9c0-0.4,0-0.8,0.1-1.1c0-0.1,0-0.2,0-0.4c0,0.1,0,0.3,0,0.4c0,0.3,0,0.6,0,1.1
	c0,1-0.1,2.3-0.1,3.9c-0.1,3.4-0.3,8-0.5,13.1c0,0.6-0.1,1.2-0.1,1.7v0l0,0l-8.2,8.7l-2.5,2.6l-0.7,0.7
	C133.2,174.1,133.1,174.1,133,174.2z"/>
<path fill="#BB8F86" d="M207.4,170.5l-5.8,0.4l-4.7,4.8c0,0,0.6,0.6,1.8,0c0.5-0.3-0.7,1-0.7,1h-3.1c0,0.1-0.1,0.2-0.1,0.3
	c0,0.1,0,0.2,0,0.3c0,0.1,0.1,0.2,0.2,0.3c0.1,0.1,0.2,0.1,0.2,0.2c0.7,0.3,3.3,0.6,3.3,0.6l0.3-0.4c0.1,0.2,0.3,0.3,0.5,0.4
	s0.4,0.1,0.6,0.1c0.7,0.3,1.4,0.4,2.2,0.4c0.7,0,1.3-0.2,1.9-0.4l5.8-4.7L207.4,170.5z"/>
<path fill="#80483E" d="M202.2,172.7c-1.3,0.8-2.4,1.8-3.4,3c0,0,0.7-0.7,1.7-1.5C201.5,173.4,202.3,172.7,202.2,172.7z"/>
<path fill="#80483E" d="M201.1,176c-0.5,0.3-1,0.7-1.4,1.1c-0.5,0.4-0.9,0.8-1.2,1.2c0.5-0.3,1-0.7,1.4-1.1
	C200.4,176.9,200.8,176.5,201.1,176z"/>
<path fill="#80483E" d="M202.3,176.7c-0.4,0.3-0.8,0.6-1.1,0.9c-0.4,0.3-0.8,0.5-1.1,0.8c0.5-0.1,0.9-0.4,1.3-0.7
	C201.7,177.5,202,177.1,202.3,176.7z"/>
<path fill="#80483E" d="M203.5,177.3c-0.3,0.2-0.6,0.4-0.9,0.7c-0.3,0.2-0.6,0.4-0.9,0.7c0.4-0.1,0.7-0.3,1-0.6
	C203.1,177.9,203.3,177.6,203.5,177.3z"/>
<path fill="#E11F26" d="M218,134.6c0,0,4.1-0.2,6,5.3c1.9,5.6,5.5,19.1,5.1,22.8c-0.3,3.7-20.4,12.8-20.4,12.8l-4.6-5.6l15.2-10
	l-4-17.9C215.4,142,213.8,135.1,218,134.6z"/>
<path fill="#273238" d="M219.5,135c-0.4,0.1-0.9,0.2-1.3,0.3c-1,0.4-1.7,1.2-2.2,2.2c-0.4,1-0.7,2-0.7,3.1c0,0.8,0,1.3-0.1,1.3
	c-0.1-0.4-0.1-0.9-0.1-1.3c0-1.1,0.2-2.2,0.6-3.1c0.5-1,1.3-1.8,2.3-2.2c0.3-0.1,0.6-0.2,1-0.2C219.3,134.9,219.4,134.9,219.5,135z"
	/>
<path fill="#273238" d="M223.2,160.7c0,0.1-0.8-0.3-1.8-0.4s-1.8,0-1.8-0.1c0.6-0.2,1.2-0.2,1.8-0.1
	C222.1,160.1,222.7,160.3,223.2,160.7L223.2,160.7z"/>
</svg>
