<svg width="13" height="13" viewBox="0 0 13 13" fill="none" xmlns="http://www.w3.org/2000/svg">
<path d="M12.9005 6.58112C12.8529 6.45837 12.7815 6.34623 12.6905 6.25112L7.69047 1.25112C7.59723 1.15788 7.48654 1.08392 7.36472 1.03346C7.2429 0.983003 7.11233 0.957031 6.98047 0.957031C6.71417 0.957031 6.45877 1.06282 6.27047 1.25112C6.17723 1.34436 6.10327 1.45505 6.05281 1.57687C6.00235 1.6987 5.97638 1.82926 5.97638 1.96112C5.97638 2.22742 6.08216 2.48282 6.27047 2.67112L9.57047 5.96112H1.98047C1.71525 5.96112 1.4609 6.06648 1.27336 6.25402C1.08583 6.44155 0.980469 6.69591 0.980469 6.96112C0.980469 7.22634 1.08583 7.48069 1.27336 7.66823C1.4609 7.85577 1.71525 7.96112 1.98047 7.96112H9.57047L6.27047 11.2511C6.17674 11.3441 6.10235 11.4547 6.05158 11.5765C6.00081 11.6984 5.97467 11.8291 5.97467 11.9611C5.97467 12.0931 6.00081 12.2238 6.05158 12.3457C6.10235 12.4676 6.17674 12.5782 6.27047 12.6711C6.36343 12.7648 6.47403 12.8392 6.59589 12.89C6.71775 12.9408 6.84846 12.9669 6.98047 12.9669C7.11248 12.9669 7.24319 12.9408 7.36505 12.89C7.4869 12.8392 7.59751 12.7648 7.69047 12.6711L12.6905 7.67112C12.7815 7.57602 12.8529 7.46387 12.9005 7.34112C13.0005 7.09766 13.0005 6.82458 12.9005 6.58112Z" fill="#363636"/>
</svg>
