<?xml version="1.0" encoding="utf-8"?>
<!-- Generator: Adobe Illustrator 18.1.1, SVG Export Plug-In . SVG Version: 6.00 Build 0)  -->
<svg version="1.1" id="Layer_1" xmlns="http://www.w3.org/2000/svg" xmlns:xlink="http://www.w3.org/1999/xlink" x="0px" y="0px"
	 viewBox="0 0 100 100" enable-background="new 0 0 100 100" xml:space="preserve">
<path fill="#F6C19B" d="M55.2,88.2l-3.1,0.3l0.4,3.9l3.1-0.3L55.2,88.2z"/>
<path fill="#38434D" d="M55.3,90.5c-0.4,0.3-1.3,0.9-2.7,0.1c-0.1-0.1-0.2,0-0.3,0.1l-0.6,1.3c-0.2,0.4-0.2,0.9,0,1.2l2.9,5
	c0.1,0.2,0.3,0.3,0.5,0.4l0.7,0.2c0.5,0.1,0.9-0.2,1-0.6c0.2-0.7,0.2-1.3,0.1-2l-0.8-4.5c0-0.1-0.1-0.2-0.2-0.4l-0.5-0.8
	C55.5,90.4,55.3,90.4,55.3,90.5z"/>
<path fill="#F6C19B" d="M38.4,89.2h-3.1v3.9h3.1V89.2z"/>
<path fill="#38434D" d="M38.5,92.3c-0.5,0.3-1.7,0.9-3.2-0.2c-0.1,0-0.2-0.1-0.2,0l-4.6,2.3C30.2,94.7,30,95,30,95.3
	c0,0.5,0.4,0.9,0.9,0.9h7.5c0.5,0,0.9-0.4,0.9-0.9c0,0,0-0.1,0-0.1l-0.5-2.8C38.8,92.3,38.6,92.2,38.5,92.3z"/>
<path fill="#F6C19B" d="M34.6,45.3l0.2,0.5c0,0.1,0.1,0.3,0.2,0.4c0.4,0.5,1.3,1.9,0,2.6c-1.4,0.7-1.6-1.2-1.6-1.8
	c0-0.1-0.1-0.1-0.1,0l-0.5,0.6c-0.1,0.1-0.2,0.1-0.3,0c-0.1-0.1-0.1-0.2,0-0.2l0.2-0.4c0.1-0.3,0.2-0.6,0.1-0.8L34.6,45.3z"/>
<path fill="#333333" d="M51.1,50.6l-14.4-1.3l-1.4,14.5c-0.3,2.8-0.3,5.1-0.3,7.5l0,19.5c0,0.2,0.1,0.4,0.4,0.4h2.9
	c0.2,0,0.3-0.1,0.3-0.2l5.2-27.1c0.2-0.5,0.7-0.8,1.2-0.8c0.5,0,0.9,0.3,1.2,0.7l5.7,25.3c0.1,0.2,0.3,0.3,0.5,0.2l3.1,0.1
	c0.2-0.1,0.3-0.3,0.3-0.5C54.5,74.5,53.7,59,51.1,50.6z"/>
<path fill="#F6C19B" d="M52.3,6.8L52.3,6.8c0-0.3,0-0.6,0-0.9c0.1-0.8,0.3-2.9-1.5-3.1c-1.8-0.3-1,1.6-0.6,2.6
	c0,0.1-0.1,0.2-0.2,0.1L49.4,5c-0.1-0.1-0.3-0.1-0.3,0.1c-0.1,0.1,0,0.2,0,0.3l0.8,0.7c0.1,0.1,0.2,0.3,0.3,0.4L50.3,7L52.3,6.8z"/>
<path fill="#5259A7" d="M51,50.7c-1.9,0.4-8.6,5-14.2-1.4c-0.2-0.2-0.2-0.4,0-0.6c0.7-0.9,2.2-7.4,1.1-13.2c0-0.1-0.1-0.2-0.1-0.2
	c-0.1-0.1-0.3-0.1-0.4,0l-2.8,2c-0.7,0.5-1.1,1.4-0.9,2.3l1.2,5.9c0,0.1,0,0.2-0.1,0.2l-1.8,0.7c-0.1,0-0.2,0-0.3-0.1l-3.6-8.5
	c-0.4-0.9-0.1-2,0.6-2.6l6.5-5.4c0.9-0.8,2-1.3,3.1-1.5l2.6-0.6l3.9-0.6c0.4-0.1,0.8-0.3,1.1-0.7l3.6-5.9c0.8-1.4,1.2-3,1-4.7
	l-1.1-8.8l2.3-0.3l3,11.1c0.4,1.4,0.3,2.8-0.1,4.1l-3.2,9.8c-0.4,1.2-0.6,2.5-0.6,3.8l0,14.6C51.5,50.3,51.3,50.6,51,50.7z"/>
<path fill="#F6C19B" d="M44.4,26.6c-0.1,0-0.1,0.1-0.1,0.2l1.1,1.2c0.1,0.1,0.1,0.1,0.1,0.2c0,0.2-0.1,0.3-0.2,0.5
	c-0.4,0.6-1.1,0.8-1.7,0.9c-0.7,0.1-1.3,0-1.4-0.1c0,0,0,0-0.1,0l-1-2.3c0,0,0-0.1-0.1-0.1c-1.8-0.4-2.6-2.5-2.6-2.5
	c-1.3-4.8,2.3-5.4,4.2-5.5c0.6,0,1.2,0.3,1.6,0.8C47.9,25.3,45.2,26.4,44.4,26.6z"/>
<path fill="#38434D" d="M40.6,23.8l0.8,1.3c0.1,0.1,0.3,0.2,0.4,0c0.1-0.1,0.1-0.2,0-0.2l-0.5-1c-0.1-0.2-0.1-0.5,0.1-0.7
	c0.3-0.4,0.6-1.1,0.2-1.8c-0.1-0.2,0-0.4,0.1-0.4c0.6-0.3,1.6-0.9,1.9-1.6c0-0.1,0.1-0.2,0.2-0.4c0.2-0.3,0.5-1-0.1-1.5
	c-0.1-0.1-0.2-0.1-0.4,0l-0.9,0.6c-0.1,0-0.2,0-0.2,0l-0.6-0.8c-0.1-0.1-0.2-0.1-0.2,0l-0.8,1.1c-0.2,0.2-0.5,0.4-0.7,0.3
	c-0.6-0.1-1.7,0-2.7,1.2c-0.9,1.1-0.9,2.6-0.8,3.6c0.1,0.7,0.5,1.3,1.1,1.6l1.4,0.9c0.1,0,0.1,0.1,0.1,0.1c0.3,0.3,1.7,1.7,2.2,1.1
	c0,0,0,0,0-0.1l-0.3-0.9c-0.1-0.2-0.3-0.3-0.5-0.4c-0.5-0.3-1.6-0.9-1-1.6c0.2-0.3,0.5-0.4,0.8-0.4C40.3,23.6,40.5,23.6,40.6,23.8z"
	/>
<path fill="#C2CBD5" d="M14.7,14.1h-0.3v26.6h0.3V14.1z"/>
<path fill="#C2CBD5" d="M13.4,14L3.8,37.3l0.3,0.1l9.5-23.3L13.4,14z"/>
<path fill="#C2CBD5" d="M15.6,14l-0.3,0.1l9.5,23.3l0.3-0.1L15.6,14z"/>
<path fill="#BF7031" d="M14.9,45.9h-0.9c-6,0-10.9-2.6-10.9-9.1h22.7C25.9,43.3,21,45.9,14.9,45.9z"/>
<path fill="#C2CBD5" d="M84.4,14.1h-0.3v26.6h0.3V14.1z"/>
<path fill="#C2CBD5" d="M83.2,14l-9.5,23.3l0.3,0.1l9.5-23.3L83.2,14z"/>
<path fill="#C2CBD5" d="M85.4,14l-0.3,0.1l9.5,23.3l0.3-0.1L85.4,14z"/>
<path fill="#BF7031" d="M84.7,45.9h-0.9c-6,0-10.9-2.6-10.9-9.1h22.7C95.6,43.3,90.7,45.9,84.7,45.9z"/>
<path fill="#632E17" d="M90.8,11.8c-0.1,0.1-5.2,6.9-19.7-0.3c-0.3-0.1-0.5-0.3-0.8-0.4c-8.8-4.3-13.1-5.3-20.9-4.9
	C41.6,5.7,37.3,6.8,28.5,11c-0.3,0.1-0.5,0.3-0.8,0.4C13.2,18.6,8.1,11.9,8,11.8c3.7,2.6,8.4,2.1,12,1c2.4-0.7,4.6-1.8,6.6-3.1
	c12-7.5,22.8-6.3,22.8-6.3s10.8-1.2,22.8,6.3c2,1.3,4.2,2.4,6.6,3.1C82.3,13.8,87.1,14.4,90.8,11.8z"/>
<path fill="#8B4324" d="M95.6,36.8c0,0.5-3.1,0.9-7.5,1c-0.6,0-1.2,0-1.8,0c-0.2,0-0.5,0-0.7,0c-0.5,0-0.9,0-1.4,0
	c-0.1,0-0.2,0-0.3,0c-6.1,0-11.1-0.5-11.1-1.1c0-0.6,4.9-1.1,11.1-1.1c0.1,0,0.2,0,0.3,0c0.6,0,1.1,0,1.6,0c0.1,0,0.2,0,0.3,0
	c0.7,0,1.4,0,2,0.1C92.6,35.9,95.6,36.3,95.6,36.8z"/>
<path fill="#8B4324" d="M25.9,36.8c0,0.6-4.5,1-10.2,1.1c-0.4,0-0.8,0-1.2,0c-0.1,0-0.2,0-0.4,0c-0.2,0-0.5,0-0.7,0
	c-0.5,0-1,0-1.6,0c-5-0.1-8.7-0.6-8.7-1.1c0-0.5,3.7-1,8.7-1.1c0.9,0,1.8,0,2.7,0c0.3,0,0.6,0,0.8,0C21.2,35.7,25.9,36.2,25.9,36.8z
	"/>
<path fill="#EDF0F1" d="M81.2,27.4c0,0.2,0.2,0.4,0.4,0.4c0.2,0,0.4-0.2,0.4-0.4c0-0.2-0.2-0.4-0.4-0.4C81.4,27,81.2,27.2,81.2,27.4
	z"/>
<path fill="#354E5F" d="M88.3,35.7c0,0.7-0.1,1.4-0.1,2.1c-0.6,0-1.2,0-1.8,0l-0.1-2.2l-0.1-2l-0.2,2l-0.2,2.2c-0.5,0-0.9,0-1.4,0
	c-0.1,0-0.2,0-0.3,0c0-0.8,0-1.5,0-2.2c0-2,0.1-3.5,0.5-4.8c0,0,0,0,0,0l0,0l0,0c0.2-0.1,1.7-0.6,1.8-0.5c0.1,0.1,1.2,0.3,1.7,0.3
	c0.1,0,0.2,0,0.2,0h0l0,0l0,0c0,0.2,0.1,0.4,0.1,0.7C88.3,32.9,88.3,34.3,88.3,35.7z"/>
<path fill="#F0586A" d="M85.5,25.9c-1.3,0.2-2.4,1.4-3.3,3.6c0.5,1.8,2.2,0.4,2.2,0.4l-0.2,1.4c1.5,0.4,2.9,0.3,4.1-0.3l-0.2-1.3
	l0.4,0c1.5-0.1,1.2-1.6,1.2-1.6C89,25.9,87,25.8,87,25.8L85.5,25.9z"/>
<path fill="#EF3C50" d="M84.8,29.5l3.5,0.2l0-0.1L84.8,29.5l0.2-1.4l3.2-0.1l0-0.1L85,28.1l0,0.2L84.8,29.5L84.8,29.5z"/>
<path fill="#EF3C50" d="M87.7,27.3L87.7,27.3l0.1,0.7l0.1,0L87.7,27.3z"/>
<path fill="#EF3C50" d="M84.5,28.1L84.3,30l0.1,0L84.5,28.1L84.5,28.1z"/>
<path fill="#F6C19B" d="M83.2,29.3c0,0,1.2,0.1,1.3,0.1c0,0,0.2,0,0.3,0l0.1-1.2C84.8,28.2,83.7,28.2,83.2,29.3z"/>
<path fill="#67747F" d="M86.4,29.3h-2.7v0.4h2.7V29.3z"/>
<path fill="#C2CBD5" d="M78.9,26.7h4.5l0.7,2.5v0.4h-4.4v-0.4L78.9,26.7z"/>
<path fill="#F6C19B" d="M85.7,25.8c0,0.1,0,0.3-0.1,0.4c0,0.1,0,0.1,0.1,0.2c0.2,0.1,0.5,0.2,0.9,0c0.1,0,0.1-0.1,0.1-0.2
	c-0.1-0.2-0.2-0.8-0.1-1c0,0,0.5-2.1-1.2-1.5c0,0-0.1,0-0.1,0.1l-0.1,0.1C85.1,24,85,24.1,85,24.3c0,0.4,0,1.4,0.5,1.4
	C85.7,25.6,85.7,25.7,85.7,25.8z"/>
<path fill="#38434D" d="M85.7,25.6c-0.2,0-0.7,0-0.6-1.3c0-0.1,0-0.1,0.1-0.2l0.5-0.4c0,0,0,0,0.1,0c0.1,0.1,0.2,0.4,0.5,0.6
	c0.1,0.1,0.2,0.3,0.2,0.4v0.3c0,0.1,0,0.3,0.1,0.4c0.1,0.2,0.4,0.5,0.8,0.5c0.1,0,0.2-0.2,0.2-0.3c0-0.1-0.1-0.2-0.1-0.3v-1.2
	c0-0.1,0-0.2,0-0.3c-0.1-0.4-0.5-1.5-2-0.9c0,0-0.5,0.2-0.5,0.8v0.9c0,0,0,0.1,0,0.1c0,0.1,0.1,0.5,0,0.8c0,0,0,0,0,0
	c0,0,0,0.1,0.1,0.1h0.9L85.7,25.6C85.7,25.6,85.7,25.6,85.7,25.6z"/>
<path fill="#2E92CC" d="M13,35v2.2c0,0.1-0.1,0.2-0.2,0.2H9.1c-0.1,0-0.2-0.1-0.2-0.2V35H13z"/>
<path fill="#5AB3E5" d="M10.2,35.7H9.8V36h0.3V35.7z"/>
<path fill="#5AB3E5" d="M12.1,35.7h-0.3V36h0.3V35.7z"/>
<path fill="#5AB3E5" d="M13,34.7v0.8c0,0.1-0.1,0.2-0.2,0.2H9.1c-0.1,0-0.2-0.1-0.2-0.2v-0.8c0-0.1,0.1-0.2,0.2-0.2h3.8
	C13,34.5,13,34.6,13,34.7z"/>
<path fill="#2E92CC" d="M11.6,34.5L11.6,34.5c-0.2-0.4-0.7-0.5-0.9-0.5c-0.1,0-0.1,0-0.2,0.1c-0.1,0.1-0.1,0.4-0.1,0.4h-0.1
	c0-0.1,0-0.3,0.1-0.5c0.1-0.1,0.1-0.1,0.2-0.1C10.9,34,11.5,34,11.6,34.5z"/>
<path fill="#2E92CC" d="M12.2,35.4h-0.4v0.4h0.4V35.4z"/>
<path fill="#2E92CC" d="M10.2,35.4H9.8v0.4h0.4V35.4z"/>
<path fill="#F6C19B" d="M18.9,26.9l0.6,0.3l0.2-0.2c0,0,0.8-0.6,0.1-1.1c-0.3-0.2-0.7,0-0.6,0.4c0,0,0,0,0,0c0,0,0,0,0,0L19.1,26
	c0,0-0.1-0.1-0.1,0c0,0-0.1,0.1,0,0.1l0.1,0.3c0,0.1,0,0.1,0,0.2L18.9,26.9z"/>
<path fill="#F6C19B" d="M11.5,33.4l-0.6-0.2l-0.1,0.3c0,0-0.8,0.7,0,1.1c0.3,0.2,0.6-0.1,0.5-0.4c0,0,0,0,0,0c0,0,0,0,0,0l0.2,0.2
	c0,0,0.1,0,0.1,0c0,0,0-0.1,0-0.1l-0.1-0.3c0-0.1,0-0.1,0-0.2L11.5,33.4z"/>
<path fill="#215080" d="M12.3,29.9l-1.6,3.4l0.8,0.3l1.5-2.4L12.3,29.9z"/>
<path fill="#215080" d="M13.8,34.4l1.2-0.9c0,0,0.4-2.3,1.2-3.7l1.2,0c0.3,0,0.7-0.2,0.9-0.4l1.4-2.3l-0.7-0.4l-1.4,2l-1.4-0.5
	c-0.1-0.1-0.1-0.1-0.2-0.1c-0.4-0.2-2-0.8-2.8,0.4c-0.9,1.2-1.2,2.2-1.3,4.4L13.8,34.4z"/>
<path fill="#38434D" d="M15.7,37.9c-0.4,0-0.8,0-1.2,0c-0.1,0-0.2,0-0.4,0l-0.6-1.7l-0.2,1.7c-0.5,0-1,0-1.6,0l0-2.2l0-2.8
	c1.2,1,3.2,0.6,3.2,0.6l0.3,2.2L15.7,37.9z"/>
<path fill="#F6C19B" d="M15.3,27.6C15.3,27.6,15.3,27.6,15.3,27.6l0.1,0.4c0,0,0,0,0,0c0,0,0,0.1-0.1,0.1c-0.1,0.1-0.3,0.1-0.4,0.1
	c-0.2,0-0.3-0.1-0.3-0.1c0,0,0,0,0,0l-0.1-0.6c0,0,0,0,0,0c-0.4-0.2-0.4-0.7-0.4-0.7c0.1-1.1,0.9-1,1.3-0.9c0.1,0,0.2,0.2,0.3,0.3
	C16.2,27.6,15.5,27.6,15.3,27.6z"/>
<path fill="#38434D" d="M14.7,26.7l0.1,0.3c0,0,0.1,0.1,0.1,0c0,0,0,0,0-0.1l0-0.3c0-0.1,0-0.1,0.1-0.1c0.1-0.1,0.2-0.2,0.2-0.4
	c0,0,0-0.1,0.1-0.1c0.1,0,0.4-0.1,0.5-0.2c0,0,0,0,0.1-0.1c0.1-0.1,0.2-0.2,0.1-0.3c0,0,0,0-0.1,0l-0.2,0.1c0,0,0,0,0,0l-0.1-0.2
	c0,0,0,0-0.1,0l-0.2,0.2c-0.1,0-0.1,0.1-0.2,0c-0.1-0.1-0.4-0.1-0.7,0.1c-0.3,0.2-0.4,0.5-0.4,0.7c0,0.2,0,0.3,0.1,0.4l0.2,0.3
	c0,0,0,0,0,0c0.1,0.1,0.2,0.5,0.4,0.4c0,0,0,0,0,0l0-0.2c0-0.1,0-0.1-0.1-0.1c-0.1-0.1-0.3-0.3-0.1-0.4
	C14.4,26.7,14.5,26.6,14.7,26.7C14.6,26.7,14.7,26.7,14.7,26.7z"/>
</svg>
