<?xml version="1.0" encoding="utf-8"?>
<!-- Generator: Adobe Illustrator 18.1.1, SVG Export Plug-In . SVG Version: 6.00 Build 0)  -->
<svg version="1.1" id="Layer_1" xmlns="http://www.w3.org/2000/svg" xmlns:xlink="http://www.w3.org/1999/xlink" x="0px" y="0px"
	 viewBox="0 0 100 100" enable-background="new 0 0 100 100" xml:space="preserve">
<path fill="#E7E7E7" fill-opacity="0.6" d="M79,94.6c0,1.2-12.5,2.1-28,2.1c-15.5,0-28-1-28-2.1c0-1.2,12.5-2.1,28-2.1
	C66.5,92.5,79,93.4,79,94.6z"/>
<path fill="#632E17" d="M49.4,80.6c-2.3,3.2-4.7,7-7.2,11.1c-0.5,0.8,0.4,2.8,1.3,2.8l12.8-1.1c0.8,0,1.4-0.9,1.1-1.6
	c-1.9-4.4-4-8.2-6.6-11.3C50.4,80.2,49.7,80.2,49.4,80.6z"/>
<path fill="#8B4324" d="M50.1,81.4c-2.3,3.2-4.9,7.3-7.4,11.5c-0.5,0.8,0.1,1.8,1,1.8h13.1c0.8,0,1.4-0.9,1.1-1.6
	c-1.9-4.4-3.8-8.5-6.4-11.6C51,80.9,50.4,80.9,50.1,81.4z"/>
<path fill="#632E17" d="M90,83.3l-78-3.9l0.7-1l0,0l76.7,3.8L90,83.3z"/>
<path fill="#8B4324" d="M89.3,82.2l-76.7-3.8l1.7-2.4l73.5,3.1L89.3,82.2z"/>
<path fill="#333333" d="M45.5,26.7c0,0.6-0.4,1-0.7,1.4c-0.1-0.2-0.2-0.4-0.3-0.4c-0.6-0.1-1,0.5-1.5,0.3c-0.5-0.3-1.2,0.1-1.2,0.1
	c0.2,0.8-0.1,0.5-0.1,0.8c0,0.2,0.3,0.8,0.1,0.9c-0.2,0.1-0.5-0.5-0.7-0.5c-0.2,0-0.6,0.3-0.2,1c0.4,0.6,0.6,0.8,0.7,1.3
	c0,0-1-0.8-1.4-3c0,0-0.4-0.6,0.6-1.2c0,0-0.5,0.1-0.5-0.1c0-0.1,0.5-0.3,0.5-0.3s0-0.2,0.3-0.1c0,0,0.2-1,1.2-1.2
	c1-0.2,0.9-0.7,1.5-0.7c0.6-0.1,1.5,0.7,1.6,1.5c0,0,0-0.6-0.2-0.8C45.1,25.6,45.6,25.6,45.5,26.7z"/>
<path fill="#F6C19B" d="M44.8,28.1c-0.1-0.2-0.2-0.4-0.3-0.4c-0.6-0.1-1,0.5-1.5,0.3c-0.5-0.3-1.2,0.1-1.2,0.1
	c0.2,0.8-0.1,0.5-0.1,0.8c0,0.2,0.3,0.8,0.1,0.9c-0.2,0.1-0.5-0.5-0.7-0.5c-0.2,0-0.8,0.5-0.4,1.2c0.4,0.6,0.7,0.7,0.8,1.2
	c0,0.2,0.5,2.9,1,3.1c0.4,0.2,2.3-0.1,2.4-0.6c0.1-0.5-0.3-1.2-0.2-1.6c0-0.3-0.1-0.7,0.3-0.9c0.3-0.2,0.5-0.5,0.5-0.8
	C45.3,30,45,28.7,44.8,28.1z"/>
<path fill="#F6C19B" d="M66.2,31.1c-0.1-0.3-0.4,0.1-0.8,0.3c-0.4,0.2-1.5,0.6-1.7,0.4c-0.2-0.2,0.5-0.5,0.5-0.8
	c0-0.3-0.1-0.3-0.4,0c-0.3,0.3-0.8,0.5-1.2,1.3c-0.4,0.8-0.8,1.2-1.7,1.5c-0.9,0.4-1.3,0.6-1.3,0.6l0.8,1.6l0,0c0,0,0,0,0,0l0,0
	c0,0,0,0,0,0l0,0l0,0c0.4-0.2,2.9-2.4,3.8-2.5c1-0.1,0.9-0.7,0.9-0.7c0.5-0.2,0.3-0.6,0.3-0.6s0.3-0.1,0.4-0.3c0.1-0.2,0-0.3,0-0.3
	s0,0,0,0C65.8,31.6,66.2,31.4,66.2,31.1z M60.6,35.9l0.1-0.1C60.7,35.9,60.6,35.9,60.6,35.9z"/>
<path fill="#F6C19B" d="M25.6,27.1C25.6,27.1,25.6,27.1,25.6,27.1c0,0-0.2,0.1-0.1,0.2c0.1,0.2,0.3,0.3,0.3,0.3s-0.3,0.3,0.1,0.6
	c0,0-0.3,0.5,0.7,0.9c0.8,0.3,2.7,3,3,3.3l0,0l0,0c0,0,0,0,0,0l0,0c0,0,0,0,0,0l0,0l1.2-1.4c0,0-0.3-0.3-1.1-0.9
	c-0.8-0.6-1-1.1-1.2-1.9c-0.2-0.8-0.6-1.2-0.8-1.5c-0.2-0.4-0.3-0.4-0.4-0.1c-0.1,0.3,0.5,0.8,0.3,0.9c-0.2,0.2-1.2-0.5-1.5-0.8
	c-0.3-0.3-0.6-0.8-0.7-0.5C25.2,26.7,25.6,27,25.6,27.1z M29.5,32.4l0.1,0.1C29.6,32.4,29.5,32.4,29.5,32.4z"/>
<path fill="#F6C19B" d="M39,74.3l-0.2,2.8L36.9,77l0.2-2.9L39,74.3z"/>
<path fill="#333333" d="M39.1,78.9l-4.9-0.4c-0.3,0-0.4-0.2-0.4-0.5l0-0.2c0-0.1,0.1-0.2,0.1-0.2l2.9-2c0.1-0.1,0.2,0,0.3,0
	c0.3,0.4,0.8,0.7,1.7,0.7c0.1,0,0.2,0.1,0.2,0.2c0.3,0.8,0.5,1.4,0.4,2.1C39.4,78.8,39.2,78.9,39.1,78.9z"/>
<path fill="#F6C19B" d="M61.7,70.3l1.8,2.2l1.6-1.3l-1.8-2.3L61.7,70.3z"/>
<path fill="#333333" d="M64.3,74.1l3.9-3.1c0.2-0.2,0.2-0.4,0.1-0.6l-0.1-0.2c0-0.1-0.2-0.1-0.2-0.1l-3.5,0c-0.1,0-0.2,0.1-0.2,0.2
	c0,0.5-0.3,1.1-0.9,1.6c-0.1,0.1-0.1,0.2-0.1,0.3c0.2,0.8,0.4,1.5,0.8,1.9C64,74.2,64.2,74.2,64.3,74.1z"/>
<path fill="#333333" d="M37,75.1l1.9,0.1c0.3,0,0.6-0.2,0.7-0.6l0.8-11.8c0-0.3,0.1-0.6,0.2-0.8l4.8-6.8c0,0,6.5,3.8,8.6,6
	c1.8,1.9,5.8,7.9,7,9.6c0.2,0.3,0.5,0.3,0.8,0.1l2-1.5c0.2-0.2,0.3-0.5,0.1-0.7C63,67.1,59,60.7,57.5,59c-1.7-1.9-8.2-9.8-8.2-9.8
	l-8.8-0.6c0,0-4.2,10.3-4.5,13.4c-0.2,2.7,0.3,10.5,0.4,12.6C36.5,74.8,36.7,75.1,37,75.1z"/>
<path fill="#2E92CC" d="M62.7,35.2c-1.3,0.8-5.9,3.7-8.3,3.5c-1.7-0.1-3-0.5-3.8-0.7c-0.4-0.1-0.9,0.1-1,0.5
	c-1.9,4.7,1.7,10.2,1.8,11.1c0.1,1-1.4,1.7-4.6,1.5c-0.9,0-6.3,1.5-8.3-0.3c0,0,1.5-9,0.6-10.5c-0.8-1.4-0.7-2.7-4-3.5
	c-0.6-0.2-1.1-0.4-1.6-0.8c-1.4-1.2-4.5-3.7-5.8-5.1c-0.2-0.2-0.2-0.5,0-0.7l1.1-1.1c0.2-0.2,0.6-0.2,0.8,0.1c1,1.2,3.7,4.5,6.8,4.7
	c3.9,0.3,5.1-1.2,5.4-0.4l0,0c0.2,0.4,0.5,0.8,1,0.8c0.1,0,0.2,0,0.3,0c0,0,0,0,0,0c0.6,0,1.1-0.4,1.2-0.9c0.1-0.5,0.1-0.6,0.1-0.8
	c0,0,0-0.1,0.1-0.1c3.9,0.3,7.5,2.9,10,3.1c2.1,0.2,5.4-2,6.4-2.6c0.1-0.1,0.3-0.1,0.5,0.1l1.4,1.6C62.9,34.8,62.8,35.1,62.7,35.2z"
	/>
<path fill="#67747F" d="M62.8,29.2c-0.4-0.4-0.4-0.9,0-1.3l0.8-0.8l1.3,1.3l-0.8,0.8C63.8,29.6,63.2,29.6,62.8,29.2z"/>
<path fill="#FFC431" d="M67.6,27.6c-0.5,0.5-1.2,0.7-1.9,0.6l-0.3,0.3c-0.2,0.2-0.5,0.2-0.8,0l-1.2-1.2c-0.2-0.2-0.2-0.5,0-0.8
	l0.3-0.3c-0.1-0.7,0.1-1.4,0.6-1.9c0.9-0.9,2.3-0.9,3.2,0C68.5,25.3,68.5,26.8,67.6,27.6z"/>
<path fill="#38434D" d="M64.4,28.9L63,27.8c-0.1,0-0.1-0.1,0-0.2c0-0.1,0.1-0.1,0.2,0l1.4,1.1c0.1,0,0.1,0.1,0,0.2
	C64.5,29,64.5,29,64.4,28.9z"/>
<path fill="#38434D" d="M64.1,29.2l-1.4-1.1c-0.1,0-0.1-0.1,0-0.2s0.1-0.1,0.2,0l1.4,1.1c0.1,0,0.1,0.1,0,0.2
	C64.3,29.2,64.2,29.2,64.1,29.2z"/>
<path fill="#38434D" d="M63.8,29.5l-1.4-1.1c-0.1,0-0.1-0.1,0-0.2c0-0.1,0.1-0.1,0.2,0l1.4,1.1c0.1,0,0.1,0.1,0,0.2
	C64,29.5,63.9,29.5,63.8,29.5z"/>
<path fill="#EDF0F1" d="M67,26.5c-0.1-0.1-0.2-0.2-0.3-0.1c-0.1,0-0.3,0.1-0.5,0.3C66,26.5,66,26.4,66,26.3c0.1,0,0.3-0.1,0.3-0.2
	c0.1-0.1,0.1-0.2,0-0.3c-0.1-0.1-0.2-0.1-0.3,0c-0.1,0.1-0.1,0.2-0.2,0.4c0,0,0,0-0.1,0c-0.1,0-0.2,0-0.3-0.1
	c0.1-0.2,0.2-0.4,0.2-0.6c0-0.1,0-0.2-0.1-0.3c-0.1-0.1-0.2-0.1-0.3,0c-0.1,0.1-0.3,0.3-0.1,0.7c0,0.1,0.1,0.1,0.1,0.2
	c-0.4,0.6-1,1.3-1.4,1.7l0.1,0.1c0.5-0.4,1.1-1.1,1.4-1.7c0.1,0.1,0.3,0.1,0.4,0.1c0,0,0,0,0.1,0c0,0.1,0.1,0.3,0.2,0.4
	c-0.1,0.1-0.2,0.1-0.2,0.2c-0.5,0.4-0.9,0.8-1.5,1.3l0.1,0.1c0.6-0.6,1-1,1.5-1.3c0.1-0.1,0.2-0.1,0.2-0.2c0.1,0.1,0.2,0.1,0.3,0.2
	c0.2,0.1,0.4,0,0.5-0.1C67,26.7,67,26.6,67,26.5z M65.2,25.8c-0.1-0.3-0.1-0.4,0-0.5c0.1,0,0.1,0,0.2,0c0,0,0,0,0,0
	c0,0,0.1,0.1,0,0.1c0,0.2-0.1,0.3-0.2,0.5C65.3,25.9,65.3,25.9,65.2,25.8z M66,26.2c0-0.1,0-0.2,0.1-0.3c0.1,0,0.1,0,0.1,0l0,0
	c0,0,0,0.1,0,0.1C66.1,26.1,66,26.2,66,26.2z M66.4,26.8c-0.1,0-0.1-0.1-0.2-0.1c0.2-0.1,0.4-0.2,0.5-0.2c0.1,0,0.1,0,0.1,0
	c0,0,0,0,0,0c0,0,0,0.1,0,0.2C66.7,26.8,66.6,26.9,66.4,26.8z"/>
<path fill="#67747F" d="M28.1,25.6c0.4-0.4,0.4-0.9,0-1.3l-0.8-0.8L26,24.8l0.8,0.8C27.2,26,27.8,26,28.1,25.6z"/>
<path fill="#FFC431" d="M23.4,24c0.5,0.5,1.2,0.7,1.9,0.6l0.3,0.3c0.2,0.2,0.5,0.2,0.8,0l1.2-1.2c0.2-0.2,0.2-0.5,0-0.8l-0.3-0.3
	c0.1-0.7-0.1-1.4-0.6-1.9c-0.9-0.9-2.3-0.9-3.2,0C22.5,21.7,22.5,23.2,23.4,24z"/>
<path fill="#38434D" d="M26.6,25.3l1.4-1.1c0.1,0,0.1-0.1,0-0.2c0-0.1-0.1-0.1-0.2,0l-1.4,1.1c-0.1,0-0.1,0.1,0,0.2
	C26.4,25.4,26.5,25.4,26.6,25.3z"/>
<path fill="#38434D" d="M26.9,25.6l1.4-1.1c0.1,0,0.1-0.1,0-0.2c0-0.1-0.1-0.1-0.2,0l-1.4,1.1c-0.1,0-0.1,0.1,0,0.2
	C26.7,25.6,26.8,25.6,26.9,25.6z"/>
<path fill="#38434D" d="M27.1,25.9l1.4-1.1c0.1,0,0.1-0.1,0-0.2c0-0.1-0.1-0.1-0.2,0L27,25.6c-0.1,0-0.1,0.1,0,0.2
	C27,25.9,27.1,25.9,27.1,25.9z"/>
<path fill="#EDF0F1" d="M24.1,23.2c0.2,0.1,0.3,0.2,0.5,0.1c0.1,0,0.2-0.1,0.3-0.2c0.1,0.1,0.2,0.1,0.2,0.2c0.4,0.4,0.9,0.8,1.5,1.3
	l0.1-0.1c-0.6-0.6-1.1-1-1.5-1.3c-0.1-0.1-0.2-0.1-0.2-0.2c0.1-0.1,0.1-0.2,0.2-0.4c0,0,0,0,0.1,0c0.1,0,0.3-0.1,0.4-0.1
	c0.4,0.6,1,1.3,1.4,1.7l0.1-0.1c-0.5-0.5-1.1-1.1-1.4-1.7c0.1-0.1,0.1-0.1,0.1-0.2c0.2-0.4,0.1-0.6-0.1-0.7c-0.1-0.1-0.2-0.1-0.3,0
	c-0.1,0.1-0.2,0.2-0.1,0.3c0,0.2,0.1,0.4,0.2,0.6c-0.1,0.1-0.2,0.1-0.3,0.1c0,0,0,0-0.1,0c0-0.2-0.1-0.3-0.2-0.4
	c-0.1-0.1-0.2-0.1-0.3,0c-0.1,0.1-0.1,0.2,0,0.3c0.1,0.1,0.2,0.1,0.3,0.2c0,0.1-0.1,0.2-0.1,0.3c-0.2-0.1-0.4-0.2-0.5-0.3
	c-0.2-0.1-0.3,0-0.3,0.1C24,23,24,23.1,24.1,23.2z M25.7,22.4c-0.1-0.2-0.2-0.4-0.2-0.5c0-0.1,0-0.1,0-0.1c0,0,0,0,0,0
	c0,0,0.1,0,0.2,0c0.1,0.1,0.2,0.3,0,0.5C25.7,22.3,25.7,22.3,25.7,22.4z M24.8,22.5c0,0,0-0.1,0-0.1l0,0c0,0,0.1-0.1,0.1,0
	c0.1,0,0.1,0.1,0.1,0.3C24.9,22.6,24.8,22.5,24.8,22.5z M24.2,23.1c-0.1-0.1-0.1-0.1,0-0.2c0,0,0,0,0,0c0,0,0.1-0.1,0.1,0
	c0.1,0,0.3,0.1,0.5,0.2c-0.1,0-0.1,0.1-0.2,0.1C24.4,23.3,24.3,23.2,24.2,23.1z"/>
<path fill="#67747F" d="M31,15.8c-0.4-0.4-0.4-1,0-1.4l0.9-0.9l1.4,1.4l-0.9,0.9C32.1,16.2,31.4,16.2,31,15.8z"/>
<path fill="#FFC431" d="M36.4,14.1c-0.6,0.6-1.4,0.8-2.1,0.7l-0.4,0.4c-0.2,0.2-0.6,0.2-0.8,0l-1.3-1.3c-0.2-0.2-0.2-0.6,0-0.8
	l0.4-0.4c-0.1-0.8,0.1-1.5,0.7-2.1c1-1,2.6-1,3.5,0C37.3,11.5,37.3,13.1,36.4,14.1z"/>
<path fill="#38434D" d="M32.8,15.5l-1.6-1.2c-0.1-0.1-0.1-0.2,0-0.2c0.1-0.1,0.2-0.1,0.2,0l1.6,1.2c0.1,0.1,0.1,0.2,0,0.2
	C33,15.5,32.9,15.5,32.8,15.5z"/>
<path fill="#38434D" d="M32.5,15.8l-1.6-1.2c-0.1-0.1-0.1-0.2,0-0.2c0.1-0.1,0.2-0.1,0.2,0l1.6,1.2c0.1,0.1,0.1,0.2,0,0.2
	C32.6,15.8,32.5,15.8,32.5,15.8z"/>
<path fill="#38434D" d="M32.2,16.1l-1.6-1.2c-0.1-0.1-0.1-0.2,0-0.2c0.1-0.1,0.2-0.1,0.2,0l1.6,1.2c0.1,0.1,0.1,0.2,0,0.2
	C32.3,16.1,32.2,16.2,32.2,16.1z"/>
<path fill="#EDF0F1" d="M35.6,12.8c-0.1-0.1-0.2-0.2-0.4-0.1c-0.1,0-0.3,0.1-0.6,0.3c-0.1-0.1-0.1-0.2-0.1-0.3
	c0.2,0,0.3-0.1,0.4-0.2c0.1-0.1,0.1-0.3,0-0.4c-0.1-0.1-0.2-0.1-0.4,0c-0.1,0.1-0.2,0.2-0.2,0.4c0,0,0,0-0.1,0
	c-0.1,0-0.3-0.1-0.4-0.1c0.1-0.2,0.2-0.5,0.3-0.7c0-0.1,0-0.3-0.1-0.3c-0.1-0.1-0.3-0.1-0.4,0c-0.2,0.1-0.3,0.4-0.1,0.8
	c0,0.1,0.1,0.2,0.1,0.2c-0.4,0.7-1.1,1.4-1.6,1.9l0.1,0.1c0.5-0.5,1.2-1.2,1.6-1.9c0.1,0.1,0.3,0.1,0.5,0.2c0,0,0,0,0.1,0
	c0,0.2,0.1,0.3,0.2,0.4c-0.1,0.1-0.2,0.1-0.3,0.2c-0.5,0.4-1,0.9-1.7,1.5l0.1,0.1c0.7-0.6,1.2-1.1,1.7-1.5c0.1-0.1,0.2-0.2,0.3-0.2
	c0.1,0.1,0.2,0.1,0.3,0.2c0.2,0.1,0.4,0,0.6-0.1C35.7,13.1,35.7,12.9,35.6,12.8z M33.7,12c-0.1-0.3-0.1-0.5,0-0.6
	c0.1-0.1,0.1,0,0.2,0c0,0,0,0,0,0c0,0,0.1,0.1,0,0.1c0,0.2-0.1,0.4-0.2,0.6C33.8,12.1,33.7,12.1,33.7,12z M34.5,12.4
	c0-0.1,0-0.2,0.1-0.3c0.1-0.1,0.1,0,0.1,0l0,0c0,0,0.1,0.1,0,0.1C34.7,12.4,34.6,12.4,34.5,12.4z M35,13.2c-0.1,0-0.2-0.1-0.2-0.1
	c0.2-0.1,0.4-0.2,0.5-0.3c0.1,0,0.1,0,0.2,0c0,0,0,0,0,0c0,0,0,0.1,0,0.2C35.3,13.2,35.2,13.2,35,13.2z"/>
<path fill="#67747F" d="M58.5,17.6c-0.6-0.2-0.8-0.9-0.6-1.5l0.6-1.3l2.1,0.9L60,17C59.7,17.6,59.1,17.8,58.5,17.6z"/>
<path fill="#FFC431" d="M63.2,13.6c-0.3,0.8-1,1.4-1.9,1.6l-0.2,0.5c-0.1,0.3-0.5,0.5-0.9,0.4l-1.9-0.8c-0.3-0.1-0.5-0.5-0.4-0.9
	l0.2-0.5c-0.4-0.7-0.5-1.6-0.2-2.5c0.6-1.4,2.2-2.1,3.6-1.5C63.1,10.5,63.7,12.2,63.2,13.6z"/>
<path fill="#38434D" d="M60.1,16.5L58,16c-0.1,0-0.1-0.1-0.1-0.2c0-0.1,0.1-0.1,0.2-0.1l2.1,0.6c0.1,0,0.1,0.1,0.1,0.2
	C60.3,16.5,60.2,16.6,60.1,16.5z"/>
<path fill="#38434D" d="M59.9,17l-2.1-0.6c-0.1,0-0.1-0.1-0.1-0.2c0-0.1,0.1-0.1,0.2-0.1l2.1,0.6c0.1,0,0.1,0.1,0.1,0.2
	C60.1,16.9,60,17,59.9,17z"/>
<path fill="#38434D" d="M59.8,17.4l-2.1-0.6c-0.1,0-0.1-0.1-0.1-0.2c0-0.1,0.1-0.1,0.2-0.1l2.1,0.6c0.1,0,0.1,0.1,0.1,0.2
	C59.9,17.4,59.8,17.4,59.8,17.4z"/>
<path fill="#EDF0F1" d="M61.9,12.6c-0.1-0.1-0.3-0.1-0.4,0c-0.1,0.1-0.3,0.3-0.5,0.5c-0.1-0.1-0.2-0.2-0.3-0.3
	c0.2-0.1,0.3-0.2,0.3-0.3c0.1-0.2,0-0.3-0.2-0.4c-0.1-0.1-0.3,0-0.4,0.1c-0.1,0.1-0.1,0.3,0,0.5c0,0,0,0-0.1,0
	c-0.1,0.1-0.3,0.1-0.4,0c0-0.3,0-0.6,0-0.8c0-0.1-0.1-0.3-0.3-0.3c-0.2,0-0.3,0-0.4,0.2c-0.1,0.2-0.1,0.5,0.2,0.9
	c0.1,0.1,0.2,0.1,0.2,0.2c-0.1,0.9-0.5,1.9-0.8,2.6l0.2,0.1c0.3-0.7,0.7-1.7,0.8-2.6c0.2,0,0.4,0,0.5,0c0,0,0,0,0.1,0
	c0.1,0.2,0.2,0.3,0.4,0.4c-0.1,0.1-0.1,0.2-0.2,0.3c-0.3,0.6-0.7,1.3-1.1,2.2l0.2,0.1c0.4-0.9,0.7-1.6,1.1-2.2
	c0.1-0.1,0.1-0.2,0.2-0.3c0.1,0,0.3,0.1,0.4,0c0.3,0,0.4-0.2,0.5-0.4C62.1,12.8,62,12.7,61.9,12.6z M59.6,12.6
	c-0.2-0.2-0.3-0.4-0.2-0.6c0-0.1,0.1-0.1,0.2-0.1c0,0,0,0,0,0c0,0,0.1,0.1,0.1,0.1c0,0.2,0,0.4,0,0.7C59.7,12.7,59.7,12.7,59.6,12.6
	z M60.6,12.7c0-0.1,0-0.3,0-0.3c0-0.1,0.1-0.1,0.1,0l0,0c0,0,0.1,0.1,0.1,0.2C60.8,12.5,60.7,12.6,60.6,12.7z M61.4,13.2
	c-0.1,0-0.2,0-0.3,0c0.2-0.2,0.3-0.4,0.4-0.5c0.1-0.1,0.1-0.1,0.2,0c0,0,0,0,0,0c0.1,0,0.1,0.1,0.1,0.2
	C61.8,13.1,61.6,13.2,61.4,13.2z"/>
<path fill="#67747F" d="M47.9,12.2c-0.8,0.1-1.5-0.4-1.7-1.2l-0.3-1.8l2.8-0.5l0.3,1.8C49.2,11.4,48.7,12.1,47.9,12.2z"/>
<path fill="#FFC431" d="M50.2,4.7c0.2,1.1-0.2,2.2-0.9,3l0.1,0.7c0.1,0.5-0.2,0.9-0.7,1l-2.6,0.4c-0.5,0.1-0.9-0.2-1-0.7l-0.1-0.7
	c-0.9-0.5-1.7-1.4-1.9-2.5c-0.3-1.9,1-3.8,2.9-4.1C48.1,1.5,49.9,2.8,50.2,4.7z"/>
<path fill="#38434D" d="M48.9,10l-2.7,0.8c-0.1,0-0.2,0-0.3-0.1c0-0.1,0-0.2,0.1-0.3l2.7-0.8c0.1,0,0.2,0,0.3,0.1
	C49.1,9.8,49.1,9.9,48.9,10z"/>
<path fill="#38434D" d="M49.1,10.6l-2.7,0.8c-0.1,0-0.2,0-0.3-0.1c0-0.1,0-0.2,0.1-0.3l2.7-0.8c0.1,0,0.2,0,0.3,0.1
	C49.2,10.4,49.2,10.5,49.1,10.6z"/>
<path fill="#38434D" d="M49.2,11.2L46.5,12c-0.1,0-0.2,0-0.3-0.1c0-0.1,0-0.2,0.1-0.3l2.7-0.8c0.1,0,0.2,0,0.3,0.1
	C49.3,11,49.3,11.2,49.2,11.2z"/>
<path fill="#EDF0F1" d="M48.2,4.5c-0.2,0-0.4,0.1-0.5,0.3c0,0.2-0.1,0.5-0.2,0.9c-0.2,0-0.4,0-0.5-0.1c0.1-0.2,0.1-0.4,0.1-0.6
	c0-0.2-0.3-0.3-0.4-0.3c-0.2,0-0.3,0.2-0.3,0.4c0,0.2,0.1,0.4,0.3,0.5c0,0,0,0,0,0.1C46.6,5.9,46.4,6,46.2,6
	c-0.2-0.3-0.3-0.6-0.6-0.9c-0.1-0.1-0.3-0.2-0.5-0.1c-0.2,0.1-0.3,0.3-0.3,0.5c0,0.3,0.2,0.6,0.9,0.8c0.1,0,0.3,0,0.4,0
	c0.5,1,0.8,2.4,0.9,3.4l0.2,0c-0.2-1-0.4-2.4-0.9-3.4c0.2-0.1,0.4-0.2,0.6-0.4c0,0,0-0.1,0.1-0.1c0.2,0.1,0.4,0.2,0.6,0.2
	c0,0.1,0,0.3,0,0.5c0,0.9,0.2,1.9,0.3,3.1l0.2,0c-0.2-1.3-0.3-2.2-0.3-3.1c0-0.2,0-0.3,0-0.5c0.2,0,0.3-0.1,0.5-0.2
	c0.2-0.2,0.4-0.5,0.3-0.8C48.6,4.6,48.4,4.5,48.2,4.5z M45.8,6.1c-0.4-0.1-0.7-0.3-0.7-0.6c0-0.1,0.1-0.2,0.2-0.2c0,0,0,0,0.1,0
	c0.1,0,0.1,0,0.2,0.1c0.2,0.2,0.3,0.5,0.5,0.7C45.9,6.1,45.8,6.1,45.8,6.1z M46.9,5.5c-0.1-0.1-0.2-0.2-0.2-0.4
	c0-0.1,0.1-0.1,0.1-0.1l0,0c0.1,0,0.2,0,0.2,0.1C46.9,5.2,46.9,5.3,46.9,5.5z M48.1,5.5c-0.1,0.1-0.2,0.1-0.3,0.2
	c0-0.4,0.1-0.7,0.1-0.8c0-0.1,0.1-0.1,0.2-0.2c0,0,0,0,0.1,0c0.1,0,0.2,0.1,0.2,0.2C48.4,5.1,48.3,5.3,48.1,5.5z"/>
</svg>
