<?xml version="1.0" encoding="utf-8"?>
<!-- Generator: Adobe Illustrator 18.1.1, SVG Export Plug-In . SVG Version: 6.00 Build 0)  -->
<svg version="1.1" id="Layer_1" xmlns="http://www.w3.org/2000/svg" xmlns:xlink="http://www.w3.org/1999/xlink" x="0px" y="0px"
	 viewBox="0 0 100 100" enable-background="new 0 0 100 100" xml:space="preserve">
<path fill="#1D253D" d="M43.3,17.7v14.9h-6.5c-0.6,0-1.1-0.5-1.1-1.1V18.8c0-0.6,0.5-1.1,1.1-1.1H43.3z"/>
<path fill="#FAA31B" d="M68.8,24.8c-0.7,6.3-4.3,7.9-4.3,7.9H43.3V17.7c6-1.1,8.8-8.5,8.2-12.2c0.1-0.8,0.1-1.6,0-2.2
	c0.4-1.3,1.7-1,1.7-1c4.1,0.6,4.3,9.1,4.3,11.9c0,0.5,0.4,0.9,0.8,0.9c1.6,0.1,5,0.4,8,1.2c2,0.5,2.8,1,3,2.2
	C69.5,19.7,69.1,21.5,68.8,24.8z"/>
<path fill="#475A95" d="M43.3,17.7v12.6h-6.5c-0.6,0-1.1-0.5-1.1-1.1V18.8c0-0.6,0.5-1.1,1.1-1.1L43.3,17.7L43.3,17.7z"/>
<path fill="#FCB130" d="M69.2,18.5c-0.1,1-0.3,2.3-0.5,4c-0.7,6.3-4.3,7.8-4.3,7.8H43.3V17.7c3-0.6,5.3-2.8,6.7-5.4
	c1-1.9,1.3-4,1.5-6.1c0.1-1.2-0.4-4.4,1.7-4c4.1,0.6,4.3,9.1,4.3,11.9c0,0.5,0.4,0.9,0.8,0.9c1.6,0.1,5,0.4,8,1.2
	C68.2,16.8,69,17.4,69.2,18.5z"/>
<path fill="#BF6E3D" d="M60.7,32.6h3.2l-1.5,1.7v1.8h-2.3v-1.6c0-0.4,0.1-0.7,0.2-1L60.7,32.6z"/>
<path fill="#BF6E3D" d="M60.7,34.1c0.3-0.2,0.6-0.6,0.6-0.9s-0.3-0.8-0.6-0.9c-0.1-0.6-0.6-1.1-1.2-1.2c0.4,1,0.7,2.1,0.8,3.2
	L60.7,34.1z"/>
<path fill="#80431D" d="M60.2,31.3c0.2,0.1,0.3,0.3,0.4,0.5c0,0.1,0.1,0.3,0.1,0.4c0.1,0.1,0.2,0.2,0.3,0.2c0.2,0.1,0.4,0.4,0.4,0.6
	c0,0.3-0.1,0.6-0.2,0.8c0,0.1-0.2,0-0.1-0.1c0.1-0.3,0.2-0.5,0.2-0.8c0-0.3-0.2-0.4-0.5-0.6c-0.1-0.1-0.2-0.1-0.3-0.2
	c-0.1-0.1-0.1-0.2-0.1-0.3c0-0.2-0.1-0.5-0.3-0.5C60,31.4,60.1,31.3,60.2,31.3z"/>
<path fill="#BF6E3D" d="M40.1,32.6h-3.2l1.5,1.7v1.8h2.3v-1.6c0-0.4-0.1-0.7-0.2-1L40.1,32.6z"/>
<path fill="#475A95" d="M53.6,49.2c1.9-1.2,3.6-2.7,5.1-4.4c0.5-3,0.8-6.2,1.1-9.3c0.9-0.1,2-0.1,2.9-0.1c0.7,4.1,1,8.2,0.7,12.3
	c-2.6,2.5-5.3,5.4-7.9,7.9L53.6,49.2z"/>
<path fill="#1D253D" d="M63.2,45.9c0.2-0.2,0.3-0.4,0.4-0.7c0,0.8,0,1.7-0.1,2.5c-2.6,2.5-5.3,5.4-7.9,7.9l-0.5-1.5
	C58,51.6,60.8,49,63.2,45.9z"/>
<path fill="#1D253D" d="M60.1,37c0.6,0,1.3,0,1.9,0c0.1,0,0.1,0.1,0,0.1c-0.6,0-1.3,0-1.9,0C60,37.1,60,37,60.1,37z"/>
<path fill="#475A95" d="M47.1,49.2c-1.9-1.2-3.6-2.7-5.1-4.4c-0.5-3-0.8-6.2-1.1-9.3c-0.9-0.1-2-0.1-2.9-0.1
	c-0.7,4.1-1,8.2-0.7,12.3c2.6,2.5,5.3,5.4,7.9,7.9L47.1,49.2z"/>
<path fill="#1D253D" d="M45.3,53.5c0,0.5,0.1,1,0.1,1.5l-0.2,0.8c-2.6-2.5-5.3-5.4-7.9-7.9c-0.1-1.1-0.1-2.2-0.1-3.3
	C38.6,48.3,41.8,51.1,45.3,53.5z"/>
<path fill="#1D253D" d="M38.2,37.1c0.9,0,1.7-0.1,2.6-0.1c0.1,0,0.1,0.1,0,0.1c-0.9,0-1.7,0.1-2.6,0.1
	C38.1,37.2,38.1,37.1,38.2,37.1z"/>
<path fill="#122149" d="M44.1,94.4c0,0.4,0,0.7,0,1h2.1l0.1-1H44.1z"/>
<path fill="#122149" d="M54.3,94.4c0,0.4,0,0.7,0,1h2.1l0.1-1H54.3z"/>
<path fill="#1D253D" d="M56.5,66.4c-5.5,0.6-6.2,3.7-6.2,3.7l2.2,13L53.6,95h3.7C58.4,80.1,56.5,66.4,56.5,66.4z"/>
<path fill="#475A95" d="M51.7,69.9c0,0,2.4-1.6,2.7-2.9l-9.8,0.3c0,0-1.4,17.6-1.3,27.1H47L51.7,69.9z"/>
<path fill="#475A95" d="M51.5,71.3L47,95h-3.8c0-7.1,0.7-19.2,1.1-24.7C46.7,71.1,49.1,71.4,51.5,71.3z"/>
<path fill="#1D253D" d="M44.4,70.3c0.1-1.9,0.2-3,0.2-3l9.8-0.3c-0.3,1.4-2.7,2.9-2.7,2.9l-0.3,1.4C49.1,71.4,46.7,71.1,44.4,70.3z"
	/>
<path fill="#1D253D" d="M53.6,68.4c0.5-0.5,0.9-1,1-1.6l-9.2-0.4c0,0-0.1,1-0.1,1.4C48.1,68.4,50.9,68.6,53.6,68.4z"/>
<path fill="#122149" d="M46.3,95.3l-2.4-0.1c-0.7,0.7-1.2,1.6-1.4,2.5h4.4C46.7,96.9,46.5,96.1,46.3,95.3z"/>
<path fill="#A86327" d="M42.5,97.8c0,0.1,0,0.2-0.1,0.3c0,0.1,0.1,0.3,0.2,0.3h4c0.1,0,0.2-0.1,0.2-0.2c0-0.1,0-0.2,0-0.3H42.5z"/>
<path fill="#122149" d="M54.1,95.3l2.4-0.1c0.7,0.7,4.7,1.6,5,2.5h-7.9C53.7,96.9,53.9,96.1,54.1,95.3z"/>
<path fill="#A86327" d="M61.5,97.8c0,0.1,0,0.2,0.1,0.3c0,0.1-0.1,0.3-0.2,0.3h-7.6c-0.1,0-0.2-0.1-0.2-0.2c0-0.1,0-0.2,0-0.3H61.5z
	"/>
<path fill="#1D253D" d="M46,84.1c-0.3-0.5-0.6-1-0.9-1.6c-0.3-0.5-0.4-1.1-0.6-1.7c0-0.1-0.1,0-0.1,0c0.1,0.6,0.3,1.2,0.6,1.7
	c0.2,0.6,0.5,1.1,0.9,1.6C45.9,84.2,46,84.1,46,84.1z"/>
<path fill="#1D253D" d="M43.9,94.1h2.4c0.1,0,0.1,0.1,0,0.1h-2.4C43.8,94.2,43.8,94.1,43.9,94.1z"/>
<path fill="#B1E1F1" d="M55.6,51c0-0.6-0.5-1.2-1.1-1.4c-1.4-0.5-3-0.7-4.5-0.6c-1.4,0.1-2.8,0.4-4.1,0.8c-0.9,0.3-1.4,1-1.3,1.9
	c0.8,4.8,1.1,9.8,0.8,14.6c3.6,1,7.2,1.4,10.6,0.2C56,61.4,55.8,56,55.6,51z"/>
<path fill="#48BED1" d="M50.5,50.4c-0.4,0.2-0.8,0.4-1.1,0.7c-0.1-0.3-0.3-0.5-0.4-0.8c-0.1-0.2-0.2-0.3-0.2-0.5
	c-0.1-0.1-0.1-0.3-0.2-0.4c0-0.1-0.1,0-0.1,0.1c0,0.2,0.1,0.3,0.2,0.4c0.1,0.2,0.2,0.3,0.2,0.5c0.2,0.3,0.3,0.6,0.5,0.9
	c0,0.1,0.1,0.1,0.1,0c0.4-0.3,0.7-0.6,1.2-0.8C50.7,50.5,50.6,50.3,50.5,50.4z"/>
<path fill="#48BED1" d="M51.9,50.4c0-0.1,0-0.3,0-0.4c0-0.1,0-0.3,0-0.4c0,0-0.1,0-0.1,0c-0.1,0.1,0,0.3,0,0.4c0,0.1,0,0.3,0,0.4
	c0,0.2,0,0.4,0,0.7c-0.2-0.1-0.4-0.2-0.5-0.3c-0.1-0.1-0.2-0.1-0.3-0.2c-0.1-0.1-0.2-0.1-0.3-0.2c0,0-0.1,0,0,0.1
	c0.1,0.1,0.2,0.2,0.3,0.2c0.1,0.1,0.2,0.1,0.3,0.2c0.2,0.1,0.5,0.3,0.7,0.4c0,0,0.1,0,0.1-0.1C51.9,50.9,51.9,50.6,51.9,50.4z"/>
<path fill="#DB5326" d="M50.5,50.4L50,50.9l0.3,0.4l0,13.6l1,0.5l0.9-0.5l-1.2-13.6l0.1-0.5L50.5,50.4z"/>
<path fill="#475A95" d="M44.2,52.6c-0.2-1.2,0.3-2.4,1.2-2.8c0.7-0.3,1.6-0.5,2.4-0.6c0.6,2.7,3.3,8.1,3.3,8.1s2-6.2,0.8-8.3
	c0.8,0,2.2,0.2,3,0.6c0.7,0.4,1.2,1.6,1.2,2.5c0.3,5.7,1.4,11.6,1.8,17.4c-0.6,0.3-1.3,0.3-1.9,0.3c-1,0.1-2,0.1-2.9,0.2
	c-3.2,0.1-6.3,0-9.3-1.1C44.3,63.4,45,58,44.2,52.6z"/>
<path fill="#1D253D" d="M45.3,53.5c0.5,5.1,0,10.4-1,15.5c-0.2-0.1-0.3-0.1-0.5-0.2c0.4-5.4,1.1-10.7,0.4-16.1
	C44.6,53,44.9,53.2,45.3,53.5z"/>
<path fill="#1D253D" d="M52.9,53.8l1.1-0.4c0.1,0,0.2-0.1,0.3-0.1c0.1,0,0.2,0,0.2-0.1c0.2-0.1,0.1-0.3,0.1-0.4
	c-0.2-0.7-0.5-1.5-0.7-2.2c0-0.1,0.1-0.1,0.1,0c0.2,0.6,0.4,1.2,0.6,1.9c0,0.1,0.1,0.3,0.1,0.4c0,0.1,0,0.2,0,0.3
	c-0.1,0.1-0.2,0.2-0.3,0.2c-0.1,0.1-0.3,0.1-0.4,0.2c-0.3,0.1-0.7,0.2-1,0.4C52.9,54,52.8,53.8,52.9,53.8z"/>
<path fill="#1D253D" d="M53,53.8c0.4,0.4,0.8,0.8,1.2,1.3c0.1,0.1,0,0.2-0.1,0.1c-0.4-0.4-0.8-0.8-1.2-1.3
	C52.8,53.9,52.9,53.8,53,53.8z"/>
<path fill="#1D253D" d="M51.3,58.5c0.9-1.2,1.8-2.3,2.8-3.5c0.1-0.1,0.2,0,0.1,0.1c-0.9,1.2-1.8,2.3-2.8,3.5
	C51.4,58.7,51.3,58.6,51.3,58.5z"/>
<path fill="#1D253D" d="M48.5,54l-1.1-0.2c-0.1,0-0.2,0-0.3-0.1c-0.1,0-0.2,0-0.2-0.1c-0.2-0.1-0.1-0.3-0.1-0.4
	c0.1-0.8,0.3-1.5,0.4-2.3c0-0.1-0.1-0.1-0.1,0c-0.1,0.6-0.2,1.3-0.3,1.9c0,0.1-0.1,0.3-0.1,0.5c0,0.1,0,0.2,0.1,0.3
	c0.1,0.1,0.2,0.1,0.3,0.1c0.2,0,0.3,0.1,0.5,0.1c0.4,0.1,0.7,0.1,1.1,0.2C48.5,54.2,48.6,54.1,48.5,54z"/>
<path fill="#1D253D" d="M48.4,54.1c-0.3,0.5-0.7,0.9-1,1.4c-0.1,0.1,0.1,0.2,0.1,0.1c0.3-0.5,0.7-0.9,1-1.4
	C48.5,54.1,48.4,54,48.4,54.1z"/>
<path fill="#1D253D" d="M50.7,58.5c-1.1-1-2.1-2-3.2-3c-0.1-0.1-0.2,0-0.1,0.1c1.1,1,2.1,2,3.2,3C50.6,58.7,50.7,58.6,50.7,58.5z"/>
<path fill="#1D253D" d="M51.1,57.6c0.1,1.6,0.2,3.2,0.2,4.9c0.1,1.6,0.1,3.3,0.1,4.9c0,0.9,0,1.8,0,2.7c0,0.1-0.1,0.1-0.1,0
	c0-1.6,0-3.3,0-4.9c0-1.6-0.1-3.3-0.2-4.9c0-0.9-0.1-1.8-0.2-2.7C51,57.5,51.1,57.5,51.1,57.6z"/>
<path fill="#1D253D" d="M53.6,65c0.9,0.2,1.8,0.2,2.6-0.1c0.1,0,0.1,0.1,0,0.1c-0.9,0.3-1.8,0.4-2.7,0.1
	C53.5,65.1,53.5,64.9,53.6,65z"/>
<path fill="#1D253D" d="M45.8,65.2c0.9,0.2,1.8,0.2,2.6-0.1c0.1,0,0.1,0.1,0,0.1c-0.9,0.3-1.8,0.4-2.7,0.1
	C45.7,65.3,45.7,65.1,45.8,65.2z"/>
<path fill="#7B2A23" d="M53.1,44.4c0.3-0.9,0.2-1.9-0.2-2.7c0-0.2,0-0.4-0.1-0.6c-0.1-0.2-0.3-0.3-0.5-0.4c-0.2-0.1-0.5-0.2-0.8-0.1
	c-0.3,0.1-0.5,0.3-0.5,0.6c-0.2-0.1-0.4-0.3-0.6-0.3c-0.2-0.1-0.5-0.1-0.7,0c-0.2,0.1-0.4,0.2-0.5,0.5c-0.1,0.2,0,0.5,0.3,0.6
	c-0.2-0.2-0.6-0.3-0.9-0.1c-0.3,0.1-0.4,0.4-0.6,0.6c-0.1,0.2-0.1,0.4-0.1,0.7c0,0.2,0.2,0.4,0.4,0.5c-0.4,0.2-0.5,0.7-0.4,1.1
	c0.1,0.4,0.3,0.8,0.6,1.1c0.3,0.3,0.6,0.6,0.8,1L53.1,44.4z"/>
<path fill="#3B1713" d="M53,44.5c0.2-0.8,0.2-1.8-0.2-2.6c0-0.2,0-0.4-0.1-0.6c-0.1-0.2-0.2-0.3-0.4-0.4c-0.2-0.1-0.5-0.2-0.7-0.1
	c-0.2,0.1-0.4,0.3-0.5,0.6c-0.2-0.1-0.3-0.2-0.6-0.3c-0.2-0.1-0.4-0.1-0.6,0c-0.2,0.1-0.4,0.2-0.5,0.5c-0.1,0.2,0,0.5,0.2,0.6
	c-0.2-0.2-0.5-0.3-0.8-0.1c-0.2,0.1-0.4,0.3-0.5,0.6c-0.1,0.2-0.1,0.4-0.1,0.6c0,0.2,0.2,0.4,0.3,0.5c-0.3,0.2-0.5,0.6-0.4,1.1
	c0.1,0.4,0.3,0.8,0.6,1.1c0.3,0.3,0.5,0.6,0.7,1L53,44.5z"/>
<path fill="#BF6E3D" d="M49,45.6c0.1,1.2,0.1,2.4-0.1,3.5c0,0.2,0.1,0.5,0.3,0.6c0.5,0.4,1.2,0.5,1.9,0.4c0.3,0,0.6-0.4,0.5-0.7
	c-0.1-0.8-0.1-1.5-0.1-2.3C50.8,46.4,49.9,46,49,45.6z"/>
<path fill="#80431D" d="M51.5,47.3c-0.6-0.8-1.5-1.3-2.5-1.6c0,0.3,0,0.6,0,0.9c0.4,1.3,1.4,2.1,2.5,2.4
	C51.5,48.4,51.5,47.9,51.5,47.3z"/>
<path fill="#BF6E3D" d="M53.1,43.7c0.2,1.6-0.1,4.4-1.4,4.6c-1.5,0.1-2.3-1.1-2.7-2.3c0,0-0.1,0.1-0.3,0.1c-0.1,0-0.3-0.2-0.4-0.3
	c-0.1-0.2-0.3-0.6-0.1-0.8c0.2-0.3,0.6-0.4,0.8,0c0-0.6,0.2-1.1,0.4-1.7c0.1-0.2,0.2-0.3,0.4-0.4c0.8-0.3,1.9-0.3,2.7-0.1
	c0.2,0.1,0.4,0.2,0.4,0.4C53.1,43.4,53.1,43.6,53.1,43.7z"/>
<path fill="#814F25" d="M48.9,45.5c-0.1,0-0.1,0-0.1-0.1c0,0,0-0.1,0-0.1c0,0,0,0,0.1,0c0,0,0.1,0,0.1-0.1c0-0.2-0.2-0.3-0.4-0.3
	c-0.1,0-0.2,0.1-0.2,0.1c0,0,0,0.1,0,0.1c0,0,0,0.1,0.1,0.1c0,0,0,0,0-0.1c0,0,0,0,0-0.1c0,0,0.1-0.1,0.1-0.1c0.1,0,0.2,0.1,0.2,0.2
	c-0.1,0-0.1,0.1-0.1,0.2c0,0.1,0.2,0.2,0.3,0.2C49,45.6,49,45.5,48.9,45.5z"/>
<path fill="#1D253D" d="M56.1,51.8c0.1,2.2,0.3,4.3,0.6,6.5c0.1,0.6,0.2,1.2,0.3,1.8c0,0.1-0.1,0.1-0.1,0c-0.3-2.1-0.6-4.3-0.7-6.5
	c0-0.6-0.1-1.2-0.1-1.8C56,51.8,56.1,51.8,56.1,51.8z"/>
<path fill="#BF6E3D" d="M40.1,34.1c-0.3-0.2-0.6-0.6-0.6-0.9c0-0.4,0.3-0.8,0.6-0.9c0.1-0.6,0.6-1.1,1.2-1.2c-0.4,1-0.7,2.1-0.8,3.2
	L40.1,34.1z"/>
<path fill="#80431D" d="M40.6,31.3c-0.2,0.1-0.3,0.3-0.4,0.5c0,0.1-0.1,0.3-0.1,0.4c-0.1,0.1-0.2,0.2-0.3,0.2
	c-0.2,0.1-0.4,0.4-0.4,0.6c0,0.3,0.1,0.6,0.2,0.8c0,0.1,0.2,0,0.1-0.1c-0.1-0.3-0.2-0.5-0.2-0.8c0-0.3,0.2-0.4,0.5-0.6
	c0.1-0.1,0.2-0.1,0.3-0.2c0.1-0.1,0.1-0.2,0.1-0.3c0-0.2,0.1-0.5,0.3-0.5C40.8,31.4,40.7,31.3,40.6,31.3z"/>
<path fill="#97442A" d="M77,43.8c1,0.3,1.9,1.2,2,2.3c0,0.2,0.1,0.5,0.2,0.7c0.1,0.2,0.4,0.4,0.5,0.6c0.1,0.3-0.2,0.6,0,0.8
	c0.1,0.3,0.5,0.3,0.7,0.5c0.1,0.3-0.2,0.6,0,0.9c0.1,0.3,0.5,0.3,0.7,0.4c0.2,0.1,0.3,0.4,0.3,0.7c0,0.3-0.1,0.5-0.2,0.8
	c-0.7,1.4-2.2,2.4-3.7,2.7c-1.6,0.3-3.2,0-4.6-0.6c-0.3-0.1-0.7-0.3-0.9-0.6c-0.2-0.3-0.3-0.7-0.1-1c0.1-0.1,0.2-0.2,0.3-0.3
	c0.2-0.5-0.5-0.9-0.4-1.4c0.1-0.3,0.3-0.4,0.5-0.6c0.2-0.2,0.4-0.4,0.4-0.7c0-0.1-0.1-0.2-0.2-0.4c-0.1-0.3,0.3-0.6,0.5-0.9
	c0.4-0.5,0.4-1.1,0.5-1.7C73.6,44.4,75.3,43.3,77,43.8z"/>
<path fill="#6D311F" d="M76.9,44.4c1,0.3,1.8,1.2,1.9,2.2c0,0.2,0,0.5,0.2,0.7c0.1,0.2,0.4,0.3,0.5,0.6c0.1,0.3-0.2,0.5,0,0.8
	c0.1,0.2,0.5,0.2,0.6,0.5c0.1,0.3-0.2,0.6,0,0.9c0.1,0.2,0.5,0.2,0.7,0.4c0.2,0.1,0.3,0.4,0.3,0.6c0,0.3-0.1,0.5-0.2,0.7
	c-0.7,1.3-2,2.2-3.5,2.5c-1.5,0.3-3,0-4.4-0.5c-0.3-0.1-0.7-0.3-0.9-0.6c-0.2-0.3-0.3-0.7-0.1-1c0.1-0.1,0.2-0.2,0.3-0.3
	c0.2-0.4-0.4-0.9-0.3-1.3c0.1-0.2,0.3-0.4,0.5-0.5c0.2-0.1,0.4-0.4,0.4-0.6c0-0.1-0.1-0.2-0.1-0.3c-0.1-0.3,0.3-0.6,0.5-0.8
	c0.4-0.4,0.4-1.1,0.5-1.6C73.8,44.9,75.4,43.9,76.9,44.4z"/>
<path fill="#F79426" d="M86.7,47.9c0-0.2-0.1-0.4-0.3-0.5c-0.2-0.1-0.3-0.1-0.5-0.2c-0.5-0.1-1.1-0.2-1.6-0.2
	c-0.3,0-0.5,0.2-0.6,0.5c0,0.1-0.1,0.3-0.1,0.4c-0.4,0.3-0.4,0.8-0.3,1.3c-0.9,0.8-2.3,1.8-3.4,2.1c-1.1,0.3-2.3,0.7-2.8,1.8
	c-0.4,0.7-0.4,1.5-0.3,2.3c0,0.6,0.1,1.2,0.8,1.4c0.2,0.1,0.5,0.1,0.7,0c1.6-0.3,2.5-1.6,3.9-2.5c1.3-0.8,2.6-1.6,3.5-2.8
	C86.6,50.4,87.5,49.2,86.7,47.9z"/>
<path fill="#F79426" d="M86.8,49.9c0.3-0.6,0.3-1.3-0.1-1.9c0-0.2-0.1-0.4-0.3-0.5c-0.2-0.1-0.3-0.1-0.5-0.2
	c-0.5-0.1-1.1-0.2-1.6-0.2c-0.3,0-0.5,0.2-0.6,0.5c0,0.1-0.1,0.3-0.1,0.4c-0.4,0.3-0.4,0.8-0.3,1.3c-0.9,0.8-2.3,1.8-3.4,2.1
	c-1.1,0.3-2.3,0.7-2.8,1.8c-0.4,0.7-0.4,1.5-0.3,2.3c0,0.1,0,0.3,0,0.4C80.5,54.7,84.2,52.8,86.8,49.9z"/>
<path fill="#A86327" d="M76.8,55.9c0.1,0.5,0.2,0.9,0.8,1c0.2,0.1,0.5,0.1,0.7,0c1.6-0.3,2.5-1.6,3.9-2.5c1.3-0.8,2.6-1.6,3.5-2.8
	c0.4-0.6,0.8-1.2,1.1-1.7C84.2,52.8,80.5,54.7,76.8,55.9z"/>
<path fill="#FBC9BA" d="M84,42.4l-0.1,5.1c0,0.4,0.3,0.7,0.6,0.7c0.3,0,0.7,0,1.1-0.2c0.3-0.1,0.4-0.4,0.4-0.7l-0.7-5
	C85.2,42.3,84.5,42.2,84,42.4z"/>
<path fill="#A86327" d="M85,50.4c-0.6-0.1-1.1-0.4-1.5-0.9c-0.1-0.1-0.2,0-0.1,0.1c0.4,0.5,0.9,0.9,1.6,0.9
	C85.1,50.5,85.1,50.4,85,50.4z"/>
<path fill="#A86327" d="M85.4,48.6c-0.4,0-0.9-0.1-1.3-0.3c-0.1,0-0.2,0.1-0.1,0.1c0.4,0.2,0.9,0.4,1.3,0.4
	C85.5,48.7,85.5,48.6,85.4,48.6z"/>
<path fill="#F79426" d="M76.4,50.9c-1-0.3-2-0.2-3,0.2c-0.4,0.2-0.9,0.5-0.9,1c0,0.4,0.4,0.7,0.8,0.9c1.3,0.7,2.9,0.9,4.4,0.6
	c0.7-0.2,1.4-0.8,0.8-1.4C77.9,51.5,77.2,51.1,76.4,50.9z"/>
<path fill="#F79426" d="M73.3,52.7c-1,0.2-1.9,1-2.5,1.9c-0.6,0.9-1.1,2-1.7,2.8c-0.5,0.7-1.2,1.3-1.7,2.1c-0.5,0.8-0.8,1.8-0.4,2.6
	c0.4,0.8,1.3,1.2,2.1,1.2c0.6,0,1.2-0.2,1.6-0.7c0.3-0.4,0.4-0.9,0.4-1.4c0-0.1,0-0.2,0-0.3c-0.1-0.6,0.1-1.1,0.5-1.5
	c0.1-0.1,0.2-0.3,0.3-0.4c0.7-0.9,1.3-1.9,1.6-3.1C73.8,55,73.8,53.7,73.3,52.7z"/>
<path fill="#F79426" d="M73.4,56.4c0-0.1,0.1-0.2,0.1-0.3c0.3-1.1,0.3-2.4-0.2-3.4c-1,0.2-1.9,1-2.5,1.9c-0.6,0.9-1.1,2-1.7,2.8
	c-0.5,0.7-1.2,1.3-1.7,2.1c-0.5,0.8-0.8,1.8-0.4,2.6c0.4,0.8,1.3,1.2,2.1,1.2c0.6,0,1.2-0.2,1.6-0.7c0.3-0.4,0.4-0.9,0.4-1.4
	c0-0.1,0-0.2,0-0.3c0,0,0,0,0-0.1c-0.2-0.4-0.4-0.8-0.7-1.2C71.5,58.8,72.6,57.7,73.4,56.4z"/>
<path fill="#A86327" d="M70.3,59.8c0.3,0.4,0.5,0.8,0.7,1.2c0-0.5,0.2-1.1,0.5-1.4c0.1-0.1,0.2-0.3,0.3-0.4c0.6-0.9,1.2-1.8,1.5-2.8
	C72.6,57.7,71.5,58.8,70.3,59.8z"/>
<path fill="#1D253D" d="M77.8,69c0.6-0.7,1-1.4,1.1-1.9l-7.5-1.4c-0.2,0.6-0.6,1.2-0.8,1.9C72.9,68.4,75.4,69,77.8,69z"/>
<path fill="#FFFFFF" d="M76.7,96.4l1.6,0c0.4,0.4,3,1,3.2,1.6h-5.1C76.4,97.4,76.5,96.9,76.7,96.4z"/>
<path fill="#475A95" d="M81.4,98c0,0.1,0,0.1,0,0.2c0,0.1-0.1,0.2-0.1,0.2h-4.9c-0.1,0-0.2-0.1-0.1-0.2c0-0.1,0-0.1,0-0.2H81.4z"/>
<path fill="#1D253D" d="M80.5,66.6c-2.2,0.8-3.3,0.5-5.7,0.5c-0.2,1.3,0.6,4.2,0.6,4.2l0.1,2.1h5.8C81.3,71,81.1,68.6,80.5,66.6z"/>
<path fill="#026DB1" d="M75.5,73.3l0.1,1l5.6,0.1c0-0.3,0.1-0.7,0.1-1.1L75.5,73.3z"/>
<path fill="#FFFFFF" d="M74.3,96.4l-1.5,0c-0.4,0.4-1.1,1-1.3,1.6h3.2C74.6,97.4,74.4,96.9,74.3,96.4z"/>
<path fill="#475A95" d="M71.4,98c0,0.1,0,0.1,0,0.2c0,0.1,0.1,0.2,0.1,0.2h3c0.1,0,0.2-0.1,0.1-0.2c0-0.1,0-0.1,0-0.2H71.4z"/>
<path fill="#475A95" d="M75.5,71.3c0,0,1.2-1.1,2.2-2.3c-2.4,0-4.9-0.6-7.1-1.4c-0.5,1.9-0.8,3.8-0.9,5.8h5.7L75.5,71.3z"/>
<path fill="#1481C4" d="M69.8,73.3c0,0.4,0,0.7,0,1.1h5.7v-1.1H69.8z"/>
<path fill="#F79426" d="M79.9,61.5c0-2.8,0.3-5,0.4-7.8c0-0.3-0.1-0.6-0.3-0.8c-4-2-6.9-0.4-7.5,0.1c-0.3,0.2-0.5,0.7-0.3,1.1
	c0.7,2.3,0.7,4.4,0.3,6.8c-0.3,1.9-2.3,4-1.8,6.4c3.2,1.4,7,1.3,10.5,0.6C82,66.3,79.9,63,79.9,61.5z"/>
<path fill="#FBC9BA" d="M75.2,48.5c0.1,1.1,0.2,2.3,0.2,3.5c0,0.2,0.1,0.5,0.2,0.6c0.4,0.3,0.9,0.5,1.3,0.3c0.2-0.1,0.3-0.4,0.3-0.7
	C77.1,51.5,77,50.8,77,50C76.5,49.2,75.9,48.8,75.2,48.5z"/>
<path fill="#F9AA91" d="M77,50c-0.5-0.8-1.1-1.2-1.8-1.5c0,0.3,0.1,0.6,0.1,0.9c0.5,0.9,1.1,1.8,1.8,2.3C77.1,51.2,77,50.6,77,50z"
	/>
<path fill="#A86327" d="M79.8,67.5c-1.1,0.3-2.2,0.5-3.3,0.5c-1.1,0-2.2-0.1-3.3-0.3c-0.6-0.1-1.2-0.3-1.8-0.5c-0.1,0-0.1,0.1,0,0.1
	c1,0.4,2.1,0.6,3.2,0.8c1.1,0.1,2.2,0.1,3.3,0c0.6-0.1,1.2-0.2,1.8-0.4C79.9,67.6,79.9,67.5,79.8,67.5z"/>
<path fill="#FBC9BA" d="M78.3,46.4c0.4,1.8-0.1,3.9-0.5,3.9c-1.6,0.2-2.6-1.2-2.6-1.2c0,0-0.2,0.1-0.4,0.2c-0.1,0-0.4-0.1-0.5-0.2
	c-0.2-0.2-0.4-0.5-0.3-0.8c0.1-0.3,0.6-0.5,0.9-0.2c0.5-0.9,0.1-1.4,0-2.1c0.8-0.6,1.8-0.9,2.8-0.8C77.9,45.3,78.2,46.2,78.3,46.4z"
	/>
<path fill="#F9AA91" d="M74.8,48.7c0,0-0.1,0-0.1,0c0,0,0-0.1,0-0.1c0,0,0,0,0.1-0.1c0,0,0.1-0.1,0-0.1c-0.1-0.2-0.3-0.3-0.4-0.2
	c-0.1,0-0.1,0.1-0.2,0.2c0,0,0,0.1,0,0.1c0,0,0.1,0.1,0.1,0c0,0,0,0,0-0.1c0,0,0,0,0-0.1c0,0,0.1-0.1,0.1-0.1c0.1,0,0.2,0,0.2,0.1
	c-0.1,0.1-0.1,0.2-0.1,0.3C74.6,48.9,74.7,48.9,74.8,48.7C74.9,48.8,74.8,48.7,74.8,48.7z"/>
<path fill="#A86327" d="M74.4,63.4c-0.1,0.9-0.6,1.7-1.4,2.2c-0.1,0.1,0,0.2,0.1,0.1c0.8-0.5,1.3-1.4,1.4-2.3
	C74.6,63.3,74.4,63.3,74.4,63.4z"/>
<path fill="#A86327" d="M78.9,63.2c-1.5,0-3,0.1-4.5,0.1c-0.1,0-0.1,0.1,0,0.1c1.5,0,3-0.1,4.5-0.1C79,63.4,79,63.2,78.9,63.2z"/>
<path fill="#A86327" d="M79.8,65.1c-0.6-0.4-0.9-1.1-0.8-1.8c0-0.1-0.1-0.1-0.1,0c-0.1,0.7,0.3,1.5,0.9,1.9
	C79.8,65.2,79.9,65.1,79.8,65.1z"/>
<path fill="#FBC9BA" d="M74.2,64.1l-4.5-3.4c0,0-1.1,0.6-1,2l4.9,2.5C73.6,65.1,74,64.6,74.2,64.1z"/>
<path fill="#A86327" d="M69.8,60.6c-0.8,0.4-1.4,1.3-1.2,2.3c0,0.1,0.2,0.1,0.1,0c-0.1-0.9,0.4-1.7,1.2-2.1
	C69.9,60.7,69.8,60.6,69.8,60.6z"/>
<path fill="#A86327" d="M70.5,60.6c-0.4-0.5-1-0.6-1.6-0.4c-0.1,0,0,0.2,0.1,0.1c0.5-0.2,1.1,0,1.4,0.4
	C70.5,60.8,70.6,60.7,70.5,60.6z"/>
<path fill="#A86327" d="M72.6,56.1c0-0.1-0.2-0.1-0.1,0c0.1,1.4,0.1,2.8-0.1,4.2c0,0.1,0.1,0.1,0.1,0C72.7,58.8,72.7,57.4,72.6,56.1
	z"/>
<path fill="#A86327" d="M77.6,52.1c0-0.1-0.2-0.1-0.1,0c0.1,0.3-0.1,0.7-0.3,0.9c-0.1,0.1-0.2,0.3-0.3,0.4c-0.1,0.1-0.3,0.1-0.4,0
	c-0.1-0.1-0.2-0.2-0.4-0.3c-0.1-0.1-0.3-0.2-0.4-0.3c-0.3-0.2-0.6-0.3-0.9-0.4c-0.3-0.1-0.7-0.2-0.8-0.6c0-0.1-0.2-0.1-0.1,0
	c0,0.3,0.4,0.5,0.7,0.6c0.4,0.1,0.7,0.2,1,0.4c0.2,0.1,0.3,0.2,0.5,0.3c0.1,0.1,0.3,0.2,0.4,0.3c0.3,0.2,0.6-0.1,0.8-0.4
	C77.5,52.9,77.7,52.5,77.6,52.1z"/>
<path fill="#FFFFFF" d="M75.3,53.9c0-0.1-0.2-0.1-0.1,0c0.3,0.9,0.4,1.9,0.3,2.8c0,0.1,0.1,0.1,0.1,0C75.7,55.8,75.6,54.8,75.3,53.9
	z"/>
<path fill="#FFFFFF" d="M77.8,53.7c0-0.1-0.2-0.1-0.1,0c0.3,1,0.4,2.2,0.2,3.2c0,0.1,0.1,0.1,0.1,0C78.2,55.9,78.1,54.7,77.8,53.7z"
	/>
<path fill="#FBC9BA" d="M72.7,96.4l-0.9-4.8c-0.3-1.6-0.4-5-0.4-6.7l0-1.8L70,74.4h5.1l-1.4,8.9l0.2,0.9c0.4,2,0.6,5.7,0.5,7.7
	l-0.2,4.5L72.7,96.4z"/>
<path fill="#FBC9BA" d="M81.2,74.4l-3,22h-1.6l-0.3-5.9c-0.1-1.7,0.2-5.2,0.7-6.8l-1.3-9.3L81.2,74.4z"/>
<path fill="#F9AA91" d="M75.2,74.4H70l0.1,0.5h5L75.2,74.4z"/>
<path fill="#FBC9BA" d="M73.8,83.3l1.3-8.5h-5l1.4,8.2l0,1.8c0,1.7,0.1,5.1,0.4,6.7l0.9,4.8l1.6,0l0.2-4.5c0.1-2-0.1-5.7-0.5-7.7
	L73.8,83.3z"/>
<path fill="#F9AA91" d="M81.2,74.4l-5.4-0.1l0.1,0.5h5.3L81.2,74.4z"/>
<path fill="#FBC9BA" d="M75.9,74.9l1.3,8.8c-0.6,1.6-0.8,5.1-0.7,6.8l0.3,5.9h1.6l2.9-21.5H75.9z"/>
<path fill="#FBC9BA" d="M85.2,42.6L85.2,42.6l0.9-1.7l-0.9-0.7l-0.9,0.4L84.1,42C84,42.2,84,42.3,84,42.5L85.2,42.6z"/>
<path fill="#FCB130" d="M85.1,23.8l3.3,6.6l7.3,1.1l-5.3,5.1l1.2,7.3l-6.5-3.4l-6.5,3.4l1.2-7.3l-5.3-5.1l7.3-1.1L85.1,23.8z"/>
<path fill="#FAA31B" d="M77.4,31l-2.9,0.4l5.3,5.1l-1.2,7.3l6.5-3.4l6.5,3.4l-1.1-6.2C85.4,37.5,80.4,35.1,77.4,31z"/>
<path fill="#FBC9BA" d="M84.2,42.4c0.2-0.1,0.3-0.4,0.3-0.7c0-0.3-0.2-0.6-0.4-0.7c0-0.5-0.4-0.9-0.7-1c0.3,0.8,0.4,1.7,0.5,2.5
	L84.2,42.4z"/>
<path fill="#F9AA91" d="M83.9,40.2c0.1,0.1,0.2,0.3,0.2,0.4c0,0.1,0,0.2,0.1,0.3c0,0.1,0.1,0.1,0.2,0.2c0.1,0.1,0.2,0.3,0.2,0.5
	c0,0.2,0,0.5-0.1,0.7c0,0.1-0.1,0-0.1-0.1c0.1-0.2,0.1-0.4,0.1-0.6c0-0.2-0.1-0.3-0.3-0.4c-0.1,0-0.1-0.1-0.1-0.2
	c0-0.1-0.1-0.2-0.1-0.2c0-0.2,0-0.4-0.2-0.4C83.9,40.3,83.9,40.2,83.9,40.2z"/>
<path fill="#6D311F" d="M77,45.4c-0.1,0.2-0.3,0.3-0.5,0.4c-0.2,0.1-0.4,0.3-0.5,0.5c-0.1,0.2,0,0.4,0,0.7c0,0.3-0.2,0.6-0.5,0.8
	c-0.3,0.2-0.7,0.3-1,0.3c0-0.7-0.1-1.4,0.3-2c0.3-0.4,0.7-0.7,1.3-0.9C76.6,44.9,77.5,44.7,77,45.4z"/>
<path fill="#475A95" d="M25.9,47.3c-0.2,0.3-0.4,0.6-0.6,0.8C24,48.4,23.5,48.8,23,50l0.9,4.6c1.9-0.7,3.3-2.5,4.6-4
	c0.1-0.1,0.2-0.3,0.3-0.4c-0.1,0-0.2,0-0.3,0C27.2,49.9,26,48.7,25.9,47.3z"/>
<path fill="#F9AA92" d="M30.1,45.8c-0.2-0.6-0.7-1.3-1.3-1.3c-0.4,0-0.7,0.2-0.9,0.4c-0.6,0.5-1.4,1.5-2,2.3
	c0.2,1.3,1.3,2.6,2.6,2.8c0.1,0,0.2,0,0.3,0C29.9,48.8,30.7,47.6,30.1,45.8z"/>
<path fill="#F9AA92" d="M17.4,50.4c0-0.4-0.2-0.7-0.4-1c-0.3-0.3-0.6-0.4-1-0.5c-0.8-0.3-1.6-0.3-2.4-0.1c-1.4-0.9-2.7-1.9-4-3
	c-0.8,0.6-1.6,1.8-2.2,2.6c2.4,2.9,5.6,4.9,9.1,6.2L17.4,50.4z"/>
<path fill="#475A95" d="M17.4,50.4c0-0.4-0.2-0.7-0.4-1c-0.3-0.3-0.6-0.4-1-0.5c-0.8-0.3-1.6-0.3-2.4-0.1c-0.4-0.3-0.8-0.6-1.2-0.9
	c-0.8,1.1-1.2,2.4-1.4,3.7c1.7,1.2,3.6,2.1,5.6,2.9L17.4,50.4z"/>
<path fill="#1D253D" d="M15.9,54.2c-1.6-1.2-3.1-2.6-4.7-3.9c-0.1,0.4-0.2,0.8-0.2,1.2C12.5,52.7,14.1,53.6,15.9,54.2z"/>
<path fill="#A86327" d="M15.7,66.8c5,0.6,4.9,3.7,4.9,3.7l-2,12.9l-1.4,11.2h-2.4C13.8,79.8,15.7,66.8,15.7,66.8z"/>
<path fill="#F79426" d="M19.2,70.3c0,0-2.2-1.5-2.5-2.9l8.3,0.3c0,0,1.4,17.4,1.3,26.8H24L19.2,70.3z"/>
<path fill="#F9AA92" d="M26.2,94.5c0,0.4,0,0.7,0,1h-1.9l-0.1-1H26.2z"/>
<path fill="#F9AA92" d="M16.9,94.5c0,0.4,0,0.7,0,1h-1.9l-0.1-1H16.9z"/>
<path fill="#A86327" d="M17.5,68.7c-0.4-0.5-0.8-1-0.9-1.5l8.4-0.4c0,0,0.1,1,0.1,1.4C22.6,68.8,20,69,17.5,68.7z"/>
<path fill="#475A95" d="M24.2,95.4l2.2-0.1c0.6,0.7,1,1.6,1.3,2.5h-3.9C23.8,97,23.9,96.1,24.2,95.4z"/>
<path fill="#A86327" d="M27.6,97.8c0,0.1,0,0.2,0.1,0.3c0,0.1-0.1,0.3-0.2,0.3h-3.6c-0.1,0-0.2-0.1-0.2-0.2c0-0.1,0-0.2,0-0.3
	L27.6,97.8L27.6,97.8z"/>
<path fill="#475A95" d="M17,95.4l-2.2-0.1c-0.6,0.7-4.3,1.6-4.5,2.5h7.2C17.5,97,17.3,96.1,17,95.4z"/>
<path fill="#A86327" d="M10.4,97.8c0,0.1,0,0.2-0.1,0.3c0,0.1,0.1,0.3,0.2,0.3h6.9c0.1,0,0.2-0.1,0.2-0.2c0-0.1,0-0.2,0-0.3
	L10.4,97.8L10.4,97.8z"/>
<path fill="#A86327" d="M24.4,84.2c0.3-0.5,0.6-1,0.8-1.5c0.2-0.5,0.4-1.1,0.6-1.7c0-0.1,0.1,0,0.1,0c-0.1,0.6-0.3,1.2-0.5,1.7
	C25.1,83.3,24.9,83.8,24.4,84.2C24.5,84.4,24.4,84.3,24.4,84.2z"/>
<path fill="#475A95" d="M15.9,51c0-0.7,0.5-1.3,1.1-1.5c1.3-0.6,2.8-0.7,4.3-0.6c1.3,0.1,2.6,0.4,3.9,0.8c0.8,0.3,1.3,1.1,1.2,2
	c-0.8,4.9-1.1,10-0.9,15c0,0.3,0,0.8-0.3,0.9c-2.8,0.9-6.9,1-9.6,0.3c-0.7-0.2-0.1-0.8-0.1-1.5C15.4,61.2,15.6,55.9,15.9,51z"/>
<path fill="#F9AA92" d="M22.1,45.6c-0.1,1.1-0.1,2.2,0.1,3.3c0,0.2-0.1,0.4-0.3,0.6c-0.5,0.4-1.2,0.5-1.8,0.4
	c-0.3,0-0.5-0.3-0.5-0.6c0.1-0.7,0.1-1.4,0.1-2.1C20.4,46.4,21.2,45.9,22.1,45.6z"/>
<path fill="#F58A68" d="M19.7,47.2c0.6-0.8,1.4-1.2,2.4-1.5c0,0.5-0.1,0.9,0,1.4c-0.4,1.2-1.2,2.3-2.2,2.7c-0.1-0.1-0.2-0.3-0.2-0.5
	C19.7,48.6,19.8,47.9,19.7,47.2z"/>
<path fill="#3E2514" d="M22.3,45.3c0.1-0.5,0.3-1,0.4-1.4c0.1-0.3,0.1-0.5,0.1-0.8c-0.1-0.3-0.3-0.5-0.5-0.5c-0.7-1-1.9-1.6-3.2-1.4
	c-0.4,0.1-0.8,0.2-1.1,0.5c-0.3,0.4-0.4,0.9-0.4,1.4c0,0.6,0.3,0.6,0.7,1.1c0.4,0.4,0.8,1.1,1.3,1.2C20.5,45.5,21.4,45.5,22.3,45.3z
	"/>
<path fill="#1B130D" d="M22.2,45.4c0.1-0.4,0.2-0.9,0.3-1.3c0.1-0.2,0.1-0.5,0.1-0.7c0-0.2-0.2-0.5-0.5-0.5
	c-0.6-0.9-1.8-1.4-2.9-1.3c-0.4,0-0.8,0.2-1,0.5c-0.3,0.3-0.4,0.8-0.4,1.2c0,0.5,0.2,0.6,0.6,1c0.3,0.4,0.7,1,1.2,1.1
	C20.6,45.5,21.4,45.5,22.2,45.4z"/>
<path fill="#F9AA92" d="M18.2,43.8c-0.2,1.5,0.4,4.3,1.3,4.3c1.8,0.1,2.2-1.1,2.5-2.2c0,0,0.1,0.1,0.3,0.1c0.1,0,0.3-0.2,0.4-0.3
	c0.1-0.2,0.3-0.5,0.1-0.8c-0.2-0.3-0.6-0.3-0.7,0c0-0.6-0.2-1.1-0.4-1.6c-0.1-0.2-0.2-0.3-0.4-0.4c-0.8-0.3-1.8-0.3-2.6,0
	c-0.2,0.1-0.3,0.2-0.3,0.3C18.3,43.5,18.2,43.7,18.2,43.8z"/>
<path opacity="0.37" fill="#1B130D" enable-background="new    " d="M21.2,46.4c-0.9-0.2-1.9-0.1-2.7,0.3c0.2,0.8,0.6,1.5,1,1.5
	c1.7,0.1,2.2-1,2.5-2l0.1-1.2C21.8,45.4,21.5,45.9,21.2,46.4z"/>
<path fill="#F9AA92" d="M22.8,45c-0.2-0.2-0.5-0.3-0.6-0.1c0,0,0,0.1,0,0.1L22,46.1c0-0.1,0-0.1,0-0.2c0,0,0.1,0.1,0.3,0.1
	c0.1,0,0.3-0.2,0.4-0.3C22.8,45.5,22.9,45.2,22.8,45z"/>
<path fill="#F9AA92" d="M22,45c0-0.6-0.2-1.1-0.4-1.6c-0.1-0.2-0.2-0.3-0.4-0.4c-0.8-0.3-1.8-0.3-2.6,0c-0.2,0.1-0.3,0.2-0.3,0.3
	c-0.1,0.2-0.1,0.4-0.1,0.5c-0.1,0.8,0,1.9,0.3,2.8c0.8-0.4,1.8-0.5,2.7-0.3C21.5,45.9,21.8,45.4,22,45L22,45
	C22.1,44.9,22,44.9,22,45z"/>
<path fill="#F9AA92" d="M22.1,44.9L22.1,44.9C22.1,44.9,22.1,44.8,22.1,44.9C22.1,44.8,22.1,44.9,22.1,44.9z"/>
<path fill="#F58A68" d="M22.2,45.5c0,0,0.1,0,0.1-0.1c0,0,0-0.1,0-0.1c0,0,0,0-0.1,0c0,0-0.1,0-0.1-0.1c0-0.2,0.2-0.3,0.4-0.3
	c0.1,0,0.2,0.1,0.2,0.1c0,0,0,0.1,0,0.1c0,0,0,0.1-0.1,0.1c0,0,0,0,0-0.1c0,0,0,0,0-0.1c0,0-0.1-0.1-0.1-0.1c-0.1,0-0.2,0.1-0.2,0.2
	c0.1,0,0.1,0.1,0.1,0.2c0,0.1-0.1,0.2-0.3,0.1C22.1,45.6,22.1,45.5,22.2,45.5z"/>
<path fill="#1D253D" d="M17.6,66.8c1.2,0.1,2.4-0.1,3.5-0.6c1-0.5,1.9-1.2,2.5-2c0.4-0.5,0.7-1,0.9-1.6c0-0.1,0.2,0,0.1,0.1
	c-0.4,1-1.1,1.9-1.9,2.6c-0.9,0.8-2,1.3-3.1,1.5c-0.7,0.1-1.3,0.2-2,0.1C17.5,66.9,17.5,66.8,17.6,66.8z"/>
<path fill="#1D253D" d="M19.8,50.2c0.9,0.3,2,0,2.7-0.7c0.1-0.1,0.2,0,0.1,0.1c-0.7,0.7-1.8,1-2.8,0.7
	C19.7,50.3,19.7,50.2,19.8,50.2z"/>
<path fill="#FCB130" d="M18.5,19.7l3.3,6.6l7.3,1.1l-5.3,5.1l1.2,7.3l-6.5-3.4l-6.5,3.4l1.2-7.3l-5.3-5.1l7.3-1.1L18.5,19.7z"/>
<path fill="#FAA31B" d="M10.8,26.9l-2.9,0.4l5.3,5.1l-1.2,7.3l6.5-3.4l6.5,3.4l-1.1-6.2C18.8,33.4,13.8,31,10.8,26.9z"/>
<path fill="#F9AA92" d="M13.9,36.9c0.1,0,0.2,0,0.3,0c0.1,0,0.2,0.1,0.2,0.2c0,0.1-0.1,0.2-0.2,0.3s-0.2,0.1-0.3,0.1
	c-0.4,0.1-0.7,0.2-1,0.4c-0.1,0.1-0.3,0.2-0.4,0.3c-0.6,0.3-1-0.3-0.4-0.6C12.6,37.2,13.2,37,13.9,36.9z"/>
<path fill="#F9AA92" d="M14.2,37.4c0.1,0,0.2,0,0.3,0c0.1,0,0.2,0.1,0.2,0.2c0,0.1-0.1,0.2-0.2,0.3s-0.2,0.1-0.3,0.1
	c-0.4,0.1-0.7,0.2-1,0.4c-0.1,0.1-0.3,0.2-0.4,0.3c-0.6,0.3-1-0.3-0.4-0.6C12.9,37.7,13.6,37.5,14.2,37.4z"/>
<path fill="#F9AA92" d="M14.1,38c0.1,0,0.2,0,0.3,0c0.1,0,0.2,0.1,0.2,0.2c0,0.1-0.1,0.2-0.2,0.3c-0.1,0-0.2,0.1-0.3,0.1
	c-0.4,0.1-0.7,0.2-1,0.4c-0.1,0.1-0.3,0.2-0.4,0.3c-0.6,0.3-1-0.3-0.4-0.6C12.8,38.3,13.5,38.1,14.1,38z"/>
<path fill="#F9AA92" d="M13.8,38.7c0.1,0,0.1,0,0.2,0c0.1,0,0.1,0.1,0.1,0.1c0,0.1,0,0.2-0.1,0.2c-0.1,0-0.2,0-0.2,0.1
	c-0.3,0-0.6,0.2-0.8,0.3c-0.1,0.1-0.2,0.2-0.4,0.3c-0.5,0.3-0.8-0.2-0.3-0.5C12.8,38.9,13.3,38.7,13.8,38.7z"/>
<path fill="#F9AA92" d="M12,37.5c-0.3,0.3-0.5,0.4-0.7,0.8c-0.2,0.3-0.4,0.7-0.3,1.1c0.1,0.4,0.4,0.7,0.8,0.8c0.2,0,0.5-0.1,0.7-0.2
	c0.4-0.3,0.6-0.8,0.6-1.3c0-0.5-0.2-1-0.6-1.3L12,37.5z"/>
<path fill="#F9AA92" d="M11.4,38.6c-0.9,1.1-4.4,6.6-4.4,8c0,0.7,0.2,1.5,0.8,2c0.6,0.6,1.4,0.4,1.8-0.3c0.7-1.3,2.2-7,2.6-8.8
	L11.4,38.6z"/>
<path fill="#F9AA92" d="M23.1,36.3c-0.1,0-0.2,0-0.3,0c-0.1,0-0.2,0.1-0.2,0.2c0,0.1,0.1,0.2,0.2,0.3c0.1,0,0.2,0.1,0.3,0.1
	c0.4,0.1,0.7,0.2,1,0.4c0.1,0.1,0.3,0.2,0.4,0.3c0.6,0.3,1-0.3,0.4-0.6C24.4,36.6,23.8,36.4,23.1,36.3z"/>
<path fill="#F9AA92" d="M22.8,36.9c-0.1,0-0.2,0-0.3,0c-0.1,0-0.2,0.1-0.2,0.2c0,0.1,0.1,0.2,0.2,0.3s0.2,0.1,0.3,0.1
	c0.4,0.1,0.7,0.2,1,0.4c0.1,0.1,0.3,0.2,0.4,0.3c0.6,0.3,1-0.3,0.4-0.6C24.1,37.2,23.4,37,22.8,36.9z"/>
<path fill="#F9AA92" d="M22.9,37.5c-0.1,0-0.2,0-0.3,0c-0.1,0-0.2,0.1-0.2,0.2c0,0.1,0.1,0.2,0.2,0.3c0.1,0,0.2,0.1,0.3,0.1
	c0.4,0.1,0.7,0.2,1,0.4c0.1,0.1,0.3,0.2,0.4,0.3c0.6,0.3,1-0.3,0.4-0.6C24.2,37.8,23.5,37.6,22.9,37.5z"/>
<path fill="#F9AA92" d="M23.2,38.1c-0.1,0-0.1,0-0.2,0c-0.1,0-0.1,0.1-0.1,0.1c0,0.1,0,0.2,0.1,0.2c0.1,0,0.2,0,0.2,0.1
	c0.3,0,0.6,0.2,0.8,0.3c0.1,0.1,0.2,0.2,0.4,0.3c0.5,0.3,0.8-0.2,0.3-0.5C24.2,38.3,23.7,38.2,23.2,38.1z"/>
<path fill="#F9AA92" d="M25,37c0.3,0.3,0.5,0.4,0.7,0.8c0.2,0.3,0.4,0.7,0.3,1.1c-0.1,0.4-0.4,0.7-0.8,0.8c-0.2,0-0.5-0.1-0.7-0.2
	c-0.4-0.3-0.6-0.8-0.6-1.3c0-0.5,0.2-1,0.6-1.3L25,37z"/>
<path fill="#F9AA92" d="M25.6,38.1c0.9,1.1,4.4,6.6,4.4,8c0,0.7-0.2,1.5-0.8,2c-0.6,0.6-1.4,0.4-1.8-0.3c-0.7-1.3-2.2-7-2.6-8.8
	L25.6,38.1z"/>
<path fill="#1D253D" d="M28.6,50.3c-0.9,1-1.8,2.1-2.7,3.1c-0.3,0.3-0.5,0.6-0.8,0.9c-0.1,0.1,0,0.2,0.1,0.1c0.9-1,1.8-2.1,2.7-3.1
	l0.8-0.9C28.8,50.3,28.7,50.2,28.6,50.3z"/>
<path fill="#1D253D" d="M15.7,50.8c-0.1,1.2-0.1,2.5-0.2,3.7c-0.1,1.2-0.1,2.5-0.1,3.7c0,0.7,0,1.4,0,2.1c0,0.1,0.1,0.1,0.1,0
	c0-1.2,0-2.5,0.1-3.7c0-1.2,0.1-2.5,0.1-3.7c0-0.7,0.1-1.4,0.1-2.1C15.9,50.7,15.7,50.7,15.7,50.8z"/>
<path fill="#122149" d="M89.9,98.3H5.4v0.5h84.5V98.3z"/>
</svg>
