<?xml version="1.0" encoding="utf-8"?>
<!-- Generator: Adobe Illustrator 18.1.1, SVG Export Plug-In . SVG Version: 6.00 Build 0)  -->
<svg version="1.1" id="Layer_1" xmlns="http://www.w3.org/2000/svg" xmlns:xlink="http://www.w3.org/1999/xlink" x="0px" y="0px"
	 viewBox="0 0 100 100" enable-background="new 0 0 100 100" xml:space="preserve">
<path fill="#8B4324" d="M33.9,66l-5.4,3.5c-0.3,0.2-0.7,0.2-0.8,0l-6-9.4c-0.1-0.2,0-0.6,0.3-0.8l5.4-3.5L33.9,66z"/>
<path fill="#BF7031" d="M27,59.3l-0.6,0.4l0.5,0.8l0.6-0.4L27,59.3z"/>
<path fill="#BF7031" d="M30.1,64.1l-0.6,0.4l0.5,0.8l0.6-0.4L30.1,64.1z"/>
<path fill="#BF7031" d="M34.7,65.5l-2.1,1.3c-0.3,0.2-0.7,0.1-0.9-0.2l-5.9-9.2c-0.2-0.3-0.1-0.7,0.2-0.9l2.1-1.3
	c0.2-0.1,0.5-0.1,0.6,0.1l6,9.4C34.9,65.1,34.9,65.4,34.7,65.5z"/>
<path fill="#8B4324" d="M32.7,61.7l-0.1-0.2c0.9-0.9,0.2-2.4-0.1-2.9c-0.1-0.2-0.2-0.3-0.4-0.3c-0.5-0.1-1.1,0.5-1.2,0.5l-0.1-0.2
	c0.2-0.1,0.8-0.7,1.3-0.6c0.2,0,0.4,0.2,0.6,0.4C33,59,33.8,60.7,32.7,61.7z"/>
<path fill="#8B4324" d="M30.9,63.4L30,64l0.6,1l0.9-0.6L30.9,63.4z"/>
<path fill="#8B4324" d="M27.8,58.6l-0.9,0.6l0.6,1l0.9-0.6L27.8,58.6z"/>
<path fill="#F6C19B" d="M35.5,59L35,60.8l-0.8-0.1c0,0-2.8,0.6-2.5-1.8c0.1-0.9,1.3-1.3,1.8-0.5c0,0,0,0,0,0c0,0,0.1,0,0.1,0
	l-0.2-0.8c0-0.1,0-0.3,0.2-0.3c0.1,0,0.2,0,0.3,0.1l0.3,0.7c0.1,0.2,0.2,0.3,0.4,0.4L35.5,59z"/>
<path fill="#F6C19B" d="M57.1,34.9c0,0.1,0,0.2,0.1,0.2l0.7,0.5c0.2,0.1,0.3,0.3,0.3,0.4l0.1,0.5c0.1,0,0.3,0,0.4,0l0.5,0l0.3,0
	l0.7,0l0-0.4c0,0,0.9-2.3-0.9-2.7c-0.1,0-0.2,0-0.3-0.1c-0.1,0-0.1,0-0.2,0c-0.9-0.1-1.5,1.1-0.8,1.7c0,0,0,0,0,0c0,0,0,0.1,0,0
	l-0.7-0.3c-0.1-0.1-0.3,0-0.3,0.1C57.1,34.8,57.1,34.9,57.1,34.9z"/>
<path fill="#38434D" d="M53.2,44.8c0.1,0.5-0.1,1-0.3,1.4c-0.1-0.2-0.3-0.3-0.4-0.3c-0.5,0.1-0.8,0.7-1.3,0.6c-0.6-0.1-1,0.4-1,0.4
	c0.4,0.7,0.1,0.5,0.1,0.7c0,0.2,0.5,0.6,0.3,0.8c-0.2,0.2-0.6-0.3-0.8-0.2c-0.2,0.1-0.5,0.4,0.1,0.9c0.5,0.5,0.7,0.6,1,1
	c0,0-1.1-0.4-2.1-2.3c0,0-0.5-0.4,0.2-1.2c0,0-0.4,0.2-0.5,0.1c0-0.1,0.4-0.4,0.4-0.4s-0.1-0.2,0.3-0.1c0,0-0.1-1,0.7-1.4
	c0.8-0.4,0.6-0.8,1.2-1.1c0.5-0.2,1.6,0.2,1.9,0.9c0,0-0.2-0.5-0.4-0.7C52.6,44,53,43.7,53.2,44.8z"/>
<path fill="#F6C19B" d="M53,46.3c-0.2-0.2-0.3-0.3-0.4-0.3c-0.5,0.1-0.8,0.7-1.3,0.6c-0.6-0.1-1,0.4-1,0.4c0.4,0.7,0.1,0.5,0.1,0.7
	c0,0.2,0.5,0.6,0.3,0.8c-0.2,0.2-0.6-0.3-0.8-0.2c-0.2,0.1-0.6,0.7-0.1,1.2c0.5,0.5,0.8,0.4,1,0.8c0.1,0.2,1.2,2.4,1.7,2.5
	c0.5,0.1,2.1-0.7,2-1.2c0-0.5-0.6-1-0.6-1.3c-0.1-0.2-0.3-0.6,0-0.9c0.2-0.2,0.3-0.6,0.2-0.9C53.9,47.8,53.3,46.7,53,46.3z"/>
<path fill="#F6C19B" d="M68.5,91.2l-0.4,3l2,0.3l0.4-3.1L68.5,91.2z"/>
<path fill="#38434D" d="M67.4,96.1l5.3,0.7c0.3,0,0.5-0.1,0.5-0.4l0-0.2c0-0.1,0-0.2-0.1-0.3l-2.6-2.7c-0.1-0.1-0.2-0.1-0.3,0
	c-0.4,0.4-1,0.6-1.9,0.4c-0.1,0-0.2,0-0.3,0.1c-0.5,0.7-0.9,1.4-0.9,2.1C67.1,95.9,67.3,96,67.4,96.1z"/>
<path fill="#F6C19B" d="M53.1,91.3l-1.9,2.4l1.6,1.2l1.9-2.5L53.1,91.3z"/>
<path fill="#38434D" d="M49.8,94.9l4.2,3.3c0.2,0.2,0.5,0.1,0.7-0.1l0.1-0.2c0-0.1,0.1-0.2,0.1-0.3L54,94c0-0.1-0.2-0.2-0.3-0.2
	c-0.6,0.1-1.2,0-1.8-0.6c-0.1-0.1-0.2-0.1-0.3,0c-0.8,0.4-1.4,0.8-1.8,1.3C49.6,94.6,49.6,94.8,49.8,94.9z"/>
<path fill="#333333" d="M71,92.1l-2.4,0.2c-0.3,0.2-0.7,0-0.9-0.3l0.9-11.6c0-0.5-0.2-1-0.5-1.3c0,0,0,0,0,0l-8.5-6.7
	c0,0,2.9,8.8,1.8,11.8c-1,2.6-4.2,6-6,8.9c-0.1,0.2-0.3,0.3-0.6,0.2l-2.2-1.1c-0.4-0.1-0.5-0.5-0.3-0.8c2.1-3.4,4.1-5.8,4.8-8
	c0.8-2.6-3.7-13.9-3.7-13.9l8.4-4.3c0,0,9.3,8.9,10.8,11.8c1.3,2.5-1,11.1-1.2,14.3C71.3,91.6,71.3,91.9,71,92.1z"/>
<path fill="#FBB03C" d="M34.4,61.3c1.6,0.3,7.3,1.1,9.6,0c1.6-0.8,2.8-1.7,3.4-2.3c0.4-0.3,0.9-0.3,1.2,0c3.9,3.8,2.6,10.8,2.9,11.7
	c0.3,1,2.1,1.1,5.2-0.4c0.9-0.4,5.6-2.4,6.8-5c0,0-4.6-7.1-4.6-8.9c0.1-3.9,0.9-11.5,1.3-15.9c0-0.2,0-0.4,0.1-0.6
	c0.1-1.3,0.2-2.2,0.2-2.7c0-0.3-0.1-0.6-0.3-0.7l-0.1,0l0,0.4l-0.7,0.1l-0.3,0L58.4,37l-0.1-0.5c-0.2,0.1-0.3,0.2-0.4,0.4
	c-0.4,1.6,0,12.7-3.8,13.9l0,0c0,0.5-0.2,1-0.6,1.2c-0.1,0.1-0.2,0.1-0.3,0.2c0,0,0,0,0,0c-0.5,0.3-1.2,0.1-1.6-0.4
	c-0.3-0.4-0.4-0.6-0.5-0.7c0,0-0.1-0.1-0.1,0c-3.7,2-6.2,6-8.6,7.3c-2,1-6.2,0.3-7.4,0.1c-0.2,0-0.4,0.1-0.4,0.2l-0.7,2.1
	C34,61,34.2,61.3,34.4,61.3z"/>
<path fill="#FBB03C" d="M58.3,36.5l0.1,0.5l0.9-0.1l0.3,0l0.7-0.1l0-0.4l-0.7,0l-0.3,0l-0.5,0C58.6,36.5,58.4,36.5,58.3,36.5z"/>
<path fill="#38434D" d="M61.4,42.1c2.2,3.1,2.8,7.1,1.5,10.7l-0.3,0.8l0.3,0.1l0.3-0.8c1.3-3.7,0.7-7.8-1.6-10.9
	c-0.5-0.7-0.9-1.4-1.2-2.1c0,0.2,0,0.4-0.1,0.6C60.7,41,61,41.5,61.4,42.1z"/>
<path fill="#38434D" d="M59.1,26.3v7c0.1,0,0.2,0,0.3,0v-7H59.1z"/>
<path fill="#EF3C50" d="M59.3,6.1C56.2,3,51.1,2.9,47.9,6c-3.3,3.2-3.2,8.5,0,11.7l11.2,11.2c0.1,0.1,0.3,0.1,0.4,0l11.2-11.2
	c3.2-3.2,3.3-8.6,0-11.7C67.5,2.9,62.4,3,59.3,6.1z"/>
<path fill="#C2CBD5" d="M70.7,12.7c-0.3,0-0.5-0.2-0.6-0.5c-0.3-2-1.1-3.4-2.2-4.1c-1.5-1-3.1-0.6-3.2-0.6c-0.3,0.1-0.6-0.1-0.7-0.4
	c-0.1-0.3,0.1-0.6,0.4-0.7c0.1,0,2.2-0.6,4.1,0.7c1.4,0.9,2.4,2.6,2.7,5C71.4,12.3,71.1,12.6,70.7,12.7
	C70.8,12.7,70.7,12.7,70.7,12.7z"/>
</svg>
