<?xml version="1.0" encoding="utf-8"?>
<!-- Generator: Adobe Illustrator 18.1.1, SVG Export Plug-In . SVG Version: 6.00 Build 0)  -->
<svg version="1.1" id="Layer_1" xmlns="http://www.w3.org/2000/svg" xmlns:xlink="http://www.w3.org/1999/xlink" x="0px" y="0px"
	 viewBox="0 0 100 100" enable-background="new 0 0 100 100" xml:space="preserve">
<path fill="#FFFFFF" d="M37.5,19.3c-0.5-0.4-1.3-0.1-1.9-0.4c-0.8-0.4-0.5-0.5-0.9-1c-0.7-1-1.6-1.6-2.8-2c-0.8-0.2-3.1,0-3.6-0.8
	c-1.6-1.2-2.7-1.6-4.8-1.5c-1.2,0.1-1.8,0.3-2.7,1.1c-0.6,0.6-1,1.8-1.7,2.2c-0.8,0.5-1.8-0.1-2.8,0.2c-0.8,0.2-1.5,0.9-2,1.6
	c-0.8,1-0.4,1.1-1.9,1.4c-0.8,0.1-2.2,0.4-2.6,1.2c-1,2.2,3.8,2.3,5.1,2.2c2.8-0.1,5.1-0.9,7.7-0.1c1.4,0.4,3.1,0.6,4.4,0.1
	c1.2-0.4,2-1.4,3.3-1.5c2-0.2,5,1.5,6.9,0.1C38.4,21.3,38.5,19.9,37.5,19.3z"/>
<path fill="#BAC9E7" d="M66.7,50.4c0-2.9-1.6-5.5-1.7-8.3c-0.1-2.2,0.3-4.4,0.1-6.6c-0.2-2.6-1-4.5-2.3-6.6
	c-1.1-1.8-0.2-2.8-0.5-4.7c-0.4-2.2-2.2,0-3,1.1c-1.2,1.7-1.7,2.2-3.6,3c-3.9,1.6-1.9,5.4-4.5,7.8c-2.3,2.2-4.6,3.8-6.5,6.4
	c-2.1,2.9-2.2,5.2-1.9,8.4c0.7,6.7,3.2,13.2,3.5,19.9c0.3,6.2-2.7,12.3-0.3,18.2c-0.1,0.4,0,0.8-0.1,1.1c1.4-0.1,2-1.6,2.5-2.7
	c0.4-1,0.4-2.2,0.9-3.1c0.6-1.3,1.8-2.4,2.8-3.4c2.2-2.3,4.9-4.7,5.8-7.9c0.8-3.1-0.2-5.6,1.9-8.4C63,60.1,66.7,56.1,66.7,50.4z"/>
<path fill="#BAC9E7" d="M54.5,87.5c0.3,0.5,0.2-0.3,0.3-0.7c0.2-0.7,0.2-1.2,0.6-1.8c0.6-1.1,1.5-2.2,2.4-3.1
	c1.1-1.1,2.3-1.8,2.8-3.3c1.4-3.6,1.6-6.8,3.9-10c1-1.4,2-2.8,3.6-3.7c1.6-0.9,3.3-1.1,4.9-1.8c1.4-0.6,2.3-1.9,3.3-3
	c1.5-1.6,3-0.9,4.7-2c1.8-1.2,2.7-3.5,4.6-4.8c1.8-1.2,4.2-1.9,6.3-2.5c1.5-0.4,4-0.9,3.3,1.6c-0.6,1.8-2.6,2.2-2.8,4.4
	c-0.2,2.1,0.6,4.1,0.2,6.2c-0.5,2.6-2.6,3.2-4.2,5c-1.5,1.8-0.6,4.2-1.4,6.2c-1.3,3.5-4.7,3.7-7.6,5c-2.3,1.1-3.1,3.8-4.9,5.5
	c-2.5,2.3-4.6,3.5-8,4.2c-1.5,0.3-3.1,0.3-4.5,0.9c-1.3,0.5-2.4,1.2-3.8,1.6c-1.1,0.3-5.1,1.6-6.1,1C49.9,91.1,55.3,88.9,54.5,87.5z
	"/>
<path fill="#FFFFFF" d="M95.7,80.1c-0.8-0.3-1.6-0.4-2.4-0.3c-0.7,0-1.2,0.4-1.7,0.7c-0.5,0.3-0.8,0.7-1.4,0.9
	c-1,0.3-2.1,0.5-3.1,0.8c-0.3,0.1-0.7,0.2-1,0.3c-0.1,0-0.2,0.1-0.2,0.1c-0.3,0.2-0.6,0.4-1,0.4c0.2-0.1,0.3-0.3,0.5-0.4
	c0.3-0.2,0.6-0.3,0.9-0.5c0.8-0.6,1.8-2,1.4-3.1c-0.8-0.1-1.8,0.6-2.3,1.2c-0.4,0.5-0.5,1.2-0.6,1.9c-0.1,0.5-0.3,1-0.7,1.3
	c-0.3,0.3-1,0.5-1.4,0.7c-0.5,0.2-0.9,0.5-1.4,0.7c-0.8,0.3-1.5,0.5-2.2,0.9c-0.4,0.2-0.7,0.5-1.2,0.4c0.1-0.3,0.7-0.7,1-0.9
	c0.5-0.5,1-1,1.3-1.7c0.3-0.7,1-3.3-0.5-2.4c-0.7,0.4-0.9,1.3-1.3,2c-0.3,0.4-0.4,0.7-0.5,1.2c0,0.3,0,0.7-0.1,1
	c-0.4,1.1-1.9,1.6-2.9,1.9c-0.7,0.2-1.4,0.4-2.1,0.7c-0.5,0.2-1.2,0.7-1.6,0.6c0-0.5,0.9-1.4,1.3-1.7c1-0.7,1.6-1.5,1.7-2.7
	c0-0.4,0.1-1.1-0.4-1.2c-0.3,0-1,0.4-1.2,0.6c-0.7,0.5-1.3,1.6-1.4,2.5c-0.1,0.7,0.3,1.3-0.1,2c-0.3,0.6-1.1,0.9-1.7,1.1
	c-0.8,0.3-1.6,0.3-2.4,0.5c-0.4,0.1-0.8,0.2-1.2,0.3c-0.2,0-1,0.3-1.1,0.3c-0.6-0.2,0.9-0.9,1.1-1.1c0.5-0.5,0.5-1.6,0.2-2.2
	c-0.9,0.1-1.5,0.9-1.9,1.6c-0.4,0.7-0.1,1.3-0.9,1.8c-0.6,0.3-1.5,0.6-2.2,0.8c-0.8,0.2-1.6,0.4-2.4,0.6c-0.4,0.1-2.1,0.5-2,0.9
	c0,0-0.2,0.4-0.3,0.4c0.3,0.8,1.5,0.1,2-0.1c1.3-0.5,2.6-0.9,3.9-1.4c1.2-0.5,1.6-0.6,2.6,0.4c0.9,1,3,2.3,4.3,1.3
	c-0.5-0.6-0.8-1.3-1.5-1.7c-0.6-0.4-1.8-0.3-2.3-0.7c1-0.3,2.1-0.3,3-0.6c0.7-0.2,1.9-0.9,2.5-0.2c0.3,0.4,0.3,0.7,0.7,1.1
	c0.6,0.5,1,0.8,1.8,1c1,0.4,1.8,0.9,3,0.5c-0.4-0.9-0.7-1.7-1.4-2.3c-0.4-0.4-1-0.6-1.5-0.8c-0.4-0.1-1.3,0.1-1.4-0.3
	c0.7-0.1,1.4-0.6,2.1-0.8c0.9-0.3,1.8-0.4,2.6-0.7c0.7-0.3,1.2-0.7,2.1-0.5c1.1,0.2,1.4,1.3,2.2,1.9c0.5,0.3,1.2,0.6,1.8,0.6
	c0.8,0,2.1-0.2,2.7-0.5c0-0.5-0.4-0.8-0.7-1.2c-0.5-0.6-1.1-1-1.8-1.4c-0.7-0.4-1.4-0.3-2.2-0.2c-0.5,0-1.4,0.4-1.8,0.2
	c0.2-0.3,0.8-0.5,1.2-0.6c0.5-0.2,1-0.2,1.4-0.4c0.8-0.3,1.5-0.8,2.3-1.1c0.3-0.1,0.7-0.4,1-0.4c0.5-0.1,0.7,0.2,1.1,0.5
	c1.6,1.2,3,2.2,5,1.6c0.1-0.4-0.3-0.9-0.5-1.2c-0.6-0.7-1.1-0.9-1.9-1.1c-0.5-0.1-0.8-0.3-1.3-0.3c-0.4,0-1.1,0.1-1.4-0.1
	c0.6-0.5,1.8-0.6,2.5-0.8c0.8-0.3,2-0.6,2.8-0.6c0.8,0,1.4,0.3,2.2,0.4c1.2,0.2,3.1-0.5,4-1.2C97.1,80.6,96.1,80.3,95.7,80.1z"/>
<path fill="#BAC9E7" d="M44.9,89.2c-0.7-1.3-1.5-3.8-2.2-5.6c-1.2-2.8-3-5-4.7-7.5c-0.8-1.2-1.5-2.5-2.6-3.5c-0.9-0.8-2-1.2-2.9-1.9
	c-1.8-1.5-2.9-3.8-4.4-5.7c-2.3-3.1-5.2-4-8.6-5.6c-1.5-0.7-2.6-1.4-3.7-2.7c-1.1-1.3-1.8-2.3-3.4-3c-1.9-0.9-2.9-1.7-4.3-3.3
	c-0.7-0.8-2.7-2.8-3.6-1.5c-0.9,1.3,0.4,3.4,1,4.4c1.1,2,0.5,3.3,0.2,5.4c-0.4,2.4-0.3,4.6,1.4,6.4c1.7,1.8,3.5,2.5,3.7,5.2
	c0.2,2.9-0.3,5.7,0.8,8.4c1,2.6,2.9,4.6,5.5,5.6c2.4,0.9,5,1.1,7.2,2.5c2.2,1.4,4.5,3.1,7.1,3.6c3.3,0.6,6.6-0.2,9.9,0
	c1.2,0.1,3.1,1.9,4.1,1.3C46.8,91.1,45.4,89.1,44.9,89.2z"/>
<path fill="#FFFFFF" d="M2.5,81.9c0.5,0.7,1.1,1.2,1.8,1.6c0.6,0.3,1.2,0.3,1.9,0.3c0.6,0,1.1-0.2,1.6,0c1,0.3,2,0.7,3,1
	c0.3,0.1,0.7,0.2,1,0.3c0.1,0,0.2,0,0.2,0c0.4,0,0.7,0,1.1,0.2c-0.3-0.1-0.4,0.1-0.6,0.1c-0.3,0-0.7-0.1-1-0.1c-1,0-2.6,0.7-2.8,1.8
	c0.6,0.6,1.8,0.5,2.5,0.3c0.6-0.2,1.1-0.8,1.6-1.2c0.3-0.4,0.8-0.7,1.3-0.7c0.5-0.1,1.1,0.1,1.6,0.2c0.5,0.1,1.1,0.1,1.6,0.2
	c0.8,0.2,1.6,0.4,2.4,0.5c0.4,0,0.9,0,1.2,0.3c-0.3,0.2-1,0.1-1.3,0.2c-0.7,0.1-1.4,0.3-2,0.7c-0.7,0.4-2.7,2.2-0.9,2.3
	c0.8,0,1.5-0.6,2.2-0.9c0.5-0.2,0.7-0.3,1.1-0.8c0.2-0.3,0.4-0.6,0.6-0.8c0.9-0.7,2.5-0.3,3.5,0c0.7,0.2,1.4,0.4,2.1,0.6
	c0.5,0.1,1.3,0.1,1.7,0.4c-0.3,0.4-1.5,0.7-2,0.7c-1.2,0-2.1,0.4-2.9,1.3c-0.3,0.3-0.7,0.9-0.3,1.2c0.2,0.2,1.1,0.2,1.3,0.2
	c0.8,0,2-0.6,2.5-1.3c0.5-0.6,0.5-1.2,1.2-1.7c0.6-0.4,1.4-0.1,2,0c0.8,0.2,1.5,0.6,2.3,0.9c0.4,0.1,0.8,0.2,1.1,0.4
	c0.2,0.1,1,0.3,1.1,0.4c0.4,0.5-1.3,0.3-1.5,0.3c-0.7,0.2-1.2,1-1.4,1.7c0.8,0.4,1.7,0.1,2.5-0.3c0.7-0.3,0.8-1.1,1.7-1
	c0.7,0,1.6,0.3,2.3,0.5c0.8,0.2,1.6,0.6,2.4,0.8c0.4,0.1,2,0.7,2.1,0.3c0,0,0.4-0.2,0.4-0.2c0.2-0.8-1.2-0.9-1.7-1
	c-1.3-0.3-2.7-0.7-4-1c-1.3-0.3-1.7-0.4-1.9-1.8c-0.2-1.3-1.3-3.6-2.9-3.4c0.1,0.8,0,1.5,0.4,2.3c0.3,0.7,1.4,1.2,1.5,1.9
	c-1-0.3-1.9-0.8-2.9-1.2c-0.7-0.2-2.1-0.3-2.1-1.2c0-0.5,0.1-0.8,0-1.3c-0.2-0.8-0.4-1.2-0.9-1.8c-0.7-0.9-1-1.8-2.2-2.1
	c-0.1,1-0.3,1.8-0.1,2.7c0.2,0.6,0.5,1.1,0.9,1.5c0.3,0.3,1.1,0.6,1,1c-0.7-0.3-1.5-0.3-2.2-0.5c-0.9-0.3-1.7-0.6-2.6-0.8
	c-0.8-0.1-1.4-0.1-2-0.7c-0.8-0.8-0.4-1.9-0.8-2.8c-0.2-0.6-0.6-1.2-1.1-1.5c-0.6-0.4-1.8-1-2.6-1c-0.3,0.5-0.1,0.9,0,1.4
	c0.1,0.8,0.4,1.4,0.8,2.1c0.4,0.7,1,1,1.7,1.4c0.4,0.2,1.3,0.4,1.6,0.9c-0.3,0.1-1-0.1-1.3-0.1c-0.5-0.1-0.9-0.3-1.4-0.4
	c-0.8-0.2-1.7-0.1-2.6-0.3C14.4,85,14,85,13.7,84.9c-0.5-0.2-0.5-0.6-0.7-1c-0.7-1.9-1.3-3.4-3.3-4c-0.3,0.3-0.2,0.9-0.2,1.3
	c0.1,0.9,0.5,1.4,1,2c0.3,0.4,0.6,0.7,1,1c0.3,0.2,1,0.5,1.1,0.8c-0.7,0.1-1.8-0.5-2.5-0.7c-0.9-0.2-2-0.5-2.7-1
	c-0.7-0.4-1.1-1-1.6-1.6c-0.9-0.8-2.8-1.2-4-1.2C1.5,80.7,2.2,81.5,2.5,81.9z"/>
<path fill="#FFFFFF" d="M30.1,34.9c-0.1,0.7,0,1.3,0.3,2c0.2,0.5,0.6,0.8,1,1.2c0.3,0.3,0.8,0.5,1,0.9c0.5,0.8,0.9,1.5,1.3,2.3
	c0.2,0.2,0.3,0.5,0.5,0.8c0,0.1,0.1,0.1,0.1,0.2c0.2,0.2,0.4,0.4,0.6,0.7c-0.1-0.2-0.3-0.2-0.4-0.3c-0.2-0.2-0.4-0.4-0.6-0.6
	c-0.6-0.5-2-1-2.8-0.4c0.1,0.7,0.8,1.3,1.4,1.5c0.5,0.2,1.1,0.1,1.6,0.1c0.4,0,0.9,0,1.2,0.3c0.3,0.2,0.6,0.7,0.9,1
	c0.3,0.3,0.6,0.6,0.9,1c0.4,0.5,0.8,1.1,1.2,1.6c0.2,0.3,0.5,0.4,0.6,0.8c-0.3,0-0.7-0.4-0.9-0.6c-0.5-0.3-1-0.6-1.6-0.7
	c-0.6-0.1-2.9-0.1-1.8,0.9c0.5,0.5,1.2,0.4,1.8,0.6c0.4,0.1,0.6,0.2,1.1,0.1c0.3,0,0.5-0.1,0.8-0.1c1,0,1.7,1.2,2.2,1.9
	c0.3,0.5,0.7,1,1,1.5c0.2,0.3,0.8,0.8,0.8,1.2c-0.4,0.1-1.3-0.4-1.6-0.6c-0.8-0.6-1.5-0.9-2.5-0.8c-0.3,0.1-0.9,0.2-0.9,0.6
	c0,0.2,0.6,0.7,0.7,0.8c0.5,0.4,1.6,0.7,2.3,0.6c0.6-0.1,1-0.5,1.6-0.4c0.6,0.1,0.9,0.6,1.3,1.1c0.4,0.5,0.6,1.2,0.9,1.8
	c0.2,0.3,0.3,0.6,0.5,0.9c0.1,0.2,0.5,0.7,0.5,0.8c0,0.5-0.9-0.5-1.1-0.6c-0.5-0.3-1.3,0-1.8,0.3c0.2,0.7,1,1,1.7,1.2
	c0.6,0.2,1.1-0.2,1.6,0.3c0.4,0.4,0.8,1,1.1,1.6c0.4,0.6,0.7,1.2,1,1.8c0.2,0.3,0.9,1.5,1.2,1.4c0,0,0.3,0.1,0.3,0.1
	c0.6-0.4-0.3-1.2-0.5-1.5c-0.7-0.9-1.3-1.9-2-2.8c-0.6-0.9-0.9-1.2-0.2-2.1c0.6-0.9,1.2-2.9,0.1-3.7c-0.4,0.5-0.8,1-1,1.6
	c-0.2,0.6,0.2,1.5-0.1,2c-0.4-0.7-0.7-1.6-1.2-2.3c-0.3-0.5-1.2-1.3-0.7-1.9c0.2-0.3,0.5-0.4,0.7-0.8c0.3-0.6,0.4-1,0.4-1.6
	c0.1-0.9,0.3-1.7-0.3-2.5c-0.6,0.5-1.2,0.9-1.5,1.7c-0.2,0.4-0.3,0.9-0.3,1.4c0,0.3,0.4,1,0.1,1.2c-0.3-0.6-0.8-1-1.1-1.5
	c-0.4-0.6-0.7-1.3-1.2-1.9c-0.4-0.5-0.8-0.8-0.9-1.5c-0.1-0.9,0.7-1.4,1-2.2c0.2-0.5,0.2-1.1,0.1-1.5c-0.2-0.6-0.6-1.6-1-2
	c-0.4,0.1-0.6,0.5-0.8,0.9c-0.4,0.5-0.5,1.1-0.7,1.7c-0.1,0.7,0.1,1.2,0.3,1.8c0.1,0.4,0.6,1,0.5,1.4c-0.3-0.1-0.6-0.6-0.8-0.8
	c-0.3-0.3-0.4-0.7-0.6-1c-0.4-0.6-1-1-1.4-1.6c-0.2-0.2-0.4-0.5-0.6-0.7c-0.2-0.4,0-0.6,0.2-1c0.6-1.5,1-2.9,0.1-4.3
	c-0.3,0-0.6,0.4-0.8,0.7c-0.4,0.6-0.5,1.1-0.5,1.8c0,0.4,0,0.7,0.1,1.1c0.1,0.3,0.3,0.8,0.2,1.1c-0.5-0.3-0.9-1.3-1.2-1.8
	c-0.4-0.6-0.9-1.4-1.1-2.1c-0.2-0.6-0.1-1.2-0.2-1.8c-0.1-1-1.1-2.3-1.8-2.9C30.2,33.7,30.2,34.5,30.1,34.9z"/>
<path fill="#FFFFFF" d="M42.6,23c-0.4,0.7-0.7,1.4-0.8,2.3c-0.1,0.7,0.2,1.2,0.4,1.8c0.2,0.6,0.6,0.9,0.6,1.5
	c0.1,1.1,0.1,2.1,0.2,3.2c0,0.4,0,0.7,0.1,1.1c0,0.1,0,0.2,0.1,0.2c0.1,0.3,0.3,0.7,0.2,1.1c0-0.3-0.2-0.3-0.3-0.6
	c-0.1-0.3-0.2-0.7-0.3-1c-0.4-0.9-1.6-2.2-2.8-1.9c-0.3,0.8,0.2,1.9,0.7,2.4c0.4,0.5,1.1,0.7,1.7,1c0.5,0.2,0.9,0.5,1.2,1
	c0.2,0.4,0.3,1.1,0.4,1.5c0.1,0.5,0.3,1,0.4,1.5c0.1,0.8,0.2,1.6,0.5,2.4c0.1,0.4,0.4,0.8,0.2,1.2c-0.3-0.2-0.5-0.9-0.7-1.2
	c-0.3-0.6-0.8-1.2-1.4-1.6c-0.6-0.5-3.1-1.6-2.5,0c0.3,0.8,1.1,1.1,1.7,1.6c0.4,0.3,0.6,0.5,1.1,0.7c0.3,0.1,0.7,0.1,1,0.3
	c1,0.6,1.2,2.2,1.3,3.2c0.1,0.7,0.2,1.5,0.3,2.2c0.1,0.5,0.4,1.3,0.3,1.7c-0.5-0.1-1.2-1.1-1.4-1.6c-0.5-1.1-1.1-1.8-2.3-2.2
	c-0.4-0.1-1.1-0.3-1.3,0.1c-0.1,0.2,0.2,1.1,0.3,1.3c0.3,0.8,1.3,1.6,2.1,1.9c0.7,0.2,1.3,0,2,0.5c0.6,0.4,0.7,1.2,0.8,1.9
	c0.1,0.8,0,1.6,0,2.4c0,0.4,0.1,0.8,0,1.2c0,0.2,0.1,1,0.1,1.1c-0.3,0.5-0.7-1.1-0.9-1.3c-0.4-0.6-1.4-0.8-2.1-0.6
	c-0.1,0.9,0.6,1.6,1.2,2.2c0.6,0.5,1.3,0.3,1.6,1.2c0.2,0.7,0.3,1.6,0.4,2.3c0.1,0.8,0,1.7,0.2,2.5c0.1,0.4,0.1,2.1,0.5,2.1
	c0,0,0.3,0.3,0.3,0.3c0.8-0.1,0.3-1.5,0.3-2c-0.2-1.4-0.4-2.7-0.6-4.1c-0.2-1.3-0.3-1.7,0.9-2.4c1.1-0.7,2.9-2.5,2.1-4
	c-0.7,0.4-1.4,0.6-2,1.2c-0.5,0.5-0.6,1.8-1.2,2.1c-0.1-1,0.1-2.1,0-3.1c-0.1-0.7-0.5-2.1,0.3-2.4c0.4-0.2,0.8-0.2,1.2-0.5
	c0.6-0.5,0.9-0.9,1.4-1.5c0.6-0.9,1.2-1.6,1.1-2.8c-1,0.2-1.8,0.3-2.6,1c-0.5,0.4-0.8,0.8-1.1,1.4c-0.2,0.3-0.1,1.3-0.6,1.3
	c0-0.8-0.3-1.5-0.4-2.3c-0.1-0.9,0-1.8-0.2-2.7c-0.2-0.8-0.4-1.4-0.1-2.1c0.4-1,1.6-1.1,2.3-1.8c0.4-0.4,0.8-1,1-1.6
	c0.1-0.7,0.2-2.1,0-2.8c-0.5-0.1-0.9,0.3-1.3,0.5c-0.7,0.4-1.2,0.9-1.7,1.5c-0.5,0.6-0.6,1.3-0.7,2.1c-0.1,0.5,0.1,1.4-0.2,1.8
	c-0.2-0.3-0.3-0.9-0.4-1.3c-0.1-0.5-0.1-1-0.1-1.5c-0.1-0.9-0.5-1.7-0.7-2.5c-0.1-0.4-0.2-0.8-0.2-1.1c0-0.5,0.4-0.7,0.7-1
	c1.5-1.4,2.7-2.5,2.5-4.6c-0.4-0.1-0.9,0.1-1.2,0.3c-0.8,0.5-1.1,0.9-1.5,1.7c-0.2,0.4-0.4,0.8-0.5,1.3c-0.1,0.4-0.1,1.1-0.4,1.3
	c-0.4-0.6-0.2-1.9-0.3-2.6c-0.1-0.9-0.2-2-0.1-2.9c0.1-0.8,0.6-1.4,0.8-2.1c0.4-1.1,0.1-3.1-0.4-4.2C43.4,21.6,42.9,22.5,42.6,23z"
	/>
<path fill="#FFFFFF" d="M77.4,17.5c-0.3-0.2-0.8-0.1-1.1-0.3c-0.5-0.3-0.3-0.3-0.5-0.6c-0.4-0.6-0.9-1-1.6-1.3
	c-0.5-0.2-1.8-0.1-2.1-0.6c-0.9-0.8-1.6-1.1-2.8-1.1c-0.7,0-1.1,0.1-1.6,0.6c-0.4,0.3-0.7,1-1.1,1.2c-0.5,0.3-1.1-0.1-1.7,0
	c-0.5,0.1-1,0.5-1.3,0.9c-0.5,0.6-0.3,0.7-1.2,0.8c-0.5,0.1-1.3,0.1-1.6,0.6c-0.7,1.3,2.2,1.5,3,1.5c1.7,0,3.1-0.4,4.6,0.2
	c0.8,0.3,1.8,0.4,2.7,0.2c0.7-0.2,1.3-0.8,2-0.8c1.2,0,2.9,1.1,4.1,0.3C77.8,18.7,77.9,17.9,77.4,17.5z"/>
<g opacity="0.5">
	<path fill="#FFFFFF" d="M58.9,30.1c-0.8,1.5-1.2,2.7-1.6,4.2c-1,3.4-1.7,6.9-2.6,10.4c-0.8,3.2-1.8,5.9-1.6,9.3
		c0.5-0.9,0.5-2.6,0.8-3.7c0.3-1.1,0.5-2.2,0.8-3.2c0.4-1.9,1-3.6,1.6-5.4c1-3.5,1.1-7,2.5-10.2c0.5-1.1,2.3-4.4,1.6-5.2
		C60.3,27.2,59.4,29.1,58.9,30.1z"/>
	<path fill="#FFFFFF" d="M92.6,52.2c-4.9,1.3-7.7,5.9-9.6,10.3c-1.7,4.2-5.3,6.7-8.7,9.5c-1.4,1.1-4.9,4-5,5.9
		c0.7-0.1,2-2.2,2.5-2.8c0.9-1.1,1.7-1.8,2.9-2.7c2-1.4,3.7-3.3,5.6-4.8c3.8-3,3.5-7.8,6.8-11.2c0.9-0.9,1.7-1.7,2.7-2.4
		C90.6,53.5,92.7,52.8,92.6,52.2z"/>
	<path fill="#FFFFFF" d="M20,68.3c-1.2-2.3-2-5.9-4.3-7.3c-1.8-1.1-3.9-2.5-5.2-4.3c-0.9-1.2-1.8-5.3-3.3-5.5c1.6,2.4,2,5.3,4,7.2
		c0.8,0.8,1.6,1.8,2.6,2.5c1.2,0.8,2,0.8,2.8,2.1c1.2,2,2.1,4.2,3.3,6.2c1.1,2,2.7,3.6,3.9,5.4c0.9,1.3,3,5,4.6,5.4
		c-0.8-2.1-2.9-3.8-4.2-5.6C22.8,72.4,21.1,70.5,20,68.3z"/>
</g>
<path fill="#9EAFDA" d="M68,86.5c10.3-10.3,10.3-27,0-37.3c-10.3-10.3-27-10.3-37.3,0c-10.3,10.3-10.3,27,0,37.3
	C40.9,96.9,57.7,96.9,68,86.5z"/>
<path fill="#F8FAFB" d="M64.2,82.7c8.2-8.2,8.2-21.5,0-29.7c-8.2-8.2-21.5-8.2-29.7,0c-8.2,8.2-8.2,21.5,0,29.7S56,90.9,64.2,82.7z"
	/>
<path fill="#9EAFDA" d="M60.9,74.7l-1.4-2.4L59,73.1l-9.2-5.5V53.9h1l-1.4-2.4l-1.4,2.4h1v14.2l9.7,5.7l-0.5,0.8L60.9,74.7z"/>
<path fill="#9EAFDA" d="M52,67.9c0,1.5-1.2,2.7-2.7,2.7c-1.5,0-2.7-1.2-2.7-2.7s1.2-2.7,2.7-2.7C50.8,65.2,52,66.4,52,67.9z"/>
<path fill="#F3B796" d="M53.9,42.4c-0.9,0.2-1.9,0-2.8,0.2c-0.5,0.1-0.9,0.2-1.3,0.3c-0.3,0.1-0.9,0.4-0.2,0.5
	c0.5,0.1,0.9-0.4,1.3,0.1c0,0.2-2.8,0.8-2.8,1.5c0.1,0.2,0.9-0.1,1.3-0.2C49,45,47.9,45.2,48,45.7c0.1,0.4,1.1-0.1,1.3-0.2
	c-0.3,0-1,0.3-0.9,0.7c0.1,0.2,0.9-0.1,1.4-0.3c-0.4,0.1-1.2,0.8-0.3,0.6c0.7-0.1,1.4-0.5,2.1-0.8c0.7-0.2,1.2-0.6,1.8-1
	c0.3-0.2,0.6-0.4,1-0.6c0.3-0.1,0.6-0.2,0.9-0.3c0.5-0.4,0-1.5-0.5-1.8L53.9,42.4z"/>
<path fill="#47464D" d="M70.4,52.6c0,0-6.2,12.3-7.5,22.1c-1.5,11.6,1,19.6,1,19.6h2c0,0,1.3-8.9,3.4-15.7
	c1.3-4.4,4.2-10.6,4.2-10.6s0.1,4.5,1.5,10.1c2.3,9.4,8,16.2,8,16.2l1.9-0.7c0,0-2.9-10.1-3.6-17.3C80.9,72.7,82,64.1,82,59.5
	c0-5.3-4.6-8.4-4.6-8.4L70.4,52.6z"/>
<path fill="#EE3A6F" d="M80.3,36.7c0-0.4,0-1-0.1-1.4c0,0.1,0.5-0.4-0.2-0.6c-0.2-0.4,0.6-0.3,0.3-0.8c-0.9-1.3-2.2-2.3-3.1-2.8
	c-1.1-0.6-2.2-0.4-3.4-0.5c-1.2-0.1-2.9,0.4-3.9,0.9c-1.4,0.7-2.8,1.8-4,2.8c-2.3,2-4.6,4.5-7.5,5.8c-0.9,0.4-1.8,0.8-2.7,1.2
	c-0.8,0.3-2.4,0.9-2.3,1.1c0.2,0.7,0.4,1.3,0.6,2c0.1,0.2,3.8-0.7,4.6-0.9c2.2-0.4,4.4-1,6.5-1.5c0.8-0.2,1.6-0.6,2.3-0.9
	c0,2.1,0.2,4.2,0.5,6.2c0.2,1.5,0.1,4.3,1.4,5.4c0.9,0.7,2.7,0.5,3.7,0.6c1.2,0.1,2.5,0.2,3.8,0.2c0.5,0,1.1,0,1.6-0.3
	c0.6-0.4,0.5-1.1,0.5-1.7c0-1.7-0.1-3.6,0.1-5.3C79.3,43.1,80.5,40,80.3,36.7z"/>
<path fill="#E9155E" d="M76.8,53.6c0.5,0,1.1,0,1.6-0.3c0.6-0.4,0.5-1.1,0.5-1.7c0-1.7-0.1-3.6,0.1-5.3c0.3-3.2,1.4-6.3,1.3-9.5
	c0-0.4,0-1-0.1-1.4c0,0.1,0.5-0.4-0.2-0.6c-0.2-0.4,0.6-0.3,0.3-0.8c-0.2-0.3-0.5-0.6-0.7-0.9c-0.4-0.1-0.9-0.2-1.3-0.1
	c-0.6,0.2-1.1,0.8-1.5,1.2c-0.4,0.4-0.8,0.7-1.1,1.2c-0.1,0.2-0.3,0.3-0.3,0.6c0-0.1,0-0.2-0.1-0.3l-0.1,1.1c0,0.9,0.2,1.6,0.4,2.4
	c0.3,1.1-0.1,1.6-0.9,2.3c-0.7,0.7-1.1,1.6-1.7,2.4c-0.9,1.2-1.8,2.3-2.8,3.5c-0.3,0.3-0.8,0.8-1,1.3c-0.2,0.4,0.1,0.7,0.3,1.1
	c0.3,0.5,0.4,0.9,0.8,1.2c0.5,0.4,1.1,0.7,1.6,1.1c0.6,0.4,0.9,0.9,1.5,1.3C74.7,53.5,75.7,53.6,76.8,53.6z"/>
<path fill="#F3B796" d="M69.2,19.8L69.2,19.8C69.2,19.8,69.2,19.8,69.2,19.8z"/>
<path fill="#F3B796" d="M75.7,29.4c-0.2-0.8-0.3-1.7,0.1-2.5c0.6-1.4,1.3-2.7,1.2-4.3c-0.1-1.6-1.2-2.8-2.6-3.4
	c-0.7-0.3-1.5-0.5-2.3-0.5c-0.7,0-1.3-0.1-1.9,0.2c-0.3,0.2-0.8,0.5-0.9,0.9c0,0,0,0.1,0,0l0,0.6c0-0.1-0.1,0.3-0.1,0.4
	C69,21,69,21.2,68.9,21.4c-0.1,0.4-0.2,0.8-0.2,1.2c-0.1,0.8-0.2,1.6-0.3,2.4c-0.1,1.3-0.3,3.4,1.5,3.4c0.6,0,1.1-0.1,1.7-0.1
	c0.5,0,0.6,0.1,0.7,0.6c0.1,0.5,0.1,1-0.1,1.5c-0.2,0.5-0.3,0.6-0.6,1.1c-0.5,0.8,0.3,1.3,0.9,1.5c1.1,0.3,2.5-0.2,3-0.5
	c0.3-0.2,1.2-0.7,0.8-1.3C76,30.5,75.8,30.1,75.7,29.4z"/>
<path fill="#29303A" d="M78.5,19.8c-0.3-0.8-1.2-1.7-2.1-1.9c-0.5-0.1-1,0-1.5-0.1c-0.3-0.1-0.6-0.4-1-0.5c-0.8-0.2-1.6,0.2-2.4,0.3
	c-0.6,0.1-1.1,0-1.7-0.1c-0.2,0-0.6,0-0.8-0.2c-0.4-0.1-0.4,0.6-0.4,0.8c0,0.5-0.1,0.8-0.1,1.3c0,1,0.9,1.2,1.7,1.2
	c0.5,0,0.5,0.3,0.9,0.5c0.5,0.2,0.9-0.3,1.2,0.3c0.1,0.2,0.1,0.3,0.4,0.4c0.2,0.1,0.4,0,0.6,0.3c0.2,0.4,0,1,0,1.4
	c-0.1,0.4,0,1.1,0.6,0.6c0.2-0.2,0.3-0.6,0.7-0.6c0.3,0,0.4,0.2,0.5,0.5c0.1,0.7-0.5,1.1-0.4,1.7c0,0.5,0,0.9,0.3,1.2
	c0.2,0.2,0.3,0.4,0.7,0.4c0.4,0,0.6-0.1,0.8-0.4c0.3-0.3,0.5-0.6,0.9-0.9c0.3-0.3,0.8-0.7,1-1.1c0.2-0.4,0.1-1,0.1-1.4
	c0-0.4,0.2-0.8,0.3-1.2C78.9,21.6,78.7,20.7,78.5,19.8z"/>
<path fill="#A7C9EA" d="M86.9,47.6L76,40.4c-0.1-0.1-0.3-0.1-0.4,0.1l-6.2,9.1c-0.1,0.2-0.1,0.4,0.1,0.5l12.2,7
	c0.2,0.1,0.4,0,0.4-0.1L87,48C87,47.9,87,47.7,86.9,47.6z"/>
<g opacity="0.5">
	<path fill="#E0DFEE" d="M71.3,47.8c0.3-0.5,0.7-1,1-1.5c0.4-0.6,0.8-1.2,1.3-1.7c0.6-0.7,0.9-1.5,1.4-2.2c0.3-0.5,1.2-1.4,0.9-1.5
		c0,0-0.3,0.3-0.4,0.4c-0.2,0.2-0.4,0.4-0.5,0.7c-0.3,0.5-0.6,1-0.9,1.5c-0.4,0.6-0.8,1.2-1.2,1.7c-0.6,0.7-1,1.6-1.5,2.3
		c-0.3,0.4-0.5,0.8-0.8,1.1c-0.2,0.3-0.7,0.9-0.6,1c0.2,0.2,0.5-0.6,0.7-0.8C70.9,48.5,71.1,48.2,71.3,47.8z"/>
	<path fill="#E0DFEE" d="M72.2,48c0.4-0.7,0.9-1.3,1.4-1.9c0.8-1.1,1.5-2.4,2.3-3.6c0.1-0.2,1.1-1.4,0.7-1.4c-0.2,0-1.6,2.6-2.5,3.7
		c-0.4,0.5-0.7,1.1-1.1,1.6c-0.2,0.3-0.4,0.6-0.7,0.9c-0.2,0.3-0.3,0.5-0.5,0.8c-0.3,0.5-1.2,1.2-1,1.9c0.3-0.2,0.5-0.6,0.7-0.9
		C71.7,48.8,71.9,48.4,72.2,48z"/>
	<path fill="#E0DFEE" d="M77.1,41.5c-0.2,0.2-0.4,0.6-0.6,0.8c-0.2,0.3-0.5,0.7-0.7,1c-0.5,0.7-0.9,1.4-1.4,2.1
		c-0.4,0.7-0.9,1.4-1.4,2c-0.4,0.5-0.7,1.2-1.1,1.7c-0.2,0.3-0.7,0.8-0.7,1.2c0.4,0,0.9-1.1,1-1.4c0.2-0.3,0.4-0.5,0.6-0.8
		c0.2-0.3,0.4-0.6,0.6-0.8c0.5-0.6,1-1.3,1.4-2c0.5-0.8,1-1.5,1.5-2.3C76.5,42.9,77.6,41.4,77.1,41.5z"/>
</g>
<path fill="#F8FAFB" d="M77.7,41.6L72,50.3c-0.1,0.2-0.1,0.4,0.1,0.5c1.5,0.9,8.3,4.9,9.8,5.8c0.2,0.1,0.4,0,0.5-0.1L87,48
	c0.1-0.1,0-0.3-0.1-0.4L77.7,41.6z"/>
<path fill="#A7C9EA" d="M79,46.4c-0.3-0.3-0.9,0.7-1,0.9c-0.2,0.4-0.6,0.9-0.8,1.3c-0.1,0.2-0.3,0.5-0.3,0.6
	c-0.1,0.3,0.2,0.5,0.4,0.3c0.2-0.1,0.3-0.6,0.5-0.8c0.2-0.2,0.4-0.4,0.5-0.7c0.1-0.3,0.3-0.5,0.4-0.8C78.9,47.1,79.2,46.8,79,46.4z"
	/>
<path fill="#A7C9EA" d="M77.4,50.7c0.1-0.3,0.4-0.5,0.6-0.8c0.2-0.3,0.4-0.6,0.6-1c0.4-0.6,0.8-1.2,1.1-1.8c0.1-0.2,0.3-0.8,0.6-0.7
	c0.1,0.3-0.3,0.7-0.4,0.9c-0.2,0.3-0.4,0.6-0.6,0.9c-0.4,0.7-0.9,1.4-1.4,2.1c-0.1,0.1-0.2,0.4-0.3,0.5C77.5,51,77.2,51,77.4,50.7z"
	/>
<path fill="#F3B796" d="M78,51.5C78,51.5,78,51.5,78,51.5L77.7,52c-0.1,0.6-1.1,0.8-1.6,1c-0.2,0.1-0.5,0.3-0.6,0.5
	c-0.2,0.3-0.1,0.5,0.1,0.8c0.2,0.2,0.2,0.5,0.5,0.7c0.2,0.1,0.2,0.1,0.4,0.2c0.1,0.1,0.2,0.2,0.4,0.3c0.3,0.1,0.6,0.2,0.9,0.1
	c0.4-0.2,0.6-0.9,0.8-1.2c0.3-0.6,0.8-1.3,0.9-2C79.7,51.6,78.8,51.3,78,51.5z"/>
<path fill="#EE3A6F" d="M84.3,41.2c-0.7-2.7-2.3-5.4-3-6.3c-2.7-3.4-3.9-3.7-4.4-2.5c-0.8,0.6-1.2,1.4-1.4,2.1
	c-0.4,1.4-0.1,3.4,0.7,4.7c0.4,0.6,2.8,1.3,4.4,5.8c0.4,1-0.2,2.1-0.6,3c-0.4,1-1,2-1.6,2.9c-0.5,0.8-0.9,1.2-0.8,1.4
	c0.1,0.2,1.5,1.1,1.8,1.1c0.1,0,0.4-0.3,0.7-0.7c0.5-0.6,1.1-1.2,1.6-1.7c1.2-1.4,2.6-3.4,2.9-5.3C84.7,44.3,84.6,42.4,84.3,41.2z"
	/>
<path fill="#29303A" d="M73,63c-0.7-1.7-0.9-1.3-1.1,1.2c-0.1,2.5-2.2,13.1-2.2,13.1l3.8-9.3C73.5,68,73.7,64.7,73,63z"/>
<path fill="#29303A" d="M63.9,94.3c0,0-3.2,1.4-3.4,2.1c-0.2,0.7,5.5,0.6,5.7,0.1c0.2-0.5-0.3-2.1-0.3-2.1H63.9z"/>
<path fill="#29303A" d="M83,94.2c0,0-2.5,2.4-2.5,3.1c0,0.7,5.3-1.3,5.4-1.9c0-0.5-1-1.9-1-1.9L83,94.2z"/>
<path fill="#E9155E" d="M67.8,37.2c-0.2,0-0.2,0.3-0.3,0.4c-0.1,0.2-0.2,0.4-0.3,0.5c-0.1,0.1-0.2,0.3-0.3,0.5
	c-0.2,0.3-0.4,0.5-0.6,0.7c-0.7,0.8-1.4,1.3-2.3,1.9c-0.6,0.4-1.2,0.6-1.8,1c-0.6,0.4-1.3,0.7-2,1c1.6-0.4,3.2-0.8,4.8-1.2
	c0.8-0.2,1.6-0.6,2.3-0.9c0-1,0.1-2.1,0.2-3C67.7,37.9,67.8,37.5,67.8,37.2z"/>
<path fill="#FFFFFF" d="M60.4,9.1c-0.5-0.4-1.2-0.1-1.7-0.4c-0.7-0.4-0.4-0.5-0.8-1c-0.7-1-1.5-1.7-2.6-2.1c-0.7-0.3-2.8,0-3.3-0.8
	c-1.5-1.2-2.5-1.7-4.4-1.6c-1.1,0.1-1.6,0.3-2.5,1.2c-0.6,0.6-1,1.8-1.6,2.2c-0.8,0.5-1.7-0.1-2.5,0.2c-0.7,0.2-1.4,0.9-1.9,1.6
	c-0.7,1.1-0.4,1.2-1.8,1.4c-0.8,0.1-2,0.4-2.4,1.3c-1,2.3,3.5,2.3,4.7,2.2c2.6-0.1,4.7-1,7.1-0.1c1.3,0.4,2.8,0.6,4.1,0.1
	c1.1-0.4,1.9-1.4,3-1.5c1.9-0.2,4.6,1.5,6.3,0.1C61.2,11.2,61.3,9.7,60.4,9.1z"/>
<path fill="#29303A" d="M33.4,61.8c0,0-1.2-2.5-1.8-2.7c-0.6-0.1-3.4-0.1-3.8,0c-0.3,0.1-1.4,3.2-1.4,3.2h1.2c0,0,0.3-2.3,0.8-2.4
	c0.4-0.1,2.7-0.3,2.8-0.1c0.2,0.2,1.1,2.4,1.1,2.4l1.3-0.1L33.4,61.8z"/>
<path fill="#F3B796" d="M30.8,59.7c0-0.2-0.1-0.5-0.1-0.7c-0.1-0.4-0.3-0.8-0.5-1.2c-0.1-0.4-0.4-0.8-0.3-1.2
	c-0.4,0.2-1-0.1-1.5,0.2c-0.3,0.2-0.2,0.4-0.2,0.6c0,0.3,0,0.7-0.1,1c-0.1,0.5-0.2,1-0.1,1.5c0.1,0.3,0,0.6,0.2,0.9
	c0.2,0.2,0.4,0.4,0.7,0.5c0.4,0.1,0.8-0.1,1.2-0.3c0.2-0.1,0.4-0.1,0.5-0.3c0.1-0.1,0-0.3,0-0.4C30.6,60.1,30.8,59.8,30.8,59.7z
	 M29.3,59.7c0,0.1-0.2-0.5-0.1-0.6l0.2,0c0.2,0,0.3,0.1,0.4,0.3c0,0,0.2,0.2,0.2,0.4C29.8,59.6,29.2,59.3,29.3,59.7z"/>
<path fill="#447ABD" d="M23.9,62.3c0,0,12.5-0.9,13.2-0.3c0.7,0.7,1.7,10,1.1,10.6c-0.6,0.6-14.5,1.2-15.1,1
	c-0.5-0.3-0.5-10.3-0.2-10.7C23.2,62.4,23.9,62.3,23.9,62.3z"/>
<path fill="#447ABD" d="M24,31.8c0,0,1.4,0.9,2.8,2.6c1.4,1.8,2.6,6,3,9.4c0.4,3.4,0.3,13.5,0.3,13.5l-2.5,0.4
	c0,0-4.1-13.7-4.7-18.5C22.3,34.4,24,31.8,24,31.8z"/>
<path fill="#4169B2" d="M29.1,62c1.5-0.2,5.7-0.2,5.7-0.2s-2.7,0.3-2.9,1.5c-0.2,1.3,0.8,6.7,0.2,10l-9.5,0.3l0.3-10.4
	C22.8,63.3,27.5,62.2,29.1,62z"/>
<path fill="#47464D" d="M27.7,52.3c-0.1,4.7,3.5,8.4,4.6,22.9c0.9,11.8-1.5,20.7-1.5,20.7h-2.1L24,69.3c0,0-0.2,6.5-1,14.2
	C22.1,91.2,20,95.9,20,95.9h-2.1c0,0-1.1-8.9-2.2-27.8c-0.7-12.9,2.3-16.3,2.3-16.3L27.7,52.3z"/>
<path fill="#29303A" d="M28.3,53.3c-1.3,0.8-3.4,0.1-5.1,0c-1.7-0.2-2.8,0.1-4.1-0.9c-0.4-0.3-1-0.6-1.4,0.3
	c-0.2,0.9,0.7,0.6,0.2,1.8c-0.4,1.1-1.1,4.9-0.8,4.9c0.5,0.2,1.7-0.2,2.3-1.5c0.3-0.6,0.8-2.1,1.2-2.4c0.6-0.4,1.6-0.1,5.3-0.3
	C27.3,55.2,28.4,54.9,28.3,53.3z"/>
<path fill="#29303A" d="M24,69.2c0,0,0-3.4,0.4-4.4c0.4-1,2.2,8.3,2.5,11.7c0.4,3.4,1.7,19.4,1.7,19.4L24,69.2z"/>
<path fill="#29303A" d="M30.7,95.9c0,0,3.3,1.3,3.5,1.9c0.2,0.7-5.6,0.6-5.9,0.1c-0.2-0.5,0.3-2,0.3-2H30.7z"/>
<path fill="#29303A" d="M20,95.9c0,0,3.3,1.3,3.5,1.9c0.2,0.7-5.6,0.6-5.9,0.1c-0.2-0.5,0.3-2,0.3-2H20z"/>
<path fill="#447ABD" d="M28.9,41.5c-0.3-2.3-1.3-5-2.5-6.9c-0.8-1.3-2.1-3.1-3.6-3.5c-0.3-0.1-0.9,0-1.3-0.1c-1.2,0-2.6,1.2-3.3,2.1
	c-0.8,1-1.4,1.8-1.7,3c-1.1,4-0.2,7.9,0,11.5c0.1,1,0.3,2.1,0.5,3.1c0.1,0.6,0.2,1.4,0.6,1.9c0.4,0.5,1.2,0.7,1.8,0.8
	c1.2,0.2,2.3,0.5,3.6,0.7c1.4,0.1,3.6,0.5,4.8-0.2c0.7-0.4,0.5-1.6,0.6-2.5C28.8,48.1,29.3,44.8,28.9,41.5z"/>
<path fill="#F3B796" d="M25.8,21.5c0,0.3,0.1,0.6,0.2,0.9c0.1,0.3,0,0.7,0,1c0,0.7,0.2,1.3,0.2,2c0,1.1,0.3,2.8-0.7,3.6
	c-0.2,0.2-0.5,0.3-0.8,0.4c-0.4,0-0.6-0.2-1-0.1c-0.5,0.9-0.2,2.5,0.3,3.3c0.3,0.5,0.1,0.2-0.5,0.4c-0.5,0.1-1.2,0-1.7-0.1
	c-0.4,0-2.2-0.9-2.1-1.1c0.2-0.3,0.4-0.7,0.4-1.1c0.1-1.5-0.3-2.8-0.9-4.1c-0.2-0.5-0.5-1-0.6-1.6c-0.1-0.6-0.1-1.2-0.1-1.7
	c0-1.2,0.2-2.1,1.3-2.7c1.3-0.8,2.8-1.1,4.3-0.8c0.5,0.1,0.8,0.2,1.2,0.5c0.1,0.1,0.3,0.4,0.4,0.3L25.8,21.5z"/>
<path fill="#29303A" d="M26.5,20.1c-0.3-0.3-0.5-0.1-0.7-0.5c-0.2-0.3-0.2-0.4-0.5-0.6c-0.2-0.2-0.3-0.3-0.6-0.3
	c-0.3,0-0.5,0.1-0.8,0c-0.2-0.1-0.4-0.4-0.6-0.5C22.9,18,22.6,18,22.3,18c-0.3,0-0.5,0.2-0.8,0.3c-0.3,0.1-0.4-0.1-0.7-0.2
	c-0.6-0.1-1.4,0.4-1.7,0.8c0.1,0.3-1,0.2-1.4,0.3c-0.5,0.2-0.6,0.5-0.7,1c-0.1,0.5-0.2,0.3-0.5,0.6c-0.4,0.3-0.2,0.9-0.2,1.4
	c0.1,0.4,0.1,0.5-0.2,0.8c-0.3,0.4-0.4,0.7-0.2,1.2c0.1,0.3,0.3,0.6,0.2,0.9c-0.1,0.5-0.1,0.5,0.2,1c0.2,0.4,0,0.7,0.2,1.1
	c0.3,0.5,0.8,0.3,1.1,0.8c0.1,0.2,0.1,0.4,0.2,0.5c0.1,0.1,0.4,0.1,0.6,0.2c0.4,0.2,1.1,0.6,1.5,0.2c0.3-0.4,0-0.4,0.7-0.4
	c0.7,0,0.3-0.5,0.5-0.9c0.1-0.2,0.9-0.7,0.4-1c-0.1-0.1-0.4,0-0.6-0.1c-0.2-0.1-0.4-0.2-0.5-0.4c-0.2-0.3-0.4-1,0-1.2
	c0.5-0.2,0.6,0.6,1.1,0.5c0-0.2-0.1-0.4-0.2-0.6c-0.1-0.2,0-0.5-0.1-0.7c-0.1-0.4-0.2-0.7-0.2-1.1c0-0.4,0.1-0.6,0.5-0.6
	c0.3,0,0.6,0.1,1,0c0.3-0.1,0.3-0.3,0.5-0.4c0.3-0.2,0.8,0,1.1-0.1c0.3-0.1,0.4-0.4,0.7-0.5c0.4-0.2,0.4,0.1,0.7,0.3
	c0.2,0.1,0.6,0.1,0.8,0C27,21.4,26.9,20.4,26.5,20.1z"/>
<path fill="#4169B2" d="M25,33c0.5,0,1,0.8,1.2,1.2c0.3,0.5,0.6,1,0.8,1.6c0.2,0.6,0.5,1.2,0.7,1.8c2,5.2,1.2,10.2,0.9,14
	c-0.1,0.7-0.2,2-0.5,2.6c-0.4,0.9,0.6-5.2-0.5-5.8c-0.3-0.2-3.5-1.1-5.7-2.2c-2.1-1.1-3.8-3.1-4.1-3.4c-0.3-0.4-0.4-0.8-0.6-1.2
	c-0.3-0.5-0.5-0.9-0.6-1.5c-0.1-0.8-0.1-1.6-0.1-2.4c0.1-1,0.9-1.8,1.6-2.4c0.8-0.7,2-0.7,3-0.7c0.8,0.1,1.7,0.7,2.2,1.3
	c0.3,0.3,0.6,0.6,0.8,0.9c0.3,0.3,0.6,0.8,0.9,1.1c0.3,0.2,0.6,0.4,0.8,0.6c0.2,0.2,0.5,0.4,0.8,0.6c0.6,0.3,0.7-0.3,0.6-0.9
	c-0.1-0.4-0.5-1.9-0.6-2.3c-0.2-0.7-0.6-1.2-1-1.8C25.5,33.5,25,33.4,25,33z"/>
<path fill="#F3B796" d="M44.7,46c-0.1-0.2-0.9-0.2-1.1-0.2c-0.5,0-1.1,0.1-1.6,0c-0.4-0.1-0.8-0.3-1.1-0.4c-0.2-0.7,1.7-0.2,1.6-0.9
	c-0.4,0-0.7,0-1.1,0c-0.6,0-1.3,0-1.9,0.2c-0.2,0.1-0.5,0.2-0.7,0.4c-0.3,0-0.5,0-0.7-0.1c-0.5,0-1.3-0.1-1.6,0.4
	c-0.3,0.5-0.1,1.4,0.5,1.6c0.4,0.1,0.9,0,1.3,0c0.7,0,1.3,0.4,2,0.6c0.7,0.1,1.3,0.3,2,0.3c0.4,0,0.7-0.1,1.1-0.3
	c0.1-0.1,0.9-0.5,0.5-0.6c0.2,0,0.6,0,0.7-0.2c0.1-0.4-0.3-0.3-0.5-0.3C44.1,46.4,44.9,46.3,44.7,46z"/>
<path fill="#447ABD" d="M18.4,34.5c0,0,2.8-1.4,4.8,1.1c2,2.5,3.5,5.4,7.3,7c3.5,1.4,8.1,2.3,8.1,2.3l0.1,2.3c0,0-7,1.3-12.6-0.2
	c-6.2-1.6-8.4-5.5-8.9-6.8C15.8,36.6,18.4,34.5,18.4,34.5z"/>
<path fill="#EAEDEF" d="M24.7,32.3c-0.3-0.3-0.7-0.6-1.2-1.2c0.1,0.5,0.3,0.9-0.3,1.2c-0.3,0.2-1,0-1.3,0c-0.6-0.1-1.8-0.5-1.9-1.3
	c-0.3,0.4-1.1,1.2-1.5,1.6c0.9,0.3,1.6,0.5,2.5,1c0.9,0.5,1.7,1,2.6,1.5c0-0.7,0.1-1.5,0.1-2.2c0.6,0.2,1.3,0.7,1.9,1
	C25.4,33.5,25.1,32.8,24.7,32.3z"/>
</svg>
