<?xml version="1.0" encoding="utf-8"?>
<!-- Generator: Adobe Illustrator 18.1.1, SVG Export Plug-In . SVG Version: 6.00 Build 0)  -->
<svg version="1.1" id="Layer_1" xmlns="http://www.w3.org/2000/svg" xmlns:xlink="http://www.w3.org/1999/xlink" x="0px" y="0px"
	 viewBox="0 0 300 300" enable-background="new 0 0 300 300" xml:space="preserve">
<path fill="#EBEBEB" d="M267.2,99.4c0.4-3-3.8-5.5-7-5.7c-1.5-0.1-3.1,0.1-4.5-0.4c-3.1-1.1-4.4-5.1-7.4-6.4c-2.3-1-4.9-0.1-7.1,1
	c-2.2,1.1-4.4,2.5-6.8,2.7c-2.1,0.1-4.5-0.7-6.3,0.4c-1.4,0.8-2.1,2.4-3.4,3.3c-1.3,1-2.9,1.1-4.5,1.2c-1.6,0.1-3.2,0.1-4.6,0.7
	c-1.4,0.6-2.6,2.2-2.3,3.7L267.2,99.4z"/>
<path fill="#EBEBEB" d="M136.8,71.9c0.4-3-3.8-5.5-7-5.7c-1.5-0.1-3.1,0.1-4.5-0.4c-3.1-1.1-4.4-5.1-7.4-6.4c-2.3-1-4.9-0.1-7.1,1
	c-2.2,1.1-4.4,2.5-6.8,2.7c-2.1,0.1-4.5-0.7-6.3,0.4c-1.4,0.8-2.1,2.4-3.4,3.3s-2.9,1.1-4.5,1.2c-1.6,0.1-3.2,0.1-4.6,0.8
	s-2.6,2.1-2.3,3.7L136.8,71.9z"/>
<path fill="#EBEBEB" d="M78.7,165.7c0.4-3-3.8-5.5-7-5.7c-1.5-0.1-3.1,0.1-4.5-0.4c-3.1-1.1-4.4-5.1-7.4-6.4c-2.3-1-4.9-0.1-7.1,1
	c-2.2,1.1-4.4,2.5-6.8,2.6c-2.1,0.1-4.5-0.7-6.3,0.4c-1.4,0.8-2.1,2.4-3.4,3.3c-1.3,1-2.9,1.1-4.5,1.2c-1.6,0.1-3.2,0.1-4.6,0.7
	s-2.6,2.2-2.3,3.7L78.7,165.7z"/>
<path fill="#EBEBEB" d="M186.7,125.2c0.3-1.8-2.3-3.3-4.3-3.5c-0.9-0.1-1.9,0.1-2.8-0.2c-1.9-0.7-2.7-3.1-4.5-3.9
	c-1.4-0.6-3-0.1-4.3,0.6c-1.4,0.7-2.7,1.5-4.2,1.6c-1.3,0.1-2.7-0.4-3.9,0.2c-0.8,0.5-1.3,1.5-2.1,2c-0.8,0.5-1.8,0.8-2.7,0.7
	c-1,0-1.9,0.1-2.8,0.5c-0.4,0.2-0.8,0.5-1.1,0.9c-0.3,0.4-0.4,0.9-0.3,1.4L186.7,125.2z"/>
<path fill="#273238" d="M292.6,289.9c0,0.1-63.9,0.2-142.8,0.2S7,290,7,289.9s63.9-0.2,142.8-0.2S292.6,289.8,292.6,289.9z"/>
<path fill="#E0E1E0" d="M190.7,245.2l44.9,44.5l8.8,0l3.1-44.5H190.7z"/>
<path fill="#E0E1E0" d="M227.2,249.4L182,289.7l31.6,0l26.6-22.4L227.2,249.4z"/>
<path fill="#E0E1E0" d="M223,134.3l55.7,51.7l1-53.6L223,134.3z"/>
<path fill="#E0E1E0" d="M260.5,136.5L109.8,289.7h29.7l134.6-135.8L260.5,136.5z"/>
<path fill="#E0E1E0" d="M65,193.3l53.9,53.5l2.8-53.5H65z"/>
<path fill="#E0E1E0" d="M102.4,196.8L5.6,289.7h31.2l78.6-75.1L102.4,196.8z"/>
<path fill="#E11F26" d="M112,174.9l77,76.4v-76.4H112z"/>
<path fill="#E11F26" d="M162.8,176.6C161,178,50.2,289.7,50.2,289.7H98l87.1-87.6L162.8,176.6z"/>
<path fill="#E11F26" d="M60.1,52.1c3.9-1.6,5.7-6,4.2-9.9c-1.6-3.9-6-5.7-9.9-4.2c-3.9,1.6-5.7,6-4.2,9.9
	C51.8,51.8,56.2,53.7,60.1,52.1z"/>
<path fill="#E11F26" d="M56.1,62.1C56,61,56,60,56,58.9c0-1,0-2.1,0.1-3.1c0,0,0.1,1.4,0.1,3.1C56.2,60.7,56.2,62.1,56.1,62.1z"/>
<path fill="#E11F26" d="M51.7,54c0,0-0.7,1.3-1.6,2.9c-0.9,1.6-1.7,2.9-1.7,2.8c0,0,0.7-1.3,1.6-2.9C50.9,55.3,51.7,54,51.7,54z"/>
<path fill="#E11F26" d="M47.2,51.2c-0.6,0.5-1.2,1-1.8,1.5c-0.6,0.5-1.2,1-1.9,1.4c0.6-0.5,1.2-1,1.8-1.5
	C45.9,52.1,46.6,51.7,47.2,51.2z"/>
<path fill="#E11F26" d="M63.7,59c-0.1-0.3-0.2-0.5-0.2-0.8c-0.1-0.5-0.3-1.1-0.5-1.9c-0.2-0.7-0.4-1.4-0.5-1.8
	c-0.1-0.3-0.2-0.5-0.2-0.8c0.1,0.2,0.2,0.5,0.3,0.7c0.2,0.6,0.4,1.2,0.6,1.8c0.2,0.7,0.3,1.4,0.4,1.9C63.7,58.5,63.7,58.7,63.7,59z"
	/>
<path fill="#E11F26" d="M71.4,53.5c-0.8-0.6-1.5-1.2-2.2-1.9c-0.8-0.6-1.5-1.3-2.1-2c0.8,0.6,1.5,1.2,2.2,1.9
	C70.1,52.1,70.8,52.8,71.4,53.5z"/>
<path fill="#E11F26" d="M74.4,46c-0.3,0-0.6-0.1-0.9-0.1c-0.6-0.1-1.3-0.2-2.2-0.3c-0.9-0.1-1.6-0.2-2.2-0.2c-0.3,0-0.6,0-0.9-0.1
	c0.3,0,0.6-0.1,0.9,0c0.7,0,1.5,0.1,2.2,0.1c0.7,0.1,1.5,0.2,2.2,0.4C73.8,45.8,74.1,45.9,74.4,46z"/>
<path fill="#E11F26" d="M74.4,38.6c0,0-1.6,0.5-3.7,1c-2,0.5-3.7,0.9-3.7,0.8c0,0,1.6-0.5,3.7-1C72.7,38.9,74.4,38.5,74.4,38.6z"/>
<path fill="#E11F26" d="M65.8,29.9c0,0-0.8,1.3-1.8,2.8c-1,1.5-1.9,2.7-1.9,2.7c0.5-1,1.1-1.9,1.8-2.8
	C64.9,31.1,65.8,29.9,65.8,29.9z"/>
<path fill="#E11F26" d="M57.3,28.1c0,0.3,0,0.7,0,1.1c0,0.6,0,1.5,0,2.5s0,1.9,0,2.5c0,0.3,0,0.7,0,1c-0.1-0.3-0.1-0.7-0.1-1
	c0-0.6-0.1-1.5-0.1-2.5s0-1.9,0.1-2.5C57.2,28.8,57.2,28.5,57.3,28.1z"/>
<path fill="#E11F26" d="M50.8,36.2c-0.6-0.9-1.2-1.8-1.8-2.8c-1-1.6-1.7-2.8-1.7-2.9s0.8,1.2,1.8,2.8C50.1,34.9,50.8,36.2,50.8,36.2
	z"/>
<path fill="#E11F26" d="M46.9,39.5c-0.3,0-0.5,0-0.8-0.1c-0.5-0.1-1.2-0.3-1.9-0.5c-0.7-0.2-1.4-0.4-1.9-0.6
	c-0.3-0.1-0.5-0.2-0.8-0.3c0.3,0.1,0.5,0.1,0.8,0.2c0.5,0.2,1.1,0.4,1.9,0.6c0.7,0.2,1.4,0.4,1.9,0.5C46.4,39.3,46.7,39.4,46.9,39.5
	z"/>
<path fill="#E11F26" d="M45.2,45.3c-0.8,0.2-1.6,0.3-2.4,0.3c-0.8,0.1-1.6,0.2-2.4,0.2c0.8-0.2,1.6-0.3,2.4-0.3
	C43.6,45.4,44.4,45.3,45.2,45.3z"/>
<path fill="#FFFFFF" d="M272.1,212.7c0.3-2.3-2.9-4.1-5.3-4.3c-1.1-0.1-2.3,0.1-3.4-0.3c-2.3-0.8-3.3-3.8-5.6-4.8
	c-1.7-0.7-3.7-0.1-5.3,0.8c-1.7,0.8-3.3,1.9-5.1,2c-1.6,0.1-3.4-0.5-4.7,0.3c-1.1,0.6-1.6,1.8-2.6,2.5c-1,0.6-2.2,0.9-3.4,0.9
	c-1.2,0-2.4,0.2-3.5,0.6c-1.1,0.5-2,1.6-1.7,2.8L272.1,212.7z"/>
<path fill="#FFFFFF" d="M272.1,212.7h-0.2h-0.6l-2.3,0l-8.6,0.1l-28.9,0.4h-0.1v-0.1c-0.1-0.3,0-0.7,0.1-1c0.1-0.3,0.3-0.6,0.5-0.9
	c0.4-0.6,1-1,1.7-1.2c1.5-0.5,3.1-0.3,4.5-0.6c0.7-0.1,1.4-0.4,2-0.8c0.5-0.5,1-1,1.5-1.6c0.2-0.3,0.5-0.5,0.8-0.7
	c0.3-0.2,0.7-0.3,1-0.4c0.7-0.1,1.4-0.1,2.1-0.1c0.7,0.1,1.4,0.1,2,0c0.7-0.1,1.3-0.2,1.9-0.5c1.2-0.5,2.3-1.2,3.5-1.7
	c1.1-0.6,2.4-0.8,3.6-0.8c0.6,0,1.2,0.2,1.7,0.5c0.5,0.3,0.9,0.7,1.3,1.1c0.8,0.8,1.4,1.7,2.1,2.4c0.6,0.7,1.5,1.2,2.4,1.3
	c0.9,0.1,1.7,0.1,2.5,0.1c1.4,0.1,2.7,0.6,3.8,1.4c0.7,0.5,1.3,1.2,1.5,2.1C272.1,212,272.2,212.3,272.1,212.7c0-0.3,0-0.6-0.1-0.9
	c-0.3-0.8-0.8-1.5-1.6-2c-1.1-0.8-2.4-1.2-3.8-1.3c-0.8,0-1.6,0-2.6-0.1c-1-0.2-1.9-0.7-2.5-1.4c-0.7-0.7-1.3-1.6-2.1-2.4
	c-0.4-0.4-0.8-0.7-1.3-1c-0.5-0.3-1-0.4-1.6-0.5c-1.2,0-2.4,0.3-3.5,0.8c-1.1,0.5-2.2,1.2-3.5,1.7c-0.6,0.3-1.3,0.4-2,0.5
	c-0.7,0-1.4,0-2.1,0c-0.7-0.1-1.4-0.1-2.1,0.1c-0.7,0.2-1.3,0.5-1.7,1.1c-0.5,0.6-1,1.1-1.5,1.6c-0.6,0.5-1.3,0.8-2.1,0.9
	c-1.5,0.3-3.1,0.1-4.5,0.6c-0.6,0.2-1.1,0.6-1.5,1.1c-0.2,0.2-0.3,0.5-0.4,0.8c-0.1,0.3-0.1,0.6-0.1,0.9l-0.2-0.1l28.8-0.2l8.6,0h3
	C271.9,212.7,272,212.7,272.1,212.7z"/>
<path fill="#FFFFFF" d="M144.6,262.3c0.4-3-3.8-5.5-7-5.7c-1.5-0.1-3.1,0.1-4.5-0.4c-3.1-1.1-4.4-5.1-7.4-6.4c-2.3-1-4.9-0.1-7.1,1
	c-2.2,1.1-4.4,2.5-6.8,2.7c-2.1,0.1-4.5-0.7-6.3,0.4c-1.4,0.8-2.1,2.4-3.4,3.3c-1.3,1-2.9,1.1-4.5,1.2c-1.6,0.1-3.2,0.1-4.6,0.7
	s-2.6,2.2-2.3,3.7L144.6,262.3z"/>
<path fill="#FFFFFF" d="M89.7,120.8c0.3-2.5-3.2-4.6-5.9-4.8c-1.3-0.1-2.6,0.1-3.8-0.3c-2.6-0.9-3.7-4.3-6.2-5.3
	c-1.9-0.8-4.1-0.1-5.9,0.8c-1.8,0.9-3.7,2.1-5.7,2.2c-1.8,0.1-3.7-0.6-5.3,0.3c-1.2,0.7-1.8,2-2.9,2.8c-1.1,0.8-2.4,0.9-3.7,1
	c-1.3,0.1-2.7,0.1-3.9,0.6c-1.2,0.5-2.2,1.8-1.9,3.1L89.7,120.8z"/>
<path fill="#FFFFFF" d="M89.7,120.8h-0.2h-0.7l-2.6,0l-9.6,0.1l-32.2,0.4h-0.1v-0.1c-0.1-0.4,0-0.8,0.1-1.1c0.1-0.4,0.3-0.7,0.5-1
	c0.5-0.6,1.1-1.1,1.9-1.3c1.7-0.6,3.4-0.3,5-0.6c0.8-0.1,1.6-0.4,2.2-0.9c0.6-0.5,1.1-1.1,1.6-1.8c0.3-0.3,0.6-0.6,0.9-0.8
	c0.4-0.2,0.7-0.4,1.1-0.5c0.8-0.1,1.6-0.2,2.4-0.1c0.8,0.1,1.5,0.1,2.3,0.1c0.7-0.1,1.5-0.3,2.1-0.6c1.4-0.5,2.6-1.3,3.9-1.9
	c1.2-0.6,2.6-0.9,4-0.9c0.7,0.1,1.3,0.3,1.9,0.6c0.5,0.3,1,0.7,1.5,1.2c0.9,0.9,1.5,1.9,2.3,2.6c0.7,0.8,1.7,1.3,2.7,1.5
	c1,0.2,1.9,0.1,2.8,0.1c1.5,0.1,3,0.7,4.3,1.6c0.8,0.5,1.4,1.4,1.7,2.3c0.1,0.2,0.1,0.5,0.1,0.8C89.7,120.8,89.7,120.8,89.7,120.8
	c0,0,0-0.1,0-0.2c0-0.2,0-0.5-0.1-0.7c-0.3-0.9-0.9-1.7-1.7-2.2c-1.2-0.9-2.7-1.4-4.2-1.5c-0.9-0.1-1.8,0-2.9-0.1
	c-1.1-0.2-2.1-0.7-2.8-1.5c-0.8-0.8-1.5-1.8-2.3-2.6c-0.4-0.5-0.9-0.8-1.4-1.1c-0.5-0.3-1.2-0.5-1.8-0.5c-1.3,0-2.7,0.3-3.9,0.9
	c-1.3,0.6-2.5,1.4-3.9,1.9c-0.7,0.3-1.5,0.5-2.2,0.6c-0.8,0.1-1.6,0-2.3,0c-0.8-0.1-1.5-0.1-2.3,0.1c-0.8,0.2-1.4,0.6-1.9,1.2
	c-0.5,0.6-1.1,1.2-1.7,1.8c-0.7,0.5-1.5,0.9-2.3,1c-1.7,0.3-3.4,0.1-5,0.6c-0.7,0.2-1.3,0.6-1.7,1.2c-0.2,0.3-0.4,0.6-0.5,0.9
	c-0.1,0.3-0.1,0.7-0.1,1l-0.2-0.1l32.1-0.2l9.6-0.1L89.7,120.8L89.7,120.8z"/>
<path fill="#FFFFFF" d="M251.5,55.3c0.3-2-2.5-3.6-4.6-3.8c-1-0.1-2,0.1-3-0.3c-2.1-0.7-2.9-3.4-4.9-4.2c-1.5-0.6-3.2-0.1-4.7,0.7
	s-2.9,1.6-4.5,1.8c-1.4,0.1-3-0.4-4.2,0.3c-0.9,0.5-1.4,1.6-2.2,2.2c-0.9,0.5-1.9,0.8-2.9,0.8c-1,0-2.1,0.1-3,0.5
	c-0.9,0.4-1.7,1.4-1.5,2.4L251.5,55.3z"/>
<path fill="#FFFFFF" d="M251.5,55.3h-0.2h-0.5l-2,0l-7.5,0.1l-25.3,0.3h-0.1v-0.1c0-0.3,0-0.6,0.1-0.9c0.1-0.3,0.2-0.6,0.4-0.8
	c0.4-0.5,0.9-0.8,1.5-1c1.3-0.5,2.7-0.3,4-0.5c0.6-0.1,1.2-0.3,1.7-0.7c0.5-0.4,0.9-0.9,1.3-1.4c0.4-0.5,1-0.9,1.7-1
	c0.6-0.1,1.3-0.1,1.9,0c0.6,0.1,1.2,0.1,1.8,0c0.6-0.1,1.1-0.2,1.7-0.4c1.1-0.4,2-1,3.1-1.5c1-0.5,2.1-0.7,3.2-0.7
	c0.5,0,1,0.2,1.5,0.5c0.4,0.3,0.8,0.6,1.2,0.9c0.7,0.7,1.2,1.5,1.8,2.1c0.6,0.6,1.3,1,2.1,1.2c0.8,0.1,1.5,0.1,2.2,0.1
	c1.2,0.1,2.4,0.5,3.4,1.3c0.6,0.4,1.1,1,1.3,1.8C251.6,54.8,251.6,55,251.5,55.3c0-0.3,0-0.6,0-0.8c-0.3-0.7-0.8-1.3-1.4-1.7
	c-1-0.7-2.1-1.1-3.3-1.2c-0.7,0-1.4,0-2.2-0.1c-0.9-0.1-1.6-0.6-2.2-1.2c-0.6-0.6-1.2-1.4-1.8-2.1c-0.3-0.3-0.7-0.7-1.1-0.9
	c-0.4-0.2-0.9-0.4-1.4-0.4c-1.1,0-2.1,0.2-3,0.7c-1,0.5-2,1.1-3.1,1.5c-0.6,0.2-1.1,0.4-1.7,0.5c-0.6,0-1.2,0-1.8,0
	c-0.6-0.1-1.2-0.1-1.8,0c-0.6,0.1-1.1,0.5-1.5,0.9c-0.4,0.5-0.8,1-1.3,1.4c-0.5,0.4-1.2,0.7-1.9,0.8c-1.3,0.2-2.7,0.1-3.9,0.5
	c-0.5,0.2-1,0.5-1.4,0.9c-0.2,0.2-0.3,0.4-0.4,0.7c-0.1,0.3-0.1,0.5,0,0.8l-0.2-0.1l25.2-0.2h7.6h2.6L251.5,55.3z"/>
<path fill="#465B65" d="M148,159.6l-0.4,9.8c0,0,9.8,3.7,9.9,5.5l-19-0.1l0-15.2L148,159.6z"/>
<path fill="#E0E1E0" d="M141.8,168.5c-0.2,0.1-0.3,0.2-0.4,0.3c-0.1,0.2-0.1,0.4-0.1,0.5c0,0.2,0.2,0.3,0.3,0.4
	c0.2,0.1,0.4,0.1,0.5,0.1c0.2-0.1,0.4-0.2,0.5-0.3c0.1-0.2,0.2-0.4,0.1-0.6c-0.1-0.2-0.2-0.3-0.4-0.4
	C142.1,168.5,141.9,168.5,141.8,168.5"/>
<g opacity="0.6">
	<path fill="#FFFFFF" d="M138.5,174.8l0.1-1.5l18.1,0.7c0,0,0.8,0.4,0.7,1L138.5,174.8z"/>
</g>
<path fill="#273238" d="M147.9,169.3c0,0.1-0.5,0.1-0.9,0.4c-0.5,0.3-0.7,0.7-0.8,0.6s0.1-0.6,0.6-0.9
	C147.3,169.1,147.9,169.2,147.9,169.3z"/>
<path fill="#273238" d="M149.9,170.1c0,0.1-0.4,0.2-0.7,0.6c-0.3,0.4-0.4,0.8-0.5,0.8c-0.1,0-0.1-0.5,0.3-1S149.9,170,149.9,170.1z"
	/>
<path fill="#273238" d="M151,172.5c-0.1,0-0.2-0.4,0-0.9s0.7-0.7,0.7-0.6c0,0.1-0.2,0.3-0.4,0.8C151.1,172.1,151.1,172.5,151,172.5z
	"/>
<path fill="#273238" d="M147.8,167.1c0,0.1-0.5,0-1,0s-0.9,0.2-1,0.1c0-0.1,0.4-0.4,1-0.4C147.4,166.7,147.8,167,147.8,167.1z"/>
<path fill="#465B65" d="M177.5,159.6l-0.4,9.8c0,0,9.8,3.7,9.9,5.5l-19-0.1l0-15.2L177.5,159.6z"/>
<path fill="#E0E1E0" d="M171.2,168.5c-0.2,0.1-0.3,0.2-0.4,0.3c-0.1,0.2-0.1,0.4-0.1,0.5c0,0.2,0.2,0.3,0.3,0.4
	c0.2,0.1,0.4,0.1,0.5,0.1c0.2-0.1,0.4-0.2,0.5-0.3c0.1-0.2,0.2-0.4,0.1-0.6c-0.1-0.2-0.2-0.3-0.4-0.4
	C171.6,168.5,171.3,168.5,171.2,168.5"/>
<g opacity="0.6">
	<path fill="#FFFFFF" d="M168,174.8l0.1-1.5l18.1,0.7c0,0,0.8,0.4,0.7,1L168,174.8z"/>
</g>
<path fill="#273238" d="M177.4,169.3c0,0.1-0.5,0.1-0.9,0.4c-0.5,0.3-0.7,0.7-0.8,0.6c-0.1,0,0.1-0.6,0.6-0.9
	C176.8,169.1,177.4,169.2,177.4,169.3z"/>
<path fill="#273238" d="M179.3,170.1c0,0.1-0.4,0.2-0.7,0.6c-0.3,0.4-0.4,0.8-0.5,0.8s-0.1-0.5,0.3-1
	C178.8,170.1,179.3,170,179.3,170.1z"/>
<path fill="#273238" d="M180.5,172.5c-0.1,0-0.2-0.4,0-0.9s0.7-0.7,0.7-0.6c0,0.1-0.2,0.3-0.4,0.8
	C180.6,172.1,180.6,172.5,180.5,172.5z"/>
<path fill="#273238" d="M177.2,167.1c0,0.1-0.5,0-1,0c-0.5,0-0.9,0.2-1,0.1c0-0.1,0.3-0.4,1-0.4C176.8,166.7,177.3,167,177.2,167.1z
	"/>
<path fill="#273238" d="M138.6,31.5c-0.7-1.8-1.3-3.7-1.7-5.6c-0.4-1.9-0.3-3.9,0.3-5.8c0.1-0.3,0.9-2.2,1.2-2.1
	c0.2,0-0.3,1.8-0.2,1.9c1,1.7,1.5,3.7,1.3,5.8C139.5,27.7,139.2,29.6,138.6,31.5"/>
<path fill="#FBBF9E" d="M139.2,41.8l-0.7-17.6c-0.3-4.9,1.8-9.2,6.7-9.4h0.5c2.2,0,4.2,0.9,5.8,2.4c1.6,1.5,2.5,3.5,2.7,5.7
	c0.3,4.2,0.5,8.9,0.4,11.2c-0.1,4.7-4.8,5.3-4.8,5.3s0.2,3.4,0.2,4.7c0,0-0.5,0.4-4.9,0.5C140.9,44.8,139.2,41.8,139.2,41.8z"/>
<path fill="#F7996E" d="M149.9,39.4c-2.1,0-4.2-0.7-6-1.9c0,0,1.4,3.4,6.1,3.1L149.9,39.4z"/>
<path fill="#273238" d="M152.6,27.1c0,0.2-0.1,0.3-0.2,0.5c-0.1,0.1-0.3,0.2-0.5,0.2c-0.2,0-0.3,0-0.5-0.2c-0.1-0.1-0.2-0.3-0.2-0.4
	c0-0.2,0.1-0.3,0.2-0.5c0.1-0.1,0.3-0.2,0.5-0.2c0.2,0,0.3,0,0.5,0.2C152.5,26.8,152.6,27,152.6,27.1z"/>
<path fill="#273238" d="M153.1,25.5c-0.1,0.1-0.6-0.3-1.3-0.3c-0.7,0-1.2,0.3-1.3,0.2c-0.1-0.1,0-0.2,0.3-0.4
	c0.3-0.2,0.7-0.3,1.1-0.3c0.4,0,0.7,0.1,1,0.4C153,25.3,153.1,25.4,153.1,25.5z"/>
<path fill="#273238" d="M146.5,27.2c-0.1,0.1-0.6-0.3-1.3-0.3s-1.3,0.3-1.3,0.2c-0.1-0.1,0-0.2,0.3-0.4c0.3-0.2,0.7-0.3,1.1-0.3
	c0.4,0,0.7,0.1,1,0.4C146.5,27,146.5,27.2,146.5,27.2z"/>
<path fill="#273238" d="M148.7,31.1c0.4-0.1,0.8-0.2,1.2-0.2c0.2,0,0.4,0,0.4-0.2c0-0.2,0-0.4-0.1-0.5l-0.5-1.4
	c-0.5-1.2-0.9-2.4-1.2-3.7c0.6,1.1,1.1,2.3,1.4,3.6l0.5,1.4c0.1,0.2,0.1,0.5,0.1,0.7c0,0.1-0.1,0.1-0.1,0.2c-0.1,0-0.1,0.1-0.2,0.1
	c-0.1,0-0.2,0-0.3,0C149.5,31.2,149.1,31.2,148.7,31.1z"/>
<path fill="#273238" d="M146.5,25.3c-0.1,0.2-0.8,0-1.6,0.1c-0.8,0-1.5,0.2-1.6,0c0-0.1,0.1-0.3,0.4-0.4c0.4-0.2,0.8-0.3,1.2-0.3
	c0.4,0,0.9,0.1,1.3,0.3C146.4,25.1,146.6,25.2,146.5,25.3z"/>
<path fill="#273238" d="M153.3,22.8c-0.1,0.2-0.7,0.1-1.4,0.3c-0.7,0.1-1.2,0.4-1.4,0.2c-0.1-0.1,0-0.2,0.2-0.5
	c0.3-0.3,0.7-0.4,1.1-0.5c0.4-0.1,0.8-0.1,1.2,0.1C153.3,22.5,153.4,22.7,153.3,22.8z"/>
<path fill="#FBBF9E" d="M138.9,27.6c-0.1,0-3.2-1-3.2,2.2c0,3.2,3.2,2.5,3.3,2.4C139,32.2,138.9,27.6,138.9,27.6z"/>
<path fill="#F7996E" d="M137.9,31.1c0,0-0.1,0-0.2,0.1c-0.1,0-0.1,0-0.2,0c-0.1,0-0.1,0-0.2,0c-0.2-0.1-0.4-0.3-0.5-0.5
	c-0.1-0.2-0.2-0.5-0.2-0.7c0-0.3,0-0.5,0.1-0.8c0-0.1,0.1-0.2,0.2-0.3c0.1-0.1,0.2-0.1,0.3-0.2c0.1,0,0.1,0,0.2,0
	c0.1,0,0.1,0.1,0.1,0.1c0,0.1,0,0.2,0,0.2c0,0,0.1-0.1,0-0.2c0-0.1-0.1-0.1-0.1-0.2c-0.1-0.1-0.2-0.1-0.3-0.1
	c-0.1,0-0.3,0.1-0.4,0.2c-0.1,0.1-0.2,0.2-0.2,0.3c-0.1,0.3-0.2,0.6-0.2,0.9c0,0.3,0.1,0.6,0.2,0.8c0.1,0.2,0.4,0.4,0.6,0.6
	c0.1,0,0.2,0,0.3,0c0.1,0,0.2-0.1,0.2-0.1C137.9,31.1,137.9,31.1,137.9,31.1z"/>
<path fill="#273238" d="M152.1,17.7c0.5-0.3-1.1-1.9-2.4-2.5c-1.9-0.8-4.9-1.3-6.6-0.8c-2.1,0.7-3.9,1.8-4.9,3.7
	c-1,2-1.4,4.2-1.3,6.4c0,0.7,0.2,1.4,0.5,1.9c0.5,0.7,1.3,1.1,1.3,2.1c0,0.2,0,0.4,0.1,0.5c0.1,0.2,0.2,0.3,0.3,0.4
	c0.6,0.6,1.3,0,1.6-0.6c0.7-1.3,0.7-2.8,0.7-4.2c0.1-1,0-2-0.3-3c-0.2-0.5-0.4-1-0.6-1.6c-0.1-0.3-0.1-0.5-0.1-0.8
	c0-0.3,0.1-0.5,0.3-0.8c0.1-0.1,0.2-0.2,0.3-0.3c0.4-0.4,1-0.7,1.6-0.8c0.6-0.1,1.2-0.1,1.7,0.1c1.8,0.6,4.9,1.5,5.7,0.8
	c0.6-0.4,1-0.9,1.4-1.5L152.1,17.7z"/>
<path fill="#273238" d="M160.2,17.2c-0.1-0.2-0.2-0.3-0.4-0.4c-0.4-0.2-0.8-0.2-1.2-0.1c-1.3,0.1-2.6-0.2-3.7-0.9
	c-0.6-0.7-1.2-1.3-1.8-1.9c-1.6-1.4-2.8-2.4-4.1-2.8c-2-0.6-4-0.6-6-0.1c-1.6,0.5-3.1,2-3.2,3.7c-1-0.8-2.4-0.6-3.5-0.1l0,0
	c-1.2,0.5-1.9,1.9-2.2,3.2c-0.3,1.3-0.4,2.7-1,3.9c-0.1,0.3-0.3,0.6-0.1,0.8c0.1,0.1,0.2,0.2,0.3,0.2c0.1,0,0.2,0,0.3,0
	c0.2-0.1,0.4-0.2,0.6-0.3l-0.4,1c0.5,0,0.9,0,1.4-0.2c0.3,1.1,1.7,2.9,2.2,4c0.5-0.1-0.1-0.6,0.3-0.4c0.5,0.4,0.7,1.1,1.4,0.8
	c0.4-0.2,0.7-1,0.8-1.4c0.7-2.6,0.8-5.4,0.3-8c0.5-0.6,1.1-1.1,1.8-1.5l-0.1,0.1c1.3-0.6,2.8-1.1,4.1-0.6c1,0.4,1.7,1.4,2.5,2.2
	c0.7,0.7,1.6,1.3,2.6,1.6c1,0.4,1.7,0.4,2.7,0.3c0.2,1.3,0.4,3.4,0.6,4.8l1-2.2c0.1-0.2,0.2-0.3,0.2-0.5l0-0.1
	c0.1-0.3,0.2-0.5,0.3-0.8c0.2,0.2,0.4,0.2,0.6,0.2c0.2,0,0.4-0.1,0.6-0.3c0.2-0.2,0.2-0.4,0.2-0.6c0-0.2-0.1-0.4-0.2-0.6
	c-0.1-0.2-0.3-0.3-0.4-0.4c0.2,0.1,0.4,0.2,0.6,0.3c0.2,0,0.5,0,0.7-0.1c0.2-0.1,0.4-0.2,0.5-0.4c0.1-0.2,0.2-0.4,0.2-0.6
	c0-0.2-0.1-0.3-0.2-0.4c-0.1-0.1-0.2-0.2-0.4-0.3c0.6,0,1.2-0.2,1.7-0.5C160,18,160.3,17.6,160.2,17.2z"/>
<path fill="#273238" d="M149.2,33.1c0,0.1-0.2,0.2-0.5,0.2c-0.4,0-0.8,0-1.2-0.2c-0.4-0.2-0.7-0.4-1-0.8c-0.2-0.3-0.2-0.5-0.2-0.5
	c0,0,0.5,0.6,1.3,0.9C148.4,33,149.1,32.9,149.2,33.1z"/>
<path fill="#FBBF9E" d="M193.7,25.3c0,0-0.1-0.7-0.5-0.7c-0.2,0-0.5,0.1-0.7,0.2c-0.2,0.1-0.4,0.3-0.5,0.5
	C191.7,25.8,193.7,25.3,193.7,25.3z"/>
<path fill="#FBBF9E" d="M184.2,37.2l0.4-5.9l1.2-6.1c0,0,0.9-1,1.4-0.8c0.5,0.2,0.3,1,0.3,1s1.3-1.4,1.8-1.1
	c0.5,0.3,0.3,1.1,0.3,1.1s1.2-1.6,1.7-1.1c0.5,0.4,0,1.1,0,1.1s0.7,6.8,0.4,9.2c-0.1,0.7-0.4,1.4-0.8,2c-0.4,0.6-1,1-1.6,1.4l-1,3.8
	l-4.8-2.6L184.2,37.2z"/>
<path fill="#E11F26" d="M187.2,29.5L161,29.2v-2.1l26.2-0.7V29.5z"/>
<path fill="#E11F26" d="M214.8,31.5l-37-1.6c-0.5-1.3-0.5-2.8,0-4.1l36.8-1.6C216.3,26,216.3,29.7,214.8,31.5z"/>
<path fill="#E0E1E0" d="M214.5,24.6c0,0-1.1,1-1.1,3.3c0,2.3,1.2,3.2,1.2,3.2c0.8-1,1.2-2.3,1-3.6C215.4,25.4,214.5,24.6,214.5,24.6
	z"/>
<path fill="#273238" d="M213,31.5c-0.3-0.2-0.5-0.5-0.7-0.9c-0.5-0.8-0.7-1.7-0.7-2.7c0-0.9,0.2-1.9,0.6-2.7
	c0.2-0.4,0.4-0.7,0.7-0.9c0,0-0.2,0.4-0.5,1c-0.3,0.8-0.5,1.7-0.5,2.6c0,0.9,0.2,1.8,0.6,2.6C212.7,30.9,212.8,31.2,213,31.5z"/>
<path fill="#273238" d="M214.7,24.3c0,0-0.2,0.4-0.5,1c-0.4,0.8-0.6,1.7-0.6,2.6c0,0.9,0.2,1.8,0.7,2.6c0.2,0.3,0.4,0.6,0.7,0.9
	c0,0-0.1,0-0.3-0.1c-0.2-0.2-0.4-0.4-0.6-0.7c-0.5-0.8-0.8-1.7-0.8-2.7c0-1,0.2-1.9,0.7-2.7C214.1,24.9,214.3,24.6,214.7,24.3z"/>
<path fill="#FFFFFF" d="M215.1,26.2c0-0.1-0.1-0.2-0.2-0.3c0,0-0.1-0.1-0.2-0.1c-0.1,0-0.1,0-0.2,0c-0.1,0-0.1,0-0.2,0.1
	c0,0-0.1,0.1-0.1,0.2c0,0.1,0,0.3,0,0.4c0.1,0.3,0.4,0.5,0.3,0.8c0,0.3-0.1,0.5-0.1,0.8c0,0.1,0,0.2,0.1,0.3c0,0,0.1,0.1,0.1,0.1
	c0,0,0.1,0,0.1,0c0.2,0,0.2-0.2,0.3-0.4C215.4,27.5,215.4,26.8,215.1,26.2z"/>
<path fill="#273238" d="M177.8,30.1c-0.4-0.6-0.6-1.4-0.5-2.1c0-0.7,0.2-1.5,0.6-2.1c0.1,0-0.3,0.9-0.3,2.1
	C177.6,29.2,177.9,30.1,177.8,30.1z"/>
<path fill="#E11F26" d="M160.9,29.7c-0.1,0-0.2,0-0.3-0.1c-0.1-0.1-0.1-0.2-0.1-0.3v-2.2c0-0.1,0-0.2,0.1-0.3
	c0.1-0.1,0.2-0.1,0.3-0.1c0.1,0,0.2,0,0.3,0.1c0.1,0.1,0.1,0.2,0.1,0.3v2.2c0,0.1,0,0.2-0.1,0.3C161.2,29.6,161.1,29.7,160.9,29.7z"
	/>
<path fill="#273238" d="M160.9,29.7c0,0,0.1,0,0.2-0.1c0.1-0.1,0.1-0.1,0.1-0.2c0-0.1,0-0.3,0-0.4c0-0.4,0-0.7,0-1.1
	c0-0.2,0-0.4,0-0.7c0,0,0-0.1,0-0.1c0,0,0-0.1,0-0.1c0,0-0.1-0.1-0.1-0.1c0,0-0.1,0-0.1,0c0,0-0.1,0-0.1,0c0,0-0.1,0-0.1,0.1
	c0,0,0,0.1,0,0.1c0,0,0,0.1,0,0.1c0,0.2,0,0.4,0,0.7c0,0.4,0,0.8,0,1.1v0.4c0,0,0,0.1,0,0.1c0,0,0,0.1,0.1,0.1
	C160.9,29.6,161,29.6,160.9,29.7c0.1,0-0.1,0.1-0.2,0c-0.1,0-0.1-0.1-0.1-0.1c0-0.1-0.1-0.1-0.1-0.2c0-0.1,0-0.3,0-0.4
	c0-0.4,0-0.7,0-1.1c0-0.2,0-0.4,0-0.7c0-0.2,0-0.3,0.1-0.4c0.1-0.1,0.1-0.1,0.2-0.1c0.1,0,0.2-0.1,0.2-0.1c0.1,0,0.2,0,0.2,0.1
	c0.1,0,0.1,0.1,0.2,0.1c0.1,0.1,0.1,0.3,0.1,0.4c0,0.2,0,0.4,0,0.7c0,0.4,0,0.8,0,1.1c0,0.1,0,0.3,0,0.4c0,0.1,0,0.1-0.1,0.2
	c0,0.1-0.1,0.1-0.1,0.1C161,29.7,160.9,29.7,160.9,29.7z"/>
<path fill="#FBBF9E" d="M165.5,34.1c0,0-0.6-6.9-0.4-7.5s2.1-2.7,2.7-2.8c0.7-0.1,0.7,0.7,0.7,0.7c0.6-0.4,1.2-0.6,1.8-0.7
	c0.3,0,0.5,0,0.7,0.2c0.2,0.2,0.3,0.4,0.4,0.6c0.4-0.3,1-0.3,1.5-0.2c0.4,0.1,0.8,0.8,0.8,0.8s1-0.4,1.4,0c0.4,0.4,0.6,1,0.6,1.5
	c-0.6,0-1.2,0.2-1.7,0.5c-0.1,1.5-0.3,3-0.6,4.5c-0.4,1.5-1.8,2.7-2.3,3.5l-0.4,5.1l-6.3-3.3L165.5,34.1z"/>
<path fill="#F7996E" d="M166.9,27.1c0-0.3,0-0.6,0.1-0.9c0.1-0.3,0.2-0.6,0.4-0.8c0.2-0.3,0.4-0.5,0.6-0.7c0.3-0.2,0.6-0.3,0.9-0.4
	c-0.5,0.4-0.9,0.8-1.2,1.3C167.4,26,167.1,26.5,166.9,27.1z"/>
<path fill="#F7996E" d="M169.9,27c-0.1-0.3-0.1-0.6-0.1-0.8c0-0.3,0.2-0.6,0.3-0.8c0.2-0.4,0.5-0.6,0.9-0.8c0.3-0.1,0.5-0.1,0.5,0
	c0,0-0.7,0.2-1.2,1C170.2,26,170.1,26.5,169.9,27z"/>
<path fill="#F7996E" d="M172.2,26.8c-0.1,0,0.1-0.7,0.6-1.2c0.6-0.5,1.2-0.6,1.2-0.5c0,0.1-0.5,0.3-1,0.8
	C172.5,26.3,172.3,26.8,172.2,26.8z"/>
<path fill="#FBBF9E" d="M188.2,35.8c1-1.2,0.2-4.5,0.2-4.5c0.4-0.2,0.8-0.4,1.2-0.8c0.3-0.3,0.6-0.7,0.7-1.2
	c0.4-1.5-0.4-1.7-0.4-1.7c-0.2,0.1-2.5,1.6-3.7,2.2c-1.2,0.6-1.5,6.9-1.5,6.9"/>
<path fill="#F7996E" d="M184.7,36.6c0-0.3,0-0.6,0-0.8c0-0.5,0.1-1.3,0.2-2.2c0.1-1.1,0.4-2.2,0.7-3.3c0.1-0.2,0.2-0.3,0.2-0.4
	c0.1-0.1,0.3-0.3,0.4-0.3c0.3-0.2,0.6-0.3,0.9-0.5L189,28c0.3-0.2,0.6-0.4,0.9-0.6l0.1,0l0.1,0c0.1,0.1,0.2,0.1,0.3,0.2
	c0.1,0.1,0.1,0.2,0.2,0.4c0.1,0.2,0.1,0.4,0.1,0.7c0,0.6-0.2,1.2-0.6,1.7c-0.4,0.5-0.9,0.8-1.5,1l0.1-0.2c0.3,1.1,0.3,2.3,0.2,3.4
	c-0.1,0.3-0.2,0.6-0.3,0.9c-0.1,0.1-0.1,0.2-0.2,0.3c0-0.1,0.1-0.2,0.1-0.3c0.1-0.3,0.2-0.6,0.2-0.9c0.1-1.1,0-2.2-0.3-3.3l0-0.1
	l0.1,0c0.7-0.3,1.2-0.7,1.5-1.4c0.2-0.3,0.3-0.7,0.3-1.1c0-0.2,0-0.4,0-0.5c-0.1-0.2-0.2-0.3-0.3-0.4h0.1c-0.3,0.2-0.6,0.4-0.9,0.5
	c-0.6,0.4-1.2,0.7-1.8,1.1c-0.3,0.2-0.6,0.3-0.9,0.5c-0.1,0.1-0.2,0.1-0.3,0.3c-0.1,0.1-0.2,0.2-0.2,0.4c-0.4,1-0.6,2.1-0.8,3.2
	c-0.1,0.9-0.2,1.7-0.3,2.2C184.8,36.1,184.8,36.4,184.7,36.6z"/>
<path fill="#273238" d="M139.3,90.7c0,0,0.7,29.9,0,33.5c-0.7,3.6-2,18.7-2,29.9s0.5,13.7,0.5,13.7h10.8c0,0,0.8-21.2,4.1-33.5
	c3.1-11.4,6.7-28.8,6.7-36.3V87.8h-19.2L139.3,90.7z"/>
<path fill="#273238" d="M165.5,87.8c0,0,11.4,31.6,12.1,40.8c0.7,9.2,0.8,39.2,0.8,39.2h-11.2l-1.5-36.2l-8.6-23.5V87.8H165.5z"/>
<path fill="#465B65" d="M159.4,104.8c0,0.3-0.1,0.6-0.1,0.9c-0.1,0.6-0.3,1.4-0.5,2.3c-0.4,2-0.9,4.7-1.5,7.7
	c-0.6,3-1.1,5.7-1.6,7.7c-0.2,1-0.4,1.8-0.6,2.3c-0.1,0.3-0.1,0.6-0.3,0.8c0-0.3,0.1-0.6,0.1-0.9c0.1-0.6,0.3-1.4,0.4-2.3
	c0.4-2,0.9-4.7,1.5-7.7c0.6-3,1.1-5.7,1.6-7.7c0.2-1,0.4-1.8,0.6-2.3C159.2,105.4,159.3,105.1,159.4,104.8z"/>
<path fill="#465B65" d="M169.8,101.8h2.4c0,0,0.6-8.3-0.8-13.9c-1.4-5.6-8.5-30.1-8.5-30.1l-7.9-13l-4.2-1.9l13.8,46.4L169.8,101.8z
	"/>
<path opacity="0.3" fill="#010101" enable-background="new    " d="M161,61.5c0,0,7.3,21.6,8.5,27.2c0.8,4.3,1.4,8.7,1.8,13.1h-1.6
	l-5.7-15c0,0-5.9-23.9-5.7-23.9C158.7,62.9,161,61.5,161,61.5z"/>
<path fill="#E0E1E0" d="M137.6,42.4l0.7-4.2l11.6,5.2V41l5.1,8.6l11.3,32c0.4,1,0.8,4.3,0.1,5.1l-0.9,1.2l-12.2,1.6l-11.6-41.9
	L137.6,42.4z"/>
<path opacity="0.3" fill="#010101" enable-background="new    " d="M139.5,104.8c0,0,15.5,1.7,18.7,0.5c0.9-0.4,1.7-1,2.3-1.8
	c0.6-0.8,0.9-1.7,1-2.7c0,0,1.6-11,1.4-13.5c-0.2-2.2-0.5-4.5-1-6.7l-22.5,22.2L139.5,104.8z"/>
<path fill="#E11F26" d="M151.2,47.2c0,0,5.3,18.1,5.3,18.2c0,0.1,5.9,18.5,5.9,18.5l1.2-5.5l-8.2-27.5l-3.3-4.1L151.2,47.2z"/>
<path fill="#465B65" d="M134.2,44.1c-5.4,3.3-5.7,8.5-3.3,14.4c0.4,1,1.2,2.7,1.7,3.8c2.3,5,7.2,13.1,7.2,15c0,4.5-4,25.2-4,25.2
	s21.7,2.6,23.7,0.6c2-2,3.5-14.8,2.8-20.6c-0.7-6.3-3.9-17-5.3-20.9c-0.8-2.4-3.4-8.3-6.5-12.2c-2.3-2.9-5.1-5.4-8.2-7.5l-4.6-3
	l-0.9,3.2C135.9,42.9,135.1,43.5,134.2,44.1z"/>
<path fill="#465B65" d="M155.3,45.5c0.5,0,20.3,6.5,19.1,6L175,51l7.1-10.8l6.5,3.9c0,0-6.4,12.3-7.5,14.3c-0.5,0.9-1.3,1.7-2.2,2.3
	c-0.9,0.6-2,0.8-3.1,0.8c-1.5,0-13.9-2.1-13.9-2.1L155.3,45.5z"/>
<path fill="#E0E1E0" d="M163.3,38.1l1.5-2.7l6.9,3.9l-1.1,3L163.3,38.1z"/>
<path opacity="0.3" fill="#010101" enable-background="new    " d="M132.9,58.7c0,0,13.3,7.4,17.6,8.4c4.2,1,9,2.3,9,2.3l-1.9-6.1
	l-11.6-7L132.9,58.7z"/>
<path fill="#465B65" d="M132.9,58.7c-0.2-0.1,20,7,24.1,5.8c4.1-1.3,5.4-5.3,6.9-7.9c2.7-4.6,7.5-13.7,7.5-13.7l-8.5-4.9l-8.5,14.2
	c0,0-15-6.2-16.4-6.6s-5.7-1-7.7,4C127.8,55.1,132.9,58.7,132.9,58.7z"/>
<path fill="#273238" d="M132.9,58.7c-0.1,0-0.1-0.1-0.2-0.1c-0.1-0.1-0.2-0.2-0.4-0.3c-0.5-0.5-1-1-1.4-1.5c-0.7-0.9-1.1-1.9-1.3-3
	c-0.1-0.3-0.1-0.7-0.1-1c0-0.4,0-0.7,0-1.1c0-0.4,0.1-0.7,0.2-1.1c0.1-0.4,0.3-0.8,0.4-1.1c0.3-0.8,0.8-1.6,1.4-2.2
	c0.7-0.7,1.5-1.2,2.4-1.6c1-0.3,2.1-0.4,3.1-0.2c0.5,0.1,1.1,0.2,1.6,0.5l1.6,0.6c4.2,1.7,9,3.6,14,5.7l-0.2,0.1l8.5-14.2l0.1-0.1
	l0.1,0.1l3.1,1.8l5.5,3.1l0.1,0.1l-0.1,0.1c-1.7,3.2-3.3,6.3-5,9.3c-0.8,1.5-1.6,2.9-2.4,4.3s-1.4,2.8-2.3,4.2
	c-0.8,1.3-1.9,2.4-3.2,3.2c-0.6,0.4-1.3,0.6-2,0.8c-0.7,0.1-1.4,0.1-2.1,0c-2.5-0.3-5-0.8-7.4-1.5c-4.5-1.2-8-2.4-10.4-3.2
	C134.2,59.2,132.9,58.7,132.9,58.7c0.1,0,0.2,0,0.2,0.1l0.7,0.2l2.8,0.9c2.4,0.8,6,1.9,10.4,3.1c2.4,0.7,4.9,1.2,7.4,1.5
	c0.7,0.1,1.4,0.1,2,0c0.7-0.1,1.3-0.4,1.9-0.8c1.3-0.8,2.3-1.8,3.1-3.1c0.8-1.3,1.5-2.7,2.3-4.2s1.6-2.8,2.4-4.3
	c1.6-3,3.3-6.1,4.9-9.3l0.1,0.2l-5.5-3.1l-3.1-1.8l0.2-0.1c-3,5-5.9,9.8-8.5,14.2l-0.1,0.1l-0.1,0c-5.1-2.1-9.8-4-14-5.7l-1.6-0.6
	c-0.5-0.2-1-0.4-1.5-0.5c-1-0.2-2-0.1-3,0.2c-0.9,0.3-1.7,0.8-2.3,1.5c-0.6,0.6-1.1,1.4-1.4,2.1c-0.2,0.4-0.3,0.7-0.4,1.1
	c-0.1,0.4-0.2,0.7-0.2,1.1c-0.1,0.4-0.1,0.7-0.1,1.1c0,0.3,0,0.7,0.1,1c0.2,1.1,0.6,2.1,1.3,3c0.4,0.6,0.8,1.1,1.3,1.5
	c0.2,0.2,0.3,0.3,0.4,0.4L132.9,58.7z"/>
<path fill="#465B65" d="M142.6,89.1l1.9-3.8l13.1,0.2l-1.5,3.9L142.6,89.1z"/>
<path fill="#273238" d="M142.6,89.1h1.1h2.8c2.4,0,5.8,0.1,9.6,0.2l-0.1,0.1c0.4-1.2,0.9-2.5,1.4-3.7l0.1-0.2l0.1,0.2
	c-5.3-0.1-10-0.2-13.1-0.3l0.1-0.1l-1.4,2.7c-0.2,0.3-0.3,0.5-0.4,0.7C142.7,88.9,142.6,88.9,142.6,89.1c0,0,0-0.1,0.1-0.3
	c0.1-0.2,0.2-0.4,0.3-0.7l1.3-2.8v-0.1h0.1c3.1,0,7.8,0.1,13.1,0.2h0.2l-0.1,0.2l-0.1,0.2l-1.4,3.7l0,0.1H156
	c-3.9-0.1-7.3-0.2-9.7-0.3l-2.8-0.1l-0.7,0C142.7,89.1,142.6,89.1,142.6,89.1z"/>
<path fill="#273238" d="M151.3,50.5c0,0.1-3.4-1.7-7.4-4.1c-4-2.3-7.3-4.3-7.2-4.3c0-0.1,3.4,1.7,7.4,4.1
	C148.1,48.5,151.3,50.4,151.3,50.5z"/>
<path fill="#273238" d="M155.8,79c0,0.1-3.2,0-7-0.3c-3.9-0.2-7-0.5-7-0.6s3.2,0,7,0.3C152.7,78.7,155.8,79,155.8,79z"/>
<path fill="#E0E1E0" d="M182.5,40.5l1.3-2.2l5.2,3l-1,2.4L182.5,40.5z"/>
<path fill="#273238" d="M175.8,56.1c-0.6-0.6-1-1.3-1.3-2c-0.3-0.8-0.4-1.6-0.3-2.4c0.1,0,0.1,1.1,0.5,2.3
	C175.2,55.2,175.9,56,175.8,56.1z"/>
<path fill="#273238" d="M163,58.2c0.5,1.2,0.9,2.4,1.2,3.7c0.4,1.2,0.7,2.5,0.9,3.8c-0.5-1.2-0.9-2.4-1.2-3.7
	C163.5,60.8,163.2,59.5,163,58.2z"/>
<path fill="#273238" d="M155,56.7c-0.5-0.6-0.9-1.4-1-2.2c-0.1-0.8,0-1.6,0.2-2.4c0,0.8,0,1.6,0.1,2.3
	C154.5,55.2,154.7,55.9,155,56.7z"/>
<path opacity="0.3" fill="#010101" enable-background="new    " d="M143.6,89.1l-0.2,1.1l13.5,0.4l0.6-5.1l-1.5,3.9L143.6,89.1z"/>
<path fill="#E11F26" d="M149.6,46l0.1,0.2l1.5,1.1l0.7-0.4l-0.5-1.7l-1.6-1.2L149.6,46z"/>
<path fill="#273238" d="M151.6,43.9c0.2,0.5,0.3,0.9,0.3,1.4l0,0.3l-0.2-0.2c-0.5-0.4-1.2-0.9-2-1.4L150,44c-0.1,0.5-0.1,1-0.2,1.5
	c-0.1,0.3-0.1,0.6-0.1,0.9l0,0.2l-0.2-0.1c-1.1-0.6-2.1-1.1-2.8-1.4c-0.4-0.2-0.8-0.4-1.1-0.6c0.4,0.1,0.8,0.3,1.2,0.5
	c0.7,0.3,1.7,0.8,2.9,1.3l-0.2,0.1l0.1-0.9c0.1-0.5,0.2-1,0.2-1.5l0-0.2l0.2,0.1c0.7,0.6,1.4,1.1,1.9,1.5l-0.2,0.1
	C151.6,44.9,151.6,44.4,151.6,43.9z"/>
</svg>
