<svg id="Layer_1" data-name="Layer 1" xmlns="http://www.w3.org/2000/svg" viewBox="0 0 18 18"><defs><style>.cls-1{fill:none;stroke:#2d2d2d;stroke-linecap:round;stroke-linejoin:round;stroke-width:1.07886px;}</style></defs><title>Membership</title><path class="cls-1" d="M12.7484,14.0867H5.98759a.84838.84838,0,0,1-.74081-.525L2.26913,5.23291c-.42435-1.19393.07192-1.56074,1.09324-.82712l2.805,2.00667a.75788.75788,0,0,0,1.20113-.36681L8.63439,2.67242c.40277-1.07885,1.07166-1.07885,1.47441,0l1.2659,3.37323a.75239.75239,0,0,0,1.1939.36681L15.201,4.53525c1.122-.80555,1.6615-.39558,1.2012.90624L13.4964,13.5761A.87833.87833,0,0,1,12.7484,14.0867Z"/><path class="cls-1" d="M5.41406,16.2617H13.3257"/><path class="cls-1" d="M7.57031,10.5078H11.1665"/></svg>