<svg width="13" height="17" viewBox="0 0 13 17" fill="none" xmlns="http://www.w3.org/2000/svg">
<path d="M0.726563 10.5603H1.45433H0.726563ZM2.73715 12.9133L2.6372 13.6341H2.6372L2.73715 12.9133ZM10.2313 12.9133L10.1313 12.1924L10.2313 12.9133ZM12.0813 9.68766L12.761 9.42756L12.0813 9.68766ZM2.73369 5.55873C2.73369 3.48745 4.4128 1.80834 6.48409 1.80834V0.352795C3.60893 0.352795 1.27815 2.68357 1.27815 5.55873H2.73369ZM2.73369 6.6795V5.55873H1.27815V6.6795H2.73369ZM1.45433 10.5603C1.45433 10.3431 1.49435 10.137 1.56676 9.94779L0.207341 9.42762C0.0723816 9.78033 -0.00120926 10.1626 -0.00120926 10.5603H1.45433ZM2.83711 12.1924C2.04561 12.0826 1.45433 11.3933 1.45433 10.5603H-0.00120926C-0.00120932 12.0857 1.09255 13.4199 2.6372 13.6341L2.83711 12.1924ZM6.4842 12.5081C5.39931 12.5081 3.99117 12.3524 2.83711 12.1924L2.6372 13.6341C3.80307 13.7958 5.2938 13.9636 6.4842 13.9636V12.5081ZM10.1313 12.1924C8.97724 12.3524 7.5691 12.5081 6.4842 12.5081V13.9636C7.67461 13.9636 9.16533 13.7958 10.3312 13.6341L10.1313 12.1924ZM11.5141 10.5603C11.5141 11.3933 10.9228 12.0826 10.1313 12.1924L10.3312 13.6341C11.8759 13.4199 12.9696 12.0857 12.9696 10.5603H11.5141ZM11.4016 9.94776C11.474 10.137 11.5141 10.3431 11.5141 10.5603H12.9696C12.9696 10.1625 12.896 9.78028 12.761 9.42756L11.4016 9.94776ZM10.2345 5.55873V6.67916H11.69V5.55873H10.2345ZM6.48409 1.80834C8.55537 1.80834 10.2345 3.48745 10.2345 5.55873H11.69C11.69 2.68357 9.35925 0.352795 6.48409 0.352795V1.80834ZM12.761 9.42756C12.5604 8.90311 12.2303 8.31104 12.0374 7.90041C11.8179 7.43314 11.69 7.04904 11.69 6.67916H10.2345C10.2345 7.37707 10.4754 7.99859 10.72 8.5193C10.9912 9.09665 11.2207 9.47495 11.4016 9.94776L12.761 9.42756ZM1.27815 6.6795C1.27815 7.04933 1.15032 7.43339 0.930852 7.90062C0.737986 8.3112 0.407993 8.90323 0.207341 9.42762L1.56676 9.94779C1.74767 9.47501 1.97711 9.09677 2.24829 8.51946C2.49286 7.99879 2.73369 7.37733 2.73369 6.6795H1.27815Z" fill="#2D2D2D"/>
<path d="M8.08301 15.0522C7.73917 15.5694 7.15122 15.9102 6.48367 15.9102C5.81611 15.9102 5.22816 15.5694 4.88432 15.0522" stroke="#2D2D2D" stroke-width="1.11222" stroke-linecap="round"/>
</svg>
