<svg id="Layer_1" data-name="Layer 1" xmlns="http://www.w3.org/2000/svg" viewBox="0 0 12.61527 15.93669"><defs><style>.cls-1{fill:#2d2d2d;}.cls-2{fill:none;stroke:#2d2d2d;stroke-linecap:round;stroke-width:1.11222px;}</style></defs><title>subscription</title><path class="cls-1" d="M2.62192,12.5375l-.07554.5447h0Zm7.49408,0-.0755-.5448h0Zm1.8501-3.22573-.5137.19659ZM.77179,9.312.2581,9.11545Zm1.66849-4.1307A3.92816,3.92816,0,0,1,6.36845,1.25313v-1.1A5.02816,5.02816,0,0,0,1.34028,5.18129Zm0,1.123v-1.123h-1.1v1.123ZM1.16133,10.1845a1.88673,1.88673,0,0,1,.12414-.676L.2581,9.11545A2.98646,2.98646,0,0,0,.06133,10.1845Zm1.53613,1.8082a1.802,1.802,0,0,1-1.53613-1.8082h-1.1a2.90172,2.90172,0,0,0,2.48505,2.8977Zm3.67151.3174a29.298,29.298,0,0,1-3.67151-.3174l-.15108,1.0895a30.31265,30.31265,0,0,0,3.82259.3279Zm3.67153-.3174a29.29858,29.29858,0,0,1-3.67153.3174v1.1a30.31392,30.31392,0,0,0,3.82263-.3279Zm1.5361-1.8082a1.802,1.802,0,0,1-1.5361,1.8082l.1511,1.0895a2.90172,2.90172,0,0,0,2.485-2.8977Zm-.1242-.67614a1.886,1.886,0,0,1,.1242.67614h1.1a2.9857,2.9857,0,0,0-.1969-1.06931ZM10.2966,5.18129V6.30276h1.1V5.18129ZM6.36845,1.25313A3.92815,3.92815,0,0,1,10.2966,5.18129h1.1A5.02815,5.02815,0,0,0,6.36845.15313ZM12.4797,9.11519c-.1983-.51825-.5162-1.08428-.7187-1.51536a3.09259,3.09259,0,0,1-.3644-1.29707h-1.1a4.15737,4.15737,0,0,0,.4688,1.76486c.2618.55707.5036.96155.687,1.44074ZM1.34028,6.30429a3.0929,3.0929,0,0,1-.364,1.29647c-.20236.43087-.52.9967-.71815,1.51469l1.02737.39307c.18327-.479.42491-.88328.68644-1.44015a4.15647,4.15647,0,0,0,.46837-1.76408Z" transform="translate(-0.06133 -0.15313)"/><path class="cls-2" d="M7.9668,14.6758a1.91974,1.91974,0,0,1-3.19869,0" transform="translate(-0.06133 -0.15313)"/></svg>