<svg width="200" height="200" viewBox="0 0 200 200" fill="none" xmlns="http://www.w3.org/2000/svg">
<mask id="mask0_2_2752" style="mask-type:luminance" maskUnits="userSpaceOnUse" x="-20" y="-18" width="239" height="238">
<path d="M218.279 -17.4852H-19.279V219.486H218.279V-17.4852Z" fill="white"/>
</mask>
<g mask="url(#mask0_2_2752)">
<path d="M142.135 84.6097H57.6858C57.3222 84.5999 56.9609 84.6707 56.628 84.8169C56.2951 84.963 55.9988 85.181 55.7605 85.4551C55.5221 85.7292 55.3477 86.0525 55.2496 86.4019C55.1515 86.7513 55.1323 87.1181 55.1933 87.4758L57.8955 107.829C58.0149 108.611 58.4062 109.327 59.001 109.851C59.5958 110.375 60.3562 110.674 61.1494 110.695H145.598C145.962 110.705 146.323 110.634 146.656 110.488C146.989 110.342 147.285 110.124 147.524 109.85C147.762 109.575 147.937 109.252 148.035 108.903C148.133 108.553 148.152 108.186 148.091 107.829L145.389 87.4758C145.269 86.6933 144.878 85.9776 144.283 85.4537C143.688 84.9298 142.928 84.6311 142.135 84.6097Z" fill="#A7A7C6"/>
<path d="M142.873 82.9984H58.4242C58.0605 82.9887 57.6993 83.0594 57.3664 83.2056C57.0334 83.3518 56.7371 83.5698 56.4988 83.8438C56.2604 84.1179 56.0859 84.4413 55.9879 84.7907C55.8898 85.1401 55.8706 85.5069 55.9317 85.8646L58.6338 106.218C58.7532 107.001 59.1444 107.716 59.739 108.24C60.3337 108.764 61.094 109.063 61.887 109.084H146.336C146.7 109.094 147.061 109.023 147.394 108.877C147.727 108.731 148.023 108.513 148.261 108.239C148.5 107.965 148.674 107.641 148.772 107.292C148.87 106.943 148.889 106.576 148.828 106.218L146.126 85.8646C146.007 85.0822 145.616 84.3665 145.021 83.8426C144.426 83.3187 143.666 83.0199 142.873 82.9984Z" fill="#B8B8D1"/>
<path d="M65.4704 92.7614H60.9464L60.3471 88.2487H64.871L65.4704 92.7614ZM71.8035 92.7614H67.2795L66.6802 88.2487H71.2049L71.8035 92.7614ZM78.1366 92.7614H73.6126L73.014 88.2487H77.5372L78.1366 92.7614ZM84.4704 92.7614H79.9465L79.3471 88.2487H83.8704L84.4704 92.7614ZM90.8028 92.7614H86.2796L85.681 88.2487H90.2042L90.8028 92.7614ZM97.4504 92.7614H92.9265L92.3271 88.2487H96.8511L97.4504 92.7614ZM103.784 92.7614H99.2596L98.6603 88.2487H103.184L103.784 92.7614ZM110.117 92.7614H105.593L104.994 88.2487H109.517L110.117 92.7614ZM116.451 92.7614H111.926L111.327 88.2487H115.85L116.451 92.7614ZM122.783 92.7614H118.26L117.661 88.2487H122.184L122.783 92.7614ZM72.5731 98.5634H61.7167L61.1182 94.0513H71.9745L72.5731 98.5634ZM78.9069 98.5634H74.3837L73.7836 94.0513H78.3083L78.9069 98.5634ZM85.24 98.5634H80.7161L80.1175 94.0513H84.6415L85.24 98.5634ZM91.5739 98.5634H87.0492L86.4506 94.0513H90.9738L91.5739 98.5634ZM98.2201 98.5634H93.6968L93.0968 94.0513H97.6215L98.2201 98.5634ZM104.553 98.5634H100.03L99.4306 94.0513H103.955L104.553 98.5634ZM110.887 98.5634H106.364L105.764 94.0513H110.288L110.887 98.5634ZM123.554 98.5634H112.696L112.098 94.0513H122.954L123.554 98.5634ZM67.0111 104.365H62.4864L61.8878 99.8526H66.411L67.0111 104.365ZM73.3442 104.365H68.8202L68.2209 99.8526H72.7449L73.3442 104.365ZM79.6765 104.365H75.1533L74.5547 99.8526H79.078L79.6765 104.365ZM117.903 104.365H81.4872L80.8871 99.8526H117.304L117.903 104.365ZM124.324 104.365H119.8L119.201 99.8526H123.725L124.324 104.365ZM131.8 92.8393H127.277L126.678 88.3258H131.202L131.8 92.8393ZM137.239 92.8393H132.715L132.116 88.3258H136.64L137.239 92.8393ZM142.677 92.8393H138.154L137.554 88.3258H142.078L142.677 92.8393ZM132.56 98.5634H128.037L127.438 94.0513H131.962L132.56 98.5634ZM137.999 98.5634H133.476L132.876 94.0513H137.4L137.999 98.5634ZM143.437 98.5634H138.913L138.314 94.0513H142.838L143.437 98.5634ZM133.321 104.288H128.797L128.198 99.7754H132.722L133.321 104.288ZM138.759 104.288H134.235L133.636 99.7754H138.159L138.759 104.288ZM144.197 104.288H139.673L139.074 99.7754H143.598L144.197 104.288Z" fill="#C8C8DC"/>
<path d="M57.2002 77.9212C55.9431 77.8866 54.7382 77.4121 53.7964 76.5807C52.8546 75.7493 52.2359 74.6141 52.0486 73.3736L45.4414 22.6575C45.3472 22.0893 45.3799 21.5074 45.5373 20.9533C45.6947 20.3992 45.9728 19.8867 46.3517 19.4522C46.7307 19.0178 47.2012 18.6722 47.7295 18.4402C48.2579 18.2081 48.8311 18.0953 49.4083 18.1099H128.636C129.893 18.1445 131.098 18.619 132.039 19.4504C132.981 20.2817 133.6 21.417 133.787 22.6575L140.395 73.3736C140.489 73.9417 140.456 74.5236 140.299 75.0777C140.141 75.6317 139.863 76.1443 139.484 76.5787C139.105 77.0131 138.635 77.3587 138.106 77.5908C137.578 77.8229 137.005 77.9357 136.428 77.9212H57.2002Z" fill="#B8B8D1"/>
<path d="M58.8183 77.9198C57.5611 77.8852 56.3562 77.4107 55.4144 76.5793C54.4725 75.7479 53.8538 74.6126 53.6665 73.3721L47.0593 22.6561C46.9651 22.0879 46.9978 21.506 47.1552 20.9519C47.3126 20.3978 47.5907 19.8853 47.9696 19.4508C48.3486 19.0164 48.8191 18.6708 49.3474 18.4387C49.8758 18.2067 50.449 18.0939 51.0262 18.1084H130.254C131.511 18.143 132.716 18.6176 133.657 19.4489C134.599 20.2803 135.218 21.4156 135.405 22.6561L142.012 73.3721C142.106 73.9402 142.073 74.5221 141.916 75.0761C141.759 75.6302 141.481 76.1427 141.102 76.5772C140.723 77.0116 140.253 77.3572 139.724 77.5893C139.196 77.8214 138.623 77.9342 138.046 77.9198H58.8183Z" fill="#C8C8DC"/>
<path d="M130.484 19.8773H51.2567C50.904 19.868 50.5536 19.9366 50.2306 20.0782C49.9076 20.2198 49.62 20.4309 49.3884 20.6965C49.1569 20.962 48.987 21.2753 48.8911 21.614C48.7952 21.9527 48.7755 22.3084 48.8336 22.6555L52.1368 48.0139L55.4401 73.3721C55.5538 74.1302 55.9314 74.8243 56.5069 75.3324C57.0823 75.8405 57.8188 76.1302 58.587 76.1507H137.815C138.168 76.1599 138.518 76.0913 138.841 75.9496C139.164 75.8079 139.452 75.5967 139.684 75.3312C139.915 75.0657 140.085 74.7523 140.181 74.4136C140.277 74.0749 140.297 73.7192 140.239 73.3721L136.935 48.0139L133.632 22.6555C133.518 21.8974 133.14 21.2034 132.564 20.6954C131.989 20.1874 131.252 19.8978 130.484 19.8773Z" fill="#E9E9F2"/>
<path d="M134.373 28.3496L133.631 22.6555C133.517 21.8974 133.14 21.2034 132.564 20.6954C131.989 20.1873 131.252 19.8977 130.484 19.8773H51.2567C50.904 19.868 50.5536 19.9366 50.2306 20.0782C49.9076 20.2198 49.62 20.4309 49.3884 20.6965C49.1569 20.962 48.987 21.2753 48.8911 21.614C48.7952 21.9527 48.7755 22.3084 48.8336 22.6555L49.5757 28.3496H134.373ZM133.154 68.7109H126.605L126.884 70.8486H133.432L133.154 68.7109ZM132.49 64.0958H125.94L126.218 66.2335H132.768L132.49 64.0958ZM112.683 68.7109H100.204L100.482 70.8486H112.962L112.683 68.7109ZM123.901 68.7109H114.267L114.545 70.8486H124.179L123.901 68.7109ZM123.3 64.1017H99.6024L99.882 66.2394H123.579L123.3 64.1017ZM131.891 59.1765H125.342L125.621 61.3135H132.169L131.891 59.1765ZM131.291 54.5671H124.742L125.02 56.7043H131.569L131.291 54.5671ZM122.638 59.1765H98.9406L99.2194 61.3135H122.917L122.638 59.1765ZM110.82 54.5671H98.3405L98.6186 56.7043H111.098L110.82 54.5671ZM122.037 54.5671H112.403L112.682 56.7043H122.316L122.037 54.5671Z" fill="#D9D9E7"/>
<path opacity="0.5" d="M136.326 31.5947H105.267L108.05 50.7429H139.108L136.326 31.5947Z" fill="#A7A7C6"/>
<path d="M138.971 30.2849H109.338C109.14 30.2848 108.944 30.3275 108.763 30.4101C108.583 30.4926 108.423 30.6131 108.293 30.7632C108.164 30.9133 108.068 31.0895 108.014 31.2797C107.959 31.47 107.946 31.6698 107.976 31.8655L110.463 48.2641C110.512 48.5894 110.677 48.8864 110.927 49.1009C111.177 49.3155 111.496 49.4334 111.825 49.4331H141.458C141.656 49.4332 141.853 49.3904 142.033 49.3079C142.213 49.2253 142.374 49.1049 142.503 48.9548C142.633 48.8048 142.728 48.6286 142.783 48.4383C142.838 48.2481 142.851 48.0483 142.821 47.8525L140.334 31.454C140.284 31.1287 140.119 30.832 139.869 30.6175C139.619 30.403 139.301 30.285 138.971 30.2849Z" fill="#FFCD5C"/>
<path opacity="0.5" d="M141.46 49.4316H111.828C111.498 49.4324 111.178 49.3152 110.928 49.1012C110.677 48.8873 110.511 48.5909 110.461 48.2656L108.163 33.0941C115.497 46.8911 136.199 48.0136 141.629 39.9813L142.82 47.8541C142.849 48.0493 142.836 48.2486 142.781 48.4384C142.727 48.6282 142.631 48.8039 142.502 48.9537C142.373 49.1034 142.214 49.2237 142.034 49.3061C141.854 49.3886 141.658 49.4314 141.46 49.4316Z" fill="#F4B442"/>
<path d="M119.599 39.9282C119.729 40.0651 119.855 40.2004 119.974 40.3344C120.093 40.4659 120.2 40.6068 120.296 40.7556C120.392 40.9074 120.467 41.0717 120.519 41.2439C120.575 41.4373 120.599 41.6386 120.589 41.8397C120.595 42.1143 120.528 42.3856 120.395 42.6259C120.276 42.8227 120.107 42.9842 119.904 43.0938C119.687 43.2081 119.45 43.283 119.206 43.315C118.935 43.3532 118.661 43.3738 118.387 43.3767C118.103 43.3797 117.816 43.3714 117.528 43.3511C117.239 43.3308 116.971 43.3172 116.723 43.3104H116.604C116.566 43.3103 116.529 43.3034 116.493 43.2901C116.274 42.1186 116.086 40.942 115.927 39.7604C115.77 38.592 115.591 37.4119 115.389 36.2201L115.399 36.2096C115.678 36.1309 115.961 36.0726 116.248 36.035C116.55 35.9938 116.855 35.9799 117.159 35.9936C117.46 36.0071 117.758 36.0517 118.05 36.1268C118.334 36.1997 118.602 36.3233 118.842 36.4916C119.085 36.6645 119.29 36.8849 119.445 37.1394C119.62 37.4374 119.734 37.7678 119.777 38.1106C119.821 38.3904 119.814 38.6759 119.756 38.9532C119.702 39.2142 119.621 39.4691 119.516 39.7137C119.506 39.7308 119.5 39.7501 119.5 39.7698C119.499 39.7895 119.504 39.809 119.513 39.8266C119.538 39.8635 119.567 39.8975 119.599 39.9282ZM118.889 41.6343C118.95 41.5213 118.969 41.3898 118.941 41.2642C118.918 41.1273 118.872 40.9953 118.805 40.8738C118.746 40.7872 118.672 40.7121 118.586 40.6526C118.503 40.5922 118.409 40.5485 118.309 40.524C118.175 40.4903 118.037 40.4714 117.899 40.4676C117.761 40.4645 117.626 40.4555 117.493 40.442C117.481 40.5579 117.474 40.6744 117.474 40.791C117.474 40.9233 117.482 41.0555 117.498 41.1868C117.514 41.3175 117.543 41.4465 117.583 41.5719C117.616 41.6838 117.671 41.7884 117.743 41.8804L117.764 41.8909C117.86 41.8909 117.962 41.8924 118.069 41.8962C118.175 41.8998 118.281 41.8963 118.387 41.8856C118.486 41.8769 118.583 41.8525 118.675 41.8134C118.762 41.7759 118.837 41.7137 118.889 41.6343ZM118.434 38.7057C118.472 38.6134 118.499 38.5169 118.514 38.4183C118.53 38.3025 118.501 38.185 118.434 38.0895C118.37 37.9881 118.285 37.9021 118.184 37.8375C118.087 37.7787 117.981 37.7352 117.871 37.7088C117.724 37.6811 117.575 37.6655 117.426 37.6623C117.296 37.6536 117.167 37.6803 117.051 37.7397C117.093 37.929 117.116 38.1216 117.123 38.3152C117.137 38.5558 117.192 38.7922 117.286 39.0141C117.39 39.0284 117.502 39.0382 117.619 39.045C117.733 39.0521 117.846 39.0486 117.959 39.0344C118.061 39.0227 118.159 38.9893 118.247 38.9367C118.334 38.8835 118.401 38.8019 118.434 38.7057ZM125.783 42.3949C125.834 42.6417 125.869 42.8285 125.888 42.9554C125.906 43.0467 125.912 43.1401 125.905 43.233C125.897 43.2917 125.872 43.3217 125.831 43.3255C125.791 43.3293 125.732 43.3308 125.657 43.3308C125.559 43.3239 125.461 43.3239 125.363 43.3308C125.244 43.3375 125.043 43.3443 124.759 43.3511C124.475 43.3579 124.084 43.3614 123.586 43.3616C123.089 43.3616 122.423 43.3549 121.589 43.3413L121.562 43.1562C121.505 42.6424 121.451 42.1783 121.402 41.7638C121.353 41.3493 121.303 40.9623 121.252 40.6029C121.201 40.2433 121.149 39.8958 121.099 39.5602C121.048 39.2248 120.993 38.8822 120.933 38.5326C120.873 38.1836 120.809 37.8119 120.743 37.4177C120.676 37.0235 120.603 36.5872 120.523 36.108C120.623 36.0726 120.727 36.0501 120.832 36.041C120.985 36.0232 121.139 36.0147 121.293 36.0154C121.456 36.0155 121.619 36.0258 121.781 36.0463C121.916 36.0604 122.049 36.0916 122.176 36.1389C122.23 36.5842 122.294 37.0416 122.369 37.511C122.444 37.9805 122.52 38.4514 122.599 38.9238C122.678 39.3962 122.755 39.8672 122.83 40.3366C122.904 40.8061 122.971 41.26 123.031 41.6983L123.033 41.7088C123.122 41.692 123.213 41.687 123.303 41.6938C123.437 41.6975 123.594 41.702 123.775 41.7088C123.954 41.7156 124.146 41.7246 124.35 41.7344C124.554 41.7449 124.748 41.7534 124.93 41.76C125.114 41.7667 125.276 41.7717 125.417 41.775C125.514 41.7796 125.612 41.7779 125.71 41.7698C125.721 41.845 125.729 41.921 125.733 41.9962C125.738 42.0647 125.743 42.1354 125.751 42.2069C125.756 42.2704 125.766 42.3333 125.783 42.3949ZM129.802 37.2462C129.863 37.3458 129.915 37.4508 129.958 37.5599C129.998 37.666 130.034 37.7743 130.063 37.8834C130.103 38.0549 130.137 38.2242 130.167 38.392C130.196 38.5597 130.219 38.7297 130.239 38.9005C130.274 39.2638 130.321 39.616 130.379 39.959C130.438 40.3021 130.481 40.6511 130.507 41.007L130.528 41.3462C130.551 41.5872 130.55 41.8299 130.525 42.0707C130.504 42.3 130.444 42.5241 130.347 42.7334C130.254 42.8996 130.116 43.0366 129.95 43.1292C129.771 43.2302 129.581 43.3078 129.382 43.3601C129.198 43.415 129.008 43.4493 128.816 43.4624C128.619 43.4759 128.421 43.4759 128.224 43.4624C128.078 43.4489 127.936 43.43 127.798 43.406C127.661 43.3823 127.527 43.3426 127.399 43.2879C127.271 43.234 127.152 43.1631 127.043 43.0772C126.927 42.9845 126.83 42.8713 126.756 42.7432C126.635 42.5758 126.543 42.3902 126.481 42.1933C126.421 41.9996 126.372 41.8023 126.335 41.6027C126.233 41.0678 126.13 40.5317 126.024 39.9943C125.919 39.4594 125.842 38.9193 125.794 38.3762C125.754 38.0679 125.747 37.7562 125.771 37.4463C125.792 37.1475 125.897 36.8605 126.074 36.6188C126.135 36.5479 126.205 36.4856 126.283 36.4337C126.503 36.3203 126.739 36.239 126.983 36.1923C127.241 36.141 127.505 36.122 127.768 36.1358C128.037 36.1504 128.303 36.1971 128.561 36.275C128.82 36.3519 129.065 36.4682 129.288 36.6196C129.503 36.788 129.679 37.002 129.802 37.2462ZM129.08 39.7536L128.953 39.0547C128.952 39.048 128.937 38.978 128.906 38.8441C128.875 38.7102 128.848 38.5851 128.823 38.4687C128.781 38.2791 128.699 38.1004 128.584 37.9443C128.474 37.7925 128.326 37.6721 128.155 37.5953C128.019 37.5413 127.87 37.5306 127.728 37.5644C127.598 37.5945 127.476 37.6543 127.373 37.739C127.163 37.9197 127.029 38.1727 126.997 38.4476C126.982 38.722 126.991 38.9972 127.024 39.2699C127.057 39.5573 127.102 39.8449 127.16 40.1328C127.232 40.3728 127.293 40.6172 127.344 40.8678C127.394 41.1137 127.472 41.3532 127.576 41.5817C127.663 41.7159 127.783 41.8257 127.924 41.9007C128.058 41.9736 128.207 42.0173 128.359 42.0288C128.512 42.0404 128.665 42.0195 128.809 41.9676C128.947 41.9206 129.066 41.8327 129.152 41.7156C129.192 41.6516 129.227 41.5844 129.256 41.5148C129.275 41.4606 129.284 41.403 129.281 41.3455C129.277 41.2712 129.268 41.1972 129.253 41.1243C129.233 41.0106 129.22 40.8958 129.216 40.7805C129.202 40.6436 129.189 40.5232 129.176 40.4209C129.164 40.3186 129.157 40.2599 129.155 40.2464L129.08 39.7536ZM133.417 39.7536C133.547 39.6861 133.693 39.6524 133.84 39.6558C134.041 39.6452 134.256 39.6438 134.483 39.6505C134.711 39.6573 134.924 39.6694 135.122 39.6866C135.32 39.704 135.454 39.7122 135.523 39.7122H135.544L135.556 39.7228C135.652 40.0861 135.738 40.4716 135.814 40.8791C135.888 41.2632 135.919 41.6542 135.909 42.0451C135.945 42.3276 135.875 42.6134 135.712 42.8471C135.554 43.0375 135.348 43.1828 135.115 43.2683C134.951 43.3165 134.779 43.3594 134.6 43.397C134.417 43.4354 134.232 43.4627 134.045 43.479C133.858 43.496 133.67 43.4943 133.483 43.4737C133.298 43.453 133.116 43.4082 132.942 43.3406C132.674 43.2409 132.434 43.079 132.242 42.8681C132.054 42.6465 131.901 42.397 131.79 42.1286C131.757 42.0534 131.719 41.9488 131.675 41.8149C131.631 41.681 131.591 41.5456 131.556 41.4087C131.502 41.1897 131.455 40.9911 131.415 40.8128C131.374 40.6345 131.335 40.4585 131.298 40.284C131.262 40.1094 131.227 39.9244 131.194 39.7295C131.161 39.5339 131.128 39.3098 131.097 39.0562C131.07 38.8373 131.046 38.6129 131.025 38.3829C131.004 38.1527 130.994 37.9293 130.995 37.7097C130.994 37.488 131.021 37.2671 131.075 37.0521C131.127 36.8425 131.25 36.6573 131.423 36.5278C131.543 36.4111 131.689 36.3234 131.848 36.2713C132.016 36.2155 132.189 36.1742 132.364 36.1478C132.726 36.0994 133.093 36.1117 133.451 36.184C133.788 36.2492 134.109 36.3801 134.395 36.5691C134.674 36.7575 134.903 37.0095 135.063 37.3041C135.241 37.6383 135.336 38.0099 135.341 38.3882L135.341 38.4499C135.329 38.4702 135.3 38.4807 135.252 38.4807C135.204 38.4807 135.126 38.4845 135.016 38.4912C134.914 38.4912 134.827 38.4928 134.755 38.4965C134.683 38.5003 134.612 38.5018 134.539 38.5018C134.467 38.5018 134.393 38.4981 134.316 38.4912C134.239 38.4845 134.149 38.474 134.044 38.4605C134.013 38.392 133.971 38.3077 133.918 38.2084C133.866 38.1097 133.803 38.0167 133.731 37.9308C133.662 37.847 133.583 37.7711 133.496 37.7044C133.416 37.641 133.316 37.6066 133.213 37.6066C133.095 37.5998 132.982 37.596 132.872 37.596C132.82 37.5948 132.769 37.6052 132.723 37.6266C132.676 37.648 132.635 37.6797 132.602 37.7194C132.583 37.7528 132.569 37.7892 132.562 37.827C132.547 37.8826 132.537 37.9392 132.531 37.9963C132.506 38.1938 132.497 38.393 132.503 38.592C132.507 38.8252 132.522 39.0735 132.549 39.3368C132.575 39.6009 132.613 39.8732 132.663 40.1539C132.713 40.4352 132.767 40.7025 132.826 40.9558C132.868 41.1233 132.921 41.2882 132.983 41.4493C133.045 41.619 133.157 41.766 133.305 41.8706C133.382 41.9157 133.467 41.947 133.556 41.9631C133.663 41.9768 133.772 41.9733 133.879 41.9526C133.981 41.934 134.082 41.9065 134.181 41.8706C134.248 41.838 134.308 41.7907 134.355 41.7322C134.405 41.6644 134.435 41.5847 134.444 41.5012C134.447 41.4741 134.448 41.4274 134.448 41.362C134.449 41.2952 134.445 41.2284 134.439 41.1619C134.431 41.0934 134.421 41.0318 134.41 40.9768C134.398 40.9219 134.381 40.8911 134.361 40.8843C134.304 40.8771 134.247 40.8754 134.19 40.8791C134.119 40.8828 134.043 40.8858 133.966 40.8896C133.894 40.8933 133.821 40.8933 133.749 40.8896C133.697 40.8888 133.646 40.8802 133.596 40.864C133.565 40.7542 133.543 40.6586 133.526 40.5767C133.511 40.4946 133.499 40.4141 133.49 40.3351C133.482 40.2562 133.47 40.1757 133.458 40.0936C133.445 40.0116 133.423 39.9086 133.391 39.7852L133.389 39.7747C133.389 39.7679 133.391 39.7642 133.398 39.7642L133.417 39.7536Z" fill="#F4B442"/>
<path d="M50.0013 9.66384L48.1423 9.66235C47.5608 9.71551 47.0122 9.95487 46.5783 10.3447C45.7802 11.0348 45.2202 11.958 44.9775 12.9834C44.7348 14.0087 44.8217 15.0843 45.226 16.0576L45.7939 17.4908L54.6824 16.7685L50.0013 9.66384Z" fill="#A7A7C6"/>
<path d="M88.607 13.232C88.4564 12.2388 87.9536 11.3324 87.1901 10.6774C86.4266 10.0224 85.4529 9.66223 84.4459 9.66235H48.1418C49.7859 10.2115 50.4125 12.4767 50.4458 12.6151L50.4503 12.6196V12.6242L59.3008 70.9844H97.362L88.607 13.232Z" fill="#C8C8DC"/>
<path d="M68.4797 25.0075H56.6641L57.0426 27.4307H68.8589L68.4797 25.0075ZM66.8534 14.6808H61.9636L62.3823 17.3582H67.2721L66.8534 14.6808Z" fill="#A7A7C6"/>
<path d="M67.5197 18.9401H62.6299L63.0478 21.6167H67.9383L67.5197 18.9401Z" fill="#B8B8D1"/>
<path d="M61.693 21.6171H59.4511L59.3901 21.2297C59.5533 21.2188 59.7137 21.182 59.8652 21.1206C59.9879 21.0657 60.0422 20.9987 60.0296 20.9182C60.023 20.8777 60.0143 20.8375 60.0035 20.7978C59.9924 20.755 59.9782 20.713 59.9612 20.6722L59.2436 18.9359H57.3489C57.3177 19.1909 57.2947 19.4128 57.2798 19.6017C57.2642 19.7913 57.2523 19.9658 57.2419 20.126C57.2337 20.2825 57.2307 20.4097 57.2329 20.5082C57.2341 20.5885 57.2401 20.6686 57.2508 20.7482C57.2662 20.8251 57.3012 20.8966 57.3526 20.9559C57.4039 21.0153 57.4698 21.0603 57.5438 21.0867C57.7206 21.1681 57.9109 21.2163 58.1052 21.2289L58.1654 21.6163H56.1347L56.0744 21.2289C56.1557 21.2178 56.2354 21.1968 56.3116 21.1665C56.3956 21.138 56.4717 21.0903 56.534 21.0272C56.615 20.9368 56.6785 20.8323 56.7214 20.7188C56.7684 20.5744 56.7998 20.4253 56.815 20.2742C56.934 19.3022 57.0624 18.2102 57.2002 16.998C57.3378 15.7861 57.4605 14.707 57.5683 13.7609H57.8724L60.7151 20.4435C60.7644 20.5641 60.8259 20.6793 60.8988 20.7873C60.9681 20.8825 61.0491 20.9686 61.1397 21.0439C61.2152 21.0995 61.299 21.1429 61.3881 21.1725C61.4666 21.2027 61.5489 21.2219 61.6327 21.2297L61.693 21.6171ZM59.028 18.4506L57.7401 15.4445L57.4047 18.4506H59.028ZM88.8472 30.6642L86.6097 16.3518C86.546 15.9452 86.3387 15.5746 86.0253 15.307C85.7118 15.0394 85.3128 14.8923 84.9002 14.8923H71.5968C71.347 14.8923 71.1003 14.9462 70.8734 15.0503C70.6466 15.1544 70.445 15.3063 70.2825 15.4955C70.1201 15.6847 70.0007 15.9067 69.9324 16.1463C69.8642 16.386 69.8488 16.6375 69.8873 16.8836L72.1255 31.196C72.1889 31.6026 72.396 31.9732 72.7093 32.2409C73.0227 32.5085 73.4217 32.6556 73.8342 32.6555H87.1384C87.3881 32.6554 87.6347 32.6014 87.8615 32.4972C88.0882 32.393 88.2897 32.2411 88.452 32.052C88.6144 31.8628 88.7338 31.6408 88.802 31.4012C88.8702 31.1617 88.8856 30.9102 88.8472 30.6642Z" fill="#A7A7C6"/>
<path d="M78.1641 23.1163C78.5029 22.8109 78.7417 22.4108 78.8495 21.9681C78.9573 21.5255 78.9292 21.0607 78.7687 20.6342C78.6082 20.2078 78.3229 19.8393 77.9497 19.5767C77.5765 19.3142 77.1327 19.1697 76.6761 19.1621C76.2195 19.1544 75.7712 19.284 75.3894 19.5339C75.0076 19.7838 74.7099 20.1424 74.5352 20.5633C74.3604 20.9842 74.3167 21.4477 74.4095 21.8938C74.5024 22.3398 74.7276 22.7476 75.0559 23.0643C75.4614 23.4818 76.0165 23.7218 76.5992 23.7315C77.1819 23.7413 77.7447 23.52 78.1641 23.1163Z" fill="#B8B8D1"/>
<path d="M86.3688 31.7517H76.9364C76.5916 30.9682 76.3855 30.131 76.3274 29.2773C76.251 28.3586 76.368 27.434 76.6709 26.5629C76.9738 25.6919 77.456 24.8937 78.0865 24.2196C78.717 23.5454 79.4818 23.0103 80.3319 22.6484C81.182 22.2866 82.0985 22.1061 83.0227 22.1185C84.3444 22.1224 85.6416 22.4746 86.783 23.1394L87.8575 30.0123C87.8913 30.227 87.8782 30.4464 87.819 30.6556C87.7598 30.8647 87.6559 31.0585 87.5145 31.2238C87.373 31.3891 87.1974 31.5218 86.9996 31.6129C86.8018 31.7041 86.5866 31.7514 86.3688 31.7517ZM83.7529 37.8798H89.973L89.5945 35.4574H83.3744L83.7529 37.8798ZM69.334 30.232H57.4805L57.859 32.6551H69.7125L69.334 30.232Z" fill="#B8B8D1"/>
<path d="M58.6777 37.8793H81.1868L80.8075 35.4569H58.2992L58.6777 37.8793Z" fill="#A7A7C6"/>
<path d="M70.9692 40.6825H59.1157L59.4942 43.1056H71.3477L70.9692 40.6825Z" fill="#B8B8D1"/>
<path d="M72.1894 43.1056H75.0678L74.9481 42.3428H72.0704L72.1894 43.1056Z" fill="#9898B7"/>
<path d="M148.458 141.272C148.458 141.272 161.849 144.047 161.939 144.956C162.029 145.865 156.835 167.031 155.437 168.738C154.041 170.445 150.087 169.497 150.307 166.078C150.527 162.659 151.198 155.549 149.168 152.784L144.945 149.566L148.458 141.272Z" fill="#FFCD5C"/>
<path opacity="0.5" d="M148.456 141.269C148.456 141.269 161.846 144.044 161.936 144.953C162.024 145.866 156.83 167.031 155.435 168.739C154.6 169.758 152.848 169.83 151.626 168.984C156.502 164.243 157.54 146.568 157.54 146.568L151.276 144.121L147.66 151.631L144.945 149.564L148.456 141.269Z" fill="#F4B442"/>
<path d="M160.196 143.749C160.615 143.838 162.449 144.331 162.392 145.112C162.336 145.894 156.028 169.681 155.659 169.749C155.04 169.715 154.422 169.65 153.81 169.552C153.556 169.566 160.196 143.749 160.196 143.749ZM150.829 157.592C150.359 157.431 149.911 157.21 149.498 156.934C149.298 156.828 149.079 156.714 148.841 156.601C148.592 156.481 148.336 156.374 148.075 156.28C147.94 156.232 147.801 156.193 147.66 156.162C147.529 156.131 147.393 156.12 147.258 156.128C147.205 156.132 147.152 156.146 147.103 156.167C147.065 156.184 147.033 156.211 147.008 156.244C146.98 156.285 146.959 156.332 146.948 156.381C146.934 156.444 146.927 156.509 146.926 156.574C146.926 156.699 146.959 156.821 147.024 156.929C147.095 157.039 147.188 157.134 147.297 157.207C147.538 157.364 147.803 157.479 148.081 157.549C148.584 157.678 149.099 157.757 149.618 157.784C150.067 157.815 150.433 157.819 150.684 157.819C150.809 157.819 150.905 157.819 150.974 157.819C151.04 157.82 151.066 157.819 151.079 157.828C151.084 157.834 151.088 157.849 151.073 157.868C151.052 157.89 151.028 157.908 151.001 157.921C150.909 157.966 150.811 158 150.71 158.022C150.35 158.102 149.982 158.147 149.612 158.155C149.059 158.18 148.504 158.134 147.962 158.018C147.8 157.981 147.641 157.934 147.486 157.876C147.316 157.813 147.154 157.731 147.004 157.631C146.833 157.519 146.687 157.373 146.577 157.201C146.46 157.013 146.399 156.796 146.4 156.575C146.4 156.467 146.413 156.359 146.437 156.253C146.466 156.135 146.518 156.024 146.59 155.927C146.668 155.826 146.77 155.745 146.888 155.694C146.991 155.648 147.102 155.621 147.215 155.614C147.403 155.605 147.591 155.624 147.773 155.672C147.934 155.712 148.092 155.764 148.246 155.826C148.52 155.938 148.787 156.068 149.044 156.215C149.284 156.35 149.499 156.486 149.692 156.615C150.458 157.135 150.871 157.535 150.829 157.592ZM151.042 158.433C151.042 158.468 150.904 158.503 150.656 158.546C150.409 158.589 150.049 158.639 149.615 158.721C149.398 158.763 149.162 158.813 148.915 158.879C148.656 158.945 148.402 159.033 148.158 159.14C148.095 159.168 148.035 159.201 147.973 159.232C147.914 159.266 147.857 159.302 147.802 159.341C147.748 159.379 147.697 159.42 147.649 159.465C147.605 159.507 147.566 159.555 147.532 159.606C147.468 159.701 147.433 159.812 147.431 159.927C147.433 159.956 147.436 159.987 147.436 160.017C147.441 160.049 147.447 160.08 147.456 160.111C147.468 160.173 147.489 160.234 147.519 160.29C147.539 160.336 147.569 160.377 147.607 160.411C147.644 160.445 147.689 160.47 147.737 160.485C147.855 160.516 147.979 160.518 148.098 160.491C148.376 160.428 148.644 160.326 148.894 160.188C149.345 159.943 149.777 159.664 150.187 159.356C150.544 159.092 150.824 158.867 151.019 158.712C151.115 158.634 151.191 158.574 151.242 158.534C151.296 158.496 151.316 158.477 151.334 158.48C151.342 158.482 151.351 158.493 151.35 158.515C151.347 158.544 151.339 158.572 151.326 158.598C151.282 158.689 151.228 158.775 151.166 158.854C150.942 159.138 150.694 159.402 150.423 159.642C150.027 160.01 149.593 160.335 149.128 160.613C148.839 160.789 148.525 160.918 148.196 160.996C147.993 161.043 147.781 161.039 147.58 160.984C147.464 160.949 147.357 160.89 147.265 160.811C147.177 160.732 147.105 160.637 147.051 160.532C147.001 160.438 146.965 160.337 146.944 160.232C146.931 160.182 146.922 160.13 146.915 160.079C146.911 160.025 146.908 159.972 146.907 159.918C146.913 159.703 146.982 159.493 147.106 159.316C147.163 159.235 147.228 159.161 147.301 159.094C147.37 159.033 147.442 158.977 147.519 158.928C147.591 158.88 147.665 158.836 147.742 158.796C147.817 158.762 147.892 158.724 147.966 158.696C148.241 158.588 148.527 158.507 148.818 158.454C149.065 158.407 149.315 158.373 149.565 158.353C149.925 158.321 150.287 158.316 150.647 158.34C150.902 158.36 151.042 158.396 151.042 158.433Z" fill="#111968"/>
<path d="M150.325 164.465C150.359 165.547 151.656 163.918 152.117 161.344C152.578 158.77 152.574 154.723 150.786 152.698C149.359 151.08 147.892 151.928 147.892 151.928C149.04 153.552 149.853 155.387 150.284 157.328C150.767 159.852 150.249 162.047 150.325 164.465Z" fill="#111968"/>
<path d="M112.341 96.8143C112.341 96.8143 98.4848 136.631 106.852 144.32C112.936 149.911 146.448 152.207 146.448 152.207L149.687 140.349L125.203 130.972C125.203 130.972 137.228 101.909 133.009 95.4191C130.536 91.6117 112.341 96.8143 112.341 96.8143Z" fill="#171C80"/>
<path d="M131.652 104.885L131.581 104.851C131.471 104.799 128.87 103.57 128.511 102.43C128.161 101.316 128.824 96.8254 128.853 96.6348L128.865 96.5502L128.946 96.5228C129.118 96.4635 133.146 95.0623 134.088 95.2485L134.174 95.2648L134.196 95.3501C134.636 97.5203 134.761 99.7423 134.566 101.948C134.482 103.019 132.002 104.659 131.719 104.842L131.652 104.885ZM124.692 131.159C124.741 131.225 124.664 131.374 124.479 131.588C124.388 131.695 124.267 131.819 124.124 131.957C124.051 132.025 123.976 132.099 123.889 132.172C123.802 132.242 123.709 132.315 123.61 132.391C123.411 132.541 123.193 132.707 122.95 132.872C122.703 133.029 122.434 133.192 122.148 133.359C122.078 133.403 122.003 133.441 121.927 133.479C121.852 133.517 121.775 133.556 121.698 133.595C121.543 133.672 121.384 133.75 121.221 133.83C121.141 133.872 121.056 133.904 120.971 133.94C120.886 133.975 120.801 134.01 120.714 134.046C120.54 134.115 120.366 134.191 120.186 134.255C120.003 134.315 119.824 134.374 119.646 134.433C119.556 134.462 119.469 134.491 119.381 134.517C119.292 134.54 119.204 134.564 119.116 134.586C118.94 134.631 118.768 134.674 118.599 134.716C118.428 134.75 118.26 134.781 118.097 134.812C118.015 134.826 117.934 134.841 117.854 134.854C117.775 134.867 117.695 134.876 117.616 134.885C117.46 134.903 117.308 134.921 117.161 134.938C117.013 134.948 116.87 134.956 116.732 134.962L116.531 134.971C116.465 134.971 116.401 134.971 116.338 134.97C115.328 134.965 114.708 134.761 114.725 134.598C114.74 134.434 115.328 134.336 116.253 134.131C116.311 134.118 116.369 134.106 116.43 134.094C116.491 134.08 116.552 134.064 116.615 134.05C116.74 134.022 116.871 133.992 117.005 133.961C117.14 133.928 117.279 133.892 117.421 133.856C117.493 133.838 117.564 133.82 117.638 133.802C117.711 133.781 117.785 133.76 117.859 133.738C118.008 133.698 118.161 133.656 118.318 133.612C118.472 133.564 118.631 133.514 118.791 133.464C118.872 133.44 118.953 133.415 119.035 133.391C119.116 133.362 119.197 133.333 119.279 133.305C119.443 133.248 119.611 133.191 119.78 133.133C119.948 133.074 120.112 133.004 120.275 132.944C120.357 132.914 120.437 132.883 120.518 132.853C120.598 132.822 120.679 132.794 120.755 132.759C120.911 132.693 121.064 132.628 121.213 132.564C121.288 132.534 121.363 132.503 121.436 132.472C121.51 132.442 121.584 132.412 121.653 132.378C121.935 132.245 122.205 132.123 122.462 132.012C122.713 131.89 122.945 131.773 123.163 131.674C123.272 131.624 123.376 131.577 123.476 131.535C123.573 131.488 123.666 131.444 123.753 131.402C123.926 131.321 124.08 131.255 124.211 131.208C124.473 131.115 124.643 131.092 124.692 131.159Z" fill="#111968"/>
<path d="M117.857 172.243C117.857 172.243 124.131 182.635 123.478 183.35C122.824 184.065 102.464 194.993 100.129 195.107C97.794 195.222 95.7395 191.449 98.5889 189.199C101.439 186.949 107.519 182.436 108.26 178.885L107.801 173.292L117.857 172.243Z" fill="#FFCD5C"/>
<path opacity="0.5" d="M123.477 183.351C122.825 184.066 102.464 194.991 100.131 195.106C98.5874 195.185 97.1649 193.555 97.2014 191.795C102.817 191.165 118.331 183.009 119.21 181.128C120.211 178.984 116.703 175.474 116.703 175.474L108.08 176.667L107.8 173.294L117.857 172.243C117.857 172.243 124.13 182.637 123.477 183.351Z" fill="#F4B442"/>
<path d="M123.195 181.128C123.422 181.52 124.335 183.307 123.677 183.817C123.022 184.326 99.8054 196.239 99.4909 195.996C99.078 195.487 98.692 194.956 98.3346 194.407C98.1442 194.219 123.195 181.128 123.195 181.128ZM105.648 183.594C105.441 183.112 105.298 182.604 105.223 182.085C105.165 181.853 105.099 181.601 105.019 181.334C104.938 181.053 104.841 180.777 104.73 180.506C104.672 180.365 104.605 180.229 104.529 180.097C104.46 179.972 104.373 179.857 104.271 179.757C104.229 179.718 104.182 179.686 104.131 179.662C104.09 179.645 104.046 179.638 104.002 179.643C103.949 179.65 103.898 179.667 103.851 179.693C103.792 179.727 103.736 179.767 103.684 179.813C103.585 179.9 103.512 180.014 103.473 180.14C103.437 180.274 103.428 180.415 103.447 180.552C103.495 180.852 103.592 181.142 103.734 181.409C103.99 181.895 104.292 182.355 104.638 182.781C104.932 183.155 105.189 183.445 105.367 183.643C105.454 183.74 105.523 183.815 105.572 183.87C105.595 183.895 105.612 183.914 105.622 183.928C105.631 183.941 105.642 183.949 105.64 183.959C105.638 183.968 105.63 183.981 105.603 183.982C105.572 183.981 105.541 183.975 105.512 183.964C105.411 183.923 105.314 183.87 105.225 183.807C104.907 183.581 104.611 183.325 104.343 183.041C103.931 182.624 103.574 182.157 103.282 181.649C103.196 181.497 103.121 181.338 103.056 181.176C102.986 180.998 102.936 180.813 102.908 180.624C102.874 180.411 102.886 180.193 102.943 179.985C103.009 179.76 103.137 179.558 103.311 179.402C103.397 179.326 103.491 179.259 103.591 179.204C103.704 179.143 103.828 179.105 103.956 179.093C104.091 179.081 104.228 179.104 104.352 179.159C104.46 179.209 104.56 179.277 104.645 179.36C104.786 179.5 104.904 179.662 104.996 179.839C105.078 179.994 105.149 180.154 105.209 180.319C105.316 180.613 105.402 180.914 105.469 181.219C105.532 181.503 105.577 181.767 105.612 182.011C105.74 182.53 105.753 183.07 105.648 183.594ZM105.137 184.357C105.108 184.383 104.984 184.298 104.775 184.134C104.565 183.97 104.271 183.725 103.898 183.443C103.711 183.302 103.505 183.152 103.278 183.005C103.042 182.849 102.793 182.712 102.534 182.597C102.283 182.472 102.003 182.416 101.723 182.435C101.603 182.452 101.49 182.503 101.4 182.584C101.351 182.628 101.308 182.678 101.271 182.732C101.232 182.788 101.2 182.848 101.176 182.911C101.154 182.96 101.143 183.013 101.143 183.066C101.143 183.119 101.154 183.172 101.176 183.221C101.236 183.334 101.322 183.432 101.427 183.508C101.674 183.681 101.944 183.819 102.229 183.918C102.742 184.098 103.268 184.239 103.802 184.341C104.262 184.435 104.639 184.495 104.9 184.536C105.03 184.558 105.131 184.573 105.198 184.586C105.266 184.601 105.296 184.605 105.306 184.62C105.309 184.628 105.308 184.643 105.289 184.658C105.264 184.676 105.237 184.69 105.208 184.699C105.105 184.728 104.999 184.747 104.892 184.754C104.51 184.779 104.125 184.771 103.744 184.73C103.173 184.68 102.61 184.57 102.062 184.401C101.719 184.299 101.394 184.145 101.098 183.942C100.918 183.816 100.771 183.647 100.672 183.45C100.618 183.334 100.589 183.208 100.587 183.08C100.586 182.956 100.609 182.832 100.655 182.715C100.695 182.61 100.748 182.51 100.813 182.417C100.876 182.325 100.951 182.241 101.035 182.166C101.209 182.017 101.423 181.922 101.651 181.894C101.852 181.872 102.055 181.888 102.25 181.942C102.422 181.988 102.59 182.051 102.749 182.13C103.029 182.27 103.295 182.436 103.544 182.626C103.756 182.787 103.959 182.959 104.153 183.141C104.433 183.401 104.693 183.681 104.929 183.981C105.094 184.196 105.165 184.332 105.137 184.357Z" fill="#111968"/>
<path d="M99.8738 188.071C99.0454 188.865 101.248 188.727 103.603 187.264C105.956 185.802 109.145 182.93 109.474 180.093C109.737 177.828 108.03 177.278 108.03 177.278C107.563 179.329 106.693 181.268 105.47 182.981C103.821 185.148 101.725 186.298 99.8738 188.071Z" fill="#111968"/>
<path d="M104.336 93.8392C104.336 93.8392 89.9878 120.193 90.6563 129.781C91.3493 139.727 106.924 175.509 106.924 175.509L118.901 172.979L108.809 136.98C108.809 136.98 126.818 111.201 127.566 93.7613C122.849 93.6715 104.336 93.8392 104.336 93.8392Z" fill="#171C80"/>
<path d="M121.042 107.205L120.989 107.18C120.839 107.111 117.309 105.472 116.77 104.302C116.233 103.139 116.872 98.8148 116.9 98.6316L116.917 98.5233L117.026 98.5122C117.294 98.487 123.608 97.8825 124.866 98.2192C125.85 98.4833 125.487 100.844 124.991 103.449C124.878 104.038 124.782 104.547 124.77 104.785C124.716 105.851 121.467 107.052 121.097 107.185L121.042 107.205ZM114.717 159.523C114.557 159.564 113.718 156.949 112.489 152.687C111.874 150.556 111.163 148.013 110.39 145.186C110.004 143.771 109.602 142.286 109.19 140.746C108.985 139.974 108.776 139.191 108.564 138.394C108.441 137.929 108.318 137.462 108.194 136.991L108.174 136.915L108.164 136.878C108.16 136.87 108.166 136.865 108.169 136.86L108.181 136.844L108.269 136.714L108.446 136.454C108.508 136.363 108.569 136.271 108.63 136.179C108.746 136.005 108.863 135.831 108.98 135.656C112.71 130.032 115.869 124.792 118.014 120.928C118.15 120.688 118.281 120.452 118.41 120.222C118.536 119.991 118.657 119.766 118.776 119.547C119.015 119.111 119.24 118.699 119.451 118.313C119.856 117.534 120.219 116.869 120.51 116.322C120.751 115.719 121.086 115.157 121.504 114.659C121.413 115.304 121.221 115.931 120.933 116.516C120.706 117.096 120.402 117.794 120.051 118.607C119.868 119.01 119.667 119.437 119.454 119.892C119.347 120.119 119.237 120.352 119.124 120.591C119.008 120.829 118.885 121.071 118.761 121.321C116.14 126.493 113.206 131.5 109.975 136.316C109.856 136.493 109.739 136.669 109.621 136.844C109.566 136.927 109.51 137.01 109.454 137.092C109.541 137.429 109.628 137.762 109.715 138.095C109.92 138.892 110.123 139.677 110.323 140.45C110.719 141.995 111.098 143.487 111.455 144.908C112.17 147.752 112.797 150.317 113.306 152.474C114.325 156.791 114.877 159.481 114.717 159.523ZM111.097 106.073C111.083 106.182 110.908 106.261 110.593 106.308C110.405 106.333 110.215 106.342 110.025 106.336C109.775 106.332 109.526 106.312 109.279 106.278C108.633 106.182 108 106.016 107.391 105.781C106.642 105.492 105.929 105.117 105.267 104.664C104.608 104.212 104.001 103.689 103.458 103.103C103.016 102.629 102.624 102.11 102.29 101.556C101.724 100.605 101.583 99.9023 101.778 99.8021C101.974 99.6998 102.437 100.159 103.175 100.861C103.543 101.213 103.981 101.622 104.481 102.052C105.02 102.515 105.584 102.95 106.169 103.354C106.754 103.752 107.362 104.116 107.99 104.444C108.571 104.747 109.114 104.988 109.578 105.194C110.508 105.591 111.126 105.847 111.097 106.073ZM106.43 136.005C106.401 136.068 106.209 136.054 105.888 135.974C105.727 135.934 105.535 135.878 105.313 135.806C105.092 135.736 104.839 135.644 104.575 135.558C104.308 135.464 104.03 135.402 103.748 135.374C103.441 135.361 103.134 135.404 102.843 135.501C102.485 135.623 102.136 135.769 101.797 135.936C101.609 136.023 101.413 136.116 101.203 136.205C101.152 136.227 101.098 136.249 101.044 136.27L100.964 136.303L100.943 136.311C100.936 136.314 100.932 136.315 100.918 136.32L100.846 136.343C100.752 136.374 100.656 136.405 100.56 136.436C100.46 136.458 100.357 136.461 100.257 136.443C100.234 136.439 100.21 136.433 100.187 136.427C99.9909 136.368 99.8263 136.234 99.7288 136.054C99.6799 135.96 99.6389 135.862 99.6061 135.761C99.5972 135.735 99.5897 135.71 99.5816 135.684L99.5682 135.637L99.5444 135.548C99.4834 135.314 99.447 135.093 99.412 134.888C99.3786 134.684 99.3466 134.496 99.3064 134.325C99.2856 134.238 99.2655 134.162 99.2395 134.087C99.2151 134.014 99.1857 133.943 99.1518 133.874C99.0939 133.748 99.0172 133.632 98.9242 133.529C98.8491 133.446 98.7571 133.38 98.6543 133.336C98.4127 133.264 98.1574 133.252 97.91 133.299C97.3568 133.355 96.9076 133.44 96.5901 133.489C96.2726 133.538 96.0852 133.552 96.057 133.487C96.0302 133.424 96.1678 133.29 96.4593 133.121C96.8759 132.892 97.3206 132.718 97.7821 132.603C97.9424 132.558 98.1056 132.525 98.2706 132.503C98.4839 132.474 98.7008 132.488 98.9086 132.544C99.1404 132.61 99.354 132.728 99.5332 132.889C99.7072 133.047 99.8543 133.232 99.969 133.437C100.027 133.538 100.078 133.642 100.122 133.75C100.165 133.857 100.203 133.966 100.235 134.078C100.298 134.293 100.342 134.506 100.382 134.71C100.423 134.913 100.461 135.109 100.512 135.29L100.53 135.357L100.541 135.387V135.387H100.542L100.542 135.387L100.567 135.379L100.573 135.376L100.604 135.364L100.675 135.336C100.723 135.318 100.771 135.301 100.818 135.28C101.008 135.204 101.2 135.118 101.394 135.037C101.783 134.86 102.186 134.716 102.599 134.606C102.808 134.556 103.02 134.524 103.235 134.511C103.287 134.506 103.341 134.509 103.394 134.508C103.447 134.51 103.499 134.507 103.551 134.512C103.655 134.522 103.758 134.529 103.858 134.548C104.205 134.616 104.539 134.736 104.851 134.902C105.123 135.042 105.347 135.175 105.547 135.295C105.747 135.414 105.916 135.522 106.051 135.617C106.322 135.807 106.458 135.942 106.43 136.005Z" fill="#111968"/>
<path d="M91.8639 46.2645C91.0044 45.2202 89.904 44.3993 88.6568 43.8722C87.3124 43.2989 83.6644 42.8401 83.3484 43.8639C83.222 44.2731 85.2475 44.9322 86.0245 45.121C85.6312 45.1135 84.8415 45.2098 84.7775 45.7492C84.7195 46.2457 84.9433 46.518 85.8223 46.7016C85.1508 46.7355 84.8236 47.0296 84.8028 47.2011C84.7775 47.3997 84.643 47.8661 85.6698 48.0549C84.9032 48.0219 84.834 48.5838 84.8564 48.823C84.9262 49.5979 87.5496 50.0365 87.5496 50.0365C88.839 52.3099 89.5595 54.1192 90.1774 55.0513C90.3269 55.2762 94.7735 51.5629 94.7735 51.5629C93.8991 49.7463 92.9278 47.9776 91.8639 46.2645Z" fill="#FCA993"/>
<path d="M91.0043 48.8142C91.0311 48.8277 90.9798 49.0166 90.8065 49.2821C90.7024 49.4366 90.579 49.5771 90.4392 49.7004C90.266 49.8521 90.0707 49.9766 89.8599 50.0698C89.4782 50.2348 89.062 50.3048 88.6472 50.2737C88.3326 50.2488 88.149 50.1744 88.1564 50.1413C88.1631 50.1074 88.3512 50.1194 88.6486 50.0999C89.0312 50.0801 89.4074 49.9941 89.7603 49.8456C89.9504 49.7609 90.1296 49.6538 90.2942 49.5266C90.429 49.4208 90.5544 49.3035 90.669 49.176C90.8653 48.9541 90.9709 48.7961 91.0043 48.8142ZM87.4069 45.5703C87.3771 45.6432 86.9161 45.5252 86.3458 45.3988C85.7762 45.2679 85.3092 45.1693 85.3144 45.0941C85.3181 45.0166 85.8171 44.9933 86.4075 45.1294C86.9986 45.2596 87.4359 45.5019 87.4069 45.5703ZM87.0247 46.9734C87.0016 47.0478 86.5763 46.9869 86.0558 46.9079C85.536 46.8252 85.1122 46.7431 85.1151 46.6672C85.1174 46.5904 85.562 46.5491 86.0989 46.6348C86.6373 46.7168 87.047 46.9018 87.0247 46.9734ZM86.6425 48.4027C86.6239 48.4764 86.2982 48.4576 85.9152 48.3606C85.5315 48.2635 85.2363 48.1243 85.2549 48.0499C85.2743 47.9754 85.5999 47.995 85.9829 48.092C86.3658 48.189 86.6625 48.3282 86.6425 48.4027Z" fill="#D8776A"/>
<path d="M100.475 76.9081C97.0571 72.198 88.2345 52.6467 88.2345 52.6467C88.2345 52.6467 92.0223 49.6157 94.0307 49.1591C96.2325 50.6877 112.652 70.4378 111.884 73.3195C111.375 75.2287 104.677 82.6996 100.475 76.9081Z" fill="#1996F2"/>
<path opacity="0.5" d="M111.886 73.3165C111.374 75.2287 104.675 82.6959 100.477 76.9043C98.774 74.5522 95.7253 68.5181 93.0938 63.0529C96.7084 62.257 100.638 59.6795 102.305 58.5031C107.206 64.5972 112.321 71.6772 111.886 73.3165Z" fill="#1965F2"/>
<path d="M89.0665 44.1426C88.3207 44.0312 84.6615 44.4931 84.7716 45.2702C84.8816 46.0481 89.3394 46.3054 89.3394 46.3054C89.3394 46.3054 89.8109 49.1205 92.2788 48.153C93.1979 47.792 90.1633 44.3066 89.0665 44.1426Z" fill="#FCA993"/>
<path d="M86.1286 44.4775C86.1242 44.4609 86.1703 44.4323 86.2588 44.3947C86.3026 44.3759 86.3577 44.3548 86.4209 44.3315L86.5235 44.2954C86.5599 44.2849 86.5993 44.2743 86.641 44.2631C86.7228 44.2413 86.8142 44.218 86.9116 44.1939C87.0113 44.1758 87.1169 44.157 87.2276 44.1367C87.3392 44.1172 87.4582 44.1089 87.5809 44.0945C87.7035 44.0818 87.8314 44.081 87.9623 44.0742C88.4111 44.0649 88.8587 44.1224 89.2904 44.2451C89.6205 44.3436 89.8057 44.4602 89.79 44.491C89.6075 44.4889 89.4261 44.4631 89.2502 44.4143C88.8254 44.3463 88.3955 44.3148 87.9653 44.3203C86.9562 44.3353 86.1502 44.5542 86.1286 44.4775ZM91.1426 48.2931C91.1419 48.3014 91.1211 48.3075 91.0817 48.3112C91.0243 48.3163 90.9665 48.316 90.9091 48.3104C90.695 48.2917 90.4866 48.2314 90.2957 48.1329C90.0099 47.9797 89.77 47.7536 89.6004 47.4777C89.5007 47.3172 89.4191 47.1461 89.3573 46.9676C89.3261 46.8751 89.2978 46.7803 89.2747 46.6817C89.2628 46.6328 89.2524 46.5832 89.2435 46.5327L89.2309 46.4568L89.2249 46.4161C89.065 46.3974 88.9089 46.3785 88.758 46.3605C88.575 46.3371 88.3988 46.3153 88.2315 46.2935C87.8969 46.2491 87.595 46.2062 87.3429 46.1671C87.0657 46.1478 86.7929 46.0879 86.5331 45.9896C86.8086 45.9512 87.0882 45.9535 87.363 45.9964C87.6173 46.0137 87.9207 46.0385 88.2568 46.0701L88.7847 46.122C89.0004 46.1453 89.2242 46.1694 89.4525 46.1942C89.4554 46.2333 89.4577 46.2747 89.4614 46.3139C89.4636 46.3379 89.4658 46.3658 89.4688 46.386L89.4733 46.4207L89.4852 46.4899C89.5084 46.6255 89.5415 46.7593 89.5841 46.8901C89.637 47.0534 89.7067 47.2107 89.7923 47.3595C89.9349 47.6111 90.1365 47.8246 90.3797 47.9817C90.5491 48.0851 90.7323 48.1639 90.924 48.2156C90.9924 48.2374 91.0467 48.2487 91.0839 48.2615C91.1233 48.2743 91.1434 48.2848 91.1426 48.2931Z" fill="#D8776A"/>
<path d="M97.6772 101.939C98.9785 102.326 102.719 103.447 105.462 102.156C106.179 101.817 107.248 97.6821 107.248 97.6821C107.248 97.6821 108.515 101.97 109.444 101.956C120.074 101.79 130.688 101.269 135.019 96.9204C133.868 79.8194 124.289 61.0539 115.362 55.304C113.194 53.9077 108.377 54.9805 107.452 56.843C102.972 65.8782 100.739 91.473 97.6772 101.939Z" fill="#1996F2"/>
<path opacity="0.5" d="M97.6772 101.938C98.9763 102.323 102.717 103.445 105.463 102.156C106.176 101.819 107.244 97.6844 107.244 97.6844C107.244 97.6844 108.514 101.973 109.441 101.959C111.706 101.923 113.969 101.875 116.166 101.769C107.594 100.584 107.563 91.7237 107.563 91.7237C107.563 91.7237 105.709 100.025 102.376 99.0714C99.0358 98.125 106.77 67.8031 106.747 67.5724C106.674 67.5724 105.39 68.7221 103.578 70.3821C101.374 81.3911 99.7035 95 97.6772 101.938Z" fill="#1965F2"/>
<path d="M113.872 97.2801C113.888 97.1473 114.996 97.1926 116.77 97.2497C117.657 97.2742 118.71 97.3038 119.87 97.2638C120.451 97.2475 121.058 97.2096 121.682 97.1451C122.324 97.0808 122.963 96.984 123.596 96.8551C124.814 96.6027 126.001 96.2161 127.134 95.7024C127.659 95.4673 128.145 95.2121 128.598 94.9681C128.822 94.8405 129.042 94.7225 129.247 94.5987C129.35 94.5378 129.452 94.4783 129.552 94.4199C129.65 94.3598 129.746 94.301 129.84 94.2434C130.591 93.782 131.191 93.3859 131.617 93.1248C132.041 92.8608 132.293 92.7347 132.333 92.7844C132.374 92.8326 132.199 93.0551 131.84 93.4082C131.326 93.9004 130.781 94.3602 130.21 94.7848C130.119 94.8531 130.027 94.9213 129.932 94.9918C129.834 95.06 129.735 95.1295 129.634 95.2002C129.434 95.3441 129.216 95.4828 128.992 95.6282C128.539 95.9116 128.045 96.2031 127.504 96.4716C126.326 97.0617 125.076 97.4958 123.785 97.763C123.119 97.8977 122.445 97.993 121.768 98.0485C121.114 98.1034 120.482 98.1235 119.882 98.1175C118.825 98.1079 117.769 98.036 116.72 97.9024C114.934 97.6769 113.856 97.4017 113.872 97.2801ZM121.825 94.21C121.81 94.0743 122.491 93.9111 123.541 93.5869C124.066 93.42 124.683 93.2138 125.347 92.932C126.063 92.6285 126.757 92.2725 127.421 91.8668C128.085 91.4618 128.717 91.0076 129.313 90.5079C129.802 90.0975 130.269 89.6615 130.712 89.2017C131.475 88.4132 131.889 87.8643 132.003 87.9244C132.117 87.9808 131.89 88.6773 131.22 89.6201C130.825 90.17 130.378 90.6812 129.886 91.1466C128.672 92.293 127.231 93.1729 125.656 93.7293C125.017 93.9533 124.359 94.1196 123.691 94.2263C123.549 94.2456 123.413 94.2641 123.285 94.2819C123.156 94.2997 123.033 94.3035 122.92 94.3124C122.726 94.3293 122.53 94.334 122.335 94.3264C122.011 94.3116 121.832 94.2738 121.825 94.21ZM107.11 96.4753C107.049 96.1626 107.047 95.8415 107.104 95.5281C107.115 95.3782 107.127 95.2106 107.141 95.0274C107.148 94.9362 107.157 94.8405 107.165 94.7418C107.175 94.6432 107.182 94.5401 107.188 94.4325C107.215 94.0045 107.249 93.5179 107.29 92.9809C107.436 90.8321 107.581 87.8592 107.645 84.5702C107.707 81.2813 107.703 78.3017 107.706 76.1432C107.641 74.9755 107.677 73.8044 107.815 72.6429C108.067 73.7883 108.193 74.9579 108.189 76.1306C108.309 78.2913 108.389 81.2806 108.328 84.5843C108.262 87.8873 108.041 90.8758 107.771 93.0269C107.699 93.5639 107.632 94.0498 107.568 94.4755C107.554 94.5831 107.536 94.6847 107.517 94.7834C107.499 94.882 107.481 94.977 107.464 95.0675C107.429 95.2484 107.397 95.4139 107.368 95.5629C107.245 96.1578 107.156 96.482 107.11 96.4753Z" fill="#115ACE"/>
<path d="M113.855 60.3567C113.855 60.3567 105.436 76.595 100.898 80.3512C98.716 82.1574 93.27 76.5839 93.5266 68.9157C97.4861 65.6342 107.668 56.1524 108.014 56.3104C108.36 56.4683 114 58.3005 113.855 60.3567Z" fill="#1996F2"/>
<path d="M95.1922 67.5391C95.074 67.4063 97.5211 65.0512 100.658 62.2808C103.794 59.5104 106.433 57.3719 106.551 57.5054C106.669 57.6382 104.222 59.9933 101.086 62.7637C97.9494 65.5349 95.3104 67.6726 95.1922 67.5391ZM99.9511 80.9981C99.9489 80.9484 100.178 80.9054 100.507 80.6316C100.971 80.2371 101.396 79.7995 101.777 79.3247C102.778 78.1342 104.03 76.3659 105.367 74.3809C106.704 72.3938 107.879 70.5684 108.748 69.2577C109.166 68.5119 109.671 67.8178 110.251 67.1897C109.987 68.0045 109.612 68.7798 109.139 69.4943C108.367 70.8695 107.249 72.7409 105.904 74.7399C104.78 76.4724 103.513 78.1082 102.116 79.6303C101.686 80.1013 101.191 80.5091 100.646 80.8416C100.594 80.8675 100.547 80.8942 100.499 80.9142C100.452 80.9343 100.407 80.9521 100.366 80.9691C100.294 80.9951 100.219 81.0132 100.142 81.0233C100.095 81.0313 100.047 81.0313 100 81.0233C99.9675 81.0174 99.9519 81.0092 99.9511 80.9981Z" fill="#115ACE"/>
<path d="M70.9417 60.2884C69.7531 59.235 68.3267 58.4841 66.7843 58.0995C65.1201 57.6804 62.8938 57.8599 62.7161 59.1053C62.644 59.603 63.0255 59.9509 63.9609 60.028C63.5036 60.0904 62.6053 60.347 62.6306 60.9834C62.6537 61.5701 62.9637 61.8453 64.0159 61.8973C63.2441 62.0582 62.9184 62.4595 62.9258 62.662C62.9333 62.8971 62.8619 63.4623 64.0873 63.4942C63.192 63.5959 63.2158 64.2597 63.2842 64.5327C63.5088 65.4191 66.6296 65.4487 66.6296 65.4487C66.8896 66.3935 67.3636 67.2661 68.015 67.9992C68.6664 68.7324 69.4779 69.3066 70.387 69.6774C70.6792 69.8035 73.4349 63.7383 73.4349 63.7383C72.7358 62.4989 71.8995 61.3417 70.9417 60.2884Z" fill="#FCA993"/>
<path d="M66.1032 60.2261C66.0823 60.3158 65.5254 60.2624 64.8405 60.2216C64.4167 60.2427 63.9926 60.1864 63.5891 60.0555C63.5794 59.9657 64.1527 59.8478 64.8629 59.8967C65.573 59.9405 66.124 60.1415 66.1032 60.2261ZM65.9165 61.9232C65.9039 62.0129 65.4005 62.0211 64.7818 62.0241C64.1624 62.0226 63.6568 62.0048 63.6464 61.9165C63.6345 61.8268 64.1431 61.697 64.7818 61.6984C65.4213 61.6955 65.9306 61.8357 65.9165 61.9232Z" fill="#D8776A"/>
<path d="M65.7358 63.6501C65.744 63.5611 65.3759 63.4535 64.9142 63.4105C64.4524 63.3675 64.0709 63.4053 64.0628 63.4943C64.0546 63.584 64.4219 63.6916 64.8844 63.7339C65.3462 63.7769 65.7276 63.7398 65.7358 63.6501Z" fill="#D8776A"/>
<path d="M102.775 75.6182C101.78 70.1263 92.1621 68.1176 73.0453 63.0262L69.9936 70.305C69.9936 70.305 91.3865 82.1819 95.7789 82.0855C100.171 81.989 103.408 79.1088 102.775 75.6182Z" fill="#1996F2"/>
<path d="M101.287 76.4088C100.659 74.1828 93.3183 78.3544 94.5594 80.3193C95.7982 82.2842 102.451 80.5389 101.287 76.4088Z" fill="#1965F2"/>
<path d="M93.8329 68.6576C93.8515 68.579 94.2895 68.5857 94.949 68.8186C95.8014 69.1407 96.5776 69.6355 97.2289 70.2716C97.8816 70.8925 98.4286 71.6153 98.8484 72.4116C99.1637 73.0228 99.2633 73.4456 99.1823 73.4812C99.1005 73.5175 98.861 73.1793 98.4617 72.6541C97.955 71.9712 97.3935 71.3304 96.7827 70.7382C96.174 70.1541 95.4943 69.6485 94.7594 69.2332C94.1928 68.9135 93.8076 68.7511 93.8329 68.6576Z" fill="#115ACE"/>
<path d="M112.832 48.8895L114.73 54.4971L108.301 55.5135L105.767 52.1311L112.832 48.8895Z" fill="#FCA993"/>
<path d="M114.476 52.4377C112.315 52.0172 107.159 54.1778 107.124 54.6721C107.268 55.4245 107.668 56.1042 108.257 56.5957C108.257 56.5957 114.351 56.8942 115.448 55.4289C115.303 54.3824 114.974 53.3698 114.476 52.4377Z" fill="#1965F2"/>
<path d="M100.31 40.0583C100.31 40.0583 100.052 45.1537 99.7095 45.8127C99.3674 46.4717 98.8536 46.9314 99.1295 47.2864C99.2673 47.4821 99.46 47.6329 99.6834 47.7198C99.6834 47.7198 99.7816 50.6687 101.168 52.314C102.208 53.5501 110.01 53.1558 111.693 51.9379C113.377 50.7199 113.239 42.371 112.536 40.8987C111.834 39.4272 102.543 38.2709 100.31 40.0583Z" fill="#FCA993"/>
<path d="M106.31 53.0411C106.313 53.0637 106.244 53.0953 106.114 53.1329C106.049 53.1517 105.968 53.172 105.874 53.193C105.78 53.2104 105.672 53.2231 105.551 53.2389C104.924 53.3009 104.291 53.2791 103.669 53.1743C103.049 53.0757 102.442 52.9126 101.856 52.6875C101.409 52.5115 101.151 52.3557 101.17 52.3136C101.204 52.2271 102.311 52.616 103.723 52.8417C104.324 52.9383 104.931 52.9916 105.54 53.0012C105.657 53.0027 105.763 53.0042 105.857 53.0057C105.95 53.0027 106.03 53.0012 106.098 53.0027C106.228 53.0065 106.305 53.0185 106.31 53.0411Z" fill="#D8776A"/>
<path d="M114.96 45.7578C113.775 46.9186 115.136 49.0168 114.65 49.7728C113.693 51.2661 111.44 50.8885 109.555 51.2421C108.954 51.3435 108.338 51.2867 107.767 51.0773C105.628 50.3529 103.908 48.0282 104.334 47.9568C106.002 47.7432 105.589 45.2614 104.814 44.9973C104.04 44.7362 103.7 46.3221 103.494 46.143C103.285 45.961 103.474 45.1161 103.01 44.755C102.549 44.3947 101.839 44.4481 100.697 44.5135C100.437 44.5164 100.177 44.4919 99.9214 44.4405C98.0609 44.1081 94.2902 42.6652 95.3877 39.829C95.3967 39.8012 95.4078 39.7733 95.419 39.7462C96.8318 36.3451 99.7481 36.4143 99.7481 36.4143C99.7481 36.4143 98.9852 33.1991 100.46 32.1842C103.592 30.0394 109.22 34.4373 109.22 34.4373C109.22 34.4373 107.773 31.9367 109.285 31.89C114.6 32.4572 115.843 39.1158 114.397 40.8619C114.976 41.0564 115.493 41.4019 115.893 41.8624C116.026 42.0043 116.132 42.169 116.206 42.3484C116.599 43.282 116.151 44.5918 114.96 45.7578Z" fill="#070E3F"/>
<path d="M103.648 48.2826C105.319 49.1982 106.333 45.4051 104.826 44.8642C104.689 44.7946 104.538 44.7572 104.384 44.7549C104.231 44.7525 104.078 44.7854 103.939 44.8508C103.8 44.9162 103.678 45.0125 103.582 45.1323C103.486 45.2522 103.419 45.3923 103.386 45.542C103.211 46.4658 103.282 48.0825 103.648 48.2826Z" fill="#FCA993"/>
<path d="M104.613 45.5748C104.283 45.8645 103.71 46.8116 104.176 47.4661C104.159 47.2003 104.225 46.9357 104.366 46.7093L104.961 46.3843H104.343L104.613 45.5748Z" fill="#070E3F"/>
<path d="M138.699 115.962C137.458 113.135 136.176 110.211 135.953 107.041C135.757 104.259 136.565 100.573 139.414 98.5685C141.449 97.1377 143.994 96.9159 146.454 96.7015C148.779 96.4997 151.182 96.2906 153.085 95.0452C156.004 93.1337 156.907 89.29 156.779 86.3304C156.764 83.8645 155.894 81.4798 154.315 79.582C153.976 80.8706 153.171 81.9883 152.054 82.7196C150.847 83.3686 149.597 82.9577 148.626 81.5914C148.353 81.0826 148.225 80.5087 148.256 79.9323C148.287 79.3559 148.476 78.799 148.802 78.3225C149.291 77.672 150.287 77.0385 152.266 77.7172C152.889 77.9165 153.479 78.2078 154.016 78.5814C154.427 76.6476 154.256 74.6358 153.524 72.7987C151.612 67.9091 145.316 64.8301 141.172 65.4435L141.092 64.9035C143.775 64.7412 146.444 65.3887 148.753 66.7616C151.061 68.1345 152.902 70.1693 154.034 72.6006C154.822 74.5896 154.991 76.7688 154.521 78.8551L154.492 78.9774C154.542 79.0257 154.59 79.0754 154.638 79.1258C156.697 81.3162 157.236 84.2401 157.326 86.3081C157.416 88.0654 157.141 89.8222 156.521 91.4692C155.923 93.1067 154.827 94.5169 153.386 95.5028C151.368 96.8239 148.895 97.039 146.503 97.2467C144.005 97.464 141.644 97.6695 139.73 99.015C137.066 100.889 136.314 104.37 136.499 107.004C136.715 110.08 137.979 112.961 139.2 115.745L138.699 115.962ZM150.733 77.9731C150.448 77.9564 150.163 78.0092 149.904 78.1268C149.644 78.2444 149.417 78.4233 149.242 78.6481C148.984 79.0322 148.833 79.4774 148.803 79.9387C148.773 80.4 148.867 80.8609 149.073 81.2746C149.879 82.4065 150.845 82.75 151.795 82.2389C152.85 81.5064 153.589 80.4057 153.868 79.1547C153.334 78.7452 152.732 78.4326 152.089 78.2313C151.654 78.0719 151.196 77.9847 150.733 77.9731Z" fill="#9898B7"/>
<path d="M140.196 116.025L139.543 116.221L140.918 120.802L145.487 119.437L145.283 118.76C145.129 118.247 144.875 117.769 144.536 117.354C144.197 116.94 143.78 116.595 143.307 116.341C142.835 116.087 142.317 115.929 141.783 115.874C141.25 115.82 140.71 115.871 140.196 116.025ZM139.038 116.371L138.34 116.58C137.826 116.733 137.347 116.986 136.932 117.325C136.516 117.663 136.17 118.079 135.916 118.55C135.661 119.022 135.502 119.538 135.448 120.071C135.393 120.603 135.445 121.141 135.599 121.654L135.802 122.331L140.414 120.953L139.038 116.371Z" fill="#B8B8D1"/>
<path d="M135.955 122.833L138.046 131.839C138.133 132.199 138.293 132.537 138.516 132.833C138.74 133.128 139.023 133.374 139.347 133.555C139.671 133.736 140.029 133.848 140.398 133.884C140.767 133.92 141.14 133.879 141.493 133.764L147.038 132.107C147.396 132.009 147.73 131.839 148.018 131.606C148.307 131.373 148.544 131.084 148.715 130.755C148.886 130.426 148.986 130.066 149.011 129.696C149.035 129.327 148.982 128.957 148.856 128.609L145.639 119.938L135.955 122.833Z" fill="#D9D9E7"/>
<path d="M182.887 59.0645L182.476 55.9569C181.41 55.7725 180.316 55.8296 179.275 56.1239C179.275 56.1239 181.447 55.0609 182.219 55.2279L182.126 54.5771C182.126 54.5771 175.155 56.0938 173.544 57.5877L173.038 60.5806L182.887 59.0645Z" fill="#D9D9E7"/>
<path d="M165.111 51.6112L167.727 48.6984C167.727 48.6984 173.988 54.6453 174.135 57.5455L173.483 59.6595L165.111 51.6112Z" fill="#E9E9F2"/>
<path d="M173.482 59.6602L163.371 71.0772C163.371 71.0772 161.469 64.7493 155.642 62.3661L165.476 50.0065C165.476 50.0065 172.093 54.7904 173.482 59.6602Z" fill="#1996F2"/>
<path d="M173.481 59.6595C173.481 59.6595 179.279 56.3685 184 59.1121L172.154 70.3466C172.154 70.3466 166.935 69.0626 163.371 71.0779L173.481 59.6595ZM171.226 59.0661L168.646 61.9025C168.646 61.9025 165.361 57.6078 162.773 56.0194L165.219 52.9576C167.637 54.5402 169.686 56.6235 171.226 59.0661Z" fill="#1965F2"/>
<path d="M85.188 162.866C85.188 162.866 91.1724 159.816 98.4498 151.272L77.2993 140.814C77.2993 140.814 72.0496 152.283 66.7456 153.555L85.188 162.866Z" fill="#FCA993"/>
<path d="M96.138 144.334L96.3819 147.956C96.3819 147.956 95.9008 151.048 94.0329 152.579C95.1929 151.986 96.1481 151.06 96.7753 149.92L96.9865 151.453C96.9865 151.453 86.8068 162.101 84.3366 161.726L82.7446 158.591L96.138 144.334Z" fill="#E9E9F2"/>
<path d="M84.3381 161.725L66.4192 152.716L65.6421 150.782L94.9936 145.879C94.9936 145.879 89.0346 161.744 84.3381 161.725Z" fill="#D9D9E7"/>
<path d="M83.802 159.953C83.802 159.953 92.4402 157.909 96.2458 143.95L75.914 137.9C75.914 137.9 70.6643 149.369 65.3603 150.641L83.802 159.953Z" fill="#EA907F"/>
<path d="M85.188 162.868L83.802 159.953L65.3603 150.642L66.7464 153.557L85.188 162.868Z" fill="#D8776A"/>
<path d="M67.226 153.221L66.5776 151.856L72.2266 154.705L72.6742 156.075L67.226 153.221ZM83.5677 161.401C83.5387 161.339 82.9149 160.027 82.9149 160.027L73.304 155.14L73.6379 156.434L83.5677 161.401Z" fill="#EA907F"/>
<path d="M46.5689 87.728L46.4731 86.0026L31.0536 84.5688L18.1922 96.3812L19.3242 97.3959L33.6758 93.8429L34.5084 93.5381L46.5689 87.728Z" fill="#F4B442"/>
<path d="M40.3734 73.0887L28.736 78.2862L33.3567 91.7845L46.7664 86.2036L40.3734 73.0887Z" fill="#FFCD5C"/>
<path d="M33.5068 91.7645C33.5068 91.7645 39.5152 84.2572 44.7204 85.1384L44.6699 84.5814C43.7519 84.4778 42.8242 84.4942 41.9105 84.6303C42.7846 84.4081 43.6751 84.2554 44.5734 84.1734L44.4233 83.6764C44.4233 83.6764 37.0001 82.0179 35.1087 83.9917C33.2166 85.967 33.5068 91.7645 33.5068 91.7645Z" fill="#C8C8DC"/>
<path d="M28.9634 79.3676L33.3586 91.7837C33.3586 91.7837 36.9227 83.0816 44.5337 83.6839L38.0457 71.3998C38.0457 71.3998 27.1919 74.3631 28.9634 79.3676Z" fill="#E9E9F2"/>
<path d="M37.21 73.9485C36.847 74.1003 36.4725 74.2234 36.0901 74.3164C35.1889 74.6171 34.3331 75.0391 33.5463 75.5707C32.7341 76.133 31.9959 76.7946 31.3487 77.54C31.0931 77.8785 30.8147 78.1991 30.5154 78.4998C30.5495 78.377 30.6057 78.2614 30.6812 78.1586C30.8464 77.8797 31.0292 77.6116 31.2287 77.3561C31.8415 76.5552 32.5767 75.8556 33.4075 75.2829C34.2016 74.74 35.0847 74.3399 36.0169 74.1005C36.2995 74.0264 36.5875 73.9743 36.8782 73.9448C37.0863 73.9277 37.204 73.927 37.21 73.9485ZM40.6075 81.2532C40.2445 81.405 39.87 81.5281 39.4875 81.6211C38.5864 81.9218 37.7305 82.3438 36.9438 82.8754C36.1316 83.4377 35.3934 84.0993 34.7462 84.8447C34.4909 85.1834 34.2124 85.5041 33.9128 85.8046C33.9469 85.6817 34.0032 85.5661 34.0788 85.4634C34.2439 85.1844 34.4267 84.9164 34.6263 84.6608C35.239 83.86 35.9742 83.1603 36.805 82.5876C37.5991 82.0448 38.4822 81.6446 39.4144 81.4053C39.697 81.3311 39.985 81.279 40.2756 81.2495C40.4838 81.2317 40.6014 81.2317 40.6075 81.2532ZM37.5976 75.1523C37.3152 75.3969 37.0043 75.6066 36.6716 75.7769C36.0901 76.1381 35.293 76.6492 34.44 77.2685C33.587 77.8894 32.8404 78.5013 32.3042 78.953C32.0373 79.2205 31.7384 79.4541 31.4143 79.6488C31.6306 79.3165 31.8935 79.0168 32.1949 78.7587C32.8513 78.1169 33.5538 77.5236 34.2967 76.9837C35.0205 76.455 35.7836 75.9822 36.5795 75.5692C36.8928 75.3737 37.237 75.2328 37.5976 75.1523ZM39.0803 79.0235C38.7978 79.2677 38.4868 79.4771 38.1542 79.6473C37.5727 80.0086 36.7756 80.5196 35.9226 81.1397C35.0697 81.7598 34.3231 82.3718 33.7869 82.8235C33.5195 83.0906 33.2207 83.3245 32.897 83.52C33.113 83.1872 33.3758 82.8872 33.6775 82.6291C34.3339 81.9873 35.0364 81.3941 35.7793 80.8541C36.5031 80.3254 37.2663 79.8526 38.0622 79.4396C38.3758 79.2449 38.72 79.1043 39.0803 79.0235ZM38.1723 76.7768C37.9154 77.06 37.6237 77.31 37.3043 77.5207C36.7401 77.9628 35.9875 78.551 35.1549 79.2023C34.3321 79.8706 33.5878 80.4744 33.029 80.9283C32.7574 81.1903 32.4526 81.4157 32.1225 81.5989C32.3485 81.2758 32.6171 80.9847 32.9211 80.7332C33.4377 80.2392 34.1707 79.5887 35.0079 78.9219C35.845 78.2551 36.6263 77.698 37.204 77.3197C37.4962 77.0892 37.823 76.906 38.1723 76.7768Z" fill="#C8C8DC"/>
<path d="M33.5055 91.7631L18.1938 96.3804L15 82.1285L28.5243 78.3931L33.5055 91.7631Z" fill="#FFCD5C"/>
<path d="M19.0403 95.0772C19.0403 95.0772 27.1702 89.9829 33.5058 91.7638C33.5058 91.7638 29.2463 86.5664 22.7161 87.3156C20.0079 87.6271 19.0403 95.0772 19.0403 95.0772Z" fill="#C8C8DC"/>
<path d="M16.9878 78.9189L16.4614 80.3906L16.6891 81.6412L16.3724 80.961L16.0021 82.397L19.0398 95.0772L20.7345 90.9872L16.9878 78.9189Z" fill="#D9D9E7"/>
<path d="M29.0639 79.3639L33.5043 91.7645C33.5043 91.7645 26.0932 86.1546 20.5735 91.4255L16.9868 78.9189C16.9868 78.9189 27.2735 74.3653 29.0639 79.3639Z" fill="#E9E9F2"/>
<path d="M19.3373 80.7103C19.7127 80.5918 20.0781 80.4438 20.43 80.2675C21.3121 79.9149 22.2381 79.6839 23.1827 79.5806C24.1664 79.4847 25.1582 79.5118 26.1352 79.6614C26.5498 79.7546 26.9704 79.819 27.3939 79.8543C27.2878 79.7837 27.1701 79.732 27.0462 79.7015C26.7393 79.596 26.4259 79.5101 26.108 79.4441C25.1214 79.2291 24.1069 79.1708 23.102 79.2713C22.1445 79.3713 21.2118 79.6369 20.3456 80.0561C20.0821 80.182 19.8289 80.3283 19.5884 80.4937C19.4179 80.6153 19.3282 80.691 19.3373 80.7103ZM21.4911 88.4712C21.8666 88.3527 22.232 88.2047 22.5839 88.0284C23.4659 87.6758 24.392 87.4448 25.3366 87.3415C26.3203 87.2457 27.3121 87.2727 28.2891 87.4216C28.7037 87.5152 29.1242 87.5798 29.5478 87.6152C29.4416 87.5445 29.324 87.4928 29.2001 87.4624C28.893 87.357 28.5797 87.2708 28.2619 87.2043C27.2752 86.9899 26.2607 86.9318 25.2559 87.0322C24.2983 87.1319 23.3655 87.3974 22.4994 87.817C22.236 87.9429 21.9828 88.0893 21.7422 88.2546C21.5711 88.3755 21.4813 88.4519 21.4911 88.4712ZM19.8236 81.8785C20.1975 81.8818 20.5705 81.8405 20.9345 81.7554C21.6118 81.6545 22.5515 81.5299 23.6035 81.4505C24.6563 81.3734 25.6224 81.3571 26.3245 81.3549C26.7015 81.3855 27.0808 81.3706 27.4542 81.3103C27.0734 81.1969 26.6782 81.1382 26.2808 81.136C25.3638 81.071 24.4433 81.073 23.5266 81.142C22.6319 81.2066 21.7435 81.339 20.869 81.5381C20.5037 81.5917 20.1502 81.7068 19.8236 81.8785ZM21.2068 85.7861C21.5807 85.7903 21.9537 85.7492 22.3177 85.6637C22.9949 85.5628 23.9346 85.4382 24.9866 85.3588C26.0394 85.2817 27.0055 85.2654 27.7076 85.2631C28.0846 85.2933 28.4639 85.2784 28.8374 85.2186C28.4566 85.1047 28.0614 85.0457 27.6639 85.0436C26.7469 84.9793 25.8264 84.9813 24.9097 85.0495C24.015 85.1147 23.1266 85.2473 22.252 85.4463C21.8871 85.5007 21.5338 85.6155 21.2068 85.7861ZM20.4406 83.4881C20.8204 83.5383 21.2051 83.5403 21.5854 83.4941C22.3018 83.4666 23.2581 83.4288 24.3139 83.3865C25.375 83.3643 26.3343 83.3435 27.0538 83.3286C27.4308 83.3534 27.8093 83.3284 28.1797 83.2545C27.7976 83.1543 27.4036 83.1059 27.0085 83.1106C26.2936 83.0675 25.3131 83.046 24.2431 83.0779C23.1729 83.1106 22.2151 83.1907 21.5296 83.276C21.1576 83.2888 20.7901 83.3604 20.4406 83.4881Z" fill="#C8C8DC"/>
<path d="M29.0639 79.3632C28.8852 78.8594 28.5856 78.407 28.1912 78.0453C27.7968 77.6837 27.3196 77.4239 26.8014 77.2886C27.2464 78.2271 27.5649 79.2203 27.7486 80.2422C27.8945 81.3427 27.7846 82.462 27.4273 83.5133C27.1308 84.3813 26.6341 85.1676 25.9771 85.809C25.6884 86.0586 25.3542 86.2505 24.9929 86.3742C24.6136 86.5419 24.5615 86.8193 24.5344 87.2005C24.5438 87.6067 24.4899 88.0118 24.3745 88.4014C24.2059 88.7963 23.9655 89.1567 23.6656 89.4644C23.6203 89.5126 23.5668 89.5541 23.5193 89.6008C28.407 87.9126 33.5036 91.7645 33.5036 91.7645L29.0639 79.3632Z" fill="#D9D9E7"/>
<path d="M33.4999 91.7327L33.8068 91.6192C33.8068 91.6192 32.6484 87.7702 32.2419 87.6627C31.8355 87.5551 33.4999 91.7327 33.4999 91.7327Z" fill="#C8C8DC"/>
<path d="M117.327 12.8128C117.497 13.0207 117.636 13.2514 117.741 13.4981C117.892 13.8506 118.071 14.1902 118.278 14.5137C118.416 14.7288 118.614 14.8996 118.847 15.0057C118.984 15.0656 119.132 15.095 119.281 15.0918C119.43 15.0885 119.577 15.0527 119.71 14.9869C120.182 14.658 120.539 14.1904 120.732 13.6493C120.964 13.1716 121.249 12.6548 121.646 12.6623C122.045 12.6194 122.355 13.1573 122.635 13.7102C122.778 14.0101 122.951 14.2947 123.152 14.5596C123.26 14.7181 123.405 14.8474 123.576 14.9357C123.746 15.0241 123.936 15.0687 124.128 15.0657C124.32 15.0626 124.508 15.0119 124.676 14.9182C124.843 14.8245 124.985 14.6906 125.087 14.5287C125.261 14.2842 125.408 14.0219 125.526 13.7463C125.667 13.3033 125.927 12.9075 126.279 12.6029C126.437 12.53 126.617 12.5192 126.783 12.5726C126.949 12.626 127.089 12.7396 127.175 12.891C127.493 13.4643 127.868 14.0051 128.292 14.5054C128.435 14.6376 128.618 14.719 128.812 14.7371C128.944 14.7334 129.007 14.7198 129.007 14.6995C129.016 14.6378 128.724 14.6739 128.447 14.3399C128.278 14.1316 128.138 13.9007 128.033 13.6538C127.884 13.3008 127.705 12.9611 127.498 12.6382C127.36 12.4228 127.162 12.2519 126.928 12.1462C126.791 12.0868 126.643 12.058 126.494 12.0617C126.345 12.0655 126.198 12.1018 126.064 12.168C125.595 12.4995 125.24 12.9674 125.047 13.5079C124.815 13.9856 124.53 14.5017 124.133 14.4911C123.733 14.5287 123.425 13.9908 123.145 13.4372C123.002 13.1368 122.828 12.8521 122.626 12.5878C122.507 12.4419 122.363 12.318 122.201 12.2215C122.11 12.1788 122.016 12.1431 121.92 12.1146C121.822 12.0995 121.723 12.0907 121.624 12.0883C121.438 12.102 121.257 12.1577 121.095 12.2513C120.933 12.3448 120.795 12.4738 120.69 12.6285C120.517 12.8731 120.37 13.1354 120.252 13.4108C120.112 13.8536 119.85 14.2485 119.497 14.5513C119.338 14.6236 119.158 14.6339 118.992 14.5801C118.826 14.5263 118.686 14.4124 118.6 14.2609C118.282 13.6871 117.907 13.1466 117.481 12.6472C117.338 12.5152 117.156 12.4341 116.962 12.4163C116.83 12.4201 116.767 12.4336 116.767 12.4539C116.759 12.5156 117.049 12.4795 117.327 12.8128ZM84.2117 173.576C84.0676 173.381 83.9517 173.168 83.8674 172.941C83.7463 172.617 83.5986 172.304 83.4257 172.005C83.3098 171.805 83.1383 171.643 82.932 171.538C82.8116 171.478 82.6798 171.446 82.5456 171.442C82.4113 171.438 82.2778 171.463 82.1542 171.515C81.7125 171.787 81.3678 172.19 81.1689 172.668C80.9362 173.087 80.6559 173.536 80.2974 173.51C79.9331 173.53 79.678 173.037 79.449 172.527C79.3327 172.25 79.188 171.986 79.017 171.74C78.926 171.593 78.8 171.471 78.6504 171.384C78.5007 171.298 78.3319 171.249 78.159 171.243C77.9861 171.237 77.8144 171.274 77.6591 171.35C77.5038 171.426 77.3698 171.539 77.2688 171.68C77.1007 171.891 76.9556 172.12 76.8361 172.362C76.689 172.754 76.435 173.097 76.1029 173.352C75.9568 173.41 75.7943 173.412 75.6471 173.357C75.4998 173.302 75.3784 173.194 75.3065 173.055C75.0433 172.525 74.728 172.022 74.3651 171.554C74.2415 171.43 74.0803 171.349 73.9063 171.325C73.7874 171.323 73.7301 171.332 73.7286 171.35C73.7182 171.406 73.9807 171.387 74.2186 171.698C74.3623 171.892 74.478 172.106 74.5622 172.332C74.6824 172.657 74.8302 172.971 75.0039 173.27C75.1197 173.47 75.2915 173.632 75.4983 173.736C75.6189 173.795 75.7508 173.827 75.885 173.831C76.0192 173.834 76.1526 173.809 76.2761 173.756C76.7159 173.483 77.059 173.079 77.2577 172.601C77.4897 172.182 77.7707 171.735 78.1284 171.763C78.4913 171.747 78.7471 172.241 78.9754 172.752C79.092 173.029 79.2373 173.293 79.4089 173.539C79.5107 173.675 79.6355 173.792 79.7777 173.886C79.8577 173.927 79.9407 173.963 80.026 173.993C80.1131 174.012 80.2013 174.024 80.29 174.03C80.4583 174.027 80.6236 173.985 80.7737 173.909C80.9238 173.833 81.0548 173.724 81.157 173.591C81.3244 173.379 81.4694 173.15 81.5898 172.909C81.737 172.517 81.9915 172.175 82.3245 171.921C82.471 171.863 82.6338 171.862 82.7812 171.917C82.9285 171.973 83.0499 172.081 83.1216 172.221C83.3849 172.751 83.7005 173.253 84.0637 173.72C84.1877 173.844 84.3491 173.925 84.5232 173.949C84.6422 173.951 84.6995 173.941 84.7002 173.923C84.7121 173.868 84.4496 173.886 84.2117 173.576Z" fill="#B8B8D1"/>
<path d="M130.013 123.679C129.744 123.584 129.5 123.429 129.3 123.226C129.1 123.024 128.948 122.778 128.857 122.508C128.85 122.487 128.837 122.468 128.819 122.454C128.8 122.441 128.778 122.434 128.755 122.434C128.733 122.434 128.71 122.441 128.692 122.454C128.674 122.468 128.66 122.487 128.654 122.508C128.562 122.778 128.41 123.024 128.21 123.226C128.009 123.429 127.766 123.584 127.496 123.679C127.475 123.686 127.456 123.7 127.443 123.718C127.429 123.737 127.422 123.759 127.422 123.782C127.422 123.804 127.429 123.827 127.443 123.845C127.456 123.864 127.475 123.877 127.496 123.884C127.766 123.98 128.01 124.135 128.21 124.338C128.41 124.541 128.562 124.786 128.654 125.056C128.66 125.078 128.674 125.097 128.692 125.11C128.71 125.124 128.733 125.131 128.755 125.131C128.778 125.131 128.8 125.124 128.819 125.11C128.837 125.097 128.851 125.078 128.857 125.056C128.949 124.787 129.1 124.541 129.3 124.338C129.5 124.135 129.744 123.98 130.013 123.884C130.034 123.877 130.053 123.863 130.066 123.845C130.08 123.827 130.087 123.804 130.087 123.782C130.087 123.759 130.08 123.737 130.066 123.718C130.053 123.7 130.034 123.686 130.013 123.679ZM97.3345 7.24525C97.0656 7.15039 96.8218 6.99578 96.6216 6.79312C96.4214 6.59046 96.27 6.34504 96.1789 6.07544C96.1722 6.05367 96.1587 6.0346 96.1404 6.02103C96.1221 6.00746 96.0999 6.00009 96.077 6C96.0543 5.9999 96.0321 6.00724 96.0139 6.02092C95.9954 6.03444 95.9818 6.05357 95.9752 6.07544C95.8835 6.34499 95.7318 6.59031 95.5314 6.79293C95.331 6.99555 95.0871 7.1502 94.8182 7.24525C94.7964 7.25246 94.7774 7.26628 94.7639 7.28478C94.7508 7.30342 94.7438 7.32561 94.7438 7.34835C94.7438 7.37109 94.7508 7.39328 94.7639 7.41192C94.7774 7.43042 94.7964 7.44423 94.8182 7.45138C95.0872 7.54675 95.3311 7.7017 95.5315 7.90458C95.7319 8.10746 95.8836 8.35299 95.9752 8.62275C95.9819 8.64447 95.9954 8.66347 96.0138 8.67697C96.0321 8.69048 96.0543 8.69778 96.077 8.69781C96.0998 8.6977 96.1219 8.69043 96.1403 8.67704C96.1587 8.66359 96.1723 8.64454 96.1789 8.62275C96.2702 8.35307 96.4217 8.10755 96.6218 7.90466C96.822 7.70178 97.0656 7.5468 97.3345 7.45138C97.3561 7.4441 97.3749 7.43024 97.3882 7.41175C97.4015 7.39326 97.4086 7.37107 97.4086 7.34831C97.4086 7.32555 97.4015 7.30336 97.3882 7.28488C97.3749 7.26639 97.3561 7.25253 97.3345 7.24525ZM35.239 53.7664C34.9702 53.6714 34.7266 53.5167 34.5264 53.3141C34.3263 53.1114 34.1749 52.8661 34.0837 52.5966C34.0771 52.5748 34.0636 52.5557 34.0453 52.5421C34.0269 52.5285 34.0047 52.5212 33.9819 52.5212C33.959 52.5212 33.9368 52.5285 33.9185 52.5421C33.9001 52.5557 33.8867 52.5748 33.8801 52.5966C33.7885 52.8662 33.6368 53.1115 33.4364 53.3142C33.236 53.5168 32.9922 53.6714 32.7232 53.7664C32.7015 53.7735 32.6825 53.7874 32.6691 53.8059C32.6557 53.8244 32.6485 53.8466 32.6485 53.8695C32.6485 53.8923 32.6557 53.9145 32.6691 53.933C32.6825 53.9516 32.7015 53.9654 32.7232 53.9725C32.9923 54.0678 33.2361 54.2227 33.4365 54.4256C33.6369 54.6285 33.7885 54.8741 33.8801 55.1439C33.8867 55.1656 33.9002 55.1846 33.9186 55.1982C33.9369 55.2117 33.9591 55.219 33.9819 55.219C34.0046 55.219 34.0268 55.2117 34.0452 55.1982C34.0635 55.1846 34.077 55.1656 34.0837 55.1439C34.1751 54.8743 34.3266 54.6289 34.5267 54.426C34.7268 54.2231 34.9703 54.0681 35.239 53.9725C35.2606 53.9652 35.2794 53.9514 35.2927 53.9329C35.306 53.9144 35.3132 53.8922 35.3132 53.8695C35.3132 53.8467 35.306 53.8245 35.2927 53.806C35.2794 53.7875 35.2606 53.7737 35.239 53.7664ZM157.092 41.519C156.783 41.4097 156.503 41.2319 156.273 40.9989C156.042 40.7659 155.868 40.4838 155.763 40.1739C155.756 40.1489 155.74 40.127 155.719 40.1114C155.698 40.0958 155.672 40.0874 155.646 40.0874C155.62 40.0874 155.594 40.0958 155.573 40.1114C155.552 40.127 155.536 40.1489 155.529 40.1739C155.423 40.4838 155.249 40.7658 155.019 40.9988C154.788 41.2318 154.508 41.4096 154.199 41.519C154.174 41.5273 154.152 41.5431 154.136 41.5644C154.121 41.5857 154.113 41.6113 154.113 41.6375C154.113 41.6638 154.121 41.6894 154.136 41.7106C154.152 41.7319 154.174 41.7478 154.199 41.756C154.508 41.8657 154.788 42.0439 155.019 42.2771C155.249 42.5103 155.423 42.7926 155.529 43.1027C155.536 43.1276 155.552 43.1495 155.573 43.1651C155.594 43.1805 155.619 43.1889 155.646 43.189C155.672 43.1891 155.697 43.1807 155.718 43.1651C155.74 43.1498 155.756 43.1278 155.763 43.1027C155.868 42.7926 156.042 42.5103 156.272 42.2771C156.503 42.0438 156.783 41.8657 157.092 41.756C157.117 41.7477 157.138 41.7317 157.154 41.7105C157.169 41.6892 157.177 41.6637 157.177 41.6375C157.177 41.6113 157.169 41.5858 157.154 41.5646C157.138 41.5433 157.117 41.5274 157.092 41.519Z" fill="#C8C8DC"/>
<path d="M50.8841 104.813C50.6451 104.728 50.4283 104.59 50.2503 104.41C50.0722 104.23 49.9375 104.012 49.8563 103.772C49.8503 103.753 49.8384 103.736 49.8221 103.724C49.8058 103.712 49.786 103.705 49.7658 103.705C49.7455 103.705 49.7258 103.712 49.7095 103.724C49.6932 103.736 49.6812 103.753 49.6753 103.772C49.5938 104.012 49.4588 104.23 49.2807 104.41C49.1025 104.59 48.8857 104.728 48.6466 104.813C48.6273 104.819 48.6106 104.831 48.5987 104.848C48.5868 104.864 48.5804 104.884 48.5804 104.904C48.5804 104.925 48.5868 104.944 48.5987 104.961C48.6106 104.977 48.6273 104.989 48.6466 104.996C48.8858 105.081 49.1027 105.219 49.281 105.399C49.4592 105.58 49.5943 105.798 49.676 106.038C49.6819 106.057 49.6938 106.074 49.7101 106.087C49.7264 106.099 49.7462 106.105 49.7665 106.105C49.7869 106.105 49.8067 106.099 49.823 106.087C49.8393 106.074 49.8512 106.057 49.857 106.038C49.9383 105.798 50.0731 105.58 50.2511 105.399C50.4291 105.219 50.6458 105.081 50.885 104.996C50.9041 104.989 50.9208 104.977 50.9325 104.96C50.9443 104.944 50.9505 104.924 50.9505 104.904C50.9504 104.884 50.9439 104.864 50.932 104.848C50.9201 104.831 50.9034 104.819 50.8841 104.813Z" fill="#D9D9E7"/>
<path d="M78.6355 118.424C78.7352 118.442 78.7567 118.935 78.5693 119.702C78.318 120.71 77.8669 121.658 77.2428 122.489C76.6338 123.332 75.8682 124.05 74.9875 124.605C74.3116 125.024 73.8178 125.144 73.771 125.041C73.6654 124.844 75.2559 123.835 76.5736 122.004C77.9269 120.204 78.373 118.366 78.6355 118.424ZM80.032 116.528C80.0855 116.508 80.1703 116.593 80.2789 116.771C80.4347 117.021 80.5541 117.291 80.6335 117.574C80.9331 118.524 80.9573 119.539 80.7034 120.502C80.4635 121.47 79.9789 122.36 79.2958 123.088C78.7738 123.635 78.3396 123.849 78.2712 123.763C78.1961 123.673 78.4675 123.322 78.8333 122.73C79.3134 121.985 79.672 121.169 79.8959 120.311C80.1093 119.458 80.164 118.573 80.0573 117.7C80.0461 117.353 79.9762 117.08 79.9725 116.876C79.9591 116.674 79.9784 116.549 80.032 116.528ZM53.3421 122.304C53.3783 122.103 51.7419 121.825 49.4191 120.664C46.4271 119.079 43.8113 116.872 41.7485 114.191C39.635 111.537 37.98 108.549 36.8517 105.351C36.517 104.385 36.2716 103.391 36.1187 102.381C36.0222 101.666 36.0289 101.257 35.9347 101.241C35.8616 101.225 35.6866 101.627 35.6353 102.398C35.6032 103.476 35.7284 104.553 36.0071 105.595C36.9304 109.012 38.5536 112.201 40.7741 114.961C42.9355 117.795 45.7858 120.033 49.0555 121.463C51.6076 122.475 53.3346 122.441 53.3421 122.304Z" fill="#C8C8DC"/>
</g>
</svg>
