<svg width="1722" height="430" viewBox="0 0 1722 430" fill="none" xmlns="http://www.w3.org/2000/svg">
<g clip-path="url(#clip0_2800_2405)">
<g style="mix-blend-mode:color-burn" opacity="0.3">
<path d="M795.665 0L800.231 23.9613L797.528 0H795.665ZM551.185 0H543.151L606.649 92.1318L551.185 0ZM641.373 0H625.561L724.244 191.525L641.373 0ZM682.893 0H672.774L726.188 125.315L682.893 0ZM1083.69 0L992.885 234.516L1102.82 0H1083.69ZM818.548 0L853.826 278.627L840.093 0H818.548ZM1051.35 0L1041.82 31.013L1053.83 0H1051.35ZM929.93 0L920.769 119.71L939.203 0H929.93ZM0 773.602V784.32L338.912 673.721L0 773.602ZM0 610.411V620.979L416.902 564.677L0 610.411ZM0 475.056V476.897L75.7476 478.699L0 475.056ZM428.002 0H414.316L548.079 141.732L428.002 0ZM0 457.992V465.097L291.139 476.763L0 457.992ZM0 567.719V571.092L137.29 559.896L0 567.719ZM381.653 45.578L597.657 242.024L440.883 84.6057L357.707 0H343.87L390.289 42.7411L381.653 45.578ZM1164.69 0L1111.89 98.5526L1173.09 0H1164.69ZM0 668.456V677.168L323.451 611.903L0 668.456ZM1721.96 707.756V704.132L1594.5 676.103L1721.96 707.756ZM1721.96 693.081V684.816L1423.95 625.221L1721.96 693.081ZM1697.78 0L1197.01 314.267L1721.96 12.1662V0H1697.78ZM1627.43 239.357L1328.15 349.572L1575.05 266.971L1387.94 333.882L1721.96 225.51V214.433L1634.53 245.701L1627.43 239.357ZM1721.96 345.686V343.795L1652.15 358.2L1721.96 345.686ZM1296.37 0L1246.65 62.9106L1302.29 0H1296.37ZM81.8905 353.723L127.65 362.011L0 335.427V348.411L409.674 419.02L81.8905 353.723ZM1721.96 482.352V475.652L1446.02 488.264L1721.96 482.352ZM1721.96 502.674V495.032L1406.22 502.183L1721.96 502.674ZM1721.96 595.176V592.212L1603.25 581.787L1721.96 595.176ZM1721.96 372.752V363.188L1358.36 427.984L1721.96 372.752ZM1378.51 0H1362.87L1217.99 156.051L1378.51 0ZM1660.3 0H1638.03L1394.46 166.88L1660.3 0ZM1478.62 0H1462.1L1294.7 149.49L1478.62 0ZM1086.89 279.675L1320.65 41.7537L1302.09 36.3221L1086.89 279.675ZM1721.96 171.34V164.032L1522.81 247.898L1721.96 171.34ZM1721.96 274.788V269.667L1552.43 319.551L1721.96 274.788ZM1721.96 75.9156V64.8645L1475.35 197.944L1721.96 75.9156ZM1721.96 411.456V409.437L1641.85 419.615L1721.96 411.456ZM0 624.564V629.878L207.526 599.064L0 624.564ZM1130.27 964.373H1134.91L1101.68 909.58L1130.27 964.373ZM1035.66 964.373H1038.81L1023.35 925.03L1035.66 964.373ZM975.229 964.373H991.723L934.158 754.267L975.229 964.373ZM1315.33 964.373H1344.29L1043.99 678.435L1315.33 964.373ZM1375.71 964.373H1393.16L1202.59 801.967L1375.71 964.373ZM777.71 964.373L784.671 924.456L774.587 964.373H777.71ZM715.1 964.373L788.992 738.688L696.953 964.373H715.1ZM869.614 208.756L874.122 0H858.019L869.614 208.756ZM937.602 964.373H939.43L935.302 940.847L937.602 964.373ZM1721.96 832.548V821.947L1420.74 713.423L1721.96 832.548ZM1721.96 569.642V567.893L1650.81 563.73L1721.96 569.642ZM1540.95 964.373H1552.89L1411.21 872.382L1540.95 964.373ZM1721.96 491.035V487.059L1557.91 492.638L1721.96 491.035ZM1721.96 765.692V759.968L1538.6 707.507L1721.96 765.692ZM1721.96 647.853V645.113L1617.5 629.436L1721.96 647.853ZM1646.39 964.373H1679.99L1274.28 739.365L1646.39 964.373ZM1714.48 905.212L1714.64 905.104L1721.96 908.681V886.939L1182.75 649.33L1714.48 905.212ZM590.889 964.373L655.03 855.597L581.442 964.373H590.889ZM418.835 964.373L474.007 906.794L412.979 964.373H418.835ZM0 134.608V146.207L306.314 269.387L0 134.608ZM0 250.321V254.769L144.349 294.815L0 250.321ZM0 541.71V544.245L104.318 538.886L0 541.71ZM31.232 0H4.75871L323.953 181.216L31.232 0ZM0 413.771V417.62L153.697 431.792L0 413.771ZM210.007 0H184.953L475.717 208.226L210.007 0ZM0 40.8576V58.2917L384.169 251.051L0 40.8576ZM132.905 146.838L494.378 319.002L146.515 138.254L132.905 146.838ZM305.023 964.373L356.435 921.528L300.078 964.373H305.023ZM550.408 964.373L580.613 919.425L546.386 964.373H550.408ZM166.572 964.373H188.105L423.839 803.366L166.572 964.373ZM372.895 964.373H395.521L616.038 749.414L372.895 964.373ZM0 205.71V218.01L371.955 338.112L0 205.71ZM0 726.504V732.724L213.254 675.482L0 726.504ZM72.0633 964.373H90.7424L297.655 840.112L72.0633 964.373ZM68.788 827.257L476.64 661.741L79.0935 808.844L0 837.818V848.702L63.667 823.114L68.788 827.257ZM0 907.192V919.438L300.177 774.034L0 907.192Z" fill="#FFEFEF"/>
</g>
<g style="mix-blend-mode:color-burn" opacity="0.5">
<path d="M0 267.439V271.651L151.861 302.019L0 267.439ZM0 129.263V134.751L155.907 190.92L0 129.263ZM0 196.009V196.242L7.44446 198.372L0 196.009ZM0 52.3698V70.854L455.669 271.652L0 52.3698ZM0 740.406V749.593L272.53 649.229L0 740.406ZM0 883.326V887.229L87.1101 840.221L0 883.326ZM78.6863 0H55.0578L340.384 158.243L78.6863 0ZM0 787.805V788.807L27.3319 777.297L0 787.805ZM0 477.19V480.202L124.053 474.531L0 477.19ZM0 586.078V592.245L234.469 550.461L0 586.078ZM0 456.729V460.945L174.19 456.999L0 456.729ZM0 732.978V739.518L197.211 668.991L0 732.978ZM1525.26 0L1411.6 77.6264L1535.64 0H1525.26ZM1721.96 895.161V877.87L1322.75 687.735L1721.96 895.161ZM1622.73 0L1570.55 31.3414L1627.45 0H1622.73ZM346.06 0H337.528L430.685 79.389L346.06 0ZM375.594 964.373L576.426 737.272L353.291 964.373H375.594ZM0 945.598V964.373H6.40831L437.716 693.699L0 945.598ZM407.468 0H383.667L630.461 234.991L407.468 0ZM1721.96 116.569V103.078L1345.1 256.018L1721.96 116.569ZM730.589 0L768.803 139.473L741.538 0H730.589ZM1318.86 0L1169.51 145.585L1334.18 0H1318.86ZM951.656 159.095L1016.54 0H1003.74L951.656 159.095ZM1120.39 11.8364L1128.4 0H1127.37L1120.39 11.8364ZM1721.96 750.875V742.773L1476.96 663.664L1721.96 750.875ZM1721.96 345.194V337.549L1420.34 378.282L1721.96 345.194ZM1721.96 498.251V494.756L1578.75 489.018L1721.96 498.251ZM1721.96 620.022V612.167L1429.45 561.752L1721.96 620.022ZM1721.96 915.794V903.977L1461.57 773.327L1721.96 915.794ZM64.9053 964.373L189.002 879.349L53.5595 964.373H64.9053ZM1721.96 330.312V329.342L1684.07 334.967L1721.96 330.312ZM1721.96 180.99V174.559L1518.58 240.929L1721.96 180.99ZM1567.37 114.573L1721.96 45.9979V39.6913L1567.37 114.573ZM1703.93 964.373H1718.99L1537.42 861.291L1703.93 964.373ZM1721.96 286.641V281.688L1538.05 318.796L1721.96 286.641ZM1721.96 227.92V226.605L1676.86 238.711L1721.96 227.92ZM1721.96 821.651V815.505L1559.64 750.23L1721.96 821.651ZM847.127 964.373H857.755L850.102 826.601L847.127 964.373ZM1521.21 964.373H1537.71L1346.26 827.269L1521.21 964.373ZM628.924 964.373L694.829 794.154L615.036 964.373H628.924ZM243.982 964.373L314.665 901.253L237.005 964.373H243.982ZM337.858 964.373H345.016L411.29 892.988L337.858 964.373ZM783.707 964.373L785.667 938.765L781.724 964.373H783.707ZM1300.31 964.373H1305.46L1255.11 911.026L1300.31 964.373ZM1371.6 964.373H1390.23L1192.66 784.697L1371.6 964.373ZM881.117 964.373H898.576L869.988 738.592L881.117 964.373ZM1083.43 964.373H1093.01L1033.21 848.307L1083.43 964.373ZM1042.05 964.373H1044.69L1030.76 931.705L1042.05 964.373Z" fill="#FFEFEF"/>
</g>
</g>
<defs>
<clipPath id="clip0_2800_2405">
<rect width="1721.96" height="429.294" fill="white"/>
</clipPath>
</defs>
</svg>
