<svg width="191" height="157" viewBox="0 0 191 157" fill="none" xmlns="http://www.w3.org/2000/svg">
<path d="M0 155.211H191V157H0V155.211Z" fill="#DCDFE0"/>
<g opacity="0.6">
<path d="M122.751 93.4677C120.956 93.357 119.18 93.0407 117.458 92.5251L117.588 92.0975C119.278 92.6031 121.021 92.9133 122.781 93.0221L122.751 93.4677ZM128.113 93.4258L128.082 92.9801C129.646 92.8665 131.374 92.6669 133.366 92.3681L133.431 92.8108C131.428 93.1103 129.688 93.3115 128.113 93.4258ZM138.701 91.9463L138.628 91.5058L143.892 90.6217L143.964 91.0623L138.701 91.9463ZM149.228 90.1783L149.155 89.737L154.418 88.8536L154.491 89.2942L149.228 90.1783ZM112.612 90.1674C112.476 90.0712 112.341 89.9723 112.207 89.8708C110.904 88.8739 109.745 87.7012 108.762 86.386L109.116 86.114C110.074 87.3967 111.204 88.5406 112.475 89.5134C112.604 89.6118 112.736 89.7078 112.869 89.8013L112.612 90.1674ZM159.755 88.4102L159.682 87.9689L162.53 87.4907C163.29 87.3634 164.107 87.2201 164.927 87.0407L165.022 87.4784C164.192 87.6592 163.369 87.8032 162.603 87.932L159.755 88.4109V88.4102ZM170.061 85.5613L169.818 85.1865C170.493 84.7492 171.095 84.2076 171.601 83.582C172.177 82.8444 172.629 82.0175 172.938 81.1338L173.355 81.2894C173.029 82.2182 172.553 83.0874 171.948 83.8626C171.412 84.5248 170.775 85.098 170.061 85.5613ZM105.939 81.7943C105.2 80.3598 104.51 78.8478 103.843 77.3864L103.639 76.9393L104.042 76.752L104.247 77.1998C104.912 78.6568 105.599 80.1637 106.334 81.5889L105.939 81.7943ZM174.593 76.0365L174.156 75.9526L175.162 70.6816L175.599 70.7655L174.593 76.0365ZM101.301 72.1314C101.101 71.7617 100.896 71.3957 100.684 71.0332C99.9979 69.8653 99.2463 68.7375 98.4323 67.6555L98.7874 67.3856C99.867 68.8217 100.838 70.3367 101.692 71.918L101.301 72.1314ZM176.605 65.4946L176.169 65.4107L177.174 60.1397L177.611 60.2236L176.605 65.4946ZM94.9663 63.6216C93.7941 62.412 92.5209 61.222 91.0737 59.982L91.3625 59.642C92.8197 60.8899 94.1031 62.0901 95.2846 63.3091L94.9663 63.6216ZM86.9112 56.6419C85.3623 55.4663 83.7946 54.3355 82.6022 53.4812L82.8599 53.1166C84.0551 53.9724 85.6257 55.1053 87.179 56.2852L86.9112 56.6419ZM178.616 54.9534L178.18 54.8687L179.186 49.5978L179.623 49.6824L178.616 54.9534ZM78.247 50.3762C76.493 49.1174 75.1642 48.1386 73.9358 47.201L74.205 46.8444C75.4291 47.7798 76.7551 48.7564 78.5054 50.0116L78.247 50.3762ZM180.52 44.3796L180.081 44.3188C180.331 42.4922 180.511 40.7017 180.617 38.9958L181.06 39.024C180.954 40.7407 180.772 42.5421 180.52 44.3796ZM69.7682 43.832C68.321 42.5811 67.0435 41.3766 65.8641 40.1511L66.1838 39.8393C67.3531 41.0561 68.6206 42.2505 70.0584 43.4927L69.7682 43.832ZM62.375 36.063C62.2191 35.8546 62.0656 35.6451 61.9145 35.4343C61.0136 34.1721 60.2808 32.7974 59.7347 31.3452L60.1512 31.1874C60.6835 32.6026 61.3976 33.9423 62.2754 35.1725C62.4248 35.3815 62.5764 35.5886 62.7301 35.7939L62.375 36.063ZM180.698 33.6522C180.641 31.8738 180.451 30.1022 180.13 28.3521L180.567 28.2685C180.892 30.0407 181.085 31.8347 181.143 33.6357L180.698 33.6522ZM59.3031 26.0318L58.8607 25.9937C58.903 25.0826 59.1436 24.1917 59.5656 23.3835C59.9877 22.5754 60.581 21.8695 61.3039 21.3154L61.3883 21.2519L61.6489 21.6141L61.5717 21.6723C60.8995 22.1894 60.3481 22.8475 59.9563 23.6005C59.5644 24.3536 59.3415 25.1833 59.3031 26.0318ZM119.731 24.804L119.729 24.3567C121.524 24.351 123.316 24.3188 125.058 24.2615C126.339 24.219 127.624 24.1618 128.878 24.0911L128.903 24.5375C127.645 24.6086 126.357 24.6658 125.073 24.7083C123.327 24.766 121.529 24.7977 119.731 24.804ZM114.389 24.7504C112.658 24.7106 110.861 24.6475 109.05 24.5634L109.071 24.1161C110.879 24.2007 112.672 24.2637 114.399 24.3036L114.389 24.7504ZM103.719 24.2584C101.943 24.1385 100.168 24.0031 98.394 23.8522L98.4309 23.4064C100.245 23.5606 102.033 23.697 103.748 23.812L103.719 24.2584ZM134.233 24.1443L134.193 23.6988C135.975 23.5356 137.756 23.3388 139.489 23.1142L139.545 23.5575C137.808 23.7829 136.02 23.9802 134.233 24.1443ZM93.0774 23.3611C91.3877 23.193 89.6013 23.0047 87.768 22.8007L87.8163 22.3561C89.6489 22.5597 91.4339 22.748 93.1207 22.9162L93.0774 23.3611ZM178.541 23.3052C177.809 21.7065 176.727 20.294 175.374 19.173L175.651 18.8232C177.056 19.9858 178.181 21.4514 178.942 23.1107L178.541 23.3052ZM144.832 22.7645L144.757 22.324C146.508 22.025 148.252 21.6886 149.988 21.3149L150.082 21.7519C148.366 22.1218 146.6 22.4626 144.832 22.7645ZM82.4643 22.1871C80.6974 21.9749 78.9315 21.7577 77.1665 21.5354L77.2206 21.0917C78.9853 21.3132 80.7508 21.5301 82.517 21.7425L82.4643 22.1871ZM71.8708 20.8623L69.8873 20.6074C68.7944 20.4522 67.6936 20.3593 66.5902 20.3291L66.5953 19.8819C67.7158 19.9118 68.8338 20.006 69.9436 20.1641L71.9271 20.4186L71.8708 20.8623ZM155.226 20.2361L155.082 19.8125C155.621 19.6274 156.165 19.4369 156.711 19.2454C157.831 18.8532 158.99 18.4476 160.138 18.0777L160.273 18.5034C159.13 18.8716 157.975 19.2763 156.858 19.6681C156.31 19.86 155.767 20.0493 155.226 20.2361ZM165.41 17.1831L165.336 16.7417C166.854 16.4619 168.404 16.3965 169.941 16.5475C170.206 16.577 170.466 16.6147 170.72 16.6581L170.644 17.099C170.395 17.0558 170.143 17.02 169.891 16.9917C168.396 16.8454 166.887 16.9098 165.41 17.1831Z" fill="#C5CCD8"/>
<path d="M85.5377 145.746C82.0423 145.736 78.6936 144.337 76.2263 141.855C73.759 139.373 72.3746 136.012 72.3767 132.509V13.2377C72.3746 9.73421 73.759 6.37293 76.2263 3.89125C78.6936 1.40957 82.0423 0.0101532 85.5377 0H147.589C151.085 0.0102064 154.433 1.40962 156.901 3.89127C159.368 6.37292 160.753 9.73416 160.751 13.2377V132.509C160.753 136.013 159.368 139.374 156.901 141.855C154.433 144.337 151.085 145.736 147.589 145.746H85.5377Z" fill="#C5CCD8"/>
<path d="M155.866 13.2366V132.507C155.868 133.598 155.656 134.679 155.241 135.688C154.826 136.698 154.217 137.615 153.449 138.388C152.68 139.161 151.767 139.775 150.762 140.194C149.756 140.614 148.678 140.83 147.589 140.832H85.5384C84.4499 140.83 83.3725 140.613 82.3677 140.193C81.3629 139.773 80.4504 139.16 79.6823 138.386C78.9143 137.613 78.3057 136.696 77.8914 135.687C77.477 134.678 77.265 133.598 77.2675 132.507V13.2366C77.2638 11.0341 78.133 8.9204 79.6841 7.3603C81.2352 5.80019 83.341 4.9215 85.5384 4.9175H101.288C101.663 4.91723 102.029 5.03383 102.336 5.2512C102.642 5.46857 102.874 5.77597 102.998 6.13092L103.664 8.03899C103.82 8.43778 104.094 8.77905 104.449 9.01656C104.805 9.25408 105.224 9.37637 105.652 9.36686H127.482C127.908 9.37548 128.326 9.25269 128.681 9.01512C129.035 8.77755 129.308 8.43665 129.462 8.03855L130.134 6.13092C130.258 5.77506 130.489 5.46678 130.796 5.2492C131.103 5.03163 131.47 4.91565 131.846 4.9175H147.589C148.678 4.91888 149.755 5.13518 150.76 5.55403C151.765 5.97288 152.678 6.58608 153.447 7.35861C154.215 8.13114 154.825 9.04787 155.24 10.0564C155.655 11.065 155.868 12.1456 155.866 13.2366Z" fill="white"/>
</g>
<path d="M84.5077 25.7531C84.5077 25.278 84.601 24.8076 84.7823 24.3688C84.9637 23.9299 85.2295 23.5311 85.5646 23.1952C85.8998 22.8593 86.2976 22.5929 86.7355 22.4111C87.1734 22.2294 87.6427 22.1358 88.1166 22.1359H145.016C145.973 22.1359 146.891 22.517 147.568 23.1954C148.245 23.8737 148.625 24.7937 148.625 25.7531V67.513C148.625 68.4723 148.245 69.3923 147.568 70.0706C146.891 70.7489 145.973 71.13 145.016 71.1302H88.1166C87.6427 71.1302 87.1734 71.0366 86.7355 70.8548C86.2977 70.6731 85.8998 70.4066 85.5647 70.0707C85.2296 69.7348 84.9638 69.3361 84.7824 68.8972C84.6011 68.4584 84.5077 67.988 84.5077 67.513V25.7531Z" fill="#F9DAE0"/>
<path d="M84.5077 76.365H135.369V80.825H84.5077V76.365Z" fill="#F2F2F2"/>
<path d="M84.5077 85.2604H98.5391V87.0965H84.5077V85.2604ZM104.368 85.2604H119.772V87.0965H104.368V85.2604ZM84.5077 89.8499H129.244V91.6859H84.5077V89.8499ZM134.345 89.8499H148.624V91.6859H134.345V89.8499ZM84.5077 94.4394H105.929V96.2747H84.5077V94.4394ZM114.256 94.4394H148.624V96.2747H114.256V94.4394ZM84.5077 99.0288H125.22V100.864H84.5077V99.0288ZM133.963 99.0288H148.624V100.864H133.963V99.0288ZM84.5077 103.618H100.239V105.453H84.5077V103.618ZM106.207 103.618H148.624V105.453H106.207V103.618ZM84.5077 108.207H125.497V110.042H84.5077V108.207ZM137.71 108.207H148.624V110.042H137.71V108.207ZM84.5077 112.797H110.648V114.632H84.5077V112.797ZM125.497 112.865V112.797H115.227V114.632H136.877V112.865H125.497Z" fill="#C5CCD8"/>
<path d="M133.481 57.8942H99.655L108.892 45.5705L113.912 52.2659L121.588 42.0336L133.481 57.8942Z" fill="#F7B3C2"/>
<path d="M116.567 43.2532C117.164 43.2553 117.747 43.0799 118.244 42.7493C118.741 42.4187 119.129 41.9476 119.359 41.3959C119.589 40.8441 119.65 40.2364 119.535 39.6498C119.42 39.0631 119.134 38.5239 118.712 38.1004C118.291 37.6769 117.754 37.3881 117.17 37.2707C116.585 37.1532 115.978 37.2124 115.427 37.4406C114.876 37.6689 114.404 38.056 114.073 38.5529C113.741 39.0499 113.564 39.6343 113.564 40.2322C113.562 41.032 113.878 41.7995 114.441 42.3661C115.004 42.9326 115.769 43.2518 116.567 43.2532Z" fill="#F7B3C2"/>
<path d="M97.1865 122.218H106.762V131.849H97.1865V122.218ZM111.777 122.218H121.353V131.849H111.777V122.218ZM126.367 122.218H135.943V131.849H126.367V122.218Z" fill="#C5CCD8"/>
<path d="M81.6985 130.95C79.7339 130.613 71.0956 122.47 71.0956 122.47L75.3757 115.494C75.3757 115.494 84.2472 116.487 84.8708 117.908C85.4843 119.315 81.0922 119.471 81.0922 119.471C81.9122 119.895 88.004 123.057 86.6796 124.23C86.1996 124.658 84.6817 124.5 84.0977 124.288C85.6149 125.37 87.4901 127.318 86.8737 127.93C86.0155 128.782 84.2053 127.422 83.5947 126.917C84.1995 127.454 85.8805 129.076 84.8708 129.735C84.2573 130.137 82.748 129.01 82.0096 128.549C82.4203 129.075 82.9783 131.172 81.6985 130.95Z" fill="#FEC3BD"/>
<path d="M53.5794 155.135H36.7244L35.9805 150.434L31.3805 121.328L52.7133 120.61L53.5794 155.135Z" fill="#11153A"/>
<path d="M40.6498 121.329L35.9805 150.436L31.3805 121.329H40.6498Z" fill="#070D2B"/>
<path d="M33.0494 155.136L38.4724 121.332H14.5146V155.136H33.0494Z" fill="#11153A"/>
<path d="M77.1953 114.904L71.647 123.986L47.7856 109.822L36.6149 81.5817L47.7856 67.8162C50.7971 70.9675 55.1926 85.3219 61.0939 97.1704L77.1953 114.904Z" fill="#3A6DC9"/>
<path d="M14.2915 119.166C14.4877 113.84 14.6659 107.27 14.4614 104.923C14.0176 99.8203 12.0289 92.384 10.9194 85.3805C9.9055 79.0164 9.62227 73.0118 11.8853 69.4402C13.9829 66.1262 24.9668 64.0253 24.9668 64.0253L37.352 63.2816C37.352 63.2816 45.9022 65.1886 47.7864 67.8147C51.8776 73.5045 51.5565 95.973 51.5565 95.973C51.5565 95.973 53.3491 123.035 53.5801 126.441H13.9833C14.0314 125.5 14.1661 122.589 14.2924 119.166H14.2915Z" fill="#3A6DC9"/>
<path d="M34.7254 69.6926C29.5603 69.4669 24.9732 64.1851 24.9661 64.026C24.7748 60.2257 23.8993 51.4548 23.0379 48.739C22.9943 48.6045 22.9886 48.4605 23.0213 48.3229C23.0541 48.1853 23.124 48.0594 23.2234 47.959C23.3228 47.8587 23.4479 47.7877 23.585 47.7539C23.722 47.7201 23.8657 47.7248 24.0002 47.7674L36.6865 51.7449C36.8746 51.8049 37.0327 51.935 37.1279 52.1084C37.2231 52.2818 37.2483 52.4852 37.1983 52.6767C37.0441 53.283 36.9262 53.8981 36.8452 54.5185C36.8178 54.7334 36.7938 54.9485 36.7732 55.1639C36.6405 56.7257 36.7022 58.298 36.9568 59.8445C36.9999 60.1093 37.0542 60.5701 37.1192 61.0997V61.1033C37.2739 62.4633 37.3281 63.2758 37.3859 63.4754C37.4149 63.5731 37.6439 69.8207 34.7254 69.6926Z" fill="#FEC3BD"/>
<path d="M37.1175 61.0997V61.1033C37.1175 61.1033 30.0886 58.4982 28.8474 56.2592C27.2096 53.3046 35.7438 54.7363 35.7438 54.7363C35.7438 54.7363 36.1907 54.9208 36.771 55.1646C36.6387 56.7264 36.7006 58.2987 36.9551 59.8452C36.9983 60.11 37.0525 60.5701 37.1175 61.0997Z" fill="#F18B89"/>
<path d="M38.599 58.737C31.6217 60.6288 25.3916 53.5622 23.6862 50.6215V50.6178C23.4683 50.2431 23.2644 49.8604 23.0743 49.4697C23.0158 49.3482 22.926 49.2446 22.8141 49.1695C21.9128 48.5626 17.8304 45.6341 18.8554 43.0362C19.5248 41.3448 20.6681 41.1444 21.5103 41.2746C21.6268 41.2907 21.7455 41.2796 21.857 41.2421C21.9686 41.2046 22.0699 41.1417 22.1532 41.0584C22.2365 40.9751 22.2994 40.8737 22.3371 40.7619C22.3747 40.6502 22.3861 40.5313 22.3703 40.4145C20.556 26.8471 35.4132 27.4348 39.5013 33.5578C39.7074 33.8717 39.8907 34.2001 40.0496 34.5405C42.7098 40.0122 46.0948 56.7048 38.599 58.7377V58.737Z" fill="#FEC3BD"/>
<path d="M32.6866 45.5132C33.1572 45.4915 33.5124 44.8983 33.4801 44.1886C33.4478 43.4782 33.04 42.9197 32.5695 42.9414C32.099 42.9631 31.7437 43.5563 31.776 44.2667C31.8084 44.9772 32.216 45.5349 32.6866 45.5132Z" fill="#06112D"/>
<path d="M31.331 42.304C31.2848 42.3038 31.2399 42.2892 31.2023 42.2623C31.1647 42.2354 31.1364 42.1975 31.1212 42.1539C31.1059 42.1102 31.1046 42.0628 31.1173 42.0183C31.13 41.9738 31.1562 41.9344 31.1922 41.9054C32.8402 40.5844 33.8751 41.4894 33.9182 41.5292C33.9622 41.5689 33.9888 41.6244 33.9921 41.6837C33.9954 41.7429 33.9751 41.8011 33.9358 41.8454C33.8964 41.8894 33.8411 41.9159 33.7822 41.9192C33.7233 41.9224 33.6656 41.9021 33.6216 41.8627C33.586 41.8316 32.8069 41.1827 31.4693 42.2556C31.4301 42.2868 31.3811 42.3039 31.331 42.304Z" fill="#06112D"/>
<path d="M39.896 45.5132C40.3665 45.4915 40.7218 44.8983 40.6895 44.1886C40.6571 43.4782 40.2494 42.9197 39.7789 42.9414C39.3083 42.9631 38.9531 43.5563 38.9854 44.2667C39.0177 44.9772 39.4254 45.5349 39.896 45.5132Z" fill="#06112D"/>
<path d="M38.5417 42.304C38.4956 42.3038 38.4506 42.2892 38.4131 42.2623C38.3755 42.2354 38.3472 42.1975 38.332 42.1538C38.3168 42.1101 38.3154 42.0628 38.3281 42.0183C38.3409 41.9738 38.367 41.9344 38.403 41.9054C40.0511 40.5844 41.0854 41.4894 41.129 41.5292C41.1513 41.5487 41.1695 41.5723 41.1826 41.5989C41.1957 41.6254 41.2034 41.6543 41.2053 41.6838C41.2072 41.7134 41.2032 41.743 41.1935 41.771C41.1839 41.799 41.1688 41.8248 41.1491 41.8469C41.1294 41.869 41.1056 41.8869 41.0789 41.8997C41.0523 41.9125 41.0233 41.9198 40.9938 41.9213C40.9643 41.9228 40.9348 41.9183 40.907 41.9083C40.8792 41.8982 40.8537 41.8828 40.832 41.8627C40.7964 41.8316 40.0177 41.1827 38.6796 42.2556C38.6404 42.2868 38.5918 42.3039 38.5417 42.304Z" fill="#06112D"/>
<path d="M37.6993 50.9477C37.6541 50.9475 37.6101 50.9336 37.573 50.908C37.5358 50.8823 37.5073 50.8459 37.4911 50.8037C37.4751 50.7612 37.4723 50.7148 37.4831 50.6706C37.4938 50.6266 37.5177 50.5869 37.5517 50.557C37.67 50.4545 37.7662 50.3288 37.8341 50.1875C37.902 50.0463 37.9403 49.8926 37.9466 49.7359C37.9502 49.5844 37.9227 49.4338 37.8657 49.2934C37.8088 49.1531 37.7237 49.0259 37.6157 48.9199C37.5099 48.8182 37.3974 48.7237 37.2791 48.637C37.1972 48.5741 37.1154 48.5111 37.038 48.4453C36.4806 47.9561 36.1074 47.2902 35.9805 46.5586C35.8797 45.8968 35.8631 45.2249 35.9312 44.559C35.9325 44.5294 35.9396 44.5004 35.9523 44.4736C35.965 44.4468 35.9827 44.4228 36.0046 44.4027C36.0267 44.3831 36.0523 44.3679 36.08 44.3579C36.108 44.3484 36.1374 44.3442 36.1669 44.3456C36.1963 44.3478 36.2251 44.3557 36.2516 44.3687C36.2781 44.3817 36.3017 44.3999 36.321 44.4223C36.3404 44.4447 36.3552 44.4708 36.3644 44.499C36.3737 44.5272 36.3773 44.5569 36.3749 44.5865C36.3103 45.2149 36.3244 45.849 36.4167 46.4739C36.5249 47.1055 36.8459 47.6808 37.3262 48.1038C37.3982 48.1653 37.4738 48.2239 37.5494 48.2825C37.6835 48.3809 37.8108 48.4882 37.9305 48.6037C38.0815 48.7528 38.2004 48.9314 38.2796 49.1284C38.3589 49.3254 38.3969 49.5366 38.3912 49.7489C38.3835 49.9665 38.3312 50.1802 38.2377 50.3767C38.1441 50.5732 38.0113 50.7483 37.8474 50.8912C37.8067 50.9275 37.7537 50.9476 37.6993 50.9477ZM35.5718 54.5099C35.0209 54.5049 34.4794 54.3663 33.9935 54.1061C33.5076 53.8458 33.0917 53.4716 32.7814 53.0153C32.7635 52.9912 32.7507 52.9636 32.744 52.9342C32.7371 52.9049 32.7362 52.8744 32.7414 52.8447C32.7466 52.815 32.7577 52.7866 32.7741 52.7613C32.7906 52.736 32.8118 52.7141 32.8367 52.697C32.8617 52.6803 32.8898 52.6687 32.9193 52.663C32.9488 52.6576 32.9791 52.6581 33.0084 52.6644C33.0378 52.6708 33.0656 52.6834 33.0898 52.7013C33.1144 52.7188 33.135 52.7412 33.1505 52.7671C33.429 53.1771 33.8058 53.5104 34.2463 53.7364C34.6868 53.9624 35.1768 54.0739 35.6715 54.0606C35.7008 54.0594 35.73 54.0641 35.7574 54.0744C35.7848 54.0848 35.8098 54.1005 35.8311 54.1207C35.8743 54.1611 35.8998 54.217 35.902 54.2762C35.9031 54.3055 35.8985 54.3348 35.8883 54.3623C35.878 54.3899 35.8626 54.4152 35.8427 54.4368C35.8229 54.4584 35.799 54.4759 35.7724 54.4882C35.7458 54.5003 35.7171 54.5072 35.6879 54.5084C35.6494 54.5092 35.6104 54.5099 35.5718 54.5099Z" fill="#F18B89"/>
<path d="M47.7853 105.682L45.5325 117.897L34.0567 118.361L14.2909 119.166C14.4866 113.839 14.6649 107.269 14.4603 104.923C14.0165 99.8202 12.0278 92.3833 10.9183 85.3804L19.6388 75.1735C21.026 77.9124 22.1538 80.7758 23.0073 83.7259C23.878 87.354 24.4873 99.8723 24.4873 99.8723L47.7853 105.682Z" fill="#1C5AB5"/>
<path d="M46.1136 108.175C46.1136 108.175 53.7187 102.663 54.9962 103.481C56.2572 104.292 52.9269 108.29 52.9269 108.29" fill="#FEC3BD"/>
<path d="M56.4145 99.3608H57.6531L53.9677 120.28H52.7291C52.4949 120.288 52.262 120.241 52.0485 120.144C51.8351 120.048 51.6467 119.903 51.4981 119.721C51.3495 119.539 51.2447 119.326 51.1917 119.097C51.1387 118.868 51.1391 118.63 51.1927 118.402L54.216 101.243C54.3174 100.727 54.5897 100.261 54.9887 99.9189C55.3877 99.5773 55.8901 99.3806 56.4145 99.3608Z" fill="#06112D"/>
<path d="M55.3925 101.243L52.3697 118.402C52.3161 118.63 52.3157 118.868 52.3686 119.097C52.4216 119.326 52.5264 119.539 52.6749 119.721C52.8234 119.903 53.0117 120.048 53.2252 120.144C53.4386 120.241 53.6714 120.288 53.9056 120.28H63.5674C64.0912 120.26 64.5931 120.064 64.9919 119.724C65.3908 119.383 65.6632 118.917 65.7652 118.402L68.788 101.243C68.8422 101.014 68.8429 100.776 68.7903 100.547C68.7377 100.318 68.6331 100.104 68.4846 99.9218C68.3361 99.7398 68.1477 99.5944 67.9341 99.4971C67.7204 99.3999 67.4873 99.3533 67.2528 99.3609H57.5918C57.0672 99.3806 56.5647 99.5771 56.1655 99.9188C55.7664 100.26 55.494 100.727 55.3925 101.243Z" fill="#0E1738"/>
<path d="M52.9276 108.292C53.8255 108.189 60.5042 107.435 60.0588 109.116C59.8979 109.728 58.5756 110.429 57.9851 110.577C59.8069 110.629 62.3902 111.191 62.2184 112.028C61.9795 113.192 59.7672 113.073 58.9964 112.996C59.7802 113.103 62.0278 113.506 61.5616 114.596C61.2779 115.259 58.5712 115.456 57.7195 115.484C58.3388 115.689 60.6925 116.23 59.6315 117.322C58.2659 118.729 44.8111 116.691 44.8111 116.691L46.114 108.177" fill="#FEC3BD"/>
<path d="M8.25371 112.68C12.6059 117.018 45.5346 117.895 45.5346 117.895L47.7857 105.681L22.174 100.881C22.174 100.881 22.4083 84.1202 21.0743 78.7928C20.51 76.5556 19.3609 74.5096 17.7454 72.8655C16.13 71.2213 14.1065 70.0385 11.8833 69.4387C11.2932 70.1267 8.3951 73.4307 7.35011 77.589C4.50579 88.9057 3.95081 108.389 8.25371 112.679V112.68Z" fill="#3A6DC9"/>
<path d="M81.6985 130.95C79.7339 130.613 71.0956 122.47 71.0956 122.47L75.3757 115.494C75.3757 115.494 84.2472 116.487 84.8708 117.908C85.4843 119.315 81.0922 119.471 81.0922 119.471C81.9122 119.895 88.004 123.057 86.6796 124.23C86.1996 124.658 84.6817 124.5 84.0977 124.288C85.6149 125.37 87.4901 127.318 86.8737 127.93C86.0155 128.782 84.2053 127.422 83.5947 126.917C84.1995 127.454 85.8805 129.076 84.8708 129.735C84.2573 130.137 82.748 129.01 82.0096 128.549C82.4203 129.075 82.9783 131.172 81.6985 130.95Z" fill="#FEC3BD"/>
<path d="M53.5794 155.135H36.7244L35.9805 150.434L31.3805 121.328L52.7133 120.61L53.5794 155.135Z" fill="#11153A"/>
<path d="M40.6498 121.329L35.9805 150.436L31.3805 121.329H40.6498Z" fill="#070D2B"/>
<path d="M33.0494 155.136L38.4724 121.332H14.5146V155.136H33.0494Z" fill="#11153A"/>
<path d="M77.1953 114.904L71.647 123.986L47.7856 109.822L43.7256 99.5577L36.6149 81.5824L47.7856 67.8162C50.7971 70.9675 55.1926 85.3197 61.0939 97.1725L77.1953 114.904Z" fill="#3A6DC9"/>
<path d="M71.6485 123.986L47.787 109.822L43.7269 99.5577C45.4937 93.951 50.7984 79.4106 50.7984 79.4106L57.6531 104.434L71.6485 123.986Z" fill="#1C5AB5"/>
<path d="M14.2915 119.166C14.4877 113.84 14.6659 107.27 14.4614 104.923C14.0176 99.8203 12.0289 92.384 10.9194 85.3805C9.9055 79.0164 9.62227 73.0118 11.8853 69.4402C13.9829 66.1262 24.9668 64.0253 24.9668 64.0253L37.352 63.2816C37.352 63.2816 45.9022 65.1886 47.7864 67.8147C51.8776 73.5045 51.5565 95.973 51.5565 95.973C51.5565 95.973 53.3491 123.035 53.5801 126.441H13.9833C14.0314 125.5 14.1661 122.589 14.2924 119.166H14.2915Z" fill="#3A6DC9"/>
<path d="M34.7254 69.6926C29.5603 69.4669 24.9732 64.1851 24.9661 64.026C24.7748 60.2257 23.8993 51.4548 23.0379 48.739C22.9943 48.6045 22.9886 48.4605 23.0213 48.3229C23.0541 48.1853 23.124 48.0594 23.2234 47.959C23.3228 47.8587 23.4479 47.7877 23.585 47.7539C23.722 47.7201 23.8657 47.7248 24.0002 47.7674L36.6865 51.7449C36.8746 51.8049 37.0327 51.935 37.1279 52.1084C37.2231 52.2818 37.2483 52.4852 37.1983 52.6767C37.0441 53.283 36.9262 53.8981 36.8452 54.5185C36.8178 54.7334 36.7938 54.9485 36.7732 55.1639C36.6405 56.7257 36.7022 58.298 36.9568 59.8445C36.9999 60.1093 37.0542 60.5701 37.1192 61.0997V61.1033C37.2739 62.4633 37.3281 63.2758 37.3859 63.4754C37.4149 63.5731 37.6439 69.8207 34.7254 69.6926Z" fill="#FEC3BD"/>
<path d="M37.1175 61.0997V61.1033C37.1175 61.1033 30.0886 58.4982 28.8474 56.2592C27.2096 53.3046 35.7438 54.7363 35.7438 54.7363C35.7438 54.7363 36.1907 54.9208 36.771 55.1646C36.6387 56.7264 36.7006 58.2987 36.9551 59.8452C36.9983 60.11 37.0525 60.5701 37.1175 61.0997Z" fill="#F18B89"/>
<path d="M38.599 58.737C31.6217 60.6288 25.3916 53.5622 23.6862 50.6215V50.6178C23.4683 50.2431 23.2644 49.8604 23.0743 49.4697C23.0158 49.3482 22.926 49.2446 22.8141 49.1695C21.9128 48.5626 17.8304 45.6341 18.8554 43.0362C19.5248 41.3448 20.6681 41.1444 21.5103 41.2746C21.6268 41.2907 21.7455 41.2796 21.857 41.2421C21.9686 41.2046 22.0699 41.1417 22.1532 41.0584C22.2365 40.9751 22.2994 40.8737 22.3371 40.7619C22.3747 40.6502 22.3861 40.5313 22.3703 40.4145C20.556 26.8471 35.4132 27.4348 39.5013 33.5578C39.7074 33.8717 39.8907 34.2001 40.0496 34.5405C42.7098 40.0122 46.0948 56.7048 38.599 58.7377V58.737Z" fill="#FEC3BD"/>
<path d="M39.4647 44.6118L42.0082 48.3122L40.0773 49.3033L39.4647 44.6118Z" fill="#FC9B88"/>
<path d="M47.7853 105.682L45.5325 117.897L34.0567 118.361L14.2909 119.166C14.4866 113.839 14.6649 107.269 14.4603 104.923C14.0165 99.8202 12.0278 92.3833 10.9183 85.3804L19.6388 75.1735C21.026 77.9124 22.1538 80.7758 23.0073 83.7259C23.878 87.354 24.4873 99.8723 24.4873 99.8723L47.7853 105.682Z" fill="#1C5AB5"/>
<path d="M46.1136 108.175C46.1136 108.175 53.7187 102.663 54.9962 103.481C56.2572 104.292 52.9269 108.29 52.9269 108.29" fill="#FEC3BD"/>
<path d="M56.4145 99.3608H57.6531L53.9677 120.28H52.7291C52.4949 120.288 52.262 120.241 52.0485 120.144C51.8351 120.048 51.6467 119.903 51.4981 119.721C51.3495 119.539 51.2447 119.326 51.1917 119.097C51.1387 118.868 51.1391 118.63 51.1927 118.402L54.216 101.243C54.3174 100.727 54.5897 100.261 54.9887 99.9189C55.3877 99.5773 55.8901 99.3806 56.4145 99.3608Z" fill="#06112D"/>
<path d="M55.3925 101.243L52.3697 118.402C52.3161 118.63 52.3157 118.868 52.3686 119.097C52.4216 119.326 52.5264 119.539 52.6749 119.721C52.8234 119.903 53.0117 120.048 53.2252 120.144C53.4386 120.241 53.6714 120.288 53.9056 120.28H63.5674C64.0912 120.26 64.5931 120.064 64.9919 119.724C65.3908 119.383 65.6632 118.917 65.7652 118.402L68.788 101.243C68.8422 101.014 68.8429 100.776 68.7903 100.547C68.7377 100.318 68.6331 100.104 68.4846 99.9218C68.3361 99.7398 68.1477 99.5944 67.9341 99.4971C67.7204 99.3999 67.4873 99.3533 67.2528 99.3609H57.5918C57.0672 99.3806 56.5647 99.5771 56.1655 99.9188C55.7664 100.26 55.494 100.727 55.3925 101.243Z" fill="#0E1738"/>
<path d="M52.9276 108.292C53.8255 108.189 60.5042 107.435 60.0588 109.116C59.8979 109.728 58.5756 110.429 57.9851 110.577C59.8069 110.629 62.3902 111.191 62.2184 112.028C61.9795 113.192 59.7672 113.073 58.9964 112.996C59.7802 113.103 62.0278 113.506 61.5616 114.596C61.2779 115.259 58.5712 115.456 57.7195 115.484C58.3388 115.689 60.6925 116.23 59.6315 117.322C58.2659 118.729 44.8111 116.691 44.8111 116.691L46.114 108.177" fill="#FEC3BD"/>
<path d="M8.25371 112.68C12.6059 117.018 45.5346 117.895 45.5346 117.895L47.7857 105.681L22.174 100.881C22.174 100.881 22.4083 84.1202 21.0743 78.7928C20.51 76.5556 19.3609 74.5096 17.7454 72.8655C16.13 71.2213 14.1065 70.0385 11.8833 69.4387C11.2932 70.1267 8.3951 73.4307 7.35011 77.589C4.50579 88.9057 3.95081 108.389 8.25371 112.679V112.68Z" fill="#3A6DC9"/>
<path d="M190.495 42.4828C190.501 44.1977 190.114 45.891 189.364 47.4322C188.614 48.9735 187.52 50.3215 186.168 51.3723C184.816 52.4231 183.241 53.1487 181.565 53.4932C179.889 53.8376 178.156 53.7917 176.501 53.359L170.193 55.1567L170.476 49.3446C169.382 47.9348 168.64 46.2834 168.312 44.5281C167.984 42.7728 168.078 40.9642 168.588 39.2529C169.098 37.5417 170.008 35.9772 171.243 34.6898C172.478 33.4023 174.002 32.4292 175.688 31.8513C177.374 31.2734 179.173 31.1075 180.936 31.3674C182.699 31.6273 184.374 32.3055 185.823 33.3455C187.271 34.3856 188.451 35.7573 189.264 37.3466C190.077 38.936 190.499 40.6969 190.495 42.4828Z" fill="#FCC283"/>
<path d="M173.799 127.236C175.631 127.243 177.424 126.704 178.951 125.688C180.478 124.672 181.67 123.225 182.375 121.53C183.081 119.835 183.269 117.968 182.915 116.166C182.562 114.363 181.682 112.707 180.389 111.406C179.095 110.105 177.446 109.218 175.649 108.857C173.852 108.497 171.988 108.678 170.295 109.38C168.601 110.081 167.153 111.271 166.134 112.798C165.116 114.325 164.572 116.12 164.572 117.957C164.568 120.414 165.538 122.771 167.268 124.512C168.998 126.252 171.347 127.232 173.799 127.236Z" fill="#F9DAE0"/>
<path d="M173.798 124.535C172.499 124.539 171.228 124.157 170.145 123.437C169.063 122.717 168.218 121.691 167.718 120.49C167.218 119.288 167.085 117.965 167.336 116.687C167.586 115.41 168.21 114.236 169.127 113.313C170.044 112.391 171.213 111.762 172.487 111.507C173.76 111.251 175.081 111.38 176.282 111.877C177.482 112.374 178.509 113.218 179.231 114.3C179.953 115.382 180.339 116.655 180.339 117.957C180.34 119.698 179.652 121.368 178.425 122.602C177.199 123.835 175.535 124.53 173.798 124.535ZM173.798 111.826C172.587 111.822 171.402 112.178 170.394 112.849C169.385 113.52 168.598 114.476 168.131 115.596C167.665 116.716 167.541 117.949 167.775 119.14C168.008 120.331 168.589 121.425 169.444 122.285C170.299 123.144 171.389 123.73 172.576 123.969C173.763 124.207 174.994 124.087 176.113 123.623C177.232 123.16 178.188 122.374 178.862 121.365C179.535 120.357 179.894 119.17 179.894 117.957C179.895 116.334 179.254 114.777 178.111 113.628C176.968 112.478 175.417 111.83 173.798 111.826Z" fill="white"/>
<path d="M173.8 124.536C171.767 124.536 170.113 121.586 170.113 117.958C170.113 114.331 171.767 111.38 173.8 111.38C175.832 111.38 177.486 114.331 177.486 117.958C177.486 121.586 175.833 124.536 173.8 124.536ZM173.8 111.827C172.012 111.827 170.558 114.578 170.558 117.958C170.558 121.338 172.012 124.089 173.8 124.089C175.588 124.089 177.041 121.338 177.041 117.958C177.041 114.578 175.588 111.827 173.8 111.827Z" fill="white"/>
<path d="M173.577 111.603H174.022V124.312H173.577V111.603Z" fill="white"/>
<path d="M167.662 116.072H179.898V116.519H167.662V116.072ZM167.662 119.396H179.898V119.843H167.662V119.396Z" fill="white"/>
<path d="M57.6863 26.7658C59.2121 26.7712 60.7052 26.3226 61.9764 25.4768C63.2477 24.6311 64.2399 23.4263 64.8275 22.0149C65.4151 20.6035 65.5717 19.0492 65.2773 17.5486C64.9829 16.048 64.2508 14.6687 63.1738 13.5855C62.0968 12.5022 60.7232 11.7636 59.2271 11.4633C57.731 11.163 56.1797 11.3144 54.7695 11.8984C53.3593 12.4824 52.1538 13.4727 51.3055 14.7439C50.4573 16.0152 50.0045 17.5101 50.0045 19.0394C50.0011 21.0849 50.8085 23.0481 52.2491 24.497C53.6896 25.946 55.6455 26.7621 57.6863 26.7658Z" fill="#FE6081"/>
<path d="M57.6856 18.0899C58.0205 18.0911 58.3482 17.9927 58.6272 17.8072C58.9062 17.6216 59.124 17.3573 59.253 17.0476C59.382 16.7378 59.4164 16.3967 59.3519 16.0674C59.2873 15.7381 59.1267 15.4353 58.8904 15.1976C58.654 14.9598 58.3526 14.7977 58.0243 14.7318C57.6959 14.6658 57.3555 14.699 57.046 14.8272C56.7365 14.9554 56.4719 15.1727 56.2858 15.4517C56.0996 15.7306 56.0002 16.0587 56.0002 16.3943C55.9995 16.8432 56.1767 17.2739 56.4927 17.5918C56.8087 17.9098 57.2378 18.0889 57.6856 18.0899Z" fill="white"/>
<path d="M61.9448 23.3797C61.9321 22.2561 61.4779 21.1829 60.6807 20.393C59.8835 19.603 58.8077 19.1599 57.6867 19.1599C56.5657 19.1599 55.4898 19.603 54.6927 20.393C53.8955 21.1829 53.4413 22.2561 53.4285 23.3797H61.9448Z" fill="white"/>
<path d="M173.78 89.2906C175.306 89.2959 176.799 88.8472 178.07 88.0015C179.342 87.1557 180.334 85.9509 180.921 84.5396C181.509 83.1282 181.665 81.5739 181.371 80.0733C181.077 78.5728 180.345 77.1936 179.268 76.1104C178.191 75.0271 176.817 74.2886 175.321 73.9883C173.825 73.688 172.274 73.8395 170.863 74.4235C169.453 75.0075 168.248 75.9978 167.4 77.2689C166.551 78.5401 166.099 80.035 166.099 81.5642C166.097 82.5771 166.294 83.5805 166.679 84.5169C167.064 85.4534 167.63 86.3046 168.343 87.0221C169.056 87.7396 169.904 88.3092 170.837 88.6984C171.77 89.0876 172.77 89.2888 173.78 89.2906Z" fill="#47ADF7"/>
<path d="M173.781 80.6158C174.116 80.6169 174.444 80.5184 174.722 80.3328C175.001 80.1472 175.219 79.8828 175.348 79.5731C175.477 79.2634 175.511 78.9224 175.446 78.5932C175.382 78.264 175.221 77.9614 174.985 77.7237C174.748 77.4861 174.447 77.324 174.119 77.2581C173.791 77.1922 173.45 77.2254 173.141 77.3535C172.831 77.4816 172.567 77.6989 172.381 77.9777C172.195 78.2566 172.095 78.5846 172.095 78.9201C172.095 79.1424 172.138 79.3626 172.223 79.5682C172.307 79.7737 172.431 79.9606 172.588 80.118C172.744 80.2755 172.93 80.4005 173.135 80.4859C173.34 80.5713 173.559 80.6155 173.781 80.6158Z" fill="white"/>
<path d="M178.04 85.9035C178.027 84.7799 177.573 83.7064 176.776 82.9162C175.979 82.1261 174.903 81.6829 173.782 81.6829C172.661 81.6829 171.585 82.1261 170.788 82.9162C169.991 83.7064 169.537 84.7799 169.524 85.9035H178.04Z" fill="white"/>
<path d="M174.078 20.5886C175.48 20.5934 176.852 20.1811 178.021 19.4038C179.189 18.6264 180.101 17.5191 180.641 16.2219C181.181 14.9248 181.325 13.4962 181.054 12.1171C180.783 10.738 180.111 9.47037 179.121 8.47479C178.131 7.47922 176.869 6.80046 175.494 6.52448C174.119 6.24849 172.693 6.38769 171.397 6.92445C170.101 7.4612 168.993 8.37138 168.213 9.5397C167.434 10.708 167.017 12.0819 167.017 13.4875C167.016 14.4184 167.197 15.3405 167.551 16.2012C167.905 17.0619 168.425 17.8443 169.08 18.5037C169.736 19.1631 170.515 19.6866 171.372 20.0444C172.23 20.4021 173.149 20.587 174.078 20.5886Z" fill="#37C092"/>
<path d="M174.076 12.6149C174.384 12.6159 174.685 12.5253 174.942 12.3547C175.198 12.1841 175.398 11.9411 175.516 11.6564C175.635 11.3718 175.666 11.0583 175.607 10.7557C175.548 10.4531 175.4 10.1749 175.183 9.9565C174.965 9.73806 174.688 9.58915 174.387 9.52861C174.085 9.46807 173.772 9.49863 173.488 9.61642C173.203 9.73421 172.96 9.93394 172.789 10.1903C172.618 10.4467 172.527 10.7482 172.527 11.0566C172.526 11.2609 172.566 11.4633 172.644 11.6522C172.722 11.8411 172.836 12.0128 172.98 12.1575C173.123 12.3022 173.294 12.417 173.483 12.4955C173.671 12.574 173.873 12.6146 174.076 12.6149Z" fill="white"/>
<path d="M177.991 17.4756C177.979 16.4429 177.562 15.4564 176.829 14.7301C176.097 14.0039 175.108 13.5966 174.077 13.5966C173.047 13.5966 172.058 14.0039 171.326 14.7301C170.593 15.4564 170.176 16.4429 170.164 17.4756H177.991ZM186.1 47.1562H173.04C172.981 47.156 172.924 47.1323 172.883 47.0904C172.841 47.0485 172.818 46.9918 172.818 46.9326V37.9975C172.818 37.9383 172.841 37.8815 172.883 37.8396C172.924 37.7977 172.981 37.7741 173.04 37.7739H186.1C186.129 37.774 186.158 37.7798 186.185 37.7911C186.212 37.8024 186.237 37.8189 186.257 37.8397C186.299 37.8818 186.322 37.9384 186.322 37.9975V46.9326C186.322 46.9917 186.299 47.0483 186.257 47.0903C186.237 47.1111 186.212 47.1277 186.185 47.139C186.158 47.1503 186.129 47.1561 186.1 47.1562ZM173.262 46.7084H185.878V38.2217H173.262V46.7084Z" fill="white"/>
<path d="M179.573 43.8002C179.521 43.8003 179.47 43.7813 179.43 43.7467L172.897 38.1711C172.862 38.1416 172.837 38.102 172.826 38.0577C172.814 38.0134 172.816 37.9667 172.832 37.9237C172.848 37.8807 172.876 37.8435 172.914 37.8174C172.951 37.7911 172.996 37.777 173.041 37.7769H186.096C186.142 37.7773 186.186 37.7917 186.223 37.8181C186.259 37.8443 186.288 37.8812 186.303 37.9237C186.319 37.9663 186.321 38.0128 186.31 38.0568C186.299 38.1011 186.274 38.1408 186.24 38.1704L179.717 43.7474C179.677 43.7814 179.626 43.8001 179.573 43.8002ZM173.647 38.2247L179.573 43.2829L185.491 38.2247H173.647Z" fill="white"/>
<path d="M186.096 47.1612H173.041C172.995 47.1616 172.95 47.1477 172.913 47.1215C172.885 47.1018 172.862 47.0759 172.845 47.0459C172.829 47.0159 172.819 46.9825 172.818 46.9483C172.816 46.9141 172.823 46.8799 172.836 46.8485C172.85 46.8171 172.87 46.7892 172.896 46.767L178.12 42.2896C178.16 42.2551 178.211 42.2361 178.264 42.2361C178.317 42.2361 178.368 42.2551 178.409 42.2896L179.573 43.2836L180.728 42.299C180.768 42.2645 180.819 42.2455 180.872 42.2455C180.925 42.2455 180.976 42.2645 181.016 42.299L186.24 46.767C186.274 46.7967 186.299 46.8363 186.311 46.8806C186.321 46.9248 186.319 46.9714 186.304 47.0144C186.288 47.0571 186.26 47.094 186.223 47.12C186.186 47.1468 186.141 47.1612 186.096 47.1612ZM173.644 46.7142H185.491L180.871 42.7627L179.716 43.7473C179.676 43.7814 179.625 43.8002 179.573 43.8002C179.52 43.8002 179.469 43.7814 179.429 43.7473L178.265 42.7533L173.644 46.7142Z" fill="white"/>
<path d="M16.7672 48.6002C17.1059 49.3332 17.5929 49.9878 18.1971 50.5224C18.8014 51.057 19.5099 51.46 20.2776 51.7059C21.9004 52.2731 23.3259 53.2533 24.9487 52.6803L24.7773 52.3997C24.7132 51.1716 24.539 49.9518 24.2567 48.755C24.2176 48.4145 24.1329 48.0809 24.0048 47.7631C23.4909 47.6946 22.9967 47.5199 22.5535 47.2501C22.1104 46.9802 21.728 46.6211 21.4305 46.1955C20.323 44.703 20.3152 42.8199 21.4227 41.9966C21.7568 41.7674 22.1459 41.6316 22.5498 41.6034C22.9538 41.5752 23.3579 41.6555 23.7205 41.836C23.7205 41.836 25.5822 42.8235 25.4563 44.5221L26.7312 45.0141L27.4569 41.9496C27.4569 41.9496 29.6288 40.4832 28.6941 38.7303C28.6941 38.7303 44.5327 43.6229 44.9857 36.6121C45.4388 29.6009 38.0921 31.6685 38.0921 31.6685C38.5469 30.9562 38.9329 30.2019 39.2449 29.4161C40.2303 26.9281 40.5574 23.4175 33.7638 24.6576C31.0934 25.1196 28.6066 26.3251 26.5873 28.1364C24.5681 29.9477 23.0978 32.2917 22.3445 34.9007C21.8228 34.7638 21.2761 34.7533 20.7496 34.8703C20.2231 34.9872 19.732 35.2282 19.3169 35.5732C18.8287 36.0349 18.5227 36.6574 18.455 37.3267C18.3873 37.996 18.5624 38.6674 18.9483 39.2179C18.6698 38.8874 18.2803 38.6704 17.8533 38.6076C17.4262 38.5449 16.991 38.6407 16.6296 38.8772C16.2789 39.1291 15.9884 39.4558 15.7789 39.8339C15.5695 40.2119 15.4463 40.6319 15.4183 41.0634C15.3429 41.8506 15.477 42.6439 15.807 43.3623C16.137 44.0806 16.6511 44.6985 17.2969 45.153C16.0635 46.1875 16.1596 47.1113 16.7672 48.6002Z" fill="black"/>
</svg>
