<svg width="200" height="167" viewBox="0 0 200 167" fill="none" xmlns="http://www.w3.org/2000/svg">
<g opacity="0.75">
<path d="M187.012 151.724H171.152V151.844H187.012V151.724Z" fill="#EBEBEB"/>
<path d="M130.184 153.023H126.022V153.143H130.184V153.023Z" fill="#EBEBEB"/>
<path d="M170.672 147.277H161.483V147.397H170.672V147.277Z" fill="#EBEBEB"/>
<path d="M17.3902 148.082H-3.29156V148.202H17.3902V148.082Z" fill="#EBEBEB"/>
<path d="M24.6863 148.082H21.654V148.202H24.6863V148.082Z" fill="#EBEBEB"/>
<path d="M79.3946 150.104H34.5403V150.224H79.3946V150.104Z" fill="#EBEBEB"/>
<path d="M13.035 75.0613C8.46407 102.026 14.9101 129.967 14.9101 129.967C70.4919 129.954 125.663 129.941 181.245 129.928C182.862 111.483 183.993 92.5273 179.711 74.6732C181.338 72.7603 181.092 69.1575 179.226 67.5717C177.36 65.9846 174.35 66.8186 173.293 69.216C172.791 68.2047 171.966 67.3895 170.949 66.8995C169.931 66.4094 168.78 66.2724 167.676 66.5102C165.571 67.0769 163.875 69.3072 163.64 71.8158C162.607 69.3105 160.107 67.7523 157.751 68.1449C155.394 68.5375 153.366 70.8494 152.973 73.5918C152.641 73.0312 152.18 72.5577 151.629 72.2104C151.077 71.8631 150.451 71.6519 149.802 71.5942C149.153 71.5366 148.5 71.6342 147.896 71.879C147.292 72.1238 146.755 72.5087 146.329 73.002C145.336 70.1104 142.47 68.2824 139.852 68.8703C137.233 69.4576 135.151 72.3967 135.146 75.5118C134.549 72.8362 130.776 72.3215 129.668 74.7645C129.418 71.9636 127.047 69.6632 124.645 69.89C122.242 70.1175 120.219 72.8349 120.359 75.6461C119.432 74.7202 118.325 73.9951 117.105 73.5162C115.886 73.0372 114.581 72.8145 113.272 72.8621C111.962 72.9097 110.677 73.2264 109.496 73.7926C108.314 74.3588 107.262 75.1623 106.405 76.153C103.81 73.7582 99.5208 74.5396 97.6728 77.7434C97.0387 77.0121 96.2665 76.4131 95.4005 75.9808C94.5345 75.5485 93.5916 75.2913 92.6261 75.224C91.6605 75.1567 90.6911 75.2807 89.7735 75.5887C88.8559 75.8968 88.0081 76.3829 87.2788 77.0192C80.37 73.0649 71.3138 75.107 66.1605 81.7812C66.8294 79.3427 64.5374 75.3768 62.503 74.4246C55.2357 71.0254 51.6947 76.3188 51.6074 78.339C50.8859 77.1595 49.8373 76.2151 48.589 75.6204C47.3408 75.0257 45.9467 74.8065 44.5762 74.9894C41.9493 75.4437 39.6019 77.6676 38.678 80.5764C39.2908 75.8658 36.564 70.8725 32.6492 69.5366C28.7558 68.2078 24.2345 70.6515 22.5277 74.9335C23.3911 72.1486 20.7348 68.1326 18.2305 68.2406C14.7409 68.3916 13.5748 71.8781 13.035 75.0613Z" fill="#F5F5F5"/>
<path d="M211 144.017H-28.4103V144.136H211V144.017Z" fill="#EBEBEB"/>
<path d="M124.898 68.5388C124.856 68.7039 124.767 68.9012 124.597 68.9018C124.433 68.9018 124.341 68.7155 124.299 68.5561C124.045 67.5677 124.193 66.5189 124.711 65.6396C125.191 64.8351 125.201 66.1709 125.194 66.4151C125.173 67.1317 125.074 67.8439 124.898 68.5388Z" fill="#E0E0E0"/>
<path d="M120.418 130.821H122.111V105.853H120.418V130.821Z" fill="#E0E0E0"/>
<path d="M115.452 105.853H134.908V105.2C134.908 104.564 134.656 103.955 134.206 103.506C133.757 103.056 133.147 102.804 132.512 102.804H115.451L115.452 105.853Z" fill="#E0E0E0"/>
<path d="M131.3 130.821H132.994V105.853H131.3V130.821Z" fill="#E0E0E0"/>
<path d="M124.969 124.973L122.468 124.717L122.557 130.662L125.059 130.917L124.969 124.973Z" fill="#FAFAFA"/>
<path d="M121.973 130.472C121.235 130.903 121.528 132.465 120.439 132.445C119.98 132.439 118.961 133.972 120.002 134.179C121.104 134.342 122.214 134.439 123.328 134.466C123.415 134.472 123.503 134.472 123.59 134.466C124.137 134.41 124.64 134.144 124.995 133.725C125.351 133.306 125.53 132.765 125.496 132.217L125.435 130.707C125.43 130.663 125.409 130.622 125.375 130.593C125.341 130.564 125.297 130.548 125.252 130.551L122.414 130.381C122.261 130.369 122.108 130.4 121.973 130.472Z" fill="#E0E0E0"/>
<path d="M121.761 131.538C121.98 131.601 122.205 131.639 122.432 131.653C122.439 131.653 122.447 131.653 122.454 131.65C122.462 131.648 122.468 131.644 122.474 131.639C122.48 131.634 122.485 131.628 122.488 131.621C122.492 131.615 122.494 131.607 122.494 131.6C122.495 131.592 122.494 131.585 122.492 131.578C122.49 131.571 122.486 131.564 122.481 131.558C122.422 131.481 121.886 130.792 121.553 130.822C121.515 130.825 121.479 130.837 121.447 130.858C121.415 130.879 121.389 130.907 121.372 130.941C121.339 130.988 121.319 131.043 121.314 131.1C121.31 131.158 121.32 131.215 121.345 131.267C121.444 131.407 121.593 131.503 121.761 131.538ZM122.301 131.523C121.842 131.474 121.518 131.358 121.451 131.214C121.435 131.18 121.429 131.142 121.433 131.104C121.437 131.067 121.45 131.031 121.472 131C121.48 130.983 121.492 130.969 121.508 130.959C121.523 130.948 121.541 130.942 121.559 130.94C121.737 130.927 122.077 131.256 122.301 131.523Z" fill="#FAFAFA"/>
<path d="M123.403 131.341C123.433 131.292 123.449 131.236 123.45 131.178C123.451 131.12 123.437 131.064 123.409 131.013C123.394 130.978 123.371 130.947 123.342 130.924C123.312 130.9 123.277 130.884 123.24 130.877C122.912 130.815 122.311 131.449 122.244 131.52C122.236 131.528 122.23 131.538 122.228 131.549C122.226 131.561 122.227 131.572 122.231 131.583C122.235 131.593 122.243 131.603 122.252 131.609C122.262 131.615 122.273 131.619 122.284 131.619C122.511 131.628 122.739 131.611 122.963 131.57C123.133 131.552 123.29 131.47 123.403 131.341ZM123.222 130.995C123.241 130.998 123.258 131.006 123.272 131.018C123.286 131.03 123.297 131.045 123.304 131.063C123.322 131.096 123.332 131.133 123.332 131.17C123.332 131.208 123.322 131.245 123.304 131.278C123.222 131.414 122.889 131.497 122.427 131.502C122.677 131.258 123.046 130.965 123.222 130.995Z" fill="#FAFAFA"/>
<path d="M118.555 124.741L116.053 124.486L116.143 130.431L118.645 130.686L118.555 124.741Z" fill="#FAFAFA"/>
<path d="M115.558 130.241C114.821 130.672 115.114 132.235 114.025 132.214C113.566 132.208 112.547 133.741 113.588 133.947C114.69 134.111 115.8 134.207 116.913 134.236C117 134.242 117.088 134.242 117.176 134.236C117.722 134.179 118.226 133.914 118.581 133.495C118.936 133.075 119.115 132.535 119.081 131.987L119.02 130.477C119.016 130.432 118.994 130.391 118.96 130.362C118.926 130.333 118.882 130.318 118.837 130.32L115.999 130.15C115.847 130.137 115.693 130.168 115.558 130.241Z" fill="#E0E0E0"/>
<path d="M115.346 131.307C115.565 131.37 115.79 131.409 116.017 131.422C116.025 131.423 116.032 131.422 116.04 131.42C116.047 131.417 116.054 131.413 116.06 131.408C116.066 131.404 116.07 131.397 116.074 131.391C116.077 131.384 116.079 131.376 116.08 131.369C116.081 131.354 116.077 131.339 116.067 131.328C116.007 131.251 115.471 130.561 115.139 130.591C115.101 130.594 115.065 130.607 115.033 130.627C115.001 130.648 114.975 130.677 114.958 130.71C114.925 130.757 114.905 130.813 114.9 130.87C114.895 130.928 114.906 130.985 114.931 131.037C115.031 131.176 115.179 131.272 115.346 131.307ZM115.886 131.292C115.427 131.243 115.104 131.127 115.037 130.983C115.021 130.949 115.015 130.911 115.018 130.874C115.022 130.836 115.035 130.8 115.057 130.769C115.065 130.753 115.078 130.738 115.093 130.728C115.109 130.718 115.127 130.711 115.145 130.71C115.323 130.697 115.663 131.024 115.886 131.292Z" fill="#FAFAFA"/>
<path d="M116.989 131.11C117.019 131.061 117.035 131.004 117.036 130.947C117.037 130.889 117.023 130.832 116.994 130.782C116.98 130.747 116.957 130.716 116.927 130.692C116.898 130.669 116.863 130.653 116.826 130.646C116.497 130.584 115.897 131.218 115.83 131.289C115.824 131.294 115.82 131.3 115.817 131.307C115.814 131.314 115.812 131.321 115.812 131.328C115.812 131.344 115.818 131.359 115.829 131.37C115.839 131.381 115.854 131.387 115.869 131.388C116.097 131.396 116.325 131.38 116.549 131.339C116.719 131.321 116.876 131.239 116.989 131.11ZM116.808 130.765C116.826 130.768 116.844 130.775 116.858 130.787C116.872 130.799 116.883 130.815 116.889 130.832C116.908 130.865 116.918 130.902 116.918 130.94C116.918 130.977 116.908 131.014 116.889 131.047C116.808 131.184 116.474 131.267 116.013 131.272C116.261 131.026 116.632 130.733 116.808 130.765Z" fill="#FAFAFA"/>
<path d="M126.578 94.1479C126.578 94.1479 128.567 98.3021 127.608 100.797C126.523 103.619 125.807 102.825 121.1 102.767C122.015 110.878 119.858 126.19 119.858 126.19L115.225 125.949C115.225 125.949 114.967 108.925 114.109 101.018C113.516 95.5339 119.215 94.0432 119.215 94.0432L126.578 94.1479Z" fill="#E0E0E0"/>
<path opacity="0.1" d="M123.201 96.1638C123.201 96.1638 118.967 94.9333 119.638 101.361C120.142 106.192 123.333 115.268 123.333 115.268L123.201 96.1638Z" fill="black"/>
<path opacity="0.1" d="M128.382 103.039V105.853H126.077L125.811 102.804L128.382 103.039Z" fill="black"/>
<path d="M132.992 94.3793C132.992 94.3793 134.98 98.534 134.022 101.029C132.936 103.85 132.221 103.056 127.514 102.998C128.428 111.11 126.272 126.421 126.272 126.421L121.639 126.181C121.639 126.181 121.381 109.157 120.523 101.249C119.93 95.7653 125.629 94.2745 125.629 94.2745L132.992 94.3793Z" fill="#EBEBEB"/>
<path d="M119.639 74.0681C117.778 76.2721 117.62 76.9185 117.799 78.0308C118.777 83.3714 119.329 88.7815 119.448 94.2097L132.994 94.3794C133.035 90.551 132.799 86.7246 132.288 82.9303C131.888 80.2909 131.322 77.6791 130.595 75.1103C130.431 74.5836 130.099 74.1254 129.649 73.8062C129.199 73.487 128.656 73.3246 128.105 73.344L119.639 74.0681Z" fill="#E0E0E0"/>
<path d="M122.954 92.9052L123.648 93.9224L120.85 94.7192C120.85 94.7192 119.481 92.4683 120.554 91.9491L121.262 92.066C121.587 92.0797 121.906 92.1615 122.197 92.3061C122.489 92.4506 122.747 92.6547 122.954 92.9052Z" fill="#FAFAFA"/>
<path d="M123.427 95.854L121.767 96.0269L120.85 94.7173L123.647 93.9225L123.427 95.854Z" fill="#FAFAFA"/>
<path d="M116.494 79.6346C114.832 81.6792 114.298 85.6142 114.683 87.0651C115.359 89.6116 118.418 92.3457 120.756 93.5608C121.546 93.9707 121.189 93.8075 121.767 93.1309C122.402 92.3862 121.21 91.1782 120.552 90.4533C119.441 89.2312 118.62 88.189 118.327 86.5633C118.239 85.5287 118.375 84.4873 118.725 83.5099C119.075 82.5273 119.091 81.4566 118.77 80.4641C118.358 79.5138 116.494 79.6346 116.494 79.6346Z" fill="#E0E0E0"/>
<path d="M120.922 84.3117L115.049 83.0221C115.259 81.1568 115.636 79.3142 116.176 77.5167C117.133 74.149 119.447 73.1177 121.276 74.9362C123.157 76.8002 122.034 81.1015 120.922 84.3117Z" fill="#E0E0E0"/>
<path opacity="0.1" d="M132.147 81.3141C132.147 81.3141 132.925 90.6646 131.086 88.6573C130.193 87.6825 126.507 77.1722 130.293 76.272C131.296 77.7851 131.931 79.5118 132.147 81.3141Z" fill="black"/>
<path d="M127.477 92.3263L128.185 92.2087C129.259 92.7279 127.89 94.9794 127.89 94.9794L125.092 94.1827L125.786 93.1649C125.993 92.9143 126.251 92.7101 126.542 92.5657C126.834 92.4212 127.152 92.3396 127.477 92.3263Z" fill="#FAFAFA"/>
<path d="M125.091 94.1826L127.888 94.9775L126.971 96.287L125.31 96.1141L125.091 94.1826Z" fill="#FAFAFA"/>
<path d="M132.614 78.1914C132.614 78.1914 134.441 85.8751 134.055 87.3254C133.379 89.8718 130.32 92.6059 127.982 93.821C127.191 94.2309 127.548 94.0677 126.971 93.3911C126.335 92.6464 127.528 91.439 128.186 90.7136C129.296 89.4914 130.119 88.4492 130.411 86.8235C130.499 85.7889 130.363 84.7475 130.013 83.7701C129.663 82.7875 129.647 81.7169 129.968 80.7244C130.379 79.774 132.614 78.1914 132.614 78.1914Z" fill="#E0E0E0"/>
<path d="M133.473 81.6675L129.839 83.0034C128.929 81.3616 125.812 73.5404 128.914 73.3804C132.147 73.3194 132.51 78.4155 133.473 81.6675Z" fill="#E0E0E0"/>
<path d="M125.506 71.6495C126.351 72.7225 127.53 70.3586 127.442 68.819C127.388 67.8841 124.66 70.577 125.506 71.6495Z" fill="#E0E0E0"/>
<path d="M126.512 74.465C126.75 75.0022 126.739 75.328 126.212 75.5863C125.136 76.1659 123.903 76.3862 122.693 76.2147C121.443 76.0187 121.22 75.576 121.271 75.2162C121.298 75.0714 121.367 74.9376 121.469 74.8306C121.57 74.7237 121.7 74.6481 121.843 74.6128C123.192 74.2421 123.102 73.7781 123.031 73.1716C123.006 72.8982 122.933 72.6316 122.813 72.3844L124.964 70.7087L126.545 69.4781C126.135 70.9959 125.825 72.9441 126.512 74.465Z" fill="#F5F5F5"/>
<path opacity="0.1" d="M122.805 72.3768C122.816 72.3874 122.825 72.3998 122.831 72.4135C122.929 72.6536 122.993 72.9059 123.022 73.1633L123.044 73.3188C123.449 73.1781 123.814 72.941 124.107 72.6281C124.4 72.3151 124.613 71.9356 124.727 71.5222C124.75 71.3067 124.755 71.0896 124.742 70.8732C124.737 70.8212 124.731 70.7717 124.726 70.7255L123.334 71.9675L122.805 72.3768Z" fill="black"/>
<path d="M121.337 67.7953C119.743 68.1802 119.306 65.7269 119.878 65.1094C120.89 64.0164 122.93 67.4098 121.337 67.7953Z" fill="#E0E0E0"/>
<path d="M126.835 65.2456C126.699 64.8199 126.48 64.425 126.192 64.0837C125.903 63.7424 125.55 63.4613 125.153 63.2565C124.756 63.0516 124.322 62.927 123.877 62.8899C123.431 62.8527 122.983 62.9036 122.557 63.0397C120.112 63.8371 119.573 67.4425 119.976 69.6773C120.423 72.1615 123.373 73.5018 125.337 71.7509C126.636 70.5943 126.692 69.1575 126.968 66.7196C127.032 66.2245 126.987 65.7212 126.835 65.2456Z" fill="#F5F5F5"/>
<path d="M127.034 67.4265C126.374 67.5081 125.892 68.3351 125.834 68.9551C125.772 69.6497 126.295 70.2846 126.901 69.919C127.366 69.6294 127.709 69.1793 127.865 68.6538C128.056 67.9977 127.693 67.3449 127.034 67.4265Z" fill="#F5F5F5"/>
<path d="M128.192 65.8151C128.26 67.167 127.034 68.3789 125.725 68.7265C126.115 67.9836 126.246 67.1318 126.097 66.306C125.829 64.679 123.199 64.6469 122.806 65.3852C122.519 64.8326 121.183 64.929 120.719 65.346C119.588 66.3658 120.063 68.9463 120.063 68.9463C119.398 68.1164 118.933 67.145 118.702 66.1068C118.592 65.5873 118.6 65.0495 118.727 64.5337C118.853 64.0179 119.095 63.5375 119.434 63.1286C119.893 62.7357 120.455 62.4845 121.054 62.4053C121.652 62.3261 122.261 62.4225 122.806 62.6826C122.876 62.7237 127.917 60.354 128.192 65.8151Z" fill="#E0E0E0"/>
<path d="M34.957 105.853H33.2639V130.821H34.957V105.853Z" fill="#E0E0E0"/>
<path d="M39.9236 105.853H20.4667V105.201C20.4667 104.565 20.7192 103.955 21.1686 103.506C21.6181 103.056 22.2276 102.804 22.8632 102.804H39.9241L39.9236 105.853Z" fill="#E0E0E0"/>
<path d="M24.0749 105.853H22.3819V130.821H24.0749V105.853Z" fill="#E0E0E0"/>
<path d="M30.4063 124.973L32.9086 124.717L32.8191 130.662L30.3172 130.917L30.4063 124.973Z" fill="#FAFAFA"/>
<path d="M33.4037 130.473C34.1416 130.903 33.8485 132.466 34.9378 132.446C35.3966 132.439 36.415 133.972 35.3741 134.179C34.2727 134.343 33.1623 134.439 32.0491 134.466C31.9616 134.472 31.8738 134.473 31.7862 134.467C31.2398 134.41 30.7364 134.145 30.3814 133.725C30.0263 133.306 29.8471 132.766 29.881 132.217L29.9414 130.707C29.9461 130.663 29.9676 130.622 30.0017 130.593C30.0357 130.564 30.0796 130.549 30.1243 130.551L32.9627 130.381C33.1155 130.369 33.2686 130.401 33.4037 130.473Z" fill="#E0E0E0"/>
<path d="M34.0322 131.268C34.0572 131.216 34.0679 131.158 34.0631 131.101C34.0584 131.044 34.0385 130.989 34.0053 130.942C33.9876 130.908 33.9616 130.879 33.9299 130.859C33.8982 130.838 33.8617 130.825 33.8239 130.822C33.4916 130.792 32.9558 131.482 32.8954 131.558C32.886 131.57 32.8814 131.585 32.8825 131.6C32.8838 131.615 32.8911 131.629 32.9028 131.639C32.9146 131.649 32.9298 131.655 32.9452 131.653C33.1724 131.64 33.3974 131.601 33.6161 131.538C33.784 131.504 33.9327 131.407 34.0322 131.268ZM33.8182 130.942C33.8368 130.943 33.8547 130.949 33.8701 130.959C33.8855 130.97 33.8978 130.984 33.9057 131.001C33.9276 131.032 33.941 131.068 33.9447 131.105C33.9484 131.143 33.9422 131.181 33.9268 131.215C33.8593 131.359 33.5352 131.474 33.0769 131.524C33.3001 131.256 33.6395 130.928 33.8182 130.942Z" fill="#FAFAFA"/>
<path d="M32.4124 131.57C32.6362 131.611 32.8639 131.628 33.0914 131.619C33.1068 131.619 33.1215 131.612 33.1322 131.601C33.1428 131.59 33.1486 131.575 33.1483 131.56C33.1479 131.545 33.142 131.531 33.1316 131.52C33.0641 131.449 32.4636 130.815 32.1356 130.877C32.0983 130.884 32.0632 130.9 32.0336 130.924C32.004 130.947 31.981 130.978 31.9666 131.013C31.9384 131.064 31.924 131.12 31.9249 131.178C31.9258 131.236 31.942 131.292 31.9719 131.341C32.0846 131.47 32.242 131.552 32.4124 131.57ZM32.9482 131.503C32.4871 131.498 32.1534 131.414 32.072 131.278C32.0534 131.245 32.0436 131.208 32.0436 131.171C32.0436 131.133 32.0534 131.096 32.072 131.063C32.0784 131.046 32.0893 131.03 32.1036 131.018C32.1179 131.006 32.1351 130.999 32.1534 130.995C32.3296 130.965 32.6997 131.258 32.9482 131.503Z" fill="#FAFAFA"/>
<path d="M36.8205 124.741L39.3224 124.486L39.2333 130.431L36.7315 130.686L36.8205 124.741Z" fill="#FAFAFA"/>
<path d="M39.8188 130.241C40.5566 130.672 40.2635 132.235 41.3529 132.214C41.8116 132.208 42.83 133.741 41.7891 133.947C40.6878 134.111 39.5776 134.207 38.4646 134.236C38.3771 134.242 38.2893 134.242 38.2018 134.236C37.6553 134.179 37.1519 133.914 36.7968 133.495C36.4417 133.075 36.2625 132.535 36.2965 131.987L36.3569 130.477C36.3615 130.432 36.3831 130.391 36.4171 130.362C36.4511 130.333 36.495 130.318 36.5398 130.32L39.3782 130.15C39.5308 130.137 39.6839 130.169 39.8188 130.241Z" fill="#E0E0E0"/>
<path d="M40.4465 131.036C40.4715 130.985 40.4821 130.927 40.4774 130.87C40.4727 130.812 40.4528 130.757 40.4196 130.71C40.4019 130.677 40.3759 130.648 40.3442 130.627C40.3125 130.606 40.276 130.594 40.2382 130.591C39.9059 130.56 39.3701 131.25 39.3097 131.327C39.3025 131.336 39.2981 131.347 39.297 131.358C39.2958 131.369 39.298 131.381 39.3033 131.391C39.3086 131.401 39.3168 131.409 39.3268 131.415C39.3368 131.42 39.3481 131.423 39.3595 131.422C39.5867 131.408 39.8117 131.37 40.0304 131.306C40.1983 131.272 40.3471 131.176 40.4465 131.036ZM40.2324 130.711C40.251 130.712 40.269 130.718 40.2844 130.728C40.2998 130.739 40.3121 130.753 40.3201 130.77C40.3418 130.801 40.3551 130.837 40.3588 130.874C40.3625 130.912 40.3564 130.949 40.3411 130.984C40.2736 131.128 39.9495 131.243 39.4912 131.293C39.7148 131.024 40.0543 130.697 40.2324 130.711Z" fill="#FAFAFA"/>
<path d="M38.8265 131.338C39.0504 131.379 39.278 131.396 39.5054 131.387C39.5209 131.387 39.5356 131.38 39.5462 131.369C39.5569 131.358 39.5627 131.343 39.5624 131.328C39.5621 131.313 39.5561 131.299 39.5457 131.288C39.4781 131.218 38.8777 130.584 38.5497 130.646C38.5123 130.652 38.4772 130.668 38.4476 130.692C38.4181 130.715 38.395 130.746 38.3807 130.781C38.3526 130.832 38.3383 130.888 38.3392 130.946C38.3401 131.004 38.3563 131.06 38.386 131.109C38.4987 131.238 38.6561 131.32 38.8265 131.338ZM39.3623 131.271C38.9012 131.267 38.5674 131.183 38.486 131.047C38.4675 131.014 38.4577 130.977 38.4577 130.939C38.4577 130.902 38.4675 130.864 38.486 130.832C38.4925 130.814 38.5035 130.799 38.5178 130.787C38.532 130.775 38.5492 130.767 38.5674 130.764C38.7441 130.733 39.1138 131.026 39.3623 131.271Z" fill="#FAFAFA"/>
<path d="M28.7981 94.1479C28.7981 94.1479 26.8096 98.3021 27.7687 100.797C28.8537 103.619 29.5695 102.825 34.2759 102.767C33.3618 110.878 35.5179 126.19 35.5179 126.19L40.151 125.949C40.151 125.949 40.4091 108.925 41.2671 101.018C41.8599 95.5339 36.1615 94.0432 36.1615 94.0432L28.7981 94.1479Z" fill="#E0E0E0"/>
<path d="M34.8616 125.568L41.6354 124.645L41.5852 127.841L35.4022 128.54L34.8616 125.568Z" fill="#E0E0E0"/>
<path opacity="0.1" d="M26.9952 103.04V105.853H29.2998L29.566 102.804L26.9952 103.04Z" fill="black"/>
<path d="M22.3839 94.38C22.3839 94.38 20.3953 98.5341 21.3544 101.029C22.4394 103.851 23.1553 103.057 27.8616 102.998C26.9475 111.11 29.1037 126.422 29.1037 126.422L33.7367 126.181C33.7367 126.181 33.9948 109.158 34.8528 101.25C35.4456 95.7654 29.7472 94.2753 29.7472 94.2753L22.3839 94.38Z" fill="#E6E6E6"/>
<path d="M28.4472 125.8L35.2211 124.876L35.1704 128.072L28.9874 128.771L28.4472 125.8Z" fill="#E0E0E0"/>
<path d="M35.7384 74.0686C37.5991 76.272 37.7571 76.919 37.578 78.0313C36.5998 83.372 36.0484 88.7821 35.929 94.2103L22.3831 94.3793C22.3416 90.5509 22.5775 86.7245 23.0889 82.9302C23.4897 80.2908 24.055 77.6791 24.7815 75.1102C24.9454 74.5835 25.278 74.1253 25.7281 73.8062C26.1781 73.4871 26.7206 73.3249 27.2719 73.3445L35.7384 74.0686Z" fill="#E0E0E0"/>
<path d="M32.4241 92.9052L31.7303 93.923L34.5286 94.7198C34.5286 94.7198 35.8975 92.4689 34.824 91.9491L34.1158 92.0667C33.7909 92.0802 33.4724 92.1619 33.1809 92.3063C32.8895 92.4508 32.6317 92.6548 32.4241 92.9052Z" fill="#FAFAFA"/>
<path d="M31.9496 95.854L33.6106 96.0269L34.5271 94.7173L31.7303 93.9225L31.9496 95.854Z" fill="#FAFAFA"/>
<path d="M38.8832 79.6345C40.5456 81.6792 41.08 85.6148 40.6946 87.0651C40.0185 89.6122 36.9593 92.3463 34.6212 93.5607C33.8312 93.9713 34.1884 93.8081 33.6104 93.1308C32.975 92.3861 34.1673 91.1787 34.8256 90.4539C35.936 89.2311 36.7582 88.1896 37.0508 86.5639C37.1387 85.5293 37.003 84.4879 36.6528 83.5104C36.3027 82.5277 36.2869 81.4568 36.6078 80.4641C37.0191 79.5144 38.8832 79.6345 38.8832 79.6345Z" fill="#FAFAFA"/>
<path d="M34.4536 84.3123L40.3269 83.0221C40.1175 81.157 39.7404 79.3146 39.2002 77.5173C38.2431 74.149 35.9294 73.1177 34.1008 74.9361C32.2204 76.8002 33.3423 81.1021 34.4536 84.3123Z" fill="#E0E0E0"/>
<path opacity="0.1" d="M23.6682 83.9614C23.6682 83.9614 26.906 86.2001 27.5898 83.5656C28.2736 80.9311 30.197 76.2719 26.4105 75.3717C25.15 77.3031 24.3124 79.4793 23.9527 81.7574C23.8445 82.4251 23.7482 83.1691 23.6682 83.9614Z" fill="black"/>
<path d="M27.8985 92.3263L27.1903 92.2094C26.1168 92.7285 27.4858 94.9794 27.4858 94.9794L30.284 94.1826L29.5902 93.1655C29.3828 92.9148 29.125 92.7106 28.8336 92.566C28.5421 92.4215 28.2235 92.3398 27.8985 92.3263Z" fill="#FAFAFA"/>
<path d="M30.2852 94.1832L27.4885 94.9781L28.4044 96.2876L30.0655 96.1148L30.2852 94.1832Z" fill="#FAFAFA"/>
<path d="M23.1316 79.8947C21.4691 81.9394 20.9348 85.875 21.3202 87.3253C21.9963 89.8717 25.0555 92.6058 27.3936 93.8209C28.1836 94.2315 27.8264 94.0676 28.4044 93.391C29.0397 92.6463 27.8475 91.4389 27.1891 90.7135C26.0787 89.4913 25.2566 88.4498 24.964 86.8241C24.876 85.7895 25.0117 84.7481 25.3619 83.7706C25.712 82.7879 25.7279 81.717 25.407 80.7243C24.9957 79.7739 23.1316 79.8947 23.1316 79.8947Z" fill="#FAFAFA"/>
<path d="M21.3277 81.2204L26.8657 83.5657C27.7756 81.9243 28.5347 80.2038 29.1339 78.4253C30.296 75.1367 29.0127 72.9603 26.4635 73.3812C23.8558 73.813 22.2892 77.9684 21.3277 81.2204Z" fill="#E0E0E0"/>
<path d="M29.8704 71.6495C29.0248 72.7225 27.8459 70.3586 27.9336 68.819C27.9877 67.8841 30.716 70.577 29.8704 71.6495Z" fill="#E0E0E0"/>
<path d="M34.9937 75.0055C34.807 74.5199 34.4739 74.1044 34.0404 73.8168C33.0494 73.083 31.8424 72.6999 30.6096 72.7276C30.0516 72.7991 29.486 72.7845 28.9324 72.6846L29.245 72.9307C29.0957 72.8689 28.9302 72.858 28.7741 72.8997C28.6179 72.9414 28.4799 73.0333 28.3812 73.1614C28.1898 73.4229 28.0772 73.7337 28.0566 74.0571C27.9694 74.7728 28.0265 75.4987 28.2245 76.192C28.4226 76.8853 28.7575 77.5319 29.2096 78.0936C29.326 77.8089 29.5242 77.565 29.7791 77.3928C30.0341 77.2206 30.3343 77.1277 30.6419 77.1259C30.9495 77.1241 31.2508 77.2135 31.5077 77.3828C31.7646 77.552 31.9656 77.7935 32.0854 78.0769C32.1112 77.8361 32.2129 77.6097 32.3757 77.4304C32.5385 77.251 32.754 77.128 32.9912 77.0791C33.2284 77.0301 33.475 77.0577 33.6955 77.158C33.916 77.2582 34.099 77.4258 34.218 77.6368C34.7371 76.8451 35.2796 75.9089 34.9937 75.0055Z" fill="#F5F5F5"/>
<path d="M28.8635 74.465C28.6256 75.0022 28.6366 75.3286 29.1638 75.5869C30.2396 76.1667 31.4728 76.3867 32.6826 76.2147C33.9319 76.0187 34.155 75.5767 34.1042 75.2168C34.0767 75.0719 34.0081 74.938 33.9066 74.831C33.8051 74.724 33.6749 74.6485 33.5316 74.6135C32.1827 74.2421 32.2728 73.7781 32.3446 73.1722C32.3688 72.8989 32.4423 72.6322 32.5615 72.3851L30.4111 70.7087L28.8295 69.4781C29.2408 70.9965 29.5502 72.9447 28.8635 74.465Z" fill="#EBEBEB"/>
<path opacity="0.1" d="M32.5703 72.3768C32.5598 72.3877 32.5509 72.4001 32.5439 72.4134C32.4468 72.6536 32.3828 72.9059 32.3538 73.1633L32.3318 73.3194C31.9268 73.1786 31.5621 72.9415 31.2689 72.6285C30.9757 72.3156 30.7629 71.9362 30.6488 71.5228C30.6266 71.3073 30.6215 71.0903 30.6335 70.8739C30.6396 70.8212 30.6454 70.7717 30.6497 70.7261L32.0421 71.9681L32.5703 72.3768Z" fill="black"/>
<path d="M34.0404 67.7953C35.6339 68.1802 36.0716 65.7276 35.4994 65.1095C34.4876 64.0171 32.4464 67.4104 34.0404 67.7953Z" fill="#E0E0E0"/>
<path d="M28.541 65.2457C28.8158 64.386 29.4209 63.6706 30.2231 63.257C31.0253 62.8433 31.959 62.7652 32.8188 63.0398C35.2637 63.8379 35.8028 67.4432 35.3996 69.6781C34.9534 72.1622 32.0024 73.5019 30.0388 71.7516C28.7397 70.595 28.6837 69.1576 28.4074 66.7204C28.3436 66.225 28.3892 65.7216 28.541 65.2457Z" fill="#F5F5F5"/>
<path d="M27.5326 63.4279C27.0351 62.1312 29.5086 60.9065 31.7026 61.966C33.0016 62.6002 34.7278 61.6987 34.1929 61.1828C36.0699 60.7555 37.2297 62.7622 36.1978 64.792C35.3048 66.5513 32.5698 65.7636 30.1426 65.3035C30.778 66.6124 29.4282 69.3471 28.268 68.506C25.7207 66.6593 26.1143 63.3604 27.5326 63.4279Z" fill="#E0E0E0"/>
<path d="M28.1642 61.3666C27.1721 62.1254 27.2914 63.5185 27.8976 63.7138C26.3141 63.0398 27.1458 61.8691 28.1642 61.3666Z" fill="#E0E0E0"/>
<path d="M28.3433 67.4265C29.0031 67.5081 29.4848 68.3357 29.5432 68.9558C29.605 69.6498 29.0817 70.2846 28.476 69.9196C28.0105 69.6299 27.6674 69.1795 27.5116 68.6538C27.3206 67.9977 27.684 67.3455 28.3433 67.4265Z" fill="#F5F5F5"/>
<path d="M59.9778 105.853H58.2846V130.821H59.9778V105.853Z" fill="#E0E0E0"/>
<path d="M64.9454 105.853H45.4888V105.201C45.4888 104.565 45.7413 103.955 46.1908 103.506C46.6402 103.056 47.2498 102.804 47.8854 102.804H64.946L64.9454 105.853Z" fill="#E0E0E0"/>
<path d="M49.0958 105.853H47.4027V130.821H49.0958V105.853Z" fill="#E0E0E0"/>
<path d="M55.4259 124.973L57.928 124.717L57.8387 130.662L55.3366 130.917L55.4259 124.973Z" fill="#FAFAFA"/>
<path d="M58.4234 130.473C59.1611 130.903 58.8681 132.466 59.9572 132.446C60.416 132.439 61.4345 133.972 60.3935 134.179C59.2923 134.343 58.182 134.439 57.0689 134.466C56.9814 134.472 56.8936 134.473 56.8061 134.467C56.2596 134.41 55.7562 134.145 55.4011 133.725C55.0459 133.306 54.8665 132.766 54.9003 132.218L54.9607 130.708C54.9655 130.663 54.9871 130.622 55.0212 130.593C55.0552 130.564 55.0991 130.549 55.1438 130.551L57.982 130.381C58.1349 130.369 58.2882 130.4 58.4234 130.473Z" fill="#E0E0E0"/>
<path d="M59.0519 131.268C59.0768 131.216 59.0875 131.158 59.0827 131.101C59.078 131.044 59.058 130.989 59.0249 130.942C59.0071 130.908 58.9812 130.879 58.9496 130.859C58.9179 130.838 58.8815 130.825 58.8437 130.822C58.5115 130.792 57.9756 131.482 57.9152 131.558C57.9056 131.57 57.901 131.585 57.9023 131.6C57.9034 131.615 57.9106 131.629 57.9223 131.639C57.934 131.65 57.9492 131.655 57.9646 131.653C58.1918 131.64 58.4168 131.601 58.6355 131.538C58.8035 131.504 58.9523 131.407 59.0519 131.268ZM58.8379 130.942C58.8565 130.943 58.8744 130.949 58.8897 130.959C58.9051 130.97 58.9174 130.984 58.9253 131.001C58.947 131.032 58.9604 131.068 58.9641 131.105C58.9678 131.143 58.9617 131.181 58.9465 131.215C58.879 131.359 58.5545 131.474 58.0964 131.524C58.3193 131.256 58.6592 130.928 58.8379 130.942Z" fill="#FAFAFA"/>
<path d="M57.432 131.57C57.6559 131.611 57.8836 131.628 58.1112 131.619C58.1188 131.619 58.1263 131.617 58.1333 131.614C58.1403 131.611 58.1466 131.607 58.1518 131.601C58.1571 131.596 58.1612 131.589 58.1639 131.582C58.1666 131.575 58.1679 131.567 58.1677 131.56C58.1677 131.552 58.1662 131.545 58.1633 131.538C58.1605 131.531 58.1563 131.525 58.151 131.52C58.0835 131.449 57.4834 130.815 57.155 130.877C57.1177 130.884 57.0826 130.9 57.0531 130.924C57.0236 130.948 57.0005 130.978 56.986 131.013C56.9579 131.064 56.9436 131.12 56.9445 131.178C56.9454 131.236 56.9615 131.292 56.9912 131.341C57.1041 131.47 57.2615 131.552 57.432 131.57ZM57.9679 131.503C57.5065 131.498 57.173 131.414 57.0914 131.278C57.0728 131.245 57.063 131.208 57.063 131.171C57.063 131.133 57.0728 131.096 57.0914 131.063C57.0979 131.046 57.1089 131.03 57.1232 131.018C57.1375 131.006 57.1547 130.999 57.173 130.995C57.3491 130.965 57.7192 131.258 57.9679 131.503Z" fill="#FAFAFA"/>
<path d="M61.8412 124.741L64.3433 124.486L64.254 130.431L61.7525 130.686L61.8412 124.741Z" fill="#FAFAFA"/>
<path d="M64.84 130.241C65.5777 130.672 65.2846 132.235 66.3744 132.214C66.8332 132.208 67.8517 133.741 66.8101 133.947C65.7088 134.111 64.5985 134.207 63.4855 134.236C63.398 134.242 63.3102 134.242 63.2227 134.236C62.6762 134.179 62.1728 133.914 61.8177 133.495C61.4626 133.075 61.2834 132.535 61.3175 131.987L61.3779 130.477C61.3825 130.432 61.404 130.391 61.4379 130.362C61.4719 130.333 61.5157 130.318 61.5604 130.32L64.3992 130.151C64.5518 130.137 64.7051 130.169 64.84 130.241Z" fill="#E0E0E0"/>
<path d="M65.4672 131.036C65.4922 130.985 65.503 130.927 65.4984 130.87C65.4937 130.812 65.4739 130.757 65.4408 130.71C65.423 130.677 65.3969 130.648 65.3652 130.627C65.3334 130.606 65.2969 130.594 65.259 130.591C64.9268 130.56 64.3909 131.25 64.3305 131.327C64.3212 131.339 64.3166 131.353 64.3176 131.368C64.3189 131.384 64.3262 131.398 64.338 131.408C64.3498 131.418 64.3651 131.423 64.3806 131.422C64.6078 131.408 64.8328 131.37 65.0514 131.306C65.2192 131.272 65.3679 131.176 65.4672 131.036ZM65.2532 130.711C65.2718 130.712 65.2898 130.718 65.3053 130.728C65.3207 130.739 65.3331 130.753 65.3412 130.77C65.3628 130.801 65.3761 130.837 65.3797 130.874C65.3833 130.912 65.3771 130.949 65.3618 130.984C65.2943 131.128 64.9705 131.243 64.5123 131.293C64.7359 131.024 65.0752 130.697 65.2532 130.711Z" fill="#FAFAFA"/>
<path d="M63.8486 131.338C64.0723 131.379 64.2998 131.396 64.5271 131.387C64.5385 131.387 64.5496 131.384 64.559 131.377C64.5684 131.371 64.5757 131.362 64.58 131.351C64.5843 131.341 64.5854 131.329 64.5832 131.318C64.581 131.307 64.5756 131.297 64.5676 131.288C64.5001 131.218 63.8993 130.584 63.5716 130.646C63.5343 130.652 63.4992 130.668 63.4697 130.692C63.4402 130.715 63.4174 130.746 63.4033 130.781C63.3749 130.832 63.3604 130.888 63.3613 130.946C63.3622 131.004 63.3784 131.06 63.4084 131.109C63.5207 131.239 63.6781 131.32 63.8486 131.338ZM64.3838 131.271C63.9225 131.267 63.589 131.183 63.5074 131.047C63.4887 131.014 63.4789 130.977 63.4789 130.939C63.4789 130.901 63.4887 130.864 63.5074 130.832C63.5139 130.814 63.5249 130.799 63.5392 130.787C63.5535 130.775 63.5707 130.767 63.589 130.764C63.7657 130.733 64.1351 131.026 64.3838 131.271Z" fill="#FAFAFA"/>
<path d="M53.8189 94.1479C53.8189 94.1479 51.8304 98.3021 52.7895 100.797C53.8748 103.619 54.5906 102.825 59.2967 102.767C58.3823 110.878 60.5387 126.19 60.5387 126.19L65.1716 125.949C65.1716 125.949 65.4299 108.925 66.2877 101.018C66.8808 95.5339 61.1826 94.0432 61.1826 94.0432L53.8189 94.1479Z" fill="#E0E0E0"/>
<path d="M59.8827 125.568L66.6565 124.645L66.6058 127.841L60.4231 128.54L59.8827 125.568Z" fill="#E0E0E0"/>
<path opacity="0.1" d="M57.1955 96.1644C57.1955 96.1644 61.4293 94.9339 60.7585 101.361C60.2547 106.193 57.0638 115.268 57.0638 115.268L57.1955 96.1644Z" fill="black"/>
<path opacity="0.1" d="M52.0148 103.04V105.853H54.3201L54.5854 102.804L52.0148 103.04Z" fill="black"/>
<path d="M47.4035 94.38C47.4035 94.38 45.4149 98.5341 46.374 101.029C47.459 103.851 48.1749 103.057 52.8812 102.998C51.9671 111.11 54.1235 126.422 54.1235 126.422L58.7563 126.181C58.7563 126.181 59.0146 109.158 59.8731 101.25C60.4655 95.7654 54.7673 94.2753 54.7673 94.2753L47.4035 94.38Z" fill="#E0E0E0"/>
<path d="M53.4668 125.8L60.2406 124.876L60.1898 128.072L54.0071 128.771L53.4668 125.8Z" fill="#E0E0E0"/>
<path d="M60.7579 74.0686C62.6187 76.272 62.7768 76.919 62.5975 78.0313C61.6192 83.372 61.0679 88.7821 60.9487 94.2103L47.4027 94.3793C47.3612 90.5509 47.5971 86.7245 48.1085 82.9302C48.5093 80.2908 49.0746 77.6791 49.8011 75.1102C49.965 74.5835 50.2976 74.1253 50.7476 73.8062C51.1977 73.4871 51.7401 73.3249 52.2915 73.3445L60.7579 74.0686Z" fill="#E0E0E0"/>
<path d="M57.4423 92.9052L56.7489 93.923L59.5466 94.7198C59.5466 94.7198 60.9159 92.4689 59.8422 91.9491L59.1341 92.0667C58.8091 92.0802 58.4906 92.1618 58.1991 92.3063C57.9077 92.4507 57.6498 92.6548 57.4423 92.9052Z" fill="#FAFAFA"/>
<path d="M56.968 95.8546L58.6291 96.0275L59.5453 94.7179L56.7489 93.9231L56.968 95.8546Z" fill="#FAFAFA"/>
<path d="M63.9012 79.6345C65.5642 81.6792 66.0981 85.6148 65.7126 87.0651C65.0366 89.6122 61.9774 92.3463 59.6398 93.5607C58.8494 93.9713 59.2067 93.8081 58.6284 93.1308C57.9936 92.3861 59.1855 91.1787 59.8441 90.4539C60.9545 89.2311 61.7763 88.1896 62.0693 86.5639C62.1571 85.5293 62.0212 84.4879 61.6709 83.5104C61.321 82.5276 61.3052 81.4568 61.6259 80.4641C62.0378 79.5144 63.9012 79.6345 63.9012 79.6345Z" fill="#FAFAFA"/>
<path d="M59.4734 84.3123L65.3464 83.0221C65.1371 81.157 64.7601 79.3146 64.22 77.5173C63.2625 74.149 60.9487 73.1177 59.1206 74.9361C57.2399 76.8002 58.3618 81.1021 59.4734 84.3123Z" fill="#E0E0E0"/>
<path opacity="0.1" d="M48.6878 83.9614C48.6878 83.9614 51.9256 86.2001 52.6094 83.5656C53.2932 80.9311 55.2164 76.2719 51.43 75.3717C50.1694 77.303 49.3317 79.4793 48.9722 81.7574C48.864 82.4251 48.7678 83.1691 48.6878 83.9614Z" fill="black"/>
<path d="M52.9206 92.3263L52.2124 92.2094C51.1389 92.7285 52.5079 94.9794 52.5079 94.9794L55.3064 94.1826L54.6124 93.1655C54.405 92.9148 54.1472 92.7106 53.8557 92.5661C53.5642 92.4215 53.2456 92.3398 52.9206 92.3263Z" fill="#FAFAFA"/>
<path d="M55.3064 94.1832L52.5093 94.9781L53.4256 96.2876L55.086 96.1148L55.3064 94.1832Z" fill="#FAFAFA"/>
<path d="M48.1537 79.8947C46.4912 81.9394 45.9569 85.875 46.3423 87.3253C47.0184 89.8717 50.0776 92.6058 52.4156 93.8209C53.2059 94.2315 52.8485 94.0676 53.4263 93.391C54.0618 92.6463 52.8696 91.4389 52.2112 90.7135C51.1008 89.4913 50.2787 88.4498 49.9861 86.8241C49.898 85.7895 50.0339 84.748 50.3845 83.7706C50.7346 82.7879 50.7504 81.717 50.4295 80.7243C50.0172 79.7739 48.1537 79.8947 48.1537 79.8947Z" fill="#FAFAFA"/>
<path d="M46.3473 81.2204L51.8853 83.5657C52.7952 81.9243 53.5545 80.2038 54.1537 78.4253C55.3154 75.1367 54.0322 72.9603 51.4831 73.3812C48.8754 73.813 47.3087 77.9684 46.3473 81.2204Z" fill="#E0E0E0"/>
<path d="M54.89 71.6495C54.0438 72.7225 52.8655 70.3586 52.9533 68.819C53.0073 67.8841 55.7356 70.577 54.89 71.6495Z" fill="#E0E0E0"/>
<path d="M53.8831 74.465C53.6454 75.0022 53.6563 75.3286 54.1832 75.5869C55.2591 76.1667 56.4924 76.3867 57.7025 76.2147C58.9516 76.0187 59.1752 75.5767 59.1245 75.2168C59.097 75.0719 59.0284 74.938 58.9268 74.831C58.8253 74.7241 58.6952 74.6485 58.5519 74.6135C57.2032 74.2421 57.2925 73.7781 57.3645 73.1722C57.3886 72.8989 57.4622 72.6321 57.5817 72.3851L55.431 70.7087L53.8497 69.4781C54.2603 70.9965 54.57 72.9447 53.8831 74.465Z" fill="#F5F5F5"/>
<path opacity="0.1" d="M57.59 72.3768C57.5794 72.3875 57.5705 72.3999 57.5637 72.4134C57.4664 72.6535 57.4024 72.9058 57.3735 73.1633L57.3517 73.3194C56.9466 73.1785 56.5818 72.9414 56.2886 72.6285C55.9954 72.3156 55.7825 71.9362 55.6682 71.5228C55.6463 71.3072 55.6412 71.0903 55.6527 70.8739C55.6592 70.8212 55.6643 70.7717 55.6694 70.7261L57.0619 71.9681L57.59 72.3768Z" fill="black"/>
<path d="M59.0602 67.7953C60.6538 68.1802 61.0913 65.7276 60.5188 65.1095C59.5074 64.0171 57.466 67.4104 59.0602 67.7953Z" fill="#E0E0E0"/>
<path d="M53.5606 65.2456C53.8354 64.386 54.4404 63.6707 55.2426 63.257C56.0447 62.8433 56.9783 62.7652 57.8381 63.0397C60.283 63.8378 60.8221 67.4432 60.4192 69.678C59.9726 72.1621 57.022 73.5019 55.0584 71.7515C53.7591 70.5949 53.7032 69.1575 53.4269 66.7203C53.3633 66.2249 53.4089 65.7215 53.5606 65.2456Z" fill="#F5F5F5"/>
<path d="M52.5519 63.4279C52.0545 62.1312 54.5282 60.9065 56.7219 61.966C58.0212 62.6002 59.7471 61.6987 59.2125 61.1828C61.0894 60.7555 62.2492 62.7622 61.2173 64.792C60.3241 66.5513 57.5894 65.7636 55.1618 65.3035C55.7973 66.6124 54.4473 69.3471 53.2875 68.506C50.7406 66.6593 51.1337 63.3604 52.5519 63.4279Z" fill="#E0E0E0"/>
<path d="M53.184 61.3666C52.1917 62.1254 52.311 63.5185 52.9174 63.7138C51.3337 63.0398 52.1654 61.8691 53.184 61.3666Z" fill="#E0E0E0"/>
<path d="M53.3633 67.4265C54.0232 67.5081 54.5045 68.3357 54.5629 68.9558C54.6246 69.6498 54.1016 70.2846 53.4957 69.9196C53.0303 69.6298 52.6872 69.1795 52.5314 68.6538C52.3399 67.9977 52.7033 67.3455 53.3633 67.4265Z" fill="#F5F5F5"/>
<path d="M147.073 130.821H148.766V105.853H147.073V130.821Z" fill="#E0E0E0"/>
<path d="M142.106 105.853H161.564V105.2C161.563 104.564 161.311 103.955 160.861 103.506C160.412 103.056 159.802 102.804 159.167 102.804H142.106V105.853H142.106Z" fill="#E0E0E0"/>
<path d="M157.955 130.821H159.648V105.853H157.955V130.821Z" fill="#E0E0E0"/>
<path d="M151.281 124.973L148.779 124.717L148.868 130.662L151.369 130.917L151.281 124.973Z" fill="#FAFAFA"/>
<path d="M148.283 130.472C147.545 130.903 147.838 132.465 146.748 132.445C146.289 132.438 145.271 133.972 146.312 134.179C147.413 134.342 148.524 134.438 149.637 134.466C149.725 134.472 149.812 134.472 149.9 134.466C150.446 134.41 150.95 134.144 151.305 133.725C151.66 133.306 151.839 132.765 151.805 132.217L151.745 130.707C151.74 130.663 151.719 130.622 151.685 130.593C151.651 130.564 151.607 130.548 151.562 130.551L148.723 130.381C148.571 130.369 148.418 130.4 148.283 130.472Z" fill="#E0E0E0"/>
<path d="M148.07 131.538C148.289 131.601 148.514 131.64 148.741 131.653C148.757 131.654 148.772 131.649 148.784 131.639C148.795 131.629 148.803 131.615 148.804 131.6C148.806 131.585 148.801 131.57 148.791 131.558C148.731 131.482 148.195 130.792 147.863 130.822C147.825 130.825 147.789 130.838 147.757 130.859C147.725 130.879 147.699 130.908 147.681 130.942C147.648 130.989 147.628 131.044 147.624 131.101C147.619 131.159 147.63 131.216 147.655 131.268C147.754 131.407 147.903 131.504 148.07 131.538ZM148.61 131.524C148.151 131.474 147.828 131.359 147.76 131.214C147.745 131.18 147.739 131.142 147.743 131.104C147.746 131.067 147.76 131.031 147.781 131C147.789 130.983 147.802 130.969 147.817 130.959C147.832 130.948 147.85 130.942 147.869 130.941C148.047 130.928 148.387 131.256 148.61 131.524Z" fill="#FAFAFA"/>
<path d="M149.713 131.341C149.743 131.292 149.759 131.236 149.76 131.178C149.761 131.12 149.746 131.064 149.718 131.013C149.704 130.978 149.681 130.947 149.651 130.923C149.622 130.9 149.586 130.884 149.549 130.877C149.221 130.815 148.621 131.449 148.553 131.52C148.545 131.528 148.54 131.538 148.537 131.549C148.535 131.561 148.536 131.572 148.541 131.583C148.545 131.593 148.552 131.603 148.562 131.609C148.571 131.615 148.582 131.619 148.594 131.619C148.821 131.628 149.049 131.611 149.273 131.57C149.443 131.552 149.6 131.47 149.713 131.341ZM149.532 130.995C149.55 130.998 149.567 131.006 149.582 131.018C149.596 131.03 149.607 131.045 149.613 131.063C149.632 131.096 149.642 131.133 149.642 131.17C149.642 131.208 149.632 131.245 149.613 131.278C149.532 131.414 149.198 131.497 148.737 131.502C148.985 131.258 149.356 130.965 149.532 130.995Z" fill="#FAFAFA"/>
<path d="M144.866 124.741L142.365 124.486L142.453 130.431L144.956 130.686L144.866 124.741Z" fill="#FAFAFA"/>
<path d="M141.868 130.241C141.13 130.672 141.423 132.234 140.334 132.214C139.875 132.207 138.857 133.74 139.898 133.947C140.999 134.111 142.11 134.207 143.223 134.235C143.52 134.255 143.818 134.21 144.095 134.103C144.373 133.996 144.623 133.829 144.83 133.615C145.036 133.401 145.194 133.144 145.291 132.863C145.387 132.581 145.422 132.282 145.391 131.986L145.331 130.477C145.326 130.432 145.304 130.391 145.27 130.362C145.236 130.333 145.192 130.318 145.148 130.32L142.309 130.15C142.156 130.137 142.003 130.169 141.868 130.241Z" fill="#E0E0E0"/>
<path d="M141.656 131.306C141.875 131.37 142.1 131.408 142.327 131.422C142.335 131.423 142.343 131.422 142.35 131.419C142.357 131.417 142.364 131.413 142.37 131.408C142.375 131.403 142.38 131.397 142.384 131.39C142.387 131.383 142.389 131.376 142.39 131.368C142.391 131.353 142.386 131.338 142.377 131.327C142.317 131.25 141.781 130.56 141.448 130.591C141.41 130.594 141.374 130.606 141.342 130.627C141.311 130.648 141.285 130.677 141.267 130.71C141.234 130.757 141.214 130.812 141.21 130.87C141.205 130.927 141.215 130.985 141.24 131.036C141.34 131.176 141.489 131.272 141.656 131.306ZM142.196 131.292C141.737 131.242 141.414 131.127 141.346 130.983C141.331 130.949 141.324 130.911 141.328 130.873C141.332 130.835 141.345 130.799 141.367 130.769C141.376 130.752 141.388 130.738 141.403 130.728C141.419 130.717 141.436 130.711 141.455 130.709C141.633 130.697 141.973 131.024 142.196 131.292Z" fill="#FAFAFA"/>
<path d="M143.3 131.109C143.33 131.06 143.346 131.004 143.347 130.946C143.348 130.889 143.333 130.832 143.305 130.782C143.291 130.747 143.268 130.716 143.238 130.692C143.209 130.669 143.174 130.653 143.136 130.646C142.808 130.584 142.208 131.218 142.14 131.288C142.135 131.294 142.131 131.3 142.128 131.307C142.125 131.314 142.124 131.321 142.124 131.328C142.123 131.344 142.129 131.358 142.14 131.37C142.15 131.381 142.165 131.387 142.18 131.387C142.408 131.396 142.635 131.38 142.859 131.339C143.03 131.32 143.187 131.239 143.3 131.109ZM143.118 130.764C143.137 130.767 143.154 130.775 143.168 130.787C143.182 130.799 143.193 130.814 143.2 130.832C143.219 130.864 143.228 130.901 143.228 130.939C143.228 130.977 143.219 131.014 143.2 131.047C143.118 131.183 142.785 131.267 142.323 131.271C142.573 131.026 142.943 130.733 143.118 130.764Z" fill="#FAFAFA"/>
<path d="M152.888 94.148C152.888 94.148 154.876 98.3021 153.917 100.797C152.832 103.618 152.117 102.825 147.41 102.766C148.324 110.878 146.168 126.189 146.168 126.189L141.535 125.949C141.535 125.949 141.277 108.926 140.418 101.018C139.826 95.5333 145.524 94.0426 145.524 94.0426L152.888 94.148Z" fill="#E0E0E0"/>
<path opacity="0.1" d="M154.691 103.039V105.853H152.387L152.121 102.804L154.691 103.039Z" fill="black"/>
<path d="M159.302 94.3793C159.302 94.3793 161.29 98.5334 160.332 101.028C159.246 103.85 158.531 103.056 153.824 102.997C154.738 111.109 152.582 126.421 152.582 126.421L147.949 126.181C147.949 126.181 147.691 109.157 146.833 101.249C146.24 95.7646 151.939 94.2745 151.939 94.2745L159.302 94.3793Z" fill="#E6E6E6"/>
<path d="M145.947 74.0681C144.086 76.2721 143.929 76.9185 144.107 78.0308C145.085 83.3715 145.637 88.7815 145.757 94.2097L159.302 94.3794C159.344 90.551 159.108 86.7246 158.596 82.9303C158.196 80.2909 157.63 77.6791 156.904 75.1104C156.74 74.5836 156.407 74.1253 155.957 73.8061C155.507 73.4869 154.965 73.3245 154.413 73.344L145.947 74.0681Z" fill="#E0E0E0"/>
<path d="M149.264 92.9046L149.958 93.9224L147.159 94.7192C147.159 94.7192 145.791 92.4683 146.864 91.9485L147.573 92.0661C147.897 92.0797 148.216 92.1613 148.507 92.3058C148.798 92.4502 149.056 92.6542 149.264 92.9046Z" fill="#FAFAFA"/>
<path d="M149.737 95.854L148.076 96.0269L147.16 94.7173L149.956 93.9225L149.737 95.854Z" fill="#FAFAFA"/>
<path d="M142.804 79.6339C141.142 81.6785 140.608 85.6142 140.993 87.0645C141.669 89.6116 144.728 92.3456 147.066 93.5601C147.856 93.9707 147.499 93.8075 148.077 93.1302C148.712 92.3855 147.52 91.1781 146.861 90.4533C145.751 89.2305 144.928 88.1889 144.636 86.5633C144.548 85.5287 144.683 84.4872 145.034 83.5098C145.384 82.527 145.4 81.4562 145.079 80.4635C144.668 79.5138 142.804 79.6339 142.804 79.6339Z" fill="#FAFAFA"/>
<path d="M147.233 84.3117L141.359 83.0215C141.568 81.1564 141.945 79.3139 142.486 77.5167C143.443 74.1484 145.757 73.1171 147.585 74.9355C149.466 76.7996 148.344 81.1015 147.233 84.3117Z" fill="#E0E0E0"/>
<path opacity="0.1" d="M158.019 83.9608C158.019 83.9608 154.781 86.1994 154.097 83.565C153.413 80.9305 151.49 76.2719 155.276 75.3717C156.537 77.3027 157.375 79.4788 157.734 81.7568C157.842 82.4251 157.938 83.1691 158.019 83.9608Z" fill="black"/>
<path d="M153.789 92.3263L154.497 92.2087C155.57 92.7279 154.201 94.9794 154.201 94.9794L151.403 94.1827L152.097 93.1649C152.304 92.9142 152.562 92.71 152.853 92.5655C153.145 92.4211 153.464 92.3396 153.789 92.3263Z" fill="#FAFAFA"/>
<path d="M151.402 94.1826L154.199 94.9775L153.282 96.287L151.621 96.1141L151.402 94.1826Z" fill="#FAFAFA"/>
<path d="M158.554 79.8947C160.217 81.9394 160.751 85.8744 160.366 87.3246C159.69 89.8717 156.631 92.6058 154.292 93.8203C153.503 94.2308 153.86 94.0676 153.282 93.3904C152.646 92.6463 153.839 91.4383 154.497 90.7135C155.608 89.4913 156.43 88.4491 156.723 86.8234C156.811 85.7889 156.675 84.7474 156.325 83.77C155.975 82.7872 155.959 81.7164 156.28 80.7236C156.69 79.7739 158.554 79.8947 158.554 79.8947Z" fill="#FAFAFA"/>
<path d="M160.36 81.2198L154.822 83.5651C153.912 81.9239 153.153 80.2036 152.554 78.4253C151.391 75.1367 152.674 72.9603 155.224 73.3806C157.832 73.8124 159.398 77.9684 160.36 81.2198Z" fill="#E0E0E0"/>
<path d="M151.817 71.6495C152.663 72.7225 153.841 70.3586 153.753 68.819C153.699 67.8841 150.97 70.577 151.817 71.6495Z" fill="#E0E0E0"/>
<path d="M152.822 74.465C153.061 75.0022 153.05 75.328 152.522 75.5863C151.446 76.166 150.213 76.3862 149.003 76.2147C147.754 76.0187 147.531 75.576 147.581 75.2162C147.609 75.0713 147.678 74.9374 147.78 74.8305C147.881 74.7235 148.011 74.648 148.155 74.6128C149.503 74.2421 149.413 73.7781 149.341 73.1716C149.317 72.8982 149.244 72.6316 149.124 72.3844L151.275 70.7087L152.856 69.4781C152.446 70.9959 152.136 72.9441 152.822 74.465Z" fill="#F5F5F5"/>
<path opacity="0.1" d="M149.117 72.3762C149.127 72.3874 149.136 72.3999 149.143 72.4135C149.24 72.6534 149.304 72.9055 149.333 73.1627L149.355 73.3188C149.76 73.1779 150.125 72.9408 150.418 72.6279C150.711 72.315 150.924 71.9356 151.038 71.5222C151.06 71.3066 151.065 71.0897 151.054 70.8732C151.047 70.8206 151.042 70.7711 151.037 70.7255L149.645 71.9675L149.117 72.3762Z" fill="black"/>
<path d="M147.646 67.7953C146.053 68.1802 145.615 65.7269 146.187 65.1094C147.199 64.0164 149.24 67.4098 147.646 67.7953Z" fill="#E0E0E0"/>
<path d="M153.145 65.2456C153.009 64.8199 152.791 64.425 152.502 64.0837C152.214 63.7424 151.861 63.4613 151.464 63.2565C151.066 63.0516 150.633 62.927 150.187 62.8899C149.742 62.8527 149.294 62.9036 148.868 63.0397C146.423 63.8371 145.884 67.4425 146.287 69.6773C146.733 72.1615 149.684 73.5018 151.648 71.7509C152.947 70.5943 153.003 69.1575 153.279 66.7196C153.343 66.2244 153.298 65.7212 153.145 65.2456Z" fill="#F5F5F5"/>
<path d="M153.994 67.5904C154.113 67.1731 154.128 66.7329 154.038 66.3085C153.88 65.8658 153.569 65.6119 153.525 65.0985C153.488 64.6481 153.55 64.1913 153.488 63.7427C153.443 63.3681 153.297 63.013 153.064 62.7162C152.831 62.4193 152.521 62.1923 152.168 62.0599C151.572 61.9561 150.965 61.9248 150.361 61.9667C149.759 61.8882 149.168 61.749 148.595 61.551C148.019 61.3533 147.399 61.3173 146.804 61.4469C146.509 61.5183 146.244 61.6814 146.047 61.9127C145.85 62.144 145.731 62.4317 145.708 62.7346C145.72 62.9393 145.76 63.1414 145.829 63.3347C145.98 63.8359 146.131 64.3371 146.282 64.8383C146.295 64.892 146.318 64.9431 146.348 64.9893C146.469 65.1512 146.72 65.0985 146.915 65.042C147.486 64.8855 148.084 64.8438 148.672 64.9194C149.26 64.9949 149.827 65.1862 150.341 65.4821C150.867 65.727 151.298 66.1373 151.568 66.6503C151.754 67.2808 152.024 67.8834 152.37 68.4418C152.374 68.3726 152.392 68.3049 152.424 68.2431C152.455 68.1814 152.499 68.1268 152.553 68.0828C152.606 68.0389 152.668 68.0066 152.735 67.988C152.802 67.9693 152.872 67.9648 152.94 67.9746C153.078 68.0032 153.206 68.0672 153.312 68.1603C153.417 68.2533 153.497 68.3723 153.542 68.5054C153.62 68.724 153.661 68.9539 153.664 69.1858C153.815 68.6634 153.926 68.13 153.994 67.5904Z" fill="#E0E0E0"/>
<path d="M153.343 67.4265C152.683 67.5081 152.201 68.3351 152.143 68.9551C152.081 69.6497 152.605 70.2846 153.21 69.919C153.676 69.6296 154.019 69.1794 154.175 68.6538C154.366 67.9977 154.003 67.3449 153.343 67.4265Z" fill="#F5F5F5"/>
<path d="M171.81 130.821H173.504V105.853H171.81V130.821Z" fill="#E0E0E0"/>
<path d="M166.843 105.853H186.3V105.2C186.3 104.564 186.048 103.955 185.598 103.506C185.149 103.056 184.539 102.804 183.904 102.804H166.843V105.853Z" fill="#E0E0E0"/>
<path d="M182.692 130.821H184.385V105.853H182.692V130.821Z" fill="#E0E0E0"/>
<path d="M176.017 124.973L173.514 124.717L173.604 130.662L176.106 130.917L176.017 124.973Z" fill="#FAFAFA"/>
<path d="M173.02 130.472C172.282 130.903 172.575 132.465 171.485 132.445C171.027 132.439 170.009 133.972 171.05 134.179C172.151 134.342 173.261 134.439 174.374 134.466C174.462 134.472 174.55 134.472 174.637 134.466C175.184 134.41 175.687 134.144 176.042 133.725C176.397 133.306 176.576 132.765 176.542 132.217L176.482 130.708C176.477 130.663 176.455 130.622 176.421 130.593C176.387 130.564 176.343 130.549 176.299 130.551L173.461 130.381C173.308 130.369 173.155 130.401 173.02 130.472Z" fill="#E0E0E0"/>
<path d="M172.808 131.538C173.026 131.601 173.251 131.64 173.478 131.653C173.494 131.654 173.509 131.649 173.521 131.639C173.533 131.629 173.54 131.615 173.541 131.6C173.543 131.585 173.538 131.57 173.529 131.558C173.468 131.482 172.932 130.792 172.6 130.822C172.562 130.825 172.526 130.838 172.494 130.859C172.462 130.879 172.436 130.908 172.418 130.942C172.385 130.989 172.366 131.044 172.361 131.101C172.356 131.159 172.367 131.216 172.392 131.268C172.491 131.407 172.64 131.504 172.808 131.538ZM173.347 131.524C172.889 131.474 172.565 131.359 172.497 131.214C172.482 131.18 172.476 131.142 172.48 131.104C172.483 131.067 172.497 131.031 172.519 131C172.527 130.983 172.539 130.969 172.555 130.959C172.57 130.948 172.588 130.942 172.607 130.941C172.785 130.928 173.124 131.256 173.347 131.524Z" fill="#FAFAFA"/>
<path d="M174.451 131.341C174.481 131.292 174.497 131.236 174.498 131.178C174.499 131.121 174.485 131.064 174.456 131.013C174.442 130.978 174.419 130.948 174.389 130.924C174.36 130.9 174.325 130.884 174.287 130.877C173.96 130.815 173.359 131.449 173.292 131.52C173.284 131.528 173.278 131.538 173.276 131.549C173.274 131.561 173.275 131.572 173.279 131.583C173.283 131.593 173.291 131.603 173.3 131.609C173.309 131.615 173.321 131.619 173.332 131.619C173.56 131.628 173.787 131.611 174.011 131.57C174.181 131.552 174.338 131.47 174.451 131.341ZM174.27 130.995C174.288 130.998 174.306 131.006 174.32 131.018C174.334 131.03 174.345 131.045 174.351 131.063C174.37 131.096 174.38 131.133 174.38 131.17C174.38 131.208 174.37 131.245 174.351 131.278C174.27 131.414 173.936 131.497 173.475 131.502C173.723 131.258 174.093 130.965 174.27 130.995Z" fill="#FAFAFA"/>
<path d="M169.603 124.741L167.102 124.486L167.19 130.431L169.693 130.686L169.603 124.741Z" fill="#FAFAFA"/>
<path d="M166.606 130.241C165.867 130.672 166.16 132.234 165.071 132.214C164.612 132.207 163.594 133.74 164.635 133.947C165.736 134.111 166.847 134.207 167.96 134.235C168.256 134.255 168.554 134.21 168.832 134.103C169.109 133.996 169.36 133.829 169.566 133.615C169.773 133.401 169.93 133.144 170.027 132.863C170.124 132.581 170.158 132.282 170.128 131.986L170.067 130.477C170.063 130.432 170.041 130.391 170.007 130.362C169.973 130.333 169.929 130.318 169.885 130.32L167.046 130.15C166.893 130.137 166.74 130.169 166.606 130.241Z" fill="#E0E0E0"/>
<path d="M166.394 131.306C166.612 131.37 166.837 131.408 167.064 131.422C167.072 131.423 167.08 131.422 167.087 131.419C167.094 131.417 167.101 131.413 167.107 131.408C167.113 131.403 167.117 131.397 167.121 131.39C167.124 131.383 167.126 131.376 167.127 131.368C167.128 131.353 167.124 131.338 167.114 131.327C167.054 131.25 166.518 130.56 166.185 130.591C166.148 130.594 166.111 130.606 166.08 130.627C166.048 130.648 166.022 130.677 166.004 130.71C165.971 130.757 165.952 130.812 165.947 130.87C165.942 130.927 165.953 130.985 165.977 131.036C166.077 131.176 166.226 131.272 166.394 131.306ZM166.933 131.292C166.474 131.242 166.15 131.127 166.083 130.983C166.067 130.949 166.061 130.911 166.065 130.873C166.069 130.835 166.082 130.799 166.104 130.769C166.112 130.752 166.124 130.738 166.14 130.728C166.155 130.717 166.173 130.711 166.191 130.709C166.37 130.697 166.71 131.024 166.933 131.292Z" fill="#FAFAFA"/>
<path d="M168.036 131.109C168.066 131.06 168.082 131.004 168.083 130.946C168.084 130.889 168.069 130.832 168.041 130.782C168.027 130.747 168.004 130.716 167.974 130.692C167.945 130.668 167.91 130.653 167.872 130.646C167.544 130.584 166.944 131.218 166.876 131.288C166.868 131.297 166.863 131.307 166.861 131.318C166.858 131.329 166.86 131.341 166.864 131.351C166.868 131.362 166.875 131.371 166.885 131.377C166.894 131.384 166.905 131.387 166.917 131.387C167.144 131.396 167.372 131.38 167.595 131.339C167.766 131.321 167.923 131.239 168.036 131.109ZM167.855 130.764C167.873 130.767 167.89 130.775 167.905 130.787C167.919 130.799 167.93 130.814 167.936 130.832C167.955 130.864 167.965 130.901 167.965 130.939C167.965 130.977 167.955 131.014 167.936 131.047C167.855 131.183 167.521 131.267 167.06 131.271C167.309 131.026 167.679 130.733 167.855 130.764Z" fill="#FAFAFA"/>
<path d="M177.626 94.1474C177.626 94.1474 179.614 98.3021 178.655 100.797C177.57 103.618 176.854 102.825 172.148 102.766C173.062 110.878 170.906 126.189 170.906 126.189L166.273 125.949C166.273 125.949 166.015 108.926 165.156 101.018C164.564 95.5334 171.432 93.5941 171.432 93.5941L177.626 94.1474Z" fill="#E0E0E0"/>
<path d="M171.562 125.568L164.789 124.645L164.839 127.841L171.023 128.54L171.562 125.568Z" fill="#E0E0E0"/>
<path opacity="0.1" d="M179.429 103.039V105.853H177.124L176.858 102.804L179.429 103.039Z" fill="black"/>
<path d="M184.039 94.3793C184.039 94.3793 186.028 98.534 185.068 101.029C183.984 103.85 183.268 103.056 178.561 102.998C179.475 111.11 177.319 126.421 177.319 126.421L172.686 126.181C172.686 126.181 172.429 109.157 171.57 101.249C170.977 95.7653 176.676 94.2745 176.676 94.2745L184.039 94.3793Z" fill="#E6E6E6"/>
<path d="M177.977 125.8L171.203 124.876L171.254 128.072L177.436 128.771L177.977 125.8Z" fill="#E0E0E0"/>
<path d="M171.686 73.689C171.47 73.5689 171.232 73.4945 170.985 73.4704C170.739 73.4463 170.491 73.473 170.255 73.5488C170.02 73.6247 169.803 73.748 169.617 73.9113C169.431 74.0746 169.281 74.2742 169.175 74.498C167.645 77.642 165.986 84.5276 166.319 85.7845C166.942 88.1285 167.468 92.5558 169.371 94.1936C169.569 94.3692 169.824 94.4679 170.089 94.472C170.354 94.476 170.612 94.385 170.816 94.2155C171.645 93.4823 170.785 90.3627 170.019 87.6627C169.293 85.1021 169.677 85.1021 170.749 80.7166C170.994 79.711 171.604 78.2254 171.864 77.2237C172.125 76.2213 172.55 75.1277 172.139 74.1773C172.044 73.9705 171.885 73.7993 171.686 73.689Z" fill="#E0E0E0"/>
<path d="M172.436 94.15L173.13 95.1671L170.332 95.9639C170.332 95.9639 168.963 93.713 170.036 93.1938L170.744 93.3108C171.069 93.3244 171.388 93.4062 171.679 93.5507C171.971 93.6953 172.229 93.8994 172.436 94.15Z" fill="#FAFAFA"/>
<path d="M172.91 97.0985L171.249 97.2714L170.333 95.9618L173.13 95.167L172.91 97.0985Z" fill="#FAFAFA"/>
<path d="M171.264 73.3425C168.372 80.11 169.79 79.6698 171.379 85.2157C173.819 93.7347 170.863 93.4649 170.381 93.5433L175.78 95.6457L184.134 94.5861C182.989 89.7033 180.283 88.5795 179.791 85.6141C179.278 80.1183 182.914 77.3437 182.251 75.2194C182.151 74.8315 181.971 74.4685 181.724 74.153C181.477 73.8375 181.168 73.5763 180.815 73.3856C179.934 72.8879 178.921 72.6743 177.914 72.7739L171.264 73.3425Z" fill="#EBEBEB"/>
<path opacity="0.1" d="M179.171 82.1933C179.301 82.5846 179.562 83.0331 179.974 83.017C180.678 81.2702 181.128 79.4316 181.311 77.5572C181.362 77.347 181.362 77.1277 181.311 76.9174C181.261 76.7071 181.161 76.5119 181.02 76.3479C179.929 75.4406 179.107 77.3888 178.954 78.0944C178.66 79.4555 178.735 80.8707 179.171 82.1933Z" fill="black"/>
<path d="M181.705 74.4786C183.367 76.5233 183.926 86.8665 183.54 88.3174C182.864 90.8639 179.805 93.598 177.467 94.813C176.677 95.2236 177.034 95.0598 176.457 94.3832C175.821 93.6384 177.013 92.4311 177.672 91.7056C178.783 90.4835 179.605 89.4419 179.897 87.8162C180.081 86.7971 180.325 84.3098 179.966 83.3382C178.965 80.6221 179.019 76.2585 179.43 75.3088C179.841 74.3585 181.705 74.4786 181.705 74.4786Z" fill="#E0E0E0"/>
<path d="M177.536 73.4782C177.818 73.9942 177.834 74.3199 177.331 74.6206C176.306 75.2876 175.096 75.6096 173.876 75.5395C172.615 75.4476 172.356 75.0248 172.376 74.6618C172.392 74.5151 172.449 74.3761 172.541 74.2611C172.634 74.1461 172.757 74.0601 172.897 74.0134C174.21 73.5315 174.082 73.0766 173.96 72.4784C173.913 72.2081 173.818 71.9486 173.678 71.7124L175.682 69.8644L177.156 68.5067C176.873 70.0527 176.726 72.0196 177.536 73.4782Z" fill="#F5F5F5"/>
<path opacity="0.1" d="M173.67 71.7047C173.682 71.7147 173.691 71.7264 173.7 71.7394C173.816 71.9705 173.901 72.2165 173.951 72.4706L173.986 72.6242C174.378 72.4502 174.722 72.1837 174.988 71.8474C175.254 71.5112 175.435 71.1154 175.514 70.6939C175.518 70.4774 175.506 70.2609 175.476 70.0463C175.465 69.9942 175.456 69.9454 175.447 69.9004L174.163 71.253L173.67 71.7047Z" fill="black"/>
<path d="M177.094 64.264C176.748 63.4301 176.086 62.7675 175.252 62.4219C174.419 62.0763 173.482 62.076 172.648 62.4211C170.277 63.419 170.04 67.0572 170.627 69.2503C171.277 71.6888 174.329 72.7798 176.141 70.8721C177.34 69.6114 177.277 68.1746 177.349 65.722C177.372 65.2231 177.284 64.7254 177.094 64.264Z" fill="#F5F5F5"/>
<path d="M176.919 93.3185L177.627 93.2009C178.701 93.7201 177.332 95.9716 177.332 95.9716L174.534 95.1749L175.228 94.157C175.435 93.9066 175.693 93.7026 175.984 93.5581C176.276 93.4137 176.594 93.332 176.919 93.3185Z" fill="#FAFAFA"/>
<path d="M174.532 95.1747L177.329 95.9695L176.413 97.2791L174.752 97.1062L174.532 95.1747Z" fill="#FAFAFA"/>
<path d="M172.213 62.4634C171.823 62.4228 171.429 62.4723 171.061 62.6081C170.693 62.7439 170.361 62.9624 170.091 63.2467C169.556 63.819 169.114 64.4708 168.779 65.1788C168.603 65.4154 168.484 65.689 168.43 65.9788C168.376 66.2686 168.389 66.5668 168.468 66.8508C168.605 67.1418 168.884 67.3507 169.008 67.6475C169.12 68.0153 169.084 68.4121 168.909 68.754C168.733 69.0918 168.608 69.4536 168.538 69.8277C168.507 70.0158 168.54 70.2087 168.631 70.376C168.723 70.5433 168.867 70.6755 169.042 70.7517C169.211 70.8031 169.412 70.7819 169.548 70.8963C169.743 71.0582 169.672 71.3789 169.525 71.5858C169.349 71.7678 169.208 71.9817 169.112 72.2161C169.094 72.3863 169.122 72.5581 169.192 72.714C169.263 72.87 169.373 73.0046 169.512 73.1041C169.792 73.2995 170.041 73.5358 170.251 73.8052C170.3 73.8738 170.335 73.9515 170.354 74.0338C170.372 74.1161 170.374 74.2012 170.36 74.2843C170.345 74.3674 170.314 74.4468 170.269 74.5177C170.223 74.5887 170.164 74.6499 170.094 74.6977C170.978 74.6413 171.816 74.2823 172.466 73.6812C172.706 73.4832 172.88 73.2176 172.966 72.9191C173.006 72.7693 172.995 72.6109 172.937 72.4674C172.879 72.3238 172.777 72.2028 172.644 72.1223C172.551 72.076 172.445 72.0568 172.353 72.0079C171.937 71.7895 172.019 71.1572 172.267 70.7582C172.515 70.3591 172.881 69.9755 172.854 69.5058C172.813 68.7765 171.898 68.4533 171.528 67.8236C171.405 67.5738 171.342 67.299 171.344 67.0208C171.346 66.7426 171.412 66.4686 171.538 66.2204C171.793 65.7274 172.087 65.2557 172.418 64.81C172.808 64.2072 173.106 63.55 173.302 62.8598C173.362 62.7134 173.366 62.5506 173.315 62.4011C173.259 62.3092 173.172 62.2397 173.07 62.2041C172.968 62.1686 172.857 62.1691 172.756 62.2057C172.555 62.2852 172.375 62.4106 172.231 62.572C172.111 62.4351 172.213 62.4634 172.213 62.4634Z" fill="#E0E0E0"/>
<path d="M175.987 65.9487C176.195 65.9382 176.403 65.969 176.599 66.0393C176.696 66.0771 176.775 66.1497 176.821 66.2427C176.867 66.3358 176.877 66.4426 176.848 66.5424C177.04 66.5398 177.231 66.5377 177.423 66.536C177.564 66.8246 177.638 67.1419 177.637 67.4634C177.637 67.7849 177.563 68.1021 177.421 68.3904C177.131 68.97 177.061 69.6348 177.223 70.2622C177.317 70.417 177.374 70.5913 177.39 70.7717C177.365 71.1251 176.894 71.3333 176.897 71.688C176.9 72.0781 177.472 72.2747 177.484 72.6647C177.489 72.8433 177.37 73.0033 177.347 73.18C177.288 73.6343 177.825 73.9081 178.262 74.0411C177.939 74.0372 177.878 73.563 178.003 73.2642C178.127 72.9654 178.325 72.621 178.152 72.3479C178.07 72.2168 177.919 72.1423 177.836 72.0112C177.633 71.6899 177.949 71.2941 178.251 71.0628C178.554 70.8315 178.911 70.5064 178.792 70.1452C178.661 70.2001 178.512 70.202 178.379 70.1505C178.246 70.099 178.138 69.9982 178.077 69.8689C178.021 69.7368 177.996 69.5943 178.001 69.4513C178.007 69.3082 178.044 69.1681 178.109 69.0407C178.241 68.7874 178.393 68.5454 178.565 68.3172C178.992 67.6715 179.238 66.9237 179.279 66.1509C179.321 65.3782 179.155 64.6084 178.8 63.9209C178.444 63.2335 177.912 62.6533 177.258 62.2401C176.603 61.8269 175.851 61.5957 175.077 61.5703C174.597 61.5347 174.117 61.6411 173.696 61.8762C173.489 61.9967 173.318 62.1713 173.202 62.3814C173.086 62.5914 173.029 62.829 173.038 63.0688C172.747 62.7243 173.005 65.8305 175.987 65.9487Z" fill="#E0E0E0"/>
<path d="M177.471 66.421C177.15 66.5518 176.876 66.777 176.685 67.0667C176.494 67.3565 176.395 67.6972 176.402 68.0441C176.398 68.7413 176.973 69.3312 177.547 68.9161C177.986 68.5887 178.291 68.1117 178.402 67.5751C178.539 66.9055 178.122 66.2848 177.471 66.421Z" fill="#F5F5F5"/>
<path d="M105.121 54.7522C105.121 54.7522 105.06 58.1867 105.809 58.9365C106.559 59.6864 109.994 59.6254 109.994 59.6254C109.994 59.6254 106.559 59.565 105.809 60.3148C105.06 61.0647 105.121 64.4992 105.121 64.4992C105.121 64.4992 105.181 61.0647 104.431 60.3148C103.681 59.565 100.247 59.6254 100.247 59.6254C100.247 59.6254 103.681 59.6858 104.431 58.9365C105.182 58.1867 105.121 54.7522 105.121 54.7522Z" fill="#F0F0F0"/>
</g>
<path d="M100.62 166.335C151.892 166.335 193.458 163.907 193.458 160.913C193.458 157.919 151.892 155.492 100.62 155.492C49.3463 155.492 7.78123 157.919 7.78123 160.913C7.78123 163.907 49.3463 166.335 100.62 166.335Z" fill="#5E5E5E" fill-opacity="0.08"/>
<path d="M112.161 69.4551H113.09V53.3918C113.085 46.0647 110.521 38.9696 105.84 33.3321L101.335 27.9124L100.62 28.5066L105.126 33.9264C109.667 39.3969 112.156 46.2818 112.161 53.3918V69.4551Z" fill="#263238"/>
<path d="M100.187 28.6774C100.127 29.0517 100.188 29.4353 100.359 29.7732C100.531 30.111 100.806 30.3858 101.143 30.5581C101.481 30.7304 101.864 30.7913 102.239 30.732C102.613 30.6728 102.959 30.4965 103.227 30.2284C103.495 29.9604 103.671 29.6143 103.73 29.2399C103.789 28.8655 103.728 28.482 103.556 28.1444C103.383 27.8069 103.108 27.5326 102.77 27.361C102.433 27.1894 102.049 27.1293 101.675 27.1892C101.302 27.2491 100.957 27.4252 100.69 27.6924C100.423 27.9596 100.247 28.3043 100.187 28.6774Z" fill="#263238"/>
<path d="M122.716 57.037V66.8527C122.716 67.1511 122.597 67.4373 122.386 67.6483C122.175 67.8593 121.889 67.9778 121.591 67.9778H117.82C117.672 67.9779 117.526 67.9488 117.39 67.8923C117.253 67.8358 117.129 67.7529 117.024 67.6484C116.92 67.5439 116.837 67.4199 116.781 67.2833C116.724 67.1468 116.695 67.0005 116.695 66.8527V57.037C116.695 56.3993 116.898 55.7781 117.274 55.2632C117.65 54.7483 118.18 54.3663 118.788 54.1725V53.5004H120.556V54.1558C121.04 54.2932 121.48 54.553 121.834 54.9101C122.114 55.189 122.336 55.5205 122.488 55.8855C122.639 56.2505 122.716 56.6419 122.716 57.037Z" fill="#407BFF"/>
<path opacity="0.7" d="M122.716 57.037V66.8527C122.716 67.1511 122.597 67.4373 122.386 67.6483C122.175 67.8593 121.889 67.9778 121.591 67.9778H117.82C117.672 67.9779 117.526 67.9488 117.39 67.8923C117.253 67.8358 117.129 67.7529 117.024 67.6484C116.92 67.5439 116.837 67.4199 116.781 67.2833C116.724 67.1468 116.695 67.0005 116.695 66.8527V57.037C116.695 56.3993 116.898 55.7781 117.274 55.2632C117.65 54.7483 118.18 54.3663 118.788 54.1725V53.5004H120.556V54.1558C121.04 54.2932 121.48 54.553 121.834 54.9101C122.114 55.189 122.336 55.5205 122.488 55.8855C122.639 56.2505 122.716 56.6419 122.716 57.037Z" fill="white"/>
<path d="M120.811 52.047H118.528V53.4998H120.811V52.047Z" fill="#407BFF"/>
<path d="M61.0142 71.1816H134.563C135.021 71.1816 135.46 70.9997 135.784 70.6759C136.108 70.3521 136.29 69.913 136.29 69.4551C136.29 68.9972 136.108 68.558 135.784 68.2342C135.46 67.9104 135.021 67.7285 134.563 67.7285H61.0142C60.5563 67.7285 60.1172 67.9104 59.7934 68.2342C59.4696 68.558 59.2877 68.9972 59.2877 69.4551C59.2877 69.913 59.4696 70.3521 59.7934 70.6759C60.1172 70.9997 60.5563 71.1816 61.0142 71.1816Z" fill="#407BFF"/>
<path opacity="0.3" d="M61.0149 71.1816H113.194C113.652 71.1816 114.091 70.9997 114.415 70.6759C114.738 70.3521 114.92 69.913 114.92 69.4551C114.92 68.9972 114.738 68.558 114.415 68.2342C114.091 67.9104 113.652 67.7285 113.194 67.7285H61.0149C60.557 67.7285 60.1178 67.9104 59.794 68.2342C59.4702 68.558 59.2883 68.9972 59.2883 69.4551C59.2883 69.913 59.4702 70.3521 59.794 70.6759C60.1178 70.9997 60.557 71.1816 61.0149 71.1816Z" fill="black"/>
<path d="M134.956 71.1816H62.8243L68.5585 148.921L130.934 148.589L134.956 71.1816Z" fill="#407BFF"/>
<path d="M59.2845 162.319H138.097V148.59H59.2845V162.319Z" fill="#407BFF"/>
<path opacity="0.3" d="M59.2851 162.319H116.209V148.664H59.2851V162.319Z" fill="black"/>
<path opacity="0.3" d="M62.8256 71.1817L68.5354 148.59H109.033L110.953 71.1239L62.8256 71.1817Z" fill="black"/>
<path opacity="0.3" d="M86.89 71.1817L90.9118 148.59H108.913L110.954 71.1239L86.89 71.1817Z" fill="black"/>
<path d="M104.871 64.988L79.7692 65.0246L81.1385 49.1097L106.24 49.0737L104.871 64.988Z" fill="#407BFF"/>
<path d="M104.528 66.2346L79.7917 66.27C79.629 66.2731 79.4676 66.2416 79.318 66.1775C79.1685 66.1134 79.0343 66.0182 78.9245 65.8982C78.8146 65.7782 78.7316 65.6361 78.6809 65.4815C78.6302 65.3269 78.6131 65.1633 78.6306 65.0016L79.9915 49.1863C80.0261 48.8422 80.1856 48.5227 80.4398 48.2882C80.694 48.0538 81.0253 47.9207 81.3711 47.914L106.107 47.878C106.27 47.8748 106.431 47.9062 106.581 47.9703C106.73 48.0344 106.865 48.1296 106.974 48.2496C107.084 48.3696 107.167 48.5117 107.218 48.6664C107.269 48.821 107.286 48.9847 107.268 49.1464L105.908 64.9624C105.873 65.3064 105.713 65.6257 105.459 65.8601C105.205 66.0944 104.873 66.2277 104.528 66.2346Z" fill="#263238"/>
<path d="M104.871 64.988L79.7692 65.0246L81.1385 49.1097L106.24 49.0737L104.871 64.988Z" fill="#407BFF"/>
<path opacity="0.9" d="M104.871 64.988L79.7692 65.0246L81.1385 49.1097L106.24 49.0737L104.871 64.988Z" fill="white"/>
<path d="M103.229 53.6959L98.6206 53.7023L98.8435 51.1096L103.452 51.1031L103.229 53.6959Z" fill="#407BFF"/>
<path d="M102.789 58.8105L98.1798 58.8169L98.4027 56.2242L103.012 56.2172L102.789 58.8105Z" fill="#407BFF"/>
<path d="M102.349 63.9246L97.7396 63.9311L97.9626 61.3383L102.572 61.3319L102.349 63.9246Z" fill="#407BFF"/>
<path opacity="0.1" d="M100.743 47.8594L95.8665 66.2044L97.516 66.2018L102.338 47.8568L100.743 47.8594Z" fill="white"/>
<path opacity="0.1" d="M103.288 47.8556L98.4117 66.2006L101.683 66.1955L106.506 47.8505L103.288 47.8556Z" fill="white"/>
<path d="M82.5528 61.9668L82.5399 62.1152L95.8415 62.0959L95.8543 61.9481L82.5528 61.9668Z" fill="#407BFF"/>
<path d="M95.9996 60.2556L82.7147 60.2749L83.5044 51.0972L96.7893 51.0786L95.9996 60.2556Z" fill="#407BFF"/>
<path d="M83.0842 63.8925C82.997 63.894 82.9105 63.877 82.8304 63.8425C82.7503 63.8081 82.6784 63.757 82.6196 63.6926C82.5608 63.6282 82.5163 63.5521 82.4892 63.4693C82.462 63.3864 82.4528 63.2987 82.4622 63.212C82.4809 63.0277 82.5665 62.8565 82.7027 62.7309C82.839 62.6053 83.0165 62.534 83.2018 62.5303C83.2889 62.5286 83.3754 62.5456 83.4555 62.58C83.5356 62.6144 83.6074 62.6654 83.6662 62.7297C83.7251 62.794 83.7695 62.8701 83.7967 62.953C83.8239 63.0358 83.8331 63.1234 83.8237 63.2101C83.8051 63.3946 83.7196 63.5658 83.5834 63.6915C83.4471 63.8173 83.2695 63.8888 83.0842 63.8925Z" fill="#407BFF"/>
<path d="M89.2598 61.3936L82.6177 61.4032L82.6684 60.8159L89.3105 60.8063L89.2598 61.3936Z" fill="#407BFF"/>
<path d="M95.7136 63.4864L93.1472 63.4903L93.1974 62.9036L95.7637 62.9004L95.7136 63.4864Z" fill="#407BFF"/>
<path d="M95.9025 61.3839L95.3159 61.3845L95.3666 60.7979L95.9526 60.7972L95.9025 61.3839Z" fill="#407BFF"/>
<path d="M94.9085 61.3854L94.3218 61.386L94.372 60.7993L94.9586 60.7987L94.9085 61.3854Z" fill="#407BFF"/>
<path d="M93.9145 61.3872H93.3278L93.3786 60.8006L93.9646 60.7999L93.9145 61.3872Z" fill="#407BFF"/>
<path opacity="0.2" d="M89.2598 61.3936L82.6177 61.4032L82.6684 60.8159L89.3105 60.8063L89.2598 61.3936Z" fill="white"/>
<path opacity="0.2" d="M95.8543 61.9481L82.5528 61.9668L82.5399 62.1152L95.8415 62.0959L95.8543 61.9481Z" fill="black"/>
<path d="M92.862 56.9099C92.862 56.9022 92.8568 56.897 92.8536 56.8906C92.8537 56.887 92.8531 56.8835 92.8517 56.8802C92.8504 56.8768 92.8484 56.8738 92.8459 56.8713C92.8434 56.8688 92.8404 56.8668 92.837 56.8655C92.8337 56.8641 92.8302 56.8635 92.8266 56.8636C92.8195 56.8604 92.8144 56.8552 92.8073 56.8552L92.3543 56.8585L92.3595 56.6201L92.3948 56.6194L92.3935 56.4241H92.3588L92.3209 55.3491L92.2978 55.3382C92.1475 55.2629 91.9815 55.2243 91.8134 55.2256C91.6453 55.2268 91.4799 55.2678 91.3307 55.3452L91.3089 55.3562L91.2858 56.4318H91.2543L91.2556 56.6271H91.287L91.2954 56.8655L90.8437 56.8687C90.836 56.8687 90.8295 56.8745 90.8238 56.8771C90.8167 56.8803 90.809 56.881 90.8045 56.8861C90.7993 56.8912 90.7993 56.8989 90.7961 56.9054C90.7942 56.9124 90.7884 56.9169 90.7884 56.9246V56.9259C90.7928 57.0881 90.8098 57.2496 90.8392 57.4091C90.6529 57.3353 90.4621 57.2735 90.2679 57.2241C90.1567 57.1956 90.0442 57.1728 89.9306 57.156C89.876 57.1052 89.833 57.0431 89.8046 56.9741C89.7762 56.9052 89.7631 56.8308 89.7661 56.7563C89.7825 56.6552 89.8094 56.5562 89.8464 56.4607L89.8239 56.4447C90.0486 56.3798 90.2522 56.257 90.4143 56.0884C90.5764 55.9199 90.6912 55.7117 90.7473 55.4847C90.814 55.4366 90.8673 55.3722 90.9022 55.2977C91.0737 55.2829 91.2093 54.9655 91.2061 54.5748C91.2035 54.2028 91.0769 53.9014 90.9163 53.8622C90.9631 53.714 90.9768 53.5573 90.9564 53.4031C90.9359 53.249 90.8819 53.1013 90.7981 52.9703C90.6264 52.787 90.4154 52.6448 90.1809 52.5547C89.9464 52.4646 89.6945 52.4287 89.4442 52.4499C89.1387 52.3954 88.8245 52.4183 88.5301 52.5164C88.2357 52.6145 87.9705 52.7847 87.7588 53.0115C87.6644 53.161 87.6019 53.3284 87.5751 53.5032C87.5484 53.678 87.5579 53.8564 87.6033 54.0274C87.5149 54.2051 87.4727 54.4022 87.4805 54.6005C87.4831 54.9912 87.6225 55.306 87.7947 55.3189C87.8686 55.4564 87.9612 55.5412 88.0633 55.5406C88.0981 55.5378 88.1319 55.5279 88.1627 55.5114C88.1934 55.4949 88.2204 55.4723 88.242 55.4448C88.3115 55.7075 88.4515 55.9461 88.6468 56.1349C88.6846 56.5079 88.5852 56.8818 88.3673 57.1868C88.0793 57.2403 87.8021 57.3408 87.5467 57.4843C87.1898 57.6614 86.8586 57.8862 86.5623 58.1526C86.2243 58.7945 86.4711 60.2704 86.4711 60.2704L92.407 60.2602L92.2625 58.7251C92.2153 58.6026 92.1566 58.4849 92.087 58.3736C92.5934 58.2541 92.8536 57.7645 92.8613 56.9105L92.862 56.9099ZM88.1321 53.5866C88.1224 53.6129 88.1167 53.6393 88.109 53.665C88.0902 53.6579 88.0705 53.6535 88.0505 53.6521C88.0091 53.6564 87.9692 53.6701 87.9339 53.6922C87.8986 53.7142 87.8688 53.744 87.8468 53.7793C87.8199 53.5659 87.8695 53.3498 87.9869 53.1695C88.213 52.847 88.7007 52.6979 89.4352 52.7249C89.6432 52.7047 89.8531 52.7305 90.05 52.8006C90.2469 52.8707 90.426 52.9833 90.5745 53.1303C90.6741 53.2824 90.7112 53.467 90.6779 53.6457C90.6609 53.6394 90.6432 53.6353 90.6252 53.6335C90.6169 53.6335 90.6092 53.6386 90.6008 53.6393C90.5331 53.4528 90.4269 53.2826 90.2892 53.1398C90.1515 52.997 89.9853 52.8848 89.8015 52.8104C89.4771 52.6923 89.1192 52.7077 88.8062 52.8532C88.4933 52.9987 88.2508 53.2625 88.1321 53.5866ZM90.9593 57.4573C90.9273 57.2996 90.9084 57.1395 90.9028 56.9786L91.2993 56.9761L91.323 57.6469C91.2071 57.574 91.0855 57.5106 90.9593 57.4573ZM92.0208 58.274C91.8485 58.0673 91.6495 57.8843 91.4291 57.7298C91.5704 57.788 91.7227 57.8149 91.8755 57.8085C92.0282 57.8022 92.1778 57.7629 92.3139 57.6931L92.3363 57.6809L92.3518 56.969L92.7482 56.9658C92.7302 57.7542 92.4918 58.1853 92.0208 58.274Z" fill="#407BFF"/>
<path opacity="0.2" d="M92.862 56.9099C92.862 56.9022 92.8568 56.897 92.8536 56.8906C92.8537 56.887 92.8531 56.8835 92.8517 56.8802C92.8504 56.8768 92.8484 56.8738 92.8459 56.8713C92.8434 56.8688 92.8404 56.8668 92.837 56.8655C92.8337 56.8641 92.8302 56.8635 92.8266 56.8636C92.8195 56.8604 92.8144 56.8552 92.8073 56.8552L92.3543 56.8585L92.3595 56.6201L92.3948 56.6194L92.3935 56.4241H92.3588L92.3209 55.3491L92.2978 55.3382C92.1475 55.2629 91.9815 55.2243 91.8134 55.2256C91.6453 55.2268 91.4799 55.2678 91.3307 55.3452L91.3089 55.3562L91.2858 56.4318H91.2543L91.2556 56.6271H91.287L91.2954 56.8655L90.8437 56.8687C90.836 56.8687 90.8295 56.8745 90.8238 56.8771C90.8167 56.8803 90.809 56.881 90.8045 56.8861C90.7993 56.8912 90.7993 56.8989 90.7961 56.9054C90.7942 56.9124 90.7884 56.9169 90.7884 56.9246V56.9259C90.7928 57.0881 90.8098 57.2496 90.8392 57.4091C90.6529 57.3353 90.4621 57.2735 90.2679 57.2241C90.1567 57.1956 90.0442 57.1728 89.9306 57.156C89.876 57.1052 89.833 57.0431 89.8046 56.9741C89.7762 56.9052 89.7631 56.8308 89.7661 56.7563C89.7825 56.6552 89.8094 56.5562 89.8464 56.4607L89.8239 56.4447C90.0486 56.3798 90.2522 56.257 90.4143 56.0884C90.5764 55.9199 90.6912 55.7117 90.7473 55.4847C90.814 55.4366 90.8673 55.3722 90.9022 55.2977C91.0737 55.2829 91.2093 54.9655 91.2061 54.5748C91.2035 54.2028 91.0769 53.9014 90.9163 53.8622C90.9631 53.714 90.9768 53.5573 90.9564 53.4031C90.9359 53.249 90.8819 53.1013 90.7981 52.9703C90.6264 52.787 90.4154 52.6448 90.1809 52.5547C89.9464 52.4646 89.6945 52.4287 89.4442 52.4499C89.1387 52.3954 88.8245 52.4183 88.5301 52.5164C88.2357 52.6145 87.9705 52.7847 87.7588 53.0115C87.6644 53.161 87.6019 53.3284 87.5751 53.5032C87.5484 53.678 87.5579 53.8564 87.6033 54.0274C87.5149 54.2051 87.4727 54.4022 87.4805 54.6005C87.4831 54.9912 87.6225 55.306 87.7947 55.3189C87.8686 55.4564 87.9612 55.5412 88.0633 55.5406C88.0981 55.5378 88.1319 55.5279 88.1627 55.5114C88.1934 55.4949 88.2204 55.4723 88.242 55.4448C88.3115 55.7075 88.4515 55.9461 88.6468 56.1349C88.6846 56.5079 88.5852 56.8818 88.3673 57.1868C88.0793 57.2403 87.8021 57.3408 87.5467 57.4843C87.1898 57.6614 86.8586 57.8862 86.5623 58.1526C86.2243 58.7945 86.4711 60.2704 86.4711 60.2704L92.407 60.2602L92.2625 58.7251C92.2153 58.6026 92.1566 58.4849 92.087 58.3736C92.5934 58.2541 92.8536 57.7645 92.8613 56.9105L92.862 56.9099ZM88.1321 53.5866C88.1224 53.6129 88.1167 53.6393 88.109 53.665C88.0902 53.6579 88.0705 53.6535 88.0505 53.6521C88.0091 53.6564 87.9692 53.6701 87.9339 53.6922C87.8986 53.7142 87.8688 53.744 87.8468 53.7793C87.8199 53.5659 87.8695 53.3498 87.9869 53.1695C88.213 52.847 88.7007 52.6979 89.4352 52.7249C89.6432 52.7047 89.8531 52.7305 90.05 52.8006C90.2469 52.8707 90.426 52.9833 90.5745 53.1303C90.6741 53.2824 90.7112 53.467 90.6779 53.6457C90.6609 53.6394 90.6432 53.6353 90.6252 53.6335C90.6169 53.6335 90.6092 53.6386 90.6008 53.6393C90.5331 53.4528 90.4269 53.2826 90.2892 53.1398C90.1515 52.997 89.9853 52.8848 89.8015 52.8104C89.4771 52.6923 89.1192 52.7077 88.8062 52.8532C88.4933 52.9987 88.2508 53.2625 88.1321 53.5866ZM90.9593 57.4573C90.9273 57.2996 90.9084 57.1395 90.9028 56.9786L91.2993 56.9761L91.323 57.6469C91.2071 57.574 91.0855 57.5106 90.9593 57.4573ZM92.0208 58.274C91.8485 58.0673 91.6495 57.8843 91.4291 57.7298C91.5704 57.788 91.7227 57.8149 91.8755 57.8085C92.0282 57.8022 92.1778 57.7629 92.3139 57.6931L92.3363 57.6809L92.3518 56.969L92.7482 56.9658C92.7302 57.7542 92.4918 58.1853 92.0208 58.274Z" fill="black"/>
<path d="M103.273 67.9149H76.7543V66.2H104.764V66.4242C104.764 66.62 104.726 66.8139 104.651 66.9948C104.576 67.1757 104.466 67.34 104.328 67.4785C104.189 67.6169 104.025 67.7267 103.844 67.8016C103.663 67.8765 103.469 67.915 103.273 67.9149Z" fill="#407BFF"/>
<path opacity="0.2" d="M103.273 67.9149H76.7543V66.2H104.764V66.4242C104.764 66.62 104.726 66.8139 104.651 66.9948C104.576 67.1757 104.466 67.34 104.328 67.4785C104.189 67.6169 104.025 67.7267 103.844 67.8016C103.663 67.8765 103.469 67.915 103.273 67.9149Z" fill="black"/>
<path d="M99.328 67.9149H74.2991C74.1034 67.915 73.9097 67.8764 73.7289 67.8016C73.5481 67.7267 73.3838 67.6169 73.2454 67.4786C73.107 67.3402 72.9973 67.1759 72.9224 66.9951C72.8475 66.8143 72.809 66.6205 72.809 66.4248V66.2H100.818V66.4248C100.818 66.6205 100.78 66.8143 100.705 66.9951C100.63 67.1759 100.52 67.3402 100.382 67.4786C100.243 67.6169 100.079 67.7267 99.8983 67.8016C99.7175 67.8764 99.5237 67.915 99.328 67.9149Z" fill="#407BFF"/>
<path d="M106.165 50.1734H81.044L81.1411 49.0688H106.262L106.165 50.1734Z" fill="#407BFF"/>
<path d="M146.205 7.78222C133.285 5.43553 121.575 10.3243 120.05 18.7065C119.721 20.6219 119.914 22.5906 120.61 24.4054C123.087 31.5969 117.848 29.9933 106.302 24.4045C109.601 28.8465 118.441 33.7295 126.006 34.1633C128.429 34.3016 130.809 34.8669 133.035 35.833C135.495 36.9002 138.071 37.6736 140.712 38.1371C153.632 40.4838 165.342 35.5902 166.866 27.2128C168.389 18.8353 159.136 10.1074 146.205 7.78222Z" fill="#407BFF"/>
<path d="M157.053 14.4222H131.532V15.1405H157.053V14.4222Z" fill="white"/>
<path d="M156.974 17.6473H127.928V18.3656H156.974V17.6473Z" fill="white"/>
<path d="M156.892 20.8726H127.911V21.5908H156.892V20.8726Z" fill="white"/>
<path d="M156.81 24.0978H127.892V24.816H156.81V24.0978Z" fill="white"/>
<path d="M156.728 27.3226H127.874V28.0408H156.728V27.3226Z" fill="white"/>
<path d="M156.73 30.7778H144.703V31.4961H156.73V30.7778Z" fill="white"/>
<path d="M104.404 132.257L107.544 143.743C107.544 143.743 112.125 143.696 111.997 141.839C111.917 140.692 111.517 136.748 111.305 133.645C111.224 132.464 110.62 131.498 109.921 131.273C108.758 130.898 107.206 131.414 104.404 132.257Z" fill="#FF8B7B"/>
<path d="M71.1377 132.547L67.1699 141.83C67.1699 141.83 69.9818 144.945 70.9803 143.557C72.3399 141.668 76.7138 135.514 76.7138 135.514C76.7138 135.514 78.3851 135.619 71.1377 132.547Z" fill="#FF8B7B"/>
<path opacity="0.2" d="M70.0833 135.013L75.6273 137.042L77.0788 135.079L71.0818 132.676L70.0833 135.013Z" fill="black"/>
<path opacity="0.2" d="M105.559 136.484L106.282 139.131L111.694 138.791L111.411 134.597L105.559 136.484Z" fill="black"/>
<path d="M41.9619 16.4067L42.3331 13.0952L45.578 13.2145C45.578 13.2145 47.4679 16.8334 46.9848 16.8339C46.5017 16.8343 42.2552 16.838 42.2552 16.838L41.9619 16.4067Z" fill="#FF8B7B"/>
<path d="M45.3458 21.3865L42.256 16.8393L46.9851 16.835C46.9851 16.835 48.7351 19.5924 48.664 21.3207L45.3458 21.3865Z" fill="#FF8B7B"/>
<path d="M89.2116 99.2801C89.3042 101.636 89.1632 103.995 88.7907 106.323C86.7801 118.237 76.9047 135.788 76.9047 135.788L70.3422 133.805C70.3422 133.805 77.7972 108.854 78.4346 102.581C78.9512 97.4591 69.9329 79.4636 67.1783 72.0935C65.1857 66.7641 67.1597 61.526 67.1597 61.526C67.1597 61.526 73.0962 61.9411 80.1001 61.9244L83.667 74.3714L85.3151 80.1338C86.4739 83.3321 87.391 86.6128 88.0588 89.9483C88.0884 90.0986 88.1167 90.238 88.1462 90.3833C88.2201 90.7604 88.2927 91.1325 88.3557 91.4949C88.8258 94.0663 89.1118 96.668 89.2116 99.2801Z" fill="#407BFF"/>
<path opacity="0.3" d="M89.2116 99.2801C89.3042 101.636 89.1632 103.995 88.7907 106.323C86.7801 118.237 76.9047 135.788 76.9047 135.788L70.3422 133.805C70.3422 133.805 77.7972 108.854 78.4346 102.581C78.9512 97.4591 69.9329 79.4636 67.1783 72.0935C65.1857 66.7641 67.1597 61.526 67.1597 61.526C67.1597 61.526 73.0962 61.9411 80.1001 61.9244L83.667 74.3714L85.3151 80.1338C86.4739 83.3321 87.391 86.6128 88.0588 89.9483C88.0884 90.0986 88.1167 90.238 88.1462 90.3833C88.2201 90.7604 88.2927 91.1325 88.3557 91.4949C88.8258 94.0663 89.1118 96.668 89.2116 99.2801Z" fill="white"/>
<path opacity="0.4" d="M95.7946 98.9286C93.9215 96.2691 87.3887 88.7107 79.7853 81.5976C72.1138 74.4202 76.5127 70.5616 76.5127 70.5616C78.7096 70.6021 81.3229 72.9822 83.9079 76.3479C87.0953 80.7141 89.882 85.3592 92.2342 90.2265C92.3016 90.364 92.3665 90.4912 92.4327 90.6229C92.6024 90.9673 92.7707 91.3073 92.9262 91.6407C94.0538 93.999 95.0123 96.4344 95.7946 98.9286Z" fill="#263238"/>
<path d="M91.3172 62.8561L74.5992 62.6807C74.1074 64.8734 73.8706 67.1156 73.8937 69.3626C74.5503 79.4938 81.6718 78.5338 84.2086 83.461C89.8329 94.3845 94.7061 100.991 95.4534 104.118C96.04 106.575 105.355 137.657 105.355 137.657L111.842 137.233C111.842 137.233 108.705 112.489 107.002 102.746C105.3 93.003 91.3172 62.8561 91.3172 62.8561Z" fill="#407BFF"/>
<g opacity="0.3">
<path d="M91.3172 62.8561L74.5992 62.6807C74.1074 64.8734 73.8706 67.1156 73.8937 69.3626C74.5503 79.4938 81.6718 78.5338 84.2086 83.461C89.8329 94.3845 94.7061 100.991 95.4534 104.118C96.04 106.575 105.355 137.657 105.355 137.657L111.842 137.233C111.842 137.233 108.705 112.489 107.002 102.746C105.3 93.003 91.3172 62.8561 91.3172 62.8561Z" fill="white"/>
</g>
<path d="M74.427 144.013C74.2561 143.699 73.5184 143.495 72.863 143.379H72.8521C72.5931 143.33 72.3451 143.296 72.1523 143.275C71.9763 143.253 71.8439 143.241 71.7944 143.235C71.7715 143.234 71.7486 143.24 71.7289 143.251C71.7092 143.263 71.6935 143.281 71.6839 143.302C71.677 143.313 71.6732 143.327 71.673 143.34C71.6735 143.355 71.6772 143.37 71.6839 143.384C71.6935 143.406 71.7088 143.425 71.7282 143.439C72.0737 143.773 72.45 144.074 72.8521 144.337C72.9842 144.437 73.1309 144.517 73.2871 144.574C73.5009 144.658 73.7293 144.7 73.9592 144.695C74.0569 144.678 74.1495 144.639 74.2298 144.581C74.3101 144.523 74.376 144.447 74.4225 144.359C74.4515 144.306 74.4671 144.247 74.4679 144.187C74.4687 144.126 74.4546 144.067 74.427 144.013ZM74.2181 144.266C74.19 144.326 74.1476 144.378 74.0947 144.417C74.0418 144.456 73.9801 144.482 73.9149 144.492C73.4766 144.456 73.0614 144.28 72.73 143.991L72.7139 143.974C72.4995 143.825 72.2954 143.661 72.1028 143.484C72.1742 143.495 72.2513 143.506 72.3284 143.512C73.1387 143.628 74.0806 143.837 74.2297 144.134C74.2395 144.155 74.2437 144.179 74.2416 144.202C74.2396 144.225 74.2315 144.247 74.2181 144.266Z" fill="#407BFF"/>
<path d="M73.8924 142.322L73.8095 142.272C73.165 141.875 72.3496 142.564 71.9473 142.988C71.8569 143.08 71.7721 143.178 71.6935 143.28C71.688 143.286 71.6842 143.294 71.6826 143.302C71.6757 143.314 71.6719 143.327 71.6717 143.34C71.6722 143.356 71.6759 143.371 71.6826 143.385C71.6926 143.406 71.7078 143.425 71.727 143.44L71.7706 143.445C71.9392 143.464 72.1093 143.466 72.2783 143.451C72.4707 143.44 72.6622 143.416 72.8514 143.379H72.8623C73.4188 143.269 73.9528 143.065 74.0742 142.79C74.1057 142.703 74.1047 142.608 74.0712 142.521C74.0378 142.435 73.9742 142.364 73.8924 142.322ZM73.8641 142.712C73.7433 142.988 72.7955 143.236 72.1292 143.247C72.0889 143.252 72.0483 143.254 72.0077 143.253C72.0302 143.231 72.0521 143.208 72.0797 143.181C72.4376 142.806 73.1708 142.128 73.6996 142.464L73.7549 142.498C73.9142 142.619 73.8641 142.712 73.8641 142.712Z" fill="#407BFF"/>
<path d="M66.7182 141.419L64.7925 145.439C64.7511 145.527 64.7275 145.622 64.723 145.718C64.7185 145.815 64.7331 145.911 64.7662 146.002C64.7992 146.093 64.85 146.177 64.9155 146.248C64.981 146.319 65.0599 146.376 65.1478 146.417C66.377 147.03 68.0348 147.901 68.7474 148.167C72.4196 149.536 74.5131 148.975 76.5281 148.796C76.691 148.77 76.8461 148.709 76.9819 148.615C77.1178 148.522 77.2308 148.399 77.3126 148.256C77.3944 148.113 77.4429 147.953 77.4545 147.789C77.466 147.624 77.4404 147.459 77.3795 147.306L77.2716 147.009C77.2289 146.886 77.1553 146.776 77.0579 146.689C76.9604 146.603 76.8424 146.543 76.7151 146.515C73.7234 145.933 71.8323 142.815 71.8323 142.815L67.6223 141.088C67.4573 141.022 67.2736 141.019 67.1066 141.08C66.9397 141.141 66.8013 141.262 66.7182 141.419Z" fill="#263238"/>
<path d="M115.083 142.167C114.848 141.914 114.134 141.895 113.493 141.943C113.264 141.961 113.043 141.983 112.855 142.007C112.707 142.028 112.58 142.043 112.488 142.06C112.438 142.063 112.389 142.07 112.34 142.08C112.33 142.081 112.321 142.085 112.314 142.092C112.308 142.093 112.303 142.097 112.299 142.101C112.287 142.109 112.276 142.119 112.267 142.131C112.258 142.143 112.252 142.156 112.249 142.171C112.245 142.183 112.244 142.196 112.246 142.208C112.248 142.22 112.253 142.232 112.261 142.242C112.271 142.261 112.287 142.277 112.306 142.287C112.344 142.313 112.386 142.333 112.429 142.347C112.481 142.382 112.536 142.412 112.594 142.436C112.931 142.61 113.282 142.757 113.642 142.877C114.012 143.031 114.423 143.054 114.807 142.941C114.897 142.902 114.976 142.841 115.038 142.764C115.1 142.687 115.142 142.597 115.161 142.5C115.18 142.442 115.182 142.381 115.168 142.323C115.154 142.264 115.125 142.21 115.083 142.167ZM114.947 142.463C114.936 142.528 114.908 142.589 114.866 142.64C114.824 142.691 114.77 142.731 114.708 142.756C114.368 142.892 113.642 142.718 112.738 142.263C112.724 142.259 112.711 142.253 112.699 142.245C112.748 142.238 112.803 142.23 112.853 142.223C113.68 142.123 114.697 142.076 114.92 142.333C114.936 142.35 114.947 142.371 114.952 142.394C114.957 142.417 114.955 142.441 114.947 142.463Z" fill="#407BFF"/>
<path d="M114.029 140.756L113.938 140.734C113.212 140.514 112.598 141.39 112.317 141.898C112.294 141.943 112.27 141.984 112.25 142.017C112.191 142.141 112.155 142.223 112.148 142.242C112.141 142.26 112.139 142.28 112.141 142.299C112.144 142.318 112.152 142.336 112.164 142.351C112.174 142.364 112.186 142.375 112.2 142.382C112.207 142.386 112.213 142.385 112.219 142.389L112.268 142.382C112.323 142.376 112.377 142.365 112.43 142.347C112.456 142.346 112.481 142.341 112.506 142.334C112.581 142.315 112.655 142.291 112.738 142.264C112.777 142.253 112.816 142.239 112.853 142.223C113.073 142.147 113.287 142.054 113.493 141.943C113.924 141.715 114.284 141.431 114.325 141.165C114.339 141.042 114.303 140.875 114.029 140.756ZM114.103 141.141C114.064 141.395 113.44 141.78 112.855 142.007C112.721 142.058 112.584 142.102 112.445 142.139C112.455 142.113 112.473 142.092 112.488 142.06C112.738 141.61 113.279 140.758 113.883 140.947L113.94 140.967C114.13 141.044 114.103 141.141 114.103 141.141Z" fill="#407BFF"/>
<g opacity="0.2">
<path d="M115.083 142.167C114.848 141.914 114.134 141.895 113.493 141.943C113.264 141.961 113.043 141.983 112.855 142.007C112.707 142.028 112.58 142.043 112.488 142.06C112.438 142.063 112.389 142.07 112.34 142.08C112.33 142.081 112.321 142.085 112.314 142.092C112.308 142.093 112.303 142.097 112.299 142.101C112.287 142.109 112.276 142.119 112.267 142.131C112.258 142.143 112.252 142.156 112.249 142.171C112.245 142.183 112.244 142.196 112.246 142.208C112.248 142.22 112.253 142.232 112.261 142.242C112.271 142.261 112.287 142.277 112.306 142.287C112.344 142.313 112.386 142.333 112.429 142.347C112.481 142.382 112.536 142.412 112.594 142.436C112.931 142.61 113.282 142.757 113.642 142.877C114.012 143.031 114.423 143.054 114.807 142.941C114.897 142.902 114.976 142.841 115.038 142.764C115.1 142.687 115.142 142.597 115.161 142.5C115.18 142.442 115.182 142.381 115.168 142.323C115.154 142.264 115.125 142.21 115.083 142.167ZM114.947 142.463C114.936 142.528 114.908 142.589 114.866 142.64C114.824 142.691 114.77 142.731 114.708 142.756C114.368 142.892 113.642 142.718 112.738 142.263C112.724 142.259 112.711 142.253 112.699 142.245C112.748 142.238 112.803 142.23 112.853 142.223C113.68 142.123 114.697 142.076 114.92 142.333C114.936 142.35 114.947 142.371 114.952 142.394C114.957 142.417 114.955 142.441 114.947 142.463Z" fill="black"/>
<path d="M114.029 140.756L113.938 140.734C113.212 140.514 112.598 141.39 112.317 141.898C112.294 141.943 112.27 141.984 112.25 142.017C112.191 142.141 112.155 142.223 112.148 142.242C112.141 142.26 112.139 142.28 112.141 142.299C112.144 142.318 112.152 142.336 112.164 142.351C112.174 142.364 112.186 142.375 112.2 142.382C112.207 142.386 112.213 142.385 112.219 142.389L112.268 142.382C112.323 142.376 112.377 142.365 112.43 142.347C112.456 142.346 112.481 142.341 112.506 142.334C112.581 142.315 112.655 142.291 112.738 142.264C112.777 142.253 112.816 142.239 112.853 142.223C113.073 142.147 113.287 142.054 113.493 141.943C113.924 141.715 114.284 141.431 114.325 141.165C114.339 141.042 114.303 140.875 114.029 140.756ZM114.103 141.141C114.064 141.395 113.44 141.78 112.855 142.007C112.721 142.058 112.584 142.102 112.445 142.139C112.455 142.113 112.473 142.092 112.488 142.06C112.738 141.61 113.279 140.758 113.883 140.947L113.94 140.967C114.13 141.044 114.103 141.141 114.103 141.141Z" fill="black"/>
</g>
<path d="M106.707 143.235C106.671 144.067 106.739 145.318 106.809 146.653C106.843 147.298 107.261 148.355 107.853 148.561C108.772 148.881 110.239 148.729 111.902 148.41C114.073 147.993 117.909 147.081 119.351 146.243C119.904 145.921 119.91 144.436 115.515 144.206C113.65 144.109 112.129 141.845 112.129 141.845C110.85 142.272 109.496 142.426 108.154 142.295C106.404 141.986 106.707 143.235 106.707 143.235Z" fill="#263238"/>
<path d="M85.0915 11.9043L86.9254 15.1071L89.4307 19.4744C89.0508 19.8141 88.7367 20.2209 88.5041 20.6744C87.9406 21.6554 87.4889 22.366 89.5239 23.9643C89.7439 24.1249 89.913 24.3455 90.0111 24.5996C90.1092 24.8537 90.1321 25.1306 90.0771 25.3974C89.9107 26.0472 89.2276 26.6295 86.9504 26.1037C84.7632 25.5493 82.8104 24.3105 81.3769 22.5681C80.6649 21.7407 80.8911 21.2006 81.6519 20.445C83.8745 18.3224 84.713 14.7786 85.0915 11.9043Z" fill="#FF8B7B"/>
<path d="M98.1695 9.23025C98.1695 9.31835 98.1695 9.40645 98.1637 9.50032V9.50559C98.1528 9.8527 98.1251 10.1998 98.0808 10.547C98.0699 10.6409 98.059 10.7399 98.0429 10.8334C98.0204 11.0043 97.9928 11.1748 97.9658 11.3457C97.9433 11.4615 97.9272 11.5769 97.8996 11.6929C97.8829 11.7757 97.8662 11.8638 97.8501 11.9462C97.8116 12.1391 97.7672 12.3263 97.7178 12.5135C97.6574 12.7558 97.5912 12.9928 97.525 13.2241V13.2299C97.4151 13.599 97.2937 13.9514 97.1671 14.2986H97.1613C97.1337 14.3867 97.0951 14.4805 97.0617 14.5686C97.0071 14.7118 96.946 14.8549 96.8856 14.9981C96.7481 15.3285 96.5997 15.6426 96.4449 15.94L96.4397 15.951C96.3793 16.0721 96.3125 16.188 96.2521 16.3034C96.2084 16.3862 96.1583 16.4633 96.1094 16.5404C96.0485 16.6478 95.9803 16.7508 95.9051 16.8487C95.7497 17.0802 95.5768 17.2993 95.3879 17.5043C95.3879 17.5095 95.3821 17.5095 95.3821 17.5153C94.3667 18.6226 93.0009 19.3463 91.5145 19.5646C90.845 19.6649 90.1634 19.6518 89.4982 19.5259C89.4665 19.5213 89.4353 19.514 89.405 19.5038C88.6149 19.3391 87.87 19.0044 87.2222 18.523C86.5743 18.0416 86.0389 17.4251 85.6531 16.7161C85.207 15.9376 84.9206 15.078 84.8107 14.1875C84.7934 14.0663 84.7824 13.9452 84.7715 13.8183V13.8126C84.634 11.9231 85.1789 9.83503 85.8015 6.93716C86.0159 5.90235 86.4876 4.93823 87.1729 4.13381C87.8583 3.3294 88.7353 2.71061 89.7229 2.33457C90.7105 1.95853 91.777 1.83737 92.8238 1.98226C93.8706 2.12716 94.864 2.53344 95.7123 3.16361C97.3534 4.40323 98.059 6.34774 98.1637 8.4579C98.1753 8.71267 98.1753 8.96597 98.1695 9.23025Z" fill="#FF8B7B"/>
<path opacity="0.2" d="M91.5145 19.5655C90.8445 19.6653 90.1625 19.652 89.4969 19.5262L89.43 19.4769L90.0488 18.7664C90.0488 18.7664 90.1324 19.5234 91.5145 19.5655Z" fill="black"/>
<path d="M102.198 7.49735C101.135 8.77251 98.1618 8.46029 98.1618 8.46029L96.842 7.32116C96.5483 7.09466 95.9552 6.86392 95.6449 8.29702L95.1707 9.53047C94.3589 11.0087 93.2149 12.2783 91.8287 13.2389C91.5364 13.419 90.7293 14.0601 90.7293 14.0601C90.0311 14.5819 89.2046 14.905 88.3377 14.9952C87.4707 15.0854 86.5954 14.9393 85.8047 14.5724L85.2187 14.3847C84.9243 14.2909 84.663 14.1147 84.4658 13.8769C84.2685 13.6391 84.1436 13.3497 84.1058 13.0431C83.809 10.6456 83.2988 4.74367 85.1294 2.68813C86.8116 0.799654 87.8147 1.29474 88.436 1.07923C89.8892 0.290531 91.5695 0.0257833 93.1948 0.32943C96.8722 1.01176 95.0139 2.18147 98.0435 3.15109C99.8845 3.74006 99.5613 5.28663 100.057 5.30437C100.571 5.32686 103.265 6.22322 102.198 7.49735Z" fill="#263238"/>
<path d="M90.701 10.6405C90.6603 11.6578 90.9967 12.6543 91.6456 13.4387C92.4867 14.4371 93.7834 13.6408 94.0847 12.3911C94.3527 11.2702 94.0025 9.54112 92.8992 9.00484C91.7953 8.46908 90.7563 9.38312 90.701 10.6405Z" fill="#FF8B7B"/>
<path d="M113.724 22.3024L114.382 18.8276L117.542 22.0587C117.542 22.0587 117.094 24.9893 114.902 25.1997L113.724 22.3024Z" fill="#FF8B7B"/>
<path d="M117.99 17.252L118.945 18.3415C119.094 18.5117 119.185 18.725 119.204 18.9504C119.223 19.1757 119.17 19.4013 119.052 19.5942L117.543 22.0582L114.383 18.8272L116.534 17.1199C116.747 16.9508 117.017 16.8703 117.289 16.8948C117.56 16.9194 117.811 17.0473 117.99 17.252Z" fill="#FF8B7B"/>
<path d="M93.6009 34.855C93.6009 34.855 102.504 44.3031 108.556 43.0079C113.998 41.8434 115.948 25.1411 115.948 25.1411L115.91 24.2338C115.892 23.8009 115.72 23.3886 115.426 23.0708C115.131 22.753 114.733 22.5505 114.303 22.4995L113.762 22.4353L107.125 36.6788L95.1122 24.8198C94.7229 24.4259 94.2428 24.1337 93.7141 23.9687C93.1854 23.8038 92.6243 23.7712 92.0801 23.8739C91.5359 23.9765 91.0252 24.2113 90.5929 24.5575C90.1607 24.9037 89.82 25.3507 89.601 25.8594C88.8569 27.7498 89.3189 30.5915 93.6009 34.855Z" fill="#263238"/>
<path d="M78.7411 21.8764L80.6572 20.1751C81.1085 19.7751 81.6888 19.551 82.2919 19.544C83.6991 19.5263 86.4936 19.3453 88.9173 20.1043C91.1213 20.7947 90.7852 22.6468 90.7852 22.6468C90.7852 22.6468 86.5649 21.2371 78.7411 21.8764Z" fill="#407BFF"/>
<path opacity="0.3" d="M78.7411 21.8764L80.6572 20.1751C81.1085 19.7751 81.6888 19.551 82.2919 19.544C83.6991 19.5263 86.4936 19.3453 88.9173 20.1043C91.1213 20.7947 90.7852 22.6468 90.7852 22.6468C90.7852 22.6468 86.5649 21.2371 78.7411 21.8764Z" fill="white"/>
<path d="M90.7164 57.5164L93.3053 62.3645L91.8512 62.7005L90.9863 60.2659C91.0082 60.4702 91.0307 60.6623 91.0525 60.85L91.0692 60.9823C91.0859 61.1423 91.1026 61.2908 91.1245 61.4283L91.1572 61.6879C91.1907 61.9301 91.2176 62.1447 91.2401 62.3156L91.262 62.4808C91.2735 62.5746 91.2896 62.6575 91.2954 62.7179L91.3063 62.795L91.3172 62.856C89.2203 63.5676 87.0416 64.01 84.8332 64.1726C79.225 64.5363 66.5929 64.1174 66.5929 64.1174C66.5929 64.1174 66.3121 59.881 67.3974 58.1345C67.6506 54.3884 68.02 48.5932 68.3946 41.5033C69.0668 28.7389 72.8186 22.9988 72.8186 22.9988C72.8186 22.9988 78.7353 21.4728 83.6046 21.4949C88.6346 21.5226 94.061 23.5059 94.8378 24.6791C96.3639 26.9875 91.1193 42.2747 90.6008 48.588C90.4088 51.5627 90.4475 54.5477 90.7164 57.5164Z" fill="#263238"/>
<path d="M91.1566 61.6866C91.19 61.9289 91.217 62.1435 91.2395 62.3151L91.1566 61.6866Z" fill="#263238"/>
<path d="M91.2955 62.7183L91.262 62.4802C91.2736 62.5744 91.2897 62.657 91.2955 62.7183Z" fill="#263238"/>
<path d="M70.7008 32.4487L57.9865 36.4517C57.1179 36.6722 56.2022 36.6182 55.3655 36.297C54.5289 35.9758 53.8123 35.4032 53.3145 34.658C50.5418 30.5128 45.3433 21.3822 45.3433 21.3822L48.4077 19.8452C48.4077 19.8452 55.1098 26.7316 56.355 28.8719C57.4011 30.6689 66.6764 25.9568 66.8127 25.8994L73.0705 23.082C73.0705 23.082 77.1527 30.6771 70.7008 32.4487Z" fill="#263238"/>
</svg>
