<svg width="188" height="176" viewBox="0 0 188 176" fill="none" xmlns="http://www.w3.org/2000/svg">
<g clip-path="url(#clip0_1_555)">
<mask id="mask0_1_555" style="mask-type:luminance" maskUnits="userSpaceOnUse" x="-24" y="-31" width="236" height="238">
<path d="M211.527 -30.0619H-23.5282V206.062H211.527V-30.0619Z" fill="white"/>
</mask>
<g mask="url(#mask0_1_555)">
<path d="M6.46267 51.3416L12.9605 49.0297L10.1716 45.2891C10.0306 44.4622 9.96382 43.6241 9.9719 42.7852C9.97132 42.3537 10.0442 41.9254 10.1875 41.5186C10.345 41.0059 10.5727 40.5176 10.8641 40.0679C10.9344 39.9922 10.9793 39.8964 10.9928 39.7938C11.0062 39.6912 10.9874 39.587 10.939 39.4956C10.8907 39.4043 10.8151 39.3304 10.723 39.2842C10.6308 39.2381 10.5266 39.222 10.4248 39.2382C9.99368 39.3535 9.11814 40.3912 8.73106 41.9317C8.34398 43.4723 7.2937 41.2054 6.8961 40.3866C6.4985 39.5673 5.15009 37.0907 4.80289 37.0142C4.29324 36.9015 4.0795 37.4295 4.4952 38.2383C4.91642 39.0572 5.98841 41.5611 5.54769 41.7507C5.11338 41.9381 3.14635 37.7399 3.14635 37.7399C3.14635 37.7399 2.87045 36.7743 2.35395 36.9768C1.4222 37.3419 3.84031 41.6499 4.08039 42.0543C4.2474 42.3352 3.77586 42.5591 3.61245 42.2476C3.44455 41.9271 1.74755 38.0144 0.794974 38.3773C0.0642273 38.6559 2.75104 41.9394 2.65436 42.9475C2.55724 43.9558 0.868916 40.2493 0.1818 40.5438C-0.0741676 40.6538 -0.249864 40.7713 1.02593 42.7592C1.66253 43.6889 2.34587 44.5853 3.07329 45.4451L6.46267 51.3416Z" fill="#FFBE9D"/>
<path d="M64.8773 59.3164C64.8773 59.3164 61.676 51.7998 59.4629 48.1487C57.38 44.7127 54.6224 44.1539 53.1524 44.0497C52.5417 43.8624 51.9147 43.7334 51.2799 43.6646L39.2564 43.5619C36.6328 43.5857 34.098 44.5194 32.081 46.2049C31.5264 46.6631 27.3705 51.5027 21.8598 58.397L12.214 47.9277L6.4637 51.3431C6.4637 51.3431 12.7092 73.0052 20.5459 71.5174C23.5935 70.8264 26.4313 69.4103 28.8205 67.3881L34.9226 62.448L35.0638 63.2662C35.1872 64.2647 35.4967 65.8781 35.73 66.8574C36.468 69.9513 36.8778 74.0274 35.2929 76.7281C35.2929 76.7281 33.1181 78.3984 34.8482 80.2365H57.4697C57.4697 80.2365 60.6747 78.0547 57.7493 75.6268L55.9158 71.0156L57.1004 65.3903L57.5448 63.1376L59.5335 66.5655C59.5335 66.5655 63.4757 71.547 67.573 70.9343C72.4996 70.1974 75.3543 61.1841 70.9075 49.2662L65.5519 50.9026L64.8773 59.3164Z" fill="#E8505B"/>
<g opacity="0.4">
<path d="M6.46223 51.3424L7.03045 53.1495L13.418 49.2345L12.2126 47.9263L6.46223 51.3424Z" fill="black"/>
</g>
<g opacity="0.2">
<path d="M35.2934 76.7266C36.2439 76.5825 37.1557 76.2473 37.9742 75.741C38.7927 75.2346 39.5011 74.5676 40.0571 73.7798C40.637 72.9849 41.055 72.0828 41.287 71.1252C41.519 70.1676 41.5605 69.1734 41.4091 68.1997C41.3842 67.8534 41.2874 67.5162 41.1249 67.2097C40.9624 66.9033 40.7377 66.6345 40.4655 66.4207C39.752 65.972 38.7786 66.2034 38.0356 65.8057C37.4836 65.3942 37.0238 64.8707 36.6862 64.2692C36.2669 63.7237 35.6787 62.873 35.0501 63.1494C35.0501 63.1494 35.8094 67.1612 36.1412 68.9476C36.5575 71.0104 36.4943 73.1418 35.9564 75.176C35.7896 75.7146 35.5674 76.2343 35.2934 76.7266Z" fill="black"/>
</g>
<path d="M20.9521 62.0948C20.9552 61.4526 21.0687 60.8158 21.2874 60.2123C21.427 59.5917 21.6184 58.9839 21.8598 58.3956C21.8566 59.0381 21.7431 59.6752 21.5243 60.2788C21.385 60.8993 21.1936 61.5068 20.9521 62.0948Z" fill="#263238"/>
<path d="M22.3817 61.0947C22.0416 60.2336 21.8579 59.3181 21.8393 58.3918C22.1792 59.2531 22.3629 60.1685 22.3817 61.0947Z" fill="#263238"/>
<path d="M65.5269 34.5559L57.3138 47.9263L63.7773 49.7319L70.9472 38.624L65.5269 34.5559Z" fill="#455A64"/>
<path d="M65.0126 45.947L65.2937 47.9004L66.4393 49.3823L66.5548 50.5959L70.675 49.3372L69.01 43.4309C69.1431 42.6323 69.1968 41.8224 69.1704 41.0131L68.0388 42.5241L67.7268 40.0621L65.4033 38.186C65.2889 38.1005 65.1465 38.0617 65.0048 38.0776C64.863 38.0934 64.7326 38.1627 64.6397 38.2715C64.5469 38.3802 64.4986 38.5203 64.5046 38.6635C64.5106 38.8066 64.5704 38.9421 64.672 39.0426L66.5364 40.694L66.657 42.7329L65.3092 41.4723C65.1763 41.348 65.0118 41.2632 64.8339 41.2274L62.9599 40.8508C62.8372 40.8263 62.7097 40.8501 62.6039 40.9172C62.4981 40.9843 62.4219 41.0897 62.3911 41.2115C62.3604 41.3334 62.3773 41.4625 62.4385 41.5722C62.4997 41.6818 62.6005 41.7637 62.72 41.8009L64.424 42.3275L66.1494 44.0763L64.4645 43.4313L62.1727 43.7533C62.0592 43.7693 61.9562 43.8287 61.8853 43.9192C61.8144 44.0096 61.781 44.124 61.7921 44.2386C61.8032 44.3532 61.858 44.459 61.9449 44.534C62.0319 44.609 62.1443 44.6473 62.2587 44.641L63.7155 44.5597L64.5719 44.828L62.6001 45.3527C62.5039 45.3782 62.4207 45.439 62.367 45.523C62.3132 45.6071 62.2927 45.7084 62.3096 45.8068C62.3265 45.9053 62.3796 45.9938 62.4583 46.0549C62.537 46.116 62.6356 46.1453 62.7348 46.1369L65.0126 45.947Z" fill="#FFBE9D"/>
<g opacity="0.4">
<path d="M65.5527 50.9026L65.3768 53.0925L71.6248 51.3608L70.9082 49.2662L65.5527 50.9026Z" fill="black"/>
</g>
<path d="M57.3152 47.9263C57.3152 47.9263 56.7634 47.1732 56.8061 47.0453C56.8488 46.9175 64.6227 34.0641 64.6227 34.0641L65.5284 34.5565L57.3152 47.9263Z" fill="#263238"/>
<path d="M67.5819 37.9167C67.6348 37.8648 67.7059 37.8357 67.7799 37.8357C67.8539 37.8357 67.9249 37.8649 67.9778 37.9169C68.0306 37.969 68.0611 38.0398 68.0626 38.1141C68.0641 38.1884 68.0365 38.2604 67.9858 38.3145C67.9351 38.3687 67.8653 38.4008 67.7914 38.4038C67.7175 38.4069 67.6453 38.3807 67.5903 38.331C67.5353 38.2812 67.502 38.2117 67.4974 38.1375C67.4928 38.0633 67.5173 37.9903 67.5657 37.934" fill="#263238"/>
<path d="M62.4397 54.414C62.3805 54.5343 62.3003 54.643 62.2028 54.7348C61.9214 55.0016 61.5716 55.1843 61.1926 55.2625C60.5974 55.3848 59.9836 55.3843 59.3886 55.261C58.6264 55.0787 57.8368 55.0431 57.0614 55.1561C56.1503 55.4241 55.3106 55.8939 54.604 56.5308C53.7773 57.2862 52.8207 57.8842 51.7809 58.2958C51.1908 58.464 50.5733 58.5125 49.9644 58.4384C49.3395 58.3435 48.7283 58.1733 48.1441 57.9314C46.9536 57.4613 45.8117 56.8013 44.5609 56.3446C43.9491 56.1169 43.3093 55.974 42.6592 55.9196C42.0257 55.888 41.3908 55.942 40.7716 56.08C39.5426 56.3349 38.3907 56.7651 37.2406 57.0105C35.1821 57.4577 33.0325 57.159 31.1722 56.1672C29.9239 55.5161 28.8427 54.5833 28.0134 53.4421C27.7089 53.0277 27.4551 52.5781 27.2572 52.1029C27.2863 52.0874 27.5041 52.5959 28.09 53.3845C28.9353 54.4861 30.0154 55.3836 31.2511 56.0112C33.0801 56.96 35.1823 57.2346 37.1921 56.7873C38.3203 56.5419 39.4691 56.1073 40.7226 55.8427C41.3625 55.6984 42.0188 55.6417 42.6738 55.6742C43.3473 55.729 44.0101 55.8762 44.6439 56.1117C45.9215 56.5788 47.0652 57.2425 48.2326 57.706C48.7978 57.9419 49.3891 58.1094 49.9938 58.2049C50.5707 58.2767 51.156 58.2335 51.7162 58.0777C52.731 57.6782 53.6664 57.0995 54.4782 56.3689C55.2124 55.7205 56.0832 55.2475 57.0254 54.9854C57.8219 54.8766 58.6319 54.9238 59.4107 55.1243C59.9889 55.2551 60.5872 55.2702 61.1713 55.1686C61.5387 55.102 61.8824 54.9399 62.1682 54.6986C62.3588 54.5271 62.4287 54.4059 62.4397 54.414Z" fill="#FAFAFA"/>
<path d="M65.0082 63.0992C64.8656 62.4351 64.8034 61.7561 64.8228 61.077C64.761 60.4006 64.7813 59.719 64.8832 59.0475C65.0258 59.7116 65.088 60.3906 65.0686 61.0697C65.1299 61.7461 65.1097 62.4276 65.0082 63.0992Z" fill="#263238"/>
<path d="M50.8531 146.928C51.0518 147.719 55.6804 173.794 55.6804 173.794L62.7716 173.261L61.4752 146.636L50.8531 146.928Z" fill="#FFBE9D"/>
<path d="M62.9864 173.674L62.9636 172.924L55.4067 173.082L55.4523 175.554L55.9195 175.573C57.998 175.641 66.493 175.785 67.8718 175.366C69.4095 174.898 62.9864 173.674 62.9864 173.674Z" fill="#E8505B"/>
<g opacity="0.3">
<path d="M58.1768 175.447C58.0447 174.845 57.6893 174.316 57.1828 173.967C56.6671 173.604 56.0402 173.435 55.4126 173.49L55.456 175.454L58.1768 175.447Z" fill="black"/>
</g>
<g opacity="0.3">
<path d="M66.131 174.374C66.131 174.374 68.3853 174.935 68.1131 175.286C67.8416 175.635 59.2517 175.793 55.456 175.553L55.4641 175.395L65.4857 175.292C65.4857 175.292 65.6925 174.4 66.131 174.374Z" fill="black"/>
</g>
<path d="M55.3405 175.395C55.3836 175.402 55.4271 175.405 55.4707 175.405C55.5818 175.409 55.7039 175.414 55.843 175.42C56.2146 175.428 56.6722 175.437 57.2115 175.45C58.3674 175.468 59.9647 175.472 61.7275 175.441C63.4919 175.409 65.0877 175.349 66.2421 175.29C66.7807 175.259 67.2368 175.233 67.6076 175.213C67.7452 175.202 67.8674 175.193 67.9785 175.185C68.022 175.184 68.0653 175.179 68.1079 175.17C68.0647 175.165 68.0211 175.164 67.9777 175.168C67.8659 175.171 67.7437 175.175 67.6054 175.179C67.2346 175.193 66.7777 175.21 66.2384 175.23C65.0833 175.273 63.4882 175.324 61.7253 175.355C59.9625 175.386 58.3666 175.391 57.2108 175.389C56.6715 175.388 56.2146 175.387 55.843 175.386C55.7047 175.386 55.5818 175.388 55.4707 175.388C55.4272 175.387 55.3836 175.389 55.3405 175.395Z" fill="#263238"/>
<path d="M65.4769 175.401C65.5325 175.187 65.6137 174.981 65.719 174.787C65.8512 174.604 66.0037 174.437 66.1737 174.289C65.947 174.371 65.7573 174.533 65.6395 174.744C65.5008 174.933 65.4423 175.169 65.4769 175.401Z" fill="#263238"/>
<path d="M63.2439 174.389C63.2653 174.401 63.369 174.279 63.4749 174.115C63.5809 173.952 63.65 173.809 63.6287 173.797C63.6074 173.785 63.5036 173.907 63.3977 174.071C63.291 174.235 63.2226 174.377 63.2439 174.389Z" fill="#263238"/>
<path d="M62.6229 174.101C62.6399 174.118 62.7568 174.042 62.8841 173.931C63.0114 173.819 63.1004 173.715 63.0835 173.698C63.0658 173.681 62.9489 173.757 62.8223 173.868C62.6943 173.98 62.6053 174.083 62.6229 174.101Z" fill="#263238"/>
<path d="M62.2227 173.444C62.4819 173.499 62.7501 173.497 63.0085 173.438C62.8813 173.398 62.7474 173.384 62.6148 173.398C62.4824 173.386 62.3489 173.402 62.2227 173.444Z" fill="#263238"/>
<path d="M62.0792 172.98C62.2123 173.059 62.3654 173.098 62.5199 173.091C62.6733 173.113 62.8297 173.09 62.971 173.026C62.8232 173.007 62.674 173 62.5251 173.006C62.3774 172.985 62.2283 172.976 62.0792 172.98Z" fill="#263238"/>
<path d="M63.486 173.773C63.6467 173.795 63.8099 173.791 63.9694 173.761C64.1431 173.738 64.3144 173.699 64.4814 173.646C64.5828 173.617 64.6807 173.577 64.7735 173.527C64.8292 173.496 64.8711 173.445 64.8905 173.385C64.8971 173.351 64.8932 173.315 64.8795 173.283C64.8657 173.251 64.8426 173.224 64.8133 173.205C64.6279 173.123 64.4207 173.104 64.2237 173.152C64.0266 173.199 63.8504 173.31 63.7221 173.468C63.6504 173.557 63.599 173.66 63.5713 173.771C63.5574 173.811 63.5539 173.853 63.561 173.894C63.6072 173.752 63.6788 173.62 63.7722 173.505C63.8814 173.382 64.0226 173.293 64.1798 173.247C64.3685 173.182 64.5743 173.192 64.7566 173.272C64.8353 173.324 64.8066 173.408 64.7228 173.458C64.6369 173.505 64.5467 173.542 64.4535 173.571C64.2917 173.626 64.1263 173.67 63.9583 173.701C63.6692 173.756 63.4852 173.76 63.486 173.773Z" fill="#263238"/>
<path d="M63.6066 173.793C63.6631 173.699 63.6805 173.586 63.6552 173.479C63.6372 173.36 63.589 173.247 63.5154 173.152C63.471 173.084 63.4106 173.028 63.3395 172.989C63.2684 172.95 63.1888 172.929 63.1078 172.929C63.0845 172.933 63.0622 172.942 63.0423 172.955C63.0224 172.968 63.0052 172.985 62.9918 173.004C62.9784 173.024 62.969 173.046 62.9642 173.069C62.9593 173.093 62.9591 173.117 62.9636 173.14C62.9765 173.213 63.0063 173.281 63.0504 173.34C63.1163 173.439 63.1949 173.53 63.2844 173.609C63.3626 173.69 63.4589 173.751 63.5654 173.787C63.5735 173.776 63.4668 173.708 63.3307 173.567C63.2517 173.486 63.1819 173.396 63.1225 173.3C63.0533 173.205 63.0048 173.035 63.1254 173.012C63.1895 173.017 63.2516 173.037 63.3074 173.069C63.3631 173.101 63.411 173.145 63.4477 173.198C63.5172 173.283 63.5663 173.382 63.5912 173.489C63.6057 173.59 63.6109 173.692 63.6066 173.793Z" fill="#263238"/>
<path d="M55.456 173.468C55.4575 173.485 55.6708 173.445 56.0115 173.477C56.4508 173.516 56.8726 173.669 57.235 173.921C57.5816 174.17 57.8518 174.512 58.0149 174.907C58.1363 175.207 58.1518 175.409 58.1694 175.407C58.1772 175.36 58.1763 175.312 58.1665 175.265C58.1506 175.136 58.1202 175.009 58.076 174.887C57.9249 174.471 57.6511 174.11 57.291 173.853C56.9153 173.591 56.4742 173.44 56.0174 173.417C55.8793 173.409 55.7408 173.415 55.6039 173.434C55.5531 173.438 55.5032 173.449 55.456 173.468Z" fill="#263238"/>
<path d="M59.1053 174.745C59.8344 174.861 60.5777 174.854 61.3045 174.724C61.3015 174.7 60.8108 174.737 60.2053 174.741C59.5997 174.748 59.1083 174.72 59.1053 174.745Z" fill="#263238"/>
<path d="M57.6287 174.771C57.611 174.788 57.6713 174.867 57.7236 174.972C57.778 175.076 57.806 175.169 57.8317 175.167C57.856 175.167 57.8678 175.055 57.806 174.935C57.7449 174.814 57.6448 174.754 57.6287 174.771Z" fill="#263238"/>
<path d="M57.0629 174.134C57.0452 174.151 57.0952 174.223 57.1747 174.295C57.2542 174.368 57.3329 174.413 57.3505 174.396C57.3682 174.379 57.3182 174.307 57.2387 174.235C57.1593 174.162 57.0805 174.117 57.0629 174.134Z" fill="#263238"/>
<path d="M56.2624 173.852C56.2683 173.875 56.3683 173.873 56.4794 173.907C56.5913 173.94 56.6714 173.996 56.6906 173.979C56.7104 173.966 56.645 173.867 56.5066 173.827C56.3683 173.785 56.2543 173.83 56.2624 173.852Z" fill="#263238"/>
<path d="M55.6951 173.725C55.687 173.746 55.7304 173.782 55.7937 173.804C55.857 173.825 55.9144 173.825 55.9239 173.802C55.932 173.781 55.8879 173.745 55.8254 173.724C55.7621 173.702 55.704 173.703 55.6951 173.725Z" fill="#263238"/>
<path d="M32.8135 144.751C32.7772 145.566 29.828 170.96 29.828 170.96L36.7706 172.504L43.1727 146.635L32.8135 144.751Z" fill="#FFBE9D"/>
<path d="M37.0835 173.183L37.2396 172.45L29.8622 170.796L29.3208 173.207L29.7701 173.338C31.7725 173.901 39.9895 176.071 41.4278 175.995C43.0321 175.907 37.0835 173.183 37.0835 173.183Z" fill="#E8505B"/>
<g opacity="0.3">
<path d="M31.998 173.754C32.0122 173.138 31.7923 172.539 31.383 172.079C30.9681 171.603 30.3994 171.289 29.7768 171.192L29.3538 173.109L31.998 173.754Z" fill="black"/>
</g>
<g opacity="0.3">
<path d="M39.9677 174.614C39.9677 174.614 42.0242 175.698 41.6774 175.973C41.3306 176.248 32.9502 174.346 29.3208 173.205L29.3662 173.054L39.124 175.35C39.124 175.35 39.5366 174.534 39.9677 174.614Z" fill="black"/>
</g>
<path d="M29.2518 173.025C29.2916 173.042 29.3329 173.056 29.3752 173.066C29.4828 173.097 29.6004 173.131 29.7333 173.169C30.0928 173.266 30.5335 173.385 31.0554 173.525C32.1737 173.819 33.7241 174.205 35.4442 174.598C37.1648 174.989 38.7292 175.312 39.8643 175.53C40.3948 175.629 40.8434 175.713 41.2099 175.782C41.3461 175.805 41.4668 175.825 41.5767 175.844C41.6192 175.852 41.6623 175.858 41.7056 175.86C41.6647 175.845 41.6226 175.834 41.5798 175.827C41.4704 175.804 41.3511 175.778 41.2159 175.749C40.8518 175.674 40.4039 175.581 39.8756 175.472C38.7441 175.238 37.1824 174.906 35.4628 174.514C33.7436 174.122 32.1923 173.746 31.0704 173.468C30.5466 173.338 30.1027 173.227 29.7419 173.137C29.6077 173.105 29.4887 173.077 29.3798 173.051C29.338 173.038 29.2952 173.03 29.2518 173.025Z" fill="#263238"/>
<path d="M39.0974 175.456C39.2023 175.262 39.33 175.081 39.4777 174.918C39.6495 174.772 39.8374 174.646 40.0377 174.544C39.7981 174.569 39.5756 174.68 39.4114 174.857C39.2321 175.007 39.1192 175.223 39.0974 175.456Z" fill="#263238"/>
<path d="M37.1589 173.938C37.177 173.955 37.3064 173.861 37.4485 173.727C37.5905 173.594 37.6908 173.472 37.6726 173.455C37.6545 173.438 37.5251 173.533 37.3831 173.666C37.2411 173.799 37.1408 173.921 37.1589 173.938Z" fill="#263238"/>
<path d="M36.6347 173.509C36.6473 173.53 36.7789 173.484 36.9287 173.406C37.0785 173.329 37.1897 173.249 37.1774 173.228C37.1648 173.207 37.0331 173.253 36.8833 173.331C36.7335 173.408 36.6224 173.488 36.6347 173.509Z" fill="#263238"/>
<path d="M36.3938 172.777C36.5076 172.847 36.6347 172.892 36.7669 172.91C36.8928 172.953 37.0263 172.97 37.159 172.96C37.0453 172.89 36.9182 172.845 36.786 172.827C36.6602 172.783 36.5266 172.766 36.3938 172.777Z" fill="#263238"/>
<path d="M36.3685 172.292C36.4789 172.401 36.6185 172.475 36.7702 172.505C36.914 172.563 37.0713 172.579 37.2236 172.55C37.0846 172.496 36.9412 172.454 36.7951 172.424C36.6568 172.368 36.5141 172.324 36.3685 172.292Z" fill="#263238"/>
<path d="M37.5448 173.396C37.6955 173.456 37.8549 173.491 38.0168 173.5C38.1912 173.519 38.3669 173.523 38.5419 173.511C38.6472 173.507 38.7518 173.492 38.8537 173.465C38.9149 173.449 38.9675 173.409 39.0007 173.355C39.0154 173.324 39.0201 173.288 39.0142 173.254C39.0084 173.219 38.9923 173.187 38.9681 173.162C38.8074 173.038 38.6107 172.971 38.4081 172.97C38.2055 172.969 38.0081 173.034 37.8461 173.156C37.7551 173.226 37.6804 173.314 37.6274 173.416C37.592 173.487 37.5838 173.53 37.5888 173.533C37.6675 173.406 37.7684 173.295 37.8865 173.205C38.0215 173.112 38.1799 173.059 38.3436 173.051C38.5421 173.035 38.7395 173.093 38.8977 173.215C38.9613 173.284 38.9136 173.36 38.8201 173.387C38.7256 173.411 38.6289 173.427 38.5315 173.432C38.3613 173.447 38.1902 173.45 38.0195 173.44C37.7277 173.423 37.5475 173.383 37.5448 173.396Z" fill="#263238"/>
<path d="M37.6576 173.445C37.7352 173.367 37.7791 173.262 37.7798 173.151C37.7904 173.031 37.7706 172.91 37.7221 172.8C37.6949 172.724 37.6495 172.655 37.5896 172.6C37.5298 172.545 37.4575 172.506 37.379 172.486C37.3554 172.484 37.3316 172.488 37.3092 172.495C37.2868 172.503 37.2661 172.515 37.2484 172.531C37.2307 172.547 37.2163 172.566 37.2061 172.587C37.1959 172.609 37.19 172.632 37.1888 172.656C37.1842 172.73 37.1968 172.804 37.2256 172.872C37.2665 172.984 37.3216 173.091 37.3895 173.189C37.4461 173.286 37.5251 173.368 37.62 173.428C37.6309 173.419 37.5437 173.329 37.4443 173.159C37.3871 173.061 37.3404 172.958 37.305 172.85C37.261 172.742 37.2533 172.564 37.3763 172.571C37.4966 172.587 37.5927 172.724 37.6459 172.829C37.6931 172.928 37.7171 173.036 37.7162 173.145C37.7068 173.247 37.6871 173.348 37.6576 173.445Z" fill="#263238"/>
<path d="M29.818 171.181C29.8162 171.196 30.0322 171.21 30.3563 171.321C30.7734 171.464 31.1464 171.714 31.4387 172.045C31.7165 172.37 31.8979 172.767 31.9624 173.19C32.0097 173.51 31.977 173.71 31.9938 173.711C32.0128 173.668 32.0233 173.621 32.0246 173.573C32.0396 173.444 32.04 173.314 32.026 173.185C31.9779 172.744 31.7973 172.329 31.5081 171.994C31.2061 171.649 30.8133 171.396 30.3748 171.265C30.2427 171.224 30.1067 171.197 29.9691 171.183C29.9193 171.174 29.8681 171.173 29.818 171.181Z" fill="#263238"/>
<path d="M33.0643 173.295C33.7451 173.582 34.4685 173.753 35.2051 173.801C35.2078 173.777 34.7227 173.695 34.1331 173.555C33.5435 173.417 33.0724 173.272 33.0643 173.295Z" fill="#263238"/>
<path d="M31.6263 172.967C31.6045 172.98 31.6444 173.071 31.6707 173.185C31.6989 173.298 31.7039 173.396 31.7293 173.4C31.7529 173.405 31.791 173.301 31.7592 173.169C31.7284 173.037 31.6458 172.954 31.6263 172.967Z" fill="#263238"/>
<path d="M31.2241 172.212C31.2032 172.224 31.2345 172.306 31.2949 172.395C31.3548 172.485 31.4206 172.547 31.4419 172.535C31.4628 172.523 31.4315 172.44 31.3711 172.351C31.3108 172.262 31.2449 172.2 31.2241 172.212Z" fill="#263238"/>
<path d="M30.5092 171.749C30.5092 171.774 30.6068 171.795 30.7071 171.855C30.8083 171.913 30.8727 171.986 30.8954 171.975C30.9181 171.967 30.8777 171.855 30.7529 171.782C30.6286 171.709 30.507 171.726 30.5092 171.749Z" fill="#263238"/>
<path d="M29.9833 171.487C29.9697 171.507 30.0042 171.551 30.06 171.587C30.1163 171.623 30.1726 171.636 30.1862 171.617C30.1998 171.598 30.1653 171.553 30.1095 171.517C30.0532 171.481 29.9969 171.468 29.9833 171.487Z" fill="#263238"/>
<path d="M58.8743 31.6753C58.7102 31.1336 58.3137 30.7251 58.1209 30.1963C57.938 29.3583 57.9388 28.4903 58.1231 27.6527C58.2018 26.7987 58.0473 25.7629 57.3704 25.41C57.0736 25.3201 56.7836 25.2086 56.503 25.0762C55.9762 24.6974 56.0041 23.8275 55.9556 23.1126C55.9246 22.6458 55.82 22.1869 55.6458 21.7531L55.7562 21.713C56.1753 21.6147 56.6159 21.679 56.9898 21.893C57.3637 22.1071 57.6434 22.455 57.7729 22.8673C57.8457 23.0514 57.8773 23.2494 57.8655 23.4472C57.8536 23.6449 57.7987 23.8377 57.7045 24.0117C57.6355 24.1469 57.5185 24.2512 57.3767 24.304C57.2349 24.3567 57.0785 24.3541 56.9385 24.2967C56.8271 24.2237 56.7405 24.1182 56.6904 23.9945C56.6403 23.8707 56.6291 23.7345 56.6582 23.6041C56.6808 23.5109 56.7381 23.43 56.8183 23.3779C56.8985 23.3259 56.9955 23.3066 57.0894 23.3241C57.1517 23.3316 57.2116 23.3531 57.2645 23.3872C57.3174 23.4212 57.3619 23.4669 57.3947 23.5207C57.4396 23.6018 57.444 23.6593 57.4558 23.657C57.4602 23.6575 57.4742 23.5978 57.4366 23.4942C57.4071 23.4252 57.3616 23.3643 57.3039 23.3166C57.2461 23.2688 57.1779 23.2357 57.1048 23.2198C57.0026 23.1947 56.895 23.2034 56.798 23.2444C56.7344 23.2736 56.6779 23.3164 56.6324 23.3698C56.5869 23.4231 56.5535 23.4858 56.5346 23.5535C56.4877 23.7208 56.494 23.8986 56.5526 24.0622C56.6112 24.2257 56.7191 24.3668 56.8613 24.4658C57.0362 24.5513 57.2372 24.5661 57.4227 24.5072C57.6082 24.4482 57.7641 24.32 57.8582 24.1489C57.9783 23.9435 58.0511 23.7137 58.0713 23.4763C58.0916 23.2389 58.0587 23 57.9752 22.7771C57.8431 22.3419 57.5631 21.967 57.1841 21.7179C56.805 21.4688 56.351 21.3612 55.9011 21.4139C56.0886 21.0388 56.1316 20.6074 56.0218 20.2025C55.9589 19.9691 55.8444 19.753 55.6868 19.5703C55.5292 19.3876 55.3326 19.2429 55.1117 19.1471C54.7466 18.9882 54.3377 18.9626 53.9558 19.0746C53.6255 19.1709 53.3162 19.3289 53.0442 19.5405C52.7889 19.7334 52.5917 19.9449 52.3997 20.0867C52.2475 20.2134 52.0634 20.2955 51.8678 20.3238C51.7006 20.3368 51.5336 20.2968 51.3903 20.2094C51.3755 20.2084 51.5124 20.4287 51.8722 20.4277C52.0873 20.4175 52.2945 20.3432 52.4674 20.2143C52.6785 20.0753 52.8853 19.8724 53.1318 19.701C53.3929 19.4846 53.706 19.3408 54.0398 19.2842C54.3735 19.2275 54.7163 19.2599 55.0337 19.3782C55.2203 19.4617 55.3861 19.5859 55.5191 19.7417C55.6521 19.8975 55.7489 20.0811 55.8025 20.2791C55.862 20.4886 55.8682 20.7097 55.8206 20.9223C55.7731 21.1349 55.6733 21.3321 55.5303 21.4959C55.3395 21.0889 55.0448 20.74 54.6761 20.4847C54.482 20.3563 54.2626 20.2715 54.0329 20.2361C53.8032 20.2007 53.5686 20.2155 53.3452 20.2796C53.1217 20.3437 52.9146 20.4555 52.7381 20.6073C52.5616 20.7592 52.4198 20.9475 52.3224 21.1595L45.8508 18.5917C45.4719 18.2046 44.9911 17.934 44.4646 17.8116C43.9381 17.6892 43.3877 17.7201 42.8781 17.9006C42.8335 17.8914 42.7909 17.8819 42.7424 17.876C42.3652 17.8316 41.9836 17.9047 41.6491 18.0852C41.2094 18.375 40.8347 18.7535 40.5487 19.1967C40.3771 19.4292 40.1671 19.6305 39.9279 19.7917C39.888 19.8139 39.8468 19.8336 39.8044 19.8505C39.5177 19.8864 39.2285 19.898 38.9398 19.8852C38.3634 19.6424 37.7684 19.4468 37.1606 19.3002C36.7846 19.2434 36.4006 19.2753 36.0389 19.3933C35.641 19.5324 35.293 19.7867 35.0387 20.1241C34.7527 20.5078 34.6006 20.9756 34.606 21.4549C34.6099 21.8043 34.6574 22.1519 34.7476 22.4894C34.6021 22.9453 34.5377 23.4234 34.5571 23.9018C34.5859 24.5351 34.7436 25.1984 34.7496 25.8221C34.5966 25.9622 34.4162 26.0685 34.2199 26.1345C33.8783 26.2589 33.5127 26.3187 33.166 26.4728C32.826 26.6427 32.5255 26.883 32.2845 27.1779C32.0436 27.4728 31.8674 27.8157 31.7678 28.1839C31.6597 28.4919 31.6193 28.8198 31.6495 29.1451C31.6798 29.4703 31.7799 29.7851 31.9429 30.0677C31.7714 30.901 31.9355 31.7687 32.3992 32.4809C32.761 32.8791 33.0997 33.2978 33.4137 33.735C33.7354 34.5778 33.8954 35.4741 33.8854 36.3767C33.9927 37.2762 34.4439 38.2925 35.228 38.3517C35.8598 38.3996 36.427 37.7863 37.0585 37.8461C37.9439 37.93 38.3061 39.1559 38.818 39.9953C39.1108 40.5024 39.5447 40.9126 40.0665 41.1753C40.5883 41.438 41.1751 41.5417 41.7548 41.4738C42.5594 41.3471 43.3569 40.8551 44.1442 41.0863C45.1341 41.3767 45.729 42.718 46.7398 42.8858C47.4923 43.0103 48.1889 42.4327 48.7474 41.8363C49.2178 41.1836 49.8702 40.6854 50.6221 40.4047C51.5227 40.2178 52.3901 40.8474 53.2966 40.991C53.9115 41.0564 54.5312 40.9243 55.0667 40.6138C55.6022 40.3032 56.0259 39.8302 56.2771 39.2626C56.7752 38.2191 56.773 36.9384 57.2395 35.8747C57.6007 35.2022 58.0019 34.5521 58.4409 33.928C58.6601 33.601 58.8114 33.233 58.8859 32.8459C58.9603 32.4589 58.9564 32.0607 58.8743 31.6753ZM32.9218 28.3105C32.8499 28.2885 32.7737 28.2843 32.6998 28.2983C32.6994 28.3105 32.7657 28.3119 32.8769 28.3493C32.8366 28.3835 32.7945 28.4154 32.7558 28.4519C32.3794 28.8235 32.1146 29.294 31.9919 29.8096C31.7914 29.3146 31.7773 28.7632 31.9524 28.2586C32.0472 27.9235 32.2112 27.6122 32.4337 27.3449C32.6561 27.0777 32.9322 26.8606 33.2437 26.7076C33.5604 26.5685 33.9201 26.5119 34.2869 26.383C34.4476 26.3285 34.5993 26.2506 34.7374 26.1518C34.7179 26.3963 34.6548 26.6354 34.5512 26.8575C34.2124 27.5578 33.4945 27.8455 32.9218 28.3105ZM37.3393 19.9231C36.79 20.0592 36.2815 20.3265 35.857 20.7023C35.4325 21.078 35.1046 21.5511 34.901 22.0814C34.861 21.8762 34.8404 21.6677 34.8395 21.4586C34.833 21.0415 34.9641 20.634 35.2122 20.2996C35.4351 20.0111 35.7319 19.789 36.0708 19.6569C36.4097 19.5248 36.778 19.4877 37.1362 19.5497C37.503 19.6035 37.8604 19.7094 38.1975 19.8642C37.9102 19.8556 37.6228 19.8753 37.3393 19.9231ZM40.5853 19.6062C40.5065 19.6447 40.4254 19.6782 40.3424 19.7065C40.4599 19.587 40.5698 19.4601 40.6713 19.3267C40.9388 18.8925 41.2908 18.5171 41.7062 18.2229C41.9964 18.0555 42.3271 17.9722 42.6615 17.9822C42.4899 18.0589 42.3268 18.1535 42.1748 18.2644C41.6774 18.749 41.1462 19.1974 40.5853 19.6062Z" fill="#263238"/>
<path d="M53.9565 35.2707C54.2499 32.2987 54.2682 29.3059 54.011 26.3306C53.9711 25.6882 53.8023 25.0606 53.5146 24.4855C53.227 23.9104 52.8264 23.3997 52.3371 22.9842C51.8478 22.5687 51.2798 22.257 50.6674 22.0678C50.055 21.8787 49.4108 21.816 48.7736 21.8835L40.9728 22.7124C40.5789 22.7543 40.215 22.9431 39.953 23.2415C39.691 23.54 39.5499 23.9262 39.5577 24.3241L40.3619 43.5752C39.2822 43.5782 38.5579 43.5796 38.5579 43.5796V47.066C38.5579 48.9813 39.3153 50.8182 40.6635 52.1725C42.0117 53.5269 43.8403 54.2877 45.747 54.2877C47.6536 54.2877 49.4822 53.5269 50.8304 52.1725C52.1786 50.8182 52.9361 48.9813 52.9361 47.066V44.049C51.9652 43.7254 50.954 43.54 49.932 43.4983C49.8687 43.502 49.7716 43.5057 49.6531 43.5087C49.6612 41.7433 49.7973 40.3628 49.7973 40.3628C49.7973 40.3628 53.2429 39.7874 53.9565 35.2707Z" fill="#FFBE9D"/>
<path d="M49.7973 40.3629C47.6801 40.3954 45.5955 39.8368 43.7756 38.7494C43.7756 38.7494 45.2366 41.8524 49.737 41.4297L49.7973 40.3629Z" fill="#EB996E"/>
<path d="M55.6848 22.2986C55.5546 21.6896 55.2583 21.129 54.829 20.6795C54.3997 20.2301 53.8543 19.9095 53.2539 19.7537C52.4497 19.7181 51.6442 19.7302 50.8414 19.7897C50.1777 19.7464 49.9364 19.2161 49.3045 19.0074C48.2506 18.6599 47.4419 17.4842 45.168 17.7299C44.3491 17.9976 43.657 18.5588 43.2237 19.3065C42.3347 19.0673 41.3885 19.1762 40.5764 19.611C39.9279 19.9667 39.374 20.4737 38.9614 21.0895C38.5488 21.7052 38.2895 22.4115 38.2055 23.1489C38.0266 24.6601 38.0815 26.1901 38.3684 27.6844C38.4642 28.371 38.5601 29.0578 38.6561 29.7447C38.6932 30.2014 38.8161 30.647 39.0183 31.0577L37.9831 40.7273C38.5006 40.8932 39.0463 40.9516 39.587 40.8989C40.1276 40.8462 40.652 40.6835 41.1281 40.4207C41.6042 40.1579 42.022 39.8006 42.3563 39.3704C42.6905 38.9402 42.934 38.4461 43.0721 37.9184C43.4738 36.0176 42.4209 34.0809 42.5874 32.1451C42.6868 30.993 43.3349 29.9188 43.3309 28.7622C43.3253 28.3818 43.2714 28.0037 43.1706 27.637C45.0001 26.1466 45.4662 24.9457 45.3895 23.5492C45.949 23.9429 46.6111 24.1631 47.2939 24.1825C48.2574 24.1948 49.2577 23.8196 50.1593 24.1611C50.7783 24.4798 51.3243 24.9247 51.7625 25.4673C51.9834 25.7368 52.2618 25.9528 52.5772 26.0992C52.8926 26.2456 53.2368 26.3187 53.5843 26.313C53.91 26.2355 54.2267 26.1237 54.529 25.9792C54.6809 25.9079 54.8465 25.8709 55.0142 25.871C55.1819 25.8711 55.3476 25.9082 55.4994 25.9797C55.8626 24.7868 55.9263 23.5222 55.6848 22.2986Z" fill="#263238"/>
<path d="M24.0958 145.772C24.0958 145.772 27.1285 151.696 35.0477 148.819C35.0477 148.819 42.7982 153.05 50.2116 148.31C50.2116 148.31 59.8131 149.604 65.0362 147.065L58.3181 88.87L57.4675 79.9321H36.2858C36.2858 79.9321 29.9927 82.8094 28.982 96.8574C27.9712 110.905 25.7805 130.201 25.7805 130.201L24.0958 145.772Z" fill="#263238"/>
<path d="M49.7613 148.49C49.7477 148.432 49.7399 148.374 49.7378 148.315C49.7267 148.187 49.7113 148.016 49.6921 147.798C49.6554 147.331 49.6046 146.664 49.5384 145.811C49.4078 144.086 49.2426 141.587 49.0606 138.499C48.6948 132.321 48.3026 123.78 48.097 114.34C47.8951 104.897 47.9177 96.3452 48.0167 90.1583C48.0652 87.0644 48.122 84.5611 48.1783 82.8316C48.2073 81.9772 48.23 81.3098 48.2459 80.8412C48.2559 80.6232 48.2636 80.4517 48.2695 80.3231C48.2697 80.2641 48.2752 80.2052 48.2858 80.1472C48.2939 80.206 48.2967 80.2653 48.294 80.3246V80.8427C48.2885 81.3113 48.2808 81.9802 48.2709 82.8346C48.2504 84.5774 48.2205 87.0777 48.1841 90.1605C48.1284 96.3475 48.1315 104.895 48.3335 114.336C48.5391 123.772 48.9049 132.311 49.2276 138.49C49.3973 141.569 49.5347 144.065 49.6303 145.806C49.6774 146.66 49.7142 147.327 49.7392 147.796C49.7488 148.014 49.7561 148.185 49.762 148.314C49.7674 148.373 49.7672 148.431 49.7613 148.49Z" fill="#455A64"/>
<path d="M51.6213 131.843C51.6154 131.833 51.6662 131.782 51.7861 131.75C51.9603 131.712 52.1425 131.734 52.3018 131.815C52.4249 131.873 52.533 131.959 52.6176 132.065C52.7023 132.172 52.7611 132.297 52.7896 132.431C52.8063 132.601 52.7736 132.772 52.6953 132.924C52.6171 133.076 52.4967 133.202 52.3488 133.286C52.2009 133.37 52.0317 133.41 51.8618 133.4C51.692 133.39 51.5287 133.33 51.3917 133.229C51.2921 133.136 51.2153 133.022 51.1672 132.894C51.119 132.766 51.101 132.629 51.1143 132.494C51.1269 132.315 51.2001 132.146 51.3218 132.015C51.4109 131.928 51.4807 131.91 51.4866 131.921C51.3639 132.09 51.2926 132.292 51.2814 132.501C51.2806 132.607 51.3026 132.712 51.3458 132.809C51.3889 132.906 51.4523 132.992 51.5315 133.062C51.6355 133.129 51.7557 133.166 51.8792 133.169C52.0026 133.172 52.1246 133.142 52.2319 133.08C52.3393 133.019 52.4279 132.929 52.4882 132.821C52.5485 132.713 52.5782 132.59 52.5741 132.466C52.5545 132.362 52.5129 132.263 52.4523 132.177C52.3916 132.09 52.3132 132.017 52.2224 131.964C52.0377 131.866 51.829 131.824 51.6213 131.843Z" fill="#455A64"/>
<path d="M51.1482 114.551C51.143 114.541 51.1931 114.49 51.3137 114.458C51.488 114.42 51.6703 114.443 51.8295 114.524C51.9526 114.582 52.0607 114.667 52.1452 114.774C52.2297 114.881 52.2884 115.006 52.3165 115.14C52.3334 115.31 52.3008 115.481 52.2226 115.633C52.1445 115.785 52.0241 115.91 51.8762 115.995C51.7283 116.079 51.5592 116.119 51.3894 116.109C51.2195 116.099 51.0563 116.039 50.9194 115.938C50.8198 115.845 50.743 115.73 50.6949 115.603C50.6468 115.475 50.6286 115.338 50.642 115.202C50.6539 115.024 50.7272 114.855 50.8495 114.724C50.9385 114.636 51.0077 114.618 51.0135 114.629C50.8915 114.799 50.8202 115 50.8083 115.21C50.8079 115.316 50.83 115.42 50.8731 115.517C50.9162 115.614 50.9794 115.7 51.0584 115.77C51.1624 115.837 51.2826 115.874 51.4061 115.877C51.5295 115.881 51.6515 115.85 51.7588 115.789C51.8662 115.727 51.9548 115.638 52.0151 115.529C52.0754 115.421 52.1051 115.298 52.101 115.174C52.0815 115.07 52.0401 114.971 51.9794 114.885C51.9187 114.798 51.8403 114.725 51.7493 114.672C51.5645 114.575 51.3559 114.533 51.1482 114.551Z" fill="#455A64"/>
<path d="M50.8737 99.2697C50.8686 99.2594 50.9186 99.2084 51.0393 99.1759C51.2136 99.1373 51.3959 99.1606 51.5551 99.2417C51.6782 99.2994 51.7863 99.385 51.8708 99.4918C51.9553 99.5987 52.014 99.7238 52.0421 99.8573C52.059 100.027 52.0263 100.199 51.9482 100.351C51.87 100.502 51.7497 100.628 51.6018 100.713C51.4539 100.797 51.2848 100.837 51.1149 100.827C50.9451 100.816 50.7818 100.757 50.6449 100.656C50.5454 100.563 50.4686 100.448 50.4204 100.321C50.3723 100.193 50.3542 100.056 50.3676 99.9201C50.3794 99.7414 50.4528 99.5724 50.575 99.442C50.6641 99.354 50.7332 99.3363 50.7391 99.3473C50.6166 99.5169 50.5453 99.7183 50.5338 99.9275C50.5333 100.034 50.5554 100.138 50.5986 100.235C50.6417 100.332 50.7049 100.418 50.784 100.489C50.8881 100.555 51.0083 100.592 51.1317 100.595C51.2552 100.598 51.3771 100.568 51.4844 100.506C51.5917 100.445 51.6803 100.355 51.7406 100.247C51.8009 100.139 51.8306 100.016 51.8265 99.8921C51.8071 99.7879 51.7656 99.6891 51.705 99.6024C51.6443 99.5157 51.5658 99.4431 51.4749 99.3895C51.2902 99.292 51.0814 99.2504 50.8737 99.2697Z" fill="#455A64"/>
<path d="M50.3315 82.9188C50.3256 82.9085 50.3764 82.8575 50.4963 82.8257C50.6704 82.7871 50.8524 82.8103 51.0113 82.8915C51.1345 82.9491 51.2426 83.0346 51.3273 83.1413C51.4119 83.248 51.4707 83.373 51.4991 83.5064C51.516 83.6766 51.4834 83.848 51.4052 83.9999C51.327 84.1518 51.2066 84.2777 51.0586 84.3622C50.9106 84.4467 50.7413 84.4862 50.5714 84.476C50.4015 84.4658 50.2381 84.4063 50.1012 84.3046C50.0017 84.2118 49.925 84.0971 49.877 83.9695C49.829 83.842 49.811 83.7049 49.8246 83.5692C49.8369 83.3907 49.9099 83.2219 50.0313 83.091C50.1204 83.0038 50.1902 82.9861 50.1961 82.9964C50.0734 83.1659 50.0021 83.3674 49.9909 83.5766C49.9901 83.6827 50.012 83.7877 50.0551 83.8845C50.0983 83.9812 50.1617 84.0676 50.241 84.1376C50.345 84.2045 50.4652 84.2416 50.5887 84.2449C50.7121 84.2481 50.8341 84.2174 50.9414 84.1561C51.0488 84.0948 51.1374 84.0051 51.1977 83.8969C51.258 83.7886 51.2877 83.6659 51.2836 83.5419C51.2641 83.4377 51.2226 83.339 51.162 83.2523C51.1013 83.1656 51.0228 83.093 50.9319 83.0393C50.7476 82.9415 50.539 82.8996 50.3315 82.9188Z" fill="#455A64"/>
<path d="M77.9626 65.2226L185.013 64.4414L187.998 137.553L77.1503 136.522L77.9626 65.2226Z" fill="#E8505B"/>
<path d="M77.9618 65.2226L128.626 24.0406C129.667 23.1947 130.966 22.7352 132.305 22.7394C133.644 22.7436 134.94 23.2114 135.976 24.0639L185.013 64.4414" fill="#E8505B"/>
<g opacity="0.3">
<path d="M77.9618 65.2226L128.626 24.0406C129.667 23.1947 130.966 22.7352 132.305 22.7394C133.644 22.7436 134.94 23.2114 135.976 24.0639L185.013 64.4414" fill="black"/>
</g>
<path d="M77.1488 136.522C77.0157 136.396 85.5857 126.997 96.2886 115.53C106.995 104.059 115.779 94.8655 115.913 94.9911C116.047 95.1168 107.479 104.515 96.772 115.985C86.0691 127.452 77.282 136.648 77.1488 136.522Z" fill="#263238"/>
<path d="M187.998 137.553C187.861 137.675 179.515 128.465 169.359 116.985C159.199 105.5 151.077 96.0946 151.214 95.9726C151.351 95.8507 159.695 105.058 169.855 116.543C180.011 128.023 188.135 137.431 187.998 137.553Z" fill="#263238"/>
<g opacity="0.5">
<path d="M185.013 64.4421L131.258 107.58L77.9618 65.2226" fill="black"/>
</g>
<path d="M83.3541 69.2174L83.1871 35.631L176.925 34.5176L177.98 69.856L131.254 107.015L83.3541 69.2174Z" fill="#FAFAFA"/>
<path d="M83.3534 69.2174C83.3534 69.2174 83.6565 69.4458 84.2326 69.8944C84.8095 70.346 85.6622 71.0127 86.7754 71.8841C89.0025 73.6343 92.2707 76.2019 96.4483 79.4842C104.795 86.057 116.773 95.49 131.312 106.939L131.192 106.939C144.653 96.2277 160.625 83.5174 177.907 69.7644L177.863 69.8604C177.66 63.1184 177.448 56.046 177.233 48.8487C177.088 44.0039 176.945 39.2158 176.805 34.5216L176.925 34.6361C139.15 35.0678 105.826 35.4485 83.1871 35.7075L83.2622 35.6309C83.299 46.1983 83.3277 54.5892 83.3475 60.3424C83.3534 63.2182 83.3586 65.4347 83.3608 66.9358C83.3608 67.6831 83.36 68.2522 83.3593 68.6372C83.3586 69.0201 83.3534 69.2174 83.3534 69.2174C83.3534 69.2174 83.3461 69.0267 83.3402 68.6468C83.3365 68.2625 83.3306 67.6964 83.3225 66.9528C83.3107 65.4547 83.2931 63.2411 83.2703 60.3697C83.2328 54.6107 83.1783 46.2109 83.1099 35.6318L83.1091 35.5561L83.1849 35.5552C105.824 35.2762 139.147 34.8654 176.921 34.3999L177.036 34.3986L177.04 34.5148C177.181 39.2085 177.324 43.9965 177.469 48.8413C177.684 56.0393 177.895 63.111 178.096 69.8538L178.097 69.9129L178.051 69.9491C160.76 83.6904 144.78 96.3895 131.312 107.092L131.252 107.14L131.192 107.093C116.664 95.6053 104.695 86.1412 96.3548 79.5455C92.1949 76.2492 88.9414 73.6697 86.7239 71.9122C85.621 71.0356 84.7771 70.3638 84.2054 69.9085C83.6389 69.4539 83.3534 69.2174 83.3534 69.2174Z" fill="#263238"/>
<path d="M162.109 51.4281C162.109 51.4939 147.774 51.6343 130.094 51.7422C112.407 51.8501 98.075 51.8841 98.0743 51.8191C98.0743 51.7533 112.407 51.6129 130.093 51.505C147.773 51.397 162.108 51.3623 162.109 51.4281Z" fill="#263238"/>
<path d="M162.109 60.9158C162.109 60.9809 147.774 61.1213 130.094 61.23C112.407 61.3379 98.075 61.3719 98.0743 61.3061C98.0743 61.2403 112.407 61.0999 130.093 60.992C147.773 60.8841 162.108 60.8501 162.109 60.9158Z" fill="#263238"/>
<path d="M162.109 71.8493C162.109 71.9151 147.774 72.0555 130.094 72.1634C112.407 72.2713 98.075 72.3053 98.0743 72.2403C98.0743 72.1745 112.407 72.034 130.093 71.9261C147.773 71.8175 162.108 71.7835 162.109 71.8493Z" fill="#263238"/>
<path d="M162.113 82.7842C162.113 82.85 148.437 82.986 131.569 83.0895C114.696 83.1922 101.022 83.2225 101.022 83.1567C101.022 83.0909 114.695 82.9549 131.568 82.8515C148.435 82.7487 162.112 82.7192 162.113 82.7842Z" fill="#263238"/>
<path d="M150.123 92.3821C149.999 92.4014 149.874 92.4103 149.748 92.4087C149.48 92.4161 149.121 92.426 148.671 92.4383C147.712 92.4538 146.365 92.476 144.711 92.5033C141.347 92.5521 136.738 92.6186 131.646 92.6918C126.542 92.7775 121.921 92.8064 118.576 92.8108C116.921 92.8064 115.575 92.8034 114.615 92.8012C114.165 92.7945 113.806 92.7894 113.538 92.7857C113.413 92.7892 113.287 92.782 113.163 92.7642C113.287 92.745 113.413 92.7361 113.538 92.7376C113.806 92.731 114.165 92.7206 114.615 92.7088C115.574 92.6925 116.92 92.6704 118.575 92.643C121.939 92.595 126.549 92.5285 131.642 92.4546C136.745 92.3688 141.365 92.3407 144.71 92.3363C146.364 92.3407 147.712 92.3437 148.67 92.3459C149.121 92.3526 149.48 92.357 149.747 92.3607C149.873 92.3572 149.999 92.3643 150.123 92.3821Z" fill="#263238"/>
<path d="M138.056 101.608C138.056 101.673 134.999 101.726 131.23 101.726C127.459 101.726 124.403 101.673 124.403 101.608C124.403 101.542 127.459 101.489 131.23 101.489C134.999 101.489 138.056 101.542 138.056 101.608Z" fill="#263238"/>
<path d="M169.608 94.1582C171.848 94.1581 174.037 93.4909 175.899 92.2411C177.761 90.9912 179.212 89.2148 180.069 87.1364C180.926 85.0581 181.15 82.7711 180.713 80.5647C180.276 78.3584 179.198 76.3317 177.614 74.741C176.031 73.1503 174.013 72.067 171.817 71.6281C169.621 71.1892 167.344 71.4144 165.275 72.2753C163.206 73.1361 161.438 74.594 160.193 76.4644C158.949 78.3348 158.285 80.5339 158.285 82.7835C158.285 84.2772 158.578 85.7564 159.147 87.1365C159.716 88.5165 160.55 89.7705 161.601 90.8267C162.653 91.883 163.901 92.7208 165.275 93.2924C166.649 93.8641 168.121 94.1582 169.608 94.1582Z" fill="#263238"/>
<path d="M166.658 94.1582C168.897 94.1582 171.087 93.4912 172.949 92.2415C174.811 90.9917 176.262 89.2153 177.119 87.137C177.976 85.0586 178.2 82.7716 177.764 80.5652C177.327 78.3588 176.248 76.332 174.665 74.7413C173.081 73.1505 171.064 72.0671 168.868 71.6282C166.671 71.1892 164.395 71.4144 162.326 72.2752C160.257 73.1361 158.488 74.5939 157.244 76.4643C156 78.3348 155.336 80.5339 155.335 82.7835C155.335 84.2772 155.628 85.7563 156.197 87.1363C156.766 88.5163 157.6 89.7702 158.652 90.8265C159.703 91.8827 160.951 92.7206 162.325 93.2922C163.699 93.8639 165.171 94.1581 166.658 94.1582Z" fill="#455A64"/>
<path d="M168.097 77.4879V86.9454H166.349V78.9609H164.358V77.4879H168.097Z" fill="#EBEBEB"/>
<path d="M84.0884 20.2917L94.4426 20.2885L93.0432 18.6723L93.0417 14.8015C93.0414 13.7962 92.6436 12.8322 91.9358 12.1216C91.2279 11.411 90.2681 11.0119 89.2673 11.0122C88.2666 11.0125 87.3069 11.4122 86.5995 12.1232C85.8921 12.8343 85.4949 13.7985 85.4952 14.8038L85.4966 18.4872L84.0884 20.2917Z" fill="#E8505B"/>
<path d="M87.8172 19.7801C87.8264 20.0086 87.8839 20.2324 87.9861 20.4367C88.0883 20.641 88.2326 20.821 88.4096 20.9648C88.5865 21.1086 88.792 21.2128 89.0122 21.2704C89.2325 21.328 89.4624 21.3378 89.6867 21.299C89.911 21.2603 90.1244 21.1739 90.3128 21.0456C90.5012 20.9174 90.6602 20.7502 90.7792 20.5553C90.8981 20.3604 90.9743 20.1422 91.0026 19.9154C91.0309 19.6885 91.0108 19.4582 90.9434 19.2399" fill="#E8505B"/>
<path d="M89.842 9.4375H88.8259V11.6063H89.842V9.4375Z" fill="#E8505B"/>
<path d="M104.363 13.1721C104.333 13.0834 104.308 12.9923 104.291 12.8999C104.247 12.7048 104.187 12.4385 104.11 12.097C104.017 11.6615 103.894 11.233 103.742 10.8145C103.653 10.5665 103.59 10.287 103.465 10.0108C103.344 9.73264 103.215 9.4372 103.08 9.12444C102.383 7.62999 101.456 6.25487 100.335 5.04944C98.4784 3.09094 96.1404 1.65958 93.5569 0.900159C90.9734 0.140736 88.236 0.0801831 85.6217 0.724622C85.2781 0.798014 84.947 0.930238 84.6049 1.03142C84.2582 1.12926 83.9195 1.25365 83.5918 1.40348C82.2004 1.96834 80.9049 2.74725 79.7519 3.71227C77.1986 5.82683 75.3992 8.71825 74.6252 11.9502C74.2134 13.6822 74.1127 15.4741 74.328 17.2416C74.5162 19.068 75.0438 20.8428 75.8833 22.4738L76.1467 22.9698L76.1821 23.0354L76.1615 23.1029C75.3242 25.8612 74.5046 28.5662 73.7092 31.1873L73.4944 30.9917C75.7296 29.8204 77.8978 28.6852 79.9771 27.5955L80.058 27.5536L80.1308 27.6101C82.1268 29.1535 84.4719 30.1767 86.9571 30.5887C89.078 30.9225 91.2453 30.8001 93.3155 30.2295C95.3857 29.6589 97.3117 28.6531 98.966 27.2787C100.321 26.1453 101.474 24.7895 102.378 23.2689C103.684 21.0516 104.408 18.537 104.481 15.9614C104.484 15.5114 104.487 15.1117 104.489 14.7623C104.459 14.4209 104.433 14.1309 104.413 13.8906C104.394 13.6663 104.38 13.4894 104.369 13.3558C104.362 13.2949 104.36 13.2334 104.363 13.1721C104.38 13.2307 104.39 13.2907 104.395 13.3513C104.411 13.4844 104.434 13.6604 104.462 13.8842L104.564 14.7583C104.568 15.1093 104.573 15.5114 104.58 15.9646C104.553 17.076 104.416 18.1819 104.171 19.2659C103.807 20.7002 103.257 22.0803 102.535 23.3705C101.631 24.9193 100.471 26.3021 99.1043 27.4596C97.4316 28.8661 95.4797 29.8983 93.3786 30.4873C91.2775 31.0763 89.0756 31.2086 86.9196 30.8754C84.3865 30.4639 81.9947 29.4273 79.9587 27.8586L80.1117 27.8731C78.0332 28.966 75.8679 30.1049 73.6327 31.2793L73.306 31.4513L73.4171 31.0842C74.211 28.4622 75.0299 25.7568 75.8657 22.9981L75.8797 23.1307L75.6104 22.6242C74.752 20.9568 74.2131 19.1422 74.0219 17.2749C73.8031 15.4682 73.9077 13.6368 74.3309 11.8672C75.1229 8.57109 76.9634 5.62432 79.5731 3.47383C80.7498 2.49467 82.0711 1.70559 83.4895 1.13497C83.8235 0.984294 84.1684 0.859011 84.521 0.760172C84.8691 0.658546 85.2068 0.525362 85.5562 0.451969C88.2112 -0.202367 90.9919 -0.133039 93.6112 0.652797C96.2306 1.43863 98.5937 2.9125 100.457 4.92224C101.581 6.15017 102.503 7.55042 103.188 9.07019C103.32 9.38748 103.445 9.68733 103.563 9.96974C103.685 10.2496 103.745 10.5328 103.829 10.7836C103.974 11.2072 104.088 11.641 104.17 12.0816C104.235 12.4266 104.285 12.6966 104.322 12.8935C104.343 12.9853 104.357 13.0784 104.363 13.1721Z" fill="#263238"/>
</g>
</g>
<defs>
<clipPath id="clip0_1_555">
<rect width="188" height="176" fill="white"/>
</clipPath>
</defs>
</svg>
