<svg id="Layer_1" data-name="Layer 1" xmlns="http://www.w3.org/2000/svg" viewBox="0 0 245.75588 217.01879"><defs><style>.cls-1{fill:#fff;}.cls-2{fill:#ff4148;}.cls-3{fill:#ffb902;}.cls-4{fill:#04b5a4;}.cls-5{fill:#e5e8ff;}.cls-6{fill:#ffcfc5;}.cls-7{fill:#014eb1;}.cls-8{fill:#ffb29f;}.cls-9{fill:#444ba1;}.cls-10{fill:#242b2b;}.cls-11{fill:#c5cde3;}.cls-12{fill:#fc9b88;}.cls-13{fill:#212676;}</style></defs><title>Get-an-Edge-with-IR-Prime</title><path class="cls-1" d="M248.897,72.594l-6.094,87.699c-.51,7.329-6.617,13.27-13.641,13.27h-91.66c-7.023,0-12.305-5.943-11.796-13.27L131.8,72.594c.51-7.3288,6.617-13.2698,13.64-13.2698h91.661C244.125,59.3229,249.407,65.2652,248.897,72.594Z" transform="translate(-36.74613 -59.3242)"/><path class="cls-2" d="M144.147,69.1945a2.67231,2.67231,0,1,0-3.764,1.1366A2.78525,2.78525,0,0,0,144.147,69.1945Z" transform="translate(-36.74613 -59.3242)"/><path class="cls-3" d="M151.19,69.1945a2.67231,2.67231,0,1,0-3.764,1.1366A2.78526,2.78526,0,0,0,151.19,69.1945Z" transform="translate(-36.74613 -59.3242)"/><path class="cls-4" d="M158.229,69.1945a2.6723,2.6723,0,1,0-3.764,1.1366A2.78525,2.78525,0,0,0,158.229,69.1945Z" transform="translate(-36.74613 -59.3242)"/><path class="cls-5" d="M146.631,164.973c-7.585,0-13.309-6.442-12.758-14.359l3.777-54.3491c.55-7.9141,7.169-14.3547,14.755-14.3547h75.39c7.586,0,13.309,6.4393,12.76,14.3547l-3.778,54.3491c-.551,7.918-7.169,14.359-14.754,14.359Z" transform="translate(-36.74613 -59.3242)"/><path class="cls-2" d="M202.954,132.738c5.578-9.444,3.052-21.263-5.642-26.399-8.695-5.136-20.265-1.644-25.844,7.8-5.578,9.444-3.053,21.263,5.642,26.399C185.804,145.674,197.375,142.182,202.954,132.738Z" transform="translate(-36.74613 -59.3242)"/><path class="cls-1" d="M194.572,126.17l-9.22,6.627a3.05471,3.05471,0,0,1-4.929-2.729l.921-13.254c.192-2.75,3.287-4.341,5.308-2.723l8.3,6.627A3.476,3.476,0,0,1,194.572,126.17Z" transform="translate(-36.74613 -59.3242)"/><path d="M116.056,272.527l-11.101-6.186-2.984-2.704-12.2015,1.676-.1138,9.55a.79171.79171,0,0,0,.7604.966l26.0709.335a.79365.79365,0,0,0,.803-.783l.013-.946A2.03553,2.03553,0,0,0,116.056,272.527Z" transform="translate(-36.74613 -59.3242)"/><path class="cls-6" d="M89.8641,257.434l-.0946,7.882c4.9149,2.147,9.3901,1.487,12.2015-1.677l.097-6.205Z" transform="translate(-36.74613 -59.3242)"/><path class="cls-1" d="M105.597,270.097l-.398-.22a3.51859,3.51859,0,0,1,2.642-1.822l.035.452A3.062,3.062,0,0,0,105.597,270.097Z" transform="translate(-36.74613 -59.3242)"/><path class="cls-1" d="M108.015,271.487l-.398-.219a3.5179,3.5179,0,0,1,2.642-1.823l.035.453A3.061,3.061,0,0,0,108.015,271.487Z" transform="translate(-36.74613 -59.3242)"/><path d="M80.4695,272.552l-9.2687-8.695-2.2389-3.347-12.2436-1.334-2.4267,9.236a.79189.79189,0,0,0,.5035,1.122l25.2105,6.652a.79428.79428,0,0,0,.9699-.565l.2415-.915A2.03711,2.03711,0,0,0,80.4695,272.552Z" transform="translate(-36.74613 -59.3242)"/><path class="cls-6" d="M58.7225,251.551l-2.0037,7.622c4.2477,3.276,8.7485,3.722,12.2436,1.335l1.5999-5.996Z" transform="translate(-36.74613 -59.3242)"/><path class="cls-1" d="M70.9104,267.654l-.3323-.31a3.52379,3.52379,0,0,1,3.0044-1.127l-.0754.449A3.05137,3.05137,0,0,0,70.9104,267.654Z" transform="translate(-36.74613 -59.3242)"/><path class="cls-1" d="M72.9182,269.591l-.3323-.309a3.51774,3.51774,0,0,1,3.0044-1.127l-.0754.448A3.05652,3.05652,0,0,0,72.9182,269.591Z" transform="translate(-36.74613 -59.3242)"/><path class="cls-7" d="M97.7989,148.548s14.3511,45.797,14.9031,61.641c.189,5.42-6.165,46.788-6.165,46.788.151,2.249-18.8974,2.85-19.0482.601l4.9059-46.936L79.875,164.688l4.7155-20.543Z" transform="translate(-36.74613 -59.3242)"/><path d="M107.375,252.104,91.207,257.37l15.332-.391Z" transform="translate(-36.74613 -59.3242)"/><path class="cls-7" d="M86.7607,148.747s-13.2149-6.065-19.6478.118c-7.0285,2.964-2.6006,41.987-3.2868,55.735-.6518,13.101-6.9902,42.163-8.4355,48.658,5.3366.838,10.7076,1.396,16.1004,1.717.8562.051,1.7226.109,2.5941.168.0831-.291.1687-.593.2607-.913.3732-1.31.8089-2.851,1.2996-4.568,3.9782-14.011,11.1562-39.474,11.6648-42.693a95.57376,95.57376,0,0,0,.8165-11.755" transform="translate(-36.74613 -59.3242)"/><path class="cls-1" d="M88.339,195.903l-.4549-.011c.2799-10.769-.2198-24.92-.6888-34.894l.4537-.021C88.118,170.958,88.6189,185.12,88.339,195.903Z" transform="translate(-36.74613 -59.3242)"/><path d="M75.6477,249.662c-.4907,1.719-.9277,3.26-1.2996,4.569l-14.9106-1.842Z" transform="translate(-36.74613 -59.3242)"/><path d="M73.1829,149.504c-.0792.004-.1584.009-.2415.013C73.0372,149.513,73.1165,149.509,73.1829,149.504Z" transform="translate(-36.74613 -59.3242)"/><path class="cls-6" d="M145.774,101.582s1.696-.114,1.741,1.045a1.354,1.354,0,0,1-1.055,1.369s1.156-.114,1.501.786c.35.914-.932,1.577-.932,1.577a1.10921,1.10921,0,0,1,.537,1.582c-.745,1.555-9.538,4.687-10.756,4.933-1.218.245-21.644,13.828-25.953,13.81-4.037-.014-15.9703-9.197-15.9703-9.197l8.1553-10.315,7.615,5.682,18.811-8.565s7.493-7.3765,9.411-7.1261c1.45.1866-.023,4.1651-.082,4.3321.304-.132,13.033-5.7147,13.711-4.1416C153.194,98.9456,145.774,101.582,145.774,101.582Z" transform="translate(-36.74613 -59.3242)"/><path class="cls-8" d="M141.193,106.067a1.2038,1.2038,0,0,1-.463-.075.57543.57543,0,0,1-.337-.358,1.28769,1.28769,0,0,1,.105-1.02c.669-1.273,3.237-2.065,3.345-2.098l.133.434c-.024.008-2.494.771-3.076,1.875a.84143.84143,0,0,0-.074.671c.005.015.015.047.083.076.725.313,3.771-.939,5.522-1.8l.201.407C146.2,104.392,142.744,106.066,141.193,106.067Z" transform="translate(-36.74613 -59.3242)"/><path class="cls-8" d="M142.047,108.328a1.55166,1.55166,0,0,1-.611-.107.88006.88006,0,0,1-.525-.634c-.268-1.164,1.452-2.096,1.525-2.134l.213.401c-.414.221-1.454.946-1.296,1.631a.42415.42415,0,0,0,.264.319c1.022.445,4.164-1.165,5.29-1.821l.229.393C146.755,106.599,143.734,108.328,142.047,108.328Z" transform="translate(-36.74613 -59.3242)"/><path class="cls-8" d="M142.324,110.277a2.25949,2.25949,0,0,1-1.102-.215.75473.75473,0,0,1-.369-.49,1.20671,1.20671,0,0,1,.161-.942,2.52311,2.52311,0,0,1,1.439-.874l.095.445a2.086,2.086,0,0,0-1.152.676.75376.75376,0,0,0-.098.598.29109.29109,0,0,0,.157.196c.712.421,3.036-.124,3.871-.369l.128.436A13.26179,13.26179,0,0,1,142.324,110.277Z" transform="translate(-36.74613 -59.3242)"/><path class="cls-8" d="M135.563,105.601l-.055-.451c2.388-.291,3.053-3.658,3.059-3.693l.446.084C138.986,101.693,138.282,105.27,135.563,105.601Z" transform="translate(-36.74613 -59.3242)"/><path class="cls-9" d="M82.3906,111.039c0,.133,4.4203,3.541,8.6169,6.742,3.7878,2.892,7.3876,5.613,7.3876,5.613.4997.238,1.1667-.142,1.8969-.921,2.937-3.138,6.925-12.788,5.299-15.159,0,0-6.6911-4.488-10.6705-6.521-3.9832-2.0332-12.0379-3.4414-12.0379-3.4414S82.3906,110.785,82.3906,111.039Z" transform="translate(-36.74613 -59.3242)"/><path d="M91.0039,117.781c3.7877,2.892,7.3876,5.613,7.3876,5.613.4996.237,1.1667-.142,1.8965-.922-3.9463-4.112-6.2708-11.378-6.2708-11.378S92.2409,114.965,91.0039,117.781Z" transform="translate(-36.74613 -59.3242)"/><path class="cls-9" d="M55.2541,116.912c.6786,5.525,1.8082,11.797,2.7577,17.234.9418,5.379,1.7048,9.946,1.683,12.18a4.869,4.869,0,0,1-.0792.921,19.8166,19.8166,0,0,0-.754,2.246c-.6619,2.504-.4498,4.674,2.0754,5.92,6.1748,2.079,34.4791,1.267,38.5582-2.696a4.76875,4.76875,0,0,0-.0038-6.342,8.1842,8.1842,0,0,1-.9329-1.372,10.57406,10.57406,0,0,1-1.1999-3.97c-1.1578-10.821-2.8421-39.021-7.4668-41.5793-7.9371-4.3922-25.9671-2.6376-33.7495,3.2003C54.2586,104.067,54.3915,109.892,55.2541,116.912Z" transform="translate(-36.74613 -59.3242)"/><path d="M58.8633,149.495c3.3289.566,11.7874.154,13.9956.029-5.9793.212-13.1624-3.196-13.1624-3.196a4.85983,4.85983,0,0,1-.0793.921A19.43084,19.43084,0,0,0,58.8633,149.495Z" transform="translate(-36.74613 -59.3242)"/><path d="M55.2539,116.913c.6786,5.525,1.8082,11.797,2.7577,17.234a45.89678,45.89678,0,0,1,5.8579-10.379,17.24213,17.24213,0,0,0,3.0338-12.674l-11.0577,4.724Z" transform="translate(-36.74613 -59.3242)"/><path class="cls-6" d="M65.5977,154.773s8.0226,2.495,8.4942,4.713c.4715,2.219-4.3206.266-4.3206.266" transform="translate(-36.74613 -59.3242)"/><path class="cls-10" d="M52.7782,174.039,65.464,190.993a3.02607,3.02607,0,0,0,3.9206.818l24.5051-13.924a3.026,3.026,0,0,0,.9291-4.447L82.1355,156.49a3.02605,3.02605,0,0,0-3.9206-.818L53.7098,169.597A3.02459,3.02459,0,0,0,52.7782,174.039Z" transform="translate(-36.74613 -59.3242)"/><path class="cls-10" d="M67.8931,192.434a3.25709,3.25709,0,0,1-2.6107-1.304L52.5966,174.176a3.25009,3.25009,0,0,1,1.0019-4.775l24.5051-13.924a3.2614,3.2614,0,0,1,4.2158.879l12.6833,16.95a3.25342,3.25342,0,0,1-.9981,4.781L69.4995,192.011A3.25463,3.25463,0,0,1,67.8931,192.434Zm11.8156-36.928a2.76964,2.76964,0,0,0-1.3802.366L53.8221,169.796a2.79605,2.79605,0,0,0-.8613,4.108l12.6858,16.954a2.806,2.806,0,0,0,3.6267.757l24.5051-13.924a2.79712,2.79712,0,0,0,.8588-4.113L81.954,156.628A2.7989,2.7989,0,0,0,79.7087,155.506Z" transform="translate(-36.74613 -59.3242)"/><path class="cls-1" d="M53.4271,174.906,66.1129,191.86a3.025,3.025,0,0,0,3.9206.818l24.5064-13.924a3.026,3.026,0,0,0,.9291-4.447l-12.6833-16.95a3.026,3.026,0,0,0-3.9206-.818L54.36,170.463A3.02419,3.02419,0,0,0,53.4271,174.906Z" transform="translate(-36.74613 -59.3242)"/><path class="cls-5" d="M53.4272,174.905,66.113,191.859a3.0212,3.0212,0,0,0,3.0963,1.135,3.0303,3.0303,0,0,1-.3003-.348L56.2233,175.692a3.02366,3.02366,0,0,1,.9316-4.442L81.66,157.326a2.89066,2.89066,0,0,1,.8242-.317,3.02584,3.02584,0,0,0-3.6203-.47L54.3588,170.463A3.02358,3.02358,0,0,0,53.4272,174.905Z" transform="translate(-36.74613 -59.3242)"/><path class="cls-10" d="M68.5416,193.299a3.25628,3.25628,0,0,1-2.6108-1.303L53.245,175.042a3.25158,3.25158,0,0,1,1.0019-4.776l24.5052-13.924a3.26146,3.26146,0,0,1,4.2158.879l12.6832,16.95a3.2526,3.2526,0,0,1-.9981,4.781L70.1466,192.874A3.24119,3.24119,0,0,1,68.5416,193.299ZM80.3571,156.37a2.76975,2.76975,0,0,0-1.3801.366L54.4718,170.66a2.79517,2.79517,0,0,0-.8613,4.107l12.6858,16.954a2.80456,2.80456,0,0,0,3.6267.756l24.5051-13.924a2.79712,2.79712,0,0,0,.8588-4.113L82.6037,157.49A2.80845,2.80845,0,0,0,80.3571,156.37Z" transform="translate(-36.74613 -59.3242)"/><path class="cls-5" d="M71.4112,177.893a3.89215,3.89215,0,0,0,4.8611,1.024,2.7879,2.7879,0,0,0,.9291-4.223,3.89069,3.89069,0,0,0-4.8574-1.028A2.793,2.793,0,0,0,71.4112,177.893Z" transform="translate(-36.74613 -59.3242)"/><path class="cls-11" d="M71.4117,177.892a3.67084,3.67084,0,0,0,2.0485,1.336,3.445,3.445,0,0,1-.7769-.752,2.79086,2.79086,0,0,1,.9328-4.226,3.81921,3.81921,0,0,1,2.7986-.315,3.91554,3.91554,0,0,0-4.0701-.268A2.78971,2.78971,0,0,0,71.4117,177.892Z" transform="translate(-36.74613 -59.3242)"/><path class="cls-6" d="M36.7487,134.915c.3297,9.192,21.9416,27.449,21.9416,27.449,1.867,2.588,7.7837,9.675,9.4169,9.542.5418-.046.6338-2.313-.0958-3.299.8625,1.104,2.6286,3.721,3.6624,3.203.5585-.278-.538-3.345-1.1335-4.224.6377.888,2.5622,4.158,3.9334,3,.5163-.433-.5418-3.104-1.5539-4.291.9712.866,2.5788,1.705,3.2919.599.9418-1.454-6.4419-7.142-6.4419-7.142l-4.1711-4.979L50.89,136.103l9.0463-13.45-13.188-7.387C46.7483,115.264,36.5608,129.619,36.7487,134.915Z" transform="translate(-36.74613 -59.3242)"/><path class="cls-9" d="M57.5658,101.699c-3.0056,1.158-9.3312,7.802-14.3036,15.058-2.0306,2.211,12.6769,13.718,14.7087,11.507,0,0,6.7538-8.994,8.3767-14.184C69.6037,103.658,57.5658,101.699,57.5658,101.699Z" transform="translate(-36.74613 -59.3242)"/><path d="M87.75,147.842c8.5083.826,11.7414-1.467,11.7414-1.467a8.17627,8.17627,0,0,1-.9329-1.371C95.1964,146.968,87.75,147.842,87.75,147.842Z" transform="translate(-36.74613 -59.3242)"/><path d="M92.2461,71.8495s-.3859,5.7212-4.1008,6.5748a3.86064,3.86064,0,0,1-4.7078-2.7155l1.7367-4.3807h3.343" transform="translate(-36.74613 -59.3242)"/><path class="cls-6" d="M71.4336,94.3614l2.1942,4.58,6.3256.6658,3.4823.7988-1.0019-5.5015.0882-1.3661.2402-3.6126L72.0866,83.043c.0383.4741.0677.9443.0869,1.4069A41.63353,41.63353,0,0,1,71.4336,94.3614Z" transform="translate(-36.74613 -59.3242)"/><path class="cls-12" d="M72.0898,83.043c.0384.4741.0678.9443.0869,1.4069a1.80512,1.80512,0,0,0,.1981.023,4.09457,4.09457,0,0,1,.253.9751c1.4262,4.8726,6.1698,8.0252,9.8974,8.0904l.2403-3.6126Z" transform="translate(-36.74613 -59.3242)"/><path class="cls-13" d="M71.4346,94.3594c1.0887,2.5788,5.1921,4.0458,8.5198,5.2445,0,0-1.0007,5.8921-2.0038,5.8721-.9239-.019-9.3262-3.068-9.2111-7.6548C70.0659,96.8743,70.4122,95.7025,71.4346,94.3594Z" transform="translate(-36.74613 -59.3242)"/><path class="cls-13" d="M79.9531,99.6077s1.8977,4.4793,3.2101,4.8513c1.4939.423,2.6683-3.768,2.4523-5.9848l-3.1794-3.568C82.7121,96.4333,83.2476,97.7905,79.9531,99.6077Z" transform="translate(-36.74613 -59.3242)"/><path class="cls-6" d="M82.1331,92.1596c-3.7788.1686-8.8227-3.0351-10.305-8.0879a3.88688,3.88688,0,0,0-.2518-.975,3.684,3.684,0,0,1-2.5341-1.5425c-1.0913-1.4594-1.1015-3.3123-.0089-4.1199a2.24376,2.24376,0,0,1,2.2644-.1585c.607-5.2905,3.5526-9.3338,7.3544-9.5945,2.5366-.1738,4.9199,1.3673,6.6234,3.9385.2057.3092.4038.6338.5865.9737a16.807,16.807,0,0,1,1.9284,6.9237C88.267,86.3579,86.1048,91.9807,82.1331,92.1596Z" transform="translate(-36.74613 -59.3242)"/><path d="M64.453,83.9186a5.72856,5.72856,0,0,0,3.4555,3.0504c1.5974.5572,3.0005,1.5194,4.5979.9571l-.1687-.276a20.13161,20.13161,0,0,0-.5124-3.5794,3.747,3.747,0,0,0-.2479-.9738,3.68592,3.68592,0,0,1-2.5341-1.5398c-1.0901-1.4658-1.0977-3.3149-.0077-4.1238a2.24051,2.24051,0,0,1,2.2619-.1572s1.8325.9699,1.7086,2.6376l1.2549.483.7143-3.0094s2.138-1.4402,1.2179-3.1616c0,0,15.5904,4.8049,16.0364-2.0804s-6.7857-4.8548-6.7857-4.8548a13.0665,13.0665,0,0,0,1.1348-2.212c.9699-2.4434,1.292-5.8912-5.3953-4.6733A14.22006,14.22006,0,0,0,69.9429,70.4648a3.34151,3.34151,0,0,0-2.9801.6607,2.74875,2.74875,0,0,0-.3629,3.5794,1.74091,1.74091,0,0,0-2.2823-.3348,2.86993,2.86993,0,0,0-1.1923,2.1469,4.39422,4.39422,0,0,0,1.8491,4.0165C63.7604,81.5494,63.855,82.4567,64.453,83.9186Z" transform="translate(-36.74613 -59.3242)"/><path class="cls-12" d="M84.8099,80.4531l1.076,4.2542-2.1086.2492Z" transform="translate(-36.74613 -59.3242)"/><path class="cls-7" d="M84.9872,261.258a2.98015,2.98015,0,0,0,1.8989.626q9.62085-.138,19.2069-.472a2.75043,2.75043,0,0,0,2.716-1.941,1.95541,1.95541,0,0,0-.74-1.921,2.88648,2.88648,0,0,0-1.881-.584q-9.65385.336-19.3453.476a2.55616,2.55616,0,0,0-2.6913,2.083A2.06964,2.06964,0,0,0,84.9872,261.258Z" transform="translate(-36.74613 -59.3242)"/><path class="cls-7" d="M52.5731,255.039a2.989,2.989,0,0,0,1.7865.901q9.5364,1.284,19.0664,2.371a2.75117,2.75117,0,0,0,2.9737-1.518,1.95534,1.95534,0,0,0-.4473-2.009,2.88332,2.88332,0,0,0-1.775-.854q-9.5958-1.095-19.2018-2.389a2.55652,2.55652,0,0,0-2.9699,1.663A2.05455,2.05455,0,0,0,52.5731,255.039Z" transform="translate(-36.74613 -59.3242)"/><path class="cls-1" d="M177.954,65.9088a1.30985,1.30985,0,1,0-1.309-1.3099A1.30967,1.30967,0,0,0,177.954,65.9088Z" transform="translate(-36.74613 -59.3242)"/><path class="cls-1" d="M158.51,186.336a13.1155,13.1155,0,1,0-13.115-13.115A13.11527,13.11527,0,0,0,158.51,186.336Z" transform="translate(-36.74613 -59.3242)"/><path class="cls-1" d="M112.705,86.3846A13.11515,13.11515,0,1,0,99.5898,73.2694,13.11525,13.11525,0,0,0,112.705,86.3846Z" transform="translate(-36.74613 -59.3242)"/><path class="cls-2" d="M165.743,173.872c-1.386,4.713-9.174,5.938-9.174,5.938s-5.881-5.248-4.494-9.961a4.59119,4.59119,0,0,1,7.917-1.663,4.58852,4.58852,0,0,1,5.751,5.686Z" transform="translate(-36.74613 -59.3242)"/><path class="cls-1" d="M269.577,98.2206a12.92475,12.92475,0,1,0-12.925-12.9248A12.92507,12.92507,0,0,0,269.577,98.2206Z" transform="translate(-36.74613 -59.3242)"/><path class="cls-6" d="M275.953,84.155l-.434.1253a1.00062,1.00062,0,0,1,1.154,1.4415.98866.98866,0,0,1-.596.4792l-.434.1252a.99943.99943,0,0,1,.558,1.9194l-5.623,1.6306a3.7252,3.7252,0,0,1-1.907.046l-.925.0793-1.453-5.0094,1.478-3.527a2.63347,2.63347,0,0,0-.005-1.4569l-.503-1.7366a1.39531,1.39531,0,0,1,.951-1.7278c.648-.1878,1.331.1163,1.661,1.2498.027.0946.051.1917.073.2965l.319.8562a3.87093,3.87093,0,0,1,.219.9086l.198,1.6651,3.927-1.1386v.0026a.99917.99917,0,0,1,.496,1.9347l.241-.0703a1.03925,1.03925,0,0,1,1.291.6926.994.994,0,0,1-.09.7348A.98279.98279,0,0,1,275.953,84.155Z" transform="translate(-36.74613 -59.3242)"/><path class="cls-9" d="M266.94,83.812l1.852,6.3831a.64167.64167,0,0,1-.44.7974l-3.349.9713a.64242.64242,0,0,1-.797-.4396l-1.852-6.3819a.64168.64168,0,0,1,.44-.7974l3.349-.9712A.64158.64158,0,0,1,266.94,83.812Z" transform="translate(-36.74613 -59.3242)"/><path class="cls-11" d="M109.504,80.4546l.536-4.0344h-1.688V75.2049h1.873l.391-2.9839h-1.77V71.007h1.955l.536-3.9308h1.193l-.513,3.9308h2.14l.536-3.9308h1.214l-.515,3.9308h1.688v1.214h-1.874l-.37,2.9839h1.77v1.2153H114.65l-.535,4.0344H112.88l.536-4.0344h-2.141l-.535,4.0344Zm4.096-5.2484.391-2.9839H111.85l-.391,2.9839Z" transform="translate(-36.74613 -59.3242)"/><path class="cls-4" d="M205.332,254.041s-5.672-15.575-1.646-20.645c4.025-5.071,8.422-.312,8.422-.312s.679-10.884,6.176-16.589c5.498-5.704,12.221-3.017,13.73,1.472,1.51,4.49-4.839,8.389-7.217,9.597-2.379,1.209-5.943,4.495-4.583,5.674,1.36,1.18,5.452-.95,5.049,4.361C224.859,242.908,205.332,254.041,205.332,254.041Z" transform="translate(-36.74613 -59.3242)"/><path d="M203.79,259.351l-.442-.108c2.985-12.305,18.193-37.127,18.347-37.376l.387.238C221.928,222.354,206.758,247.116,203.79,259.351Z" transform="translate(-36.74613 -59.3242)"/><path d="M208.88,246.232l-.376-.254c.217-.32,5.362-7.83,10.164-8.271l.043.452C214.119,238.581,208.932,246.155,208.88,246.232Z" transform="translate(-36.74613 -59.3242)"/><path d="M207.63,248.891l-.426-.16c.017-.042,1.536-4.303-2.36-10.281l.381-.249C209.256,244.388,207.699,248.711,207.63,248.891Z" transform="translate(-36.74613 -59.3242)"/><path class="cls-4" d="M202.107,251.328s11.327-12.101,9.615-18.346-7.625-3.592-7.625-3.592,3.647-10.278.829-17.682c-2.818-7.405-10.057-7.571-13.206-4.034-3.15,3.536,1.16,9.615,2.873,11.66,1.712,2.045,3.702,6.465,1.99,7.017-1.713.552-4.642-3.013-6.355,2.029C188.514,233.424,202.107,251.328,202.107,251.328Z" transform="translate(-36.74613 -59.3242)"/><path d="M201.89,256.889l-.449-.074c2.07-12.419-2.167-41.147-2.211-41.436l.45-.067C199.724,215.6,203.971,244.4,201.89,256.889Z" transform="translate(-36.74613 -59.3242)"/><path d="M201.906,242.749c-.018-.091-1.819-9.095-5.875-11.283l.216-.4c4.245,2.29,6.032,11.218,6.105,11.596Z" transform="translate(-36.74613 -59.3242)"/><path class="cls-1" d="M189.35,258.114l3.179,16.489a1.86783,1.86783,0,0,0,1.835,1.516h19.198a1.86945,1.86945,0,0,0,1.835-1.516l3.178-16.489a1.86986,1.86986,0,0,0-1.835-2.223H191.186A1.87054,1.87054,0,0,0,189.35,258.114Z" transform="translate(-36.74613 -59.3242)"/><path class="cls-5" d="M189.35,258.112l3.179,16.489a1.86782,1.86782,0,0,0,1.835,1.516h19.198a1.86865,1.86865,0,0,0,1.835-1.516l.053-.291c-.065.005-.124.01-.189.01H196.063a1.86859,1.86859,0,0,1-1.835-1.515l-3.178-16.489a1.54992,1.54992,0,0,1-.027-.416A1.8662,1.8662,0,0,0,189.35,258.112Z" transform="translate(-36.74613 -59.3242)"/><path d="M213.557,276.343H194.359a2.09329,2.09329,0,0,1-2.057-1.701l-3.178-16.489a2.09709,2.09709,0,0,1,2.057-2.493h25.554a2.09843,2.09843,0,0,1,2.058,2.493l-3.178,16.49A2.09414,2.09414,0,0,1,213.557,276.343ZM189.57,258.068l3.178,16.489a1.64058,1.64058,0,0,0,1.611,1.331h19.198a1.64167,1.64167,0,0,0,1.612-1.331l3.178-16.491a1.64258,1.64258,0,0,0-1.612-1.952H191.181a1.64174,1.64174,0,0,0-1.611,1.954Z" transform="translate(-36.74613 -59.3242)"/><path d="M202.469,245.708l-.453-.019c.007-.193.271-4.781,6.406-8.888l.253.377C202.729,241.158,202.471,245.662,202.469,245.708Z" transform="translate(-36.74613 -59.3242)"/></svg>