<svg width="194" height="171" viewBox="0 0 194 171" fill="none" xmlns="http://www.w3.org/2000/svg">
<path d="M167.472 10.4559L162.662 79.5584C162.259 85.3333 157.438 90.0145 151.893 90.0145H79.5368C73.9928 90.0145 69.8232 85.3317 70.225 79.5584L75.0357 10.4559C75.4382 4.68121 80.2591 1.68039e-07 85.8031 1.68039e-07H158.16C163.705 -0.00102417 167.875 4.68121 167.472 10.4559Z" fill="white"/>
<path d="M84.7824 7.77736C84.961 7.40918 85.0282 6.99705 84.976 6.59133C84.9237 6.1856 84.7542 5.80385 84.4882 5.49273C84.2221 5.1816 83.871 4.95457 83.4777 4.83937C83.0845 4.72417 82.6662 4.7258 82.2739 4.84405C81.8815 4.9623 81.5322 5.19205 81.2686 5.50524C81.005 5.81842 80.8384 6.20147 80.7893 6.60759C80.7403 7.0137 80.8107 7.4253 80.9922 7.79209C81.1736 8.15887 81.4582 8.46495 81.8111 8.67295C82.3243 8.94641 82.9252 9.00571 83.4821 8.83784C84.039 8.66998 84.5066 8.28865 84.7824 7.77736Z" fill="#FF4148"/>
<path d="M90.3421 7.77736C90.5207 7.40918 90.588 6.99705 90.5357 6.59133C90.4835 6.1856 90.314 5.80385 90.0479 5.49273C89.7818 5.1816 89.4307 4.95457 89.0375 4.83937C88.6443 4.72417 88.2259 4.7258 87.8336 4.84405C87.4413 4.9623 87.092 5.19205 86.8284 5.50524C86.5647 5.81842 86.3982 6.20147 86.3491 6.60759C86.3 7.0137 86.3705 7.4253 86.5519 7.79209C86.7334 8.15887 87.0179 8.46495 87.3708 8.67295C87.884 8.94641 88.4849 9.0057 89.0418 8.83784C89.5988 8.66997 90.0663 8.28864 90.3421 7.77736Z" fill="#FFB902"/>
<path d="M95.8987 7.77734C96.0773 7.40916 96.1446 6.99703 96.0923 6.59131C96.0401 6.18559 95.8706 5.80384 95.6045 5.49272C95.3384 5.1816 94.9873 4.95457 94.5941 4.83937C94.2009 4.72417 93.7825 4.7258 93.3902 4.84405C92.9979 4.9623 92.6486 5.19205 92.385 5.50523C92.1213 5.81841 91.9548 6.20146 91.9057 6.60757C91.8566 7.01369 91.9271 7.42529 92.1085 7.79207C92.29 8.15885 92.5745 8.46494 92.9274 8.67293C93.4406 8.94639 94.0415 9.00569 94.5984 8.83782C95.1554 8.66996 95.6229 8.28863 95.8987 7.77734Z" fill="#04B5A4"/>
<path d="M86.7433 83.246C80.7556 83.246 76.2371 78.17 76.6721 71.9318L79.6536 29.1074C80.0878 22.8715 85.3129 17.7966 91.3013 17.7966H150.814C156.803 17.7966 161.32 22.8705 160.887 29.1074L157.905 71.9318C157.47 78.1708 152.245 83.246 146.258 83.246H86.7433Z" fill="#E5E8FF"/>
<path d="M131.205 57.8464C135.608 50.405 133.614 41.0922 126.751 37.0453C119.887 32.9984 110.754 35.7499 106.35 43.1913C101.946 50.6327 103.94 59.9455 110.803 63.9924C117.666 68.0393 126.801 65.2878 131.205 57.8464Z" fill="#FF4148"/>
<path d="M124.588 52.6711L117.31 57.8929C116.937 58.1866 116.485 58.3639 116.011 58.4024C115.538 58.4408 115.064 58.3388 114.648 58.1091C114.232 57.8794 113.894 57.5322 113.675 57.1112C113.456 56.6901 113.367 56.214 113.419 55.7425L114.146 45.2991C114.297 43.1322 116.74 41.8786 118.336 43.1535L124.888 48.3752C125.196 48.6535 125.436 48.998 125.592 49.3827C125.747 49.7674 125.812 50.1822 125.783 50.5959C125.755 51.0096 125.632 51.4113 125.425 51.7708C125.218 52.1303 124.932 52.4381 124.588 52.6711Z" fill="white"/>
<path d="M62.6073 167.993L53.8442 163.119L51.4886 160.988L41.8567 162.309L41.7669 169.834C41.7464 169.924 41.7464 170.018 41.7669 170.109C41.7874 170.199 41.8279 170.284 41.8854 170.357C41.9429 170.43 42.016 170.489 42.0993 170.53C42.1827 170.572 42.2742 170.594 42.3671 170.595L62.9475 170.859C63.1135 170.861 63.2735 170.797 63.3924 170.681C63.5112 170.566 63.5792 170.408 63.5814 170.242L63.5917 169.497C63.5966 169.177 63.5055 168.862 63.3301 168.594C63.1547 168.327 62.9029 168.117 62.6073 167.993Z" fill="black"/>
<path d="M41.9314 156.101L41.8567 162.311C45.7365 164.003 49.2693 163.483 51.4886 160.99L51.5652 156.101H41.9314Z" fill="#FFCFC5"/>
<path d="M54.351 166.078L54.0368 165.905C54.2454 165.518 54.5434 165.186 54.906 164.936C55.2687 164.687 55.6856 164.527 56.1224 164.469L56.15 164.826C55.7724 164.878 55.4126 165.019 55.0999 165.237C54.7872 165.454 54.5306 165.743 54.351 166.078Z" fill="white"/>
<path d="M56.2597 167.174L55.9456 167.001C56.1541 166.614 56.452 166.281 56.8147 166.032C57.1773 165.782 57.5943 165.622 58.0312 165.565L58.0588 165.922C57.6812 165.974 57.3214 166.115 57.0088 166.332C56.6961 166.55 56.4394 166.838 56.2597 167.174Z" fill="white"/>
<path d="M34.5153 168.013L27.1986 161.162L25.4312 158.524L15.7661 157.473L13.8504 164.751C13.8085 164.834 13.7857 164.925 13.7836 165.018C13.7814 165.11 13.8001 165.203 13.8382 165.287C13.8763 165.372 13.9328 165.447 14.0037 165.507C14.0746 165.567 14.158 165.611 14.2479 165.635L34.1491 170.876C34.3097 170.918 34.4806 170.895 34.6242 170.812C34.7677 170.728 34.8722 170.591 34.9147 170.431L35.1054 169.71C35.1878 169.401 35.1756 169.074 35.0705 168.771C34.9653 168.469 34.772 168.205 34.5153 168.013Z" fill="black"/>
<path d="M17.3482 151.465L15.7664 157.471C19.1196 160.052 22.6725 160.404 25.4316 158.523L26.6945 153.798L17.3482 151.465Z" fill="#FFCFC5"/>
<path d="M26.9693 164.154L26.707 163.909C27.0037 163.584 27.3734 163.335 27.7857 163.18C28.198 163.026 28.6412 162.971 29.0787 163.021L29.0192 163.375C28.6401 163.334 28.2567 163.383 27.9003 163.518C27.544 163.653 27.2249 163.871 26.9693 164.154Z" fill="white"/>
<path d="M28.5543 165.68L28.292 165.436C28.5884 165.111 28.9581 164.861 29.3705 164.707C29.7828 164.552 30.2261 164.498 30.6636 164.548L30.6041 164.901C30.2251 164.86 29.8418 164.909 29.4855 165.045C29.1292 165.18 28.81 165.398 28.5543 165.68Z" fill="white"/>
<path d="M48.1951 70.3039C48.1951 70.3039 59.5239 106.39 59.9597 118.874C60.1089 123.145 55.093 155.741 55.093 155.741C55.2122 157.513 40.1754 157.986 40.0563 156.214L43.9291 119.231L34.046 83.0215L37.7684 66.8346L48.1951 70.3039Z" fill="#014EB1"/>
<path d="M55.7545 151.901L42.9915 156.05L55.0946 155.742L55.7545 151.901Z" fill="black"/>
<path d="M39.4816 70.4607C39.4816 70.4607 29.0497 65.6818 23.9716 70.5537C18.4233 72.8892 21.9187 103.637 21.377 114.47C20.8624 124.793 15.8589 147.692 14.718 152.81C18.9307 153.47 23.1706 153.91 27.4276 154.163C28.1035 154.203 28.7875 154.249 29.4754 154.295C29.541 154.066 29.6086 153.828 29.6812 153.576C29.9758 152.544 30.3198 151.33 30.7071 149.977C33.8475 138.937 39.5139 118.873 39.9153 116.337C40.3209 113.265 40.5361 110.172 40.5599 107.074" fill="#014EB1"/>
<path d="M40.7275 107.617L40.3684 107.609C40.5893 99.1233 40.1949 87.973 39.8246 80.114L40.1828 80.0974C40.553 87.9619 40.9484 99.1209 40.7275 107.617Z" fill="white"/>
<path d="M30.7089 149.977C30.3216 151.331 29.9766 152.545 29.683 153.577L17.9126 152.125L30.7089 149.977Z" fill="black"/>
<path d="M28.7632 71.0571C28.7007 71.0603 28.6382 71.0642 28.5726 71.0674C28.6482 71.0642 28.7108 71.0611 28.7632 71.0571Z" fill="black"/>
<path d="M86.0667 33.297C86.0667 33.297 87.4056 33.2072 87.4411 34.1204C87.45 34.3689 87.3716 34.6127 87.2195 34.8096C87.0675 35.0066 86.8513 35.1444 86.6083 35.1991C86.6083 35.1991 87.5208 35.1093 87.7932 35.8184C88.0694 36.5386 87.0574 37.061 87.0574 37.061C87.1729 37.1085 87.2769 37.1802 87.3624 37.2711C87.4479 37.362 87.5129 37.4701 87.553 37.5882C87.5932 37.7063 87.6076 37.8316 87.5952 37.9556C87.5828 38.0797 87.544 38.1997 87.4813 38.3076C86.8932 39.5328 79.952 42.0007 78.9905 42.1945C78.029 42.3876 61.9047 53.0903 58.5032 53.0761C55.3164 53.0651 45.8962 45.8293 45.8962 45.8293L52.334 37.7016L58.3453 42.1788L73.1948 35.43C73.1948 35.43 79.1097 29.6177 80.6238 29.815C81.7684 29.962 80.6057 33.0969 80.5591 33.2285C80.7991 33.1244 90.8473 28.7256 91.3826 29.9651C91.9241 31.2197 86.0667 33.297 86.0667 33.297Z" fill="#FFCFC5"/>
<path d="M82.4505 36.831C82.3259 36.8354 82.2018 36.8153 82.085 36.7719C82.0225 36.7474 81.9663 36.7094 81.9203 36.6606C81.8743 36.6118 81.8397 36.5535 81.819 36.4898C81.7769 36.3573 81.7626 36.2176 81.7768 36.0793C81.7911 35.9411 81.8336 35.8072 81.9019 35.6861C82.43 34.683 84.4571 34.059 84.5424 34.033L84.6474 34.3749C84.6284 34.3812 82.6786 34.9824 82.2192 35.8523C82.1734 35.9317 82.1446 36.0196 82.1345 36.1106C82.1245 36.2016 82.1334 36.2937 82.1608 36.3811C82.1647 36.3929 82.1726 36.4181 82.2263 36.4409C82.7986 36.6876 85.2031 35.7011 86.5854 35.0226L86.744 35.3433C86.403 35.5112 83.6748 36.8302 82.4505 36.831Z" fill="#FFB29F"/>
<path d="M83.1246 38.6125C82.9598 38.6171 82.7958 38.5884 82.6423 38.5282C82.5377 38.485 82.4452 38.4168 82.373 38.3298C82.3007 38.2427 82.2509 38.1393 82.2279 38.0286C82.0163 37.1115 83.3741 36.3771 83.4317 36.3472L83.5999 36.6631C83.2731 36.8373 82.4521 37.4085 82.5768 37.9483C82.5871 38.0045 82.6117 38.0571 82.6482 38.1011C82.6847 38.1451 82.7318 38.179 82.7852 38.1996C83.592 38.5503 86.0723 37.2817 86.9611 36.7648L87.1419 37.0744C86.8411 37.2502 84.4564 38.6125 83.1246 38.6125Z" fill="#FFB29F"/>
<path d="M83.3433 40.1483C83.0437 40.1658 82.7445 40.1075 82.4734 39.9789C82.4005 39.9385 82.3369 39.8832 82.2867 39.8167C82.2365 39.7502 82.2009 39.6739 82.1821 39.5928C82.1515 39.4669 82.147 39.3362 82.1689 39.2086C82.1908 39.0809 82.2385 38.9591 82.3092 38.8505C82.5977 38.4979 82.9987 38.2548 83.4451 38.1619L83.5201 38.5125C83.1667 38.5858 82.8472 38.7729 82.6107 39.0452C82.5659 39.1141 82.5359 39.1915 82.5225 39.2727C82.5092 39.3538 82.5129 39.4367 82.5334 39.5164C82.5412 39.5497 82.5564 39.5809 82.5778 39.6076C82.5993 39.6343 82.6264 39.6559 82.6573 39.6708C83.2194 40.0025 85.0539 39.5731 85.7131 39.38L85.8141 39.7236C85.0105 39.9634 84.181 40.106 83.3433 40.1483Z" fill="#FFB29F"/>
<path d="M78.0062 36.4639L77.9627 36.1085C79.8478 35.8792 80.3728 33.2262 80.3775 33.1986L80.7296 33.2648C80.7083 33.3846 80.1525 36.2031 78.0062 36.4639Z" fill="#FFB29F"/>
<path d="M36.0318 40.7487C36.0318 40.8535 39.5212 43.5389 42.834 46.0611C45.8241 48.3398 48.6658 50.4839 48.6658 50.4839C49.0602 50.6714 49.5868 50.372 50.1632 49.7582C52.4817 47.2856 55.6298 39.6819 54.3462 37.8136C54.3462 37.8136 49.0643 34.2773 45.9229 32.6754C42.7786 31.0733 36.4202 29.9637 36.4202 29.9637C36.4202 29.9637 36.0318 40.5486 36.0318 40.7487Z" fill="#444BA1"/>
<path d="M42.8311 46.061C45.8212 48.3398 48.6629 50.4838 48.6629 50.4838C49.0573 50.6705 49.5839 50.3719 50.16 49.7573C47.0448 46.5172 45.2098 40.792 45.2098 40.792C45.2098 40.792 43.8076 43.8421 42.8311 46.061Z" fill="black"/>
<path d="M14.6102 45.3763C15.1459 49.7298 16.0376 54.6718 16.7871 58.9559C17.5306 63.1942 18.1329 66.7928 18.1157 68.5531C18.118 68.7964 18.097 69.0394 18.0532 69.2788C17.8196 69.8563 17.6208 70.4473 17.458 71.0485C16.9355 73.0216 17.1029 74.7314 19.0963 75.7132C23.9707 77.3513 46.3142 76.7115 49.5342 73.5889C50.1475 72.9004 50.4861 72.011 50.4855 71.0897C50.485 70.1684 50.1454 69.2794 49.5312 68.5917C49.2497 68.2572 49.0029 67.895 48.7948 67.5106C48.2753 66.5406 47.9533 65.4774 47.8476 64.3825C46.9336 55.8561 45.604 33.6359 41.9533 31.6201C35.6877 28.1592 21.4548 29.5418 15.3114 34.1417C13.8244 35.2551 13.9293 39.8449 14.6102 45.3763Z" fill="#444BA1"/>
<path d="M17.4593 71.0501C20.0872 71.4961 26.7643 71.1715 28.5075 71.073C23.7874 71.24 18.117 68.5547 18.117 68.5547C18.1193 68.798 18.0984 69.041 18.0544 69.2804C17.8202 69.8577 17.6214 70.4487 17.4593 71.0501Z" fill="black"/>
<path d="M14.6101 45.3771C15.1457 49.7305 16.0375 54.6725 16.787 58.9566C17.9658 56.0415 19.5203 53.2923 21.4112 50.7785C23.4876 47.8906 24.3474 44.3054 23.8061 40.792L15.0772 44.5143L14.6101 45.3771Z" fill="black"/>
<path d="M22.7755 75.2089C22.7755 75.2089 29.1085 77.1748 29.4808 78.9225C29.853 80.6709 26.0701 79.1321 26.0701 79.1321" fill="#FFCFC5"/>
<path d="M12.6557 90.3896L22.6699 103.748C23.0185 104.214 23.5254 104.536 24.0953 104.655C24.6652 104.774 25.2589 104.68 25.7649 104.393L45.1092 93.4216C45.4044 93.2546 45.6605 93.0267 45.8605 92.7531C46.0606 92.4795 46.1999 92.1666 46.2693 91.8351C46.3387 91.5035 46.3366 91.161 46.263 90.8304C46.1894 90.4998 46.0461 90.1886 45.8426 89.9176L35.8304 76.5618C35.4818 76.0964 34.975 75.7741 34.4051 75.6554C33.8352 75.5367 33.2415 75.6298 32.7355 75.9173L13.3911 86.8895C13.0963 87.0563 12.8404 87.2838 12.6404 87.557C12.4405 87.8301 12.3011 88.1427 12.2315 88.4737C12.162 88.8048 12.1638 89.1469 12.237 89.4773C12.3101 89.8076 12.4529 90.1186 12.6557 90.3896Z" fill="#242B2B"/>
<path d="M24.5875 104.884C24.1875 104.884 23.793 104.792 23.4353 104.613C23.0775 104.435 22.7664 104.176 22.5266 103.856L12.5124 90.4975C12.2941 90.2062 12.1406 89.8719 12.0619 89.5167C11.9832 89.1616 11.9812 88.7938 12.056 88.4378C12.1309 88.0819 12.2808 87.7459 12.4959 87.4523C12.7109 87.1587 12.9862 86.9142 13.3033 86.735L32.6476 75.7636C33.192 75.4557 33.83 75.3562 34.4424 75.4837C35.0549 75.6111 35.5999 75.9568 35.9756 76.4562L45.9878 89.812C46.2066 90.1033 46.3607 90.4378 46.4398 90.7933C46.5189 91.1487 46.5213 91.5169 46.4467 91.8733C46.3722 92.2297 46.2225 92.5662 46.0075 92.8603C45.7925 93.1544 45.5172 93.3995 45.1999 93.5791L25.8556 104.551C25.4689 104.769 25.0319 104.884 24.5875 104.884ZM33.9147 75.7864C33.5325 75.7859 33.1569 75.8853 32.8252 76.0748L13.4798 87.0463C13.207 87.2004 12.9702 87.4108 12.7853 87.6634C12.6003 87.916 12.4714 88.2051 12.407 88.5113C12.3427 88.8176 12.3445 89.134 12.4122 89.4395C12.48 89.745 12.6121 90.0326 12.7999 90.2832L22.8141 103.642C23.1372 104.072 23.606 104.369 24.1329 104.479C24.6598 104.589 25.2086 104.503 25.677 104.239L45.0213 93.2671C45.2945 93.1127 45.5315 92.902 45.7166 92.649C45.9017 92.396 46.0306 92.1065 46.0947 91.7998C46.1589 91.4931 46.1568 91.1763 46.0886 90.8705C46.0204 90.5646 45.8877 90.2769 45.6993 90.0263L35.6872 76.6705C35.4811 76.3956 35.2135 76.1725 34.9058 76.019C34.5981 75.8656 34.2587 75.7859 33.9147 75.7864Z" fill="#242B2B"/>
<path d="M13.168 91.0727L23.1822 104.432C23.5306 104.897 24.0375 105.22 24.6075 105.338C25.1774 105.457 25.7712 105.364 26.2771 105.076L45.6225 94.1047C45.9176 93.9377 46.1738 93.7098 46.3738 93.4362C46.5739 93.1627 46.7132 92.8497 46.7826 92.5182C46.852 92.1866 46.8498 91.8442 46.7763 91.5135C46.7027 91.1829 46.5594 90.8717 46.3559 90.6007L36.3437 77.2449C35.9951 76.7795 35.4883 76.4572 34.9183 76.3385C34.3484 76.2198 33.7547 76.3129 33.2488 76.6004L13.9044 87.5718C13.6093 87.7385 13.3532 87.966 13.153 88.2391C12.9529 88.5123 12.8133 88.8249 12.7436 89.1561C12.6739 89.4873 12.6758 89.8296 12.7489 90.16C12.8221 90.4905 12.965 90.8016 13.168 91.0727Z" fill="white"/>
<path d="M13.1681 91.0719L23.1822 104.431C23.459 104.8 23.8374 105.081 24.2713 105.24C24.7053 105.399 25.176 105.429 25.6265 105.325C25.5406 105.24 25.4614 105.148 25.3894 105.051L15.3753 91.6921C15.1723 91.4211 15.0294 91.1101 14.9562 90.7798C14.883 90.4494 14.8811 90.1073 14.9507 89.7762C15.0203 89.445 15.1597 89.1325 15.3597 88.8593C15.5598 88.5862 15.8158 88.3587 16.1107 88.192L35.4551 77.2206C35.6578 77.1045 35.8773 77.0203 36.1057 76.9708C35.7347 76.6069 35.2548 76.3738 34.739 76.307C34.2232 76.2401 33.6996 76.3432 33.2478 76.6005L13.9035 87.5719C13.6085 87.7386 13.3525 87.9661 13.1525 88.2392C12.9525 88.5124 12.813 88.8249 12.7434 89.156C12.6739 89.4872 12.6758 89.8293 12.749 90.1596C12.8222 90.49 12.965 90.801 13.1681 91.0719Z" fill="#E5E8FF"/>
<path d="M25.0994 105.565C24.6995 105.566 24.305 105.474 23.9472 105.295C23.5895 105.117 23.2783 104.858 23.0384 104.539L13.0242 91.1799C12.806 90.8885 12.6525 90.5541 12.5739 90.199C12.4952 89.8438 12.4932 89.4759 12.568 89.1199C12.6429 88.7639 12.7928 88.4279 13.0078 88.1342C13.2228 87.8405 13.498 87.5959 13.8151 87.4166L33.1596 76.4452C33.7039 76.1373 34.3419 76.0379 34.9543 76.1653C35.5668 76.2928 36.1118 76.6385 36.4875 77.1378L46.4997 90.4936C46.7185 90.7849 46.8727 91.1194 46.9519 91.4749C47.0311 91.8303 47.0335 92.1985 46.9589 92.555C46.8844 92.9114 46.7346 93.2479 46.5195 93.542C46.3045 93.8362 46.0291 94.0812 45.7118 94.2608L26.3664 105.231C25.9803 105.45 25.5437 105.566 25.0994 105.565ZM34.4266 76.4673C34.0444 76.4667 33.6688 76.5662 33.3371 76.7557L13.9927 87.7271C13.7199 87.8812 13.4832 88.0915 13.2982 88.3441C13.1133 88.5966 12.9843 88.8856 12.92 89.1918C12.8557 89.4979 12.8574 89.8143 12.9251 90.1197C12.9929 90.4252 13.125 90.7127 13.3128 90.9632L23.3269 104.322C23.65 104.752 24.1189 105.049 24.6458 105.159C25.1728 105.269 25.7217 105.183 26.1899 104.918L45.5342 93.9464C45.8073 93.792 46.0443 93.5813 46.2294 93.3282C46.4145 93.0752 46.5435 92.7857 46.6076 92.479C46.6718 92.1723 46.6697 91.8555 46.6015 91.5497C46.5333 91.2439 46.4006 90.9561 46.2122 90.7055L36.2 77.3498C35.9932 77.0755 35.7254 76.8529 35.4176 76.6997C35.1098 76.5466 34.7705 76.467 34.4266 76.4673Z" fill="#242B2B"/>
<path d="M27.3647 93.4264C27.8099 93.9861 28.437 94.373 29.1376 94.5203C29.8382 94.6677 30.5684 94.5661 31.202 94.2332C31.4939 94.0864 31.7494 93.8765 31.9499 93.6188C32.1504 93.3611 32.2908 93.0621 32.3611 92.7435C32.4313 92.4248 32.4296 92.0945 32.3559 91.7767C32.2823 91.4588 32.1387 91.1612 31.9354 90.9057C31.4909 90.346 30.8646 89.9587 30.1645 89.8108C29.4644 89.6629 28.7346 89.7637 28.101 90.0957C27.8089 90.2427 27.5532 90.4527 27.3525 90.7106C27.1518 90.9685 27.0111 91.2677 26.9407 91.5865C26.8702 91.9054 26.8716 92.2359 26.945 92.5541C27.0183 92.8723 27.1617 93.1703 27.3647 93.4264Z" fill="#E5E8FF"/>
<path d="M27.365 93.4255C27.7677 93.9506 28.3384 94.3221 28.9821 94.4782C28.7477 94.3141 28.5408 94.1142 28.3688 93.8857C28.1657 93.6297 28.0222 93.3318 27.9488 93.0137C27.8754 92.6955 27.8739 92.3649 27.9444 92.0461C28.0149 91.7272 28.1556 91.4281 28.3564 91.1703C28.5572 90.9125 28.813 90.7026 29.1052 90.5558C29.783 90.1952 30.5732 90.1064 31.3144 90.3076C30.85 89.9811 30.3045 89.7887 29.7377 89.7514C29.1709 89.7142 28.6048 89.8335 28.1015 90.0964C27.8093 90.2431 27.5535 90.4529 27.3527 90.7106C27.1519 90.9683 27.0111 91.2674 26.9405 91.5862C26.87 91.905 26.8715 92.2355 26.945 92.5537C27.0184 92.8718 27.1619 93.1696 27.365 93.4255Z" fill="#C5CDE3"/>
<path d="M0.00202691 59.5618C0.262293 66.8046 17.3228 81.1902 17.3228 81.1902C18.7966 83.2294 23.4672 88.8137 24.7565 88.7089C25.1842 88.6726 25.2568 86.8863 24.6808 86.1094C25.3617 86.9793 26.7559 89.0414 27.5719 88.6332C28.0128 88.4142 27.1472 85.9975 26.6772 85.3049C27.1806 86.0046 28.6998 88.5812 29.7822 87.6688C30.1898 87.3276 29.3545 85.223 28.5555 84.2877C29.3222 84.97 30.5912 85.6311 31.1542 84.7596C31.8976 83.614 26.0689 79.1321 26.0689 79.1321L22.7763 75.2089L11.1652 60.4979L18.3063 49.8999L7.89572 44.0793C7.89572 44.0778 -0.146302 55.3888 0.00202691 59.5618Z" fill="#FFCFC5"/>
<path d="M16.4351 33.3893C14.0624 34.3017 9.06901 39.5369 5.14379 45.2542C3.54083 46.9964 15.151 56.0633 16.7549 54.3212C16.7549 54.3212 22.0863 47.2344 23.3674 43.1449C25.9378 34.9329 16.4351 33.3893 16.4351 33.3893Z" fill="#444BA1"/>
<path d="M40.2625 69.7477C46.979 70.3985 49.5312 68.5918 49.5312 68.5918C49.2497 68.2575 49.0029 67.8955 48.7948 67.5115C46.1407 69.059 40.2625 69.7477 40.2625 69.7477Z" fill="black"/>
<path d="M43.8118 9.86933C43.8118 9.86933 43.5071 14.3774 40.5746 15.0499C39.7976 15.2543 38.9713 15.1441 38.2753 14.7434C37.5793 14.3427 37.07 13.6839 36.8582 12.9103L38.2292 9.4585H40.8681" fill="black"/>
<path d="M27.3823 27.6075L29.1144 31.2164L34.1079 31.741L36.8568 32.3704L36.0659 28.0355L36.1355 26.9591L36.3251 24.1125L27.8978 18.6892C27.928 19.0628 27.9512 19.4333 27.9664 19.7978C28.0848 22.415 27.8887 25.0369 27.3823 27.6075Z" fill="#FFCFC5"/>
<path d="M27.9003 18.6892C27.9306 19.0628 27.9539 19.4333 27.9689 19.7978C28.0207 19.8067 28.0729 19.8127 28.1253 19.8159C28.2233 20.0628 28.2904 20.3209 28.325 20.5842C29.4509 24.4236 33.1955 26.9077 36.138 26.9591L36.3277 24.1125L27.9003 18.6892Z" fill="#FC9B88"/>
<path d="M27.3831 27.606C28.2425 29.6379 31.4818 30.7938 34.1087 31.7384C34.1087 31.7384 33.3187 36.381 32.5269 36.3653C31.7975 36.3503 25.1647 33.9479 25.2556 30.3337C26.3027 29.5876 26.576 28.6643 27.3831 27.606Z" fill="#212676"/>
<path d="M34.1076 31.7414C34.1076 31.7414 35.6057 35.2709 36.6417 35.564C37.821 35.8973 38.7481 32.595 38.5775 30.8483L36.0677 28.0369C36.2856 29.2401 36.7083 30.3096 34.1076 31.7414Z" fill="#212676"/>
<path d="M35.8285 25.8726C32.8455 26.0055 28.8639 23.4811 27.6938 19.4998C27.6612 19.2362 27.5943 18.9779 27.495 18.7315C27.0954 18.6784 26.7112 18.5429 26.3668 18.3337C26.0224 18.1244 25.7254 17.846 25.4946 17.5161C24.6331 16.3662 24.625 14.9062 25.4875 14.2698C25.7474 14.0922 26.0501 13.9871 26.3643 13.9651C26.6785 13.9432 26.9929 14.0052 27.2751 14.1449C27.7542 9.97629 30.0795 6.79036 33.0806 6.58494C35.083 6.448 36.9644 7.66231 38.3091 9.68829C38.4715 9.93192 38.6279 10.1877 38.7721 10.4555C39.6677 12.1432 40.187 14.0042 40.2944 15.911C40.6706 21.3012 38.9638 25.7317 35.8285 25.8726Z" fill="#FFCFC5"/>
<path d="M21.8718 19.3792C22.135 19.9465 22.5133 20.4532 22.9829 20.8669C23.4524 21.2807 24.003 21.5925 24.5996 21.7828C25.8606 22.2218 26.9682 22.98 28.2292 22.5369L28.096 22.3194C28.0462 21.3691 27.9109 20.4252 27.6915 19.499C27.6611 19.2357 27.5953 18.9776 27.4959 18.7317C27.0964 18.6788 26.7124 18.5436 26.368 18.3347C26.0237 18.1259 25.7265 17.8479 25.4954 17.5184C24.6349 16.3635 24.6289 14.9065 25.4894 14.2691C25.749 14.0918 26.0514 13.9868 26.3653 13.9651C26.6791 13.9433 26.9931 14.0055 27.2749 14.1452C27.2749 14.1452 28.7215 14.9095 28.6237 16.2235L29.6143 16.6041L30.1782 14.2329C30.1782 14.2329 31.8659 13.0981 31.1396 11.7417C31.1396 11.7417 43.4467 15.5277 43.7987 10.1024C44.1508 4.67715 38.4421 6.27708 38.4421 6.27708C38.7955 5.72584 39.0955 5.14221 39.3379 4.53413C40.1035 2.60886 40.3578 -0.107837 35.0788 0.851808C33.0039 1.20935 31.0715 2.14221 29.5025 3.54384C27.9334 4.94547 26.791 6.75935 26.2056 8.77827C25.8002 8.67229 25.3754 8.66424 24.9663 8.75477C24.5572 8.8453 24.1756 9.03182 23.8531 9.29887C23.4737 9.65614 23.236 10.1378 23.1834 10.6558C23.1307 11.1737 23.2668 11.6933 23.5666 12.1193C23.3503 11.8634 23.0477 11.6954 22.7158 11.6468C22.384 11.5982 22.0458 11.6724 21.765 11.8555C21.4925 12.0504 21.2667 12.3032 21.1039 12.5957C20.9412 12.8882 20.8455 13.2132 20.8238 13.5471C20.7651 14.1563 20.8693 14.7702 21.1257 15.3261C21.3822 15.8821 21.7816 16.3602 22.2834 16.7119C21.3251 17.5124 21.3998 18.2273 21.8718 19.3792Z" fill="black"/>
<path d="M37.9416 16.6486L38.791 20.0007L37.1265 20.197L37.9416 16.6486Z" fill="#FC9B88"/>
<path d="M38.0816 159.114C38.5094 159.446 39.0389 159.62 39.5806 159.607C44.6437 159.535 49.6977 159.411 54.7425 159.235C55.2185 159.25 55.6861 159.109 56.0736 158.832C56.461 158.556 56.7466 158.16 56.8865 157.706C56.9398 157.424 56.9134 157.133 56.8102 156.866C56.707 156.599 56.5311 156.365 56.3024 156.192C55.8768 155.87 55.3512 155.707 54.8175 155.732C49.737 155.908 44.6466 156.033 39.5463 156.107C39.0521 156.072 38.5624 156.221 38.1706 156.523C37.7788 156.826 37.5123 157.262 37.4218 157.748C37.4128 158.012 37.4681 158.274 37.583 158.512C37.698 158.75 37.869 158.956 38.0816 159.114Z" fill="#014EB1"/>
<path d="M12.4938 154.213C12.8683 154.605 13.3663 154.856 13.9041 154.923C18.9228 155.598 23.9398 156.221 28.9551 156.792C29.4237 156.877 29.9073 156.806 30.3314 156.59C30.7556 156.374 31.0968 156.024 31.3026 155.596C31.397 155.325 31.414 155.034 31.3516 154.754C31.2892 154.474 31.15 154.218 30.9495 154.013C30.576 153.631 30.08 153.393 29.5483 153.34C24.4983 152.764 19.4457 152.137 14.3904 151.457C13.9066 151.35 13.4003 151.425 12.9679 151.666C12.5356 151.908 12.2074 152.3 12.0459 152.768C11.9969 153.027 12.0121 153.294 12.0902 153.546C12.1683 153.798 12.3068 154.027 12.4938 154.213Z" fill="#014EB1"/>
<path d="M111.47 5.18834C111.674 5.18847 111.874 5.12805 112.044 5.01473C112.214 4.9014 112.347 4.74026 112.425 4.55168C112.504 4.3631 112.524 4.15556 112.485 3.95531C112.445 3.75506 112.346 3.5711 112.202 3.42669C112.057 3.28228 111.873 3.18391 111.672 3.14403C111.472 3.10415 111.264 3.12454 111.075 3.20263C110.886 3.28072 110.724 3.41301 110.611 3.58274C110.497 3.75248 110.436 3.95205 110.436 4.1562C110.436 4.42983 110.545 4.69228 110.739 4.88583C110.933 5.07939 111.196 5.1882 111.47 5.18834Z" fill="white"/>
<path d="M96.1205 100.079C98.1683 100.079 100.17 99.473 101.873 98.3375C103.575 97.202 104.902 95.588 105.686 93.6996C106.47 91.8113 106.675 89.7333 106.275 87.7286C105.876 85.7239 104.89 83.8825 103.442 82.4372C101.994 80.9918 100.149 80.0076 98.1407 79.6088C96.1323 79.2101 94.0505 79.4148 92.1587 80.197C90.2668 80.9793 88.6499 82.3039 87.5122 84.0034C86.3746 85.703 85.7675 87.7011 85.7676 89.745C85.7676 92.4858 86.8584 95.1142 88.7999 97.0522C90.7415 98.9902 93.3748 100.079 96.1205 100.079Z" fill="white"/>
<path d="M59.962 21.3222C62.0097 21.3222 64.0113 20.7161 65.7139 19.5806C67.4165 18.4451 68.7434 16.8311 69.527 14.9428C70.3106 13.0545 70.5156 10.9767 70.1162 8.97205C69.7167 6.96744 68.7307 5.12609 67.2827 3.68084C65.8348 2.2356 63.9901 1.25137 61.9818 0.852626C59.9735 0.453882 57.8918 0.658527 56 1.44069C54.1083 2.22284 52.4913 3.54738 51.3537 5.24681C50.2161 6.94623 49.6089 8.94422 49.6089 10.9881C49.6089 13.7289 50.6997 16.3574 52.6413 18.2954C54.5828 20.2334 57.2162 21.3222 59.962 21.3222Z" fill="white"/>
<path d="M101.83 90.2579C100.736 93.9715 94.5883 94.9368 94.5883 94.9368C94.5883 94.9368 89.9459 90.8016 91.0408 87.088C91.2254 86.4606 91.577 85.8949 92.0581 85.451C92.5393 85.0072 93.1319 84.7018 93.773 84.5674C94.4142 84.4329 95.0798 84.4745 95.6992 84.6876C96.3186 84.9007 96.8685 85.2774 97.2904 85.7776C97.9165 85.5851 98.5831 85.5657 99.2193 85.7215C99.8555 85.8772 100.438 86.2022 100.903 86.6619C101.369 87.1216 101.701 87.6988 101.865 88.3321C102.028 88.9653 102.016 89.6309 101.83 90.2579Z" fill="#FF4148"/>
<path d="M183.797 30.6484C185.815 30.6484 187.787 30.051 189.465 28.932C191.143 27.8129 192.451 26.2224 193.223 24.3615C193.995 22.5006 194.197 20.4529 193.804 18.4774C193.41 16.5019 192.438 14.6873 191.011 13.2631C189.584 11.8388 187.766 10.8689 185.787 10.476C183.808 10.083 181.757 10.2847 179.892 11.0555C178.028 11.8263 176.435 13.1316 175.313 14.8064C174.192 16.4811 173.594 18.4501 173.594 20.4643C173.594 23.1653 174.669 25.7557 176.582 27.6655C178.496 29.5754 181.091 30.6484 183.797 30.6484Z" fill="white"/>
<path d="M188.83 19.5654L188.488 19.6641C188.637 19.6213 188.797 19.6235 188.945 19.6707C189.093 19.7179 189.225 19.8079 189.322 19.9293C189.419 20.0507 189.479 20.1981 189.492 20.3531C189.506 20.508 189.473 20.6635 189.399 20.8C189.349 20.8909 189.282 20.9712 189.201 21.036C189.121 21.1008 189.028 21.1489 188.928 21.1775L188.585 21.2762C188.786 21.2179 189.002 21.2416 189.186 21.3422C189.369 21.4428 189.505 21.612 189.563 21.8125C189.622 22.0131 189.598 22.2286 189.497 22.4117C189.396 22.5947 189.227 22.7303 189.026 22.7886L184.587 24.0734C184.097 24.2157 183.578 24.2282 183.082 24.1097L182.352 24.1721L181.205 20.225L182.371 17.4459C182.478 17.0705 182.477 16.6726 182.367 16.2979L181.97 14.9296C181.889 14.6497 181.923 14.3491 182.063 14.0938C182.204 13.8385 182.441 13.6494 182.721 13.5681C183.233 13.4202 183.772 13.6598 184.032 14.5529C184.054 14.6275 184.072 14.704 184.09 14.7866L184.342 15.4612C184.428 15.692 184.486 15.9324 184.515 16.1771L184.671 17.4891L187.771 16.592V16.594C187.971 16.5498 188.18 16.5849 188.354 16.6918C188.529 16.7988 188.655 16.9692 188.706 17.1671C188.756 17.3651 188.728 17.575 188.627 17.7525C188.525 17.9301 188.359 18.0613 188.162 18.1185L188.353 18.0631C188.56 18.0013 188.784 18.024 188.975 18.1262C189.166 18.2285 189.309 18.402 189.372 18.6088C189.424 18.8038 189.398 19.0111 189.301 19.1878C189.252 19.2789 189.185 19.3593 189.104 19.4242C189.023 19.489 188.93 19.537 188.83 19.5654Z" fill="#FFCFC5"/>
<path d="M181.715 19.2952L183.177 24.3248C183.196 24.3888 183.202 24.4559 183.195 24.5222C183.187 24.5885 183.167 24.6527 183.135 24.7111C183.102 24.7695 183.059 24.8209 183.007 24.8625C182.954 24.904 182.894 24.9348 182.83 24.9531L180.186 25.7184C180.122 25.737 180.055 25.7428 179.989 25.7355C179.922 25.7282 179.858 25.7078 179.8 25.6756C179.741 25.6434 179.69 25.6001 179.648 25.548C179.606 25.4959 179.576 25.4361 179.557 25.372L178.095 20.3434C178.076 20.2794 178.07 20.2123 178.078 20.146C178.085 20.0797 178.106 20.0155 178.138 19.9571C178.17 19.8987 178.214 19.8472 178.266 19.8057C178.318 19.7642 178.378 19.7334 178.442 19.7151L181.086 18.9498C181.15 18.9311 181.217 18.9252 181.284 18.9324C181.35 18.9397 181.414 18.9599 181.473 18.992C181.531 19.0241 181.583 19.0674 181.624 19.1194C181.666 19.1715 181.697 19.2312 181.715 19.2952Z" fill="#444BA1"/>
<path d="M57.4351 16.6497L57.8583 13.4708H56.5258V12.5132H58.0043L58.313 10.162H56.9157V9.20543H58.459L58.8821 6.10815H59.8239L59.4189 9.20543H61.1082L61.5314 6.10815H62.4897L62.0831 9.20543H63.4157V10.162H61.9363L61.6442 12.5132H63.0415V13.4708H61.4974L61.0751 16.6497H60.1002L60.5233 13.4708H58.8332L58.4108 16.6497H57.4351ZM60.6685 12.5142L60.9772 10.163H59.2871L58.9784 12.5142H60.6685Z" fill="#C5CDE3"/>
<path d="M133.082 153.427C133.082 153.427 128.604 141.155 131.783 137.16C134.96 133.164 138.431 136.914 138.431 136.914C138.431 136.914 138.967 128.338 143.306 123.843C147.646 119.348 152.954 121.466 154.145 125.003C155.337 128.541 150.325 131.613 148.448 132.565C146.57 133.517 143.756 136.106 144.83 137.035C145.903 137.965 149.134 136.287 148.815 140.472C148.497 144.655 133.082 153.427 133.082 153.427Z" fill="#04B5A4"/>
<path d="M131.865 157.611L131.516 157.526C133.872 147.83 145.877 128.272 145.999 128.076L146.304 128.263C146.183 128.459 134.208 147.971 131.865 157.611Z" fill="black"/>
<path d="M135.883 147.274L135.586 147.074C135.757 146.822 139.819 140.904 143.609 140.557L143.643 140.913C140.018 141.245 135.924 147.213 135.883 147.274Z" fill="black"/>
<path d="M134.896 149.369L134.56 149.243C134.573 149.21 135.772 145.853 132.697 141.142L132.997 140.946C136.18 145.821 134.95 149.227 134.896 149.369Z" fill="black"/>
<path d="M130.536 151.289C130.536 151.289 139.478 141.754 138.126 136.834C136.775 131.913 132.107 134.003 132.107 134.003C132.107 134.003 134.986 125.905 132.761 120.071C130.537 114.236 124.822 114.105 122.337 116.892C119.85 119.678 123.252 124.468 124.605 126.08C125.956 127.691 127.527 131.174 126.175 131.609C124.823 132.044 122.511 129.235 121.159 133.208C119.806 137.182 130.536 151.289 130.536 151.289Z" fill="#04B5A4"/>
<path d="M130.365 155.671L130.01 155.613C131.644 145.827 128.3 123.191 128.265 122.963L128.62 122.911C128.655 123.138 132.008 145.831 130.365 155.671Z" fill="black"/>
<path d="M130.377 144.53C130.363 144.458 128.941 137.363 125.74 135.639L125.91 135.324C129.261 137.128 130.672 144.163 130.729 144.461L130.377 144.53Z" fill="black"/>
<path d="M120.466 156.637L122.975 169.629C123.04 169.965 123.22 170.268 123.484 170.486C123.749 170.704 124.081 170.824 124.424 170.824H139.579C139.922 170.823 140.254 170.704 140.518 170.486C140.782 170.268 140.962 169.965 141.027 169.629L143.536 156.637C143.577 156.423 143.57 156.204 143.517 155.994C143.463 155.783 143.363 155.588 143.225 155.42C143.086 155.253 142.913 155.118 142.716 155.026C142.519 154.933 142.305 154.885 142.087 154.885H121.915C121.698 154.885 121.483 154.933 121.286 155.026C121.09 155.118 120.916 155.253 120.777 155.42C120.639 155.588 120.539 155.783 120.485 155.994C120.431 156.204 120.425 156.423 120.466 156.637Z" fill="white"/>
<path d="M120.466 156.635L122.975 169.627C123.04 169.964 123.22 170.267 123.484 170.485C123.749 170.703 124.081 170.822 124.424 170.822H139.579C139.922 170.822 140.254 170.703 140.518 170.485C140.782 170.267 140.963 169.964 141.027 169.627L141.069 169.398C141.018 169.402 140.971 169.406 140.92 169.406H125.765C125.422 169.406 125.09 169.287 124.826 169.069C124.561 168.851 124.381 168.548 124.316 168.212L121.808 155.22C121.786 155.112 121.779 155.002 121.786 154.892C121.581 154.91 121.381 154.97 121.2 155.07C121.02 155.169 120.862 155.306 120.737 155.47C120.613 155.634 120.524 155.823 120.478 156.024C120.431 156.224 120.427 156.433 120.466 156.635Z" fill="#E5E8FF"/>
<path d="M139.575 171H124.42C124.035 171 123.663 170.866 123.366 170.622C123.07 170.377 122.868 170.037 122.796 169.66L120.287 156.667C120.241 156.428 120.249 156.182 120.309 155.947C120.369 155.711 120.481 155.491 120.636 155.304C120.791 155.116 120.986 154.965 121.206 154.861C121.427 154.757 121.667 154.703 121.911 154.703H142.083C142.327 154.703 142.568 154.757 142.788 154.861C143.009 154.965 143.203 155.116 143.359 155.304C143.514 155.491 143.625 155.711 143.686 155.947C143.746 156.182 143.754 156.428 143.708 156.667L141.199 169.661C141.127 170.038 140.925 170.378 140.629 170.622C140.332 170.867 139.959 171 139.575 171ZM120.639 156.6L123.148 169.593C123.205 169.888 123.363 170.154 123.595 170.345C123.827 170.537 124.119 170.642 124.42 170.642H139.575C139.876 170.642 140.168 170.537 140.4 170.345C140.632 170.154 140.79 169.888 140.847 169.593L143.356 156.599C143.392 156.412 143.386 156.219 143.339 156.034C143.291 155.85 143.204 155.678 143.082 155.531C142.961 155.384 142.808 155.265 142.636 155.184C142.463 155.103 142.274 155.061 142.083 155.061H121.911C121.72 155.061 121.531 155.103 121.359 155.184C121.186 155.266 121.033 155.384 120.912 155.531C120.79 155.678 120.703 155.851 120.656 156.035C120.609 156.22 120.603 156.413 120.639 156.6Z" fill="black"/>
<path d="M130.822 146.861L130.464 146.846C130.47 146.694 130.678 143.079 135.521 139.843L135.721 140.14C131.027 143.276 130.823 146.825 130.822 146.861Z" fill="black"/>
</svg>
