<svg width="184" height="180" viewBox="0 0 184 180" fill="none" xmlns="http://www.w3.org/2000/svg">
<g clip-path="url(#clip0_2_3047)">
<mask id="mask0_2_3047" style="mask-type:luminance" maskUnits="userSpaceOnUse" x="-24" y="-26" width="232" height="232">
<path d="M207.637 -25.0115H-23.6375V205.012H207.637V-25.0115Z" fill="white"/>
</mask>
<g mask="url(#mask0_2_3047)">
<path d="M164.591 175.529H163.979C163.852 175.518 163.733 175.462 163.644 175.371C163.555 175.28 163.502 175.161 163.494 175.034L159.734 149.005H162.589L165.079 174.862C165.094 174.938 165.093 175.016 165.076 175.092C165.059 175.167 165.026 175.238 164.981 175.301C164.935 175.363 164.877 175.416 164.81 175.455C164.743 175.494 164.668 175.519 164.591 175.529Z" fill="#407BFF"/>
<path opacity="0.3" d="M164.591 175.529H163.979C163.852 175.518 163.733 175.462 163.644 175.371C163.555 175.28 163.502 175.161 163.494 175.034L159.734 149.005H162.589L165.079 174.862C165.094 174.938 165.093 175.016 165.076 175.092C165.059 175.167 165.026 175.238 164.981 175.301C164.935 175.363 164.877 175.416 164.81 175.455C164.743 175.494 164.668 175.519 164.591 175.529Z" fill="black"/>
<path d="M172.425 175.529H171.814C171.687 175.518 171.568 175.462 171.479 175.371C171.39 175.28 171.337 175.161 171.329 175.034L167.568 149.005H170.423L172.914 174.862C172.929 174.938 172.927 175.016 172.91 175.092C172.893 175.167 172.861 175.238 172.815 175.301C172.769 175.363 172.711 175.416 172.644 175.455C172.577 175.494 172.503 175.519 172.425 175.529Z" fill="#407BFF"/>
<path opacity="0.3" d="M172.425 175.529H171.814C171.687 175.518 171.568 175.462 171.479 175.371C171.39 175.28 171.337 175.161 171.329 175.034L167.568 149.005H170.423L172.914 174.862C172.929 174.938 172.927 175.016 172.91 175.092C172.893 175.167 172.861 175.238 172.815 175.301C172.769 175.363 172.711 175.416 172.644 175.455C172.577 175.494 172.503 175.519 172.425 175.529Z" fill="black"/>
<path d="M128.772 175.529H129.384C129.511 175.518 129.629 175.462 129.718 175.371C129.807 175.28 129.861 175.161 129.869 175.034L133.629 149.005H130.774L128.283 174.862C128.269 174.938 128.27 175.016 128.287 175.092C128.304 175.167 128.337 175.238 128.382 175.301C128.428 175.363 128.486 175.416 128.553 175.455C128.62 175.494 128.695 175.519 128.772 175.529Z" fill="#407BFF"/>
<path opacity="0.3" d="M128.772 175.529H129.384C129.511 175.518 129.629 175.462 129.718 175.371C129.807 175.28 129.861 175.161 129.869 175.034L133.629 149.005H130.774L128.283 174.862C128.269 174.938 128.27 175.016 128.287 175.092C128.304 175.167 128.337 175.238 128.382 175.301C128.428 175.363 128.486 175.416 128.553 175.455C128.62 175.494 128.695 175.519 128.772 175.529Z" fill="black"/>
<path d="M120.937 175.529H121.549C121.676 175.518 121.795 175.462 121.884 175.371C121.973 175.28 122.026 175.161 122.034 175.034L125.795 149.005H122.939L120.449 174.862C120.435 174.938 120.436 175.016 120.453 175.091C120.47 175.167 120.502 175.238 120.548 175.3C120.594 175.363 120.652 175.415 120.719 175.455C120.786 175.494 120.86 175.519 120.937 175.529Z" fill="#407BFF"/>
<path opacity="0.3" d="M120.937 175.529H121.549C121.676 175.518 121.795 175.462 121.884 175.371C121.973 175.28 122.026 175.161 122.034 175.034L125.795 149.005H122.939L120.449 174.862C120.435 174.938 120.436 175.016 120.453 175.091C120.47 175.167 120.502 175.238 120.548 175.3C120.594 175.363 120.652 175.415 120.719 175.455C120.786 175.494 120.86 175.519 120.937 175.529Z" fill="black"/>
<path d="M110.784 118.149H130.018C133.43 106.363 145.71 97.0632 158.284 97.0632H164.532C177.694 97.0632 186.188 107.25 183.505 119.816C183.002 122.128 182.178 124.359 181.057 126.446L178.023 144.732C177.633 147.092 175.739 149.005 173.795 149.005H115.901C113.958 149.005 112.065 147.092 111.673 144.732L107.973 122.423C107.581 120.063 108.84 118.149 110.784 118.149Z" fill="#407BFF"/>
<path opacity="0.5" d="M110.784 118.149H130.018C133.43 106.363 145.71 97.0632 158.284 97.0632H164.532C177.694 97.0632 186.188 107.25 183.505 119.816C183.002 122.128 182.178 124.359 181.057 126.446L178.023 144.732C177.633 147.092 175.739 149.005 173.795 149.005H115.901C113.958 149.005 112.065 147.092 111.673 144.732L107.973 122.423C107.581 120.063 108.84 118.149 110.784 118.149Z" fill="white"/>
<path d="M105.97 168.795L110.734 170.969C110.815 171.003 110.88 171.067 110.914 171.148C110.948 171.228 110.948 171.319 110.915 171.4L109.417 175.255C109.326 175.453 109.161 175.606 108.957 175.683C108.753 175.76 108.527 175.754 108.328 175.666C106.682 174.881 105.935 174.422 103.84 173.466C101.624 172.377 99.4836 171.144 97.4322 169.773C95.8772 168.661 97.0188 167.105 97.7949 167.445C101.275 168.973 103.49 169.109 105.119 168.721C105.403 168.65 105.702 168.676 105.97 168.795Z" fill="#263238"/>
<path d="M139.749 110.717C139.749 110.717 109.293 111.094 108.822 123.034C108.146 140.196 105.598 168.692 105.598 168.692L110.734 170.968C110.734 170.968 119.732 142.372 120.054 128.969C128.598 126.852 150.645 128.987 153.235 122.002C154.504 118.381 154.838 114.501 154.208 110.717H139.749Z" fill="#407BFF"/>
<path opacity="0.2" d="M139.749 110.717C139.749 110.717 109.293 111.094 108.822 123.034C108.146 140.196 105.598 168.692 105.598 168.692L110.734 170.968C110.734 170.968 119.732 142.372 120.054 128.969C128.598 126.852 150.645 128.987 153.235 122.002C154.504 118.381 154.838 114.501 154.208 110.717H139.749Z" fill="black"/>
<path d="M146.23 79.3045C145.965 80.4061 145.697 81.4011 145.391 82.4322C145.091 83.4531 144.777 84.47 144.448 85.4828C143.779 87.506 143.042 89.5155 142.192 91.5042C141.346 93.5381 140.366 95.5138 139.256 97.4182C138.671 98.4226 138.026 99.3909 137.323 100.318C136.55 101.346 135.66 102.282 134.669 103.105L134.585 103.173C134.525 103.222 134.463 103.267 134.399 103.309C133.824 103.686 133.168 103.92 132.483 103.993C132.051 104.042 131.614 104.039 131.183 103.985C130.585 103.91 129.999 103.768 129.434 103.563C128.553 103.243 127.699 102.857 126.878 102.407C125.411 101.599 123.995 100.704 122.636 99.7265C121.308 98.7769 120.03 97.7941 118.788 96.7731C117.554 95.7341 116.345 94.7082 115.168 93.5792C114.863 93.2871 114.676 92.8949 114.641 92.4755C114.605 92.0562 114.724 91.6383 114.976 91.2998C115.227 90.9613 115.593 90.7252 116.007 90.6355C116.42 90.5458 116.852 90.6086 117.223 90.8122L117.251 90.8288C118.598 91.5711 119.958 92.3595 121.322 93.0918C122.68 93.8391 124.034 94.5785 125.39 95.2697C126.735 95.9703 128.101 96.6198 129.402 97.154C129.992 97.4035 130.601 97.6063 131.222 97.7602C131.403 97.8085 131.59 97.8335 131.778 97.8344C131.817 97.8337 131.788 97.8113 131.655 97.8207C131.364 97.8532 131.086 97.9572 130.845 98.1231L130.575 98.3283C131.134 97.7807 131.63 97.1732 132.053 96.5168C132.551 95.7644 133.011 94.9875 133.43 94.189C134.305 92.4758 135.087 90.7172 135.774 88.9208C136.477 87.0898 137.135 85.2164 137.745 83.3199C138.364 81.4429 138.929 79.4722 139.444 77.6341L139.463 77.565C139.709 76.6876 140.291 75.9411 141.084 75.4861C141.877 75.0311 142.818 74.9038 143.705 75.1317C144.592 75.3597 145.353 75.9245 145.825 76.7048C146.297 77.4852 146.442 78.4186 146.23 79.3045Z" fill="#263238"/>
<path d="M133.884 171.26H139.598C139.694 171.256 139.787 171.29 139.858 171.355C139.929 171.42 139.971 171.509 139.975 171.605L140.252 176.101C140.253 176.338 140.16 176.565 139.993 176.733C139.826 176.902 139.599 176.998 139.361 177.001C137.373 176.967 136.422 176.851 133.91 176.851C132.363 176.851 129.245 177.01 127.111 177.01C125.023 177.01 125.038 174.911 125.942 174.72C129.999 173.868 131.573 172.692 133.008 171.57C133.258 171.373 133.566 171.264 133.884 171.26Z" fill="#263238"/>
<path d="M147.956 110.718C147.956 110.718 120.331 113.038 121.011 124.969C121.755 138.033 133.883 171.26 133.883 171.26H139.47C139.47 171.26 134.688 140.832 133.008 127.529C140.794 127.529 158.852 128.987 161.442 122.002C162.711 118.381 163.045 114.501 162.415 110.718H147.956Z" fill="#407BFF"/>
<path d="M117.647 91.3897C117.216 90.6925 116.693 90.055 116.094 89.4939C114.965 90.548 114.329 93.6202 114.329 93.6202L115.891 93.7599C116.394 93.5924 116.832 93.2749 117.146 92.8508C117.46 92.4266 117.635 91.9164 117.647 91.3897Z" fill="#407BFF"/>
<path d="M111.915 88.6292L110.138 87.8624C109.908 87.7624 109.649 87.7492 109.409 87.8253C109.169 87.9013 108.966 88.0614 108.836 88.2757L107.995 89.6617C107.877 89.856 107.826 90.0837 107.851 90.3094C107.876 90.5352 107.976 90.7463 108.134 90.9102L110.573 93.441L114.64 93.2775C114.869 93.2683 115.092 93.1985 115.286 93.0753C115.48 92.9521 115.637 92.7798 115.741 92.5763L116.211 91.664C116.357 91.3884 116.397 91.0692 116.322 90.7667C116.247 90.4642 116.064 90.1994 115.806 90.0224C114.585 89.3708 113.273 88.9014 111.915 88.6292Z" fill="#FFC3BD"/>
<path d="M139.49 78.1366C138.674 83.2342 137.622 94.2869 139.773 110.931L162.416 110.718C162.28 99.1858 164.098 88.3549 165.873 77.7766C165.943 77.361 165.928 76.9356 165.83 76.5257C165.732 76.1157 165.552 75.7294 165.301 75.3899C165.05 75.0503 164.734 74.7642 164.369 74.5486C164.005 74.3331 163.602 74.1924 163.182 74.1349C156.689 73.3733 150.128 73.368 143.634 74.119C142.601 74.2582 141.641 74.7238 140.895 75.4473C140.149 76.1707 139.656 77.1135 139.49 78.1366Z" fill="#263238"/>
<path d="M166.079 76.3389C166.743 77.9783 167.278 79.5544 167.825 81.1787C168.367 82.7929 168.843 84.4317 169.293 86.0869C169.726 87.7473 170.139 89.422 170.456 91.1428C170.804 92.9009 171.035 94.6797 171.15 96.4679C171.18 96.928 171.189 97.4046 171.195 97.8812L171.186 98.6092C171.181 99.3544 170.985 100.086 170.619 100.736C170.375 101.161 170.053 101.535 169.668 101.839C169.333 102.106 168.957 102.318 168.555 102.468C168.019 102.665 167.45 102.764 166.878 102.758C166.201 102.743 165.528 102.638 164.879 102.447C163.927 102.163 163.001 101.8 162.111 101.362C161.284 100.956 160.507 100.527 159.747 100.088C156.796 98.3314 153.995 96.3371 151.372 94.125C151.047 93.8542 150.832 93.4749 150.768 93.058C150.704 92.6412 150.795 92.2155 151.024 91.8606C151.253 91.5058 151.604 91.2461 152.012 91.1302C152.42 91.0144 152.856 91.0503 153.239 91.2313L153.279 91.2508C156.232 92.6504 159.233 94.0833 162.16 95.2893C162.889 95.5888 163.618 95.8696 164.326 96.1036C164.961 96.3341 165.614 96.5113 166.278 96.6335C166.537 96.676 166.775 96.6709 166.748 96.6457C166.592 96.6298 166.435 96.6562 166.294 96.722C166.204 96.7568 166.116 96.7965 166.03 96.8408C165.923 96.9019 165.819 96.9699 165.721 97.0446C165.501 97.2218 165.314 97.4355 165.168 97.676C164.996 97.9581 164.895 98.2772 164.874 98.6063L164.841 98.0922C164.81 97.7423 164.779 97.3909 164.727 97.0266C164.252 93.9555 163.539 90.9254 162.595 87.9633C161.678 84.9169 160.628 81.8015 159.559 78.8423L159.548 78.8128C159.238 77.9558 159.279 77.0122 159.661 76.1848C160.043 75.3574 160.737 74.7122 161.593 74.3881C162.448 74.064 163.398 74.0868 164.237 74.4516C165.076 74.8164 165.737 75.4941 166.079 76.3389Z" fill="#263238"/>
<path d="M157.026 62.7135L154.286 64.9736L150.557 68.0537C150.667 68.5481 150.746 69.0487 150.793 69.5528C150.971 71.3434 150.578 72.9908 148.389 73.8245C147.974 73.9629 147.595 74.1929 147.283 74.4973C146.97 74.8016 146.73 75.1725 146.582 75.5821C146.286 76.5339 146.635 77.5916 149.64 77.5916C154.052 77.5901 156.357 75.6389 157.225 74.6777C157.341 74.545 157.407 74.3769 157.414 74.2012C157.421 74.0255 157.368 73.8527 157.262 73.7115C155.515 71.2448 156.313 65.7929 157.026 62.7135Z" fill="#FFC3BD"/>
<path d="M149.533 76.6261C149.724 76.8475 149.855 77.1132 149.915 77.3987C150.142 77.0934 150.422 76.8316 150.743 76.6261C151.123 76.8036 151.461 77.0598 151.734 77.3777C152.007 77.6955 152.209 78.0677 152.325 78.4693C151.493 78.2978 150.692 78.0017 149.95 77.5909C149.46 77.862 148.92 78.0295 148.362 78.0827C148.397 77.0999 149.533 76.6261 149.533 76.6261Z" fill="#407BFF"/>
<path d="M150.744 76.6254C151.537 77.5747 152.059 78.7186 152.256 79.9374C152.256 79.9374 159.567 78.1208 159.223 73.381C158.581 73.0793 157.898 72.8708 157.196 72.7618C157.196 72.7618 155.624 75.6008 150.744 76.6254Z" fill="#407BFF"/>
<path d="M149.533 76.6254C148.732 77.5819 148.18 78.7191 147.924 79.9374C147.924 79.9374 144.174 76.5433 147.827 73.4206C148.455 73.22 149.103 73.0846 149.759 73.0167C149.759 73.0167 147.332 74.9751 149.533 76.6254Z" fill="#407BFF"/>
<path opacity="0.2" d="M150.559 68.0545C150.669 68.5485 150.748 69.049 150.796 69.5528C152.187 69.2742 154.045 67.8003 154.239 66.3877C154.308 65.9196 154.324 65.4453 154.288 64.9736L150.559 68.0545Z" fill="black"/>
<path d="M146.556 52.9295C143.116 55.3551 145.041 61.0446 147.974 58.8673C150.908 56.6907 149.358 50.9531 146.556 52.9295Z" fill="#263238"/>
<path d="M158.156 57.9961C157.204 62.3514 156.87 64.9405 154.283 66.9277C153.45 67.5825 152.452 67.9983 151.399 68.13C150.345 68.2617 149.275 68.1043 148.304 67.6749C147.334 67.2455 146.5 66.5604 145.893 65.6936C145.286 64.8269 144.928 63.8116 144.859 62.7574C144.519 58.7024 146.134 52.262 150.741 51.0286C151.731 50.7357 152.782 50.707 153.787 50.9452C154.792 51.1835 155.717 51.6805 156.468 52.3862C157.219 53.092 157.77 53.9818 158.067 54.9664C158.363 55.9511 158.394 56.9959 158.156 57.9961Z" fill="#FFC3BD"/>
<path d="M156.13 54.7683C153.702 54.1009 147.443 55.6856 145.221 53.3283C142.838 50.8004 146.315 49.5706 147.34 50.449C146.042 48.9745 146.527 47.3941 148.363 47.5345C148.778 47.6052 149.163 47.7912 149.476 48.0709C149.789 48.3505 150.015 48.7125 150.13 49.1149C150.13 49.1149 149.906 46.5322 152.21 46.7101C154.302 46.8714 154.309 49.6772 154.309 49.6772C154.309 49.6772 159.303 48.2725 160.967 53.013C164.109 52.9424 164.038 59.5203 157.719 61.861C155.154 60.5967 155.036 56.1097 156.13 54.7683Z" fill="#263238"/>
<path d="M160.293 53.9612C160.135 53.9609 159.982 53.9018 159.865 53.7954C159.748 53.689 159.675 53.5429 159.661 53.3859C159.647 53.2289 159.692 53.0723 159.788 52.9467C159.884 52.8211 160.023 52.7356 160.179 52.707C160.349 52.5976 160.479 52.4354 160.547 52.2454C160.639 52.0633 160.692 51.8645 160.704 51.661C160.716 51.4576 160.686 51.2539 160.615 51.0625C160.546 50.91 160.541 50.7365 160.6 50.5799C160.659 50.4234 160.779 50.2966 160.932 50.2272C161.085 50.1578 161.259 50.1515 161.417 50.2097C161.574 50.2678 161.703 50.3857 161.773 50.5376C161.927 50.9187 161.994 51.3288 161.97 51.7388C161.946 52.1488 161.832 52.5484 161.635 52.9093C161.522 53.1636 161.353 53.3893 161.141 53.5696C160.928 53.7499 160.677 53.8801 160.407 53.9504C160.37 53.9575 160.331 53.9611 160.293 53.9612Z" fill="#263238"/>
<path d="M158.869 62.0339C158.277 62.8033 157.421 63.3304 156.465 63.5156C155.226 63.7324 154.85 62.5998 155.397 61.4996C155.89 60.5096 157.128 59.2036 158.272 59.4865C159.4 59.7652 159.603 61.0748 158.869 62.0339Z" fill="#FFC3BD"/>
<path d="M152.559 88.2894L150.06 86.7442C149.882 86.6341 149.683 86.5603 149.476 86.5271C149.269 86.4938 149.057 86.5019 148.853 86.5507C148.649 86.5995 148.457 86.6882 148.288 86.8115C148.119 86.9349 147.976 87.0904 147.867 87.2691L147.573 87.7537C147.4 88.0394 147.322 88.3724 147.351 88.7048C147.38 89.0371 147.515 89.3518 147.735 89.6034L149.459 91.5726C149.459 91.5726 150.96 95.053 152.7 94.1343L154.027 91.8469L152.559 88.2894Z" fill="#FFC3BD"/>
<path d="M155.133 92.7397C154.798 91.9159 154.36 91.1378 153.827 90.4242C152.572 91.4941 151.556 94.9033 151.556 94.9033L153.09 95.2323C153.644 95.0706 154.136 94.7459 154.5 94.301C154.865 93.8561 155.086 93.3118 155.133 92.7397Z" fill="#407BFF"/>
<path d="M174.273 118.149H144.624C142.68 118.149 141.422 120.062 141.813 122.422L145.514 144.732C145.906 147.091 147.798 149.004 149.742 149.004H170.602L174.273 118.149Z" fill="#407BFF"/>
<path opacity="0.5" d="M174.273 118.149H144.624C142.68 118.149 141.422 120.062 141.813 122.422L145.514 144.732C145.906 147.091 147.798 149.004 149.742 149.004H170.602L174.273 118.149Z" fill="white"/>
<path d="M37.4697 177.443H38.3253C38.4718 177.436 38.6106 177.375 38.7135 177.271C38.8164 177.167 38.8759 177.028 38.8798 176.882L43.5918 106.515H40.0528L36.9147 176.809C36.9078 176.887 36.9168 176.966 36.9412 177.04C36.9656 177.115 37.0049 177.184 37.0567 177.243C37.1085 177.302 37.1718 177.35 37.2428 177.385C37.3137 177.419 37.3909 177.439 37.4697 177.443Z" fill="#407BFF"/>
<path opacity="0.3" d="M37.4697 177.443H38.3253C38.4718 177.436 38.6106 177.375 38.7135 177.271C38.8164 177.167 38.8759 177.028 38.8798 176.882L43.5918 106.515H40.0528L36.9147 176.809C36.9078 176.887 36.9168 176.966 36.9412 177.04C36.9656 177.115 37.0049 177.184 37.0567 177.243C37.1085 177.302 37.1718 177.35 37.2428 177.385C37.3137 177.419 37.3909 177.439 37.4697 177.443Z" fill="white"/>
<path d="M27.7605 177.443H28.6161C28.7626 177.436 28.9014 177.375 29.0043 177.271C29.1072 177.167 29.1666 177.028 29.1706 176.882L33.8825 106.515H30.3435L27.2054 176.809C27.1985 176.887 27.2075 176.966 27.2319 177.04C27.2563 177.115 27.2956 177.184 27.3474 177.243C27.3993 177.302 27.4626 177.351 27.5336 177.385C27.6045 177.419 27.6817 177.439 27.7605 177.443Z" fill="#407BFF"/>
<path opacity="0.3" d="M27.7605 177.443H28.6161C28.7626 177.436 28.9014 177.375 29.0043 177.271C29.1072 177.167 29.1666 177.028 29.1706 176.882L33.8825 106.515H30.3435L27.2054 176.809C27.1985 176.887 27.2075 176.966 27.2319 177.04C27.2563 177.115 27.2956 177.184 27.3474 177.243C27.3993 177.302 27.4626 177.351 27.5336 177.385C27.6045 177.419 27.6817 177.439 27.7605 177.443Z" fill="white"/>
<path d="M147.487 177.443H146.632C146.486 177.436 146.347 177.375 146.244 177.271C146.141 177.167 146.082 177.028 146.078 176.882L141.366 106.515H144.904L148.043 176.809C148.049 176.887 148.041 176.966 148.016 177.041C147.992 177.115 147.952 177.184 147.901 177.243C147.849 177.303 147.785 177.351 147.714 177.385C147.643 177.419 147.566 177.439 147.487 177.443Z" fill="#407BFF"/>
<path opacity="0.3" d="M147.487 177.443H146.632C146.486 177.436 146.347 177.375 146.244 177.271C146.141 177.167 146.082 177.028 146.078 176.882L141.366 106.515H144.904L148.043 176.809C148.049 176.887 148.041 176.966 148.016 177.041C147.992 177.115 147.952 177.184 147.901 177.243C147.849 177.303 147.785 177.351 147.714 177.385C147.643 177.419 147.566 177.439 147.487 177.443Z" fill="white"/>
<path d="M157.199 177.443H156.343C156.196 177.436 156.057 177.375 155.955 177.271C155.852 177.167 155.792 177.028 155.788 176.882L151.076 106.515H154.615L157.753 176.809C157.76 176.887 157.751 176.966 157.727 177.04C157.702 177.115 157.663 177.184 157.611 177.243C157.56 177.302 157.496 177.35 157.425 177.385C157.355 177.419 157.277 177.439 157.199 177.443Z" fill="#407BFF"/>
<path opacity="0.3" d="M157.199 177.443H156.343C156.196 177.436 156.057 177.375 155.955 177.271C155.852 177.167 155.792 177.028 155.788 176.882L151.076 106.515H154.615L157.753 176.809C157.76 176.887 157.751 176.966 157.727 177.04C157.702 177.115 157.663 177.184 157.611 177.243C157.56 177.302 157.496 177.35 157.425 177.385C157.355 177.419 157.277 177.439 157.199 177.443Z" fill="white"/>
<path d="M161.281 105.068H23.4778V106.514H161.281V105.068Z" fill="#407BFF"/>
<path d="M21.1822 82.6532L19.8812 92.1781C19.4706 95.3497 19.0417 98.5292 18.7345 101.652C18.6911 102.044 18.6625 102.427 18.6306 102.813L18.5832 103.391C18.5873 103.296 18.5806 103.201 18.5632 103.108C18.5515 103.015 18.5293 102.924 18.4969 102.837C18.4751 102.768 18.4464 102.701 18.4112 102.638C18.3889 102.593 18.3623 102.55 18.3319 102.51C18.2308 102.381 18.2199 102.398 18.2468 102.426C18.3058 102.486 18.3709 102.54 18.4409 102.588C18.6813 102.754 18.9343 102.901 19.1976 103.028C20.5551 103.646 21.9567 104.164 23.3911 104.576C26.3875 105.48 29.5314 106.262 32.637 107.024L32.2857 109.737C28.9641 109.634 25.6543 109.294 22.382 108.718C20.6478 108.429 18.9441 107.981 17.2925 107.381C16.807 107.196 16.3356 106.976 15.882 106.724C15.6024 106.565 15.3358 106.386 15.0847 106.186C14.7329 105.912 14.4255 105.585 14.1732 105.219C13.9913 104.949 13.8461 104.657 13.7415 104.35C13.6826 104.165 13.6374 103.976 13.6062 103.785C13.5817 103.591 13.5704 103.395 13.5724 103.2L13.5868 102.569C13.5965 102.149 13.6033 101.726 13.6238 101.313C13.7592 97.9949 14.0591 94.7571 14.4148 91.5186C14.7626 88.2807 15.1778 85.0717 15.6883 81.8468L21.1822 82.6532Z" fill="#7F3E3B"/>
<path d="M39.8273 109.889L37.7332 111.792C37.4942 112.009 37.1955 112.15 36.8753 112.197C36.5551 112.243 36.2282 112.194 35.9365 112.054L33.6219 110.946C33.6219 110.946 30.1898 110.805 29.7003 108.719L30.5878 107.099L35.9046 106.511C36.4509 106.451 37.002 106.572 37.471 106.857L39.6623 108.188C39.8045 108.274 39.9246 108.392 40.0131 108.533C40.1016 108.673 40.156 108.832 40.172 108.997C40.188 109.162 40.1652 109.329 40.1054 109.483C40.0455 109.638 39.9503 109.777 39.8273 109.889Z" fill="#7F3E3B"/>
<path d="M27.289 63.0829C27.8322 66.3495 28.293 72.3198 25.9436 74.42C29.6428 76.4731 32.8755 79.2643 35.439 82.6186C39.4612 79.4492 36.0929 74.7202 36.0929 74.7202C32.4773 73.7475 32.6515 71.0626 33.3614 68.5578L27.289 63.0829Z" fill="#7F3E3B"/>
<path d="M38.0222 76.7297C38.0222 76.7297 37.7196 73.9592 36.1993 72.5897C34.9224 71.4392 28.2208 72.0785 26.1101 72.3125C25.915 72.3343 25.7287 72.4053 25.5689 72.5187C25.4091 72.6321 25.281 72.7842 25.1969 72.9605L23.6658 76.1408L38.0222 76.7297Z" fill="#407BFF"/>
<path opacity="0.8" d="M38.0222 76.7297C38.0222 76.7297 37.7196 73.9592 36.1993 72.5897C34.9224 71.4392 28.2208 72.0785 26.1101 72.3125C25.915 72.3343 25.7287 72.4053 25.5689 72.5187C25.4091 72.6321 25.281 72.7842 25.1969 72.9605L23.6658 76.1408L38.0222 76.7297Z" fill="white"/>
<path d="M19.4528 75.2703C15.3176 76.6088 14.429 82.1233 14.8013 86.4145L23.1477 91.5207C23.1477 91.5207 25.1745 85.2539 25.1573 81.908C25.1391 78.3455 22.2608 74.3617 19.4528 75.2703Z" fill="#407BFF"/>
<path d="M21.0669 90.2701C20.8625 90.2689 20.6662 90.1898 20.5187 90.049C20.4847 90.012 20.4541 89.972 20.4273 89.9295C20.3959 89.8881 20.3708 89.8422 20.3531 89.7934C20.3347 89.7472 20.3194 89.6998 20.3074 89.6516C20.2962 89.6029 20.2907 89.5532 20.2908 89.5032C20.2918 89.2988 20.3737 89.103 20.5187 88.9582C20.6667 88.8185 20.8629 88.7406 21.067 88.7406C21.271 88.7406 21.4672 88.8185 21.6152 88.9582C21.7604 89.103 21.8424 89.2988 21.8436 89.5032C21.8435 89.5532 21.8378 89.6029 21.8264 89.6516C21.8173 89.7006 21.802 89.7483 21.7808 89.7934C21.7654 89.8421 21.7423 89.8881 21.7123 89.9295C21.6837 89.9691 21.65 90.0094 21.6152 90.049C21.4688 90.1916 21.2718 90.271 21.0669 90.2701Z" fill="white"/>
<path d="M19.462 89.7474H19.4677C19.3258 89.693 19.2031 89.5983 19.1148 89.4752C19.0265 89.3521 18.9764 89.2059 18.9708 89.0548C18.859 89.1558 18.7196 89.2217 18.5702 89.244C18.4208 89.2663 18.2681 89.244 18.1314 89.18C17.9948 89.1167 17.8796 89.0155 17.7995 88.8885C17.7195 88.7615 17.678 88.6142 17.6802 88.4644C17.5626 88.5586 17.4194 88.616 17.2688 88.6291C17.1183 88.6421 16.9673 88.6104 16.835 88.5378C16.7025 88.4674 16.5936 88.36 16.5216 88.2289C16.4496 88.0979 16.4176 87.9487 16.4295 87.7998C16.3153 87.8802 16.1813 87.9285 16.0417 87.9393C15.9022 87.9502 15.7623 87.9233 15.6368 87.8616C15.5114 87.7998 15.4051 87.7054 15.3292 87.5885C15.2533 87.4715 15.2106 87.3363 15.2057 87.1971C15.2007 87.058 15.2337 86.9201 15.3012 86.7981C15.3686 86.6761 15.468 86.5745 15.5887 86.5041C15.7095 86.4337 15.8472 86.3971 15.9871 86.3982C16.1271 86.3993 16.2642 86.438 16.3838 86.5103C16.5054 86.5861 16.604 86.6931 16.6694 86.8201C16.7347 86.9471 16.7643 87.0893 16.7551 87.2317C16.8718 87.1484 17.0097 87.0994 17.1531 87.0904C17.2966 87.0813 17.4396 87.1126 17.566 87.1806C17.6922 87.2483 17.7973 87.3491 17.8698 87.4722C17.9424 87.5952 17.9795 87.7357 17.9772 87.8783C18.0894 87.7898 18.224 87.734 18.3661 87.717C18.5082 87.6999 18.6523 87.7224 18.7824 87.7818C18.9125 87.8412 19.0235 87.9353 19.1031 88.0536C19.1827 88.1719 19.2279 88.3099 19.2335 88.4521C19.3415 88.3589 19.4728 88.2964 19.6136 88.2714C19.7544 88.2465 19.8993 88.2599 20.033 88.3103C20.2233 88.3864 20.3757 88.5342 20.457 88.7215C20.5383 88.9088 20.5419 89.1204 20.4671 89.3104C20.4108 89.4545 20.3119 89.5783 20.1835 89.6655C20.055 89.7526 19.903 89.799 19.7475 89.7985C19.6501 89.798 19.5535 89.7807 19.462 89.7474Z" fill="white"/>
<path d="M14.8017 87.1863C14.7497 87.1862 14.6978 87.1804 14.647 87.169C14.5975 87.1603 14.5495 87.1451 14.5042 87.1236C14.4555 87.1082 14.4094 87.0854 14.3677 87.056C14.3267 87.027 14.2885 86.9945 14.2534 86.9588C14.2165 86.9252 14.1839 86.8873 14.1564 86.8457C14.1278 86.8004 14.105 86.755 14.0822 86.7096C14.0641 86.6633 14.0488 86.616 14.0365 86.5678C14.0297 86.5167 14.0256 86.4653 14.0245 86.4137C14.0254 86.3643 14.0294 86.315 14.0365 86.2661C14.049 86.2161 14.0643 86.1669 14.0822 86.1185C14.1011 86.0719 14.1261 86.0278 14.1564 85.9875C14.1852 85.9452 14.2177 85.9054 14.2534 85.8687C14.2887 85.8333 14.3269 85.801 14.3677 85.7722C14.4107 85.7448 14.4564 85.7218 14.5042 85.7038C14.5506 85.6853 14.5983 85.6701 14.647 85.6584C14.7716 85.636 14.8998 85.6434 15.0211 85.6799C15.1423 85.7165 15.2531 85.7812 15.3442 85.8687C15.3798 85.9056 15.4123 85.9453 15.4413 85.9875C15.4693 86.0293 15.4941 86.0731 15.5156 86.1185C15.5342 86.1662 15.5476 86.2156 15.5555 86.2661C15.567 86.3145 15.5726 86.364 15.5721 86.4137C15.5719 86.4655 15.5664 86.5171 15.5555 86.5678C15.5473 86.6163 15.5339 86.6639 15.5156 86.7096C15.4927 86.755 15.4699 86.8004 15.4413 86.8457C15.4138 86.8873 15.3812 86.9253 15.3442 86.9588C15.2003 87.1023 15.0055 87.1839 14.8017 87.1863Z" fill="white"/>
<path d="M45.7434 83.2839C45.3939 88.0078 44.3369 95.9638 41.7338 109.357L19.3816 108.696C19.9682 100.489 19.083 94.3698 17.0608 80.0079C16.9736 79.3863 17.0134 78.7535 17.1777 78.1475C17.342 77.5414 17.6275 76.9746 18.0171 76.4808C18.4067 75.987 18.8924 75.5764 19.4452 75.2735C19.9979 74.9706 20.6064 74.7817 21.2343 74.7181C22.6694 74.5712 24.2993 74.4495 25.9411 74.4193C29.3273 74.279 32.7192 74.3793 36.091 74.7195C37.18 74.8513 38.3051 75.0219 39.3793 75.2041C41.2604 75.5224 42.9548 76.5266 44.1315 78.0206C45.3083 79.5146 45.883 81.3912 45.7434 83.2839Z" fill="#407BFF"/>
<path d="M23.6409 56.9687C24.6226 62.3154 24.9231 64.5993 27.9915 67.0379C32.607 70.7056 38.9945 68.3375 39.6393 62.8065C40.2195 57.8291 38.5165 49.9221 32.9576 48.4101C31.7334 48.0707 30.4423 48.0484 29.207 48.3451C27.9717 48.6418 26.8331 49.2478 25.8996 50.1054C24.966 50.963 24.2685 52.0437 23.8731 53.245C23.4778 54.4462 23.3979 55.7281 23.6409 56.9687Z" fill="#7F3E3B"/>
<path d="M35.4801 58.4663C36.3863 61.4038 38.5456 68.5066 33.7753 70.0878C30.0439 71.3247 18.3606 72.3147 17.0157 65.5057C15.6246 58.4655 21.9362 53.4551 21.9362 53.4551C21.9362 53.4551 16.9358 49.3763 20.1396 44.9331C24.2691 39.2055 34.1557 42.4442 37.0905 46.4911C39.9431 50.4246 35.4801 58.4663 35.4801 58.4663Z" fill="#263238"/>
<path d="M26.4378 71.0648C24.2979 71.0589 22.1792 70.6431 20.1975 69.84C17.5443 68.7032 15.9955 66.9471 15.7191 64.7619C14.7814 57.3372 21.7275 53.2577 21.7983 53.2174L22.0747 53.6933C22.0079 53.7322 15.3764 57.6353 16.2679 64.6928C16.5843 67.1969 18.6984 68.5995 20.4163 69.3353C23.8074 70.7876 28.1881 70.7796 29.2515 70.0042L29.5781 70.4477C28.6075 70.9343 27.5215 71.1477 26.4378 71.0648Z" fill="#263238"/>
<path d="M19.7873 52.3894C19.7245 53.3391 18.9324 54.6438 22.243 55.1341C25.5535 55.6251 30.1531 55.5783 31.097 54.7856C32.0404 53.9943 32.9713 52.1007 30.9971 52.2699C29.0223 52.4398 19.8941 50.7666 19.7873 52.3894Z" fill="#407BFF"/>
<path d="M33.6729 59.3044C34.2109 60.297 35.1221 61.0374 36.2074 61.3636C37.6494 61.7834 38.389 60.5054 38.0035 59.1417C37.6569 57.9148 36.489 56.2178 35.0344 56.3963C34.7173 56.4413 34.4166 56.5643 34.1594 56.7542C33.9022 56.944 33.6967 57.1947 33.5615 57.4835C33.4263 57.7722 33.3657 58.09 33.3851 58.408C33.4046 58.726 33.5035 59.0341 33.6729 59.3044Z" fill="#7F3E3B"/>
<path d="M68.5139 171.567L73.8137 171.467L71.2482 158.309L65.9484 158.409L68.5139 171.567Z" fill="#7F3E3B"/>
<path d="M72.4897 165.838C73.8919 171.089 79.044 176.648 79.044 176.648L71.6905 174.789L68.4763 170.247L69.0388 169.045L72.4897 165.838Z" fill="#7F3E3B"/>
<path d="M67.2688 168.278C67.2512 168.893 67.2871 169.508 67.376 170.117C67.6858 172.288 68.65 178.046 68.65 178.046L69.1488 178.05C68.9223 176.289 68.7875 174.519 68.7449 172.745C68.8129 171.316 69.7403 173.843 70.8594 175.271C71.9786 176.7 73.994 178.001 77.2545 178.101C81.0717 178.22 82.5926 178.061 81.3692 177.113C80.1883 176.388 78.8966 175.859 77.5448 175.546C75.4413 174.654 73.6496 173.164 72.3949 171.263C71.1605 169.552 69.5374 168.155 67.6576 167.186C67.3513 167.24 67.2869 167.815 67.2688 168.278Z" fill="#263238"/>
<path d="M87.2851 153.693L94.0508 153.901L86.4844 142.713L81.7992 146.695L87.2851 153.693Z" fill="#7F3E3B"/>
<path d="M88.8914 148.943C93.8061 151.22 101.679 150.772 101.679 150.772L95.28 155.878L89.792 155.473L89.2129 154.261L88.8914 148.943Z" fill="#7F3E3B"/>
<path d="M87.8512 154.744C88.2908 155.175 88.767 155.568 89.2744 155.918C91.069 157.161 95.9148 160.346 95.9148 160.346L96.2254 159.958C94.78 158.926 93.3894 157.82 92.0593 156.645C91.0472 155.614 93.4839 156.617 95.23 156.719C96.9761 156.821 99.1804 156.134 101.269 153.652C103.714 150.747 104.536 149.448 103.081 149.757C101.625 150.065 99.5619 151.677 99.5619 151.677C97.6203 152.708 95.3974 153.093 93.2197 152.775C91.1948 152.57 89.151 152.887 87.2843 153.693C87.1359 153.97 87.5203 154.413 87.8512 154.744Z" fill="#263238"/>
<path d="M33.9409 108.97C33.9409 108.97 70.1276 103.645 73.8738 112.871C80.392 128.923 89.5965 147.315 89.5965 147.315L85.1524 150.972C85.1524 150.972 69.3747 136.445 63.7615 120.319C57.058 122.476 35.7278 129.418 27.9154 129.418C19.5713 129.418 16.1636 122.342 19.1772 110.593C19.3099 110.084 19.6098 109.634 20.0292 109.314C20.4487 108.993 20.9637 108.822 21.4924 108.826C26.7452 108.851 33.9409 108.97 33.9409 108.97Z" fill="#263238"/>
<path d="M37.4096 113.656C37.4096 113.656 67.1088 112.766 67.3593 123.232C67.7741 140.538 72.6779 165.336 72.6779 165.336L67.2609 165.838C67.2609 165.838 58.4038 146.112 56.0604 129.206C45.4812 129.889 35.7277 129.418 27.9153 129.418C19.1601 129.418 18.4365 119.854 26.9587 108.696C32.1676 108.696 37.4096 113.656 37.4096 113.656Z" fill="#263238"/>
<path d="M19.0872 107.382L18.4562 109.354C18.3734 109.507 18.5528 109.669 18.8108 109.677L41.8158 110.357C42.0174 110.363 42.187 110.27 42.2036 110.144L42.4645 108.161C42.4828 108.023 42.3115 107.901 42.0911 107.895L19.4562 107.225C19.3864 107.217 19.3155 107.227 19.2508 107.255C19.1861 107.282 19.1297 107.326 19.0872 107.382Z" fill="white"/>
<path d="M22.0501 109.989L21.4436 109.971C21.3231 109.967 21.2329 109.902 21.2432 109.827L21.6047 107.25C21.615 107.174 21.7229 107.116 21.8434 107.119L22.4499 107.137C22.5704 107.14 22.6606 107.205 22.6503 107.28L22.2888 109.858C22.2785 109.933 22.1712 109.992 22.0501 109.989Z" fill="#263238"/>
<path d="M40.105 110.523L39.4991 110.504C39.3786 110.501 39.2884 110.437 39.2986 110.361L39.6602 107.784C39.671 107.708 39.7784 107.649 39.8988 107.653L40.5053 107.671C40.6259 107.674 40.7161 107.739 40.7058 107.814L40.3443 110.391C40.3335 110.467 40.226 110.526 40.105 110.523Z" fill="#263238"/>
<path d="M31.0773 110.256L30.4714 110.238C30.3508 110.234 30.2606 110.169 30.2709 110.094L30.6324 107.517C30.6427 107.441 30.7506 107.383 30.8711 107.387L31.4776 107.405C31.5981 107.408 31.6883 107.472 31.6781 107.548L31.3165 110.126C31.3052 110.2 31.1978 110.259 31.0773 110.256Z" fill="#263238"/>
<path d="M58.6282 85.2604H73.0761C73.1835 85.2604 73.2894 85.2852 73.3855 85.333C73.4816 85.3807 73.5651 85.45 73.6296 85.5355C73.6941 85.6209 73.7377 85.7201 73.757 85.8252C73.7762 85.9303 73.7706 86.0384 73.7406 86.1409L68.3417 104.571C68.2997 104.715 68.2123 104.84 68.0925 104.93C67.9727 105.019 67.8269 105.067 67.6771 105.068H53.2292C53.1217 105.068 53.0157 105.043 52.9195 104.995C52.8234 104.947 52.7397 104.878 52.6751 104.792C52.6106 104.707 52.567 104.608 52.5476 104.502C52.5283 104.397 52.5339 104.289 52.5639 104.186L57.9629 85.7565C58.0049 85.6133 58.0925 85.4876 58.2125 85.3982C58.3324 85.3088 58.4783 85.2604 58.6282 85.2604Z" fill="#407BFF"/>
<path d="M58.8946 85.9364L72.9364 86.2676L67.3912 103.651L53.3494 103.319L58.8946 85.9364Z" fill="#E0E0E0"/>
<path d="M58.4523 85.7657L72.4977 85.8233L67.2956 103.311L53.2502 103.253L58.4523 85.7657Z" fill="white"/>
<path d="M45.7873 86.1272C45.8153 86.6809 45.8684 87.3699 45.9193 87.9992C45.9758 88.6429 46.0468 89.2856 46.1322 89.9274C46.2922 91.2104 46.5063 92.4805 46.7713 93.721C47.0292 94.9367 47.3699 96.1334 47.7912 97.303C47.9954 97.8588 48.2281 98.4039 48.4883 98.936C48.6114 99.201 48.7511 99.445 48.8893 99.6905L49.0978 100.04C49.0805 100.016 49.0558 100.015 49.0754 100.035C49.3379 100.273 49.6476 100.453 49.9846 100.565C50.5194 100.77 51.0696 100.934 51.6301 101.054C52.8898 101.327 54.1651 101.523 55.4487 101.641C58.0867 101.897 60.8419 102.023 63.5421 102.079L63.815 104.8C61.0086 105.353 58.1608 105.673 55.3011 105.757C53.8146 105.805 52.3265 105.745 50.849 105.576C50.0407 105.477 49.2413 105.317 48.4579 105.096C47.4554 104.831 46.523 104.353 45.7256 103.693C45.4593 103.463 45.219 103.204 45.0089 102.922L44.6411 102.411C44.411 102.074 44.1832 101.732 43.9844 101.388C43.5792 100.711 43.2192 100.009 42.9068 99.2852C42.2976 97.8957 41.8044 96.4588 41.4322 94.989C41.0623 93.5616 40.7786 92.1135 40.5825 90.6524C40.4871 89.9266 40.4086 89.1997 40.3471 88.4715C40.2821 87.7278 40.2438 87.0409 40.2352 86.2172L45.7873 86.1272Z" fill="#7F3E3B"/>
<path d="M43.9077 77.7514C47.5038 81.1189 46.6375 89.8957 46.6375 89.8957L39.7468 91.0937C39.7468 91.0937 35.4928 84.8009 36.9879 82.1629C38.5453 79.4146 41.962 75.9291 43.9077 77.7514Z" fill="#407BFF"/>
<path d="M46.6364 90.6675C46.431 90.6654 46.2344 90.5841 46.0881 90.4407C46.0511 90.4048 46.0185 90.3647 45.991 90.3212C45.9644 90.2801 45.9415 90.2367 45.9225 90.1916C45.9035 90.1434 45.8882 90.0938 45.8768 90.0433C45.87 89.9944 45.8662 89.9451 45.8654 89.8957C45.8648 89.6917 45.945 89.4956 46.0887 89.3499C46.1261 89.3148 46.1662 89.2825 46.2086 89.2534C46.2491 89.225 46.2933 89.2023 46.3399 89.1858C46.3876 89.1652 46.4374 89.1498 46.4884 89.1397C46.6008 89.1177 46.7166 89.1206 46.8277 89.1484C46.9387 89.1762 47.0422 89.2281 47.1307 89.3004C47.2192 89.3726 47.2905 89.4635 47.3395 89.5664C47.3885 89.6694 47.414 89.7818 47.4142 89.8957C47.4121 89.9973 47.391 90.0977 47.3519 90.1916C47.335 90.2377 47.312 90.2812 47.2834 90.3212C47.2557 90.3646 47.2231 90.4047 47.1863 90.4407C47.0395 90.5843 46.8423 90.6656 46.6364 90.6675Z" fill="white"/>
<path d="M40.3765 91.0765C40.3676 90.9754 40.3789 90.8736 40.4097 90.7768C40.4405 90.6801 40.4902 90.5904 40.5559 90.5128C40.6216 90.4352 40.7021 90.3713 40.7928 90.3247C40.8834 90.2781 40.9824 90.2497 41.084 90.2413C41.227 90.228 41.371 90.255 41.4992 90.3193C41.6275 90.3837 41.735 90.4826 41.8093 90.6049C41.8541 90.4687 41.9362 90.3477 42.0463 90.2554C42.1565 90.1632 42.2904 90.1034 42.4329 90.0827C42.5755 90.0621 42.721 90.0814 42.853 90.1385C42.9851 90.1957 43.0985 90.2884 43.1805 90.4062C43.218 90.2687 43.2932 90.1443 43.3977 90.0469C43.5022 89.9494 43.6319 89.8828 43.7722 89.8545C43.9126 89.8262 44.0581 89.8373 44.1925 89.8865C44.327 89.9357 44.4449 90.0212 44.5333 90.1333C44.5629 89.9931 44.6308 89.8637 44.7296 89.7595C44.8283 89.6552 44.9541 89.58 45.093 89.5422V89.5486C45.1914 89.5222 45.2941 89.5154 45.3952 89.5287C45.4963 89.5419 45.5938 89.5748 45.682 89.6257C45.7702 89.6765 45.8474 89.7442 45.9093 89.8248C45.9711 89.9054 46.0163 89.9974 46.0422 90.0955C46.0682 90.1936 46.0744 90.2957 46.0604 90.3962C46.0465 90.4966 46.0128 90.5934 45.9611 90.6808C45.9095 90.7682 45.8409 90.8446 45.7595 90.9056C45.678 90.9666 45.5853 91.011 45.4865 91.0362C45.3408 91.0737 45.1872 91.0684 45.0445 91.021C44.9017 90.9736 44.7757 90.8861 44.6819 90.769C44.6509 90.9164 44.5771 91.0515 44.4696 91.1576C44.3621 91.2636 44.2257 91.336 44.0773 91.3657C43.9288 91.3953 43.7749 91.381 43.6346 91.3245C43.4942 91.268 43.3737 91.1717 43.2878 91.0477C43.249 91.1928 43.1683 91.3234 43.0556 91.4233C42.9429 91.5233 42.8033 91.5882 42.6539 91.61C42.5044 91.631 42.3519 91.6083 42.2151 91.5448C42.0782 91.4813 41.9628 91.3796 41.8829 91.2522C41.8339 91.394 41.7448 91.5187 41.6263 91.6115C41.5078 91.7042 41.365 91.7609 41.2148 91.7749H41.152C40.9587 91.7748 40.7723 91.7033 40.629 91.5743C40.4857 91.4452 40.3957 91.2678 40.3765 91.0765Z" fill="white"/>
<path d="M39.7488 91.8664C39.6969 91.8659 39.6452 91.8601 39.5946 91.8491C39.5459 91.8374 39.4982 91.8222 39.4518 91.8037C39.4044 91.7844 39.3586 91.7615 39.3147 91.7353C39.2739 91.7065 39.2357 91.6742 39.2005 91.6388C39.1624 91.6042 39.1297 91.5642 39.1034 91.52C39.0754 91.4782 39.0506 91.4344 39.0292 91.389C39.0106 91.3414 38.9972 91.2919 38.9892 91.2414C38.9778 91.193 38.9722 91.1435 38.9727 91.0938C38.9728 91.042 38.9784 90.9904 38.9892 90.9397C38.9974 90.8912 39.0108 90.8436 39.0292 90.7979C39.052 90.7525 39.0749 90.7072 39.1034 90.6618C39.1309 90.6202 39.1635 90.5823 39.2005 90.5488C39.2358 90.5135 39.274 90.4812 39.3147 90.4523C39.3573 90.4238 39.4034 90.4008 39.4518 90.3839C39.4971 90.3624 39.5452 90.3472 39.5946 90.3385C39.7191 90.3132 39.848 90.3192 39.9697 90.3559C40.0913 90.3926 40.2019 90.4589 40.2913 90.5488C40.3282 90.5823 40.3609 90.6202 40.3883 90.6618C40.4169 90.7072 40.4397 90.7525 40.4626 90.7979C40.4807 90.8442 40.4959 90.8916 40.5083 90.9397C40.5151 90.9908 40.5191 91.0422 40.5203 91.0938C40.5194 91.1432 40.5154 91.1925 40.5083 91.2414C40.4957 91.2913 40.4804 91.3406 40.4626 91.389C40.4411 91.4344 40.4163 91.4782 40.3883 91.52C40.3608 91.5633 40.3282 91.6032 40.2913 91.6388C40.1472 91.7821 39.9525 91.8638 39.7488 91.8664Z" fill="white"/>
<path d="M69.9763 99.2377L67.5917 99.0779C66.9969 99.0379 66.4056 99.1957 65.9108 99.5264L61.5289 102.453L61.4963 104.298C62.9 105.922 66.0085 104.468 66.0085 104.468L68.8918 104.376C69.122 104.369 69.3447 104.293 69.5313 104.159C69.7178 104.024 69.8597 103.838 69.9386 103.623L70.9825 100.776C71.0436 100.608 71.0649 100.429 71.0445 100.253C71.0241 100.076 70.9628 99.9061 70.8652 99.757C70.7676 99.6078 70.6365 99.4833 70.4822 99.3932C70.328 99.3031 70.1547 99.2498 69.9763 99.2377Z" fill="#7F3E3B"/>
<path d="M20.5124 179.999H21.1594C21.2935 179.988 21.419 179.929 21.513 179.833C21.6071 179.737 21.6634 179.611 21.6718 179.477L25.6465 151.965H22.6283L19.9962 179.295C19.9808 179.375 19.9822 179.458 20.0002 179.538C20.0182 179.617 20.0525 179.693 20.1009 179.759C20.1493 179.825 20.2107 179.88 20.2815 179.921C20.3523 179.963 20.4309 179.989 20.5124 179.999Z" fill="#407BFF"/>
<path opacity="0.3" d="M20.5124 179.999H21.1594C21.2935 179.988 21.419 179.929 21.513 179.833C21.6071 179.737 21.6634 179.611 21.6718 179.477L25.6465 151.965H22.6283L19.9962 179.295C19.9808 179.375 19.9822 179.458 20.0002 179.538C20.0182 179.617 20.0525 179.693 20.1009 179.759C20.1493 179.825 20.2107 179.88 20.2815 179.921C20.3523 179.963 20.4309 179.989 20.5124 179.999Z" fill="black"/>
<path d="M12.2325 180H12.8796C13.0136 179.988 13.1391 179.929 13.2331 179.834C13.3271 179.738 13.3834 179.612 13.3918 179.478L17.3666 151.965H14.3484L11.7163 179.296C11.7011 179.376 11.7026 179.459 11.7207 179.538C11.7387 179.618 11.773 179.693 11.8214 179.759C11.8698 179.825 11.9312 179.88 12.0019 179.922C12.0726 179.963 12.1511 179.99 12.2325 180Z" fill="#407BFF"/>
<path opacity="0.3" d="M12.2325 180H12.8796C13.0136 179.988 13.1391 179.929 13.2331 179.834C13.3271 179.738 13.3834 179.612 13.3918 179.478L17.3666 151.965H14.3484L11.7163 179.296C11.7011 179.376 11.7026 179.459 11.7207 179.538C11.7387 179.618 11.773 179.693 11.8214 179.759C11.8698 179.825 11.9312 179.88 12.0019 179.922C12.0726 179.963 12.1511 179.99 12.2325 180Z" fill="black"/>
<path d="M58.3741 179.999H57.7276C57.5935 179.988 57.468 179.929 57.3739 179.833C57.2798 179.737 57.2235 179.611 57.2151 179.477L53.2401 151.965H56.2581L58.8902 179.295C58.9056 179.375 58.9043 179.458 58.8863 179.538C58.8683 179.617 58.8341 179.693 58.7857 179.759C58.7373 179.825 58.6758 179.88 58.605 179.921C58.5342 179.963 58.4556 179.989 58.3741 179.999Z" fill="#407BFF"/>
<path opacity="0.3" d="M58.3741 179.999H57.7276C57.5935 179.988 57.468 179.929 57.3739 179.833C57.2798 179.737 57.2235 179.611 57.2151 179.477L53.2401 151.965H56.2581L58.8902 179.295C58.9056 179.375 58.9043 179.458 58.8863 179.538C58.8683 179.617 58.8341 179.693 58.7857 179.759C58.7373 179.825 58.6758 179.88 58.605 179.921C58.5342 179.963 58.4556 179.989 58.3741 179.999Z" fill="black"/>
<path d="M66.6542 179.999H66.007C65.8729 179.988 65.7475 179.929 65.6534 179.833C65.5594 179.737 65.503 179.611 65.4945 179.477L61.5202 151.965H64.5382L67.1704 179.295C67.1857 179.375 67.1843 179.458 67.1663 179.538C67.1483 179.617 67.114 179.692 67.0657 179.758C67.0173 179.824 66.9558 179.88 66.885 179.921C66.8143 179.963 66.7357 179.989 66.6542 179.999Z" fill="#407BFF"/>
<path opacity="0.3" d="M66.6542 179.999H66.007C65.8729 179.988 65.7475 179.929 65.6534 179.833C65.5594 179.737 65.503 179.611 65.4945 179.477L61.5202 151.965H64.5382L67.1704 179.295C67.1857 179.375 67.1843 179.458 67.1663 179.538C67.1483 179.617 67.114 179.692 67.0657 179.758C67.0173 179.824 66.9558 179.88 66.885 179.921C66.8143 179.963 66.7357 179.989 66.6542 179.999Z" fill="black"/>
<path d="M77.3891 119.351H57.0587C53.4515 106.892 40.4725 97.0632 27.1811 97.0632H20.5777C6.66492 97.0632 -2.31365 107.83 0.523521 121.111C1.05512 123.555 1.92578 125.914 3.1105 128.12L6.31658 147.447C6.73065 149.942 8.7317 151.965 10.7859 151.965H71.9786C74.0331 151.965 76.0347 149.942 76.4481 147.447L80.3601 123.867C80.7742 121.373 79.4443 119.351 77.3891 119.351Z" fill="#407BFF"/>
<path opacity="0.5" d="M77.3891 119.351H57.0587C53.4515 106.892 40.4725 97.0632 27.1811 97.0632H20.5777C6.66492 97.0632 -2.31365 107.83 0.523521 121.111C1.05512 123.555 1.92578 125.914 3.1105 128.12L6.31658 147.447C6.73065 149.942 8.7317 151.965 10.7859 151.965H71.9786C74.0331 151.965 76.0347 149.942 76.4481 147.447L80.3601 123.867C80.7742 121.373 79.4443 119.351 77.3891 119.351Z" fill="white"/>
<path d="M74.7324 28.7649H70.0682V29.3329H74.7324V28.7649Z" fill="#407BFF"/>
<path d="M52.9121 35.4588H52.341V32.6642C52.3423 31.6305 52.7558 30.6395 53.4908 29.9086C54.2258 29.1777 55.2223 28.7666 56.2617 28.7655H66.6723V29.3335H56.2617C55.3737 29.3344 54.5224 29.6855 53.8944 30.31C53.2665 30.9344 52.9132 31.7811 52.9121 32.6642V35.4588Z" fill="#407BFF"/>
<path d="M108.331 54.8836H56.2631C55.7535 54.8833 55.2649 54.6818 54.9046 54.3234C54.5443 53.9649 54.3419 53.4788 54.3419 52.972V32.6642C54.3419 32.1574 54.5444 31.6714 54.9047 31.313C55.2649 30.9546 55.7536 30.7531 56.2631 30.7529H108.331C108.84 30.753 109.329 30.9544 109.69 31.3128C110.05 31.6712 110.253 32.1573 110.253 32.6642V52.972C110.253 53.4789 110.05 53.9651 109.69 54.3236C109.329 54.6821 108.84 54.8835 108.331 54.8836Z" fill="#407BFF"/>
<path d="M105.867 44.1024H58.7237C58.3813 44.1024 58.0529 43.9671 57.8107 43.7262C57.5686 43.4854 57.4325 43.1588 57.4325 42.8182C57.4325 42.4776 57.5686 42.1509 57.8107 41.9101C58.0529 41.6692 58.3813 41.5339 58.7237 41.5339H105.867C106.209 41.5339 106.537 41.6692 106.78 41.9101C107.022 42.1509 107.158 42.4776 107.158 42.8182C107.158 43.1588 107.022 43.4854 106.78 43.7262C106.537 43.9671 106.209 44.1024 105.867 44.1024Z" fill="white"/>
<path d="M95.778 49.4353H58.7237C58.3813 49.4353 58.0529 49.3 57.8108 49.0592C57.5687 48.8184 57.4326 48.4918 57.4326 48.1512C57.4326 47.8106 57.5687 47.484 57.8108 47.2432C58.0529 47.0024 58.3813 46.8671 58.7237 46.8671H95.778C96.1204 46.8671 96.4489 47.0024 96.691 47.2432C96.9331 47.484 97.0691 47.8106 97.0691 48.1512C97.0691 48.4918 96.9331 48.8184 96.691 49.0592C96.4489 49.3 96.1204 49.4353 95.778 49.4353Z" fill="white"/>
<path d="M74.6209 38.7693H58.7223C58.3798 38.7693 58.0514 38.634 57.8093 38.3931C57.5671 38.1523 57.4311 37.8256 57.4311 37.485C57.4311 37.1444 57.5671 36.8178 57.8093 36.5769C58.0514 36.3361 58.3798 36.2008 58.7223 36.2008H74.6209C74.9633 36.2008 75.2918 36.3361 75.5339 36.5769C75.7761 36.8178 75.9121 37.1444 75.9121 37.485C75.9121 37.8256 75.7761 38.1523 75.5339 38.3931C75.2918 38.634 74.9633 38.7693 74.6209 38.7693Z" fill="white"/>
<path d="M95.6962 38.7693H79.7976C79.4552 38.7693 79.1267 38.634 78.8846 38.3931C78.6424 38.1523 78.5064 37.8256 78.5064 37.485C78.5064 37.1444 78.6424 36.8178 78.8846 36.5769C79.1267 36.3361 79.4552 36.2008 79.7976 36.2008H95.6962C96.0387 36.2008 96.3671 36.3361 96.6092 36.5769C96.8514 36.8178 96.9874 37.1444 96.9874 37.485C96.9874 37.8256 96.8514 38.1523 96.6092 38.3931C96.3671 38.634 96.0387 38.7693 95.6962 38.7693Z" fill="white"/>
<path d="M57.4323 53.3427V59.4951C57.4323 59.7616 57.5074 60.0228 57.6492 60.2489C57.7909 60.4751 57.9936 60.6572 58.2342 60.7746C58.4748 60.8919 58.7436 60.9398 59.0102 60.9128C59.2768 60.8858 59.5304 60.7851 59.7423 60.6219L69.2219 53.324L57.4323 53.3427Z" fill="#407BFF"/>
<path d="M137.713 0.284058H85.6454C85.1358 0.284121 84.6471 0.485523 84.2868 0.843962C83.9265 1.2024 83.7241 1.68851 83.7241 2.19537V22.5034C83.7241 23.0102 83.9265 23.4963 84.2868 23.8548C84.6471 24.2132 85.1358 24.4146 85.6454 24.4147H126.778L134.232 30.1532C134.444 30.3163 134.698 30.417 134.964 30.444C135.231 30.4709 135.5 30.423 135.74 30.3056C135.981 30.1883 136.184 30.0062 136.325 29.78C136.467 29.5539 136.542 29.2927 136.542 29.0262V24.4141H137.714C138.223 24.4139 138.712 24.2125 139.072 23.8541C139.432 23.4957 139.635 23.0096 139.635 22.5028V2.19537C139.635 1.68848 139.432 1.20242 139.072 0.844025C138.711 0.485627 138.223 0.284216 137.713 0.284058Z" fill="white"/>
<path d="M135.107 30.7371C134.727 30.7366 134.358 30.61 134.058 30.3775L126.68 24.6987H85.6454C85.0602 24.698 84.4992 24.4665 84.0854 24.0549C83.6716 23.6434 83.4389 23.0854 83.4382 22.5034V2.19535C83.4389 1.61333 83.6716 1.05535 84.0854 0.643798C84.4992 0.232243 85.0602 0.000716436 85.6454 0H137.713C138.298 0.000716436 138.859 0.232243 139.273 0.643798C139.687 1.05535 139.919 1.61333 139.92 2.19535V22.5034C139.919 23.0854 139.687 23.6434 139.273 24.0549C138.859 24.4665 138.298 24.698 137.713 24.6987H136.828V29.0263C136.827 29.4798 136.645 29.9146 136.323 30.2352C136 30.5559 135.563 30.7364 135.107 30.7371ZM85.6454 0.568006C85.2116 0.568508 84.7957 0.740124 84.489 1.04521C84.1823 1.35029 84.0098 1.76392 84.0093 2.19535V22.5034C84.0098 22.9348 84.1823 23.3484 84.489 23.6535C84.7957 23.9586 85.2116 24.1302 85.6454 24.1307H126.875L134.407 29.9282C134.576 30.059 134.779 30.1399 134.993 30.1616C135.206 30.1832 135.422 30.1449 135.614 30.051C135.807 29.957 135.969 29.8111 136.082 29.63C136.196 29.4488 136.256 29.2397 136.256 29.0263V24.1307H137.712C138.146 24.1302 138.562 23.9586 138.869 23.6535C139.175 23.3484 139.348 22.9348 139.348 22.5034V2.19535C139.348 1.76392 139.175 1.35029 138.869 1.04521C138.562 0.740124 138.146 0.568508 137.712 0.568006H85.6454Z" fill="#407BFF"/>
<path d="M110.567 13.6339H135.252C135.594 13.6339 135.923 13.4986 136.165 13.2577C136.407 13.0169 136.543 12.6903 136.543 12.3497C136.543 12.0091 136.407 11.6824 136.165 11.4416C135.923 11.2007 135.594 11.0654 135.252 11.0654H110.567C110.224 11.0654 109.896 11.2007 109.654 11.4416C109.412 11.6824 109.276 12.0091 109.276 12.3497C109.276 12.6903 109.412 13.0169 109.654 13.2577C109.896 13.4986 110.224 13.6339 110.567 13.6339Z" fill="#407BFF"/>
<path d="M93.3334 13.6339H105.554C105.897 13.6339 106.225 13.4986 106.468 13.2577C106.71 13.0169 106.846 12.6903 106.846 12.3497C106.846 12.0091 106.71 11.6824 106.468 11.4416C106.225 11.2007 105.897 11.0654 105.554 11.0654H93.3334C92.9909 11.0654 92.6625 11.2007 92.4203 11.4416C92.1782 11.6824 92.0422 12.0091 92.0422 12.3497C92.0422 12.6903 92.1782 13.0169 92.4203 13.2577C92.6625 13.4986 92.9909 13.6339 93.3334 13.6339Z" fill="#407BFF"/>
<path d="M98.1966 18.9671H135.251C135.593 18.9671 135.922 18.8318 136.164 18.591C136.406 18.3502 136.542 18.0235 136.542 17.6829C136.542 17.3423 136.406 17.0157 136.164 16.7748C135.922 16.534 135.593 16.3987 135.251 16.3987H98.1966C97.8542 16.3987 97.5258 16.534 97.2836 16.7748C97.0415 17.0157 96.9054 17.3423 96.9054 17.6829C96.9054 18.0235 97.0415 18.3502 97.2836 18.591C97.5258 18.8318 97.8542 18.9671 98.1966 18.9671Z" fill="#407BFF"/>
<path d="M88.1074 8.30002H135.25C135.593 8.30002 135.921 8.16472 136.163 7.92388C136.405 7.68304 136.541 7.35639 136.541 7.01579C136.541 6.6752 136.405 6.34855 136.163 6.10771C135.921 5.86687 135.593 5.73157 135.25 5.73157H88.1074C87.765 5.73157 87.4366 5.86687 87.1944 6.10771C86.9523 6.34855 86.8162 6.6752 86.8162 7.01579C86.8162 7.35639 86.9523 7.68304 87.1944 7.92388C87.4366 8.16472 87.765 8.30002 88.1074 8.30002Z" fill="#407BFF"/>
</g>
</g>
<defs>
<clipPath id="clip0_2_3047">
<rect width="184" height="180" fill="white"/>
</clipPath>
</defs>
</svg>
