<svg width="200" height="200" viewBox="0 0 200 200" fill="none" xmlns="http://www.w3.org/2000/svg">
<mask id="mask0_2_2938" style="mask-type:luminance" maskUnits="userSpaceOnUse" x="-12" y="-12" width="223" height="223">
<path d="M211 -11.5229H-11.523V211H211V-11.5229Z" fill="white"/>
</mask>
<g mask="url(#mask0_2_2938)">
<path d="M99.7389 184.156C151.441 184.156 193.354 181.708 193.354 178.689C193.354 175.67 151.441 173.222 99.7389 173.222C48.036 173.222 6.12271 175.67 6.12271 178.689C6.12271 181.708 48.036 184.156 99.7389 184.156Z" fill="#F5F5F5"/>
<path d="M122.03 67.2802L122.181 63.5482C122.181 63.5482 123.18 62.5571 123.18 61.9149C123.18 61.2734 122.031 57.5996 121.531 57.4247C121.031 57.2499 118.332 58.5326 118.282 59.3496C118.232 60.1659 119.682 63.1979 119.932 63.4319L119.532 67.3972L122.03 67.2802Z" fill="#E4897B"/>
<path d="M162.7 62.1293L161.417 58.4357C160.871 58.0442 160.363 57.6015 159.901 57.1136C159.551 56.6472 161.515 53.1481 161.806 53.1481C162.757 53.504 163.648 54.0022 164.449 54.6255C164.741 54.9756 163.205 57.8137 163.205 57.8137L165.11 61.0016L162.7 62.1293Z" fill="#E4897B"/>
<path d="M155.232 61.5067C157.003 61.6816 165.518 70.7788 165.518 70.7788L161.844 60.5734L164.76 59.5815C164.76 59.5815 171.933 71.0122 170.359 75.2108C168.784 79.4095 154.729 69.7877 154.729 69.7877L155.232 61.5067Z" fill="#E8505B"/>
<path d="M127.99 170.119L126.008 167.524L129.367 164.283L132.425 161.337L135.296 164.022L131.433 167.249L127.99 170.119Z" fill="#E4897B"/>
<path d="M125.891 166.732C126.182 166.52 128.643 170.207 128.643 170.207C128.643 170.207 128.096 174.049 129.206 176.528C130.316 179.006 128.159 178.796 126.366 176.447C124.572 174.099 123.203 172.307 121.929 170.639C120.655 168.97 122.872 168.928 125.891 166.732Z" fill="#2E353A"/>
<path d="M128.603 170.923C128.603 170.923 130.252 170.391 130.442 171.28C130.66 172.303 128.603 170.923 128.603 170.923ZM128.603 170.923C128.603 170.923 130.267 172.159 129.827 172.716C129.159 173.558 128.603 170.923 128.603 170.923Z" stroke="#6A6C72" stroke-width="0.4831" stroke-linecap="round" stroke-linejoin="round"/>
<path opacity="0.2" d="M131.432 167.249L129.366 164.283L132.424 161.337L135.296 164.022L131.432 167.249Z" fill="black"/>
<path d="M147.848 174.228H144.582L144.046 169.68L143.561 165.508L147.438 164.877L147.657 169.828L147.848 174.228Z" fill="#E4897B"/>
<path d="M143.881 174.018C143.89 173.658 148.313 173.941 148.313 173.941C148.313 173.941 151.034 176.709 153.678 177.331C156.322 177.953 154.845 179.539 151.89 179.539H144.581C142.482 179.539 143.794 177.751 143.881 174.018Z" fill="#2E353A"/>
<path d="M148.858 174.407C148.858 174.407 149.436 172.775 150.258 173.163C151.204 173.611 148.858 174.407 148.858 174.407ZM148.858 174.407C148.858 174.407 150.851 173.836 151.026 174.524C151.291 175.566 148.858 174.407 148.858 174.407Z" stroke="#6A6C72" stroke-width="0.4831" stroke-linecap="round" stroke-linejoin="round"/>
<path opacity="0.2" d="M147.657 169.928L144.046 169.77L143.561 165.553L147.438 164.899L147.657 169.928Z" fill="black"/>
<path d="M156.001 95.6523C156.001 95.6523 165.651 118.463 167.169 128.474C168.686 138.484 134.402 165.322 134.402 165.322L130.897 161.592C130.897 161.592 156.4 135.374 156.4 130.864C156.4 126.355 146.454 105.757 146.454 105.757C146.454 105.757 145.494 97.4515 156.001 95.6523Z" fill="#E8505B"/>
<path opacity="0.6" d="M149.014 152.84C145.511 156.063 142.124 158.975 139.492 161.176C136.437 163.728 134.402 165.319 134.402 165.319L130.899 161.592C130.899 161.592 134.402 157.995 138.806 153.232C142.272 149.485 146.303 145.02 149.629 141.022C153.483 136.39 156.399 132.387 156.399 130.866C156.399 128.487 153.632 121.638 151.02 115.69C148.673 110.362 146.452 105.758 146.452 105.758C146.385 104.81 146.479 103.857 146.728 102.94C147.399 100.355 149.517 96.7675 156.002 95.6523C156.002 95.6523 165.65 118.466 167.166 128.473C167.997 133.945 158.13 144.447 149.014 152.84Z" fill="white"/>
<path opacity="0.2" d="M149.631 141.022L149.014 152.84C145.511 156.064 142.124 158.975 139.492 161.177C138.886 158.575 138.655 155.899 138.807 153.232C142.273 149.486 146.303 145.021 149.631 141.022Z" fill="black"/>
<path opacity="0.2" d="M151.02 115.69C148.674 110.362 146.453 105.758 146.453 105.758C146.386 104.81 146.479 103.857 146.728 102.94C147.063 102.723 147.434 102.566 147.824 102.478C147.824 102.478 150.68 106.961 151.02 115.69Z" fill="black"/>
<path d="M138.61 43.2913C139.558 42.2052 140.765 41.3758 142.119 40.88C143.473 40.3841 144.93 40.2378 146.356 40.4546C151.173 41.2711 150.298 50.1557 150.298 50.1557C151.187 50.9239 151.847 51.9218 152.207 53.0401C152.567 54.1585 152.613 55.3543 152.339 56.4967C151.406 60.5156 140.469 62.8434 136.287 60.0468C132.103 57.2495 135.342 48.3837 137.352 47.1293C139.362 45.875 138.61 43.2913 138.61 43.2913Z" fill="#2E353A"/>
<path d="M147.919 102.478L148.502 134.598V167.469H143.029C129.966 105.184 138.923 89.5703 138.923 89.5703L138.956 89.5793C138.965 89.5556 138.975 89.525 138.984 89.5062C141.083 84.8409 154.846 88.2803 154.846 88.2803C155.835 92.1474 156.446 99.9979 156.446 99.9979L147.919 102.478Z" fill="#E8505B"/>
<path opacity="0.6" d="M147.919 102.478L148.502 134.598V167.469H143.029C129.966 105.184 138.923 89.5703 138.923 89.5703L138.956 89.5793C138.965 89.5556 138.975 89.525 138.984 89.5062C141.083 84.8409 154.846 88.2803 154.846 88.2803C155.835 92.1474 156.446 99.9979 156.446 99.9979L147.919 102.478Z" fill="white"/>
<path d="M138.844 87.166V89.4993L154.778 88.2769V85.5187L138.844 87.166Z" fill="#2E353A"/>
<path d="M144.192 86.1873L143.402 86.2277L143.607 90.2529L144.398 90.2125L144.192 86.1873Z" fill="#E8505B"/>
<path d="M151.092 86.085L147.608 86.397L147.845 89.0396L151.329 88.7276L151.092 86.085Z" fill="white"/>
<path d="M153.933 85.1083L153.142 85.1487L153.347 89.1739L154.138 89.1335L153.933 85.1083Z" fill="#E8505B"/>
<path opacity="0.6" d="M144.192 86.1873L143.402 86.2277L143.607 90.2529L144.398 90.2125L144.192 86.1873Z" fill="white"/>
<path opacity="0.6" d="M153.933 85.1083L153.142 85.1487L153.347 89.1739L154.138 89.1335L153.933 85.1083Z" fill="white"/>
<path d="M154.846 85.7965L138.91 87.1756C138.532 81.2503 138.154 77.4291 134.645 66.872C134.342 65.9484 134.011 64.9686 133.652 63.9326C135.814 63.2431 138.023 62.7098 140.262 62.3369C142.627 61.9176 145.018 61.6651 147.419 61.5812C150.521 61.5582 154.081 61.9078 154.081 61.9078C154.081 61.9078 154.589 62.029 154.906 65.3138C155.202 68.4015 155.486 74.5713 154.846 85.7965Z" fill="#E8505B"/>
<path opacity="0.3" d="M154.846 85.7965L138.91 87.1756C138.532 81.2503 138.154 77.4291 134.645 66.872C134.342 65.9484 134.011 64.9686 133.652 63.9326C135.814 63.2431 138.023 62.7098 140.262 62.3369C142.627 61.9176 145.018 61.6651 147.419 61.5812C150.521 61.5582 154.081 61.9078 154.081 61.9078C154.081 61.9078 154.589 62.029 154.906 65.3138C155.202 68.4015 155.486 74.5713 154.846 85.7965Z" fill="black"/>
<path d="M146.103 65.1028C142.175 64.5999 140.995 62.922 140.995 62.922C143.487 60.5712 141.417 56.4967 141.417 56.4967L146.145 57.3793C146.035 58.0375 145.974 58.7027 145.96 59.3697C145.925 62.2394 147.222 62.2673 147.222 62.2673C148.051 63.8212 146.103 65.1028 146.103 65.1028Z" fill="#E4897B"/>
<path opacity="0.2" d="M146.145 57.3793C146.036 58.0375 145.975 58.7027 145.961 59.3697C143.682 58.8411 141.418 56.4967 141.418 56.4967L146.145 57.3793Z" fill="black"/>
<path d="M141.932 44.2945C145.937 43.3453 147.734 45.1839 149.006 49.2416C150.595 54.3123 150.32 58.2477 145.051 58.3327C137.896 58.4483 135.281 45.8704 141.932 44.2945Z" fill="#E4897B"/>
<path d="M139.155 52.0819C139.155 52.0819 140.248 48.3477 139.363 45.8746C139.363 45.8746 146.531 40.7517 148.831 48.7142C148.831 48.7142 147.911 41.3775 140.989 42.8497C134.077 44.3194 136.483 54.3869 140.749 56.5452C140.749 56.5452 138.484 54.4144 139.155 52.0819Z" fill="#2E353A"/>
<path d="M140.011 52.7724C139.862 52.3183 139.54 51.9416 139.114 51.7247C138.688 51.5079 138.194 51.4687 137.739 51.6155C136.53 52.0453 136.542 54.7332 139.775 54.6139C140.239 54.5966 140.385 54.1046 140.011 52.7724Z" fill="#E4897B"/>
<path d="M154.907 65.3138C148.921 68.2761 139.749 67.5859 134.645 66.872C134.342 65.9484 134.011 64.9686 133.652 63.9326C135.814 63.2431 138.023 62.7098 140.262 62.3369C142.627 61.9176 145.018 61.6651 147.419 61.5812C150.521 61.5582 154.081 61.9078 154.081 61.9078C154.081 61.9078 154.59 62.029 154.907 65.3138Z" fill="#E4897B"/>
<path d="M136.997 62.323C136.997 62.323 141.286 67.8046 141.417 73.7529C141.549 79.7012 137.584 107.11 137.584 107.11L132.801 105.757C132.801 105.757 136.417 84.657 132.801 64.276L136.997 62.323Z" fill="#E8505B"/>
<path d="M150.297 61.7281C150.297 61.7281 152.047 67.4132 151.814 71.4948C151.58 75.5771 156.002 95.6892 156.002 95.6892L157.286 98.7825L156.012 86.3091C156.012 86.3091 156.783 68.0052 155.231 61.7281H150.297Z" fill="#E8505B"/>
<path d="M141.931 44.2952C141.931 44.2952 143.414 49.3384 138.899 51.6232C133.444 54.384 133.962 60.3504 139.283 61.1082C139.283 61.1082 133.91 60.5712 132.866 57.0584C131.805 53.4898 134.785 48.1467 134.785 48.1467C134.785 48.1467 133.152 45.1783 137.561 42.8457C140.048 41.53 141.931 44.2952 141.931 44.2952Z" fill="#2E353A"/>
<path d="M142.326 166.679L149.162 165.679L148.589 168.41L142.948 169.17L142.326 166.679Z" fill="#E8505B"/>
<path d="M130.898 160.333L135.484 165.319L133.191 166.632L129.652 162.877L130.898 160.333Z" fill="#E8505B"/>
<path d="M158.071 50.7956C157.246 49.3196 155.642 48.646 154.49 49.2902C153.337 49.9347 153.072 51.6536 153.897 53.1291C154.722 54.6052 156.325 55.2787 157.478 54.6346C158.631 53.99 158.897 52.2712 158.071 50.7956Z" fill="#E8505B"/>
<path d="M167.443 45.6223L164.605 40.403C164.605 40.403 162.623 44.6552 159.773 46.2491L161.219 48.8351L161.446 49.2422L162.894 51.8321C165.745 50.2383 170.404 50.7747 170.404 50.7747L167.443 45.6223Z" fill="#E8505B"/>
<path opacity="0.8" d="M158.071 50.7956C157.246 49.3196 155.642 48.646 154.49 49.2902C153.337 49.9347 153.072 51.6536 153.897 53.1291C154.722 54.6052 156.325 55.2787 157.478 54.6346C158.631 53.99 158.897 52.2712 158.071 50.7956Z" fill="white"/>
<path opacity="0.8" d="M167.443 45.6223L164.605 40.403C164.605 40.403 162.623 44.6552 159.773 46.2491L161.219 48.8351L161.446 49.2422L162.894 51.8321C165.745 50.2383 170.404 50.7747 170.404 50.7747L167.443 45.6223Z" fill="white"/>
<path d="M157.878 53.8513C157.878 53.8513 159.93 56.8236 161.846 57.9085C161.913 57.9442 161.989 57.9554 162.063 57.94C162.137 57.9246 162.203 57.8837 162.249 57.8245L163.882 55.7971C163.914 55.7589 163.935 55.714 163.946 55.666C163.957 55.6179 163.957 55.568 163.946 55.5201C163.934 55.4721 163.912 55.4275 163.88 55.3896C163.849 55.3517 163.809 55.3216 163.764 55.3017C162.344 54.7156 161.059 53.8454 159.987 52.7446C158.576 51.0778 157.878 53.8513 157.878 53.8513Z" fill="#E8505B"/>
<path opacity="0.3" d="M157.878 53.8513C157.878 53.8513 159.93 56.8236 161.846 57.9085C161.913 57.9442 161.989 57.9554 162.063 57.94C162.137 57.9246 162.203 57.8837 162.249 57.8245L163.882 55.7971C163.914 55.7589 163.935 55.714 163.946 55.666C163.957 55.6179 163.957 55.568 163.946 55.5201C163.934 55.4721 163.912 55.4275 163.88 55.3896C163.849 55.3517 163.809 55.3216 163.764 55.3017C162.344 54.7156 161.059 53.8454 159.987 52.7446C158.576 51.0778 157.878 53.8513 157.878 53.8513Z" fill="black"/>
<path d="M170.377 50.9255C169.723 51.291 167.869 49.2197 166.237 46.299C164.604 43.3789 163.811 40.7151 164.463 40.3496C165.117 39.984 166.97 42.0554 168.603 44.9761C170.235 47.8967 171.029 50.5605 170.377 50.9255Z" fill="white"/>
<path opacity="0.4" d="M170.109 50.0639C169.621 50.3372 168.175 48.7081 166.812 46.3649C166.733 46.2326 166.655 46.0945 166.577 45.956C166.485 45.7889 166.393 45.6262 166.308 45.4649C165.057 43.1019 164.44 41.0629 164.925 40.7921C165.446 40.5005 167.031 42.3405 168.463 44.9019C169.893 47.459 170.631 49.7723 170.109 50.0639Z" fill="black"/>
<path d="M157.213 55.1769C157.213 55.1769 156.511 54.6786 155.241 52.4049C153.865 49.9449 153.903 49.2554 153.903 49.2554L160.265 45.6979C160.265 45.6979 160.341 46.5912 161.631 48.8981C162.912 51.1887 163.576 51.6194 163.576 51.6194L157.213 55.1769Z" fill="#E8505B"/>
<path d="M166.811 46.3653C166.732 46.233 166.654 46.0949 166.577 45.9564C166.484 45.7893 166.393 45.6266 166.308 45.4653L166.967 45.2572C167.037 45.2375 167.112 45.2436 167.178 45.2742C167.244 45.3048 167.297 45.358 167.327 45.4243L167.38 45.5179C167.42 45.5785 167.438 45.6516 167.429 45.724C167.421 45.7964 167.387 45.8634 167.333 45.9129L166.811 46.3653Z" fill="white"/>
<path opacity="0.2" d="M166.811 46.3653C166.732 46.233 166.654 46.0949 166.577 45.9564C166.484 45.7893 166.393 45.6266 166.308 45.4653L166.967 45.2572C167.037 45.2375 167.112 45.2436 167.178 45.2742C167.244 45.3048 167.297 45.358 167.327 45.4243L167.38 45.5179C167.42 45.5785 167.438 45.6516 167.429 45.724C167.421 45.7964 167.387 45.8634 167.333 45.9129L166.811 46.3653Z" fill="black"/>
<path d="M132.802 64.276C130.586 65.2386 122.655 79.3905 122.655 79.3905L122.499 66.0166L118.922 65.5499C118.922 65.5499 116.746 84.5225 121.41 85.6105C126.076 86.6992 134.629 73.1699 134.629 73.1699L132.802 64.276Z" fill="#E8505B"/>
<path d="M141.418 43.6934C141.418 43.6934 143.471 45.1742 141.943 49.0456" stroke="#2E353A" stroke-width="0.5" stroke-linecap="round" stroke-linejoin="round"/>
<path d="M149.855 49.825C149.855 49.825 155.502 53.48 151.839 58.1877" stroke="#2E353A" stroke-width="0.5" stroke-linecap="round" stroke-linejoin="round"/>
<path d="M116.11 179.229H35.026C34.3664 179.229 33.7132 179.099 33.1038 178.847C32.4944 178.594 31.9407 178.224 31.4743 177.758C31.0078 177.291 30.6379 176.738 30.3854 176.128C30.133 175.519 30.0031 174.866 30.0031 174.206V20.3431C30.0031 19.6835 30.133 19.0304 30.3854 18.421C30.6378 17.8116 31.0078 17.2579 31.4743 16.7915C31.9407 16.3252 32.4944 15.9552 33.1038 15.7029C33.7132 15.4505 34.3664 15.3206 35.026 15.3207H116.11C117.442 15.3207 118.719 15.8498 119.661 16.7917C120.603 17.7336 121.132 19.0111 121.133 20.3431V174.206C121.132 175.538 120.603 176.816 119.661 177.758C118.719 178.699 117.442 179.229 116.11 179.229Z" fill="#2E353A"/>
<path d="M118.089 20.8135V173.446C118.089 173.742 118.03 174.035 117.916 174.308C117.802 174.581 117.635 174.828 117.424 175.036C117.213 175.244 116.963 175.407 116.689 175.517C116.414 175.627 116.12 175.682 115.824 175.677H35.1333C34.8646 175.681 34.598 175.63 34.3494 175.528C34.1008 175.426 33.8753 175.275 33.6865 175.084C33.4976 174.893 33.3492 174.666 33.2502 174.416C33.1512 174.166 33.1036 173.899 33.1102 173.63V20.6301C33.1007 20.3932 33.138 20.1567 33.22 19.9342C33.302 19.7118 33.4271 19.5076 33.5881 19.3336C33.7491 19.1596 33.9429 19.019 34.1584 18.92C34.3738 18.821 34.6067 18.7655 34.8436 18.7567H55.0163C55.2985 18.7619 55.5727 18.8509 55.8041 19.0126C56.0354 19.1743 56.2133 19.4012 56.3151 19.6644L57.1505 21.7213C57.2535 21.9828 57.432 22.2078 57.6632 22.3677C57.8944 22.5276 58.1679 22.6152 58.449 22.6194H92.7931C93.073 22.6182 93.3462 22.5335 93.5776 22.376C93.8091 22.2186 93.9882 21.9956 94.0921 21.7357L94.9273 19.6692C95.0289 19.4055 95.2067 19.1779 95.438 19.0154C95.6693 18.8529 95.9437 18.7629 96.2263 18.7567H116.109C116.643 18.7718 117.149 18.9957 117.52 19.3804C117.89 19.7651 118.094 20.2797 118.089 20.8135Z" fill="white"/>
<path opacity="0.2" d="M118.089 28.6545H33.1102V47.7264H118.089V28.6545Z" fill="#BCBCBC"/>
<path opacity="0.6" d="M42.6934 24.9053H43.7431V23.5061H42.6934V24.9053Z" fill="#CDCDCD"/>
<path opacity="0.6" d="M40.982 24.9056H42.0317V23.0394H40.982V24.9056Z" fill="#CDCDCD"/>
<path opacity="0.6" d="M39.2707 24.9053H40.3203V22.5723H39.2707V24.9053Z" fill="#CDCDCD"/>
<path opacity="0.6" d="M37.5606 24.9053H38.6103V22.1053H37.5606V24.9053Z" fill="#CDCDCD"/>
<path opacity="0.6" d="M108.688 22.9957H108.066V24.395H108.688V22.9957Z" fill="#D1D1D1"/>
<path opacity="0.6" d="M109.118 24.9053H114.074V22.4844H109.118V24.9053Z" fill="#D1D1D1"/>
<path opacity="0.6" d="M73.6708 20.1219C73.9015 20.122 74.1271 20.0537 74.319 19.9256C74.5109 19.7975 74.6605 19.6153 74.7489 19.4022C74.8373 19.189 74.8605 18.9544 74.8155 18.7281C74.7706 18.5018 74.6595 18.2939 74.4964 18.1307C74.3333 17.9675 74.1254 17.8563 73.8991 17.8113C73.6728 17.7662 73.4382 17.7893 73.2251 17.8776C73.0119 17.9658 72.8296 18.1154 72.7014 18.3072C72.5732 18.4991 72.5048 18.7246 72.5048 18.9554C72.5048 19.2646 72.6277 19.5612 72.8463 19.78C73.065 19.9987 73.3615 20.1217 73.6708 20.1219Z" fill="white"/>
<path opacity="0.6" d="M77.1994 18.9552C77.1994 19.1031 77.1556 19.2477 77.0735 19.3707C76.9914 19.4936 76.8747 19.5895 76.7381 19.6462C76.6015 19.7028 76.4511 19.7177 76.3061 19.6889C76.161 19.6601 76.0278 19.5889 75.9232 19.4844C75.8186 19.3799 75.7473 19.2467 75.7184 19.1017C75.6895 18.9566 75.7042 18.8063 75.7607 18.6696C75.8173 18.533 75.9131 18.4162 76.036 18.334C76.1589 18.2517 76.3034 18.2078 76.4513 18.2078C76.6496 18.2077 76.8399 18.2864 76.9801 18.4266C77.1204 18.5667 77.1993 18.7569 77.1994 18.9552Z" fill="white"/>
<path d="M118.089 146.707V173.446C118.089 173.742 118.03 174.035 117.916 174.308C117.802 174.581 117.634 174.828 117.424 175.036C117.213 175.243 116.963 175.407 116.688 175.517C116.414 175.627 116.12 175.682 115.824 175.677H35.1333C34.8646 175.681 34.598 175.63 34.3493 175.528C34.1007 175.426 33.8752 175.275 33.6864 175.083C33.4975 174.892 33.3492 174.665 33.2502 174.415C33.1512 174.165 33.1036 173.898 33.1102 173.629V146.707H118.089Z" fill="#F2F2F2"/>
<path d="M42.4439 95.6286L75.5674 67.7921L108.691 95.6286L82.7214 130.463L59.3949 129.997L42.4439 95.6286Z" fill="#E8505B"/>
<path d="M42.4439 95.6286L75.5674 67.7921L108.691 95.6286L82.7214 130.463L59.3949 129.997L42.4439 95.6286Z" fill="#9C171C"/>
<path d="M98.04 127.511H53.0976C52.8088 127.511 52.5318 127.396 52.3276 127.191C52.1234 126.987 52.0088 126.71 52.0089 126.421V59.7083C52.0089 59.5653 52.037 59.4237 52.0917 59.2917C52.1464 59.1596 52.2266 59.0395 52.3277 58.9385C52.4288 58.8374 52.5489 58.7572 52.681 58.7025C52.8131 58.6478 52.9546 58.6196 53.0976 58.6196H98.04C98.183 58.6196 98.3246 58.6477 98.4567 58.7024C98.5888 58.7571 98.7088 58.8373 98.8099 58.9384C98.911 59.0395 98.9912 59.1595 99.0459 59.2916C99.1006 59.4237 99.1287 59.5653 99.1287 59.7083V126.422C99.1287 126.565 99.1006 126.707 99.0459 126.839C98.9912 126.971 98.911 127.091 98.8099 127.192C98.7088 127.293 98.5888 127.373 98.4567 127.428C98.3246 127.483 98.183 127.511 98.04 127.511Z" fill="white"/>
<path opacity="0.2" d="M93.7627 64.8395H57.3733C57.2806 64.8395 57.1916 64.8763 57.126 64.9419C57.0603 65.0074 57.0234 65.0964 57.0233 65.1891V65.8891C57.0234 65.9819 57.0603 66.0708 57.126 66.1364C57.1916 66.202 57.2806 66.2388 57.3733 66.2388H93.7627C93.8087 66.2389 93.8542 66.2299 93.8967 66.2124C93.9392 66.1949 93.9779 66.1691 94.0104 66.1366C94.043 66.1042 94.0688 66.0656 94.0864 66.0231C94.104 65.9806 94.1131 65.9351 94.113 65.8891V65.1891C94.1129 65.0963 94.076 65.0073 94.0103 64.9417C93.9446 64.8762 93.8555 64.8394 93.7627 64.8395Z" fill="black"/>
<path opacity="0.2" d="M93.7627 69.5076H57.3733C57.2805 69.5076 57.1914 69.5446 57.1258 69.6103C57.0601 69.676 57.0232 69.765 57.0233 69.8579V70.5572C57.0232 70.6501 57.0601 70.7392 57.1258 70.8049C57.1914 70.8706 57.2805 70.9075 57.3733 70.9076H93.7627C93.8087 70.9076 93.8543 70.8986 93.8968 70.881C93.9393 70.8634 93.9779 70.8376 94.0105 70.805C94.043 70.7725 94.0688 70.7338 94.0864 70.6913C94.104 70.6488 94.1131 70.6032 94.113 70.5572V69.8579C94.1131 69.8119 94.104 69.7663 94.0864 69.7238C94.0688 69.6813 94.043 69.6427 94.0105 69.6101C93.9779 69.5776 93.9393 69.5518 93.8968 69.5342C93.8543 69.5166 93.8087 69.5075 93.7627 69.5076Z" fill="black"/>
<path opacity="0.2" d="M93.7627 74.1764H57.3733C57.2805 74.1764 57.1914 74.2134 57.1258 74.2791C57.0601 74.3448 57.0232 74.4339 57.0233 74.5267V75.226C57.0234 75.3189 57.0603 75.4079 57.1259 75.4736C57.1915 75.5393 57.2805 75.5762 57.3733 75.5764H93.7627C93.8087 75.5764 93.8543 75.5674 93.8968 75.5498C93.9393 75.5322 93.9779 75.5064 94.0105 75.4738C94.043 75.4413 94.0688 75.4027 94.0864 75.3602C94.104 75.3176 94.1131 75.2721 94.113 75.226V74.5267C94.1131 74.4807 94.104 74.4352 94.0864 74.3926C94.0688 74.3501 94.043 74.3115 94.0105 74.279C93.9779 74.2464 93.9393 74.2206 93.8968 74.203C93.8543 74.1854 93.8087 74.1764 93.7627 74.1764Z" fill="black"/>
<path opacity="0.2" d="M93.7627 78.8445H57.3733C57.2805 78.8445 57.1914 78.8815 57.1258 78.9472C57.0601 79.0129 57.0232 79.102 57.0233 79.1948V79.8941C57.0232 79.987 57.0601 80.0761 57.1258 80.1418C57.1914 80.2075 57.2805 80.2445 57.3733 80.2445H93.7627C93.8087 80.2445 93.8543 80.2355 93.8968 80.2179C93.9393 80.2003 93.9779 80.1745 94.0105 80.1419C94.043 80.1094 94.0688 80.0708 94.0864 80.0282C94.104 79.9857 94.1131 79.9402 94.113 79.8941V79.1948C94.1131 79.1488 94.104 79.1032 94.0864 79.0607C94.0688 79.0182 94.043 78.9796 94.0105 78.947C93.9779 78.9145 93.9393 78.8887 93.8968 78.8711C93.8543 78.8535 93.8087 78.8445 93.7627 78.8445Z" fill="black"/>
<path opacity="0.2" d="M93.7627 83.5127H57.3733C57.2805 83.5127 57.1914 83.5497 57.1258 83.6154C57.0601 83.6811 57.0232 83.7702 57.0233 83.8631V84.5624C57.0232 84.6552 57.0601 84.7443 57.1258 84.81C57.1914 84.8757 57.2805 84.9127 57.3733 84.9127H93.7627C93.8087 84.9127 93.8543 84.9037 93.8968 84.8861C93.9393 84.8685 93.9779 84.8427 94.0105 84.8102C94.043 84.7776 94.0688 84.739 94.0864 84.6965C94.104 84.6539 94.1131 84.6084 94.113 84.5624V83.8631C94.113 83.7702 94.076 83.6811 94.0103 83.6154C93.9447 83.5497 93.8556 83.5128 93.7627 83.5127Z" fill="black"/>
<path opacity="0.2" d="M93.7627 88.1814H57.3733C57.2805 88.1814 57.1914 88.2184 57.1258 88.2841C57.0601 88.3498 57.0232 88.4389 57.0233 88.5318V89.2311C57.0234 89.3239 57.0603 89.4129 57.1259 89.4786C57.1915 89.5443 57.2805 89.5812 57.3733 89.5814H93.7627C93.8087 89.5814 93.8543 89.5724 93.8968 89.5548C93.9393 89.5372 93.9779 89.5114 94.0105 89.4788C94.043 89.4463 94.0688 89.4077 94.0864 89.3652C94.104 89.3226 94.1131 89.2771 94.113 89.2311V88.5318C94.1131 88.4857 94.104 88.4402 94.0864 88.3976C94.0688 88.3551 94.043 88.3165 94.0105 88.284C93.9779 88.2514 93.9393 88.2256 93.8968 88.208C93.8543 88.1904 93.8087 88.1814 93.7627 88.1814Z" fill="black"/>
<path opacity="0.2" d="M93.7627 92.8495H57.3733C57.2806 92.8495 57.1916 92.8863 57.126 92.9519C57.0603 93.0174 57.0234 93.1064 57.0233 93.1991V93.8991C57.0234 93.9919 57.0603 94.0808 57.126 94.1464C57.1916 94.212 57.2806 94.2488 57.3733 94.2488H93.7627C93.8087 94.2489 93.8542 94.2399 93.8967 94.2224C93.9392 94.2049 93.9779 94.1791 94.0104 94.1467C94.043 94.1142 94.0688 94.0756 94.0864 94.0331C94.104 93.9907 94.1131 93.9451 94.113 93.8991V93.1991C94.1129 93.1063 94.076 93.0173 94.0103 92.9518C93.9446 92.8862 93.8555 92.8494 93.7627 92.8495Z" fill="black"/>
<path opacity="0.2" d="M93.7627 97.5176H57.3733C57.2805 97.5177 57.1915 97.5547 57.1259 97.6204C57.0603 97.6861 57.0234 97.7751 57.0233 97.8679V98.5672C57.0232 98.6601 57.0601 98.7492 57.1258 98.8149C57.1914 98.8806 57.2805 98.9175 57.3733 98.9176H93.7627C93.8087 98.9176 93.8543 98.9086 93.8968 98.891C93.9393 98.8734 93.9779 98.8476 94.0105 98.815C94.043 98.7825 94.0688 98.7439 94.0864 98.7013C94.104 98.6588 94.1131 98.6133 94.113 98.5672V97.8679C94.1131 97.8219 94.104 97.7763 94.0864 97.7338C94.0688 97.6913 94.043 97.6527 94.0105 97.6201C93.9779 97.5876 93.9393 97.5618 93.8968 97.5442C93.8543 97.5266 93.8087 97.5176 93.7627 97.5176Z" fill="black"/>
<path opacity="0.2" d="M93.7627 102.186H57.3733C57.2805 102.186 57.1914 102.223 57.1258 102.288C57.0601 102.354 57.0232 102.443 57.0233 102.536V103.235C57.0234 103.328 57.0603 103.417 57.1259 103.483C57.1915 103.549 57.2805 103.586 57.3733 103.586H93.7627C93.8087 103.586 93.8543 103.577 93.8968 103.559C93.9393 103.541 93.9779 103.516 94.0105 103.483C94.043 103.451 94.0688 103.412 94.0864 103.369C94.104 103.327 94.1131 103.281 94.113 103.235V102.536C94.1131 102.49 94.104 102.444 94.0864 102.402C94.0688 102.359 94.043 102.321 94.0105 102.288C93.9779 102.256 93.9393 102.23 93.8968 102.212C93.8543 102.195 93.8087 102.186 93.7627 102.186Z" fill="black"/>
<path d="M77.3401 119.904L77.159 119.803C76.8301 119.621 76.4597 119.525 76.0833 119.527C75.707 119.529 75.3374 119.627 75.0102 119.813L74.1166 120.32L42.2834 95.6285V136.371C42.285 136.654 42.3429 136.935 42.4538 137.196C42.5647 137.457 42.7263 137.693 42.9292 137.891C43.1322 138.089 43.3724 138.245 43.636 138.349C43.8996 138.453 44.1814 138.504 44.4648 138.499H106.672C107.871 138.499 108.431 137.575 108.431 136.371V95.6285L77.3401 119.904Z" fill="#E8505B"/>
<path d="M77.3401 119.904L77.159 119.803C76.8301 119.621 76.4597 119.525 76.0833 119.527C75.707 119.529 75.3374 119.627 75.0102 119.813L74.1166 120.32L42.2834 95.6285V136.371C42.285 136.654 42.3429 136.935 42.4538 137.196C42.5647 137.457 42.7263 137.693 42.9292 137.891C43.1322 138.089 43.3724 138.245 43.636 138.349C43.8996 138.453 44.1814 138.504 44.4648 138.499H106.672C107.871 138.499 108.431 137.575 108.431 136.371V95.6285L77.3401 119.904Z" fill="#E21B22"/>
<path opacity="0.2" d="M72.6776 119.205L74.1166 120.32L51.6211 133.091L72.6776 119.205Z" fill="black"/>
<path opacity="0.2" d="M101.912 133.574L77.3066 119.929L78.4413 119.041L101.912 133.574Z" fill="black"/>
<path d="M89.8413 34.2072H62.9638C62.8571 34.2072 62.7548 34.1648 62.6793 34.0894C62.6038 34.014 62.5613 33.9117 62.5612 33.8049V32.0344C62.5613 31.9277 62.6038 31.8254 62.6793 31.75C62.7548 31.6745 62.8571 31.6322 62.9638 31.6322H89.8413C89.948 31.6322 90.0503 31.6745 90.1258 31.7499C90.2013 31.8254 90.2438 31.9277 90.2438 32.0344V33.8049C90.2438 33.9117 90.2013 34.014 90.1258 34.0894C90.0503 34.1648 89.948 34.2072 89.8413 34.2072Z" fill="#E1E1E1"/>
<path d="M112.133 45.1517H99.7396C99.3127 45.1517 98.9034 44.9821 98.6016 44.6803C98.2998 44.3785 98.1303 43.9692 98.1303 43.5424C98.1303 43.1156 98.2998 42.7062 98.6016 42.4045C98.9034 42.1027 99.3127 41.9331 99.7396 41.9331H112.133C112.56 41.9331 112.969 42.1027 113.271 42.4045C113.573 42.7062 113.742 43.1156 113.742 43.5424C113.742 43.9692 113.573 44.3785 113.271 44.6803C112.969 44.9821 112.56 45.1517 112.133 45.1517Z" fill="#E1E1E1"/>
<path d="M51.6194 150.731H39.2266V162.48H51.6194V150.731Z" fill="#E1E1E1"/>
<path d="M66.6951 150.731H54.3024V162.48H66.6951V150.731Z" fill="#E1E1E1"/>
<path d="M81.7728 150.731H69.3795V162.48H81.7728V150.731Z" fill="#E1E1E1"/>
<path d="M96.8497 150.731H84.4571V162.48H96.8497V150.731Z" fill="#E1E1E1"/>
<path d="M111.927 150.731H99.5341V162.48H111.927V150.731Z" fill="#E1E1E1"/>
<path d="M112.133 170.767H99.7396C99.3127 170.767 98.9034 170.597 98.6016 170.295C98.2998 169.994 98.1302 169.584 98.1302 169.157C98.1302 168.731 98.2998 168.321 98.6016 168.019C98.9034 167.718 99.3127 167.548 99.7396 167.548H112.133C112.56 167.548 112.969 167.718 113.271 168.019C113.573 168.321 113.742 168.731 113.742 169.157C113.742 169.584 113.573 169.994 113.271 170.295C112.969 170.597 112.56 170.767 112.133 170.767Z" fill="#E1E1E1"/>
</g>
</svg>
