<svg id="Layer_1" data-name="Layer 1" xmlns="http://www.w3.org/2000/svg" viewBox="0 0 32 32"><defs><style>.cls-1{fill:#e21b22;}.cls-2{fill:#fff;}</style></defs><title>DELET</title><path class="cls-1" d="M16,31.48A15.66,15.66,0,1,0,.34,15.82,15.66,15.66,0,0,0,16,31.48Z"/><path class="cls-2" d="M21.29,10.31H18.64V8.65A.66.66,0,0,0,18,8H14a.66.66,0,0,0-.65.66v1.66H10.72a.66.66,0,0,0-.66.65.67.67,0,0,0,.66.66h.39v10.6a1.44,1.44,0,0,0,1.43,1.43h7a1.45,1.45,0,0,0,1.44-1.43V11.62h.39A.66.66,0,0,0,22,11,.68.68,0,0,0,21.29,10.31Zm-6.63-1h2.68v1H14.66Zm.43,10.63a.66.66,0,1,1-1.31,0V14a.66.66,0,1,1,1.31,0Zm3.13,0a.66.66,0,0,1-.65.66.67.67,0,0,1-.66-.66V14a.67.67,0,0,1,.66-.66.66.66,0,0,1,.65.66Z"/></svg>