<svg id="Layer_1" data-name="Layer 1" xmlns="http://www.w3.org/2000/svg" viewBox="0 0 647 568"><defs><style>.cls-1{opacity:0.08;isolation:isolate;}.cls-2{fill:#6a84ff;}.cls-3{fill:#d8dbea;}.cls-4{fill:#f1f2f7;}.cls-5{fill:#fff;}.cls-6{fill:#e21b22;}.cls-7{fill:#455d6d;}.cls-8{fill:#e9eaec;}.cls-9{fill:#d2d8df;}.cls-10{fill:#ebecef;}.cls-10,.cls-11{fill-rule:evenodd;}.cls-11{fill:#d1d9e0;}</style></defs><title>No-cart-items</title><path class="cls-1" d="M350.917,191.125a39.92683,39.92683,0,0,0-16.122,22.62c-4.624,17.246,6.186,38.054,14.81,51.052,9.998-9.685,21.183-23.933,21.183-39.242A39.78237,39.78237,0,0,0,350.917,191.125Z"/><path class="cls-1" d="M291.11,225.555c0,15.247,11.249,29.557,21.184,39.242,8.624-12.998,19.433-33.806,14.81-51.052a39.652,39.652,0,0,0-16.123-22.62A39.78448,39.78448,0,0,0,291.11,225.555Z"/><path class="cls-2" d="M288.614,317.347l-7.498-6.999,14.685-7.123Z"/><path class="cls-3" d="M390.698,292.002H268.42l17.816,38.176,96.255-6.005Z"/><path class="cls-4" d="M279.973,297.55l-11.553-5.548v21.275Z"/><path class="cls-3" d="M264.538,305.473l15.442-7.921v19.245Z"/><path class="cls-4" d="M379.147,297.55l11.553-5.548v21.275Z"/><path class="cls-3" d="M394.589,305.473l-15.442-7.921v19.245Z"/><path class="cls-5" d="M357.366,282.419a1.21672,1.21672,0,0,0-1.561.562l-23.683,51.177V276.982a1.187,1.187,0,0,0-2.374,0v57.05l-23.683-52.176a1.17381,1.17381,0,1,0-2.124,1l25.932,57.175c0,.062.062.062.124.126.063.062.125.125.188.187a1.31738,1.31738,0,0,0,.375.25c.063,0,.063.062.125.062h.25a1.46541,1.46541,0,0,0,.5-.125.061.061,0,0,0,.063-.062c.062,0,.062-.063.125-.063a1.64958,1.64958,0,0,0,.312-.375l.062-.063,25.932-56.05A1.14352,1.14352,0,0,0,357.366,282.419Z"/><path class="cls-4" d="M327.134,213.748c7.311,27.369-24.182,63.674-24.182,63.674s-45.49-15.685-52.801-43.053a39.84849,39.84849,0,1,1,76.983-20.621Z"/><path class="cls-4" d="M311.192,283.233l-8.56-6.998-3.938,10.31a.90109.90109,0,0,0,1.062,1.188l11.186-3.001A.86223.86223,0,0,0,311.192,283.233Zm100.604-48.864c-7.312,27.368-52.802,43.053-52.802,43.053s-31.556-36.305-24.182-63.674a39.849,39.849,0,1,1,76.984,20.621Z"/><path class="cls-4" d="M363.249,286.537l-3.937-10.31-8.561,6.999a.902.902,0,0,0,.312,1.561l11.186,3.001A.90546.90546,0,0,0,363.249,286.537Z"/><path class="cls-6" d="M364.566,225.556a33.6185,33.6185,0,0,0-67.237,0c0,22.182,28.994,43.366,33.118,46.239l-4.999,6.874a.74645.74645,0,0,0,.625,1.187h9.749a.76325.76325,0,0,0,.624-1.187l-4.999-6.874C335.572,268.922,364.566,247.738,364.566,225.556Z"/><path class="cls-4" d="M394.591,305.469H264.535v131.8H394.591Z"/><path class="cls-6" d="M304.997,327.434a4.6895,4.6895,0,1,0-4.689-4.689A4.68878,4.68878,0,0,0,304.997,327.434Z"/><path class="cls-6" d="M354.133,327.434a4.6895,4.6895,0,1,0-4.69-4.689A4.68943,4.68943,0,0,0,354.133,327.434Z"/><path class="cls-7" d="M329.571,377.854a27.44818,27.44818,0,0,1-27.424-27.424V322.749a2.86,2.86,0,0,1,5.72,0V350.43a21.7045,21.7045,0,0,0,43.409,0V322.749a2.8595,2.8595,0,1,1,5.719,0V350.43A27.44752,27.44752,0,0,1,329.571,377.854Z"/><path class="cls-8" d="M587.405,317.335q.07644-3.1485.076-6.314h-2.459q0,3.1365-.076,6.255Zm-1.829,25.105q.76053-6.2205,1.22-12.531l-2.453-.178q-.45456,6.24752-1.208,12.411ZM581.3,367.247q1.368-6.12153,2.443-12.351l-2.423-.418q-1.06349,6.168-2.421,12.232Zm-6.702,24.266q1.96793-5.96251,3.651-12.05l-2.371-.655q-1.665,6.02848-3.616,11.934Zm-9.067,23.486q2.55-5.74347,4.824-11.631l-2.295-.886q-2.25,5.8305-4.777,11.519Zm-11.336,22.478q3.10345-5.46749,5.945-11.099l-2.196-1.108q-2.8125,5.577-5.88794,10.993Zm-13.488,21.257q3.627-5.1405,7.005-10.463l-2.077-1.318q-3.345,5.271-6.938,10.363ZM525.205,478.569q4.113-4.76249,7.994-9.728l-1.938-1.515q-3.843,4.917-7.917,9.636Zm-17.361,18.23q4.56-4.34253,8.903-8.903l-1.781-1.696q-4.3005,4.515-8.818,8.818Zm-19.055,16.452q4.96348-3.879,9.728-7.993l-1.607-1.862q-4.719,4.074-9.636,7.917Zm-20.57,14.513q5.3205-3.37647,10.462-7.005l-1.418-2.01q-5.091,3.59244-10.362,6.938Zm-21.894,12.428q5.631-2.83952,11.1-5.945l-1.215-2.139q-5.415,3.07507-10.992,5.888Zm-23.009,10.215q5.886-2.27242,11.631-4.823l-.998-2.248q-5.688,2.52447-11.519,4.776Zm-23.906,7.894q6.087-1.68156,12.051-3.651l-.772-2.336q-5.904,1.95-11.933,3.616Zm-24.566,5.494q6.228-1.07244,12.351-2.443l-.537-2.401q-6.063,1.356-12.232,2.421Zm-24.987,3.053q6.309-.459,12.53-1.22l-.298-2.441q-6.1605.75147-12.41,1.208Zm-18.888.685q3.165,0,6.314-.07605l-.06-2.459q-3.117.075-6.254.076Zm-6.314-.07605q3.147.07655,6.314.07605v-2.459q-3.1365,0-6.255-.076Zm-25.105-1.829q6.2205.76053,12.531,1.22l.178-2.453q-6.249-.45456-12.411-1.208Zm-24.807-4.276q6.1215,1.368,12.351,2.443l.418-2.423q-6.168-1.06349-12.232-2.421Zm-24.266-6.702q5.96248,1.96794,12.05,3.651l.655-2.371q-6.02853-1.665-11.934-3.616Zm-23.486-9.066q5.74351,2.54856,11.631,4.823l.886-2.295q-5.8305-2.25-11.519-4.776Zm-22.478-11.337q5.4675,3.10345,11.1,5.945l1.107-2.196q-5.57549-2.8125-10.992-5.888Zm-21.256-13.488q5.139,3.627,10.463,7.005l1.317-2.077q-5.2695-3.34506-10.362-6.938Zm-19.836-15.502q4.764,4.113,9.728,7.994l1.515-1.938q-4.91551-3.843-9.636-7.917Zm-18.23-17.361q4.34252,4.56,8.903,8.903l1.697-1.781q-4.5165-4.30052-8.819-8.818ZM128.74,468.841q3.879,4.96348,7.993,9.728l1.862-1.607q-4.074-4.719-7.917-9.636ZM114.227,448.27q3.3765,5.322,7.005,10.463l2.01-1.418q-3.5925-5.091-6.938-10.362Zm-12.428-21.893q2.8395,5.631,5.945,11.1l2.139-1.215q-3.075-5.415-5.888-10.992ZM91.5844,403.368q2.27235,5.886,4.8233,11.631l2.2481-.998q-2.525-5.688-4.7767-11.519Zm-7.8936-23.906q1.6809,6.087,3.651,12.051l2.3356-.772q-1.9497-5.904-3.6158-11.933Zm-5.4945-24.566q1.0734,6.228,2.4438,12.351l2.4003-.537q-1.35585-6.063-2.4203-12.232Zm-3.0529-24.987q.45915,6.309,1.2202,12.531l2.4414-.299q-.7524-6.16048-1.2085-12.41Zm-.6849-18.888q0,3.16648.0762,6.314l2.4589-.06q-.0753-3.117-.0754-6.254Zm.0762-6.314q-.07605,3.1485-.0762,6.314h2.4597q0-3.13652.0754-6.255Zm1.8289-25.105q-.75975,6.2205-1.2202,12.531l2.4532.178q.4548-6.2475,1.2085-12.41Zm4.2765-24.807q-1.36905,6.123-2.4438,12.351l2.4239.418q1.06305-6.168,2.4202-12.232Zm6.7017-24.266q-1.9686,5.96248-3.651,12.05l2.3708.655q1.66485-6.02848,3.6158-11.934Zm9.0658-23.486q-2.5494,5.74349-4.8233,11.631l2.2946.886q2.2506-5.8305,4.7767-11.519Zm11.3364-22.478q-3.1035,5.46752-5.945,11.1l2.196,1.107q2.8125-5.57551,5.888-10.993Zm13.488-21.256q-3.627,5.139-7.005,10.462l2.077,1.318q3.3435-5.2695,6.938-10.363Zm15.501-19.836q-4.113,4.76247-7.993,9.728l1.938,1.515q3.84152-4.917,7.917-9.636Zm17.361-18.23q-4.5585,4.341-8.903,8.903l1.781,1.696q4.302-4.51651,8.819-8.818Zm19.055-16.452q-4.9635,3.879-9.728,7.993l1.607,1.862q4.719-4.074,9.636-7.917Zm20.57-14.5131q-5.32048,3.3768-10.462,7.0051l1.418,2.009q5.08948-3.591,10.362-6.9374Zm21.893-12.4286q-5.62951,2.8398-11.099,5.9452l1.214,2.1389q5.415-3.0741,10.993-5.888Zm23.01-10.2147q-5.88747,2.2725-11.631,4.8233l.998,2.2481q5.688-2.525,11.519-4.7768Zm23.905-7.8938q-6.087,1.68105-12.05,3.6511l.771,2.3356q5.904-1.9497,11.934-3.6158Zm24.567-5.4946q-6.228,1.07355-12.351,2.4438l.537,2.4004q6.063-1.356,12.232-2.4203Zm24.986-3.053q-6.30748.4593-12.53,1.2202l.298,2.4415q6.162-.75255,12.411-1.2086Zm18.889-.6849q-3.16649,0-6.314.0762l.059,2.4589q3.11851-.07515,6.255-.0754Zm6.314.0762q-3.1485-.0759-6.314-.0762V56.968q3.13651,0,6.254.0754Zm25.104,1.829q-6.2205-.75975-12.53-1.2202l-.178,2.4531q6.2475.4548,12.41,1.2085Zm24.808,4.2766q-6.123-1.36905-12.352-2.4439l-.417,2.4239q6.168,1.063,12.232,2.4202Zm24.266,6.7019q-5.96251-1.9689-12.051-3.6512l-.654,2.3708q6.027,1.66485,11.933,3.6159Zm23.486,9.0661q-5.74347-2.54955-11.631-4.8233l-.886,2.2945q5.8305,2.2506,11.519,4.7769Zm22.478,11.3365q-5.46749-3.1041-11.1-5.9452l-1.107,2.1961q5.57551,2.8125,10.992,5.8881Zm21.256,13.4884q-5.139-3.627-10.462-7.005l-1.318,2.0767q5.2695,3.34455,10.362,6.9373Zm19.836,15.501q-4.764-4.113-9.728-7.993l-1.515,1.938q4.9155,3.8415,9.636,7.917Zm18.23,17.362q-4.34253-4.56-8.903-8.903l-1.696,1.781q4.515,4.30051,8.818,8.818Zm16.451,19.055q-3.87753-4.9635-7.993-9.729l-1.861,1.608q4.07255,4.71751,7.916,9.635Zm14.514,20.57q-3.37794-5.322-7.005-10.463l-2.01,1.418q3.59244,5.091,6.938,10.363Zm12.428,21.893q-2.8395-5.6295-5.945-11.099l-2.139,1.214q3.07343,5.415,5.88794,10.993Zm10.215,23.01q-2.27242-5.88752-4.824-11.631l-2.248.998q2.52594,5.6865,4.777,11.519Zm7.893,23.905q-1.68-6.087-3.651-12.05l-2.335.771q1.95,5.904,3.616,11.934Zm5.495,24.567q-1.074-6.228-2.444-12.351l-2.4.537q1.356,6.063,2.42,12.232Zm3.053,24.986q-.459-6.30748-1.22-12.53l-2.442.298q.753,6.162,1.20905,12.411Zm.685,18.889q0-3.1665-.076-6.314l-2.45905.059q.075,3.11852.076,6.255Z"/><path class="cls-8" d="M521.672,317.277q.10051-3.1155.1-6.256h-2.459q0,3.10051-.1,6.177Zm-2.421,24.837q1.00506-6.129,1.616-12.385l-2.448-.238q-.6015,6.17249-1.595,12.226Zm-5.648,24.313q1.80294-5.95051,3.224-12.06l-2.396-.557q-1.39956,6.02851-3.182,11.903Zm-8.797,23.362q2.574-5.6715,4.784-11.537l-2.302-.866q-2.1795,5.78553-4.722,11.386Zm-11.785,22.002q3.2985-5.29047,6.254-10.809l-2.168-1.161q-2.916,5.4435-6.173,10.67Zm-14.554,20.277q3.96-4.821,7.607-9.9l-1.998-1.434q-3.597,5.0115-7.51,9.773ZM461.4,450.283q4.557-4.27049,8.83-8.83l-1.795-1.681q-4.215,4.4985-8.716,8.716Zm-19.285,15.844q5.076-3.64352,9.9-7.607l-1.561-1.901q-4.7595,3.91053-9.773,7.51Zm-21.186,13.201q5.5155-2.95348,10.809-6.254l-1.301-2.087q-5.223,3.255-10.669,6.173Zm-22.73,10.315q5.862-2.208,11.537-4.784l-1.017-2.24q-5.598,2.541-11.387,4.722Zm-23.885,7.237q6.10652-1.419,12.06-3.224l-.713-2.354q-5.874,1.78051-11.904,3.182Zm-24.638,4.04q6.25352-.609,12.385-1.616l-.398-2.427q-6.04948.99147-12.225,1.595Zm-18.708.905q3.13951,0,6.256-.1l-.079-2.459q-3.0765.099-6.177.1Zm-6.256-.1q3.11548.10047,6.256.1v-2.459q-3.10048,0-6.177-.1Zm-24.837-2.421q6.129,1.005,12.385,1.616l.239-2.448q-6.174-.60145-12.226-1.595Zm-24.312-5.648q5.95051,1.803,12.06,3.224l.556-2.396q-6.02848-1.39953-11.903-3.182Zm-23.362-8.797q5.67148,2.574,11.536,4.784l.867-2.302q-5.787-2.178-11.387-4.722Zm-22.003-11.784q5.292,3.297,10.809,6.254l1.162-2.168q-5.445-2.916-10.67-6.173ZM209.922,458.52q4.81948,3.96153,9.9,7.608l1.434-1.998q-5.01152-3.59851-9.773-7.51Zm-18.215-17.066q4.2705,4.557,8.829,8.829l1.682-1.795q-4.49851-4.215-8.716-8.716Zm-15.844-19.286q3.6435,5.07751,7.607,9.9l1.901-1.561q-3.91048-4.75947-7.51-9.773Zm-13.201-21.186q2.955,5.51551,6.254,10.809l2.087-1.3q-3.25351-5.2245-6.173-10.67Zm-10.314-22.73q2.208,5.862,4.784,11.537l2.24-1.017q-2.541-5.598-4.722-11.386Zm-7.236-23.885q1.41752,6.10648,3.223,12.06l2.354-.714q-1.779-5.87251-3.182-11.903Zm-4.04-24.638q.609,6.25352,1.615,12.385l2.428-.397q-.99153-6.051-1.595-12.226Zm-.905-18.708q0,3.13952.1,6.256l2.458-.079q-.099-3.0765-.099-6.177Zm.1-6.256q-.1005,3.1155-.1,6.256h2.459q0-3.10049.099-6.177Zm2.42-24.837q-1.00349,6.129-1.615,12.385l2.448.239q.60151-6.174,1.595-12.226Zm5.648-24.312q-1.803,5.95051-3.224,12.06l2.396.556q1.401-6.02847,3.182-11.903Zm8.797-23.362q-2.574,5.6715-4.784,11.536l2.302.867q2.17952-5.787,4.722-11.387Zm11.784-22.003q-3.297,5.292-6.254,10.809l2.169,1.161q2.916-5.44348,6.173-10.669Zm14.555-20.277q-3.96148,4.821-7.608,9.9l1.998,1.435q3.597-5.01152,7.51-9.774Zm17.066-18.215q-4.557,4.2705-8.83,8.83l1.795,1.682q4.215-4.5,8.716-8.717Zm19.285-15.844q-5.07751,3.6435-9.9,7.607l1.561,1.901q4.75952-3.91052,9.773-7.51Zm21.185-13.201q-5.514,2.9535-10.809,6.254l1.301,2.087q5.223-3.255,10.67-6.173Zm22.73-10.315q-5.862,2.208-11.536,4.784l1.016,2.24q5.598-2.541,11.387-4.722Zm23.886-7.237q-6.108,1.419-12.06,3.224l.713,2.354q5.87251-1.779,11.903-3.182Zm24.637-4.039q-6.25352.609-12.385,1.615l.398,2.427q6.04949-.9915,12.226-1.594Zm18.708-.906q-3.13948,0-6.256.101l.08,2.458q3.075-.099,6.176-.099Zm6.256.101q-3.1155-.1005-6.256-.101v2.46q3.10052,0,6.177.099Zm24.838,2.42q-6.1305-1.0035-12.386-1.615l-.238,2.448q6.174.6,12.226,1.595Zm24.312,5.649q-5.95047-1.803-12.06-3.224l-.557,2.395q6.02852,1.401,11.904,3.183Zm23.362,8.797q-5.6715-2.574-11.537-4.784l-.866,2.302q5.78548,2.178,11.387,4.722Zm22.002,11.784q-5.29051-3.297-10.809-6.254l-1.161,2.168q5.44349,2.916,10.67,6.174Zm20.277,14.555q-4.821-3.96148-9.9-7.608l-1.434,1.998q5.0115,3.59851,9.773,7.51Zm18.215,17.066q-4.27052-4.557-8.83-8.829l-1.681,1.795q4.4985,4.215,8.716,8.716Zm15.845,19.286q-3.645-5.07748-7.608-9.901l-1.901,1.562q3.91048,4.7595,7.51,9.773Zm13.2,21.185q-2.95349-5.514-6.254-10.809l-2.087,1.301q3.255,5.223,6.173,10.67Zm10.315,22.73q-2.208-5.862-4.784-11.536l-2.24,1.016q2.541,5.598,4.722,11.387Zm7.237,23.886q-1.41908-6.108-3.224-12.06l-2.354.713q1.779,5.87247,3.182,11.903Zm4.04,24.638q-.609-6.255-1.616-12.386l-2.427.398q.99153,6.051,1.595,12.226Zm.905,18.707q0-3.13949-.1-6.255l-2.459.079q.099,3.0765.1,6.176Z"/><path class="cls-9" d="M27.4977,344.163l-4.7396-.146-.0753,2.459,4.7396.145Zm-4.7396-.146a1.23008,1.23008,0,0,0-.0753,2.459Zm4.6643,2.604a1.22958,1.22958,0,1,0,.0753-2.458Z"/><path class="cls-9" d="M23.2211,335.506l-3.3992,3.176,1.679,1.797,3.3992-3.175Zm-3.3992,3.176a1.22885,1.22885,0,0,0,.3288,2.02,1.22232,1.22232,0,0,0,.9423.031,1.22324,1.22324,0,0,0,.4079-.254Zm5.0782-1.378a1.24355,1.24355,0,0,0,.2814-.39,1.23,1.23,0,0,0-1.9604-1.408Z"/><path class="cls-9" d="M13.9714,332.282l-.0713,4.634,2.4593.038.0713-4.634Zm-.0713,4.634a1.22863,1.22863,0,0,0,.741,1.15,1.244,1.244,0,0,0,.4697.101,1.2316,1.2316,0,0,0,.4725-.087,1.21457,1.21457,0,0,0,.4034-.261,1.22716,1.22716,0,0,0,.3727-.865Zm2.5306-4.596a1.22591,1.22591,0,0,0-.346-.876,1.22576,1.22576,0,0,0-.8647-.375,1.22959,1.22959,0,0,0-1.2486,1.213Z"/><path class="cls-9" d="M5.18984,336.342l3.30079,3.379,1.75957-1.718-3.30081-3.38Zm3.30079,3.379a1.22961,1.22961,0,1,0,1.75957-1.718Zm-1.54124-5.098a1.22995,1.22995,0,1,0-1.75955,1.719Z"/><path class="cls-9" d="M1.97976,345.317l4.7372.145.07532-2.458-4.73721-.145Zm4.7372.145a1.2293,1.2293,0,0,0,.54286-2.35,1.21894,1.21894,0,0,0-.46754-.108Zm-4.66189-2.603a1.22957,1.22957,0,0,0-.07531,2.458Z"/><path class="cls-9" d="M6.2535,353.974l3.40163-3.176L7.97677,349l-3.40164,3.176Zm3.40163-3.176A1.22981,1.22981,0,1,0,7.97677,349Zm-5.08,1.378a1.22972,1.22972,0,0,0-.31573,1.332,1.23047,1.23047,0,0,0,1.9941.466Z"/><path class="cls-9" d="M15.5068,357.199l.0714-4.634-2.4594-.038-.0713,4.634Zm.0714-4.634a1.23113,1.23113,0,0,0-.7416-1.148,1.227,1.227,0,0,0-1.3442.246,1.23107,1.23107,0,0,0-.3736.864Zm-2.5307,4.596a1.2298,1.2298,0,1,0,2.4593.038Z"/><path class="cls-9" d="M24.2873,353.138l-3.3008-3.38-1.7596,1.719,3.3008,3.379Zm-3.3008-3.38a1.23006,1.23006,0,0,0-.3959-.272,1.24646,1.24646,0,0,0-.4701-.101,1.23008,1.23008,0,0,0-.8936,2.092Zm1.5412,5.098a1.22961,1.22961,0,0,0,1.7596-1.718Z"/><path class="cls-9" d="M644.663,278.491l-2.084,2.256,1.807,1.669,2.083-2.256Zm-2.084,2.256a1.23186,1.23186,0,0,0-.21295,1.35,1.256,1.256,0,0,0,.282.388,1.23668,1.23668,0,0,0,.884.325,1.21693,1.21693,0,0,0,.466-.112,1.23284,1.23284,0,0,0,.388-.282Zm3.89-.587a1.2071,1.2071,0,0,0,.254-.409,1.22325,1.22325,0,0,0-.034-.945,1.228,1.228,0,0,0-.694-.641,1.22712,1.22712,0,0,0-.944.041,1.21071,1.21071,0,0,0-.388.285Z"/><path class="cls-9" d="M634.953,282.19l1.572,1.449,1.667-1.809-1.572-1.448Zm1.572,1.449a1.23,1.23,0,0,0,1.667-1.809Zm.095-3.257a1.21516,1.21516,0,0,0-.409-.251,1.23015,1.23015,0,0,0-1.258,2.059Z"/><path class="cls-9" d="M635.105,292.117l2.08405-2.255-1.807-1.669-2.083,2.255Zm2.08405-2.255a1.23756,1.23756,0,0,0,.254-.41,1.22688,1.22688,0,0,0-.035-.944,1.19913,1.19913,0,0,0-.283-.39,1.232,1.232,0,0,0-1.355-.211,1.22952,1.22952,0,0,0-.388.286Zm-3.89.586a1.22954,1.22954,0,1,0,1.806,1.669Z"/><path class="cls-9" d="M644.813,288.419l-1.569-1.449-1.669,1.808,1.569,1.448Zm-1.569-1.449a1.237,1.237,0,0,0-.884-.325,1.23069,1.23069,0,0,0-.785,2.133Zm-.1,3.256a1.22991,1.22991,0,0,0,2.068-.951,1.22795,1.22795,0,0,0-.399-.856Z"/><path class="cls-9" d="M454.789,13.0115l-5.039-.1353-.066,2.4587,5.039.1353Zm-5.039-.1353a1.23285,1.23285,0,0,0-1.157.7284,1.25785,1.25785,0,0,0-.106.4679,1.23051,1.23051,0,0,0,1.197,1.2624Zm4.973,2.594a1.23071,1.23071,0,0,0,.883-.3346,1.24255,1.24255,0,0,0,.279-.3923,1.23033,1.23033,0,0,0-1.096-1.7318Z"/><path class="cls-9" d="M440.488,2.05169l-.076,4.30677,2.459.04354.076-4.30678Zm-.076,4.30677a1.22931,1.22931,0,0,0,1.208,1.25773A1.2294,1.2294,0,0,0,442.871,6.402Zm2.535-4.26324a1.22969,1.22969,0,0,0-2.459-.04353Z"/><path class="cls-9" d="M427.66,14.2581l5.04.1328.065-2.4587-5.04-.1329Zm5.04.1328a1.23054,1.23054,0,0,0,.883-.3349,1.24218,1.24218,0,0,0,.279-.3925,1.23,1.23,0,0,0-1.097-1.7313Zm-4.975-2.5916a1.22983,1.22983,0,0,0-.065,2.4588Z"/><path class="cls-9" d="M441.963,25.2178l.076-4.3068-2.459-.0436-.076,4.3068Zm.076-4.3068a1.2297,1.2297,0,1,0-2.459-.0436Zm-2.535,4.2632a1.22012,1.22012,0,0,0,.083.4742,1.22984,1.22984,0,0,0,2.376-.4306Z"/><path class="cls-10" d="M81.5516,479.254a21.87271,21.87271,0,0,0-11.7299,12.728c-.3468-5.869-4.0731-13.245-8.1733-14.308a22.41534,22.41534,0,0,0,11.8627-13.746C73.2504,469.668,78.4623,478.004,81.5516,479.254Z"/><path class="cls-10" d="M166.464,37.3093a16.39368,16.39368,0,0,0-9.839,8.4635c.249-4.4003-1.889-10.2172-4.85-11.3634A16.81409,16.81409,0,0,0,161.8,25.1957C161.109,29.4508,164.27,36.1114,166.464,37.3093Z"/><path class="cls-11" d="M537.127,69.2622a6.75608,6.75608,0,1,1,2.599-.4576A6.762,6.762,0,0,1,537.127,69.2622Z"/><path class="cls-10" d="M537.145,512.367a5.88733,5.88733,0,1,1,2.262-.399A5.89831,5.89831,0,0,1,537.145,512.367Z"/><path class="cls-9" d="M50.8051,155.411a2.41581,2.41581,0,0,1-2.4673,2.364l-.0541,2.459a4.875,4.875,0,0,0,4.9804-4.769Zm-2.364-2.465a2.41708,2.41708,0,0,1,2.364,2.465l2.459.054a4.87767,4.87767,0,0,0-4.7688-4.978Zm-2.4647,2.36a2.41551,2.41551,0,0,1,2.4647-2.36l.0542-2.459a4.874,4.874,0,0,0-4.978,4.768Zm2.3614,2.469a2.41368,2.41368,0,0,1-2.3614-2.469l-2.4591-.051a4.87464,4.87464,0,0,0,4.7664,4.979Z"/><path class="cls-6" d="M430.217,237.805a33.692,33.692,0,1,0-33.692-33.692A33.69145,33.69145,0,0,0,430.217,237.805Z"/><path class="cls-5" d="M442.498,183.235a5.43711,5.43711,0,0,0-7.563,2.173L422.68,208.876a4.0832,4.0832,0,0,0,7.026,4.135l14.565-22.11a5.475,5.475,0,0,0-1.773-7.666Z"/><path class="cls-5" d="M417.91,224.991a3.89793,3.89793,0,1,0-1.137-1.013A3.90651,3.90651,0,0,0,417.91,224.991Z"/></svg>