<svg width="14" height="14" viewBox="0 0 14 14" fill="none" xmlns="http://www.w3.org/2000/svg">
<path d="M6.69918 0.0625759C5.50798 0.0625759 4.41121 0.353112 3.40885 0.934185C2.4065 1.51526 1.61479 2.30697 1.03372 3.30932C0.452646 4.31167 0.162109 5.40845 0.162109 6.59965C0.162109 7.79085 0.452646 8.88762 1.03372 9.88997C1.61479 10.8923 2.4065 11.684 3.40885 12.2651C4.41121 12.8462 5.50798 13.1367 6.69918 13.1367C7.89038 13.1367 8.98716 12.8462 9.98951 12.2651C10.9919 11.684 11.7836 10.8923 12.3646 9.88997C12.9457 8.88762 13.2363 7.79085 13.2363 6.59965C13.2363 5.40845 12.9457 4.31167 12.3646 3.30932C11.7836 2.30697 10.9919 1.51526 9.98951 0.934185C8.98716 0.353112 7.89038 0.0625759 6.69918 0.0625759ZM6.82992 10.3476C6.56844 10.3476 6.34327 10.2604 6.15442 10.0861C5.96558 9.91176 5.87115 9.69386 5.87115 9.43238C5.87115 9.1709 5.96558 8.95299 6.15442 8.77867C6.34327 8.60435 6.56118 8.51719 6.80813 8.51719C7.05509 8.51719 7.27299 8.60435 7.46184 8.77867C7.65069 8.95299 7.74511 9.1709 7.74511 9.43238C7.74511 9.69386 7.65069 9.91176 7.46184 10.0861C7.27299 10.2604 7.06235 10.3476 6.82992 10.3476ZM5.13028 2.98247C5.53703 2.72098 6.03095 2.59024 6.61202 2.59024C7.36741 2.59024 7.99933 2.77183 8.50777 3.135C9.01621 3.49817 9.27043 4.04293 9.27043 4.76927C9.27043 5.20507 9.15421 5.56824 8.92179 5.85878C8.80557 6.0331 8.55861 6.26553 8.18092 6.55607L7.83227 6.86113C7.65795 7.0064 7.52721 7.18072 7.44005 7.3841C7.411 7.50031 7.39647 7.70369 7.39647 7.99422H6.00189C6.03095 7.41315 6.08905 7.01366 6.17622 6.79576C6.26338 6.57786 6.49581 6.32364 6.8735 6.0331L7.22215 5.72804C7.33836 5.64088 7.44005 5.55372 7.52721 5.46655C7.64342 5.26318 7.70153 5.04528 7.70153 4.81285C7.70153 4.58042 7.6289 4.35525 7.48363 4.13735C7.33836 3.91945 7.06961 3.8105 6.67739 3.8105C6.28517 3.8105 6.00916 3.94124 5.84936 4.20272C5.68957 4.4642 5.60967 4.74021 5.60967 5.03075H4.12793C4.18604 4.07198 4.52016 3.38922 5.13028 2.98247Z" fill="#111111"/>
</svg>
