<svg id="Layer_1" data-name="Layer 1" xmlns="http://www.w3.org/2000/svg" xmlns:xlink="http://www.w3.org/1999/xlink" viewBox="0 0 32 32"><defs><style>.cls-1{fill:none;}.cls-2{clip-path:url(#clip-path);}.cls-3{fill:#e21b22;}.cls-4{fill:#fff;fill-rule:evenodd;}</style><clipPath id="clip-path"><rect class="cls-1" width="31.9989" height="31.9989"/></clipPath></defs><title>tick</title><g class="cls-2"><path class="cls-3" d="M15.9971,31.9942A15.9971,15.9971,0,1,0,0,15.9971,15.99717,15.99717,0,0,0,15.9971,31.9942Z"/><path class="cls-4" d="M12.0458,18.3176,22.6715,9.88082a1.6664,1.6664,0,1,1,2.0717,2.61068L12.6739,22.072l-.1172.0937a1.67219,1.67219,0,0,1-.15.0938l-.0656.0422a1.664,1.664,0,0,1-2.2076-.6516l-.18751-.314L6.84781,15.9506a1.65979,1.65979,0,1,1,2.87788-1.6545l2.32481,4.0215Z"/></g></svg>