<svg id="Layer_1" data-name="Layer 1" xmlns="http://www.w3.org/2000/svg" viewBox="0 0 13.45511 15.61471"><defs><style>.cls-1,.cls-2{fill:none;stroke:#292d32;stroke-linecap:round;stroke-linejoin:round;}.cls-1{stroke-width:1.21499px;}.cls-2{stroke-width:1.07999px;}</style></defs><title>Bookstore1</title><path class="cls-1" d="M.87988,12.6816V4.76146c0-2.88007.72-3.60008,3.6-3.60008h5.04c2.88006,0,3.60006.72,3.60006,3.60008V11.9616c0,.1008,0,.2016-.0072.3024" transform="translate(-0.27239 -0.55389)"/><path class="cls-1" d="M2.9319,10.521H13.12v2.5201a2.52277,2.52277,0,0,1-2.52,2.52H3.3999a2.52278,2.52278,0,0,1-2.52-2.52V12.573A2.05572,2.05572,0,0,1,2.9319,10.521Z" transform="translate(-0.27239 -0.55389)"/><path class="cls-2" d="M4.63965,4.9895H9.35912" transform="translate(-0.27239 -0.55389)"/><path class="cls-2" d="M4.63965,7.05347H7.58932" transform="translate(-0.27239 -0.55389)"/></svg>