<svg id="Layer_1" data-name="Layer 1" xmlns="http://www.w3.org/2000/svg" viewBox="0 0 20.38894 18.50003"><defs><style>.cls-1{fill:none;stroke:#282828;stroke-width:1.5px;}</style></defs><title>Book-Store</title><path class="cls-1" d="M12.0001,4.55537V20.4911m0-15.93573,1.039-.38991a10.52565,10.52565,0,0,1,7.3664,0,1.55473,1.55473,0,0,1,1.0391,1.43978V18.6864a1.30513,1.30513,0,0,1-1.7991,1.1427,8.35373,8.35373,0,0,0-5.8464,0l-1.786.6703a.00947.00947,0,0,1-.013-.0083m0-15.93573-1.039-.38991a10.52571,10.52571,0,0,0-7.36642,0,1.55475,1.55475,0,0,0-1.039,1.43978V18.6864a1.30508,1.30508,0,0,0,1.799,1.1427,8.35375,8.35375,0,0,1,5.84641,0l1.7861.6703a.00939.00939,0,0,0,.0129-.0083" transform="translate(-1.80566 -2.75)"/></svg>