<svg id="Layer_1" data-name="Layer 1" xmlns="http://www.w3.org/2000/svg" xmlns:xlink="http://www.w3.org/1999/xlink" viewBox="0 0 18 18"><defs><style>.cls-1,.cls-3,.cls-4{fill:none;}.cls-2{clip-path:url(#clip-path);}.cls-3,.cls-4{stroke:#292d32;stroke-linecap:round;stroke-linejoin:round;}.cls-3{stroke-width:1.21501px;}.cls-4{stroke-width:1.35001px;}</style><clipPath id="clip-path"><rect class="cls-1" y="0.0384" width="18" height="17"/></clipPath></defs><title>Events</title><g class="cls-2"><path class="cls-3" d="M5.89966.78849v2.325"/><path class="cls-3" d="M12.0991.78849v2.325"/><path class="cls-3" d="M2.41138,6.28312H15.5865"/><path class="cls-3" d="M15.9748,5.82591V12.4134c0,2.325-1.1625,3.875-3.875,3.875H5.8997c-2.71253,0-3.875-1.55-3.875-3.875V5.82591c0-2.325,1.16251-3.875,3.875-3.875h6.2001C14.8123,1.95091,15.9748,3.50091,15.9748,5.82591Z"/><path class="cls-4" d="M11.8637,9.85632h.007"/><path class="cls-4" d="M11.8637,12.1812h.007"/><path class="cls-4" d="M8.99628,9.85639h.007"/><path class="cls-4" d="M8.99628,12.1813h.007"/><path class="cls-4" d="M6.12788,9.85639h.007"/><path class="cls-4" d="M6.12788,12.1811h.007"/></g></svg>