<svg id="Layer_1" data-name="Layer 1" xmlns="http://www.w3.org/2000/svg" viewBox="0 0 26.56119 26.56122"><defs><style>.cls-1{fill:#dd1628;}.cls-2{fill:#fff;}</style></defs><title>IR-logo-1</title><path class="cls-1" d="M21.9013.23828H5.30053A4.98022,4.98022,0,0,0,.32031,5.2185V21.8193a4.9802,4.9802,0,0,0,4.98022,4.9802H21.9013a4.98019,4.98019,0,0,0,4.9802-4.9802V5.2185A4.9802,4.9802,0,0,0,21.9013.23828Z" transform="translate(-0.32031 -0.23828)"/><path class="cls-2" d="M9.65376,8.11044V19.0195H7.67756V8.11044Zm2.14,10.90906V8.11044h4.0909a4.59255,4.59255,0,0,1,2.1094.43679,2.98343,2.98343,0,0,1,1.2943,1.22514,3.65294,3.65294,0,0,1,.4422,1.827,3.57133,3.57133,0,0,1-.4475,1.8218,2.95281,2.95281,0,0,1-1.305,1.1878,4.86288,4.86288,0,0,1-2.1201.4155H12.9443V13.3839h2.6474a3.06106,3.06106,0,0,0,1.2038-.2024,1.43236,1.43236,0,0,0,.6925-.602,1.94265,1.94265,0,0,0,.2291-.9801,2.00325,2.00325,0,0,0-.2291-.9907,1.45722,1.45722,0,0,0-.6978-.62859,2.87657,2.87657,0,0,0-1.2091-.21839H13.77V19.0195Zm5.6356-4.9432,2.7007,4.9432H17.9248l-2.6527-4.9432Z" transform="translate(-0.32031 -0.23828)"/></svg>