<svg id="Layer_1" data-name="Layer 1" xmlns="http://www.w3.org/2000/svg" xmlns:xlink="http://www.w3.org/1999/xlink" viewBox="0 0 13.45511 15.61479"><defs><style>.cls-1,.cls-3,.cls-4{fill:none;}.cls-2{clip-path:url(#clip-path);}.cls-3,.cls-4{stroke:#292d32;stroke-linecap:round;stroke-linejoin:round;}.cls-3{stroke-width:1.21499px;}.cls-4{stroke-width:1.07999px;}</style><clipPath id="clip-path" transform="translate(-2.27238 -0.7501)"><rect class="cls-1" y="0.0576" width="18" height="17"/></clipPath></defs><title>newsletter</title><g class="cls-2"><path class="cls-3" d="M2.87988,12.8779V4.95768c0-2.88007.72-3.60008,3.6-3.60008h5.04c2.8801,0,3.6001.72,3.6001,3.60008V12.1578c0,.1008,0,.2016-.0072.3024" transform="translate(-2.27238 -0.7501)"/><path class="cls-3" d="M4.9319,10.7172H15.12v2.5201a2.52285,2.52285,0,0,1-2.52,2.5201H5.3999a2.52286,2.52286,0,0,1-2.52-2.5201v-.468A2.05581,2.05581,0,0,1,4.9319,10.7172Z" transform="translate(-2.27238 -0.7501)"/><path class="cls-4" d="M6.63965,5.18562H11.3591" transform="translate(-2.27238 -0.7501)"/><path class="cls-4" d="M6.63965,7.24974H9.58932" transform="translate(-2.27238 -0.7501)"/></g></svg>