<svg id="Layer_1" data-name="Layer 1" xmlns="http://www.w3.org/2000/svg" xmlns:xlink="http://www.w3.org/1999/xlink" viewBox="0 0 20.98708 21.551"><defs><style>.cls-1{fill:none;}.cls-2{clip-path:url(#clip-path);}.cls-3,.cls-4{fill:#282828;}.cls-3{stroke:#282828;stroke-miterlimit:10;stroke-width:0.2px;}</style><clipPath id="clip-path" transform="translate(-0.07117 -0.0712)"><rect class="cls-1" x="0.1712" y="0.1712" width="20.7871" height="21.351"/></clipPath></defs><title>newsletter</title><g class="cls-2"><path class="cls-3" d="M20.9375,18.2334V8.949c.1208-1.38242-1.4932-2.52814-2.31681-3.41548a.33937.33937,0,0,0-.03689-.0246l-.6514-.65139V2.2882A2.12,2.12,0,0,0,15.8118.1712H5.29835a2.11989,2.11989,0,0,0-2.11773,2.117V4.85973l-.65138.65139a.39255.39255,0,0,0-.03619.02388L.94781,7.07589A2.62642,2.62642,0,0,0,.17121,8.949V18.2334a2.94649,2.94649,0,0,1,0,.723,2.58364,2.58364,0,0,0,2.56935,2.5658H18.3717C20.20649,21.4816,21.1097,19.92479,20.9375,18.2334ZM17.9295,6.389l1.4656,1.45477A1.55037,1.55037,0,0,1,19.8533,8.949v.5949l-1.9238.93ZM4.26627,2.2882A1.0329,1.0329,0,0,1,5.29835,1.25684H15.8118A1.03314,1.03314,0,0,1,16.8439,2.2882v8.7126l-5.5006,2.6584a1.79376,1.79376,0,0,1-1.57864,0L4.2641,11.0008ZM1.25686,8.94683A1.54971,1.54971,0,0,1,1.715,7.84164L3.18062,6.38687v4.087l-1.92376-.93ZM19.854,18.2334c-.0181,1.3527-.4864,2.16689-1.4772,2.2031H2.7384a1.21749,1.21749,0,0,1-.35537-.0492c-.70784-.1903-1.12183-.9633-1.12183-2.1539V10.7519L9.295,14.6363a2.87051,2.87051,0,0,0,2.52524,0l8.0338-3.8844Z" transform="translate(-0.07117 -0.0712)"/><path class="cls-4" d="M14.5758,6.65945a.46983.46983,0,0,0-.4698-.46977H7.00181a.46977.46977,0,1,0,0,.93954H14.106a.46983.46983,0,0,0,.4698-.46977ZM13.1139,9.08664a.4699.4699,0,0,0-.4698-.4698H8.46441a.4698.4698,0,1,0,0,.9396H12.6441a.4699.4699,0,0,0,.4698-.4698ZM8.46441,4.70206c.0463-.00063,4.19719.00063,4.17969,0a.46987.46987,0,0,0,0-.93955H8.46441a.46986.46986,0,0,0,0,.93955Z" transform="translate(-0.07117 -0.0712)"/></g></svg>