<svg id="Layer_1" data-name="Layer 1" xmlns="http://www.w3.org/2000/svg" viewBox="0 0 13.81615 14.66371"><defs><style>.cls-1,.cls-2{fill:none;stroke:#292d32;stroke-width:1.10294px;}.cls-1{stroke-linecap:round;}</style></defs><title>Podcasts</title><path class="cls-1" d="M13.413,12.16707V7.223A6.3566,6.3566,0,0,0,7.05641.86642h0A6.35661,6.35661,0,0,0,.6998,7.223v4.944" transform="translate(-0.14831 -0.31495)"/><path class="cls-2" d="M9.88151,10.54259a1.76578,1.76578,0,0,1,1.7657-1.76577h0A1.76579,1.76579,0,0,1,13.413,10.54259V12.6614a1.76581,1.76581,0,0,1-1.76578,1.76579h0a1.76579,1.76579,0,0,1-1.7657-1.76579Z" transform="translate(-0.14831 -0.31495)"/><path class="cls-2" d="M4.23123,10.54259A1.76575,1.76575,0,0,0,2.46551,8.77682h0A1.76575,1.76575,0,0,0,.69978,10.54259V12.6614a1.76577,1.76577,0,0,0,1.76573,1.76579h0A1.76577,1.76577,0,0,0,4.23123,12.6614Z" transform="translate(-0.14831 -0.31495)"/></svg>