<?xml version="1.0" encoding="utf-8"?>
<!-- Generator: Adobe Illustrator 18.1.1, SVG Export Plug-In . SVG Version: 6.00 Build 0)  -->
<svg version="1.1" id="Layer_1" xmlns="http://www.w3.org/2000/svg" xmlns:xlink="http://www.w3.org/1999/xlink" x="0px" y="0px"
	 viewBox="0 0 100 100" enable-background="new 0 0 100 100" xml:space="preserve">
<g>
	<path fill="#C82E37" d="M13.2,45.8c1.4-0.1,2.7,0.4,3.8,1.3c0.7,0.5,1.3,1.1,1.9,1.7c5.5,5.5,11.1,11,16.5,16.6
		c1,1,1.5,1.1,2.6,0.1c14.6-14.7,29.3-29.3,43.9-44c0.4-0.4,0.9-0.9,1.3-1.3c2.6-2.2,6-2,8.5,0.4c2.4,2.4,2.5,6,0.2,8.5
		c-0.2,0.3-0.5,0.5-0.7,0.7C74.7,46.4,58.1,63,41.5,79.6c-1.1,1.1-2.2,2-3.8,2.2c-2,0.3-3.8-0.2-5.3-1.7
		c-7.9-7.9-15.7-15.7-23.6-23.6c-1.9-1.9-2.5-4.2-1.4-6.8C8.6,47.3,10.5,46,13.2,45.8z"/>
</g>
</svg>
