<?xml version="1.0" encoding="utf-8"?>
<!-- Generator: Adobe Illustrator 18.1.1, SVG Export Plug-In . SVG Version: 6.00 Build 0)  -->
<svg version="1.1" id="Layer_1" xmlns="http://www.w3.org/2000/svg" xmlns:xlink="http://www.w3.org/1999/xlink" x="0px" y="0px"
	 viewBox="0 0 100 100" enable-background="new 0 0 100 100" xml:space="preserve">
<rect x="-8.8" y="3" fill="#FFFFFF" width="117.5" height="94"/>
<path fill="#EDF2FA" d="M89.9,54.8c0,12.2-5.6,23.2-14.4,30.3H26.2c-4.5-3.6-8.1-8.2-10.6-13.5c-2.4-5.1-3.8-10.8-3.8-16.9
	c0-0.7,0-1.5,0.1-2.2c1.1-19.9,17.1-35.8,37-36.8c0.7,0,1.3-0.1,2-0.1c6.1,0,11.9,1.4,17.1,3.9C81,26,89.9,39.3,89.9,54.8z"/>
<g>
	<path fill="#C5D7EF" d="M26.4,84.5c0.6,0.2-1.1-10.2-0.5-16.2c0.5-6-7.5-10.8-9.2-8.6c-1.7,2.2-5.1-18.5-10.1-14.1
		S5.9,59.3,9.8,62.9c3.9,3.6,4.3,5,1.9,4.7C9.4,67.4,2.3,75.2,26.4,84.5z"/>
	<path fill="#92A7D2" d="M8.1,50c0.5,1.4,1,2.8,1.6,4.1c0.6,1.4,1.1,2.7,1.7,4.1c0.3,0.7,0.6,1.4,0.9,2c0.2,0.3,0.3,0.7,0.5,1l0.5,1
		c0.3,0.7,0.6,1.3,1,2c0.3,0.7,0.7,1.3,1,2l1,2l0.3,0.5l0.3,0.5l0.5,1l0.5,1c0.2,0.3,0.4,0.6,0.6,1c0.4,0.6,0.7,1.3,1.1,1.9
		c1.5,2.5,3.2,5,4.9,7.4c-1.6-2.5-3.1-5.1-4.6-7.6l-1.1-1.9c-0.2-0.3-0.4-0.6-0.5-1l-0.5-1l-0.5-1L17,68.5L16.7,68l-1-2
		c-0.7-1.3-1.3-2.6-2-4l-0.5-1c-0.2-0.3-0.3-0.7-0.5-1l-0.5-1c-0.2-0.3-0.3-0.7-0.5-1C10.5,55.3,9.3,52.7,8.1,50z"/>
</g>
<path opacity="0.18" fill="#223F84" d="M79.6,82.6H37.1c-2.8,0-5-2.2-5-5v-47c0-1.5,1.2-2.7,2.7-2.7h37.1c1.5,0,2.7,1.2,2.7,2.7v47
	C74.6,80.3,76.9,82.6,79.6,82.6z"/>
<ellipse fill="#D8E4F4" cx="49.5" cy="84.8" rx="38.5" ry="2"/>
<path fill="#C92E38" d="M82.2,46V79c0,1.4-0.6,2.6-1.5,3.5c-0.6,0.6-1.4,1.1-2.3,1.3C78,84,77.6,84,77.2,84c-2.8,0-5-2.3-5-5.1V43.9
	h7.9C81.2,43.9,82.2,44.8,82.2,46z"/>
<path opacity="0.18" fill="#223F84" d="M78.4,83.9C78,84,77.6,84,77.2,84c-2.8,0-5-2.3-5-5.1V43.9h2.5V79
	C74.6,81.4,76.2,83.3,78.4,83.9z"/>
<path fill="#FFFFFF" d="M77.2,84H34.6c-2.8,0-5-2.2-5-5v-47c0-1.5,1.2-2.7,2.7-2.7h37.1c1.5,0,2.7,1.2,2.7,2.7v47
	C72.2,81.8,74.4,84,77.2,84z"/>
<path fill="#C92E38" d="M63.7,45.7H38.1c-3,0-5.4-2.4-5.4-5.4v-1.9c0-3,2.4-5.4,5.4-5.4h25.6c3,0,5.4,2.4,5.4,5.4v1.9
	C69.1,43.2,66.7,45.7,63.7,45.7z"/>
<g>
	<path fill="#FFFFFF" d="M43.2,36v6.6h-1.3l-2.6-4.5c0,0.1,0,0.2,0,0.2c0,0.1,0,0.2,0,0.3v3.9h-1.2V36h1.7l2.2,3.9
		c0-0.2,0-0.3,0-0.4V36H43.2z"/>
	<path fill="#FFFFFF" d="M49.3,37.2h-3.1v1.4h2.5v1.2h-2.5v1.4h3.1v1.3h-4.7V36h4.7V37.2z"/>
	<path fill="#FFFFFF" d="M58.1,36l-1.7,6.6H55l-1.1-4.4l-1,4.4h-1.5L49.6,36h1.6l0.9,4c0,0,0,0.1,0.1,0.2c0,0,0,0.1,0.1,0.2l1.1-4.4
		h1.4l1.1,4.4c0-0.1,0.1-0.2,0.1-0.4l0.9-4H58.1z"/>
	<path fill="#FFFFFF" d="M63.4,37.4l-1.3,0.4c-0.2-0.5-0.6-0.8-1.1-0.8c-0.6,0-0.9,0.2-0.9,0.6c0,0.2,0.1,0.3,0.2,0.4
		c0.1,0.1,0.4,0.2,0.8,0.3c0.7,0.1,1.2,0.3,1.5,0.4c0.3,0.1,0.6,0.4,0.8,0.7c0.2,0.3,0.3,0.7,0.3,1c0,0.6-0.2,1.1-0.7,1.5
		c-0.5,0.4-1.1,0.7-2,0.7c-0.7,0-1.3-0.2-1.7-0.5c-0.5-0.3-0.8-0.8-0.9-1.4l1.4-0.3c0.2,0.6,0.6,0.9,1.3,0.9c0.4,0,0.6-0.1,0.8-0.2
		c0.2-0.1,0.3-0.3,0.3-0.5c0-0.2-0.1-0.3-0.2-0.4c-0.2-0.1-0.5-0.2-0.9-0.3c-0.8-0.2-1.4-0.4-1.8-0.7c-0.4-0.3-0.5-0.7-0.5-1.3
		c0-0.6,0.2-1.1,0.6-1.5c0.4-0.4,1-0.6,1.7-0.6C62.2,35.9,63,36.4,63.4,37.4z"/>
</g>
<g>
	<path fill="#EDF2FA" d="M69.1,48.6v10.9c0,0.2-0.2,0.4-0.4,0.4H57.8c-0.2,0-0.4-0.2-0.4-0.4V48.6c0-0.2,0.2-0.4,0.4-0.4h10.9
		C68.9,48.2,69.1,48.4,69.1,48.6z"/>
	<path fill="#C5D7EF" d="M69.1,54.1v5.4c0,0.2-0.2,0.4-0.4,0.4H57.8c-0.2,0-0.4-0.2-0.4-0.4v-0.9l3.5-3.3c0.4-0.4,1-0.4,1.4,0
		l0.5,0.4c0.3,0.2,0.7,0.2,0.9-0.1l2.1-2.9c0.4-0.5,1-0.6,1.5-0.2L69.1,54.1z"/>
	<path fill="#FFFFFF" d="M63.5,50.9c0.7,1.4-0.6,2.7-2,2c-0.2-0.1-0.3-0.2-0.4-0.4c-0.7-1.4,0.6-2.7,2-2
		C63.2,50.6,63.4,50.7,63.5,50.9z"/>
</g>
<path fill="#43C0BA" d="M42.6,49.9h-8.8c-0.5,0-0.9-0.4-0.9-0.9v-0.3c0-0.5,0.4-0.9,0.9-0.9h8.8c0.5,0,0.9,0.4,0.9,0.9v0.3
	C43.4,49.5,43,49.9,42.6,49.9z"/>
<path fill="#43C0BA" d="M54,63.9h-8.8c-0.5,0-0.9-0.4-0.9-0.9v-0.3c0-0.5,0.4-0.9,0.9-0.9H54c0.5,0,0.9,0.4,0.9,0.9V63
	C54.9,63.5,54.5,63.9,54,63.9z"/>
<path fill="#E4ECF8" d="M55.2,53.4H33.8c-0.5,0-0.9-0.4-0.9-0.9v-0.3c0-0.5,0.4-0.9,0.9-0.9h21.4c0.5,0,0.9,0.4,0.9,0.9v0.3
	C56,53,55.6,53.4,55.2,53.4z"/>
<path fill="#E4ECF8" d="M55.2,56.8H33.8c-0.5,0-0.9-0.4-0.9-0.9v-0.3c0-0.5,0.4-0.9,0.9-0.9h21.4c0.5,0,0.9,0.4,0.9,0.9V56
	C56,56.4,55.6,56.8,55.2,56.8z"/>
<path fill="#E4ECF8" d="M55.2,60.3H33.8c-0.5,0-0.9-0.4-0.9-0.9v-0.3c0-0.5,0.4-0.9,0.9-0.9h21.4c0.5,0,0.9,0.4,0.9,0.9v0.3
	C56,59.9,55.6,60.3,55.2,60.3z"/>
<path fill="#E4ECF8" d="M60.8,67.1H45.2c-0.5,0-0.9-0.4-0.9-0.9V66c0-0.5,0.4-0.9,0.9-0.9h15.6c0.5,0,0.9,0.4,0.9,0.9v0.3
	C61.7,66.7,61.3,67.1,60.8,67.1z"/>
<path fill="#E4ECF8" d="M67.7,75.2H33.8c-0.5,0-0.9-0.4-0.9-0.9V74c0-0.5,0.4-0.9,0.9-0.9h33.9c0.5,0,0.9,0.4,0.9,0.9v0.3
	C68.6,74.8,68.2,75.2,67.7,75.2z"/>
<path fill="#E4ECF8" d="M67.7,79.1H33.8c-0.5,0-0.9-0.4-0.9-0.9v-0.3c0-0.5,0.4-0.9,0.9-0.9h33.9c0.5,0,0.9,0.4,0.9,0.9v0.3
	C68.6,78.7,68.2,79.1,67.7,79.1z"/>
<path fill="#E4ECF8" d="M67.7,70.6H45.2c-0.5,0-0.9-0.4-0.9-0.9v-0.3c0-0.5,0.4-0.9,0.9-0.9h22.5c0.5,0,0.9,0.4,0.9,0.9v0.3
	C68.6,70.2,68.2,70.6,67.7,70.6z"/>
<g>
	<path fill="#EDF2FA" d="M39.3,71.3h-2c-2.3,0-4.1-1.8-4.1-4.1v-1.4c0-2.3,1.8-4.1,4.1-4.1h2c2.3,0,4.1,1.8,4.1,4.1v1.4
		C43.3,69.4,41.5,71.3,39.3,71.3z"/>
	<g>
		<path fill="#C5D7EF" d="M41.2,70.2C41.2,70.2,41.2,70.2,41.2,70.2c0-1.8-1.3-3.3-2.9-3.3c-1.6,0-2.9,1.4-2.9,3.2c0,0,0,0,0,0.1
			H41.2z"/>
		<ellipse opacity="0.22" fill="#223F84" cx="38.3" cy="66.1" rx="1.2" ry="2.3"/>
		<ellipse fill="#C5D7EF" cx="38.3" cy="65.4" rx="1.8" ry="2.2"/>
	</g>
</g>
<g>
	<path fill="#F4B544" d="M40.3,72l-4,1.2L30.8,75l-3,0.9c-0.6,0.2-0.9,0.7-0.8,1.3l1.6,7.6c0.1,0.5,0.6,0.9,1.2,0.8l3.1-0.3l5.8-0.6
		l4.1-0.4L40.3,72z"/>
	<polygon fill="#FFD066" points="36.4,73.2 30.8,75 33,85.3 38.7,84.7 	"/>
	<g>
		<path fill="#FFFFFF" d="M34.1,79.5c0.1,0,0.1,0.1,0.2,0.1c0.1,0,0.1,0.1,0.2,0.2c0.3,0.2,0.8,0.3,1.2,0.3c0.2,0,0.4-0.1,0.6-0.1
			c0.1,0,0.1,0,0.2-0.1c0.1,0,0.2,0,0.2,0.1c0,0,0,0,0,0c-0.2,0.7-1.2,1.1-2.2,1c-1-0.1-1.7-0.7-1.8-1.4c0-0.2,0.1-0.3,0.3-0.3
			c0,0,0.1,0,0.1,0c0.2,0,0.4,0,0.5,0.1C33.8,79.4,34,79.4,34.1,79.5z"/>
		<path fill="#FFFFFF" d="M36.7,79.3c0,0.2-0.1,0.3-0.3,0.4c-0.1,0-0.1,0-0.2,0c-0.2,0-0.4,0-0.5,0c-0.3,0-0.7-0.1-1-0.3
			c-0.1,0-0.1-0.1-0.2-0.1c-0.1,0-0.2-0.1-0.3-0.1c-0.2-0.1-0.4-0.1-0.6-0.1c-0.2,0-0.4,0-0.6,0c0,0,0,0-0.1,0
			c-0.1,0-0.2-0.1-0.1-0.2c0.3-0.6,1.2-0.9,2.1-0.8C35.9,78.2,36.5,78.7,36.7,79.3z"/>
	</g>
	<path fill="#F4B544" d="M40.9,70.4l-1,0.2c-0.4,0.1-0.7,0.5-0.6,0.8l2.8,13.7c0.1,0.4,0.5,0.6,0.9,0.5l1-0.2c0,0,0,0,0,0
		c0.4-0.1,0.6-0.5,0.5-0.8l-2.8-13.7C41.7,70.6,41.3,70.4,40.9,70.4C40.9,70.4,40.9,70.4,40.9,70.4z"/>
	<polygon fill="#E69E29" points="42,84.3 39.7,84.6 38.7,72.5 39.5,72.3 	"/>
</g>
<path opacity="0.22" fill="#223F84" d="M71.4,76.2c-2,0-4.1,1.3-5.2,3.1c-0.8-0.7-2.2-0.7-3.6,0c0.1-1.8-1.1-3.1-3-3.1
	c-0.7,0-1.5,0.2-2.2,0.5c-1.6,0.7-3.1,2.2-3.7,3.8c-0.8,2.2,0.2,4.1,2.3,4.3c0.2,0,0.3,0,0.5,0c0.8,0,1.6-0.2,2.4-0.6
	c0.2-0.1,0.4-0.2,0.6-0.3c0.2-0.1,0.4-0.3,0.6-0.4c0.9-0.7,1.6-1.5,2.1-2.5l1.6,0l1.7,0c-0.2,1-0.1,1.8,0.3,2.5
	c0.1,0.2,0.2,0.3,0.3,0.4c0.1,0.1,0.2,0.2,0.4,0.3c0.5,0.4,1.2,0.6,2,0.6c2.4,0,5-1.9,5.9-4.3C75,78.1,73.8,76.2,71.4,76.2z
	 M57.2,77.7c0.6-0.3,1.3-0.5,2-0.5c1.7,0,2.6,1.2,2.3,2.8l0,0c0,0,0,0,0,0l-3.6,0l-1,0l-1.9,0C55.4,79,56.2,78.2,57.2,77.7z
	 M60,82.5c-0.2,0.2-0.5,0.4-0.8,0.6c-0.7,0.5-1.6,0.8-2.4,0.8c-0.2,0-0.5,0-0.7-0.1c-1.3-0.3-1.9-1.4-1.6-2.8l1,0
	c-0.2,0.2-0.4,0.5-0.5,0.8c-0.1,0.3,0,0.5,0.3,0.5c0.3,0,0.6-0.2,0.7-0.5c0.1-0.2,0.3-0.4,0.5-0.5C57,81,57.4,81,57.5,81l3.6,0
	C60.8,81.5,60.4,82,60,82.5z M63,80c0.4-0.2,0.8-0.3,1.2-0.3c0.4,0,0.7,0.1,1,0.3L63,80z M66.8,80C66.8,80,66.8,80,66.8,80
	c0.8-1.6,2.6-2.8,4.3-2.8c1.7,0,2.6,1.2,2.3,2.8l-3,0L66.8,80C66.8,80,66.8,80,66.8,80z M68.7,83.8c-0.8,0-1.4-0.3-1.8-0.8
	c-0.2-0.2-0.3-0.4-0.4-0.6c-0.2-0.4-0.2-0.9-0.1-1.5l3.5,0c0.1,0,1.1,0.1,0.9,0.8c-0.1,0.3,0,0.5,0.3,0.5c0.3,0,0.6-0.2,0.7-0.5
	c0.1-0.3,0.1-0.6,0.1-0.8l1.1,0C72.2,82.6,70.3,83.8,68.7,83.8z"/>
<path opacity="0.18" fill="#223F84" d="M84.3,33.3l-1.3,2c-1.6,2.5,0.1,5.8,3.1,6l2.4,0.1c3,0.1,5-3,3.6-5.7L91,33.6
	C89.6,31,85.9,30.8,84.3,33.3z"/>
<path fill="#D3575F" d="M82.4,31.4L81,33.3c-1.7,2.4-0.2,5.8,2.8,6.1l2.4,0.2c3,0.3,5.2-2.8,3.9-5.5l-1-2.2
	C87.8,29.3,84.1,29,82.4,31.4z"/>
<path opacity="0.22" fill="#223F84" d="M32.3,60.4c0-1.6-0.2-2.8-0.4-3.6c0,0,0-0.1,0.1-0.1l0,0c0.1-0.1,0.2-0.2,0.2-0.3
	c0.2-0.6,0.2-1.4,0-2.3c-0.3-1.4-0.8-1.8-1.1-2.4c0,0,0,0,0,0c-0.2-0.4-0.3-1-0.4-1.4c0-0.7-0.6-1.5-1.3-1.6
	c-0.7-0.1-1.4-1.6-2.9-1.3c0,0-0.1,0-0.1,0c-1.3,0.4-2.2,1.6-2,2.2c0,0,0,0.2,0.1,0.4c-0.1,0.6-0.1,1.8,0.4,2.7
	c0.7,1.2-0.5,1.6-0.4,1.9c-0.6,0-2.2,0.2-2.8,1.1c-0.8,1.1-5.1,8.1-2.3,8.4c0,0,1.3,0.4,2.6-1.9c0,0.2-0.1,0.4-0.1,0.7
	c-0.2,1.1-0.5,2-0.5,2c0,0,0.1,0,0.1,0c-1.5,2.9,0.7,8.7,0.7,8.7c0,0.8,0,1.7,0,2.5c-0.1,0.1-0.2,0.2-0.4,0.3
	c-1.8,1.7-3.2,3.6-3.2,3.6l0,0c0,0,0,0,0,0c-1.2,0.5-1.7,1.5-1.7,1.5s0.9,2.1,1.3,2.7c0,0.1,0.1,0.1,0.1,0.2c0,0,0.2,0.1,0.3,0.1
	c0,0,0,0,0,0c0.7,0.2,2.3,0.4,2.3-0.1c0-0.3,0-0.4-0.2-0.6l0.1,0c0,0-0.1,0-0.1,0c-0.1-0.1-0.2-0.1-0.4-0.2l0.2-0.1
	c-0.1,0-0.1,0-0.2,0c-0.1-0.1-0.2-0.1-0.3-0.2c0,0,0,0,0,0l0.1-0.1c-0.1,0-0.1,0-0.2,0c-0.4-0.4-0.3-1.5-0.2-2l1.9-1.5l0.7-0.5
	c0.1,1.8,0.2,3,0.2,3h0.1c0,0.1-0.1,0.1-0.1,0.2c-0.1,0.7-1.1,1.3-0.7,1.8c0.4,0.5,2.3,0.1,2.5,0c0.1-0.1,0.2-0.3,0.2-0.7
	c0-0.3,0-0.9-0.2-1.2h0l0.4-4.8l3.4-2.5c1-3.5,1.2-7.5,1.3-9.8c0.1,0,0.1,0,0.1,0l0.1-1.3l0-0.4c0.3,0.6,0.9,1.1,1.9,1
	C31.3,64.7,32.4,64.5,32.3,60.4z M29.2,54.5c-0.7-0.1-1-0.6-1.1-1c-0.1-0.2-0.1-0.5-0.1-0.6c0.1-0.1,0.1-0.2,0.2-0.3c0,0,0,0,0,0
	c0,0,0,0,0,0c0,0,0,0.1,0,0.1c0,0,0,0.1,0,0.1c0,0.5,0.2,1,0.5,1.3C28.9,54.3,29,54.4,29.2,54.5z M24.9,74.2l0.2-2.3l0.2,2.1
	C25.1,74.1,25,74.1,24.9,74.2z"/>
<g>
	<path fill="#1A325E" d="M18.3,80.1l1.1,1.4l1.9-1.5l1.6-1.3l4.5-3.5c1.2-5.3,0.6-11.7,0.6-11.7l-4.3-0.1l-0.2,3l0.3,1.9l0.9,5.8
		c-0.7,0.3-1.5,0.8-2.2,1.4c-0.4,0.3-0.8,0.7-1.1,1.1C19.6,78.2,18.3,80.1,18.3,80.1z"/>
	<path fill="#062642" d="M21.3,76.5V80l1.6-1.3l-0.5-3.3C22,75.7,21.6,76.1,21.3,76.5z"/>
	<polygon fill="#062642" points="23.7,68.3 24.6,74 24.4,67.6 	"/>
	<path fill="#1E3B6F" d="M24.6,63.3c0,0,0.3,2-0.3,4.3L24,82.5h-1.7c0,0-0.7-5.1-0.8-8.9c0,0-2.6-6-1.1-8.9l0.4-1.6L24.6,63.3z"/>
	<g>
		<path fill="#F4B544" d="M23.4,82.1c0,0-1.1-0.1-1.1,0.6c-0.1,0.7-1,1.3-0.6,1.8c0.4,0.5,2.3,0.1,2.5,0c0.1-0.1,0.2-0.3,0.1-0.7
			C24.3,83.3,24.2,82.1,23.4,82.1z"/>
		<path fill="#1A325E" d="M23.8,83.3C23.9,83.3,23.9,83.3,23.8,83.3c0.1-0.1,0.1-0.1,0-0.1c0,0-0.7-0.4-1.4-0.1c0,0,0,0.1,0,0.1
			c0,0,0.1,0,0.1,0C23.1,82.9,23.8,83.3,23.8,83.3C23.8,83.3,23.8,83.3,23.8,83.3z"/>
		<path fill="#1A325E" d="M23.7,83.7C23.8,83.7,23.8,83.7,23.7,83.7c0.1-0.1,0.1-0.1,0-0.1c0,0-0.7-0.4-1.4-0.1c0,0,0,0.1,0,0.1
			c0,0,0.1,0,0.1,0C23.1,83.3,23.7,83.7,23.7,83.7C23.7,83.7,23.7,83.7,23.7,83.7z"/>
		<path fill="#1A325E" d="M23.6,84.1C23.7,84.1,23.7,84,23.6,84.1c0.1-0.1,0.1-0.1,0-0.1c0,0-0.7-0.4-1.4-0.1c0,0,0,0.1,0,0.1
			c0,0,0.1,0,0.1,0C22.9,83.7,23.6,84,23.6,84.1C23.6,84.1,23.6,84.1,23.6,84.1z"/>
	</g>
	<path fill="#F4B544" d="M16.7,81.6c0,0,1,2.1,1.4,2.7c0,0.1,0.1,0.1,0.1,0.2c0,0,0.2,0.1,0.3,0.1c0,0,0,0,0,0
		c0.7,0.2,2.3,0.4,2.3-0.1c0.1-0.6-0.4-0.6-1-1c-0.5-0.3-0.5-1.7-0.4-2.2c0-0.1,0-0.2-0.1-0.2l-0.8-0.9c-0.1-0.1-0.2-0.1-0.3-0.1
		C17.1,80.6,16.7,81.6,16.7,81.6z"/>
	<path fill="#1A325E" d="M19.9,84.3C19.9,84.3,19.9,84.3,19.9,84.3c-0.1-0.1-0.1-0.1,0-0.1c0,0,0.4-0.3,0.8-0.4c0,0,0.1,0,0.1,0.1
		c0,0,0,0.1-0.1,0.1C20.3,84,20,84.3,19.9,84.3C20,84.3,19.9,84.3,19.9,84.3z"/>
	<path fill="#1A325E" d="M19.7,84C19.7,84,19.7,84,19.7,84c-0.1-0.1-0.1-0.1,0-0.1c0,0,0.3-0.2,0.7-0.3c0,0,0.1,0,0.1,0.1
		c0,0,0,0.1-0.1,0.1C20,83.8,19.8,84,19.7,84C19.7,84,19.7,84,19.7,84z"/>
	<path fill="#1A325E" d="M19.4,83.7C19.4,83.7,19.4,83.7,19.4,83.7c-0.1,0-0.1-0.1-0.1-0.1c0,0,0.2-0.2,0.6-0.2c0,0,0.1,0,0.1,0.1
		c0,0,0,0.1-0.1,0.1C19.7,83.5,19.5,83.7,19.4,83.7C19.4,83.7,19.4,83.7,19.4,83.7z"/>
	<path fill="#F4B544" d="M20.2,64.9c4.8,0.9,8,0.5,8,0.5v-2.3l-0.1-1.4l-7.4-0.2c0,0.5,0,1-0.1,1.4C20.4,64,20.2,64.9,20.2,64.9z"/>
	<path fill="#E69E29" d="M20.6,62.9l0.3-0.6c0.8,0.9,3.3,1.7,3.3,1.7c1,0,3.1-1,3.1-1c0.2,0.4,0.6,0.9,0.9,1.1v-1l-0.1-1.4l-7.4-0.2
		C20.7,62,20.6,62.5,20.6,62.9z"/>
	<path fill="#1A325E" d="M23.9,55.2c-0.6,0.1-0.8,0-1-0.2c-0.1-0.1-0.1-0.1-0.2-0.2c-0.3-0.3,1.1-0.7,0.3-1.9
		c-0.8-1.3-0.6-3-0.5-3.1c0.4-0.2,1.7,1.5,2.6,2.7c0.3,0.5,0.6,0.9,0.7,1.1C26.2,54.5,24.7,55,23.9,55.2z"/>
	<path fill="#FCC8AB" d="M23.2,55.8c1.8,0.9,5.9-1.2,4.4-1.2c-0.8,0-1.1-0.5-1.3-1c-0.1-0.4-0.1-0.8-0.1-0.8L25,53.2
		c0,0.6-0.4,1-0.8,1.1c-0.3,0.2-0.7,0.2-0.7,0.2S21.5,54.9,23.2,55.8z"/>
	<path fill="#F4B544" d="M23,54.7c0,0-2.3-0.1-3.1,1.1c-0.8,1.1-4.6,8.1-1.8,8.4c0,0,1.4,0.5,2.7-2.2l6.8,0.4c0,0,0.5,2.7,2.5,2.4
		c0,0,1.1-0.2,0.8-4.3c-0.3-4.1-1.1-5.4-3-5.8C27.9,54.6,24.3,56.3,23,54.7z"/>
	<path fill="#E69E29" d="M20,61c0,0-0.9,0.2-1.5,0.5c0,0-0.1,0-0.1,0l0,0c0,0,0-0.1,0-0.1l1.9-1L20,61z"/>
	<path fill="#FFFFFF" d="M28.4,58.1v-0.4c0,0-1.8,1.6-3.9,1.5s-3.9-1.6-3.9-1.6v0.8c0,0,1.4,1.3,3.9,1.5
		C27,60.1,28.4,58.1,28.4,58.1z"/>
	<path fill="#E69E29" d="M28.6,61.6c0,0,0.3,0.1,0.6,0.2l-1-2.5l0.1,2.2L28.6,61.6z"/>
	<path fill="#1E3B6F" d="M20.2,61.3c0,0,2.1,1.9,4,2.5c0,0,0.1,0,0.1,0c0,0,0.2-0.1,0.4-0.1c0.9-0.3,3.2-1.4,3.7-2.1l0.1-3.5
		c0,0-2.2,1.5-3.8,1.4c-0.1,0-0.2,0-0.3,0c0,0-0.1,0-0.3,0c-0.6-0.1-2.4-0.5-3.9-1.4L20.2,61.3z"/>
	<path fill="#FFFFFF" d="M24.2,59.4v4.4c0,0,0.1,0,0.1,0c0,0,0.2-0.1,0.4-0.1v-4.2c-0.1,0-0.2,0-0.3,0
		C24.4,59.5,24.4,59.5,24.2,59.4z"/>
	<path fill="#EFA47D" d="M24.2,54.4c1.3,0.1,1.9-0.4,2.1-0.8c-0.1-0.4-0.1-0.8-0.1-0.8L25,53.2C25,53.8,24.5,54.2,24.2,54.4z"/>
	<path fill="#1E3B6F" d="M30.5,56.4c0,0.1-0.1,0.2-0.2,0.3l0,0c-0.1,0.1-0.1,0.1-0.2,0.2c0,0.1-0.1,0.1-0.1,0.2
		c-0.6,0.9-1.7-0.5-1.8-1.2c-0.1-0.8-0.9-1.3-1.3-1.7c-0.3-0.3-0.5-0.8-0.6-1.3c0,0,0-0.1,0-0.1c0-0.2,0-0.5,0.1-0.6
		c0,0,0.1-0.1,0.1-0.1c0.3-0.3,0.3-0.9,0.1-1c-0.1,0-0.1-0.1-0.2,0c0,0-0.1,0-0.1,0c-0.1,0-0.2,0-0.2,0c-0.1,0-0.1,0-0.2,0
		c-0.1,0-0.1-0.1-0.2-0.1c-0.1,0-0.3-0.1-0.5-0.1c-0.7,0-0.5,0.8-1.3,0.7c0,0,0,0,0,0c-0.1,0-0.2-0.1-0.4-0.1
		c-0.1,0-0.1-0.1-0.2-0.1c-0.8-0.4-0.9-1.5-0.9-1.5c-0.2-0.6,0.6-1.9,1.9-2.2c0,0,0.1,0,0.1,0c1.5-0.3,2.3,1.1,3,1.3
		c0.7,0.1,1.3,0.9,1.4,1.6c0,0.4,0.2,0.9,0.4,1.4c0,0,0,0,0,0c0.3,0.6,0.8,1,1.2,2.4C30.7,55,30.6,55.8,30.5,56.4z"/>
	<path fill="#FCC8AB" d="M27.1,51.4c0,0.4-0.2,0.8-0.5,0.8c0,0,0,0,0,0c-0.2,0.8-0.8,1.3-1.5,1.3c-0.1,0-0.3,0-0.4,0
		c-0.7-0.2-1.3-1-1.3-1.9c0-0.3,0-0.5,0.1-0.8c0.2-0.7,0.8-1.3,1.5-1.3c0.7,0,1.3,0.5,1.6,1.2c0,0,0,0,0,0
		C26.8,50.7,27,51,27.1,51.4z"/>
	<path opacity="0.37" fill="#F26A37" d="M24.6,53.5c-0.7-0.2-1.3-1-1.3-1.9c0-0.3,0-0.5,0.1-0.8l0.3,0
		C23.7,50.9,23.2,52.4,24.6,53.5z"/>
	<path fill="#1E3B6F" d="M23.1,50.9c0,0,0.4,0.6,0.8,0.5c0.5-0.1,0.6-0.3,0.8-0.5c0.2-0.3,0.8-0.2,0.9,0s0.6,0.3,0.8,0.1
		c0.2-0.2,0.5,0.6,0.1,1c-0.2,0.2-0.3,0.5-0.2,0.7c0,0.2,0.2,0.2,0.2,0.2c0.1,0.1,0.5-0.4,0.4-0.6s0.2-1,0.2-1.1
		c0-0.1-0.3-0.7-0.4-0.8c-0.1-0.1-0.8-0.9-1-1c-0.2-0.1-0.8-0.3-1-0.3s-0.8,0.2-1,0.3C23.8,49.5,23.1,50.9,23.1,50.9z"/>
	<path fill="#FCC8AB" d="M20.8,61.9c0,0,1.4-0.4,1-1.6c-0.4-1.1-1.2-0.1-1.2,0.3c0,0-0.5-1-0.6-0.5c-0.1,0.5,0.1,0.7-0.2,0.8
		L20.8,61.9z"/>
	<path fill="#FCC8AB" d="M27.6,62.3c0,0-1.3-0.5-0.9-1.6c0.5-1.1,1.2,0,1.2,0.4c0,0,0.6-1,0.6-0.4c0,0.6-0.3,0.7,0,0.9L27.6,62.3z"
		/>
</g>
<polygon opacity="0.18" fill="#223F84" points="41.9,71.3 47.4,84 44.5,84 "/>
<path fill="#36598F" d="M68.5,76.2c-2,0-3.6,1.3-4.1,3.1c-1.1-0.7-2.5-0.7-3.6,0c-0.5-1.8-2.2-3.1-4.1-3.1c-0.7,0-1.4,0.2-2,0.5
	c-1.4,0.7-2.3,2.2-2.3,3.8c0,2.2,1.7,4.1,3.8,4.3c0.2,0,0.3,0,0.5,0c0.8,0,1.5-0.2,2.2-0.6c0.2-0.1,0.3-0.2,0.5-0.3
	c0.2-0.1,0.3-0.3,0.5-0.4c0.6-0.7,1.1-1.5,1.2-2.5l1.6,0l1.7,0c0.1,1,0.5,1.8,1.2,2.5c0.1,0.2,0.3,0.3,0.5,0.4
	c0.1,0.1,0.3,0.2,0.5,0.3c0.6,0.4,1.4,0.6,2.2,0.6c2.4,0,4.3-1.9,4.3-4.3C72.8,78.1,70.9,76.2,68.5,76.2z M54.8,77.7
	c0.5-0.3,1.1-0.5,1.8-0.5c1.7,0,3,1.2,3.3,2.8l0,0c0,0,0,0,0,0l-3.6,0l-1,0l-1.9,0C53.5,79,54,78.2,54.8,77.7z M59.3,82.5
	c-0.2,0.2-0.4,0.4-0.6,0.6c-0.6,0.5-1.3,0.8-2.1,0.8c-0.2,0-0.5,0-0.7-0.1c-1.4-0.3-2.4-1.4-2.6-2.8l1,0c-0.1,0.2-0.2,0.5-0.2,0.8
	c0,0.3,0.2,0.5,0.5,0.5c0.3,0,0.5-0.2,0.5-0.5c0-0.2,0.1-0.4,0.3-0.5c0.3-0.2,0.8-0.2,0.8-0.3l3.6,0C59.8,81.5,59.6,82,59.3,82.5z
	 M61.4,80c0.4-0.2,0.7-0.3,1.1-0.3c0.4,0,0.8,0.1,1.1,0.3L61.4,80z M65.2,80C65.2,80,65.2,80,65.2,80c0.2-1.6,1.6-2.8,3.3-2.8
	c1.7,0,3.1,1.2,3.3,2.8l-3,0L65.2,80C65.2,80,65.2,80,65.2,80z M68.5,83.8c-0.8,0-1.5-0.3-2.1-0.8c-0.2-0.2-0.4-0.4-0.6-0.6
	c-0.3-0.4-0.5-0.9-0.6-1.5l3.5,0c0.1,0,1.2,0.1,1.2,0.8c0,0.3,0.2,0.5,0.5,0.5c0.3,0,0.5-0.2,0.5-0.5c0-0.3-0.1-0.6-0.2-0.8l1.1,0
	C71.5,82.6,70.2,83.8,68.5,83.8z"/>
<path fill="#C5D7EF" d="M37.8,17.5c1.6,3.2-1.6,6.3-4.8,4.8c-0.5-0.2-1.1-0.9-1.3-1.3c-1.6-3.2,1.6-6.3,4.8-4.8
	C36.9,16.4,37.5,17,37.8,17.5z"/>
<path fill="#C5D7EF" d="M93.2,73.3c0.8,1.8-0.9,3.4-2.7,2.7c-0.4-0.2-0.7-0.5-0.9-0.9c-0.8-1.8,0.9-3.4,2.7-2.7
	C92.7,72.6,93,72.9,93.2,73.3z"/>
<path fill="#FFFFFF" d="M24.1,40.4c0.8,1.8-0.9,3.4-2.7,2.7c-0.4-0.2-0.7-0.5-0.9-0.9c-0.8-1.8,0.9-3.4,2.7-2.7
	C23.7,39.6,24,40,24.1,40.4z"/>
</svg>
