<svg id="Layer_1" data-name="Layer 1" xmlns="http://www.w3.org/2000/svg" viewBox="0 0 17.12507 17.05191"><defs><style>.cls-1{fill:#e21b22;}</style></defs><title>premium</title><path class="cls-1" d="M15.1381,19.4291H6.514a.6468.6468,0,1,1,0-1.2936h8.6241a.6468.6468,0,1,1,0,1.2936Z" transform="translate(-2.26074 -2.3772)"/><path class="cls-1" d="M18.0272,5.21669l-3.4496,2.4665a.86817.86817,0,0,1-1.3109-.39671L11.6368,2.93992a.85909.85909,0,0,0-1.6127,0L8.38547,7.27785a.85022.85022,0,0,1-1.30224.39671L3.63358,5.20806a.8691.8691,0,0,0-1.31949,1.0004L5.90172,16.2556a.85575.85575,0,0,0,.81067.5692H14.9312a.86751.86751,0,0,0,.8106-.5692L19.3295,6.20846A.85517.85517,0,0,0,18.0272,5.21669ZM12.9821,13.1768h-4.312a.64685.64685,0,0,1,0-1.2937h4.312a.64685.64685,0,0,1,0,1.2937Z" transform="translate(-2.26074 -2.3772)"/></svg>