<svg id="Layer_1" data-name="Layer 1" xmlns="http://www.w3.org/2000/svg" viewBox="0 0 16.98201 11.93297"><defs><style>.cls-1{fill:#fff;}</style></defs><title>youtube</title><path class="cls-1" d="M17.55044,5.48178a6.55708,6.55708,0,0,0-.702-3.186,2.25255,2.25255,0,0,0-1.32684-.77142,60.44515,60.44515,0,0,0-6.45681-.23914,60.51984,60.51984,0,0,0-6.43367.23142,2.214,2.214,0,0,0-1.12627.57086,3.97992,3.97992,0,0,0-.84857,2.6614,37.25337,37.25337,0,0,0,0,4.99882,7.36748,7.36748,0,0,0,.23143,1.54285,2.42216,2.42216,0,0,0,.54771,1.04913,2.20624,2.20624,0,0,0,1.14942.60171,34.8525,34.8525,0,0,0,5.01425.25457c2.7.03857,5.06824,0,7.86851-.216a2.22162,2.22162,0,0,0,1.18027-.60171,1.92081,1.92081,0,0,0,.47057-.77142A8.16164,8.16164,0,0,0,17.51958,8.984C17.55044,8.552,17.55044,5.94463,17.55044,5.48178ZM7.32137,9.44689V4.67178L11.8882,7.07091C10.60763,7.78061,8.91822,8.58289,7.32137,9.44689Z" transform="translate(-0.57234 -1.27622)"/></svg>