<svg width="40" height="39" viewBox="0 0 40 39" fill="none" xmlns="http://www.w3.org/2000/svg">
<path d="M20.0534 14.9524C19.1133 14.9524 18.1943 15.2312 17.4126 15.7535C16.6309 16.2758 16.0216 17.0182 15.6619 17.8867C15.3021 18.7553 15.208 19.711 15.3914 20.6331C15.5748 21.5551 16.0275 22.4021 16.6923 23.0668C17.357 23.7316 18.204 24.1843 19.1261 24.3677C20.0481 24.5511 21.0038 24.457 21.8724 24.0972C22.741 23.7375 23.4833 23.1282 24.0056 22.3465C24.5279 21.5649 24.8067 20.6459 24.8067 19.7057C24.8067 19.0815 24.6838 18.4634 24.4449 17.8867C24.206 17.31 23.8559 16.786 23.4145 16.3446C22.9731 15.9032 22.4491 15.5531 21.8724 15.3142C21.2957 15.0753 20.6776 14.9524 20.0534 14.9524ZM39.0859 10.2566C39.0758 8.77643 38.8032 7.30982 38.2809 5.9249C37.8962 4.91148 37.3009 3.99116 36.5344 3.22467C35.768 2.45818 34.8476 1.86294 33.8342 1.47823C32.4493 0.955868 30.9827 0.683313 29.5026 0.673229C27.0301 0.539062 26.3017 0.539062 20.0534 0.539062C13.8051 0.539062 13.0767 0.539062 10.6042 0.673229C9.12409 0.683313 7.65748 0.955868 6.27255 1.47823C5.25913 1.86294 4.33882 2.45818 3.57232 3.22467C2.80583 3.99116 2.21059 4.91148 1.82589 5.9249C1.30352 7.30982 1.03097 8.77643 1.02089 10.2566C0.886719 12.7291 0.886719 13.4574 0.886719 19.7057C0.886719 25.9541 0.886719 26.6824 1.02089 29.1549C1.04152 30.6402 1.3137 32.1113 1.82589 33.5057C2.20889 34.5145 2.80363 35.4295 3.57005 36.1891C4.33326 36.9602 5.25555 37.5554 6.27255 37.9332C7.65748 38.4556 9.12409 38.7281 10.6042 38.7382C13.0767 38.8724 13.8051 38.8724 20.0534 38.8724C26.3017 38.8724 27.0301 38.8724 29.5026 38.7382C30.9827 38.7281 32.4493 38.4556 33.8342 37.9332C34.8512 37.5554 35.7735 36.9602 36.5367 36.1891C37.3031 35.4295 37.8979 34.5145 38.2809 33.5057C38.8027 32.114 39.0752 30.6412 39.0859 29.1549C39.2201 26.6824 39.2201 25.9541 39.2201 19.7057C39.2201 13.4574 39.2201 12.7291 39.0859 10.2566ZM34.2176 25.5899C34.156 26.7727 33.9036 27.9377 33.4701 29.0399C33.098 29.9593 32.5448 30.7945 31.8435 31.4958C31.1421 32.1972 30.307 32.7503 29.3876 33.1224C28.275 33.5318 27.1034 33.7583 25.9184 33.7932C24.4042 33.7932 24.0017 33.7932 20.0534 33.7932C16.1051 33.7932 15.7026 33.7932 14.1884 33.7932C13.0034 33.7583 11.8318 33.5318 10.7192 33.1224C9.76875 32.7692 8.91042 32.2057 8.20839 31.4741C7.51391 30.7865 6.97759 29.9558 6.63672 29.0399C6.2257 27.9285 6.00538 26.7556 5.98505 25.5707C5.98505 24.0566 5.98505 23.6541 5.98505 19.7057C5.98505 15.7574 5.98505 15.3549 5.98505 13.8407C6.00538 12.6559 6.2257 11.483 6.63672 10.3716C6.98992 9.42109 7.55341 8.56276 8.28505 7.86073C8.97569 7.17001 9.80547 6.63424 10.7192 6.28906C11.8318 5.87967 13.0034 5.65313 14.1884 5.61823C15.7026 5.61823 16.1051 5.61823 20.0534 5.61823C24.0017 5.61823 24.4042 5.61823 25.9184 5.61823C27.1034 5.65313 28.275 5.87967 29.3876 6.28906C30.338 6.64227 31.1964 7.20576 31.8984 7.9374C32.5929 8.625 33.1292 9.45565 33.4701 10.3716C33.8794 11.4842 34.106 12.6557 34.1409 13.8407C34.1409 15.3549 34.1409 15.7574 34.1409 19.7057C34.1409 23.6541 34.2751 24.0566 34.2176 25.5707V25.5899ZM31.1509 11.3299C30.9227 10.7108 30.5629 10.1485 30.0963 9.68197C29.6297 9.2154 29.0675 8.8556 28.4484 8.6274C27.5983 8.33273 26.703 8.19 25.8034 8.20573C24.3084 8.20573 23.8867 8.20573 20.0534 8.20573C16.2201 8.20573 15.7984 8.20573 14.3034 8.20573C13.3992 8.21457 12.5038 8.38328 11.6584 8.70406C11.0487 8.9219 10.4925 9.26701 10.0265 9.71645C9.56054 10.1659 9.19559 10.7094 8.95589 11.3107C8.67754 12.1643 8.54156 13.058 8.55339 13.9557C8.55339 15.4507 8.55339 15.8724 8.55339 19.7057C8.55339 23.5391 8.55339 23.9607 8.55339 25.4557C8.57239 26.3589 8.74078 27.2526 9.05172 28.1007C9.27992 28.7198 9.63972 29.2821 10.1063 29.7487C10.5729 30.2152 11.1351 30.575 11.7542 30.8032C12.572 31.104 13.4326 31.2722 14.3034 31.3016C15.7984 31.3016 16.2201 31.3016 20.0534 31.3016C23.8867 31.3016 24.3084 31.3016 25.8034 31.3016C26.7075 31.2927 27.603 31.124 28.4484 30.8032C29.0675 30.575 29.6297 30.2152 30.0963 29.7487C30.5629 29.2821 30.9227 28.7198 31.1509 28.1007C31.4717 27.2553 31.6404 26.3599 31.6492 25.4557C31.6492 23.9607 31.6492 23.5391 31.6492 19.7057C31.6492 15.8724 31.6492 15.4507 31.6492 13.9557C31.6498 13.0507 31.4807 12.1535 31.1509 11.3107V11.3299ZM20.0534 27.0274C19.0928 27.0274 18.1416 26.8379 17.2544 26.4697C16.3672 26.1015 15.5613 25.5619 14.883 24.8818C14.2046 24.2016 13.6671 23.3944 13.3012 22.5062C12.9354 21.618 12.7484 20.6663 12.7509 19.7057C12.7509 18.2568 13.1808 16.8405 13.9862 15.636C14.7915 14.4316 15.9361 13.4932 17.2751 12.9396C18.6141 12.386 20.0872 12.2421 21.508 12.5262C22.9288 12.8102 24.2333 13.5095 25.2565 14.5353C26.2797 15.5612 26.9755 16.8676 27.2559 18.2891C27.5362 19.7107 27.3885 21.1834 26.8314 22.5209C26.2743 23.8584 25.3329 25.0006 24.1263 25.8028C22.9197 26.605 21.5023 27.0312 20.0534 27.0274ZM27.7201 13.8216C27.2964 13.7767 26.9043 13.5767 26.6193 13.2599C26.3343 12.9432 26.1766 12.5322 26.1766 12.1061C26.1766 11.6801 26.3343 11.2691 26.6193 10.9524C26.9043 10.6356 27.2964 10.4356 27.7201 10.3907C28.1437 10.4356 28.5359 10.6356 28.8208 10.9524C29.1058 11.2691 29.2635 11.6801 29.2635 12.1061C29.2635 12.5322 29.1058 12.9432 28.8208 13.2599C28.5359 13.5767 28.1437 13.7767 27.7201 13.8216Z" fill="#808E9A"/>
</svg>
