<svg width="40" height="39" viewBox="0 0 40 39" fill="none" xmlns="http://www.w3.org/2000/svg">
<path d="M36.2349 0.242188H3.99641C2.23435 0.242188 0.693359 1.50846 0.693359 3.2512V35.5627C0.693359 37.314 2.23221 38.8743 3.99426 38.8743H36.2263C37.9948 38.8743 39.3255 37.3054 39.3255 35.5627V3.2512C39.3362 1.50846 37.997 0.242188 36.2349 0.242188ZM12.6693 32.4442H7.13204V15.2357H12.6693V32.4442ZM10.0938 12.6195H10.0509C8.28242 12.6195 7.13204 11.3017 7.13204 9.65125C7.13204 7.96861 8.31247 6.68087 10.1239 6.68087C11.9353 6.68087 13.0428 7.95788 13.0835 9.64911C13.0835 11.2996 11.9353 12.6173 10.0938 12.6173V12.6195ZM32.8954 32.4442H27.3603V23.0351C27.3603 20.7816 26.5554 19.2406 24.553 19.2406C23.0227 19.2406 22.117 20.2772 21.7157 21.2838C21.5654 21.6465 21.5225 22.1402 21.5225 22.6424V32.4442H15.9895V15.2357H21.5247V17.6309C22.3295 16.4848 23.585 14.8344 26.5146 14.8344C30.1482 14.8344 32.8954 17.2296 32.8954 22.3891V32.4442Z" fill="#808E9A"/>
</svg>
