<svg width="39" height="39" viewBox="0 0 39 39" fill="none" xmlns="http://www.w3.org/2000/svg">
<g clip-path="url(#clip0_2002_5591)">
<mask id="mask0_2002_5591" style="mask-type:luminance" maskUnits="userSpaceOnUse" x="0" y="0" width="39" height="39">
<path d="M38.8838 0.242188H0.322266V38.8037H38.8838V0.242188Z" fill="white"/>
</mask>
<g mask="url(#mask0_2002_5591)">
<path d="M34.3649 0.242188H4.84119C2.34546 0.242188 0.322266 2.26538 0.322266 4.76112V34.2848C0.322266 36.7805 2.34546 38.8037 4.84119 38.8037H34.3649C36.8606 38.8037 38.8838 36.7805 38.8838 34.2848V4.76112C38.8838 2.26538 36.8606 0.242188 34.3649 0.242188Z" fill="#808E9A"/>
<path d="M27.128 7.77344H31.1143L22.4054 17.7271L32.6507 31.2719H24.6287L18.3456 23.0571L11.1563 31.2719H7.16765L16.4826 20.6253L6.6543 7.77344H14.8799L20.5593 15.2821L27.128 7.77344ZM25.729 28.8859H27.9378L13.6797 10.0341H11.3094L25.729 28.8859Z" fill="white"/>
</g>
</g>
<defs>
<clipPath id="clip0_2002_5591">
<rect width="38.5615" height="38.5615" fill="white" transform="translate(0.324219 0.242188)"/>
</clipPath>
</defs>
</svg>
